<?xml version="1.0" encoding="UTF-8" standalone="no"?>
<!DOCTYPE svg PUBLIC "-//W3C//DTD SVG 1.1//EN"
 "http://www.w3.org/Graphics/SVG/1.1/DTD/svg11.dtd">
<!-- Generated by graphviz version 2.38.0 (20140413.2041)
 -->
<!-- Title: src/source/SERIAL_SWITCH.h Pages: 1 -->
<!--zoomable 140 -->
<svg id="main" version="1.1" xmlns="http://www.w3.org/2000/svg" xmlns:xlink="http://www.w3.org/1999/xlink" xml:space="preserve" onload="init(evt)">
<style type="text/css"><![CDATA[
.edge:hover path { stroke: red; }
.edge:hover polygon { stroke: red; fill: red; }
]]></style>
<script type="text/javascript"><![CDATA[
var edges = document.getElementsByTagName('g');
if (edges && edges.length) {
  for (var i=0;i<edges.length;i++) {
    if (edges[i].id.substr(0,4)=='edge') {
      edges[i].setAttribute('class','edge');
    }
  }
}
]]></script>
        <defs>
                <circle id="rim" cx="0" cy="0" r="7"/>
                <circle id="rim2" cx="0" cy="0" r="3.5"/>
                <g id="zoomPlus">
                        <use xlink:href="#rim" fill="#404040">
                                <set attributeName="fill" to="#808080" begin="zoomplus.mouseover" end="zoomplus.mouseout"/>
                        </use>
                        <path d="M-4,0h8M0,-4v8" fill="none" stroke="white" stroke-width="1.5" pointer-events="none"/>
                </g>
                <g id="zoomMin">
                        <use xlink:href="#rim" fill="#404040">
                                <set attributeName="fill" to="#808080" begin="zoomminus.mouseover" end="zoomminus.mouseout"/>
                        </use>
                        <path d="M-4,0h8" fill="none" stroke="white" stroke-width="1.5" pointer-events="none"/>
                </g>
                <g id="dirArrow">
                        <path fill="none" stroke="white" stroke-width="1.5" d="M0,-3.0v7 M-2.5,-0.5L0,-3.0L2.5,-0.5"/>
                </g>
               <g id="resetDef">
                       <use xlink:href="#rim2" fill="#404040">
                               <set attributeName="fill" to="#808080" begin="reset.mouseover" end="reset.mouseout"/>
                       </use>
               </g>
        </defs>

<script type="text/javascript">
var viewWidth = 3864;
var viewHeight = 140;
var sectionId = 'dynsection-1';
</script>
<script xlink:href="svgpan.js"/>
<svg id="graph" class="graph">
<g id="viewport">
<title>src/source/SERIAL_SWITCH.h</title>
<polygon fill="white" stroke="none" points="-4,4 -4,-136 3859.5,-136 3859.5,4 -4,4"/>
<!-- Node1 -->
<g id="node1" class="node"><title>Node1</title>
<g id="a_node1"><a xlink:title=" ">
<polygon fill="#bfbfbf" stroke="black" points="817,-112.5 817,-131.5 968,-131.5 968,-112.5 817,-112.5"/>
<text text-anchor="middle" x="892.5" y="-119.5" font-family="Helvetica,sans-Serif" font-size="10.00">src/source/SERIAL_SWITCH.h</text>
</a>
</g>
</g>
<!-- Node2 -->
<g id="node2" class="node"><title>Node2</title>
<g id="a_node2"><a xlink:href="_s_e_r_i_a_l___s_w_i_t_c_h_8cpp.html" target="_top" xlink:title=" ">
<polygon fill="white" stroke="black" points="703,-56.5 703,-75.5 864,-75.5 864,-56.5 703,-56.5"/>
<text text-anchor="middle" x="783.5" y="-63.5" font-family="Helvetica,sans-Serif" font-size="10.00">src/source/SERIAL_SWITCH.cpp</text>
</a>
</g>
</g>
<!-- Node1&#45;&gt;Node2 -->
<g id="edge1" class="edge"><title>Node1&#45;&gt;Node2</title>
<path fill="none" stroke="midnightblue" d="M865.981,-107.862C845.77,-97.8492 818.513,-84.3458 800.969,-75.6545"/>
<polygon fill="midnightblue" stroke="midnightblue" points="864.473,-111.021 874.987,-112.324 867.58,-104.748 864.473,-111.021"/>
</g>
<!-- Node3 -->
<g id="node3" class="node"><title>Node3</title>
<g id="a_node3"><a xlink:href="_t_m_c2208_stepper_8cpp.html" target="_top" xlink:title=" ">
<polygon fill="white" stroke="black" points="0,-0.5 0,-19.5 159,-19.5 159,-0.5 0,-0.5"/>
<text text-anchor="middle" x="79.5" y="-7.5" font-family="Helvetica,sans-Serif" font-size="10.00">src/source/TMC2208Stepper.cpp</text>
</a>
</g>
</g>
<!-- Node1&#45;&gt;Node3 -->
<g id="edge2" class="edge"><title>Node1&#45;&gt;Node3</title>
<path fill="none" stroke="midnightblue" d="M892.192,-101.854C890.83,-86.8431 886.307,-66.7524 872.5,-56 810.616,-7.80724 245.706,-25.992 167.5,-20 164.744,-19.7888 161.94,-19.5628 159.109,-19.3252"/>
<polygon fill="midnightblue" stroke="midnightblue" points="888.71,-102.297 892.718,-112.105 895.701,-101.938 888.71,-102.297"/>
</g>
<!-- Node4 -->
<g id="node4" class="node"><title>Node4</title>
<g id="a_node4"><a xlink:href="_t_m_c_stepper_8h.html" target="_top" xlink:title=" ">
<polygon fill="white" stroke="black" points="1735,-56.5 1735,-75.5 1830,-75.5 1830,-56.5 1735,-56.5"/>
<text text-anchor="middle" x="1782.5" y="-63.5" font-family="Helvetica,sans-Serif" font-size="10.00">src/TMCStepper.h</text>
</a>
</g>
</g>
<!-- Node1&#45;&gt;Node4 -->
<g id="edge3" class="edge"><title>Node1&#45;&gt;Node4</title>
<path fill="none" stroke="midnightblue" d="M978.583,-115.777C1163.13,-104.58 1591.71,-78.5758 1734.93,-69.8863"/>
<polygon fill="midnightblue" stroke="midnightblue" points="978.151,-112.297 968.381,-116.396 978.575,-119.284 978.151,-112.297"/>
</g>
<!-- Node4&#45;&gt;Node3 -->
<g id="edge22" class="edge"><title>Node4&#45;&gt;Node3</title>
<path fill="none" stroke="midnightblue" d="M1724.73,-64.9356C1515.23,-64.3734 775.811,-59.5272 167.5,-20 164.741,-19.8208 161.936,-19.6222 159.103,-19.408"/>
<polygon fill="midnightblue" stroke="midnightblue" points="1724.87,-68.4358 1734.88,-64.9605 1724.89,-61.4359 1724.87,-68.4358"/>
</g>
<!-- Node5 -->
<g id="node5" class="node"><title>Node5</title>
<g id="a_node5"><a xlink:href="_c_h_o_p_c_o_n_f_8cpp.html" target="_top" xlink:title=" ">
<polygon fill="white" stroke="black" points="177,-0.5 177,-19.5 316,-19.5 316,-0.5 177,-0.5"/>
<text text-anchor="middle" x="246.5" y="-7.5" font-family="Helvetica,sans-Serif" font-size="10.00">src/source/CHOPCONF.cpp</text>
</a>
</g>
</g>
<!-- Node4&#45;&gt;Node5 -->
<g id="edge4" class="edge"><title>Node4&#45;&gt;Node5</title>
<path fill="none" stroke="midnightblue" d="M1724.86,-64.9278C1528.68,-64.3176 868.879,-59.2758 325.5,-20 322.471,-19.7811 319.379,-19.5333 316.258,-19.2633"/>
<polygon fill="midnightblue" stroke="midnightblue" points="1724.94,-68.4279 1734.95,-64.9564 1724.96,-61.4279 1724.94,-68.4279"/>
</g>
<!-- Node6 -->
<g id="node6" class="node"><title>Node6</title>
<g id="a_node6"><a xlink:href="_c_o_o_l_c_o_n_f_8cpp.html" target="_top" xlink:title=" ">
<polygon fill="white" stroke="black" points="334.5,-0.5 334.5,-19.5 472.5,-19.5 472.5,-0.5 334.5,-0.5"/>
<text text-anchor="middle" x="403.5" y="-7.5" font-family="Helvetica,sans-Serif" font-size="10.00">src/source/COOLCONF.cpp</text>
</a>
</g>
</g>
<!-- Node4&#45;&gt;Node6 -->
<g id="edge5" class="edge"><title>Node4&#45;&gt;Node6</title>
<path fill="none" stroke="midnightblue" d="M1724.69,-64.6544C1542.02,-63.208 960.969,-55.8955 481.5,-20 478.645,-19.7863 475.734,-19.5471 472.795,-19.288"/>
<polygon fill="midnightblue" stroke="midnightblue" points="1724.85,-68.1556 1734.87,-64.7321 1724.9,-61.1558 1724.85,-68.1556"/>
</g>
<!-- Node7 -->
<g id="node7" class="node"><title>Node7</title>
<g id="a_node7"><a xlink:href="_d_r_v___c_o_n_f_8cpp.html" target="_top" xlink:title=" ">
<polygon fill="white" stroke="black" points="491,-0.5 491,-19.5 628,-19.5 628,-0.5 491,-0.5"/>
<text text-anchor="middle" x="559.5" y="-7.5" font-family="Helvetica,sans-Serif" font-size="10.00">src/source/DRV_CONF.cpp</text>
</a>
</g>
</g>
<!-- Node4&#45;&gt;Node7 -->
<g id="edge6" class="edge"><title>Node4&#45;&gt;Node7</title>
<path fill="none" stroke="midnightblue" d="M1724.83,-64.3064C1556.78,-61.9472 1053.08,-52.4762 636.5,-20 633.816,-19.7908 631.082,-19.5593 628.321,-19.3104"/>
<polygon fill="midnightblue" stroke="midnightblue" points="1724.89,-67.8075 1734.94,-64.4454 1724.99,-60.8081 1724.89,-67.8075"/>
</g>
<!-- Node8 -->
<g id="node8" class="node"><title>Node8</title>
<g id="a_node8"><a xlink:href="_d_r_v___s_t_a_t_u_s_8cpp.html" target="_top" xlink:title=" ">
<polygon fill="white" stroke="black" points="646,-0.5 646,-19.5 793,-19.5 793,-0.5 646,-0.5"/>
<text text-anchor="middle" x="719.5" y="-7.5" font-family="Helvetica,sans-Serif" font-size="10.00">src/source/DRV_STATUS.cpp</text>
</a>
</g>
</g>
<!-- Node4&#45;&gt;Node8 -->
<g id="edge7" class="edge"><title>Node4&#45;&gt;Node8</title>
<path fill="none" stroke="midnightblue" d="M1724.96,-63.6366C1573.57,-59.7731 1151.68,-47.2216 801.5,-20 798.787,-19.7891 796.025,-19.56 793.236,-19.3164"/>
<polygon fill="midnightblue" stroke="midnightblue" points="1724.88,-67.1356 1734.96,-63.8893 1725.05,-60.1378 1724.88,-67.1356"/>
</g>
<!-- Node9 -->
<g id="node9" class="node"><title>Node9</title>
<g id="a_node9"><a xlink:href="_d_r_v_c_o_n_f_8cpp.html" target="_top" xlink:title=" ">
<polygon fill="white" stroke="black" points="811,-0.5 811,-19.5 942,-19.5 942,-0.5 811,-0.5"/>
<text text-anchor="middle" x="876.5" y="-7.5" font-family="Helvetica,sans-Serif" font-size="10.00">src/source/DRVCONF.cpp</text>
</a>
</g>
</g>
<!-- Node4&#45;&gt;Node9 -->
<g id="edge8" class="edge"><title>Node4&#45;&gt;Node9</title>
<path fill="none" stroke="midnightblue" d="M1724.49,-63.1635C1588.99,-58.5886 1241.19,-45.1976 951.5,-20 948.495,-19.7386 945.425,-19.4516 942.325,-19.1456"/>
<polygon fill="midnightblue" stroke="midnightblue" points="1724.53,-66.6668 1734.65,-63.5032 1724.77,-59.6707 1724.53,-66.6668"/>
</g>
<!-- Node10 -->
<g id="node10" class="node"><title>Node10</title>
<g id="a_node10"><a xlink:href="_d_r_v_c_t_r_l_8cpp.html" target="_top" xlink:title=" ">
<polygon fill="white" stroke="black" points="960.5,-0.5 960.5,-19.5 1088.5,-19.5 1088.5,-0.5 960.5,-0.5"/>
<text text-anchor="middle" x="1024.5" y="-7.5" font-family="Helvetica,sans-Serif" font-size="10.00">src/source/DRVCTRL.cpp</text>
</a>
</g>
</g>
<!-- Node4&#45;&gt;Node10 -->
<g id="edge9" class="edge"><title>Node4&#45;&gt;Node10</title>
<path fill="none" stroke="midnightblue" d="M1724.41,-62.3047C1606.21,-56.5732 1329.29,-41.8842 1097.5,-20 1094.58,-19.7239 1091.59,-19.4248 1088.57,-19.1091"/>
<polygon fill="midnightblue" stroke="midnightblue" points="1724.52,-65.8138 1734.67,-62.7991 1724.85,-58.8219 1724.52,-65.8138"/>
</g>
<!-- Node11 -->
<g id="node11" class="node"><title>Node11</title>
<g id="a_node11"><a xlink:href="_d_r_v_s_t_a_t_u_s_8cpp.html" target="_top" xlink:title=" ">
<polygon fill="white" stroke="black" points="1106.5,-0.5 1106.5,-19.5 1248.5,-19.5 1248.5,-0.5 1106.5,-0.5"/>
<text text-anchor="middle" x="1177.5" y="-7.5" font-family="Helvetica,sans-Serif" font-size="10.00">src/source/DRVSTATUS.cpp</text>
</a>
</g>
</g>
<!-- Node4&#45;&gt;Node11 -->
<g id="edge10" class="edge"><title>Node4&#45;&gt;Node11</title>
<path fill="none" stroke="midnightblue" d="M1724.52,-60.536C1627.71,-52.9681 1427.02,-36.7976 1257.5,-20 1254.58,-19.7106 1251.6,-19.4081 1248.59,-19.0966"/>
<polygon fill="midnightblue" stroke="midnightblue" points="1724.44,-64.0403 1734.69,-61.3286 1724.99,-57.0615 1724.44,-64.0403"/>
</g>
<!-- Node12 -->
<g id="node12" class="node"><title>Node12</title>
<g id="a_node12"><a xlink:href="_e_n_c_m_o_d_e_8cpp.html" target="_top" xlink:title=" ">
<polygon fill="white" stroke="black" points="1266.5,-0.5 1266.5,-19.5 1400.5,-19.5 1400.5,-0.5 1266.5,-0.5"/>
<text text-anchor="middle" x="1333.5" y="-7.5" font-family="Helvetica,sans-Serif" font-size="10.00">src/source/ENCMODE.cpp</text>
</a>
</g>
</g>
<!-- Node4&#45;&gt;Node12 -->
<g id="edge11" class="edge"><title>Node4&#45;&gt;Node12</title>
<path fill="none" stroke="midnightblue" d="M1724.85,-58.0668C1641.75,-48.073 1488.65,-29.6593 1400.59,-19.0684"/>
<polygon fill="midnightblue" stroke="midnightblue" points="1724.53,-61.553 1734.87,-59.2722 1725.36,-54.6031 1724.53,-61.553"/>
</g>
<!-- Node13 -->
<g id="node13" class="node"><title>Node13</title>
<g id="a_node13"><a xlink:href="_g_c_o_n_f_8cpp.html" target="_top" xlink:title=" ">
<polygon fill="white" stroke="black" points="1419,-0.5 1419,-19.5 1538,-19.5 1538,-0.5 1419,-0.5"/>
<text text-anchor="middle" x="1478.5" y="-7.5" font-family="Helvetica,sans-Serif" font-size="10.00">src/source/GCONF.cpp</text>
</a>
</g>
</g>
<!-- Node4&#45;&gt;Node13 -->
<g id="edge12" class="edge"><title>Node4&#45;&gt;Node13</title>
<path fill="none" stroke="midnightblue" d="M1724.66,-54.7255C1667.25,-44.5282 1580.28,-29.0793 1526.56,-19.5364"/>
<polygon fill="midnightblue" stroke="midnightblue" points="1724.21,-58.2001 1734.67,-56.5031 1725.43,-51.308 1724.21,-58.2001"/>
</g>
<!-- Node14 -->
<g id="node14" class="node"><title>Node14</title>
<g id="a_node14"><a xlink:href="_i_h_o_l_d___i_r_u_n_8cpp.html" target="_top" xlink:title=" ">
<polygon fill="white" stroke="black" points="1556.5,-0.5 1556.5,-19.5 1696.5,-19.5 1696.5,-0.5 1556.5,-0.5"/>
<text text-anchor="middle" x="1626.5" y="-7.5" font-family="Helvetica,sans-Serif" font-size="10.00">src/source/IHOLD_IRUN.cpp</text>
</a>
</g>
</g>
<!-- Node4&#45;&gt;Node14 -->
<g id="edge13" class="edge"><title>Node4&#45;&gt;Node14</title>
<path fill="none" stroke="midnightblue" d="M1748.33,-53.172C1718.96,-43.0039 1677.3,-28.5852 1651.1,-19.5164"/>
<polygon fill="midnightblue" stroke="midnightblue" points="1747.19,-56.4798 1757.78,-56.4435 1749.48,-49.8649 1747.19,-56.4798"/>
</g>
<!-- Node15 -->
<g id="node15" class="node"><title>Node15</title>
<g id="a_node15"><a xlink:href="_p_w_m_c_o_n_f_8cpp.html" target="_top" xlink:title=" ">
<polygon fill="white" stroke="black" points="1714.5,-0.5 1714.5,-19.5 1850.5,-19.5 1850.5,-0.5 1714.5,-0.5"/>
<text text-anchor="middle" x="1782.5" y="-7.5" font-family="Helvetica,sans-Serif" font-size="10.00">src/source/PWMCONF.cpp</text>
</a>
</g>
</g>
<!-- Node4&#45;&gt;Node15 -->
<g id="edge14" class="edge"><title>Node4&#45;&gt;Node15</title>
<path fill="none" stroke="midnightblue" d="M1782.5,-45.8045C1782.5,-36.9102 1782.5,-26.7798 1782.5,-19.7511"/>
<polygon fill="midnightblue" stroke="midnightblue" points="1779,-46.083 1782.5,-56.083 1786,-46.083 1779,-46.083"/>
</g>
<!-- Node16 -->
<g id="node16" class="node"><title>Node16</title>
<g id="a_node16"><a xlink:href="_r_a_m_p___s_t_a_t_8cpp.html" target="_top" xlink:title=" ">
<polygon fill="white" stroke="black" points="1868.5,-0.5 1868.5,-19.5 2010.5,-19.5 2010.5,-0.5 1868.5,-0.5"/>
<text text-anchor="middle" x="1939.5" y="-7.5" font-family="Helvetica,sans-Serif" font-size="10.00">src/source/RAMP_STAT.cpp</text>
</a>
</g>
</g>
<!-- Node4&#45;&gt;Node16 -->
<g id="edge15" class="edge"><title>Node4&#45;&gt;Node16</title>
<path fill="none" stroke="midnightblue" d="M1816.89,-53.172C1846.45,-43.0039 1888.37,-28.5852 1914.74,-19.5164"/>
<polygon fill="midnightblue" stroke="midnightblue" points="1815.7,-49.8813 1807.38,-56.4435 1817.97,-56.5007 1815.7,-49.8813"/>
</g>
<!-- Node17 -->
<g id="node17" class="node"><title>Node17</title>
<g id="a_node17"><a xlink:href="_s_g_c_s_c_o_n_f_8cpp.html" target="_top" xlink:title=" ">
<polygon fill="white" stroke="black" points="2029,-0.5 2029,-19.5 2168,-19.5 2168,-0.5 2029,-0.5"/>
<text text-anchor="middle" x="2098.5" y="-7.5" font-family="Helvetica,sans-Serif" font-size="10.00">src/source/SGCSCONF.cpp</text>
</a>
</g>
</g>
<!-- Node4&#45;&gt;Node17 -->
<g id="edge16" class="edge"><title>Node4&#45;&gt;Node17</title>
<path fill="none" stroke="midnightblue" d="M1840.16,-55.1461C1899.82,-44.9519 1992.02,-29.1953 2048.63,-19.5216"/>
<polygon fill="midnightblue" stroke="midnightblue" points="1839.42,-51.7227 1830.15,-56.8572 1840.6,-58.6227 1839.42,-51.7227"/>
</g>
<!-- Node18 -->
<g id="node18" class="node"><title>Node18</title>
<g id="a_node18"><a xlink:href="_s_h_o_r_t___c_o_n_f_8cpp.html" target="_top" xlink:title=" ">
<polygon fill="white" stroke="black" points="2186,-0.5 2186,-19.5 2335,-19.5 2335,-0.5 2186,-0.5"/>
<text text-anchor="middle" x="2260.5" y="-7.5" font-family="Helvetica,sans-Serif" font-size="10.00">src/source/SHORT_CONF.cpp</text>
</a>
</g>
</g>
<!-- Node4&#45;&gt;Node18 -->
<g id="edge17" class="edge"><title>Node4&#45;&gt;Node18</title>
<path fill="none" stroke="midnightblue" d="M1840.25,-58.476C1926.84,-48.6935 2090.33,-30.2237 2185.87,-19.431"/>
<polygon fill="midnightblue" stroke="midnightblue" points="1839.62,-55.0243 1830.08,-59.6249 1840.41,-61.9801 1839.62,-55.0243"/>
</g>
<!-- Node19 -->
<g id="node19" class="node"><title>Node19</title>
<g id="a_node19"><a xlink:href="_s_m_a_r_t_e_n_8cpp.html" target="_top" xlink:title=" ">
<polygon fill="white" stroke="black" points="2353,-0.5 2353,-19.5 2484,-19.5 2484,-0.5 2353,-0.5"/>
<text text-anchor="middle" x="2418.5" y="-7.5" font-family="Helvetica,sans-Serif" font-size="10.00">src/source/SMARTEN.cpp</text>
</a>
</g>
</g>
<!-- Node4&#45;&gt;Node19 -->
<g id="edge18" class="edge"><title>Node4&#45;&gt;Node19</title>
<path fill="none" stroke="midnightblue" d="M1840.39,-61.1534C1942.37,-54.201 2160.66,-38.5314 2344.5,-20 2347.2,-19.7274 2349.96,-19.439 2352.75,-19.1392"/>
<polygon fill="midnightblue" stroke="midnightblue" points="1840.04,-57.669 1830.3,-61.8386 1840.51,-64.6529 1840.04,-57.669"/>
</g>
<!-- Node20 -->
<g id="node20" class="node"><title>Node20</title>
<g id="a_node20"><a xlink:href="_s_w___m_o_d_e_8cpp.html" target="_top" xlink:title=" ">
<polygon fill="white" stroke="black" points="2502,-0.5 2502,-19.5 2637,-19.5 2637,-0.5 2502,-0.5"/>
<text text-anchor="middle" x="2569.5" y="-7.5" font-family="Helvetica,sans-Serif" font-size="10.00">src/source/SW_MODE.cpp</text>
</a>
</g>
</g>
<!-- Node4&#45;&gt;Node20 -->
<g id="edge19" class="edge"><title>Node4&#45;&gt;Node20</title>
<path fill="none" stroke="midnightblue" d="M1840.6,-62.4004C1962.02,-56.731 2251.43,-41.9771 2493.5,-20 2496.28,-19.7477 2499.11,-19.4763 2501.98,-19.1905"/>
<polygon fill="midnightblue" stroke="midnightblue" points="1840.25,-58.9131 1830.42,-62.8729 1840.57,-65.9055 1840.25,-58.9131"/>
</g>
<!-- Node21 -->
<g id="node21" class="node"><title>Node21</title>
<g id="a_node21"><a xlink:href="_t_m_c2130_stepper_8cpp.html" target="_top" xlink:title=" ">
<polygon fill="white" stroke="black" points="2655,-0.5 2655,-19.5 2814,-19.5 2814,-0.5 2655,-0.5"/>
<text text-anchor="middle" x="2734.5" y="-7.5" font-family="Helvetica,sans-Serif" font-size="10.00">src/source/TMC2130Stepper.cpp</text>
</a>
</g>
</g>
<!-- Node4&#45;&gt;Node21 -->
<g id="edge20" class="edge"><title>Node4&#45;&gt;Node21</title>
<path fill="none" stroke="midnightblue" d="M1840.33,-62.9852C1979.37,-57.9238 2343.34,-43.3828 2646.5,-20 2649.26,-19.7874 2652.06,-19.5602 2654.89,-19.3216"/>
<polygon fill="midnightblue" stroke="midnightblue" points="1840.19,-59.488 1830.32,-63.3473 1840.44,-66.4834 1840.19,-59.488"/>
</g>
<!-- Node22 -->
<g id="node22" class="node"><title>Node22</title>
<g id="a_node22"><a xlink:href="_t_m_c2160_stepper_8cpp.html" target="_top" xlink:title=" ">
<polygon fill="white" stroke="black" points="2832,-0.5 2832,-19.5 2991,-19.5 2991,-0.5 2832,-0.5"/>
<text text-anchor="middle" x="2911.5" y="-7.5" font-family="Helvetica,sans-Serif" font-size="10.00">src/source/TMC2160Stepper.cpp</text>
</a>
</g>
</g>
<!-- Node4&#45;&gt;Node22 -->
<g id="edge21" class="edge"><title>Node4&#45;&gt;Node22</title>
<path fill="none" stroke="midnightblue" d="M1840.44,-63.6889C1998.33,-59.8583 2449.38,-47.194 2823.5,-20 2826.26,-19.7996 2829.06,-19.5829 2831.89,-19.3531"/>
<polygon fill="midnightblue" stroke="midnightblue" points="1839.94,-60.1999 1830.03,-63.9391 1840.11,-67.1979 1839.94,-60.1999"/>
</g>
<!-- Node23 -->
<g id="node23" class="node"><title>Node23</title>
<g id="a_node23"><a xlink:href="_t_m_c2209_stepper_8cpp.html" target="_top" xlink:title=" ">
<polygon fill="white" stroke="black" points="3009,-0.5 3009,-19.5 3168,-19.5 3168,-0.5 3009,-0.5"/>
<text text-anchor="middle" x="3088.5" y="-7.5" font-family="Helvetica,sans-Serif" font-size="10.00">src/source/TMC2209Stepper.cpp</text>
</a>
</g>
</g>
<!-- Node4&#45;&gt;Node23 -->
<g id="edge23" class="edge"><title>Node4&#45;&gt;Node23</title>
<path fill="none" stroke="midnightblue" d="M1840.16,-64.1997C2014.99,-61.4875 2554.48,-51.0142 3000.5,-20 3003.26,-19.8082 3006.06,-19.599 3008.89,-19.3756"/>
<polygon fill="midnightblue" stroke="midnightblue" points="1840.1,-60.7002 1830.15,-64.3526 1840.2,-67.6994 1840.1,-60.7002"/>
</g>
<!-- Node24 -->
<g id="node24" class="node"><title>Node24</title>
<g id="a_node24"><a xlink:href="_t_m_c2660_stepper_8cpp.html" target="_top" xlink:title=" ">
<polygon fill="white" stroke="black" points="3186,-0.5 3186,-19.5 3345,-19.5 3345,-0.5 3186,-0.5"/>
<text text-anchor="middle" x="3265.5" y="-7.5" font-family="Helvetica,sans-Serif" font-size="10.00">src/source/TMC2660Stepper.cpp</text>
</a>
</g>
</g>
<!-- Node4&#45;&gt;Node24 -->
<g id="edge24" class="edge"><title>Node4&#45;&gt;Node24</title>
<path fill="none" stroke="midnightblue" d="M1840.22,-64.5779C2031.12,-62.8743 2659.37,-54.8095 3177.5,-20 3180.26,-19.8147 3183.06,-19.611 3185.9,-19.3923"/>
<polygon fill="midnightblue" stroke="midnightblue" points="1840.1,-61.0787 1830.13,-64.6656 1840.16,-68.0784 1840.1,-61.0787"/>
</g>
<!-- Node25 -->
<g id="node25" class="node"><title>Node25</title>
<g id="a_node25"><a xlink:href="_t_m_c5130_stepper_8cpp.html" target="_top" xlink:title=" ">
<polygon fill="white" stroke="black" points="3363,-0.5 3363,-19.5 3522,-19.5 3522,-0.5 3363,-0.5"/>
<text text-anchor="middle" x="3442.5" y="-7.5" font-family="Helvetica,sans-Serif" font-size="10.00">src/source/TMC5130Stepper.cpp</text>
</a>
</g>
</g>
<!-- Node4&#45;&gt;Node25 -->
<g id="edge25" class="edge"><title>Node4&#45;&gt;Node25</title>
<path fill="none" stroke="midnightblue" d="M1840.44,-64.8727C2046.63,-64.0937 2764.02,-58.5944 3354.5,-20 3357.26,-19.8197 3360.06,-19.6203 3362.9,-19.4053"/>
<polygon fill="midnightblue" stroke="midnightblue" points="1840.13,-61.3736 1830.15,-64.9092 1840.16,-68.3736 1840.13,-61.3736"/>
</g>
<!-- Node26 -->
<g id="node26" class="node"><title>Node26</title>
<g id="a_node26"><a xlink:href="_t_m_c5160_stepper_8cpp.html" target="_top" xlink:title=" ">
<polygon fill="white" stroke="black" points="3540,-0.5 3540,-19.5 3699,-19.5 3699,-0.5 3540,-0.5"/>
<text text-anchor="middle" x="3619.5" y="-7.5" font-family="Helvetica,sans-Serif" font-size="10.00">src/source/TMC5160Stepper.cpp</text>
</a>
</g>
</g>
<!-- Node4&#45;&gt;Node26 -->
<g id="edge26" class="edge"><title>Node4&#45;&gt;Node26</title>
<path fill="none" stroke="midnightblue" d="M1840.24,-65.1105C2060.38,-65.1932 2867.95,-62.4058 3531.5,-20 3534.26,-19.8237 3537.06,-19.6277 3539.9,-19.4156"/>
<polygon fill="midnightblue" stroke="midnightblue" points="1840.21,-61.6106 1830.21,-65.1045 1840.21,-68.6106 1840.21,-61.6106"/>
</g>
<!-- Node27 -->
<g id="node27" class="node"><title>Node27</title>
<g id="a_node27"><a xlink:href="_t_m_c_stepper_8cpp.html" target="_top" xlink:title=" ">
<polygon fill="white" stroke="black" points="3717.5,-0.5 3717.5,-19.5 3855.5,-19.5 3855.5,-0.5 3717.5,-0.5"/>
<text text-anchor="middle" x="3786.5" y="-7.5" font-family="Helvetica,sans-Serif" font-size="10.00">src/source/TMCStepper.cpp</text>
</a>
</g>
</g>
<!-- Node4&#45;&gt;Node27 -->
<g id="edge27" class="edge"><title>Node4&#45;&gt;Node27</title>
<path fill="none" stroke="midnightblue" d="M1840.69,-64.3598C2120.74,-61.1683 3331.71,-46.0845 3708.5,-20 3711.36,-19.8023 3714.27,-19.5765 3717.21,-19.3285"/>
<polygon fill="midnightblue" stroke="midnightblue" points="1840.31,-60.8637 1830.35,-64.477 1840.39,-67.8633 1840.31,-60.8637"/>
</g>
</g>
</svg>
        <g id="navigator" transform="translate(0 0)" fill="#404254">
                <rect fill="#f2f5e9" fill-opacity="0.5" stroke="#606060" stroke-width=".5" x="0" y="0" width="60" height="60"/>
                <use id="zoomplus" xlink:href="#zoomPlus" x="17" y="9" onmousedown="handleZoom(evt,'in')"/>
                <use id="zoomminus" xlink:href="#zoomMin" x="42" y="9" onmousedown="handleZoom(evt,'out')"/>
                <use id="reset" xlink:href="#resetDef" x="30" y="36" onmousedown="handleReset()"/>
                <g id="arrowUp" xlink:href="#dirArrow" transform="translate(30 24)" onmousedown="handlePan(0,-1)">
                  <use xlink:href="#rim" fill="#404040">
                        <set attributeName="fill" to="#808080" begin="arrowUp.mouseover" end="arrowUp.mouseout"/>
                  </use>
                  <path fill="none" stroke="white" stroke-width="1.5" d="M0,-3.0v7 M-2.5,-0.5L0,-3.0L2.5,-0.5"/>
                </g>
                <g id="arrowRight" xlink:href="#dirArrow" transform="rotate(90) translate(36 -43)" onmousedown="handlePan(1,0)">
                  <use xlink:href="#rim" fill="#404040">
                        <set attributeName="fill" to="#808080" begin="arrowRight.mouseover" end="arrowRight.mouseout"/>
                  </use>
                  <path fill="none" stroke="white" stroke-width="1.5" d="M0,-3.0v7 M-2.5,-0.5L0,-3.0L2.5,-0.5"/>
                </g>
                <g id="arrowDown" xlink:href="#dirArrow" transform="rotate(180) translate(-30 -48)" onmousedown="handlePan(0,1)">
                  <use xlink:href="#rim" fill="#404040">
                        <set attributeName="fill" to="#808080" begin="arrowDown.mouseover" end="arrowDown.mouseout"/>
                  </use>
                  <path fill="none" stroke="white" stroke-width="1.5" d="M0,-3.0v7 M-2.5,-0.5L0,-3.0L2.5,-0.5"/>
                </g>
                <g id="arrowLeft" xlink:href="#dirArrow" transform="rotate(270) translate(-36 17)" onmousedown="handlePan(-1,0)">
                  <use xlink:href="#rim" fill="#404040">
                        <set attributeName="fill" to="#808080" begin="arrowLeft.mouseover" end="arrowLeft.mouseout"/>
                  </use>
                  <path fill="none" stroke="white" stroke-width="1.5" d="M0,-3.0v7 M-2.5,-0.5L0,-3.0L2.5,-0.5"/>
                </g>
        </g>
        <svg viewBox="0 0 15 15" width="100%" height="30px" preserveAspectRatio="xMaxYMin meet">
         <g id="arrow_out" transform="scale(0.3 0.3)">
          <a xlink:href="_s_e_r_i_a_l___s_w_i_t_c_h_8h__dep__incl_org.svg" target="_base">
           <rect id="button" ry="5" rx="5" y="6" x="6" height="38" width="38"
                fill="#f2f5e9" fill-opacity="0.5" stroke="#606060" stroke-width="1.0"/>
           <path id="arrow"
             d="M 11.500037,31.436501 C 11.940474,20.09759 22.043105,11.32322 32.158766,21.979434 L 37.068811,17.246167 C 37.068811,17.246167 37.088388,32 37.088388,32 L 22.160133,31.978069 C 22.160133,31.978069 26.997745,27.140456 26.997745,27.140456 C 18.528582,18.264221 13.291696,25.230495 11.500037,31.436501 z"
             style="fill:#404040;"/>
          </a>
         </g>
        </svg>
</svg>
