<?xml version="1.0" encoding="UTF-8" standalone="no"?>
<!DOCTYPE svg PUBLIC "-//W3C//DTD SVG 1.1//EN"
 "http://www.w3.org/Graphics/SVG/1.1/DTD/svg11.dtd">
<!-- Generated by graphviz version 2.38.0 (20140413.2041)
 -->
<!-- Title: src/TMCStepper.h Pages: 1 -->
<!--zoomable 140 -->
<svg id="main" version="1.1" xmlns="http://www.w3.org/2000/svg" xmlns:xlink="http://www.w3.org/1999/xlink" xml:space="preserve" onload="init(evt)">
<style type="text/css"><![CDATA[
.edge:hover path { stroke: red; }
.edge:hover polygon { stroke: red; fill: red; }
]]></style>
<script type="text/javascript"><![CDATA[
var edges = document.getElementsByTagName('g');
if (edges && edges.length) {
  for (var i=0;i<edges.length;i++) {
    if (edges[i].id.substr(0,4)=='edge') {
      edges[i].setAttribute('class','edge');
    }
  }
}
]]></script>
        <defs>
                <circle id="rim" cx="0" cy="0" r="7"/>
                <circle id="rim2" cx="0" cy="0" r="3.5"/>
                <g id="zoomPlus">
                        <use xlink:href="#rim" fill="#404040">
                                <set attributeName="fill" to="#808080" begin="zoomplus.mouseover" end="zoomplus.mouseout"/>
                        </use>
                        <path d="M-4,0h8M0,-4v8" fill="none" stroke="white" stroke-width="1.5" pointer-events="none"/>
                </g>
                <g id="zoomMin">
                        <use xlink:href="#rim" fill="#404040">
                                <set attributeName="fill" to="#808080" begin="zoomminus.mouseover" end="zoomminus.mouseout"/>
                        </use>
                        <path d="M-4,0h8" fill="none" stroke="white" stroke-width="1.5" pointer-events="none"/>
                </g>
                <g id="dirArrow">
                        <path fill="none" stroke="white" stroke-width="1.5" d="M0,-3.0v7 M-2.5,-0.5L0,-3.0L2.5,-0.5"/>
                </g>
               <g id="resetDef">
                       <use xlink:href="#rim2" fill="#404040">
                               <set attributeName="fill" to="#808080" begin="reset.mouseover" end="reset.mouseout"/>
                       </use>
               </g>
        </defs>

<script type="text/javascript">
var viewWidth = 1475;
var viewHeight = 140;
var sectionId = 'dynsection-0';
</script>
<script xlink:href="svgpan.js"/>
<svg id="graph" class="graph">
<g id="viewport">
<title>src/TMCStepper.h</title>
<polygon fill="white" stroke="none" points="-4,4 -4,-136 1470.5,-136 1470.5,4 -4,4"/>
<!-- Node1 -->
<g id="node1" class="node"><title>Node1</title>
<g id="a_node1"><a xlink:title=" ">
<polygon fill="#bfbfbf" stroke="black" points="575.5,-112.5 575.5,-131.5 670.5,-131.5 670.5,-112.5 575.5,-112.5"/>
<text text-anchor="middle" x="623" y="-119.5" font-family="Helvetica,sans-Serif" font-size="10.00">src/TMCStepper.h</text>
</a>
</g>
</g>
<!-- Node2 -->
<g id="node2" class="node"><title>Node2</title>
<g id="a_node2"><a xlink:title=" ">
<polygon fill="white" stroke="#bfbfbf" points="0,-56.5 0,-75.5 56,-75.5 56,-56.5 0,-56.5"/>
<text text-anchor="middle" x="28" y="-63.5" font-family="Helvetica,sans-Serif" font-size="10.00">Stream.h</text>
</a>
</g>
</g>
<!-- Node1&#45;&gt;Node2 -->
<g id="edge1" class="edge"><title>Node1&#45;&gt;Node2</title>
<path fill="none" stroke="midnightblue" d="M575.397,-119.591C478.812,-116.197 253.107,-105.54 66,-76 65.8995,-75.9841 65.799,-75.9682 65.6983,-75.9521"/>
<polygon fill="midnightblue" stroke="midnightblue" points="66.5997,-72.56 56.127,-74.1644 65.3144,-79.441 66.5997,-72.56"/>
</g>
<!-- Node3 -->
<g id="node3" class="node"><title>Node3</title>
<g id="a_node3"><a xlink:title=" ">
<polygon fill="white" stroke="#bfbfbf" points="74.5,-56.5 74.5,-75.5 115.5,-75.5 115.5,-56.5 74.5,-56.5"/>
<text text-anchor="middle" x="95" y="-63.5" font-family="Helvetica,sans-Serif" font-size="10.00">SPI.h</text>
</a>
</g>
</g>
<!-- Node1&#45;&gt;Node3 -->
<g id="edge2" class="edge"><title>Node1&#45;&gt;Node3</title>
<path fill="none" stroke="midnightblue" d="M575.175,-119.873C487.618,-117.12 295.716,-107.886 125.413,-75.6534"/>
<polygon fill="midnightblue" stroke="midnightblue" points="126.002,-72.2025 115.521,-73.7501 124.679,-79.0764 126.002,-72.2025"/>
</g>
<!-- Node4 -->
<g id="node4" class="node"><title>Node4</title>
<g id="a_node4"><a xlink:href="_s_e_r_i_a_l___s_w_i_t_c_h_8h.html" target="_top" xlink:title=" ">
<polygon fill="white" stroke="black" points="247,-56.5 247,-75.5 381,-75.5 381,-56.5 247,-56.5"/>
<text text-anchor="middle" x="314" y="-63.5" font-family="Helvetica,sans-Serif" font-size="10.00">source/SERIAL_SWITCH.h</text>
</a>
</g>
</g>
<!-- Node1&#45;&gt;Node4 -->
<g id="edge3" class="edge"><title>Node1&#45;&gt;Node4</title>
<path fill="none" stroke="midnightblue" d="M575.396,-112.681C520.825,-103.144 431.355,-87.5086 372.561,-77.234"/>
<polygon fill="midnightblue" stroke="midnightblue" points="373.132,-73.7807 362.678,-75.5069 371.927,-80.6762 373.132,-73.7807"/>
</g>
<!-- Node7 -->
<g id="node7" class="node"><title>Node7</title>
<g id="a_node7"><a xlink:href="_s_w___s_p_i_8h.html" target="_top" xlink:title=" ">
<polygon fill="white" stroke="black" points="133.5,-56.5 133.5,-75.5 228.5,-75.5 228.5,-56.5 133.5,-56.5"/>
<text text-anchor="middle" x="181" y="-63.5" font-family="Helvetica,sans-Serif" font-size="10.00">source/SW_SPI.h</text>
</a>
</g>
</g>
<!-- Node1&#45;&gt;Node7 -->
<g id="edge6" class="edge"><title>Node1&#45;&gt;Node7</title>
<path fill="none" stroke="midnightblue" d="M575.205,-116.039C504.196,-108.531 366.397,-93.4326 238.536,-76.0222"/>
<polygon fill="midnightblue" stroke="midnightblue" points="238.947,-72.5458 228.565,-74.6568 237.997,-79.4811 238.947,-72.5458"/>
</g>
<!-- Node8 -->
<g id="node8" class="node"><title>Node8</title>
<g id="a_node8"><a xlink:href="_t_m_c2130__bitfields_8h.html" target="_top" xlink:title=" ">
<polygon fill="white" stroke="black" points="399.5,-56.5 399.5,-75.5 536.5,-75.5 536.5,-56.5 399.5,-56.5"/>
<text text-anchor="middle" x="468" y="-63.5" font-family="Helvetica,sans-Serif" font-size="10.00">source/TMC2130_bitfields.h</text>
</a>
</g>
</g>
<!-- Node1&#45;&gt;Node8 -->
<g id="edge9" class="edge"><title>Node1&#45;&gt;Node8</title>
<path fill="none" stroke="midnightblue" d="M598.44,-112.444C572.477,-103.399 531.332,-89.064 502.203,-78.9158"/>
<polygon fill="midnightblue" stroke="midnightblue" points="503.04,-75.5013 492.445,-75.5164 500.737,-82.1116 503.04,-75.5013"/>
</g>
<!-- Node9 -->
<g id="node9" class="node"><title>Node9</title>
<g id="a_node9"><a xlink:href="_t_m_c2160__bitfields_8h.html" target="_top" xlink:title=" ">
<polygon fill="white" stroke="black" points="554.5,-56.5 554.5,-75.5 691.5,-75.5 691.5,-56.5 554.5,-56.5"/>
<text text-anchor="middle" x="623" y="-63.5" font-family="Helvetica,sans-Serif" font-size="10.00">source/TMC2160_bitfields.h</text>
</a>
</g>
</g>
<!-- Node1&#45;&gt;Node9 -->
<g id="edge10" class="edge"><title>Node1&#45;&gt;Node9</title>
<path fill="none" stroke="midnightblue" d="M623,-112.083C623,-105.006 623,-94.8611 623,-85.9865"/>
<polygon fill="midnightblue" stroke="midnightblue" points="626.5,-85.751 623,-75.7511 619.5,-85.7511 626.5,-85.751"/>
</g>
<!-- Node10 -->
<g id="node10" class="node"><title>Node10</title>
<g id="a_node10"><a xlink:href="_t_m_c5130__bitfields_8h.html" target="_top" xlink:title=" ">
<polygon fill="white" stroke="black" points="709.5,-56.5 709.5,-75.5 846.5,-75.5 846.5,-56.5 709.5,-56.5"/>
<text text-anchor="middle" x="778" y="-63.5" font-family="Helvetica,sans-Serif" font-size="10.00">source/TMC5130_bitfields.h</text>
</a>
</g>
</g>
<!-- Node1&#45;&gt;Node10 -->
<g id="edge11" class="edge"><title>Node1&#45;&gt;Node10</title>
<path fill="none" stroke="midnightblue" d="M647.56,-112.444C673.523,-103.399 714.668,-89.064 743.797,-78.9158"/>
<polygon fill="midnightblue" stroke="midnightblue" points="745.263,-82.1116 753.555,-75.5164 742.96,-75.5013 745.263,-82.1116"/>
</g>
<!-- Node11 -->
<g id="node11" class="node"><title>Node11</title>
<g id="a_node11"><a xlink:href="_t_m_c5160__bitfields_8h.html" target="_top" xlink:title=" ">
<polygon fill="white" stroke="black" points="864.5,-56.5 864.5,-75.5 1001.5,-75.5 1001.5,-56.5 864.5,-56.5"/>
<text text-anchor="middle" x="933" y="-63.5" font-family="Helvetica,sans-Serif" font-size="10.00">source/TMC5160_bitfields.h</text>
</a>
</g>
</g>
<!-- Node1&#45;&gt;Node11 -->
<g id="edge12" class="edge"><title>Node1&#45;&gt;Node11</title>
<path fill="none" stroke="midnightblue" d="M670.758,-112.681C725.506,-103.144 815.265,-87.5086 874.249,-77.234"/>
<polygon fill="midnightblue" stroke="midnightblue" points="874.913,-80.6712 884.164,-75.5069 873.712,-73.775 874.913,-80.6712"/>
</g>
<!-- Node12 -->
<g id="node12" class="node"><title>Node12</title>
<g id="a_node12"><a xlink:href="_t_m_c2208__bitfields_8h.html" target="_top" xlink:title=" ">
<polygon fill="white" stroke="black" points="1019.5,-56.5 1019.5,-75.5 1156.5,-75.5 1156.5,-56.5 1019.5,-56.5"/>
<text text-anchor="middle" x="1088" y="-63.5" font-family="Helvetica,sans-Serif" font-size="10.00">source/TMC2208_bitfields.h</text>
</a>
</g>
</g>
<!-- Node1&#45;&gt;Node12 -->
<g id="edge13" class="edge"><title>Node1&#45;&gt;Node12</title>
<path fill="none" stroke="midnightblue" d="M670.788,-115.472C742.16,-107.211 881.123,-91.1173 1009.17,-76.2124"/>
<polygon fill="midnightblue" stroke="midnightblue" points="1009.63,-79.6831 1019.15,-75.0501 1008.82,-72.73 1009.63,-79.6831"/>
</g>
<!-- Node13 -->
<g id="node13" class="node"><title>Node13</title>
<g id="a_node13"><a xlink:href="_t_m_c2209__bitfields_8h.html" target="_top" xlink:title=" ">
<polygon fill="white" stroke="black" points="1174.5,-56.5 1174.5,-75.5 1311.5,-75.5 1311.5,-56.5 1174.5,-56.5"/>
<text text-anchor="middle" x="1243" y="-63.5" font-family="Helvetica,sans-Serif" font-size="10.00">source/TMC2209_bitfields.h</text>
</a>
</g>
</g>
<!-- Node1&#45;&gt;Node13 -->
<g id="edge14" class="edge"><title>Node1&#45;&gt;Node13</title>
<path fill="none" stroke="midnightblue" d="M670.624,-117.595C763.494,-110.837 975.534,-94.8322 1164.07,-76.1664"/>
<polygon fill="midnightblue" stroke="midnightblue" points="1164.56,-79.6348 1174.17,-75.1619 1163.87,-72.6691 1164.56,-79.6348"/>
</g>
<!-- Node14 -->
<g id="node14" class="node"><title>Node14</title>
<g id="a_node14"><a xlink:href="_t_m_c2660__bitfields_8h.html" target="_top" xlink:title=" ">
<polygon fill="white" stroke="black" points="1329.5,-56.5 1329.5,-75.5 1466.5,-75.5 1466.5,-56.5 1329.5,-56.5"/>
<text text-anchor="middle" x="1398" y="-63.5" font-family="Helvetica,sans-Serif" font-size="10.00">source/TMC2660_bitfields.h</text>
</a>
</g>
</g>
<!-- Node1&#45;&gt;Node14 -->
<g id="edge15" class="edge"><title>Node1&#45;&gt;Node14</title>
<path fill="none" stroke="midnightblue" d="M670.88,-118.773C782.585,-113.391 1069.32,-98.5084 1319.18,-76.1255"/>
<polygon fill="midnightblue" stroke="midnightblue" points="1319.53,-79.6084 1329.17,-75.2244 1318.9,-72.6367 1319.53,-79.6084"/>
</g>
<!-- Node5 -->
<g id="node5" class="node"><title>Node5</title>
<g id="a_node5"><a xlink:title=" ">
<polygon fill="white" stroke="#bfbfbf" points="162,-0.5 162,-19.5 220,-19.5 220,-0.5 162,-0.5"/>
<text text-anchor="middle" x="191" y="-7.5" font-family="Helvetica,sans-Serif" font-size="10.00">Arduino.h</text>
</a>
</g>
</g>
<!-- Node4&#45;&gt;Node5 -->
<g id="edge4" class="edge"><title>Node4&#45;&gt;Node5</title>
<path fill="none" stroke="midnightblue" d="M294.51,-56.4435C274.358,-47.5961 242.677,-33.6875 219.669,-23.5865"/>
<polygon fill="midnightblue" stroke="midnightblue" points="220.962,-20.3316 210.399,-19.5164 218.148,-26.7411 220.962,-20.3316"/>
</g>
<!-- Node6 -->
<g id="node6" class="node"><title>Node6</title>
<g id="a_node6"><a xlink:href="_t_m_c__platforms_8h.html" target="_top" xlink:title=" ">
<polygon fill="white" stroke="black" points="258,-0.5 258,-19.5 348,-19.5 348,-0.5 258,-0.5"/>
<text text-anchor="middle" x="303" y="-7.5" font-family="Helvetica,sans-Serif" font-size="10.00">TMC_platforms.h</text>
</a>
</g>
</g>
<!-- Node4&#45;&gt;Node6 -->
<g id="edge5" class="edge"><title>Node4&#45;&gt;Node6</title>
<path fill="none" stroke="midnightblue" d="M312.184,-56.083C310.726,-48.9272 308.629,-38.6353 306.807,-29.6911"/>
<polygon fill="midnightblue" stroke="midnightblue" points="310.208,-28.8512 304.783,-19.7511 303.349,-30.2485 310.208,-28.8512"/>
</g>
<!-- Node7&#45;&gt;Node5 -->
<g id="edge7" class="edge"><title>Node7&#45;&gt;Node5</title>
<path fill="none" stroke="midnightblue" d="M182.651,-56.083C183.976,-48.9272 185.882,-38.6353 187.539,-29.6911"/>
<polygon fill="midnightblue" stroke="midnightblue" points="191,-30.2212 189.379,-19.7511 184.117,-28.9466 191,-30.2212"/>
</g>
<!-- Node7&#45;&gt;Node6 -->
<g id="edge8" class="edge"><title>Node7&#45;&gt;Node6</title>
<path fill="none" stroke="midnightblue" d="M200.331,-56.4435C220.32,-47.5961 251.743,-33.6875 274.564,-23.5865"/>
<polygon fill="midnightblue" stroke="midnightblue" points="276.032,-26.7645 283.759,-19.5164 273.198,-20.3635 276.032,-26.7645"/>
</g>
</g>
</svg>
        <g id="navigator" transform="translate(0 0)" fill="#404254">
                <rect fill="#f2f5e9" fill-opacity="0.5" stroke="#606060" stroke-width=".5" x="0" y="0" width="60" height="60"/>
                <use id="zoomplus" xlink:href="#zoomPlus" x="17" y="9" onmousedown="handleZoom(evt,'in')"/>
                <use id="zoomminus" xlink:href="#zoomMin" x="42" y="9" onmousedown="handleZoom(evt,'out')"/>
                <use id="reset" xlink:href="#resetDef" x="30" y="36" onmousedown="handleReset()"/>
                <g id="arrowUp" xlink:href="#dirArrow" transform="translate(30 24)" onmousedown="handlePan(0,-1)">
                  <use xlink:href="#rim" fill="#404040">
                        <set attributeName="fill" to="#808080" begin="arrowUp.mouseover" end="arrowUp.mouseout"/>
                  </use>
                  <path fill="none" stroke="white" stroke-width="1.5" d="M0,-3.0v7 M-2.5,-0.5L0,-3.0L2.5,-0.5"/>
                </g>
                <g id="arrowRight" xlink:href="#dirArrow" transform="rotate(90) translate(36 -43)" onmousedown="handlePan(1,0)">
                  <use xlink:href="#rim" fill="#404040">
                        <set attributeName="fill" to="#808080" begin="arrowRight.mouseover" end="arrowRight.mouseout"/>
                  </use>
                  <path fill="none" stroke="white" stroke-width="1.5" d="M0,-3.0v7 M-2.5,-0.5L0,-3.0L2.5,-0.5"/>
                </g>
                <g id="arrowDown" xlink:href="#dirArrow" transform="rotate(180) translate(-30 -48)" onmousedown="handlePan(0,1)">
                  <use xlink:href="#rim" fill="#404040">
                        <set attributeName="fill" to="#808080" begin="arrowDown.mouseover" end="arrowDown.mouseout"/>
                  </use>
                  <path fill="none" stroke="white" stroke-width="1.5" d="M0,-3.0v7 M-2.5,-0.5L0,-3.0L2.5,-0.5"/>
                </g>
                <g id="arrowLeft" xlink:href="#dirArrow" transform="rotate(270) translate(-36 17)" onmousedown="handlePan(-1,0)">
                  <use xlink:href="#rim" fill="#404040">
                        <set attributeName="fill" to="#808080" begin="arrowLeft.mouseover" end="arrowLeft.mouseout"/>
                  </use>
                  <path fill="none" stroke="white" stroke-width="1.5" d="M0,-3.0v7 M-2.5,-0.5L0,-3.0L2.5,-0.5"/>
                </g>
        </g>
        <svg viewBox="0 0 15 15" width="100%" height="30px" preserveAspectRatio="xMaxYMin meet">
         <g id="arrow_out" transform="scale(0.3 0.3)">
          <a xlink:href="_t_m_c_stepper_8h__incl_org.svg" target="_base">
           <rect id="button" ry="5" rx="5" y="6" x="6" height="38" width="38"
                fill="#f2f5e9" fill-opacity="0.5" stroke="#606060" stroke-width="1.0"/>
           <path id="arrow"
             d="M 11.500037,31.436501 C 11.940474,20.09759 22.043105,11.32322 32.158766,21.979434 L 37.068811,17.246167 C 37.068811,17.246167 37.088388,32 37.088388,32 L 22.160133,31.978069 C 22.160133,31.978069 26.997745,27.140456 26.997745,27.140456 C 18.528582,18.264221 13.291696,25.230495 11.500037,31.436501 z"
             style="fill:#404040;"/>
          </a>
         </g>
        </svg>
</svg>
