<?xml version="1.0" encoding="UTF-8" standalone="no"?>
<!DOCTYPE svg PUBLIC "-//W3C//DTD SVG 1.1//EN"
 "http://www.w3.org/Graphics/SVG/1.1/DTD/svg11.dtd">
<!-- Generated by graphviz version 2.38.0 (20140413.2041)
 -->
<!-- Title: src/source/TMC5130Stepper.cpp Pages: 1 -->
<svg width="1475pt" height="196pt"
 viewBox="0.00 0.00 1474.50 196.00" xmlns="http://www.w3.org/2000/svg" xmlns:xlink="http://www.w3.org/1999/xlink">
<g id="graph0" class="graph" transform="scale(1 1) rotate(0) translate(4 192)">
<title>src/source/TMC5130Stepper.cpp</title>
<polygon fill="white" stroke="none" points="-4,4 -4,-192 1470.5,-192 1470.5,4 -4,4"/>
<!-- Node1 -->
<g id="node1" class="node"><title>Node1</title>
<g id="a_node1"><a xlink:title=" ">
<polygon fill="#bfbfbf" stroke="black" points="595.5,-168.5 595.5,-187.5 754.5,-187.5 754.5,-168.5 595.5,-168.5"/>
<text text-anchor="middle" x="675" y="-175.5" font-family="Helvetica,sans-Serif" font-size="10.00">src/source/TMC5130Stepper.cpp</text>
</a>
</g>
</g>
<!-- Node2 -->
<g id="node2" class="node"><title>Node2</title>
<g id="a_node2"><a xlink:href="_t_m_c_stepper_8h.html" target="_top" xlink:title=" ">
<polygon fill="white" stroke="black" points="583.5,-112.5 583.5,-131.5 662.5,-131.5 662.5,-112.5 583.5,-112.5"/>
<text text-anchor="middle" x="623" y="-119.5" font-family="Helvetica,sans-Serif" font-size="10.00">TMCStepper.h</text>
</a>
</g>
</g>
<!-- Node1&#45;&gt;Node2 -->
<g id="edge1" class="edge"><title>Node1&#45;&gt;Node2</title>
<path fill="none" stroke="midnightblue" d="M666.413,-168.083C658.841,-160.22 647.622,-148.569 638.486,-139.081"/>
<polygon fill="midnightblue" stroke="midnightblue" points="640.885,-136.527 631.427,-131.751 635.842,-141.382 640.885,-136.527"/>
</g>
<!-- Node16 -->
<g id="node16" class="node"><title>Node16</title>
<g id="a_node16"><a xlink:href="_t_m_c___m_a_c_r_o_s_8h.html" target="_top" xlink:title=" ">
<polygon fill="white" stroke="black" points="680.5,-112.5 680.5,-131.5 773.5,-131.5 773.5,-112.5 680.5,-112.5"/>
<text text-anchor="middle" x="727" y="-119.5" font-family="Helvetica,sans-Serif" font-size="10.00">TMC_MACROS.h</text>
</a>
</g>
</g>
<!-- Node1&#45;&gt;Node16 -->
<g id="edge17" class="edge"><title>Node1&#45;&gt;Node16</title>
<path fill="none" stroke="midnightblue" d="M683.587,-168.083C691.159,-160.22 702.378,-148.569 711.514,-139.081"/>
<polygon fill="midnightblue" stroke="midnightblue" points="714.158,-141.382 718.573,-131.751 709.115,-136.527 714.158,-141.382"/>
</g>
<!-- Node3 -->
<g id="node3" class="node"><title>Node3</title>
<g id="a_node3"><a xlink:title=" ">
<polygon fill="white" stroke="#bfbfbf" points="0,-56.5 0,-75.5 56,-75.5 56,-56.5 0,-56.5"/>
<text text-anchor="middle" x="28" y="-63.5" font-family="Helvetica,sans-Serif" font-size="10.00">Stream.h</text>
</a>
</g>
</g>
<!-- Node2&#45;&gt;Node3 -->
<g id="edge2" class="edge"><title>Node2&#45;&gt;Node3</title>
<path fill="none" stroke="midnightblue" d="M583.248,-119.861C491.558,-116.782 258.378,-106.372 66,-76 65.8995,-75.9841 65.799,-75.9682 65.6983,-75.9521"/>
<polygon fill="midnightblue" stroke="midnightblue" points="66.5997,-72.56 56.127,-74.1644 65.3144,-79.441 66.5997,-72.56"/>
</g>
<!-- Node4 -->
<g id="node4" class="node"><title>Node4</title>
<g id="a_node4"><a xlink:title=" ">
<polygon fill="white" stroke="#bfbfbf" points="74.5,-56.5 74.5,-75.5 115.5,-75.5 115.5,-56.5 74.5,-56.5"/>
<text text-anchor="middle" x="95" y="-63.5" font-family="Helvetica,sans-Serif" font-size="10.00">SPI.h</text>
</a>
</g>
</g>
<!-- Node2&#45;&gt;Node4 -->
<g id="edge3" class="edge"><title>Node2&#45;&gt;Node4</title>
<path fill="none" stroke="midnightblue" d="M583.241,-120.118C499.916,-117.689 300.906,-108.849 125.446,-75.6588"/>
<polygon fill="midnightblue" stroke="midnightblue" points="126.002,-72.2016 115.521,-73.7501 124.68,-79.0756 126.002,-72.2016"/>
</g>
<!-- Node5 -->
<g id="node5" class="node"><title>Node5</title>
<g id="a_node5"><a xlink:href="_s_e_r_i_a_l___s_w_i_t_c_h_8h.html" target="_top" xlink:title=" ">
<polygon fill="white" stroke="black" points="247,-56.5 247,-75.5 381,-75.5 381,-56.5 247,-56.5"/>
<text text-anchor="middle" x="314" y="-63.5" font-family="Helvetica,sans-Serif" font-size="10.00">source/SERIAL_SWITCH.h</text>
</a>
</g>
</g>
<!-- Node2&#45;&gt;Node5 -->
<g id="edge4" class="edge"><title>Node2&#45;&gt;Node5</title>
<path fill="none" stroke="midnightblue" d="M583.236,-114.051C529.812,-104.715 434.458,-88.0508 372.748,-77.2666"/>
<polygon fill="midnightblue" stroke="midnightblue" points="373.221,-73.7963 362.767,-75.5225 372.016,-80.6918 373.221,-73.7963"/>
</g>
<!-- Node8 -->
<g id="node8" class="node"><title>Node8</title>
<g id="a_node8"><a xlink:href="_s_w___s_p_i_8h.html" target="_top" xlink:title=" ">
<polygon fill="white" stroke="black" points="133.5,-56.5 133.5,-75.5 228.5,-75.5 228.5,-56.5 133.5,-56.5"/>
<text text-anchor="middle" x="181" y="-63.5" font-family="Helvetica,sans-Serif" font-size="10.00">source/SW_SPI.h</text>
</a>
</g>
</g>
<!-- Node2&#45;&gt;Node8 -->
<g id="edge7" class="edge"><title>Node2&#45;&gt;Node8</title>
<path fill="none" stroke="midnightblue" d="M583.306,-116.893C515.114,-109.722 371.094,-94.0704 238.497,-76.0166"/>
<polygon fill="midnightblue" stroke="midnightblue" points="238.947,-72.5457 228.565,-74.6568 237.997,-79.481 238.947,-72.5457"/>
</g>
<!-- Node9 -->
<g id="node9" class="node"><title>Node9</title>
<g id="a_node9"><a xlink:href="_t_m_c2130__bitfields_8h.html" target="_top" xlink:title=" ">
<polygon fill="white" stroke="black" points="399.5,-56.5 399.5,-75.5 536.5,-75.5 536.5,-56.5 399.5,-56.5"/>
<text text-anchor="middle" x="468" y="-63.5" font-family="Helvetica,sans-Serif" font-size="10.00">source/TMC2130_bitfields.h</text>
</a>
</g>
</g>
<!-- Node2&#45;&gt;Node9 -->
<g id="edge10" class="edge"><title>Node2&#45;&gt;Node9</title>
<path fill="none" stroke="midnightblue" d="M598.44,-112.444C572.477,-103.399 531.332,-89.064 502.203,-78.9158"/>
<polygon fill="midnightblue" stroke="midnightblue" points="503.04,-75.5013 492.445,-75.5164 500.737,-82.1116 503.04,-75.5013"/>
</g>
<!-- Node10 -->
<g id="node10" class="node"><title>Node10</title>
<g id="a_node10"><a xlink:href="_t_m_c2160__bitfields_8h.html" target="_top" xlink:title=" ">
<polygon fill="white" stroke="black" points="554.5,-56.5 554.5,-75.5 691.5,-75.5 691.5,-56.5 554.5,-56.5"/>
<text text-anchor="middle" x="623" y="-63.5" font-family="Helvetica,sans-Serif" font-size="10.00">source/TMC2160_bitfields.h</text>
</a>
</g>
</g>
<!-- Node2&#45;&gt;Node10 -->
<g id="edge11" class="edge"><title>Node2&#45;&gt;Node10</title>
<path fill="none" stroke="midnightblue" d="M623,-112.083C623,-105.006 623,-94.8611 623,-85.9865"/>
<polygon fill="midnightblue" stroke="midnightblue" points="626.5,-85.751 623,-75.7511 619.5,-85.7511 626.5,-85.751"/>
</g>
<!-- Node11 -->
<g id="node11" class="node"><title>Node11</title>
<g id="a_node11"><a xlink:href="_t_m_c5130__bitfields_8h.html" target="_top" xlink:title=" ">
<polygon fill="white" stroke="black" points="709.5,-56.5 709.5,-75.5 846.5,-75.5 846.5,-56.5 709.5,-56.5"/>
<text text-anchor="middle" x="778" y="-63.5" font-family="Helvetica,sans-Serif" font-size="10.00">source/TMC5130_bitfields.h</text>
</a>
</g>
</g>
<!-- Node2&#45;&gt;Node11 -->
<g id="edge12" class="edge"><title>Node2&#45;&gt;Node11</title>
<path fill="none" stroke="midnightblue" d="M647.56,-112.444C673.523,-103.399 714.668,-89.064 743.797,-78.9158"/>
<polygon fill="midnightblue" stroke="midnightblue" points="745.263,-82.1116 753.555,-75.5164 742.96,-75.5013 745.263,-82.1116"/>
</g>
<!-- Node12 -->
<g id="node12" class="node"><title>Node12</title>
<g id="a_node12"><a xlink:href="_t_m_c5160__bitfields_8h.html" target="_top" xlink:title=" ">
<polygon fill="white" stroke="black" points="864.5,-56.5 864.5,-75.5 1001.5,-75.5 1001.5,-56.5 864.5,-56.5"/>
<text text-anchor="middle" x="933" y="-63.5" font-family="Helvetica,sans-Serif" font-size="10.00">source/TMC5160_bitfields.h</text>
</a>
</g>
</g>
<!-- Node2&#45;&gt;Node12 -->
<g id="edge13" class="edge"><title>Node2&#45;&gt;Node12</title>
<path fill="none" stroke="midnightblue" d="M662.574,-113.693C665.762,-113.116 668.934,-112.546 672,-112 740.683,-99.7718 819.63,-86.2318 872.551,-77.23"/>
<polygon fill="midnightblue" stroke="midnightblue" points="873.176,-80.6739 882.449,-75.5477 872.003,-73.7729 873.176,-80.6739"/>
</g>
<!-- Node13 -->
<g id="node13" class="node"><title>Node13</title>
<g id="a_node13"><a xlink:href="_t_m_c2208__bitfields_8h.html" target="_top" xlink:title=" ">
<polygon fill="white" stroke="black" points="1019.5,-56.5 1019.5,-75.5 1156.5,-75.5 1156.5,-56.5 1019.5,-56.5"/>
<text text-anchor="middle" x="1088" y="-63.5" font-family="Helvetica,sans-Serif" font-size="10.00">source/TMC2208_bitfields.h</text>
</a>
</g>
</g>
<!-- Node2&#45;&gt;Node13 -->
<g id="edge14" class="edge"><title>Node2&#45;&gt;Node13</title>
<path fill="none" stroke="midnightblue" d="M662.538,-113.472C665.734,-112.945 668.918,-112.446 672,-112 818.73,-90.765 858.715,-92.699 1009.09,-76.1971"/>
<polygon fill="midnightblue" stroke="midnightblue" points="1009.6,-79.6618 1019.16,-75.083 1008.83,-72.7043 1009.6,-79.6618"/>
</g>
<!-- Node14 -->
<g id="node14" class="node"><title>Node14</title>
<g id="a_node14"><a xlink:href="_t_m_c2209__bitfields_8h.html" target="_top" xlink:title=" ">
<polygon fill="white" stroke="black" points="1174.5,-56.5 1174.5,-75.5 1311.5,-75.5 1311.5,-56.5 1174.5,-56.5"/>
<text text-anchor="middle" x="1243" y="-63.5" font-family="Helvetica,sans-Serif" font-size="10.00">source/TMC2209_bitfields.h</text>
</a>
</g>
</g>
<!-- Node2&#45;&gt;Node14 -->
<g id="edge15" class="edge"><title>Node2&#45;&gt;Node14</title>
<path fill="none" stroke="midnightblue" d="M662.523,-113.359C665.723,-112.857 668.911,-112.395 672,-112 887.054,-84.4972 945.098,-96.4077 1163.96,-76.1528"/>
<polygon fill="midnightblue" stroke="midnightblue" points="1164.54,-79.6142 1174.17,-75.1959 1163.89,-72.6447 1164.54,-79.6142"/>
</g>
<!-- Node15 -->
<g id="node15" class="node"><title>Node15</title>
<g id="a_node15"><a xlink:href="_t_m_c2660__bitfields_8h.html" target="_top" xlink:title=" ">
<polygon fill="white" stroke="black" points="1329.5,-56.5 1329.5,-75.5 1466.5,-75.5 1466.5,-56.5 1329.5,-56.5"/>
<text text-anchor="middle" x="1398" y="-63.5" font-family="Helvetica,sans-Serif" font-size="10.00">source/TMC2660_bitfields.h</text>
</a>
</g>
</g>
<!-- Node2&#45;&gt;Node15 -->
<g id="edge16" class="edge"><title>Node2&#45;&gt;Node15</title>
<path fill="none" stroke="midnightblue" d="M662.515,-113.3C665.717,-112.811 668.908,-112.368 672,-112 955.499,-78.2383 1031.41,-100.251 1318.86,-76.1327"/>
<polygon fill="midnightblue" stroke="midnightblue" points="1319.51,-79.5903 1329.17,-75.2551 1318.91,-72.6155 1319.51,-79.5903"/>
</g>
<!-- Node6 -->
<g id="node6" class="node"><title>Node6</title>
<g id="a_node6"><a xlink:title=" ">
<polygon fill="white" stroke="#bfbfbf" points="162,-0.5 162,-19.5 220,-19.5 220,-0.5 162,-0.5"/>
<text text-anchor="middle" x="191" y="-7.5" font-family="Helvetica,sans-Serif" font-size="10.00">Arduino.h</text>
</a>
</g>
</g>
<!-- Node5&#45;&gt;Node6 -->
<g id="edge5" class="edge"><title>Node5&#45;&gt;Node6</title>
<path fill="none" stroke="midnightblue" d="M294.51,-56.4435C274.358,-47.5961 242.677,-33.6875 219.669,-23.5865"/>
<polygon fill="midnightblue" stroke="midnightblue" points="220.962,-20.3316 210.399,-19.5164 218.148,-26.7411 220.962,-20.3316"/>
</g>
<!-- Node7 -->
<g id="node7" class="node"><title>Node7</title>
<g id="a_node7"><a xlink:href="_t_m_c__platforms_8h.html" target="_top" xlink:title=" ">
<polygon fill="white" stroke="black" points="258,-0.5 258,-19.5 348,-19.5 348,-0.5 258,-0.5"/>
<text text-anchor="middle" x="303" y="-7.5" font-family="Helvetica,sans-Serif" font-size="10.00">TMC_platforms.h</text>
</a>
</g>
</g>
<!-- Node5&#45;&gt;Node7 -->
<g id="edge6" class="edge"><title>Node5&#45;&gt;Node7</title>
<path fill="none" stroke="midnightblue" d="M312.184,-56.083C310.726,-48.9272 308.629,-38.6353 306.807,-29.6911"/>
<polygon fill="midnightblue" stroke="midnightblue" points="310.208,-28.8512 304.783,-19.7511 303.349,-30.2485 310.208,-28.8512"/>
</g>
<!-- Node8&#45;&gt;Node6 -->
<g id="edge8" class="edge"><title>Node8&#45;&gt;Node6</title>
<path fill="none" stroke="midnightblue" d="M182.651,-56.083C183.976,-48.9272 185.882,-38.6353 187.539,-29.6911"/>
<polygon fill="midnightblue" stroke="midnightblue" points="191,-30.2212 189.379,-19.7511 184.117,-28.9466 191,-30.2212"/>
</g>
<!-- Node8&#45;&gt;Node7 -->
<g id="edge9" class="edge"><title>Node8&#45;&gt;Node7</title>
<path fill="none" stroke="midnightblue" d="M200.331,-56.4435C220.32,-47.5961 251.743,-33.6875 274.564,-23.5865"/>
<polygon fill="midnightblue" stroke="midnightblue" points="276.032,-26.7645 283.759,-19.5164 273.198,-20.3635 276.032,-26.7645"/>
</g>
</g>
</svg>
