<?xml version="1.0" encoding="UTF-8" standalone="no"?>
<!DOCTYPE svg PUBLIC "-//W3C//DTD SVG 1.1//EN"
 "http://www.w3.org/Graphics/SVG/1.1/DTD/svg11.dtd">
<!-- Generated by graphviz version 2.38.0 (20140413.2041)
 -->
<!-- Title: src/source/TMC2208Stepper.cpp Pages: 1 -->
<svg width="1475pt" height="196pt"
 viewBox="0.00 0.00 1474.50 196.00" xmlns="http://www.w3.org/2000/svg" xmlns:xlink="http://www.w3.org/1999/xlink">
<g id="graph0" class="graph" transform="scale(1 1) rotate(0) translate(4 192)">
<title>src/source/TMC2208Stepper.cpp</title>
<polygon fill="white" stroke="none" points="-4,4 -4,-192 1470.5,-192 1470.5,4 -4,4"/>
<!-- Node1 -->
<g id="node1" class="node"><title>Node1</title>
<g id="a_node1"><a xlink:title=" ">
<polygon fill="#bfbfbf" stroke="black" points="1105,-168.5 1105,-187.5 1264,-187.5 1264,-168.5 1105,-168.5"/>
<text text-anchor="middle" x="1184.5" y="-175.5" font-family="Helvetica,sans-Serif" font-size="10.00">src/source/TMC2208Stepper.cpp</text>
</a>
</g>
</g>
<!-- Node2 -->
<g id="node2" class="node"><title>Node2</title>
<g id="a_node2"><a xlink:href="_t_m_c_stepper_8h.html" target="_top" xlink:title=" ">
<polygon fill="white" stroke="black" points="785,-112.5 785,-131.5 864,-131.5 864,-112.5 785,-112.5"/>
<text text-anchor="middle" x="824.5" y="-119.5" font-family="Helvetica,sans-Serif" font-size="10.00">TMCStepper.h</text>
</a>
</g>
</g>
<!-- Node1&#45;&gt;Node2 -->
<g id="edge1" class="edge"><title>Node1&#45;&gt;Node2</title>
<path fill="none" stroke="midnightblue" d="M1127.46,-168.444C1057.64,-157.971 940.538,-140.406 874.23,-130.459"/>
<polygon fill="midnightblue" stroke="midnightblue" points="874.447,-126.953 864.039,-128.931 873.409,-133.876 874.447,-126.953"/>
</g>
<!-- Node5 -->
<g id="node5" class="node"><title>Node5</title>
<g id="a_node5"><a xlink:href="_s_e_r_i_a_l___s_w_i_t_c_h_8h.html" target="_top" xlink:title=" ">
<polygon fill="white" stroke="black" points="1332.5,-56.5 1332.5,-75.5 1466.5,-75.5 1466.5,-56.5 1332.5,-56.5"/>
<text text-anchor="middle" x="1399.5" y="-63.5" font-family="Helvetica,sans-Serif" font-size="10.00">source/SERIAL_SWITCH.h</text>
</a>
</g>
</g>
<!-- Node1&#45;&gt;Node5 -->
<g id="edge18" class="edge"><title>Node1&#45;&gt;Node5</title>
<path fill="none" stroke="midnightblue" d="M1184.56,-168.434C1185.15,-154.495 1188.42,-126.962 1204.5,-112 1221.77,-95.9288 1275.58,-84.2461 1322.31,-76.8179"/>
<polygon fill="midnightblue" stroke="midnightblue" points="1323.11,-80.2351 1332.46,-75.2514 1322.05,-73.3169 1323.11,-80.2351"/>
</g>
<!-- Node16 -->
<g id="node16" class="node"><title>Node16</title>
<g id="a_node16"><a xlink:href="_t_m_c___m_a_c_r_o_s_8h.html" target="_top" xlink:title=" ">
<polygon fill="white" stroke="black" points="1213,-112.5 1213,-131.5 1306,-131.5 1306,-112.5 1213,-112.5"/>
<text text-anchor="middle" x="1259.5" y="-119.5" font-family="Helvetica,sans-Serif" font-size="10.00">TMC_MACROS.h</text>
</a>
</g>
</g>
<!-- Node1&#45;&gt;Node16 -->
<g id="edge17" class="edge"><title>Node1&#45;&gt;Node16</title>
<path fill="none" stroke="midnightblue" d="M1196.55,-168.324C1207.96,-160.107 1225.33,-147.602 1238.93,-137.807"/>
<polygon fill="midnightblue" stroke="midnightblue" points="1241.16,-140.517 1247.23,-131.834 1237.07,-134.837 1241.16,-140.517"/>
</g>
<!-- Node3 -->
<g id="node3" class="node"><title>Node3</title>
<g id="a_node3"><a xlink:title=" ">
<polygon fill="white" stroke="#bfbfbf" points="1144.5,-56.5 1144.5,-75.5 1200.5,-75.5 1200.5,-56.5 1144.5,-56.5"/>
<text text-anchor="middle" x="1172.5" y="-63.5" font-family="Helvetica,sans-Serif" font-size="10.00">Stream.h</text>
</a>
</g>
</g>
<!-- Node2&#45;&gt;Node3 -->
<g id="edge2" class="edge"><title>Node2&#45;&gt;Node3</title>
<path fill="none" stroke="midnightblue" d="M864.325,-116.363C923.512,-109.213 1038.07,-94.3803 1134.5,-76 1134.6,-75.981 1134.7,-75.9618 1134.8,-75.9426"/>
<polygon fill="midnightblue" stroke="midnightblue" points="1135.26,-79.4223 1144.34,-73.9627 1133.84,-72.5684 1135.26,-79.4223"/>
</g>
<!-- Node4 -->
<g id="node4" class="node"><title>Node4</title>
<g id="a_node4"><a xlink:title=" ">
<polygon fill="white" stroke="#bfbfbf" points="0,-56.5 0,-75.5 41,-75.5 41,-56.5 0,-56.5"/>
<text text-anchor="middle" x="20.5" y="-63.5" font-family="Helvetica,sans-Serif" font-size="10.00">SPI.h</text>
</a>
</g>
</g>
<!-- Node2&#45;&gt;Node4 -->
<g id="edge3" class="edge"><title>Node2&#45;&gt;Node4</title>
<path fill="none" stroke="midnightblue" d="M784.618,-119.964C649.995,-116.269 212.254,-102.616 51.4438,-75.8844"/>
<polygon fill="midnightblue" stroke="midnightblue" points="51.7114,-72.3782 41.2582,-74.1047 50.5065,-79.2738 51.7114,-72.3782"/>
</g>
<!-- Node2&#45;&gt;Node5 -->
<g id="edge4" class="edge"><title>Node2&#45;&gt;Node5</title>
<path fill="none" stroke="midnightblue" d="M864.317,-117.789C947.357,-111.012 1145.32,-94.426 1322.36,-76.0937"/>
<polygon fill="midnightblue" stroke="midnightblue" points="1322.79,-79.5676 1332.37,-75.0521 1322.07,-72.6052 1322.79,-79.5676"/>
</g>
<!-- Node8 -->
<g id="node8" class="node"><title>Node8</title>
<g id="a_node8"><a xlink:href="_s_w___s_p_i_8h.html" target="_top" xlink:title=" ">
<polygon fill="white" stroke="black" points="1219,-56.5 1219,-75.5 1314,-75.5 1314,-56.5 1219,-56.5"/>
<text text-anchor="middle" x="1266.5" y="-63.5" font-family="Helvetica,sans-Serif" font-size="10.00">source/SW_SPI.h</text>
</a>
</g>
</g>
<!-- Node2&#45;&gt;Node8 -->
<g id="edge7" class="edge"><title>Node2&#45;&gt;Node8</title>
<path fill="none" stroke="midnightblue" d="M864.194,-116.893C932.386,-109.722 1076.41,-94.0704 1209,-76.0166"/>
<polygon fill="midnightblue" stroke="midnightblue" points="1209.5,-79.481 1218.94,-74.6568 1208.55,-72.5457 1209.5,-79.481"/>
</g>
<!-- Node9 -->
<g id="node9" class="node"><title>Node9</title>
<g id="a_node9"><a xlink:href="_t_m_c2130__bitfields_8h.html" target="_top" xlink:title=" ">
<polygon fill="white" stroke="black" points="59,-56.5 59,-75.5 196,-75.5 196,-56.5 59,-56.5"/>
<text text-anchor="middle" x="127.5" y="-63.5" font-family="Helvetica,sans-Serif" font-size="10.00">source/TMC2130_bitfields.h</text>
</a>
</g>
</g>
<!-- Node2&#45;&gt;Node9 -->
<g id="edge10" class="edge"><title>Node2&#45;&gt;Node9</title>
<path fill="none" stroke="midnightblue" d="M784.918,-118.732C688.042,-113.051 431.087,-97.2014 206.333,-76.1396"/>
<polygon fill="midnightblue" stroke="midnightblue" points="206.615,-72.6508 196.331,-75.1969 205.959,-79.6199 206.615,-72.6508"/>
</g>
<!-- Node10 -->
<g id="node10" class="node"><title>Node10</title>
<g id="a_node10"><a xlink:href="_t_m_c2160__bitfields_8h.html" target="_top" xlink:title=" ">
<polygon fill="white" stroke="black" points="214,-56.5 214,-75.5 351,-75.5 351,-56.5 214,-56.5"/>
<text text-anchor="middle" x="282.5" y="-63.5" font-family="Helvetica,sans-Serif" font-size="10.00">source/TMC2160_bitfields.h</text>
</a>
</g>
</g>
<!-- Node2&#45;&gt;Node10 -->
<g id="edge11" class="edge"><title>Node2&#45;&gt;Node10</title>
<path fill="none" stroke="midnightblue" d="M784.973,-117.442C706.372,-110.309 524.62,-93.527 361.556,-76.2036"/>
<polygon fill="midnightblue" stroke="midnightblue" points="361.654,-72.6943 351.339,-75.1148 360.912,-79.6549 361.654,-72.6943"/>
</g>
<!-- Node11 -->
<g id="node11" class="node"><title>Node11</title>
<g id="a_node11"><a xlink:href="_t_m_c5130__bitfields_8h.html" target="_top" xlink:title=" ">
<polygon fill="white" stroke="black" points="369,-56.5 369,-75.5 506,-75.5 506,-56.5 369,-56.5"/>
<text text-anchor="middle" x="437.5" y="-63.5" font-family="Helvetica,sans-Serif" font-size="10.00">source/TMC5130_bitfields.h</text>
</a>
</g>
</g>
<!-- Node2&#45;&gt;Node11 -->
<g id="edge12" class="edge"><title>Node2&#45;&gt;Node11</title>
<path fill="none" stroke="midnightblue" d="M784.903,-115.475C719.966,-106.414 589.954,-88.2726 508.699,-76.9348"/>
<polygon fill="midnightblue" stroke="midnightblue" points="508.938,-73.4342 498.55,-75.5186 507.97,-80.367 508.938,-73.4342"/>
</g>
<!-- Node12 -->
<g id="node12" class="node"><title>Node12</title>
<g id="a_node12"><a xlink:href="_t_m_c5160__bitfields_8h.html" target="_top" xlink:title=" ">
<polygon fill="white" stroke="black" points="524,-56.5 524,-75.5 661,-75.5 661,-56.5 524,-56.5"/>
<text text-anchor="middle" x="592.5" y="-63.5" font-family="Helvetica,sans-Serif" font-size="10.00">source/TMC5160_bitfields.h</text>
</a>
</g>
</g>
<!-- Node2&#45;&gt;Node12 -->
<g id="edge13" class="edge"><title>Node2&#45;&gt;Node12</title>
<path fill="none" stroke="midnightblue" d="M787.739,-112.444C747.437,-103.063 682.691,-87.9926 638.915,-77.8036"/>
<polygon fill="midnightblue" stroke="midnightblue" points="639.622,-74.3746 629.089,-75.5164 638.035,-81.1924 639.622,-74.3746"/>
</g>
<!-- Node13 -->
<g id="node13" class="node"><title>Node13</title>
<g id="a_node13"><a xlink:href="_t_m_c2208__bitfields_8h.html" target="_top" xlink:title=" ">
<polygon fill="white" stroke="black" points="679,-56.5 679,-75.5 816,-75.5 816,-56.5 679,-56.5"/>
<text text-anchor="middle" x="747.5" y="-63.5" font-family="Helvetica,sans-Serif" font-size="10.00">source/TMC2208_bitfields.h</text>
</a>
</g>
</g>
<!-- Node2&#45;&gt;Node13 -->
<g id="edge14" class="edge"><title>Node2&#45;&gt;Node13</title>
<path fill="none" stroke="midnightblue" d="M812.129,-112.324C800.342,-104.058 782.368,-91.4527 768.364,-81.6322"/>
<polygon fill="midnightblue" stroke="midnightblue" points="770.038,-78.5307 759.841,-75.6545 766.018,-84.2619 770.038,-78.5307"/>
</g>
<!-- Node14 -->
<g id="node14" class="node"><title>Node14</title>
<g id="a_node14"><a xlink:href="_t_m_c2209__bitfields_8h.html" target="_top" xlink:title=" ">
<polygon fill="white" stroke="black" points="834,-56.5 834,-75.5 971,-75.5 971,-56.5 834,-56.5"/>
<text text-anchor="middle" x="902.5" y="-63.5" font-family="Helvetica,sans-Serif" font-size="10.00">source/TMC2209_bitfields.h</text>
</a>
</g>
</g>
<!-- Node2&#45;&gt;Node14 -->
<g id="edge15" class="edge"><title>Node2&#45;&gt;Node14</title>
<path fill="none" stroke="midnightblue" d="M837.032,-112.324C849.086,-103.979 867.527,-91.2122 881.769,-81.3524"/>
<polygon fill="midnightblue" stroke="midnightblue" points="883.769,-84.2243 889.999,-75.6545 879.785,-78.469 883.769,-84.2243"/>
</g>
<!-- Node15 -->
<g id="node15" class="node"><title>Node15</title>
<g id="a_node15"><a xlink:href="_t_m_c2660__bitfields_8h.html" target="_top" xlink:title=" ">
<polygon fill="white" stroke="black" points="989,-56.5 989,-75.5 1126,-75.5 1126,-56.5 989,-56.5"/>
<text text-anchor="middle" x="1057.5" y="-63.5" font-family="Helvetica,sans-Serif" font-size="10.00">source/TMC2660_bitfields.h</text>
</a>
</g>
</g>
<!-- Node2&#45;&gt;Node15 -->
<g id="edge16" class="edge"><title>Node2&#45;&gt;Node15</title>
<path fill="none" stroke="midnightblue" d="M861.42,-112.444C901.895,-103.063 966.921,-87.9926 1010.88,-77.8036"/>
<polygon fill="midnightblue" stroke="midnightblue" points="1011.8,-81.1839 1020.75,-75.5164 1010.22,-74.3646 1011.8,-81.1839"/>
</g>
<!-- Node6 -->
<g id="node6" class="node"><title>Node6</title>
<g id="a_node6"><a xlink:title=" ">
<polygon fill="white" stroke="#bfbfbf" points="1247.5,-0.5 1247.5,-19.5 1305.5,-19.5 1305.5,-0.5 1247.5,-0.5"/>
<text text-anchor="middle" x="1276.5" y="-7.5" font-family="Helvetica,sans-Serif" font-size="10.00">Arduino.h</text>
</a>
</g>
</g>
<!-- Node5&#45;&gt;Node6 -->
<g id="edge5" class="edge"><title>Node5&#45;&gt;Node6</title>
<path fill="none" stroke="midnightblue" d="M1380.01,-56.4435C1359.86,-47.5961 1328.18,-33.6875 1305.17,-23.5865"/>
<polygon fill="midnightblue" stroke="midnightblue" points="1306.46,-20.3316 1295.9,-19.5164 1303.65,-26.7411 1306.46,-20.3316"/>
</g>
<!-- Node7 -->
<g id="node7" class="node"><title>Node7</title>
<g id="a_node7"><a xlink:href="_t_m_c__platforms_8h.html" target="_top" xlink:title=" ">
<polygon fill="white" stroke="black" points="1343.5,-0.5 1343.5,-19.5 1433.5,-19.5 1433.5,-0.5 1343.5,-0.5"/>
<text text-anchor="middle" x="1388.5" y="-7.5" font-family="Helvetica,sans-Serif" font-size="10.00">TMC_platforms.h</text>
</a>
</g>
</g>
<!-- Node5&#45;&gt;Node7 -->
<g id="edge6" class="edge"><title>Node5&#45;&gt;Node7</title>
<path fill="none" stroke="midnightblue" d="M1397.68,-56.083C1396.23,-48.9272 1394.13,-38.6353 1392.31,-29.6911"/>
<polygon fill="midnightblue" stroke="midnightblue" points="1395.71,-28.8512 1390.28,-19.7511 1388.85,-30.2485 1395.71,-28.8512"/>
</g>
<!-- Node8&#45;&gt;Node6 -->
<g id="edge8" class="edge"><title>Node8&#45;&gt;Node6</title>
<path fill="none" stroke="midnightblue" d="M1268.15,-56.083C1269.48,-48.9272 1271.38,-38.6353 1273.04,-29.6911"/>
<polygon fill="midnightblue" stroke="midnightblue" points="1276.5,-30.2212 1274.88,-19.7511 1269.62,-28.9466 1276.5,-30.2212"/>
</g>
<!-- Node8&#45;&gt;Node7 -->
<g id="edge9" class="edge"><title>Node8&#45;&gt;Node7</title>
<path fill="none" stroke="midnightblue" d="M1285.83,-56.4435C1305.82,-47.5961 1337.24,-33.6875 1360.06,-23.5865"/>
<polygon fill="midnightblue" stroke="midnightblue" points="1361.53,-26.7645 1369.26,-19.5164 1358.7,-20.3635 1361.53,-26.7645"/>
</g>
</g>
</svg>
