<?xml version="1.0" encoding="UTF-8" standalone="no"?>
<!DOCTYPE svg PUBLIC "-//W3C//DTD SVG 1.1//EN"
 "http://www.w3.org/Graphics/SVG/1.1/DTD/svg11.dtd">
<!-- Generated by graphviz version 2.38.0 (20140413.2041)
 -->
<!-- Title: src/source/TMC_platforms.h Pages: 1 -->
<svg width="3864pt" height="196pt"
 viewBox="0.00 0.00 3864.00 196.00" xmlns="http://www.w3.org/2000/svg" xmlns:xlink="http://www.w3.org/1999/xlink">
<g id="graph0" class="graph" transform="scale(1 1) rotate(0) translate(4 192)">
<title>src/source/TMC_platforms.h</title>
<polygon fill="white" stroke="none" points="-4,4 -4,-192 3860,-192 3860,4 -4,4"/>
<!-- Node1 -->
<g id="node1" class="node"><title>Node1</title>
<g id="a_node1"><a xlink:title=" ">
<polygon fill="#bfbfbf" stroke="black" points="1791,-168.5 1791,-187.5 1930,-187.5 1930,-168.5 1791,-168.5"/>
<text text-anchor="middle" x="1860.5" y="-175.5" font-family="Helvetica,sans-Serif" font-size="10.00">src/source/TMC_platforms.h</text>
</a>
</g>
</g>
<!-- Node2 -->
<g id="node2" class="node"><title>Node2</title>
<g id="a_node2"><a xlink:href="_s_e_r_i_a_l___s_w_i_t_c_h_8h.html" target="_top" xlink:title=" ">
<polygon fill="white" stroke="black" points="1710,-112.5 1710,-131.5 1861,-131.5 1861,-112.5 1710,-112.5"/>
<text text-anchor="middle" x="1785.5" y="-119.5" font-family="Helvetica,sans-Serif" font-size="10.00">src/source/SERIAL_SWITCH.h</text>
</a>
</g>
</g>
<!-- Node1&#45;&gt;Node2 -->
<g id="edge1" class="edge"><title>Node1&#45;&gt;Node2</title>
<path fill="none" stroke="midnightblue" d="M1840.19,-162.38C1826.64,-152.62 1809.26,-140.106 1797.77,-131.834"/>
<polygon fill="midnightblue" stroke="midnightblue" points="1838.29,-165.321 1848.45,-168.324 1842.38,-159.641 1838.29,-165.321"/>
</g>
<!-- Node29 -->
<g id="node29" class="node"><title>Node29</title>
<g id="a_node29"><a xlink:href="_s_w___s_p_i_8h.html" target="_top" xlink:title=" ">
<polygon fill="white" stroke="black" points="1880,-112.5 1880,-131.5 1991,-131.5 1991,-112.5 1880,-112.5"/>
<text text-anchor="middle" x="1935.5" y="-119.5" font-family="Helvetica,sans-Serif" font-size="10.00">src/source/SW_SPI.h</text>
</a>
</g>
</g>
<!-- Node1&#45;&gt;Node29 -->
<g id="edge29" class="edge"><title>Node1&#45;&gt;Node29</title>
<path fill="none" stroke="midnightblue" d="M1880.81,-162.38C1894.36,-152.62 1911.74,-140.106 1923.23,-131.834"/>
<polygon fill="midnightblue" stroke="midnightblue" points="1878.62,-159.641 1872.55,-168.324 1882.71,-165.321 1878.62,-159.641"/>
</g>
<!-- Node3 -->
<g id="node3" class="node"><title>Node3</title>
<g id="a_node3"><a xlink:href="_s_e_r_i_a_l___s_w_i_t_c_h_8cpp.html" target="_top" xlink:title=" ">
<polygon fill="white" stroke="black" points="1595,-56.5 1595,-75.5 1756,-75.5 1756,-56.5 1595,-56.5"/>
<text text-anchor="middle" x="1675.5" y="-63.5" font-family="Helvetica,sans-Serif" font-size="10.00">src/source/SERIAL_SWITCH.cpp</text>
</a>
</g>
</g>
<!-- Node2&#45;&gt;Node3 -->
<g id="edge2" class="edge"><title>Node2&#45;&gt;Node3</title>
<path fill="none" stroke="midnightblue" d="M1758.74,-107.862C1738.34,-97.8492 1710.83,-84.3458 1693.13,-75.6545"/>
<polygon fill="midnightblue" stroke="midnightblue" points="1757.31,-111.059 1767.83,-112.324 1760.39,-104.775 1757.31,-111.059"/>
</g>
<!-- Node4 -->
<g id="node4" class="node"><title>Node4</title>
<g id="a_node4"><a xlink:href="_t_m_c2208_stepper_8cpp.html" target="_top" xlink:title=" ">
<polygon fill="white" stroke="black" points="0,-0.5 0,-19.5 159,-19.5 159,-0.5 0,-0.5"/>
<text text-anchor="middle" x="79.5" y="-7.5" font-family="Helvetica,sans-Serif" font-size="10.00">src/source/TMC2208Stepper.cpp</text>
</a>
</g>
</g>
<!-- Node2&#45;&gt;Node4 -->
<g id="edge3" class="edge"><title>Node2&#45;&gt;Node4</title>
<path fill="none" stroke="midnightblue" d="M1785.01,-102.207C1783.51,-87.0671 1778.75,-66.616 1764.5,-56 1728.92,-29.486 211.786,-22.7594 167.5,-20 164.741,-19.8281 161.935,-19.6359 159.102,-19.427"/>
<polygon fill="midnightblue" stroke="midnightblue" points="1781.54,-102.724 1785.63,-112.498 1788.52,-102.307 1781.54,-102.724"/>
</g>
<!-- Node5 -->
<g id="node5" class="node"><title>Node5</title>
<g id="a_node5"><a xlink:href="_t_m_c_stepper_8h.html" target="_top" xlink:title=" ">
<polygon fill="white" stroke="black" points="1813,-56.5 1813,-75.5 1908,-75.5 1908,-56.5 1813,-56.5"/>
<text text-anchor="middle" x="1860.5" y="-63.5" font-family="Helvetica,sans-Serif" font-size="10.00">src/TMCStepper.h</text>
</a>
</g>
</g>
<!-- Node2&#45;&gt;Node5 -->
<g id="edge4" class="edge"><title>Node2&#45;&gt;Node5</title>
<path fill="none" stroke="midnightblue" d="M1805.81,-106.38C1819.36,-96.6204 1836.74,-84.1057 1848.23,-75.8339"/>
<polygon fill="midnightblue" stroke="midnightblue" points="1803.62,-103.641 1797.55,-112.324 1807.71,-109.321 1803.62,-103.641"/>
</g>
<!-- Node5&#45;&gt;Node4 -->
<g id="edge23" class="edge"><title>Node5&#45;&gt;Node4</title>
<path fill="none" stroke="midnightblue" d="M1802.47,-56.3557C1801.14,-56.2282 1799.81,-56.1092 1798.5,-56 1075.94,4.19198 891.173,-64.9206 167.5,-20 164.741,-19.8287 161.935,-19.6371 159.102,-19.4287"/>
<polygon fill="midnightblue" stroke="midnightblue" points="1802.52,-59.8815 1812.84,-57.4828 1803.28,-52.9225 1802.52,-59.8815"/>
</g>
<!-- Node6 -->
<g id="node6" class="node"><title>Node6</title>
<g id="a_node6"><a xlink:href="_c_h_o_p_c_o_n_f_8cpp.html" target="_top" xlink:title=" ">
<polygon fill="white" stroke="black" points="177,-0.5 177,-19.5 316,-19.5 316,-0.5 177,-0.5"/>
<text text-anchor="middle" x="246.5" y="-7.5" font-family="Helvetica,sans-Serif" font-size="10.00">src/source/CHOPCONF.cpp</text>
</a>
</g>
</g>
<!-- Node5&#45;&gt;Node6 -->
<g id="edge5" class="edge"><title>Node5&#45;&gt;Node6</title>
<path fill="none" stroke="midnightblue" d="M1802.47,-56.36C1801.14,-56.2311 1799.81,-56.1108 1798.5,-56 1145.96,-0.863927 978.807,-65.1072 325.5,-20 322.47,-19.7908 319.378,-19.5511 316.256,-19.2877"/>
<polygon fill="midnightblue" stroke="midnightblue" points="1802.52,-59.8858 1812.84,-57.4943 1803.28,-52.9273 1802.52,-59.8858"/>
</g>
<!-- Node7 -->
<g id="node7" class="node"><title>Node7</title>
<g id="a_node7"><a xlink:href="_c_o_o_l_c_o_n_f_8cpp.html" target="_top" xlink:title=" ">
<polygon fill="white" stroke="black" points="334.5,-0.5 334.5,-19.5 472.5,-19.5 472.5,-0.5 334.5,-0.5"/>
<text text-anchor="middle" x="403.5" y="-7.5" font-family="Helvetica,sans-Serif" font-size="10.00">src/source/COOLCONF.cpp</text>
</a>
</g>
</g>
<!-- Node5&#45;&gt;Node7 -->
<g id="edge6" class="edge"><title>Node5&#45;&gt;Node7</title>
<path fill="none" stroke="midnightblue" d="M1802.47,-56.3651C1801.14,-56.2347 1799.81,-56.1126 1798.5,-56 1215.1,-5.85555 1065.57,-61.599 481.5,-20 478.645,-19.7966 475.733,-19.5661 472.793,-19.3141"/>
<polygon fill="midnightblue" stroke="midnightblue" points="1802.51,-59.891 1812.84,-57.5083 1803.28,-52.9332 1802.51,-59.891"/>
</g>
<!-- Node8 -->
<g id="node8" class="node"><title>Node8</title>
<g id="a_node8"><a xlink:href="_d_r_v___c_o_n_f_8cpp.html" target="_top" xlink:title=" ">
<polygon fill="white" stroke="black" points="491,-0.5 491,-19.5 628,-19.5 628,-0.5 491,-0.5"/>
<text text-anchor="middle" x="559.5" y="-7.5" font-family="Helvetica,sans-Serif" font-size="10.00">src/source/DRV_CONF.cpp</text>
</a>
</g>
</g>
<!-- Node5&#45;&gt;Node8 -->
<g id="edge7" class="edge"><title>Node5&#45;&gt;Node8</title>
<path fill="none" stroke="midnightblue" d="M1802.47,-56.3716C1801.14,-56.2393 1799.81,-56.115 1798.5,-56 1283.79,-10.8148 1151.79,-58.0268 636.5,-20 633.815,-19.8019 631.08,-19.5798 628.319,-19.3387"/>
<polygon fill="midnightblue" stroke="midnightblue" points="1802.51,-59.8976 1812.84,-57.5259 1803.28,-52.9406 1802.51,-59.8976"/>
</g>
<!-- Node9 -->
<g id="node9" class="node"><title>Node9</title>
<g id="a_node9"><a xlink:href="_d_r_v___s_t_a_t_u_s_8cpp.html" target="_top" xlink:title=" ">
<polygon fill="white" stroke="black" points="646,-0.5 646,-19.5 793,-19.5 793,-0.5 646,-0.5"/>
<text text-anchor="middle" x="719.5" y="-7.5" font-family="Helvetica,sans-Serif" font-size="10.00">src/source/DRV_STATUS.cpp</text>
</a>
</g>
</g>
<!-- Node5&#45;&gt;Node9 -->
<g id="edge8" class="edge"><title>Node5&#45;&gt;Node9</title>
<path fill="none" stroke="midnightblue" d="M1802.47,-56.3808C1801.13,-56.2457 1799.81,-56.1184 1798.5,-56 1356.9,-16.0933 1243.73,-52.2093 801.5,-20 798.786,-19.8023 796.023,-19.5844 793.234,-19.3504"/>
<polygon fill="midnightblue" stroke="midnightblue" points="1802.5,-59.9068 1812.83,-57.5507 1803.29,-52.951 1802.5,-59.9068"/>
</g>
<!-- Node10 -->
<g id="node10" class="node"><title>Node10</title>
<g id="a_node10"><a xlink:href="_d_r_v_c_o_n_f_8cpp.html" target="_top" xlink:title=" ">
<polygon fill="white" stroke="black" points="811,-0.5 811,-19.5 942,-19.5 942,-0.5 811,-0.5"/>
<text text-anchor="middle" x="876.5" y="-7.5" font-family="Helvetica,sans-Serif" font-size="10.00">src/source/DRVCONF.cpp</text>
</a>
</g>
</g>
<!-- Node5&#45;&gt;Node10 -->
<g id="edge9" class="edge"><title>Node5&#45;&gt;Node10</title>
<path fill="none" stroke="midnightblue" d="M1802.47,-56.3921C1801.13,-56.2536 1799.81,-56.1226 1798.5,-56 1423.35,-20.891 1327.05,-50.4686 951.5,-20 948.494,-19.7561 945.422,-19.4834 942.321,-19.189"/>
<polygon fill="midnightblue" stroke="midnightblue" points="1802.5,-59.9183 1812.83,-57.5816 1803.3,-52.964 1802.5,-59.9183"/>
</g>
<!-- Node11 -->
<g id="node11" class="node"><title>Node11</title>
<g id="a_node11"><a xlink:href="_d_r_v_c_t_r_l_8cpp.html" target="_top" xlink:title=" ">
<polygon fill="white" stroke="black" points="960.5,-0.5 960.5,-19.5 1088.5,-19.5 1088.5,-0.5 960.5,-0.5"/>
<text text-anchor="middle" x="1024.5" y="-7.5" font-family="Helvetica,sans-Serif" font-size="10.00">src/source/DRVCTRL.cpp</text>
</a>
</g>
</g>
<!-- Node5&#45;&gt;Node11 -->
<g id="edge10" class="edge"><title>Node5&#45;&gt;Node11</title>
<path fill="none" stroke="midnightblue" d="M1802.47,-56.4079C1801.13,-56.2647 1799.81,-56.1284 1798.5,-56 1488.02,-25.5594 1408.29,-47.1035 1097.5,-20 1094.57,-19.7448 1091.58,-19.4629 1088.57,-19.161"/>
<polygon fill="midnightblue" stroke="midnightblue" points="1802.49,-59.9342 1812.83,-57.6243 1803.3,-52.982 1802.49,-59.9342"/>
</g>
<!-- Node12 -->
<g id="node12" class="node"><title>Node12</title>
<g id="a_node12"><a xlink:href="_d_r_v_s_t_a_t_u_s_8cpp.html" target="_top" xlink:title=" ">
<polygon fill="white" stroke="black" points="1106.5,-0.5 1106.5,-19.5 1248.5,-19.5 1248.5,-0.5 1106.5,-0.5"/>
<text text-anchor="middle" x="1177.5" y="-7.5" font-family="Helvetica,sans-Serif" font-size="10.00">src/source/DRVSTATUS.cpp</text>
</a>
</g>
</g>
<!-- Node5&#45;&gt;Node12 -->
<g id="edge11" class="edge"><title>Node5&#45;&gt;Node12</title>
<path fill="none" stroke="midnightblue" d="M1802.46,-56.4349C1801.13,-56.2835 1799.81,-56.1383 1798.5,-56 1558.86,-30.6721 1497.52,-41.4755 1257.5,-20 1254.58,-19.7384 1251.59,-19.4592 1248.58,-19.167"/>
<polygon fill="midnightblue" stroke="midnightblue" points="1802.47,-59.9613 1812.82,-57.6974 1803.32,-53.0128 1802.47,-59.9613"/>
</g>
<!-- Node13 -->
<g id="node13" class="node"><title>Node13</title>
<g id="a_node13"><a xlink:href="_e_n_c_m_o_d_e_8cpp.html" target="_top" xlink:title=" ">
<polygon fill="white" stroke="black" points="1266.5,-0.5 1266.5,-19.5 1400.5,-19.5 1400.5,-0.5 1266.5,-0.5"/>
<text text-anchor="middle" x="1333.5" y="-7.5" font-family="Helvetica,sans-Serif" font-size="10.00">src/source/ENCMODE.cpp</text>
</a>
</g>
</g>
<!-- Node5&#45;&gt;Node13 -->
<g id="edge12" class="edge"><title>Node5&#45;&gt;Node13</title>
<path fill="none" stroke="midnightblue" d="M1802.46,-56.4809C1801.13,-56.3157 1799.81,-56.1551 1798.5,-56 1626.08,-35.5218 1582.17,-38.2107 1409.5,-20 1406.59,-19.6934 1403.62,-19.3731 1400.63,-19.0436"/>
<polygon fill="midnightblue" stroke="midnightblue" points="1802.44,-60.0074 1812.81,-57.8221 1803.34,-53.0655 1802.44,-60.0074"/>
</g>
<!-- Node14 -->
<g id="node14" class="node"><title>Node14</title>
<g id="a_node14"><a xlink:href="_g_c_o_n_f_8cpp.html" target="_top" xlink:title=" ">
<polygon fill="white" stroke="black" points="1419,-0.5 1419,-19.5 1538,-19.5 1538,-0.5 1419,-0.5"/>
<text text-anchor="middle" x="1478.5" y="-7.5" font-family="Helvetica,sans-Serif" font-size="10.00">src/source/GCONF.cpp</text>
</a>
</g>
</g>
<!-- Node5&#45;&gt;Node14 -->
<g id="edge13" class="edge"><title>Node5&#45;&gt;Node14</title>
<path fill="none" stroke="midnightblue" d="M1802.45,-56.5651C1801.12,-56.3746 1799.8,-56.1861 1798.5,-56 1707.7,-43.0247 1602.35,-28.2677 1538.08,-19.2976"/>
<polygon fill="midnightblue" stroke="midnightblue" points="1802.38,-60.0911 1812.78,-58.0505 1803.38,-53.1624 1802.38,-60.0911"/>
</g>
<!-- Node15 -->
<g id="node15" class="node"><title>Node15</title>
<g id="a_node15"><a xlink:href="_i_h_o_l_d___i_r_u_n_8cpp.html" target="_top" xlink:title=" ">
<polygon fill="white" stroke="black" points="1556.5,-0.5 1556.5,-19.5 1696.5,-19.5 1696.5,-0.5 1556.5,-0.5"/>
<text text-anchor="middle" x="1626.5" y="-7.5" font-family="Helvetica,sans-Serif" font-size="10.00">src/source/IHOLD_IRUN.cpp</text>
</a>
</g>
</g>
<!-- Node5&#45;&gt;Node15 -->
<g id="edge14" class="edge"><title>Node5&#45;&gt;Node15</title>
<path fill="none" stroke="midnightblue" d="M1813.5,-54.1529C1769.28,-43.95 1703.98,-28.8809 1663.4,-19.5164"/>
<polygon fill="midnightblue" stroke="midnightblue" points="1812.89,-57.6052 1823.42,-56.4435 1814.47,-50.7845 1812.89,-57.6052"/>
</g>
<!-- Node16 -->
<g id="node16" class="node"><title>Node16</title>
<g id="a_node16"><a xlink:href="_p_w_m_c_o_n_f_8cpp.html" target="_top" xlink:title=" ">
<polygon fill="white" stroke="black" points="1714.5,-0.5 1714.5,-19.5 1850.5,-19.5 1850.5,-0.5 1714.5,-0.5"/>
<text text-anchor="middle" x="1782.5" y="-7.5" font-family="Helvetica,sans-Serif" font-size="10.00">src/source/PWMCONF.cpp</text>
</a>
</g>
</g>
<!-- Node5&#45;&gt;Node16 -->
<g id="edge15" class="edge"><title>Node5&#45;&gt;Node16</title>
<path fill="none" stroke="midnightblue" d="M1839.73,-50.6221C1825.48,-40.7574 1807.04,-27.9919 1795,-19.6545"/>
<polygon fill="midnightblue" stroke="midnightblue" points="1837.75,-53.5095 1847.97,-56.324 1841.74,-47.7541 1837.75,-53.5095"/>
</g>
<!-- Node17 -->
<g id="node17" class="node"><title>Node17</title>
<g id="a_node17"><a xlink:href="_r_a_m_p___s_t_a_t_8cpp.html" target="_top" xlink:title=" ">
<polygon fill="white" stroke="black" points="1868.5,-0.5 1868.5,-19.5 2010.5,-19.5 2010.5,-0.5 1868.5,-0.5"/>
<text text-anchor="middle" x="1939.5" y="-7.5" font-family="Helvetica,sans-Serif" font-size="10.00">src/source/RAMP_STAT.cpp</text>
</a>
</g>
</g>
<!-- Node5&#45;&gt;Node17 -->
<g id="edge16" class="edge"><title>Node5&#45;&gt;Node17</title>
<path fill="none" stroke="midnightblue" d="M1881.53,-50.6221C1895.97,-40.7574 1914.64,-27.9919 1926.84,-19.6545"/>
<polygon fill="midnightblue" stroke="midnightblue" points="1879.47,-47.7914 1873.19,-56.324 1883.42,-53.5703 1879.47,-47.7914"/>
</g>
<!-- Node18 -->
<g id="node18" class="node"><title>Node18</title>
<g id="a_node18"><a xlink:href="_s_g_c_s_c_o_n_f_8cpp.html" target="_top" xlink:title=" ">
<polygon fill="white" stroke="black" points="2029,-0.5 2029,-19.5 2168,-19.5 2168,-0.5 2029,-0.5"/>
<text text-anchor="middle" x="2098.5" y="-7.5" font-family="Helvetica,sans-Serif" font-size="10.00">src/source/SGCSCONF.cpp</text>
</a>
</g>
</g>
<!-- Node5&#45;&gt;Node18 -->
<g id="edge17" class="edge"><title>Node5&#45;&gt;Node18</title>
<path fill="none" stroke="midnightblue" d="M1908.02,-54.2172C1953,-44.0134 2019.6,-28.9006 2060.96,-19.5164"/>
<polygon fill="midnightblue" stroke="midnightblue" points="1907.19,-50.8175 1898.21,-56.4435 1908.74,-57.644 1907.19,-50.8175"/>
</g>
<!-- Node19 -->
<g id="node19" class="node"><title>Node19</title>
<g id="a_node19"><a xlink:href="_s_h_o_r_t___c_o_n_f_8cpp.html" target="_top" xlink:title=" ">
<polygon fill="white" stroke="black" points="2186,-0.5 2186,-19.5 2335,-19.5 2335,-0.5 2186,-0.5"/>
<text text-anchor="middle" x="2260.5" y="-7.5" font-family="Helvetica,sans-Serif" font-size="10.00">src/source/SHORT_CONF.cpp</text>
</a>
</g>
</g>
<!-- Node5&#45;&gt;Node19 -->
<g id="edge18" class="edge"><title>Node5&#45;&gt;Node19</title>
<path fill="none" stroke="midnightblue" d="M1918.55,-56.552C1919.88,-56.3655 1921.2,-56.1813 1922.5,-56 2017.05,-42.8445 2126.59,-28.408 2194.72,-19.5237"/>
<polygon fill="midnightblue" stroke="midnightblue" points="1917.63,-53.1474 1908.22,-58.0151 1918.61,-60.0782 1917.63,-53.1474"/>
</g>
<!-- Node20 -->
<g id="node20" class="node"><title>Node20</title>
<g id="a_node20"><a xlink:href="_s_m_a_r_t_e_n_8cpp.html" target="_top" xlink:title=" ">
<polygon fill="white" stroke="black" points="2353,-0.5 2353,-19.5 2484,-19.5 2484,-0.5 2353,-0.5"/>
<text text-anchor="middle" x="2418.5" y="-7.5" font-family="Helvetica,sans-Serif" font-size="10.00">src/source/SMARTEN.cpp</text>
</a>
</g>
</g>
<!-- Node5&#45;&gt;Node20 -->
<g id="edge19" class="edge"><title>Node5&#45;&gt;Node20</title>
<path fill="none" stroke="midnightblue" d="M1918.54,-56.4681C1919.87,-56.3068 1921.19,-56.1505 1922.5,-56 2109.5,-34.47 2157.26,-39.3662 2344.5,-20 2347.2,-19.7204 2349.96,-19.4261 2352.75,-19.1214"/>
<polygon fill="midnightblue" stroke="midnightblue" points="1917.67,-53.0508 1908.19,-57.7874 1918.55,-59.9946 1917.67,-53.0508"/>
</g>
<!-- Node21 -->
<g id="node21" class="node"><title>Node21</title>
<g id="a_node21"><a xlink:href="_s_w___m_o_d_e_8cpp.html" target="_top" xlink:title=" ">
<polygon fill="white" stroke="black" points="2502,-0.5 2502,-19.5 2637,-19.5 2637,-0.5 2502,-0.5"/>
<text text-anchor="middle" x="2569.5" y="-7.5" font-family="Helvetica,sans-Serif" font-size="10.00">src/source/SW_MODE.cpp</text>
</a>
</g>
</g>
<!-- Node5&#45;&gt;Node21 -->
<g id="edge20" class="edge"><title>Node5&#45;&gt;Node21</title>
<path fill="none" stroke="midnightblue" d="M1918.53,-56.4287C1919.87,-56.2792 1921.19,-56.136 1922.5,-56 2175.42,-29.7138 2240.26,-42.9603 2493.5,-20 2496.28,-19.7481 2499.11,-19.4769 2501.98,-19.1913"/>
<polygon fill="midnightblue" stroke="midnightblue" points="1917.69,-53.0057 1908.18,-57.6806 1918.53,-59.9551 1917.69,-53.0057"/>
</g>
<!-- Node22 -->
<g id="node22" class="node"><title>Node22</title>
<g id="a_node22"><a xlink:href="_t_m_c2130_stepper_8cpp.html" target="_top" xlink:title=" ">
<polygon fill="white" stroke="black" points="2655,-0.5 2655,-19.5 2814,-19.5 2814,-0.5 2655,-0.5"/>
<text text-anchor="middle" x="2734.5" y="-7.5" font-family="Helvetica,sans-Serif" font-size="10.00">src/source/TMC2130Stepper.cpp</text>
</a>
</g>
</g>
<!-- Node5&#45;&gt;Node22 -->
<g id="edge21" class="edge"><title>Node5&#45;&gt;Node22</title>
<path fill="none" stroke="midnightblue" d="M1918.53,-56.405C1919.87,-56.2626 1921.19,-56.1273 1922.5,-56 2243.16,-24.8241 2325.25,-44.3977 2646.5,-20 2649.26,-19.7907 2652.06,-19.5663 2654.89,-19.33"/>
<polygon fill="midnightblue" stroke="midnightblue" points="1917.7,-52.9786 1908.17,-57.6164 1918.51,-59.9313 1917.7,-52.9786"/>
</g>
<!-- Node23 -->
<g id="node23" class="node"><title>Node23</title>
<g id="a_node23"><a xlink:href="_t_m_c2160_stepper_8cpp.html" target="_top" xlink:title=" ">
<polygon fill="white" stroke="black" points="2832,-0.5 2832,-19.5 2991,-19.5 2991,-0.5 2832,-0.5"/>
<text text-anchor="middle" x="2911.5" y="-7.5" font-family="Helvetica,sans-Serif" font-size="10.00">src/source/TMC2160Stepper.cpp</text>
</a>
</g>
</g>
<!-- Node5&#45;&gt;Node23 -->
<g id="edge22" class="edge"><title>Node5&#45;&gt;Node23</title>
<path fill="none" stroke="midnightblue" d="M1918.53,-56.3876C1919.87,-56.2505 1921.19,-56.1209 1922.5,-56 2321.57,-19.164 2423.74,-48.4009 2823.5,-20 2826.26,-19.8041 2829.06,-19.5913 2831.89,-19.3648"/>
<polygon fill="midnightblue" stroke="midnightblue" points="1917.71,-52.9588 1908.17,-57.5693 1918.5,-59.9138 1917.71,-52.9588"/>
</g>
<!-- Node24 -->
<g id="node24" class="node"><title>Node24</title>
<g id="a_node24"><a xlink:href="_t_m_c2209_stepper_8cpp.html" target="_top" xlink:title=" ">
<polygon fill="white" stroke="black" points="3009,-0.5 3009,-19.5 3168,-19.5 3168,-0.5 3009,-0.5"/>
<text text-anchor="middle" x="3088.5" y="-7.5" font-family="Helvetica,sans-Serif" font-size="10.00">src/source/TMC2209Stepper.cpp</text>
</a>
</g>
</g>
<!-- Node5&#45;&gt;Node24 -->
<g id="edge24" class="edge"><title>Node5&#45;&gt;Node24</title>
<path fill="none" stroke="midnightblue" d="M1918.53,-56.3759C1919.86,-56.2423 1921.19,-56.1166 1922.5,-56 2399.99,-13.5021 2522.22,-52.4055 3000.5,-20 3003.26,-19.8131 3006.06,-19.608 3008.9,-19.3882"/>
<polygon fill="midnightblue" stroke="midnightblue" points="1917.71,-52.9455 1908.16,-57.5376 1918.49,-59.9019 1917.71,-52.9455"/>
</g>
<!-- Node25 -->
<g id="node25" class="node"><title>Node25</title>
<g id="a_node25"><a xlink:href="_t_m_c2660_stepper_8cpp.html" target="_top" xlink:title=" ">
<polygon fill="white" stroke="black" points="3697,-0.5 3697,-19.5 3856,-19.5 3856,-0.5 3697,-0.5"/>
<text text-anchor="middle" x="3776.5" y="-7.5" font-family="Helvetica,sans-Serif" font-size="10.00">src/source/TMC2660Stepper.cpp</text>
</a>
</g>
</g>
<!-- Node5&#45;&gt;Node25 -->
<g id="edge25" class="edge"><title>Node5&#45;&gt;Node25</title>
<path fill="none" stroke="midnightblue" d="M1918.53,-56.3527C1919.86,-56.2261 1921.19,-56.1081 1922.5,-56 2704.45,8.48007 2904.33,-67.5082 3687.5,-20 3690.6,-19.8119 3693.76,-19.5983 3696.95,-19.3643"/>
<polygon fill="midnightblue" stroke="midnightblue" points="1917.72,-52.9191 1908.16,-57.4747 1918.48,-59.8785 1917.72,-52.9191"/>
</g>
<!-- Node26 -->
<g id="node26" class="node"><title>Node26</title>
<g id="a_node26"><a xlink:href="_t_m_c5130_stepper_8cpp.html" target="_top" xlink:title=" ">
<polygon fill="white" stroke="black" points="3186,-0.5 3186,-19.5 3345,-19.5 3345,-0.5 3186,-0.5"/>
<text text-anchor="middle" x="3265.5" y="-7.5" font-family="Helvetica,sans-Serif" font-size="10.00">src/source/TMC5130Stepper.cpp</text>
</a>
</g>
</g>
<!-- Node5&#45;&gt;Node26 -->
<g id="edge26" class="edge"><title>Node5&#45;&gt;Node26</title>
<path fill="none" stroke="midnightblue" d="M1918.53,-56.3675C1919.86,-56.2364 1921.19,-56.1135 1922.5,-56 2478.42,-7.8393 2620.68,-56.4108 3177.5,-20 3180.26,-19.8196 3183.06,-19.6201 3185.9,-19.4051"/>
<polygon fill="midnightblue" stroke="midnightblue" points="1917.72,-52.9359 1908.16,-57.5148 1918.49,-59.8935 1917.72,-52.9359"/>
</g>
<!-- Node27 -->
<g id="node27" class="node"><title>Node27</title>
<g id="a_node27"><a xlink:href="_t_m_c5160_stepper_8cpp.html" target="_top" xlink:title=" ">
<polygon fill="white" stroke="black" points="3363,-0.5 3363,-19.5 3522,-19.5 3522,-0.5 3363,-0.5"/>
<text text-anchor="middle" x="3442.5" y="-7.5" font-family="Helvetica,sans-Serif" font-size="10.00">src/source/TMC5160Stepper.cpp</text>
</a>
</g>
</g>
<!-- Node5&#45;&gt;Node27 -->
<g id="edge27" class="edge"><title>Node5&#45;&gt;Node27</title>
<path fill="none" stroke="midnightblue" d="M1918.53,-56.3612C1919.86,-56.232 1921.19,-56.1112 1922.5,-56 2556.87,-2.17586 2719.14,-60.4166 3354.5,-20 3357.26,-19.8245 3360.06,-19.6292 3362.9,-19.4177"/>
<polygon fill="midnightblue" stroke="midnightblue" points="1917.72,-52.9287 1908.16,-57.4977 1918.48,-59.8871 1917.72,-52.9287"/>
</g>
<!-- Node28 -->
<g id="node28" class="node"><title>Node28</title>
<g id="a_node28"><a xlink:href="_t_m_c_stepper_8cpp.html" target="_top" xlink:title=" ">
<polygon fill="white" stroke="black" points="3540.5,-0.5 3540.5,-19.5 3678.5,-19.5 3678.5,-0.5 3540.5,-0.5"/>
<text text-anchor="middle" x="3609.5" y="-7.5" font-family="Helvetica,sans-Serif" font-size="10.00">src/source/TMCStepper.cpp</text>
</a>
</g>
</g>
<!-- Node5&#45;&gt;Node28 -->
<g id="edge28" class="edge"><title>Node5&#45;&gt;Node28</title>
<path fill="none" stroke="midnightblue" d="M1918.53,-56.3563C1919.86,-56.2285 1921.19,-56.1094 1922.5,-56 2635.31,3.48798 2817.89,-69.0472 3531.5,-20 3534.36,-19.8037 3537.27,-19.5791 3540.21,-19.332"/>
<polygon fill="midnightblue" stroke="midnightblue" points="1917.72,-52.9231 1908.16,-57.4843 1918.48,-59.8821 1917.72,-52.9231"/>
</g>
<!-- Node29&#45;&gt;Node5 -->
<g id="edge32" class="edge"><title>Node29&#45;&gt;Node5</title>
<path fill="none" stroke="midnightblue" d="M1915.19,-106.38C1901.64,-96.6204 1884.26,-84.1057 1872.77,-75.8339"/>
<polygon fill="midnightblue" stroke="midnightblue" points="1913.29,-109.321 1923.45,-112.324 1917.38,-103.641 1913.29,-109.321"/>
</g>
<!-- Node29&#45;&gt;Node25 -->
<g id="edge31" class="edge"><title>Node29&#45;&gt;Node25</title>
<path fill="none" stroke="midnightblue" d="M1935.72,-101.743C1937.03,-86.6663 1941.53,-66.5425 1955.5,-56 1993.91,-27.0103 3639.47,-22.9231 3687.5,-20 3690.6,-19.8113 3693.76,-19.5972 3696.95,-19.3628"/>
<polygon fill="midnightblue" stroke="midnightblue" points="1932.21,-101.892 1935.24,-112.045 1939.2,-102.222 1932.21,-101.892"/>
</g>
<!-- Node30 -->
<g id="node30" class="node"><title>Node30</title>
<g id="a_node30"><a xlink:href="_s_w___s_p_i_8cpp.html" target="_top" xlink:title=" ">
<polygon fill="white" stroke="black" points="1964.5,-56.5 1964.5,-75.5 2086.5,-75.5 2086.5,-56.5 1964.5,-56.5"/>
<text text-anchor="middle" x="2025.5" y="-63.5" font-family="Helvetica,sans-Serif" font-size="10.00">src/source/SW_SPI.cpp</text>
</a>
</g>
</g>
<!-- Node29&#45;&gt;Node30 -->
<g id="edge30" class="edge"><title>Node29&#45;&gt;Node30</title>
<path fill="none" stroke="midnightblue" d="M1958.54,-107.177C1975.1,-97.2407 1996.92,-84.1492 2011.08,-75.6545"/>
<polygon fill="midnightblue" stroke="midnightblue" points="1956.73,-104.178 1949.96,-112.324 1960.34,-110.18 1956.73,-104.178"/>
</g>
</g>
</svg>
