<?xml version="1.0" encoding="UTF-8" standalone="no"?>
<!DOCTYPE svg PUBLIC "-//W3C//DTD SVG 1.1//EN"
 "http://www.w3.org/Graphics/SVG/1.1/DTD/svg11.dtd">
<!-- Generated by graphviz version 2.38.0 (20140413.2041)
 -->
<!-- Title: src/source/TMC2130_bitfields.h Pages: 1 -->
<!--zoomable 151 -->
<svg id="main" version="1.1" xmlns="http://www.w3.org/2000/svg" xmlns:xlink="http://www.w3.org/1999/xlink" xml:space="preserve" onload="init(evt)">
<style type="text/css"><![CDATA[
.edge:hover path { stroke: red; }
.edge:hover polygon { stroke: red; fill: red; }
]]></style>
<script type="text/javascript"><![CDATA[
var edges = document.getElementsByTagName('g');
if (edges && edges.length) {
  for (var i=0;i<edges.length;i++) {
    if (edges[i].id.substr(0,4)=='edge') {
      edges[i].setAttribute('class','edge');
    }
  }
}
]]></script>
        <defs>
                <circle id="rim" cx="0" cy="0" r="7"/>
                <circle id="rim2" cx="0" cy="0" r="3.5"/>
                <g id="zoomPlus">
                        <use xlink:href="#rim" fill="#404040">
                                <set attributeName="fill" to="#808080" begin="zoomplus.mouseover" end="zoomplus.mouseout"/>
                        </use>
                        <path d="M-4,0h8M0,-4v8" fill="none" stroke="white" stroke-width="1.5" pointer-events="none"/>
                </g>
                <g id="zoomMin">
                        <use xlink:href="#rim" fill="#404040">
                                <set attributeName="fill" to="#808080" begin="zoomminus.mouseover" end="zoomminus.mouseout"/>
                        </use>
                        <path d="M-4,0h8" fill="none" stroke="white" stroke-width="1.5" pointer-events="none"/>
                </g>
                <g id="dirArrow">
                        <path fill="none" stroke="white" stroke-width="1.5" d="M0,-3.0v7 M-2.5,-0.5L0,-3.0L2.5,-0.5"/>
                </g>
               <g id="resetDef">
                       <use xlink:href="#rim2" fill="#404040">
                               <set attributeName="fill" to="#808080" begin="reset.mouseover" end="reset.mouseout"/>
                       </use>
               </g>
        </defs>

<script type="text/javascript">
var viewWidth = 3864;
var viewHeight = 151;
var sectionId = 'dynsection-0';
</script>
<script xlink:href="svgpan.js"/>
<svg id="graph" class="graph">
<g id="viewport">
<title>src/source/TMC2130_bitfields.h</title>
<polygon fill="white" stroke="none" points="-4,4 -4,-147 3859.5,-147 3859.5,4 -4,4"/>
<!-- Node1 -->
<g id="node1" class="node"><title>Node1</title>
<g id="a_node1"><a xlink:title=" ">
<polygon fill="#bfbfbf" stroke="black" points="1788,-112.5 1788,-142.5 1895,-142.5 1895,-112.5 1788,-112.5"/>
<text text-anchor="start" x="1796" y="-130.5" font-family="Helvetica,sans-Serif" font-size="10.00">src/source/TMC2130</text>
<text text-anchor="middle" x="1841.5" y="-119.5" font-family="Helvetica,sans-Serif" font-size="10.00">_bitfields.h</text>
</a>
</g>
</g>
<!-- Node2 -->
<g id="node2" class="node"><title>Node2</title>
<g id="a_node2"><a xlink:href="_t_m_c_stepper_8h.html" target="_top" xlink:title=" ">
<polygon fill="white" stroke="black" points="1794,-56.5 1794,-75.5 1889,-75.5 1889,-56.5 1794,-56.5"/>
<text text-anchor="middle" x="1841.5" y="-63.5" font-family="Helvetica,sans-Serif" font-size="10.00">src/TMCStepper.h</text>
</a>
</g>
</g>
<!-- Node1&#45;&gt;Node2 -->
<g id="edge1" class="edge"><title>Node1&#45;&gt;Node2</title>
<path fill="none" stroke="midnightblue" d="M1841.5,-102.289C1841.5,-92.857 1841.5,-82.6548 1841.5,-75.6578"/>
<polygon fill="midnightblue" stroke="midnightblue" points="1838,-102.399 1841.5,-112.399 1845,-102.399 1838,-102.399"/>
</g>
<!-- Node3 -->
<g id="node3" class="node"><title>Node3</title>
<g id="a_node3"><a xlink:href="_c_h_o_p_c_o_n_f_8cpp.html" target="_top" xlink:title=" ">
<polygon fill="white" stroke="black" points="0,-0.5 0,-19.5 139,-19.5 139,-0.5 0,-0.5"/>
<text text-anchor="middle" x="69.5" y="-7.5" font-family="Helvetica,sans-Serif" font-size="10.00">src/source/CHOPCONF.cpp</text>
</a>
</g>
</g>
<!-- Node2&#45;&gt;Node3 -->
<g id="edge2" class="edge"><title>Node2&#45;&gt;Node3</title>
<path fill="none" stroke="midnightblue" d="M1783.82,-65.2807C1568.16,-65.9454 788.789,-64.8964 148.5,-20 145.471,-19.7876 142.378,-19.5452 139.257,-19.2796"/>
<polygon fill="midnightblue" stroke="midnightblue" points="1783.97,-68.7803 1793.96,-65.2469 1783.95,-61.7804 1783.97,-68.7803"/>
</g>
<!-- Node4 -->
<g id="node4" class="node"><title>Node4</title>
<g id="a_node4"><a xlink:href="_c_o_o_l_c_o_n_f_8cpp.html" target="_top" xlink:title=" ">
<polygon fill="white" stroke="black" points="157.5,-0.5 157.5,-19.5 295.5,-19.5 295.5,-0.5 157.5,-0.5"/>
<text text-anchor="middle" x="226.5" y="-7.5" font-family="Helvetica,sans-Serif" font-size="10.00">src/source/COOLCONF.cpp</text>
</a>
</g>
</g>
<!-- Node2&#45;&gt;Node4 -->
<g id="edge3" class="edge"><title>Node2&#45;&gt;Node4</title>
<path fill="none" stroke="midnightblue" d="M1783.8,-65.089C1580.79,-65.0237 880.592,-61.5927 304.5,-20 301.645,-19.7939 298.733,-19.561 295.794,-19.3071"/>
<polygon fill="midnightblue" stroke="midnightblue" points="1783.94,-68.5889 1793.94,-65.0896 1783.94,-61.5889 1783.94,-68.5889"/>
</g>
<!-- Node5 -->
<g id="node5" class="node"><title>Node5</title>
<g id="a_node5"><a xlink:href="_d_r_v___c_o_n_f_8cpp.html" target="_top" xlink:title=" ">
<polygon fill="white" stroke="black" points="314,-0.5 314,-19.5 451,-19.5 451,-0.5 314,-0.5"/>
<text text-anchor="middle" x="382.5" y="-7.5" font-family="Helvetica,sans-Serif" font-size="10.00">src/source/DRV_CONF.cpp</text>
</a>
</g>
</g>
<!-- Node2&#45;&gt;Node5 -->
<g id="edge4" class="edge"><title>Node2&#45;&gt;Node5</title>
<path fill="none" stroke="midnightblue" d="M1783.97,-64.8516C1594.4,-63.9941 972.241,-58.2456 459.5,-20 456.816,-19.7998 454.081,-19.5759 451.32,-19.3333"/>
<polygon fill="midnightblue" stroke="midnightblue" points="1783.97,-68.3516 1793.99,-64.8941 1784,-61.3516 1783.97,-68.3516"/>
</g>
<!-- Node6 -->
<g id="node6" class="node"><title>Node6</title>
<g id="a_node6"><a xlink:href="_d_r_v___s_t_a_t_u_s_8cpp.html" target="_top" xlink:title=" ">
<polygon fill="white" stroke="black" points="469,-0.5 469,-19.5 616,-19.5 616,-0.5 469,-0.5"/>
<text text-anchor="middle" x="542.5" y="-7.5" font-family="Helvetica,sans-Serif" font-size="10.00">src/source/DRV_STATUS.cpp</text>
</a>
</g>
</g>
<!-- Node2&#45;&gt;Node6 -->
<g id="edge5" class="edge"><title>Node2&#45;&gt;Node6</title>
<path fill="none" stroke="midnightblue" d="M1783.87,-64.3488C1609.16,-62.0568 1070.04,-52.6443 624.5,-20 621.786,-19.8012 619.023,-19.5823 616.234,-19.3474"/>
<polygon fill="midnightblue" stroke="midnightblue" points="1783.83,-67.8485 1793.88,-64.4775 1783.92,-60.8491 1783.83,-67.8485"/>
</g>
<!-- Node7 -->
<g id="node7" class="node"><title>Node7</title>
<g id="a_node7"><a xlink:href="_d_r_v_c_o_n_f_8cpp.html" target="_top" xlink:title=" ">
<polygon fill="white" stroke="black" points="634,-0.5 634,-19.5 765,-19.5 765,-0.5 634,-0.5"/>
<text text-anchor="middle" x="699.5" y="-7.5" font-family="Helvetica,sans-Serif" font-size="10.00">src/source/DRVCONF.cpp</text>
</a>
</g>
</g>
<!-- Node2&#45;&gt;Node7 -->
<g id="edge6" class="edge"><title>Node2&#45;&gt;Node7</title>
<path fill="none" stroke="midnightblue" d="M1783.7,-64.1319C1623.29,-61.3835 1159,-51.1308 774.5,-20 771.494,-19.7566 768.422,-19.4843 765.321,-19.1902"/>
<polygon fill="midnightblue" stroke="midnightblue" points="1783.77,-67.6334 1793.83,-64.3022 1783.89,-60.6343 1783.77,-67.6334"/>
</g>
<!-- Node8 -->
<g id="node8" class="node"><title>Node8</title>
<g id="a_node8"><a xlink:href="_d_r_v_c_t_r_l_8cpp.html" target="_top" xlink:title=" ">
<polygon fill="white" stroke="black" points="783.5,-0.5 783.5,-19.5 911.5,-19.5 911.5,-0.5 783.5,-0.5"/>
<text text-anchor="middle" x="847.5" y="-7.5" font-family="Helvetica,sans-Serif" font-size="10.00">src/source/DRVCTRL.cpp</text>
</a>
</g>
</g>
<!-- Node2&#45;&gt;Node8 -->
<g id="edge7" class="edge"><title>Node2&#45;&gt;Node8</title>
<path fill="none" stroke="midnightblue" d="M1783.95,-63.6649C1638.86,-59.978 1246.43,-48.0154 920.5,-20 917.574,-19.7485 914.584,-19.4695 911.566,-19.17"/>
<polygon fill="midnightblue" stroke="midnightblue" points="1783.88,-67.1641 1793.97,-63.9161 1784.06,-60.1663 1783.88,-67.1641"/>
</g>
<!-- Node9 -->
<g id="node9" class="node"><title>Node9</title>
<g id="a_node9"><a xlink:href="_d_r_v_s_t_a_t_u_s_8cpp.html" target="_top" xlink:title=" ">
<polygon fill="white" stroke="black" points="929.5,-0.5 929.5,-19.5 1071.5,-19.5 1071.5,-0.5 929.5,-0.5"/>
<text text-anchor="middle" x="1000.5" y="-7.5" font-family="Helvetica,sans-Serif" font-size="10.00">src/source/DRVSTATUS.cpp</text>
</a>
</g>
</g>
<!-- Node2&#45;&gt;Node9 -->
<g id="edge8" class="edge"><title>Node2&#45;&gt;Node9</title>
<path fill="none" stroke="midnightblue" d="M1783.5,-62.62C1656.14,-57.1633 1342.47,-42.4654 1080.5,-20 1077.58,-19.7492 1074.59,-19.479 1071.58,-19.1943"/>
<polygon fill="midnightblue" stroke="midnightblue" points="1783.66,-66.1297 1793.8,-63.0583 1783.96,-59.136 1783.66,-66.1297"/>
</g>
<!-- Node10 -->
<g id="node10" class="node"><title>Node10</title>
<g id="a_node10"><a xlink:href="_e_n_c_m_o_d_e_8cpp.html" target="_top" xlink:title=" ">
<polygon fill="white" stroke="black" points="1089.5,-0.5 1089.5,-19.5 1223.5,-19.5 1223.5,-0.5 1089.5,-0.5"/>
<text text-anchor="middle" x="1156.5" y="-7.5" font-family="Helvetica,sans-Serif" font-size="10.00">src/source/ENCMODE.cpp</text>
</a>
</g>
</g>
<!-- Node2&#45;&gt;Node10 -->
<g id="edge9" class="edge"><title>Node2&#45;&gt;Node10</title>
<path fill="none" stroke="midnightblue" d="M1783.61,-61.5758C1675.29,-54.9796 1434.67,-39.43 1232.5,-20 1229.59,-19.7204 1226.62,-19.4223 1223.62,-19.1111"/>
<polygon fill="midnightblue" stroke="midnightblue" points="1783.48,-65.0742 1793.67,-62.186 1783.9,-58.0871 1783.48,-65.0742"/>
</g>
<!-- Node11 -->
<g id="node11" class="node"><title>Node11</title>
<g id="a_node11"><a xlink:href="_g_c_o_n_f_8cpp.html" target="_top" xlink:title=" ">
<polygon fill="white" stroke="black" points="1242,-0.5 1242,-19.5 1361,-19.5 1361,-0.5 1242,-0.5"/>
<text text-anchor="middle" x="1301.5" y="-7.5" font-family="Helvetica,sans-Serif" font-size="10.00">src/source/GCONF.cpp</text>
</a>
</g>
</g>
<!-- Node2&#45;&gt;Node11 -->
<g id="edge10" class="edge"><title>Node2&#45;&gt;Node11</title>
<path fill="none" stroke="midnightblue" d="M1783.84,-60.1355C1694.99,-52.4941 1519.29,-36.8061 1370.5,-20 1367.5,-19.661 1364.43,-19.3024 1361.32,-18.9312"/>
<polygon fill="midnightblue" stroke="midnightblue" points="1783.71,-63.6376 1793.98,-61.0048 1784.31,-56.6632 1783.71,-63.6376"/>
</g>
<!-- Node12 -->
<g id="node12" class="node"><title>Node12</title>
<g id="a_node12"><a xlink:href="_i_h_o_l_d___i_r_u_n_8cpp.html" target="_top" xlink:title=" ">
<polygon fill="white" stroke="black" points="1379.5,-0.5 1379.5,-19.5 1519.5,-19.5 1519.5,-0.5 1379.5,-0.5"/>
<text text-anchor="middle" x="1449.5" y="-7.5" font-family="Helvetica,sans-Serif" font-size="10.00">src/source/IHOLD_IRUN.cpp</text>
</a>
</g>
</g>
<!-- Node2&#45;&gt;Node12 -->
<g id="edge11" class="edge"><title>Node2&#45;&gt;Node12</title>
<path fill="none" stroke="midnightblue" d="M1783.9,-57.0657C1711.06,-47.031 1586.13,-29.8218 1511.33,-19.5179"/>
<polygon fill="midnightblue" stroke="midnightblue" points="1783.44,-60.535 1793.83,-58.4325 1784.4,-53.6005 1783.44,-60.535"/>
</g>
<!-- Node13 -->
<g id="node13" class="node"><title>Node13</title>
<g id="a_node13"><a xlink:href="_p_w_m_c_o_n_f_8cpp.html" target="_top" xlink:title=" ">
<polygon fill="white" stroke="black" points="1537.5,-0.5 1537.5,-19.5 1673.5,-19.5 1673.5,-0.5 1537.5,-0.5"/>
<text text-anchor="middle" x="1605.5" y="-7.5" font-family="Helvetica,sans-Serif" font-size="10.00">src/source/PWMCONF.cpp</text>
</a>
</g>
</g>
<!-- Node2&#45;&gt;Node13 -->
<g id="edge12" class="edge"><title>Node2&#45;&gt;Node13</title>
<path fill="none" stroke="midnightblue" d="M1794.09,-54.1529C1749.5,-43.95 1683.65,-28.8809 1642.72,-19.5164"/>
<polygon fill="midnightblue" stroke="midnightblue" points="1793.58,-57.6248 1804.11,-56.4435 1795.14,-50.8011 1793.58,-57.6248"/>
</g>
<!-- Node14 -->
<g id="node14" class="node"><title>Node14</title>
<g id="a_node14"><a xlink:href="_r_a_m_p___s_t_a_t_8cpp.html" target="_top" xlink:title=" ">
<polygon fill="white" stroke="black" points="1691.5,-0.5 1691.5,-19.5 1833.5,-19.5 1833.5,-0.5 1691.5,-0.5"/>
<text text-anchor="middle" x="1762.5" y="-7.5" font-family="Helvetica,sans-Serif" font-size="10.00">src/source/RAMP_STAT.cpp</text>
</a>
</g>
</g>
<!-- Node2&#45;&gt;Node14 -->
<g id="edge13" class="edge"><title>Node2&#45;&gt;Node14</title>
<path fill="none" stroke="midnightblue" d="M1820.47,-50.6221C1806.03,-40.7574 1787.36,-27.9919 1775.16,-19.6545"/>
<polygon fill="midnightblue" stroke="midnightblue" points="1818.58,-53.5703 1828.81,-56.324 1822.53,-47.7914 1818.58,-53.5703"/>
</g>
<!-- Node15 -->
<g id="node15" class="node"><title>Node15</title>
<g id="a_node15"><a xlink:href="_s_g_c_s_c_o_n_f_8cpp.html" target="_top" xlink:title=" ">
<polygon fill="white" stroke="black" points="1852,-0.5 1852,-19.5 1991,-19.5 1991,-0.5 1852,-0.5"/>
<text text-anchor="middle" x="1921.5" y="-7.5" font-family="Helvetica,sans-Serif" font-size="10.00">src/source/SGCSCONF.cpp</text>
</a>
</g>
</g>
<!-- Node2&#45;&gt;Node15 -->
<g id="edge14" class="edge"><title>Node2&#45;&gt;Node15</title>
<path fill="none" stroke="midnightblue" d="M1862.8,-50.6221C1877.42,-40.7574 1896.33,-27.9919 1908.68,-19.6545"/>
<polygon fill="midnightblue" stroke="midnightblue" points="1860.68,-47.8282 1854.35,-56.324 1864.6,-53.6302 1860.68,-47.8282"/>
</g>
<!-- Node16 -->
<g id="node16" class="node"><title>Node16</title>
<g id="a_node16"><a xlink:href="_s_h_o_r_t___c_o_n_f_8cpp.html" target="_top" xlink:title=" ">
<polygon fill="white" stroke="black" points="2009,-0.5 2009,-19.5 2158,-19.5 2158,-0.5 2009,-0.5"/>
<text text-anchor="middle" x="2083.5" y="-7.5" font-family="Helvetica,sans-Serif" font-size="10.00">src/source/SHORT_CONF.cpp</text>
</a>
</g>
</g>
<!-- Node2&#45;&gt;Node16 -->
<g id="edge15" class="edge"><title>Node2&#45;&gt;Node16</title>
<path fill="none" stroke="midnightblue" d="M1889.82,-54.2172C1935.55,-44.0134 2003.28,-28.9006 2045.33,-19.5164"/>
<polygon fill="midnightblue" stroke="midnightblue" points="1888.84,-50.8496 1879.85,-56.4435 1890.37,-57.6816 1888.84,-50.8496"/>
</g>
<!-- Node17 -->
<g id="node17" class="node"><title>Node17</title>
<g id="a_node17"><a xlink:href="_s_m_a_r_t_e_n_8cpp.html" target="_top" xlink:title=" ">
<polygon fill="white" stroke="black" points="2176,-0.5 2176,-19.5 2307,-19.5 2307,-0.5 2176,-0.5"/>
<text text-anchor="middle" x="2241.5" y="-7.5" font-family="Helvetica,sans-Serif" font-size="10.00">src/source/SMARTEN.cpp</text>
</a>
</g>
</g>
<!-- Node2&#45;&gt;Node17 -->
<g id="edge16" class="edge"><title>Node2&#45;&gt;Node17</title>
<path fill="none" stroke="midnightblue" d="M1899.46,-57.1758C1973.69,-47.1546 2101.87,-29.8502 2178.47,-19.5095"/>
<polygon fill="midnightblue" stroke="midnightblue" points="1898.79,-53.7335 1889.35,-58.54 1899.73,-60.6706 1898.79,-53.7335"/>
</g>
<!-- Node18 -->
<g id="node18" class="node"><title>Node18</title>
<g id="a_node18"><a xlink:href="_s_w___m_o_d_e_8cpp.html" target="_top" xlink:title=" ">
<polygon fill="white" stroke="black" points="2325,-0.5 2325,-19.5 2460,-19.5 2460,-0.5 2325,-0.5"/>
<text text-anchor="middle" x="2392.5" y="-7.5" font-family="Helvetica,sans-Serif" font-size="10.00">src/source/SW_MODE.cpp</text>
</a>
</g>
</g>
<!-- Node2&#45;&gt;Node18 -->
<g id="edge17" class="edge"><title>Node2&#45;&gt;Node18</title>
<path fill="none" stroke="midnightblue" d="M1899.27,-59.9661C1988.74,-52.072 2166.16,-36.021 2316.5,-20 2319.27,-19.7043 2322.11,-19.3966 2324.96,-19.0808"/>
<polygon fill="midnightblue" stroke="midnightblue" points="1898.72,-56.5011 1889.07,-60.865 1899.34,-63.4741 1898.72,-56.5011"/>
</g>
<!-- Node19 -->
<g id="node19" class="node"><title>Node19</title>
<g id="a_node19"><a xlink:href="_t_m_c2130_stepper_8cpp.html" target="_top" xlink:title=" ">
<polygon fill="white" stroke="black" points="2478,-0.5 2478,-19.5 2637,-19.5 2637,-0.5 2478,-0.5"/>
<text text-anchor="middle" x="2557.5" y="-7.5" font-family="Helvetica,sans-Serif" font-size="10.00">src/source/TMC2130Stepper.cpp</text>
</a>
</g>
</g>
<!-- Node2&#45;&gt;Node19 -->
<g id="edge18" class="edge"><title>Node2&#45;&gt;Node19</title>
<path fill="none" stroke="midnightblue" d="M1899.49,-61.4357C2010.31,-54.4928 2259.83,-38.2294 2469.5,-20 2472.25,-19.7606 2475.06,-19.5103 2477.88,-19.2519"/>
<polygon fill="midnightblue" stroke="midnightblue" points="1898.96,-57.9615 1889.2,-62.0783 1899.4,-64.9479 1898.96,-57.9615"/>
</g>
<!-- Node20 -->
<g id="node20" class="node"><title>Node20</title>
<g id="a_node20"><a xlink:href="_t_m_c2160_stepper_8cpp.html" target="_top" xlink:title=" ">
<polygon fill="white" stroke="black" points="2655,-0.5 2655,-19.5 2814,-19.5 2814,-0.5 2655,-0.5"/>
<text text-anchor="middle" x="2734.5" y="-7.5" font-family="Helvetica,sans-Serif" font-size="10.00">src/source/TMC2160Stepper.cpp</text>
</a>
</g>
</g>
<!-- Node2&#45;&gt;Node20 -->
<g id="edge19" class="edge"><title>Node2&#45;&gt;Node20</title>
<path fill="none" stroke="midnightblue" d="M1899.5,-62.6758C2031.98,-57.1659 2366.97,-42.0955 2646.5,-20 2649.26,-19.7822 2652.06,-19.5505 2654.89,-19.308"/>
<polygon fill="midnightblue" stroke="midnightblue" points="1899.03,-59.192 1889.19,-63.1023 1899.32,-66.186 1899.03,-59.192"/>
</g>
<!-- Node21 -->
<g id="node21" class="node"><title>Node21</title>
<g id="a_node21"><a xlink:href="_t_m_c2208_stepper_8cpp.html" target="_top" xlink:title=" ">
<polygon fill="white" stroke="black" points="2832,-0.5 2832,-19.5 2991,-19.5 2991,-0.5 2832,-0.5"/>
<text text-anchor="middle" x="2911.5" y="-7.5" font-family="Helvetica,sans-Serif" font-size="10.00">src/source/TMC2208Stepper.cpp</text>
</a>
</g>
</g>
<!-- Node2&#45;&gt;Node21 -->
<g id="edge20" class="edge"><title>Node2&#45;&gt;Node21</title>
<path fill="none" stroke="midnightblue" d="M1899.09,-63.4905C2050.61,-59.2741 2472.86,-45.9439 2823.5,-20 2826.26,-19.796 2829.06,-19.5762 2831.89,-19.3439"/>
<polygon fill="midnightblue" stroke="midnightblue" points="1898.98,-59.9922 1889.08,-63.7668 1899.17,-66.9895 1898.98,-59.9922"/>
</g>
<!-- Node22 -->
<g id="node22" class="node"><title>Node22</title>
<g id="a_node22"><a xlink:href="_t_m_c2209_stepper_8cpp.html" target="_top" xlink:title=" ">
<polygon fill="white" stroke="black" points="3009,-0.5 3009,-19.5 3168,-19.5 3168,-0.5 3009,-0.5"/>
<text text-anchor="middle" x="3088.5" y="-7.5" font-family="Helvetica,sans-Serif" font-size="10.00">src/source/TMC2209Stepper.cpp</text>
</a>
</g>
</g>
<!-- Node2&#45;&gt;Node22 -->
<g id="edge21" class="edge"><title>Node2&#45;&gt;Node22</title>
<path fill="none" stroke="midnightblue" d="M1899.21,-64.0475C2068.51,-60.976 2578.47,-49.7441 3000.5,-20 3003.26,-19.8057 3006.06,-19.5941 3008.89,-19.3688"/>
<polygon fill="midnightblue" stroke="midnightblue" points="1898.97,-60.5512 1889.03,-64.2298 1899.09,-67.5501 1898.97,-60.5512"/>
</g>
<!-- Node23 -->
<g id="node23" class="node"><title>Node23</title>
<g id="a_node23"><a xlink:href="_t_m_c2660_stepper_8cpp.html" target="_top" xlink:title=" ">
<polygon fill="white" stroke="black" points="3186,-0.5 3186,-19.5 3345,-19.5 3345,-0.5 3186,-0.5"/>
<text text-anchor="middle" x="3265.5" y="-7.5" font-family="Helvetica,sans-Serif" font-size="10.00">src/source/TMC2660Stepper.cpp</text>
</a>
</g>
</g>
<!-- Node2&#45;&gt;Node23 -->
<g id="edge22" class="edge"><title>Node2&#45;&gt;Node23</title>
<path fill="none" stroke="midnightblue" d="M1899.28,-64.4618C2085.02,-62.4303 2683.52,-53.5402 3177.5,-20 3180.26,-19.8127 3183.06,-19.6073 3185.9,-19.3872"/>
<polygon fill="midnightblue" stroke="midnightblue" points="1899.15,-60.9629 1889.19,-64.5698 1899.23,-67.9625 1899.15,-60.9629"/>
</g>
<!-- Node24 -->
<g id="node24" class="node"><title>Node24</title>
<g id="a_node24"><a xlink:href="_t_m_c5130_stepper_8cpp.html" target="_top" xlink:title=" ">
<polygon fill="white" stroke="black" points="3363,-0.5 3363,-19.5 3522,-19.5 3522,-0.5 3363,-0.5"/>
<text text-anchor="middle" x="3442.5" y="-7.5" font-family="Helvetica,sans-Serif" font-size="10.00">src/source/TMC5130Stepper.cpp</text>
</a>
</g>
</g>
<!-- Node2&#45;&gt;Node24 -->
<g id="edge23" class="edge"><title>Node2&#45;&gt;Node24</title>
<path fill="none" stroke="midnightblue" d="M1899.3,-64.782C2100.41,-63.7038 2788.12,-57.3366 3354.5,-20 3357.26,-19.8182 3360.06,-19.6174 3362.9,-19.4013"/>
<polygon fill="midnightblue" stroke="midnightblue" points="1899.24,-61.2822 1889.26,-64.8336 1899.28,-68.2821 1899.24,-61.2822"/>
</g>
<!-- Node25 -->
<g id="node25" class="node"><title>Node25</title>
<g id="a_node25"><a xlink:href="_t_m_c5160_stepper_8cpp.html" target="_top" xlink:title=" ">
<polygon fill="white" stroke="black" points="3540,-0.5 3540,-19.5 3699,-19.5 3699,-0.5 3540,-0.5"/>
<text text-anchor="middle" x="3619.5" y="-7.5" font-family="Helvetica,sans-Serif" font-size="10.00">src/source/TMC5160Stepper.cpp</text>
</a>
</g>
</g>
<!-- Node2&#45;&gt;Node25 -->
<g id="edge24" class="edge"><title>Node2&#45;&gt;Node25</title>
<path fill="none" stroke="midnightblue" d="M1899.42,-65.0367C2115.16,-64.8381 2892.46,-61.1276 3531.5,-20 3534.26,-19.8225 3537.06,-19.6254 3539.9,-19.4124"/>
<polygon fill="midnightblue" stroke="midnightblue" points="1899.28,-61.5367 1889.28,-65.0438 1899.28,-68.5367 1899.28,-61.5367"/>
</g>
<!-- Node26 -->
<g id="node26" class="node"><title>Node26</title>
<g id="a_node26"><a xlink:href="_t_m_c_stepper_8cpp.html" target="_top" xlink:title=" ">
<polygon fill="white" stroke="black" points="3717.5,-0.5 3717.5,-19.5 3855.5,-19.5 3855.5,-0.5 3717.5,-0.5"/>
<text text-anchor="middle" x="3786.5" y="-7.5" font-family="Helvetica,sans-Serif" font-size="10.00">src/source/TMCStepper.cpp</text>
</a>
</g>
</g>
<!-- Node2&#45;&gt;Node26 -->
<g id="edge25" class="edge"><title>Node2&#45;&gt;Node26</title>
<path fill="none" stroke="midnightblue" d="M1899.25,-64.3157C2173.23,-60.9607 3343.86,-45.379 3708.5,-20 3711.36,-19.8012 3714.27,-19.5745 3717.21,-19.3258"/>
<polygon fill="midnightblue" stroke="midnightblue" points="1899.08,-60.8173 1889.13,-64.4391 1899.17,-67.8168 1899.08,-60.8173"/>
</g>
</g>
</svg>
        <g id="navigator" transform="translate(0 0)" fill="#404254">
                <rect fill="#f2f5e9" fill-opacity="0.5" stroke="#606060" stroke-width=".5" x="0" y="0" width="60" height="60"/>
                <use id="zoomplus" xlink:href="#zoomPlus" x="17" y="9" onmousedown="handleZoom(evt,'in')"/>
                <use id="zoomminus" xlink:href="#zoomMin" x="42" y="9" onmousedown="handleZoom(evt,'out')"/>
                <use id="reset" xlink:href="#resetDef" x="30" y="36" onmousedown="handleReset()"/>
                <g id="arrowUp" xlink:href="#dirArrow" transform="translate(30 24)" onmousedown="handlePan(0,-1)">
                  <use xlink:href="#rim" fill="#404040">
                        <set attributeName="fill" to="#808080" begin="arrowUp.mouseover" end="arrowUp.mouseout"/>
                  </use>
                  <path fill="none" stroke="white" stroke-width="1.5" d="M0,-3.0v7 M-2.5,-0.5L0,-3.0L2.5,-0.5"/>
                </g>
                <g id="arrowRight" xlink:href="#dirArrow" transform="rotate(90) translate(36 -43)" onmousedown="handlePan(1,0)">
                  <use xlink:href="#rim" fill="#404040">
                        <set attributeName="fill" to="#808080" begin="arrowRight.mouseover" end="arrowRight.mouseout"/>
                  </use>
                  <path fill="none" stroke="white" stroke-width="1.5" d="M0,-3.0v7 M-2.5,-0.5L0,-3.0L2.5,-0.5"/>
                </g>
                <g id="arrowDown" xlink:href="#dirArrow" transform="rotate(180) translate(-30 -48)" onmousedown="handlePan(0,1)">
                  <use xlink:href="#rim" fill="#404040">
                        <set attributeName="fill" to="#808080" begin="arrowDown.mouseover" end="arrowDown.mouseout"/>
                  </use>
                  <path fill="none" stroke="white" stroke-width="1.5" d="M0,-3.0v7 M-2.5,-0.5L0,-3.0L2.5,-0.5"/>
                </g>
                <g id="arrowLeft" xlink:href="#dirArrow" transform="rotate(270) translate(-36 17)" onmousedown="handlePan(-1,0)">
                  <use xlink:href="#rim" fill="#404040">
                        <set attributeName="fill" to="#808080" begin="arrowLeft.mouseover" end="arrowLeft.mouseout"/>
                  </use>
                  <path fill="none" stroke="white" stroke-width="1.5" d="M0,-3.0v7 M-2.5,-0.5L0,-3.0L2.5,-0.5"/>
                </g>
        </g>
        <svg viewBox="0 0 15 15" width="100%" height="30px" preserveAspectRatio="xMaxYMin meet">
         <g id="arrow_out" transform="scale(0.3 0.3)">
          <a xlink:href="_t_m_c2130__bitfields_8h__dep__incl_org.svg" target="_base">
           <rect id="button" ry="5" rx="5" y="6" x="6" height="38" width="38"
                fill="#f2f5e9" fill-opacity="0.5" stroke="#606060" stroke-width="1.0"/>
           <path id="arrow"
             d="M 11.500037,31.436501 C 11.940474,20.09759 22.043105,11.32322 32.158766,21.979434 L 37.068811,17.246167 C 37.068811,17.246167 37.088388,32 37.088388,32 L 22.160133,31.978069 C 22.160133,31.978069 26.997745,27.140456 26.997745,27.140456 C 18.528582,18.264221 13.291696,25.230495 11.500037,31.436501 z"
             style="fill:#404040;"/>
          </a>
         </g>
        </svg>
</svg>
