<?xml version="1.0" encoding="UTF-8" standalone="no"?>
<!DOCTYPE svg PUBLIC "-//W3C//DTD SVG 1.1//EN"
 "http://www.w3.org/Graphics/SVG/1.1/DTD/svg11.dtd">
<!-- Generated by graphviz version 2.38.0 (20140413.2041)
 -->
<!-- Title: src/source/TMC_MACROS.h Pages: 1 -->
<!--zoomable 84 -->
<svg id="main" version="1.1" xmlns="http://www.w3.org/2000/svg" xmlns:xlink="http://www.w3.org/1999/xlink" xml:space="preserve" onload="init(evt)">
<style type="text/css"><![CDATA[
.edge:hover path { stroke: red; }
.edge:hover polygon { stroke: red; fill: red; }
]]></style>
<script type="text/javascript"><![CDATA[
var edges = document.getElementsByTagName('g');
if (edges && edges.length) {
  for (var i=0;i<edges.length;i++) {
    if (edges[i].id.substr(0,4)=='edge') {
      edges[i].setAttribute('class','edge');
    }
  }
}
]]></script>
        <defs>
                <circle id="rim" cx="0" cy="0" r="7"/>
                <circle id="rim2" cx="0" cy="0" r="3.5"/>
                <g id="zoomPlus">
                        <use xlink:href="#rim" fill="#404040">
                                <set attributeName="fill" to="#808080" begin="zoomplus.mouseover" end="zoomplus.mouseout"/>
                        </use>
                        <path d="M-4,0h8M0,-4v8" fill="none" stroke="white" stroke-width="1.5" pointer-events="none"/>
                </g>
                <g id="zoomMin">
                        <use xlink:href="#rim" fill="#404040">
                                <set attributeName="fill" to="#808080" begin="zoomminus.mouseover" end="zoomminus.mouseout"/>
                        </use>
                        <path d="M-4,0h8" fill="none" stroke="white" stroke-width="1.5" pointer-events="none"/>
                </g>
                <g id="dirArrow">
                        <path fill="none" stroke="white" stroke-width="1.5" d="M0,-3.0v7 M-2.5,-0.5L0,-3.0L2.5,-0.5"/>
                </g>
               <g id="resetDef">
                       <use xlink:href="#rim2" fill="#404040">
                               <set attributeName="fill" to="#808080" begin="reset.mouseover" end="reset.mouseout"/>
                       </use>
               </g>
        </defs>

<script type="text/javascript">
var viewWidth = 3510;
var viewHeight = 84;
var sectionId = 'dynsection-0';
</script>
<script xlink:href="svgpan.js"/>
<svg id="graph" class="graph">
<g id="viewport">
<title>src/source/TMC_MACROS.h</title>
<polygon fill="white" stroke="none" points="-4,4 -4,-80 3505.5,-80 3505.5,4 -4,4"/>
<!-- Node1 -->
<g id="node1" class="node"><title>Node1</title>
<g id="a_node1"><a xlink:title=" ">
<polygon fill="#bfbfbf" stroke="black" points="1612.5,-56.5 1612.5,-75.5 1754.5,-75.5 1754.5,-56.5 1612.5,-56.5"/>
<text text-anchor="middle" x="1683.5" y="-63.5" font-family="Helvetica,sans-Serif" font-size="10.00">src/source/TMC_MACROS.h</text>
</a>
</g>
</g>
<!-- Node2 -->
<g id="node2" class="node"><title>Node2</title>
<g id="a_node2"><a xlink:href="_c_h_o_p_c_o_n_f_8cpp.html" target="_top" xlink:title=" ">
<polygon fill="white" stroke="black" points="0,-0.5 0,-19.5 139,-19.5 139,-0.5 0,-0.5"/>
<text text-anchor="middle" x="69.5" y="-7.5" font-family="Helvetica,sans-Serif" font-size="10.00">src/source/CHOPCONF.cpp</text>
</a>
</g>
</g>
<!-- Node1&#45;&gt;Node2 -->
<g id="edge1" class="edge"><title>Node1&#45;&gt;Node2</title>
<path fill="none" stroke="midnightblue" d="M1601.99,-65.0216C1372.76,-64.5623 703.081,-59.6485 148.5,-20 145.471,-19.7834 142.379,-19.5376 139.257,-19.2692"/>
<polygon fill="midnightblue" stroke="midnightblue" points="1602.23,-68.522 1612.24,-65.0397 1602.25,-61.522 1602.23,-68.522"/>
</g>
<!-- Node3 -->
<g id="node3" class="node"><title>Node3</title>
<g id="a_node3"><a xlink:href="_c_o_o_l_c_o_n_f_8cpp.html" target="_top" xlink:title=" ">
<polygon fill="white" stroke="black" points="157.5,-0.5 157.5,-19.5 295.5,-19.5 295.5,-0.5 157.5,-0.5"/>
<text text-anchor="middle" x="226.5" y="-7.5" font-family="Helvetica,sans-Serif" font-size="10.00">src/source/COOLCONF.cpp</text>
</a>
</g>
</g>
<!-- Node1&#45;&gt;Node3 -->
<g id="edge2" class="edge"><title>Node1&#45;&gt;Node3</title>
<path fill="none" stroke="midnightblue" d="M1602.17,-64.6792C1388.96,-63.3326 796.315,-56.3366 304.5,-20 301.645,-19.7891 298.734,-19.5522 295.794,-19.295"/>
<polygon fill="midnightblue" stroke="midnightblue" points="1602.32,-68.18 1612.34,-64.7409 1602.36,-61.1802 1602.32,-68.18"/>
</g>
<!-- Node4 -->
<g id="node4" class="node"><title>Node4</title>
<g id="a_node4"><a xlink:href="_d_r_v___c_o_n_f_8cpp.html" target="_top" xlink:title=" ">
<polygon fill="white" stroke="black" points="314,-0.5 314,-19.5 451,-19.5 451,-0.5 314,-0.5"/>
<text text-anchor="middle" x="382.5" y="-7.5" font-family="Helvetica,sans-Serif" font-size="10.00">src/source/DRV_CONF.cpp</text>
</a>
</g>
</g>
<!-- Node1&#45;&gt;Node4 -->
<g id="edge3" class="edge"><title>Node1&#45;&gt;Node4</title>
<path fill="none" stroke="midnightblue" d="M1602.09,-64.2444C1405.45,-61.932 889.106,-52.9515 459.5,-20 456.816,-19.7941 454.082,-19.5655 451.321,-19.3189"/>
<polygon fill="midnightblue" stroke="midnightblue" points="1602.29,-67.7469 1612.33,-64.3623 1602.37,-60.7474 1602.29,-67.7469"/>
</g>
<!-- Node5 -->
<g id="node5" class="node"><title>Node5</title>
<g id="a_node5"><a xlink:href="_d_r_v___s_t_a_t_u_s_8cpp.html" target="_top" xlink:title=" ">
<polygon fill="white" stroke="black" points="469,-0.5 469,-19.5 616,-19.5 616,-0.5 469,-0.5"/>
<text text-anchor="middle" x="542.5" y="-7.5" font-family="Helvetica,sans-Serif" font-size="10.00">src/source/DRV_STATUS.cpp</text>
</a>
</g>
</g>
<!-- Node1&#45;&gt;Node5 -->
<g id="edge4" class="edge"><title>Node1&#45;&gt;Node5</title>
<path fill="none" stroke="midnightblue" d="M1602.4,-63.4021C1424.91,-59.4993 988.767,-47.6985 624.5,-20 621.787,-19.7937 619.025,-19.5684 616.236,-19.3282"/>
<polygon fill="midnightblue" stroke="midnightblue" points="1602.37,-66.9021 1612.45,-63.6205 1602.52,-59.9038 1602.37,-66.9021"/>
</g>
<!-- Node6 -->
<g id="node6" class="node"><title>Node6</title>
<g id="a_node6"><a xlink:href="_d_r_v_c_o_n_f_8cpp.html" target="_top" xlink:title=" ">
<polygon fill="white" stroke="black" points="634,-0.5 634,-19.5 765,-19.5 765,-0.5 634,-0.5"/>
<text text-anchor="middle" x="699.5" y="-7.5" font-family="Helvetica,sans-Serif" font-size="10.00">src/source/DRVCONF.cpp</text>
</a>
</g>
</g>
<!-- Node1&#45;&gt;Node6 -->
<g id="edge5" class="edge"><title>Node1&#45;&gt;Node6</title>
<path fill="none" stroke="midnightblue" d="M1602.19,-62.8831C1443.05,-58.3174 1079.35,-45.8047 774.5,-20 771.494,-19.7456 768.424,-19.4642 765.323,-19.1629"/>
<polygon fill="midnightblue" stroke="midnightblue" points="1602.28,-66.3869 1612.38,-63.1724 1602.48,-59.3897 1602.28,-66.3869"/>
</g>
<!-- Node7 -->
<g id="node7" class="node"><title>Node7</title>
<g id="a_node7"><a xlink:href="_d_r_v_c_t_r_l_8cpp.html" target="_top" xlink:title=" ">
<polygon fill="white" stroke="black" points="783.5,-0.5 783.5,-19.5 911.5,-19.5 911.5,-0.5 783.5,-0.5"/>
<text text-anchor="middle" x="847.5" y="-7.5" font-family="Helvetica,sans-Serif" font-size="10.00">src/source/DRVCTRL.cpp</text>
</a>
</g>
</g>
<!-- Node1&#45;&gt;Node7 -->
<g id="edge6" class="edge"><title>Node1&#45;&gt;Node7</title>
<path fill="none" stroke="midnightblue" d="M1602.19,-61.9089C1462.58,-56.22 1168.35,-42.5644 920.5,-20 917.575,-19.7337 914.587,-19.4426 911.569,-19.1334"/>
<polygon fill="midnightblue" stroke="midnightblue" points="1602.25,-65.4138 1612.38,-62.321 1602.53,-58.4196 1602.25,-65.4138"/>
</g>
<!-- Node8 -->
<g id="node8" class="node"><title>Node8</title>
<g id="a_node8"><a xlink:href="_d_r_v_s_t_a_t_u_s_8cpp.html" target="_top" xlink:title=" ">
<polygon fill="white" stroke="black" points="929.5,-0.5 929.5,-19.5 1071.5,-19.5 1071.5,-0.5 929.5,-0.5"/>
<text text-anchor="middle" x="1000.5" y="-7.5" font-family="Helvetica,sans-Serif" font-size="10.00">src/source/DRVSTATUS.cpp</text>
</a>
</g>
</g>
<!-- Node1&#45;&gt;Node8 -->
<g id="edge7" class="edge"><title>Node1&#45;&gt;Node8</title>
<path fill="none" stroke="midnightblue" d="M1602.21,-59.9056C1486.3,-52.4212 1266.93,-37.4371 1080.5,-20 1077.58,-19.7267 1074.6,-19.4376 1071.59,-19.1373"/>
<polygon fill="midnightblue" stroke="midnightblue" points="1602.21,-63.413 1612.41,-60.5626 1602.66,-56.4275 1602.21,-63.413"/>
</g>
<!-- Node9 -->
<g id="node9" class="node"><title>Node9</title>
<g id="a_node9"><a xlink:href="_e_n_c_m_o_d_e_8cpp.html" target="_top" xlink:title=" ">
<polygon fill="white" stroke="black" points="1089.5,-0.5 1089.5,-19.5 1223.5,-19.5 1223.5,-0.5 1089.5,-0.5"/>
<text text-anchor="middle" x="1156.5" y="-7.5" font-family="Helvetica,sans-Serif" font-size="10.00">src/source/ENCMODE.cpp</text>
</a>
</g>
</g>
<!-- Node1&#45;&gt;Node9 -->
<g id="edge8" class="edge"><title>Node1&#45;&gt;Node9</title>
<path fill="none" stroke="midnightblue" d="M1602.2,-57.3428C1511.86,-48.7281 1361.67,-34.0917 1232.5,-20 1229.59,-19.683 1226.63,-19.354 1223.63,-19.0175"/>
<polygon fill="midnightblue" stroke="midnightblue" points="1602.09,-60.8478 1612.38,-58.3116 1602.75,-53.8793 1602.09,-60.8478"/>
</g>
<!-- Node10 -->
<g id="node10" class="node"><title>Node10</title>
<g id="a_node10"><a xlink:href="_g_c_o_n_f_8cpp.html" target="_top" xlink:title=" ">
<polygon fill="white" stroke="black" points="1242,-0.5 1242,-19.5 1361,-19.5 1361,-0.5 1242,-0.5"/>
<text text-anchor="middle" x="1301.5" y="-7.5" font-family="Helvetica,sans-Serif" font-size="10.00">src/source/GCONF.cpp</text>
</a>
</g>
</g>
<!-- Node1&#45;&gt;Node10 -->
<g id="edge9" class="edge"><title>Node1&#45;&gt;Node10</title>
<path fill="none" stroke="midnightblue" d="M1613.03,-55.0378C1540.66,-44.8074 1429.25,-29.0589 1361.12,-19.4275"/>
<polygon fill="midnightblue" stroke="midnightblue" points="1612.58,-58.5093 1622.97,-56.4435 1613.56,-51.5782 1612.58,-58.5093"/>
</g>
<!-- Node11 -->
<g id="node11" class="node"><title>Node11</title>
<g id="a_node11"><a xlink:href="_i_h_o_l_d___i_r_u_n_8cpp.html" target="_top" xlink:title=" ">
<polygon fill="white" stroke="black" points="1379.5,-0.5 1379.5,-19.5 1519.5,-19.5 1519.5,-0.5 1379.5,-0.5"/>
<text text-anchor="middle" x="1449.5" y="-7.5" font-family="Helvetica,sans-Serif" font-size="10.00">src/source/IHOLD_IRUN.cpp</text>
</a>
</g>
</g>
<!-- Node1&#45;&gt;Node11 -->
<g id="edge10" class="edge"><title>Node1&#45;&gt;Node11</title>
<path fill="none" stroke="midnightblue" d="M1636.5,-54.1529C1592.28,-43.95 1526.98,-28.8809 1486.4,-19.5164"/>
<polygon fill="midnightblue" stroke="midnightblue" points="1635.89,-57.6052 1646.42,-56.4435 1637.47,-50.7845 1635.89,-57.6052"/>
</g>
<!-- Node12 -->
<g id="node12" class="node"><title>Node12</title>
<g id="a_node12"><a xlink:href="_p_w_m_c_o_n_f_8cpp.html" target="_top" xlink:title=" ">
<polygon fill="white" stroke="black" points="1537.5,-0.5 1537.5,-19.5 1673.5,-19.5 1673.5,-0.5 1537.5,-0.5"/>
<text text-anchor="middle" x="1605.5" y="-7.5" font-family="Helvetica,sans-Serif" font-size="10.00">src/source/PWMCONF.cpp</text>
</a>
</g>
</g>
<!-- Node1&#45;&gt;Node12 -->
<g id="edge11" class="edge"><title>Node1&#45;&gt;Node12</title>
<path fill="none" stroke="midnightblue" d="M1662.73,-50.6221C1648.48,-40.7574 1630.04,-27.9919 1618,-19.6545"/>
<polygon fill="midnightblue" stroke="midnightblue" points="1660.75,-53.5095 1670.97,-56.324 1664.74,-47.7541 1660.75,-53.5095"/>
</g>
<!-- Node13 -->
<g id="node13" class="node"><title>Node13</title>
<g id="a_node13"><a xlink:href="_r_a_m_p___s_t_a_t_8cpp.html" target="_top" xlink:title=" ">
<polygon fill="white" stroke="black" points="1691.5,-0.5 1691.5,-19.5 1833.5,-19.5 1833.5,-0.5 1691.5,-0.5"/>
<text text-anchor="middle" x="1762.5" y="-7.5" font-family="Helvetica,sans-Serif" font-size="10.00">src/source/RAMP_STAT.cpp</text>
</a>
</g>
</g>
<!-- Node1&#45;&gt;Node13 -->
<g id="edge12" class="edge"><title>Node1&#45;&gt;Node13</title>
<path fill="none" stroke="midnightblue" d="M1704.53,-50.6221C1718.97,-40.7574 1737.64,-27.9919 1749.84,-19.6545"/>
<polygon fill="midnightblue" stroke="midnightblue" points="1702.47,-47.7914 1696.19,-56.324 1706.42,-53.5703 1702.47,-47.7914"/>
</g>
<!-- Node14 -->
<g id="node14" class="node"><title>Node14</title>
<g id="a_node14"><a xlink:href="_s_g_c_s_c_o_n_f_8cpp.html" target="_top" xlink:title=" ">
<polygon fill="white" stroke="black" points="1852,-0.5 1852,-19.5 1991,-19.5 1991,-0.5 1852,-0.5"/>
<text text-anchor="middle" x="1921.5" y="-7.5" font-family="Helvetica,sans-Serif" font-size="10.00">src/source/SGCSCONF.cpp</text>
</a>
</g>
</g>
<!-- Node1&#45;&gt;Node14 -->
<g id="edge13" class="edge"><title>Node1&#45;&gt;Node14</title>
<path fill="none" stroke="midnightblue" d="M1731.02,-54.2172C1776,-44.0134 1842.6,-28.9006 1883.96,-19.5164"/>
<polygon fill="midnightblue" stroke="midnightblue" points="1730.19,-50.8175 1721.21,-56.4435 1731.74,-57.644 1730.19,-50.8175"/>
</g>
<!-- Node15 -->
<g id="node15" class="node"><title>Node15</title>
<g id="a_node15"><a xlink:href="_s_h_o_r_t___c_o_n_f_8cpp.html" target="_top" xlink:title=" ">
<polygon fill="white" stroke="black" points="2009,-0.5 2009,-19.5 2158,-19.5 2158,-0.5 2009,-0.5"/>
<text text-anchor="middle" x="2083.5" y="-7.5" font-family="Helvetica,sans-Serif" font-size="10.00">src/source/SHORT_CONF.cpp</text>
</a>
</g>
</g>
<!-- Node1&#45;&gt;Node15 -->
<g id="edge14" class="edge"><title>Node1&#45;&gt;Node15</title>
<path fill="none" stroke="midnightblue" d="M1756.8,-55.1046C1832.33,-44.9074 1948.86,-29.1766 2020.42,-19.5164"/>
<polygon fill="midnightblue" stroke="midnightblue" points="1756.32,-51.6371 1746.88,-56.4435 1757.26,-58.5741 1756.32,-51.6371"/>
</g>
<!-- Node16 -->
<g id="node16" class="node"><title>Node16</title>
<g id="a_node16"><a xlink:href="_s_m_a_r_t_e_n_8cpp.html" target="_top" xlink:title=" ">
<polygon fill="white" stroke="black" points="2176,-0.5 2176,-19.5 2307,-19.5 2307,-0.5 2176,-0.5"/>
<text text-anchor="middle" x="2241.5" y="-7.5" font-family="Helvetica,sans-Serif" font-size="10.00">src/source/SMARTEN.cpp</text>
</a>
</g>
</g>
<!-- Node1&#45;&gt;Node16 -->
<g id="edge15" class="edge"><title>Node1&#45;&gt;Node16</title>
<path fill="none" stroke="midnightblue" d="M1764.74,-58.1538C1860.96,-49.8823 2026.02,-35.177 2167.5,-20 2170.2,-19.7101 2172.96,-19.4072 2175.74,-19.0954"/>
<polygon fill="midnightblue" stroke="midnightblue" points="1764.17,-54.6902 1754.5,-59.0321 1764.77,-61.6646 1764.17,-54.6902"/>
</g>
<!-- Node17 -->
<g id="node17" class="node"><title>Node17</title>
<g id="a_node17"><a xlink:href="_s_w___m_o_d_e_8cpp.html" target="_top" xlink:title=" ">
<polygon fill="white" stroke="black" points="2325,-0.5 2325,-19.5 2460,-19.5 2460,-0.5 2325,-0.5"/>
<text text-anchor="middle" x="2392.5" y="-7.5" font-family="Helvetica,sans-Serif" font-size="10.00">src/source/SW_MODE.cpp</text>
</a>
</g>
</g>
<!-- Node1&#45;&gt;Node17 -->
<g id="edge16" class="edge"><title>Node1&#45;&gt;Node17</title>
<path fill="none" stroke="midnightblue" d="M1765.05,-60.4292C1885.69,-53.3888 2118.8,-38.7227 2316.5,-20 2319.28,-19.7369 2322.11,-19.4565 2324.97,-19.1632"/>
<polygon fill="midnightblue" stroke="midnightblue" points="1764.57,-56.951 1754.79,-61.0252 1764.97,-63.9392 1764.57,-56.951"/>
</g>
<!-- Node18 -->
<g id="node18" class="node"><title>Node18</title>
<g id="a_node18"><a xlink:href="_t_m_c2130_stepper_8cpp.html" target="_top" xlink:title=" ">
<polygon fill="white" stroke="black" points="2478,-0.5 2478,-19.5 2637,-19.5 2637,-0.5 2478,-0.5"/>
<text text-anchor="middle" x="2557.5" y="-7.5" font-family="Helvetica,sans-Serif" font-size="10.00">src/source/TMC2130Stepper.cpp</text>
</a>
</g>
</g>
<!-- Node1&#45;&gt;Node18 -->
<g id="edge17" class="edge"><title>Node1&#45;&gt;Node18</title>
<path fill="none" stroke="midnightblue" d="M1764.98,-61.5379C1907.81,-55.2005 2212.63,-40.4785 2469.5,-20 2472.26,-19.7803 2475.06,-19.547 2477.89,-19.3031"/>
<polygon fill="midnightblue" stroke="midnightblue" points="1764.4,-58.06 1754.56,-61.9979 1764.71,-65.0532 1764.4,-58.06"/>
</g>
<!-- Node19 -->
<g id="node19" class="node"><title>Node19</title>
<g id="a_node19"><a xlink:href="_t_m_c2160_stepper_8cpp.html" target="_top" xlink:title=" ">
<polygon fill="white" stroke="black" points="2655,-0.5 2655,-19.5 2814,-19.5 2814,-0.5 2655,-0.5"/>
<text text-anchor="middle" x="2734.5" y="-7.5" font-family="Helvetica,sans-Serif" font-size="10.00">src/source/TMC2160Stepper.cpp</text>
</a>
</g>
</g>
<!-- Node1&#45;&gt;Node19 -->
<g id="edge18" class="edge"><title>Node1&#45;&gt;Node19</title>
<path fill="none" stroke="midnightblue" d="M1764.68,-62.7205C1930.53,-57.7295 2320.14,-44.2953 2646.5,-20 2649.26,-19.7948 2652.06,-19.5739 2654.89,-19.3406"/>
<polygon fill="midnightblue" stroke="midnightblue" points="1764.45,-59.2257 1754.56,-63.0229 1764.66,-66.2226 1764.45,-59.2257"/>
</g>
<!-- Node20 -->
<g id="node20" class="node"><title>Node20</title>
<g id="a_node20"><a xlink:href="_t_m_c2208_stepper_8cpp.html" target="_top" xlink:title=" ">
<polygon fill="white" stroke="black" points="2832,-0.5 2832,-19.5 2991,-19.5 2991,-0.5 2832,-0.5"/>
<text text-anchor="middle" x="2911.5" y="-7.5" font-family="Helvetica,sans-Serif" font-size="10.00">src/source/TMC2208Stepper.cpp</text>
</a>
</g>
</g>
<!-- Node1&#45;&gt;Node20 -->
<g id="edge19" class="edge"><title>Node1&#45;&gt;Node20</title>
<path fill="none" stroke="midnightblue" d="M1764.64,-63.5371C1951.59,-59.7862 2427,-48.0738 2823.5,-20 2826.26,-19.8048 2829.06,-19.5925 2831.89,-19.3665"/>
<polygon fill="midnightblue" stroke="midnightblue" points="1764.55,-60.0382 1754.62,-63.7361 1764.69,-67.0368 1764.55,-60.0382"/>
</g>
<!-- Node21 -->
<g id="node21" class="node"><title>Node21</title>
<g id="a_node21"><a xlink:href="_t_m_c5130_stepper_8cpp.html" target="_top" xlink:title=" ">
<polygon fill="white" stroke="black" points="3009,-0.5 3009,-19.5 3168,-19.5 3168,-0.5 3009,-0.5"/>
<text text-anchor="middle" x="3088.5" y="-7.5" font-family="Helvetica,sans-Serif" font-size="10.00">src/source/TMC5130Stepper.cpp</text>
</a>
</g>
</g>
<!-- Node1&#45;&gt;Node21 -->
<g id="edge20" class="edge"><title>Node1&#45;&gt;Node21</title>
<path fill="none" stroke="midnightblue" d="M1764.77,-64.1374C1971.35,-61.529 2533.34,-51.8331 3000.5,-20 3003.26,-19.8121 3006.06,-19.6061 3008.9,-19.3855"/>
<polygon fill="midnightblue" stroke="midnightblue" points="1764.57,-60.6396 1754.61,-64.2636 1764.65,-67.639 1764.57,-60.6396"/>
</g>
<!-- Node22 -->
<g id="node22" class="node"><title>Node22</title>
<g id="a_node22"><a xlink:href="_t_m_c5160_stepper_8cpp.html" target="_top" xlink:title=" ">
<polygon fill="white" stroke="black" points="3186,-0.5 3186,-19.5 3345,-19.5 3345,-0.5 3186,-0.5"/>
<text text-anchor="middle" x="3265.5" y="-7.5" font-family="Helvetica,sans-Serif" font-size="10.00">src/source/TMC5160Stepper.cpp</text>
</a>
</g>
</g>
<!-- Node1&#45;&gt;Node22 -->
<g id="edge21" class="edge"><title>Node1&#45;&gt;Node22</title>
<path fill="none" stroke="midnightblue" d="M1764.8,-64.6008C1989.71,-63.0539 2639.11,-55.5932 3177.5,-20 3180.26,-19.8176 3183.06,-19.6164 3185.9,-19.3999"/>
<polygon fill="midnightblue" stroke="midnightblue" points="1764.71,-61.1013 1754.73,-64.6681 1764.76,-68.1011 1764.71,-61.1013"/>
</g>
<!-- Node23 -->
<g id="node23" class="node"><title>Node23</title>
<g id="a_node23"><a xlink:href="_t_m_c_stepper_8cpp.html" target="_top" xlink:title=" ">
<polygon fill="white" stroke="black" points="3363.5,-0.5 3363.5,-19.5 3501.5,-19.5 3501.5,-0.5 3363.5,-0.5"/>
<text text-anchor="middle" x="3432.5" y="-7.5" font-family="Helvetica,sans-Serif" font-size="10.00">src/source/TMCStepper.cpp</text>
</a>
</g>
</g>
<!-- Node1&#45;&gt;Node23 -->
<g id="edge22" class="edge"><title>Node1&#45;&gt;Node23</title>
<path fill="none" stroke="midnightblue" d="M1765,-65.3413C2007.39,-65.8111 2744.85,-63.2965 3354.5,-20 3357.36,-19.7972 3360.27,-19.5671 3363.21,-19.3156"/>
<polygon fill="midnightblue" stroke="midnightblue" points="1764.87,-61.8411 1754.86,-65.3193 1764.86,-68.841 1764.87,-61.8411"/>
</g>
</g>
</svg>
        <g id="navigator" transform="translate(0 0)" fill="#404254">
                <rect fill="#f2f5e9" fill-opacity="0.5" stroke="#606060" stroke-width=".5" x="0" y="0" width="60" height="60"/>
                <use id="zoomplus" xlink:href="#zoomPlus" x="17" y="9" onmousedown="handleZoom(evt,'in')"/>
                <use id="zoomminus" xlink:href="#zoomMin" x="42" y="9" onmousedown="handleZoom(evt,'out')"/>
                <use id="reset" xlink:href="#resetDef" x="30" y="36" onmousedown="handleReset()"/>
                <g id="arrowUp" xlink:href="#dirArrow" transform="translate(30 24)" onmousedown="handlePan(0,-1)">
                  <use xlink:href="#rim" fill="#404040">
                        <set attributeName="fill" to="#808080" begin="arrowUp.mouseover" end="arrowUp.mouseout"/>
                  </use>
                  <path fill="none" stroke="white" stroke-width="1.5" d="M0,-3.0v7 M-2.5,-0.5L0,-3.0L2.5,-0.5"/>
                </g>
                <g id="arrowRight" xlink:href="#dirArrow" transform="rotate(90) translate(36 -43)" onmousedown="handlePan(1,0)">
                  <use xlink:href="#rim" fill="#404040">
                        <set attributeName="fill" to="#808080" begin="arrowRight.mouseover" end="arrowRight.mouseout"/>
                  </use>
                  <path fill="none" stroke="white" stroke-width="1.5" d="M0,-3.0v7 M-2.5,-0.5L0,-3.0L2.5,-0.5"/>
                </g>
                <g id="arrowDown" xlink:href="#dirArrow" transform="rotate(180) translate(-30 -48)" onmousedown="handlePan(0,1)">
                  <use xlink:href="#rim" fill="#404040">
                        <set attributeName="fill" to="#808080" begin="arrowDown.mouseover" end="arrowDown.mouseout"/>
                  </use>
                  <path fill="none" stroke="white" stroke-width="1.5" d="M0,-3.0v7 M-2.5,-0.5L0,-3.0L2.5,-0.5"/>
                </g>
                <g id="arrowLeft" xlink:href="#dirArrow" transform="rotate(270) translate(-36 17)" onmousedown="handlePan(-1,0)">
                  <use xlink:href="#rim" fill="#404040">
                        <set attributeName="fill" to="#808080" begin="arrowLeft.mouseover" end="arrowLeft.mouseout"/>
                  </use>
                  <path fill="none" stroke="white" stroke-width="1.5" d="M0,-3.0v7 M-2.5,-0.5L0,-3.0L2.5,-0.5"/>
                </g>
        </g>
        <svg viewBox="0 0 15 15" width="100%" height="30px" preserveAspectRatio="xMaxYMin meet">
         <g id="arrow_out" transform="scale(0.3 0.3)">
          <a xlink:href="_t_m_c___m_a_c_r_o_s_8h__dep__incl_org.svg" target="_base">
           <rect id="button" ry="5" rx="5" y="6" x="6" height="38" width="38"
                fill="#f2f5e9" fill-opacity="0.5" stroke="#606060" stroke-width="1.0"/>
           <path id="arrow"
             d="M 11.500037,31.436501 C 11.940474,20.09759 22.043105,11.32322 32.158766,21.979434 L 37.068811,17.246167 C 37.068811,17.246167 37.088388,32 37.088388,32 L 22.160133,31.978069 C 22.160133,31.978069 26.997745,27.140456 26.997745,27.140456 C 18.528582,18.264221 13.291696,25.230495 11.500037,31.436501 z"
             style="fill:#404040;"/>
          </a>
         </g>
        </svg>
</svg>
