<?xml version="1.0" encoding="UTF-8" standalone="no"?>
<!DOCTYPE svg PUBLIC "-//W3C//DTD SVG 1.1//EN"
 "http://www.w3.org/Graphics/SVG/1.1/DTD/svg11.dtd">
<!-- Generated by graphviz version 2.38.0 (20140413.2041)
 -->
<!-- Title: TMC2660Stepper::phb Pages: 1 -->
<svg width="424pt" height="47pt"
 viewBox="0.00 0.00 424.00 47.00" xmlns="http://www.w3.org/2000/svg" xmlns:xlink="http://www.w3.org/1999/xlink">
<g id="graph0" class="graph" transform="scale(1 1) rotate(0) translate(4 43)">
<title>TMC2660Stepper::phb</title>
<polygon fill="white" stroke="none" points="-4,4 -4,-43 420,-43 420,4 -4,4"/>
<!-- Node1 -->
<g id="node1" class="node"><title>Node1</title>
<g id="a_node1"><a xlink:title=" ">
<polygon fill="#bfbfbf" stroke="black" points="0,-0.5 0,-19.5 113,-19.5 113,-0.5 0,-0.5"/>
<text text-anchor="middle" x="56.5" y="-7.5" font-family="Helvetica,sans-Serif" font-size="10.00">TMC2660Stepper::phb</text>
</a>
</g>
</g>
<!-- Node2 -->
<g id="node2" class="node"><title>Node2</title>
<g id="a_node2"><a xlink:href="class_t_m_c2660_stepper.html#ab3470fd014ef1f39c90c6f086d331921" target="_top" xlink:title=" ">
<polygon fill="white" stroke="black" points="149,-19.5 149,-38.5 262,-38.5 262,-19.5 149,-19.5"/>
<text text-anchor="middle" x="205.5" y="-26.5" font-family="Helvetica,sans-Serif" font-size="10.00">TMC2660Stepper::phb</text>
</a>
</g>
</g>
<!-- Node1&#45;&gt;Node2 -->
<g id="edge1" class="edge"><title>Node1&#45;&gt;Node2</title>
<path fill="none" stroke="midnightblue" d="M113.074,-17.1831C121.489,-18.2707 130.238,-19.4015 138.842,-20.5136"/>
<polygon fill="midnightblue" stroke="midnightblue" points="138.481,-23.9959 148.847,-21.8068 139.378,-17.0537 138.481,-23.9959"/>
</g>
<!-- Node3 -->
<g id="node3" class="node"><title>Node3</title>
<g id="a_node3"><a xlink:href="class_t_m_c2660_stepper.html#aa20df51be5967e40cc23132a1d461275" target="_top" xlink:title=" ">
<polygon fill="white" stroke="black" points="298,-0.5 298,-19.5 416,-19.5 416,-0.5 298,-0.5"/>
<text text-anchor="middle" x="357" y="-7.5" font-family="Helvetica,sans-Serif" font-size="10.00">TMC2660Stepper::sdoff</text>
</a>
</g>
</g>
<!-- Node1&#45;&gt;Node3 -->
<g id="edge3" class="edge"><title>Node1&#45;&gt;Node3</title>
<path fill="none" stroke="midnightblue" d="M113.295,-10C162.653,-10 234.827,-10 287.64,-10"/>
<polygon fill="midnightblue" stroke="midnightblue" points="287.932,-13.5001 297.932,-10 287.932,-6.5001 287.932,-13.5001"/>
</g>
<!-- Node2&#45;&gt;Node3 -->
<g id="edge2" class="edge"><title>Node2&#45;&gt;Node3</title>
<path fill="none" stroke="midnightblue" d="M262.168,-21.9251C270.522,-20.8634 279.216,-19.7585 287.795,-18.6682"/>
<polygon fill="midnightblue" stroke="midnightblue" points="288.306,-22.1315 297.785,-17.3986 287.423,-15.1874 288.306,-22.1315"/>
</g>
</g>
</svg>
