<?xml version="1.0" encoding="UTF-8" standalone="no"?>
<!DOCTYPE svg PUBLIC "-//W3C//DTD SVG 1.1//EN"
 "http://www.w3.org/Graphics/SVG/1.1/DTD/svg11.dtd">
<!-- Generated by graphviz version 2.38.0 (20140413.2041)
 -->
<!-- Title: TMC2208Stepper::read Pages: 1 -->
<svg width="524pt" height="1416pt"
 viewBox="0.00 0.00 524.00 1416.00" xmlns="http://www.w3.org/2000/svg" xmlns:xlink="http://www.w3.org/1999/xlink">
<g id="graph0" class="graph" transform="scale(1 1) rotate(0) translate(4 1412)">
<title>TMC2208Stepper::read</title>
<polygon fill="white" stroke="none" points="-4,4 -4,-1412 520,-1412 520,4 -4,4"/>
<!-- Node1 -->
<g id="node1" class="node"><title>Node1</title>
<g id="a_node1"><a xlink:title=" ">
<polygon fill="#bfbfbf" stroke="black" points="400,-323.5 400,-342.5 516,-342.5 516,-323.5 400,-323.5"/>
<text text-anchor="middle" x="458" y="-330.5" font-family="Helvetica,sans-Serif" font-size="10.00">TMC2208Stepper::read</text>
</a>
</g>
</g>
<!-- Node2 -->
<g id="node2" class="node"><title>Node2</title>
<g id="a_node2"><a xlink:href="class_t_m_c2208_stepper.html#aa11281f54c293f3ff2539b1a583682a9" target="_top" xlink:title=" ">
<polygon fill="white" stroke="black" points="200,-1160.5 200,-1179.5 352,-1179.5 352,-1160.5 200,-1160.5"/>
<text text-anchor="middle" x="276" y="-1167.5" font-family="Helvetica,sans-Serif" font-size="10.00">TMC2208Stepper::CHOPCONF</text>
</a>
</g>
</g>
<!-- Node1&#45;&gt;Node2 -->
<g id="edge1" class="edge"><title>Node1&#45;&gt;Node2</title>
<path fill="none" stroke="midnightblue" d="M456.604,-353.002C454.488,-435.001 441.447,-752.734 364,-999 343.415,-1064.46 299.625,-1135.29 283.304,-1160.47"/>
<polygon fill="midnightblue" stroke="midnightblue" points="460.111,-352.729 456.844,-342.65 453.113,-352.567 460.111,-352.729"/>
</g>
<!-- Node26 -->
<g id="node15" class="node"><title>Node26</title>
<g id="a_node15"><a xlink:href="class_t_m_c2208_stepper.html#a2b4643106d473dd0081ec60a3f9b8fdf" target="_top" xlink:title=" ">
<polygon fill="white" stroke="black" points="217,-495 217,-525 335,-525 335,-495 217,-495"/>
<text text-anchor="start" x="225" y="-513" font-family="Helvetica,sans-Serif" font-size="10.00">TMC2208Stepper::DRV</text>
<text text-anchor="middle" x="276" y="-502" font-family="Helvetica,sans-Serif" font-size="10.00">_STATUS</text>
</a>
</g>
</g>
<!-- Node1&#45;&gt;Node26 -->
<g id="edge14" class="edge"><title>Node1&#45;&gt;Node26</title>
<path fill="none" stroke="midnightblue" d="M450.552,-352.135C438.67,-384.465 410.218,-449.809 364,-485 355.498,-491.474 345.374,-496.272 335.09,-499.829"/>
<polygon fill="midnightblue" stroke="midnightblue" points="453.916,-353.123 453.949,-342.528 447.316,-350.79 453.916,-353.123"/>
</g>
<!-- Node27 -->
<g id="node16" class="node"><title>Node27</title>
<g id="a_node16"><a xlink:href="class_t_m_c2208_stepper.html#a64c51922eb2029e4bbcd4f8a51b6a6ae" target="_top" xlink:title=" ">
<polygon fill="white" stroke="black" points="188,-456.5 188,-475.5 364,-475.5 364,-456.5 188,-456.5"/>
<text text-anchor="middle" x="276" y="-463.5" font-family="Helvetica,sans-Serif" font-size="10.00">TMC2208Stepper::FACTORY_CONF</text>
</a>
</g>
</g>
<!-- Node1&#45;&gt;Node27 -->
<g id="edge15" class="edge"><title>Node1&#45;&gt;Node27</title>
<path fill="none" stroke="midnightblue" d="M435.845,-348.631C398.351,-376.335 321.28,-433.282 290.314,-456.163"/>
<polygon fill="midnightblue" stroke="midnightblue" points="438.092,-351.323 444.055,-342.565 433.932,-345.693 438.092,-351.323"/>
</g>
<!-- Node30 -->
<g id="node19" class="node"><title>Node30</title>
<g id="a_node19"><a xlink:href="class_t_m_c2208_stepper.html#a549db4f962d4ae698dda33ef9a708e33" target="_top" xlink:title=" ">
<polygon fill="white" stroke="black" points="210,-773.5 210,-792.5 342,-792.5 342,-773.5 210,-773.5"/>
<text text-anchor="middle" x="276" y="-780.5" font-family="Helvetica,sans-Serif" font-size="10.00">TMC2208Stepper::GCONF</text>
</a>
</g>
</g>
<!-- Node1&#45;&gt;Node30 -->
<g id="edge18" class="edge"><title>Node1&#45;&gt;Node30</title>
<path fill="none" stroke="midnightblue" d="M449.272,-352.319C418.266,-429.834 303.47,-716.825 280.875,-773.312"/>
<polygon fill="midnightblue" stroke="midnightblue" points="452.609,-353.402 453.073,-342.817 446.109,-350.802 452.609,-353.402"/>
</g>
<!-- Node47 -->
<g id="node29" class="node"><title>Node47</title>
<g id="a_node29"><a xlink:href="class_t_m_c2208_stepper.html#a54eeb50855c3d7dd9e7078a5dc0ebdfc" target="_top" xlink:title=" ">
<polygon fill="white" stroke="black" points="213.5,-361.5 213.5,-380.5 338.5,-380.5 338.5,-361.5 213.5,-361.5"/>
<text text-anchor="middle" x="276" y="-368.5" font-family="Helvetica,sans-Serif" font-size="10.00">TMC2208Stepper::IFCNT</text>
</a>
</g>
</g>
<!-- Node1&#45;&gt;Node47 -->
<g id="edge30" class="edge"><title>Node1&#45;&gt;Node47</title>
<path fill="none" stroke="midnightblue" d="M401.669,-344.681C376.143,-350.07 346.224,-356.386 322.095,-361.48"/>
<polygon fill="midnightblue" stroke="midnightblue" points="402.517,-348.079 411.578,-342.589 401.071,-341.23 402.517,-348.079"/>
</g>
<!-- Node48 -->
<g id="node30" class="node"><title>Node48</title>
<g id="a_node30"><a xlink:href="class_t_m_c2208_stepper.html#a5441dd87d0bcea4ffc309cb012166a57" target="_top" xlink:title=" ">
<polygon fill="white" stroke="black" points="218,-323.5 218,-342.5 334,-342.5 334,-323.5 218,-323.5"/>
<text text-anchor="middle" x="276" y="-330.5" font-family="Helvetica,sans-Serif" font-size="10.00">TMC2208Stepper::IOIN</text>
</a>
</g>
</g>
<!-- Node1&#45;&gt;Node48 -->
<g id="edge31" class="edge"><title>Node1&#45;&gt;Node48</title>
<path fill="none" stroke="midnightblue" d="M389.331,-333C371.18,-333 351.735,-333 334.211,-333"/>
<polygon fill="midnightblue" stroke="midnightblue" points="389.552,-336.5 399.552,-333 389.552,-329.5 389.552,-336.5"/>
</g>
<!-- Node59 -->
<g id="node40" class="node"><title>Node59</title>
<g id="a_node40"><a xlink:href="class_t_m_c2209_stepper.html#aeab582b2f23d4e58f63aec80163b3838" target="_top" xlink:title=" ">
<polygon fill="white" stroke="red" points="218,-285.5 218,-304.5 334,-304.5 334,-285.5 218,-285.5"/>
<text text-anchor="middle" x="276" y="-292.5" font-family="Helvetica,sans-Serif" font-size="10.00">TMC2209Stepper::IOIN</text>
</a>
</g>
</g>
<!-- Node1&#45;&gt;Node59 -->
<g id="edge41" class="edge"><title>Node1&#45;&gt;Node59</title>
<path fill="none" stroke="midnightblue" d="M401.669,-321.319C376.143,-315.93 346.224,-309.614 322.095,-304.52"/>
<polygon fill="midnightblue" stroke="midnightblue" points="401.071,-324.77 411.578,-323.411 402.517,-317.921 401.071,-324.77"/>
</g>
<!-- Node69 -->
<g id="node45" class="node"><title>Node69</title>
<g id="a_node45"><a xlink:href="class_t_m_c2224_stepper.html#aa5fa836e15992bc49e0297ef2126f725" target="_top" xlink:title=" ">
<polygon fill="white" stroke="red" points="218,-247.5 218,-266.5 334,-266.5 334,-247.5 218,-247.5"/>
<text text-anchor="middle" x="276" y="-254.5" font-family="Helvetica,sans-Serif" font-size="10.00">TMC2224Stepper::IOIN</text>
</a>
</g>
</g>
<!-- Node1&#45;&gt;Node69 -->
<g id="edge46" class="edge"><title>Node1&#45;&gt;Node69</title>
<path fill="none" stroke="midnightblue" d="M436.377,-317.549C418.21,-304.644 390.573,-286.689 364,-276 354.533,-272.192 344.165,-269.085 333.99,-266.57"/>
<polygon fill="midnightblue" stroke="midnightblue" points="434.337,-320.392 444.489,-323.424 438.443,-314.723 434.337,-320.392"/>
</g>
<!-- Node79 -->
<g id="node46" class="node"><title>Node79</title>
<g id="a_node46"><a xlink:href="class_t_m_c2208_stepper.html#a0727482b76d6cd679021f4d1677e5b3a" target="_top" xlink:title=" ">
<polygon fill="white" stroke="black" points="201.5,-209.5 201.5,-228.5 350.5,-228.5 350.5,-209.5 201.5,-209.5"/>
<text text-anchor="middle" x="276" y="-216.5" font-family="Helvetica,sans-Serif" font-size="10.00">TMC2208Stepper::OTP_READ</text>
</a>
</g>
</g>
<!-- Node1&#45;&gt;Node79 -->
<g id="edge47" class="edge"><title>Node1&#45;&gt;Node79</title>
<path fill="none" stroke="midnightblue" d="M444.611,-315.047C428.6,-293.29 398.632,-257.169 364,-238 356.966,-234.107 349.2,-231.011 341.29,-228.55"/>
<polygon fill="midnightblue" stroke="midnightblue" points="441.924,-317.307 450.591,-323.401 447.616,-313.232 441.924,-317.307"/>
</g>
<!-- Node80 -->
<g id="node47" class="node"><title>Node80</title>
<g id="a_node47"><a xlink:href="class_t_m_c2208_stepper.html#a3cad83843fc7cc00cbbff7d620690501" target="_top" xlink:title=" ">
<polygon fill="white" stroke="red" points="199,-171.5 199,-190.5 353,-190.5 353,-171.5 199,-171.5"/>
<text text-anchor="middle" x="276" y="-178.5" font-family="Helvetica,sans-Serif" font-size="10.00">TMC2208Stepper::PWM_AUTO</text>
</a>
</g>
</g>
<!-- Node1&#45;&gt;Node80 -->
<g id="edge48" class="edge"><title>Node1&#45;&gt;Node80</title>
<path fill="none" stroke="midnightblue" d="M449.193,-313.924C436.143,-284.555 407.017,-228.665 364,-200 358.211,-196.142 351.768,-193.053 345.081,-190.583"/>
<polygon fill="midnightblue" stroke="midnightblue" points="446.116,-315.63 453.27,-323.445 452.551,-312.874 446.116,-315.63"/>
</g>
<!-- Node83 -->
<g id="node48" class="node"><title>Node83</title>
<g id="a_node48"><a xlink:href="class_t_m_c2208_stepper.html#adc81db53cf0291216352b13e5425e67b" target="_top" xlink:title=" ">
<polygon fill="white" stroke="red" points="215,-122 215,-152 337,-152 337,-122 215,-122"/>
<text text-anchor="start" x="223" y="-140" font-family="Helvetica,sans-Serif" font-size="10.00">TMC2208Stepper::PWM</text>
<text text-anchor="middle" x="276" y="-129" font-family="Helvetica,sans-Serif" font-size="10.00">_SCALE</text>
</a>
</g>
</g>
<!-- Node1&#45;&gt;Node83 -->
<g id="edge49" class="edge"><title>Node1&#45;&gt;Node83</title>
<path fill="none" stroke="midnightblue" d="M451.83,-313.461C441.395,-277.875 414.399,-202.444 364,-162 356.156,-155.705 346.796,-150.995 337.169,-147.471"/>
<polygon fill="midnightblue" stroke="midnightblue" points="448.475,-314.459 454.545,-323.143 455.215,-312.57 448.475,-314.459"/>
</g>
<!-- Node86 -->
<g id="node49" class="node"><title>Node86</title>
<g id="a_node49"><a xlink:href="class_t_m_c2208_stepper.html#a7c2e849de2f2933ba9bf8ede8dc53f53" target="_top" xlink:title=" ">
<polygon fill="white" stroke="red" points="201.5,-970.5 201.5,-989.5 350.5,-989.5 350.5,-970.5 201.5,-970.5"/>
<text text-anchor="middle" x="276" y="-977.5" font-family="Helvetica,sans-Serif" font-size="10.00">TMC2208Stepper::PWMCONF</text>
</a>
</g>
</g>
<!-- Node1&#45;&gt;Node86 -->
<g id="edge50" class="edge"><title>Node1&#45;&gt;Node86</title>
<path fill="none" stroke="midnightblue" d="M454.909,-353.005C447.646,-418.748 420.791,-633.558 364,-802 341.252,-869.469 298.409,-944.209 282.842,-970.348"/>
<polygon fill="midnightblue" stroke="midnightblue" points="458.415,-353.136 456.008,-342.818 451.456,-352.385 458.415,-353.136"/>
</g>
<!-- Node95 -->
<g id="node50" class="node"><title>Node95</title>
<g id="a_node50"><a xlink:href="class_t_m_c2209_stepper.html#ac1d2ec19eb65fd2f14d8d02cc1e7b02e" target="_top" xlink:title=" ">
<polygon fill="white" stroke="black" points="220,-73 220,-103 332,-103 332,-73 220,-73"/>
<text text-anchor="start" x="228" y="-91" font-family="Helvetica,sans-Serif" font-size="10.00">TMC2209Stepper::SG</text>
<text text-anchor="middle" x="276" y="-80" font-family="Helvetica,sans-Serif" font-size="10.00">_RESULT</text>
</a>
</g>
</g>
<!-- Node1&#45;&gt;Node95 -->
<g id="edge53" class="edge"><title>Node1&#45;&gt;Node95</title>
<path fill="none" stroke="midnightblue" d="M454.497,-313.271C447.953,-270.095 426.295,-166.728 364,-112 355.054,-104.141 343.752,-98.8327 332.281,-95.2537"/>
<polygon fill="midnightblue" stroke="midnightblue" points="451.052,-313.91 455.907,-323.326 457.984,-312.937 451.052,-313.91"/>
</g>
<!-- Node3 -->
<g id="node3" class="node"><title>Node3</title>
<g id="a_node3"><a xlink:href="class_t_m_c2208_stepper.html#a5b614f72c27fa1b7ff1c08fe07b17582" target="_top" xlink:title=" ">
<polygon fill="white" stroke="red" points="14,-1084.5 14,-1103.5 138,-1103.5 138,-1084.5 14,-1084.5"/>
<text text-anchor="middle" x="76" y="-1091.5" font-family="Helvetica,sans-Serif" font-size="10.00">TMC2208Stepper::dedge</text>
</a>
</g>
</g>
<!-- Node2&#45;&gt;Node3 -->
<g id="edge2" class="edge"><title>Node2&#45;&gt;Node3</title>
<path fill="none" stroke="midnightblue" d="M248.062,-1155.74C223.54,-1143.2 186.071,-1125.09 152,-1113 142,-1109.45 131.029,-1106.28 120.64,-1103.6"/>
<polygon fill="midnightblue" stroke="midnightblue" points="246.614,-1158.93 257.104,-1160.42 249.829,-1152.72 246.614,-1158.93"/>
</g>
<!-- Node5 -->
<g id="node4" class="node"><title>Node5</title>
<g id="a_node4"><a xlink:href="class_t_m_c2208_stepper.html#a810f59828ccf8b0f55c7274b21ea0255" target="_top" xlink:title=" ">
<polygon fill="white" stroke="red" points="13,-1046.5 13,-1065.5 139,-1065.5 139,-1046.5 13,-1046.5"/>
<text text-anchor="middle" x="76" y="-1053.5" font-family="Helvetica,sans-Serif" font-size="10.00">TMC2208Stepper::diss2g</text>
</a>
</g>
</g>
<!-- Node2&#45;&gt;Node5 -->
<g id="edge3" class="edge"><title>Node2&#45;&gt;Node5</title>
<path fill="none" stroke="midnightblue" d="M258.092,-1153.21C235.71,-1131.91 194.136,-1095.5 152,-1075 144.149,-1071.18 135.45,-1068.07 126.839,-1065.57"/>
<polygon fill="midnightblue" stroke="midnightblue" points="255.815,-1155.87 265.436,-1160.31 260.682,-1150.84 255.815,-1155.87"/>
</g>
<!-- Node7 -->
<g id="node5" class="node"><title>Node7</title>
<g id="a_node5"><a xlink:href="class_t_m_c2208_stepper.html#afc70b23b3486ae3ea3a3dfa804441148" target="_top" xlink:title=" ">
<polygon fill="white" stroke="red" points="11,-1388.5 11,-1407.5 141,-1407.5 141,-1388.5 11,-1388.5"/>
<text text-anchor="middle" x="76" y="-1395.5" font-family="Helvetica,sans-Serif" font-size="10.00">TMC2208Stepper::diss2vs</text>
</a>
</g>
</g>
<!-- Node2&#45;&gt;Node7 -->
<g id="edge4" class="edge"><title>Node2&#45;&gt;Node7</title>
<path fill="none" stroke="midnightblue" d="M269.247,-1189.44C255.904,-1231.03 218.785,-1328.91 152,-1379 146.842,-1382.87 140.982,-1385.95 134.863,-1388.41"/>
<polygon fill="midnightblue" stroke="midnightblue" points="272.644,-1190.3 272.258,-1179.72 265.957,-1188.23 272.644,-1190.3"/>
</g>
<!-- Node9 -->
<g id="node6" class="node"><title>Node9</title>
<g id="a_node6"><a xlink:href="class_t_m_c2208_stepper.html#a2f36996a01d99a96f40d179931eb606a" target="_top" xlink:title=" ">
<polygon fill="white" stroke="red" points="16.5,-1350.5 16.5,-1369.5 135.5,-1369.5 135.5,-1350.5 16.5,-1350.5"/>
<text text-anchor="middle" x="76" y="-1357.5" font-family="Helvetica,sans-Serif" font-size="10.00">TMC2208Stepper::hend</text>
</a>
</g>
</g>
<!-- Node2&#45;&gt;Node9 -->
<g id="edge5" class="edge"><title>Node2&#45;&gt;Node9</title>
<path fill="none" stroke="midnightblue" d="M266.907,-1188.78C250.607,-1224.3 210.33,-1301.29 152,-1341 146.337,-1344.85 139.954,-1347.93 133.362,-1350.38"/>
<polygon fill="midnightblue" stroke="midnightblue" points="270.147,-1190.11 271.028,-1179.55 263.755,-1187.26 270.147,-1190.11"/>
</g>
<!-- Node11 -->
<g id="node7" class="node"><title>Node11</title>
<g id="a_node7"><a xlink:href="class_t_m_c2208_stepper.html#ae86e87a3b5882ac40c6f21348c6793ed" target="_top" xlink:title=" ">
<polygon fill="white" stroke="red" points="17.5,-1312.5 17.5,-1331.5 134.5,-1331.5 134.5,-1312.5 17.5,-1312.5"/>
<text text-anchor="middle" x="76" y="-1319.5" font-family="Helvetica,sans-Serif" font-size="10.00">TMC2208Stepper::hstrt</text>
</a>
</g>
</g>
<!-- Node2&#45;&gt;Node11 -->
<g id="edge6" class="edge"><title>Node2&#45;&gt;Node11</title>
<path fill="none" stroke="midnightblue" d="M263.4,-1188.17C243.969,-1217.06 202.011,-1273.27 152,-1303 145.418,-1306.91 138.05,-1310.02 130.57,-1312.5"/>
<polygon fill="midnightblue" stroke="midnightblue" points="266.325,-1190.09 268.899,-1179.81 260.478,-1186.24 266.325,-1190.09"/>
</g>
<!-- Node13 -->
<g id="node8" class="node"><title>Node13</title>
<g id="a_node8"><a xlink:href="class_t_m_c2208_stepper.html#a787cbae9adfab6f79a873310c472e7cd" target="_top" xlink:title=" ">
<polygon fill="white" stroke="red" points="15.5,-1274.5 15.5,-1293.5 136.5,-1293.5 136.5,-1274.5 15.5,-1274.5"/>
<text text-anchor="middle" x="76" y="-1281.5" font-family="Helvetica,sans-Serif" font-size="10.00">TMC2208Stepper::intpol</text>
</a>
</g>
</g>
<!-- Node2&#45;&gt;Node13 -->
<g id="edge7" class="edge"><title>Node2&#45;&gt;Node13</title>
<path fill="none" stroke="midnightblue" d="M258.092,-1186.79C235.71,-1208.09 194.136,-1244.5 152,-1265 144.149,-1268.82 135.45,-1271.93 126.839,-1274.43"/>
<polygon fill="midnightblue" stroke="midnightblue" points="260.682,-1189.16 265.436,-1179.69 255.815,-1184.13 260.682,-1189.16"/>
</g>
<!-- Node15 -->
<g id="node9" class="node"><title>Node15</title>
<g id="a_node9"><a xlink:href="class_t_m_c2208_stepper.html#a445b61c23afadb9bd48c3f4d9ef9125e" target="_top" xlink:title=" ">
<polygon fill="white" stroke="red" points="16.5,-1236.5 16.5,-1255.5 135.5,-1255.5 135.5,-1236.5 16.5,-1236.5"/>
<text text-anchor="middle" x="76" y="-1243.5" font-family="Helvetica,sans-Serif" font-size="10.00">TMC2208Stepper::mres</text>
</a>
</g>
</g>
<!-- Node2&#45;&gt;Node15 -->
<g id="edge8" class="edge"><title>Node2&#45;&gt;Node15</title>
<path fill="none" stroke="midnightblue" d="M248.062,-1184.26C223.54,-1196.8 186.071,-1214.91 152,-1227 142,-1230.55 131.029,-1233.72 120.64,-1236.4"/>
<polygon fill="midnightblue" stroke="midnightblue" points="249.829,-1187.28 257.104,-1179.58 246.614,-1181.07 249.829,-1187.28"/>
</g>
<!-- Node17 -->
<g id="node10" class="node"><title>Node17</title>
<g id="a_node10"><a xlink:href="class_t_m_c2208_stepper.html#a8eb0d71fbfeeb24c9092328c44fab7e5" target="_top" xlink:title=" ">
<polygon fill="white" stroke="black" points="16.5,-1008.5 16.5,-1027.5 135.5,-1027.5 135.5,-1008.5 16.5,-1008.5"/>
<text text-anchor="middle" x="76" y="-1015.5" font-family="Helvetica,sans-Serif" font-size="10.00">TMC2208Stepper::push</text>
</a>
</g>
</g>
<!-- Node2&#45;&gt;Node17 -->
<g id="edge9" class="edge"><title>Node2&#45;&gt;Node17</title>
<path fill="none" stroke="midnightblue" d="M263.4,-1151.83C243.969,-1122.94 202.011,-1066.73 152,-1037 145.418,-1033.09 138.05,-1029.98 130.57,-1027.5"/>
<polygon fill="midnightblue" stroke="midnightblue" points="260.478,-1153.76 268.899,-1160.19 266.325,-1149.91 260.478,-1153.76"/>
</g>
<!-- Node18 -->
<g id="node11" class="node"><title>Node18</title>
<g id="a_node11"><a xlink:href="class_t_m_c2209_stepper.html#a180f4b9a78e526592d946ec12f71982e" target="_top" xlink:title=" ">
<polygon fill="white" stroke="black" points="16.5,-970.5 16.5,-989.5 135.5,-989.5 135.5,-970.5 16.5,-970.5"/>
<text text-anchor="middle" x="76" y="-977.5" font-family="Helvetica,sans-Serif" font-size="10.00">TMC2209Stepper::push</text>
</a>
</g>
</g>
<!-- Node2&#45;&gt;Node18 -->
<g id="edge10" class="edge"><title>Node2&#45;&gt;Node18</title>
<path fill="none" stroke="midnightblue" d="M266.907,-1151.22C250.607,-1115.7 210.33,-1038.71 152,-999 146.337,-995.145 139.954,-992.072 133.362,-989.622"/>
<polygon fill="midnightblue" stroke="midnightblue" points="263.755,-1152.74 271.028,-1160.45 270.147,-1149.89 263.755,-1152.74"/>
</g>
<!-- Node19 -->
<g id="node12" class="node"><title>Node19</title>
<g id="a_node12"><a xlink:href="class_t_m_c2208_stepper.html#a84a5b9684c546c5f4549f375048512be" target="_top" xlink:title=" ">
<polygon fill="white" stroke="red" points="22,-1198.5 22,-1217.5 130,-1217.5 130,-1198.5 22,-1198.5"/>
<text text-anchor="middle" x="76" y="-1205.5" font-family="Helvetica,sans-Serif" font-size="10.00">TMC2208Stepper::tbl</text>
</a>
</g>
</g>
<!-- Node2&#45;&gt;Node19 -->
<g id="edge11" class="edge"><title>Node2&#45;&gt;Node19</title>
<path fill="none" stroke="midnightblue" d="M215.134,-1181.49C186.883,-1186.91 153.564,-1193.31 126.729,-1198.46"/>
<polygon fill="midnightblue" stroke="midnightblue" points="216.131,-1184.86 225.292,-1179.54 214.811,-1177.99 216.131,-1184.86"/>
</g>
<!-- Node21 -->
<g id="node13" class="node"><title>Node21</title>
<g id="a_node13"><a xlink:href="class_t_m_c2208_stepper.html#aad3790e8c9040b5b4770ee65ed06b1ed" target="_top" xlink:title=" ">
<polygon fill="white" stroke="red" points="21,-1160.5 21,-1179.5 131,-1179.5 131,-1160.5 21,-1160.5"/>
<text text-anchor="middle" x="76" y="-1167.5" font-family="Helvetica,sans-Serif" font-size="10.00">TMC2208Stepper::toff</text>
</a>
</g>
</g>
<!-- Node2&#45;&gt;Node21 -->
<g id="edge12" class="edge"><title>Node2&#45;&gt;Node21</title>
<path fill="none" stroke="midnightblue" d="M189.851,-1170C169.939,-1170 149.265,-1170 131.136,-1170"/>
<polygon fill="midnightblue" stroke="midnightblue" points="189.862,-1173.5 199.862,-1170 189.862,-1166.5 189.862,-1173.5"/>
</g>
<!-- Node24 -->
<g id="node14" class="node"><title>Node24</title>
<g id="a_node14"><a xlink:href="class_t_m_c2208_stepper.html#aca88bb5ae86daeca56094bf2f8bdea5d" target="_top" xlink:title=" ">
<polygon fill="white" stroke="red" points="12,-1122.5 12,-1141.5 140,-1141.5 140,-1122.5 12,-1122.5"/>
<text text-anchor="middle" x="76" y="-1129.5" font-family="Helvetica,sans-Serif" font-size="10.00">TMC2208Stepper::vsense</text>
</a>
</g>
</g>
<!-- Node2&#45;&gt;Node24 -->
<g id="edge13" class="edge"><title>Node2&#45;&gt;Node24</title>
<path fill="none" stroke="midnightblue" d="M215.134,-1158.51C186.883,-1153.09 153.564,-1146.69 126.729,-1141.54"/>
<polygon fill="midnightblue" stroke="midnightblue" points="214.811,-1162.01 225.292,-1160.46 216.131,-1155.14 214.811,-1162.01"/>
</g>
<!-- Node28 -->
<g id="node17" class="node"><title>Node28</title>
<g id="a_node17"><a xlink:href="class_t_m_c2208_stepper.html#a2576f25049dff1a3102da1ea5b4eb7fc" target="_top" xlink:title=" ">
<polygon fill="white" stroke="black" points="11.5,-532.5 11.5,-551.5 140.5,-551.5 140.5,-532.5 11.5,-532.5"/>
<text text-anchor="middle" x="76" y="-539.5" font-family="Helvetica,sans-Serif" font-size="10.00">TMC2208Stepper::fclktrim</text>
</a>
</g>
</g>
<!-- Node27&#45;&gt;Node28 -->
<g id="edge16" class="edge"><title>Node27&#45;&gt;Node28</title>
<path fill="none" stroke="midnightblue" d="M200.521,-479.041C196.18,-480.784 191.97,-482.76 188,-485 167.738,-496.433 172.07,-511.234 152,-523 145.395,-526.872 138.013,-529.962 130.528,-532.426"/>
<polygon fill="midnightblue" stroke="midnightblue" points="201.954,-482.245 210.193,-475.584 199.599,-475.653 201.954,-482.245"/>
</g>
<!-- Node29 -->
<g id="node18" class="node"><title>Node29</title>
<g id="a_node18"><a xlink:href="class_t_m_c2208_stepper.html#a1d354657666fa70cd13004cb70bc9fcf" target="_top" xlink:title=" ">
<polygon fill="white" stroke="black" points="15,-494.5 15,-513.5 137,-513.5 137,-494.5 15,-494.5"/>
<text text-anchor="middle" x="76" y="-501.5" font-family="Helvetica,sans-Serif" font-size="10.00">TMC2208Stepper::ottrim</text>
</a>
</g>
</g>
<!-- Node27&#45;&gt;Node29 -->
<g id="edge17" class="edge"><title>Node27&#45;&gt;Node29</title>
<path fill="none" stroke="midnightblue" d="M215.134,-477.489C186.883,-482.911 153.564,-489.306 126.729,-494.456"/>
<polygon fill="midnightblue" stroke="midnightblue" points="216.131,-480.862 225.292,-475.54 214.811,-473.988 216.131,-480.862"/>
</g>
<!-- Node30&#45;&gt;Node17 -->
<g id="edge27" class="edge"><title>Node30&#45;&gt;Node17</title>
<path fill="none" stroke="midnightblue" d="M266.625,-801.815C245.138,-849.305 187.269,-972.153 152,-999 146.87,-1002.91 141.027,-1006.01 134.918,-1008.49"/>
<polygon fill="midnightblue" stroke="midnightblue" points="269.839,-803.203 270.744,-792.647 263.454,-800.334 269.839,-803.203"/>
</g>
<!-- Node30&#45;&gt;Node18 -->
<g id="edge28" class="edge"><title>Node30&#45;&gt;Node18</title>
<path fill="none" stroke="midnightblue" d="M267.349,-802.027C251.57,-838.755 211.807,-919.455 152,-961 146.374,-964.908 140.013,-968.013 133.433,-970.48"/>
<polygon fill="midnightblue" stroke="midnightblue" points="270.697,-803.092 271.317,-792.515 264.236,-800.397 270.697,-803.092"/>
</g>
<!-- Node31 -->
<g id="node20" class="node"><title>Node31</title>
<g id="a_node20"><a xlink:href="class_t_m_c2208_stepper.html#a3e5b6f25ec1fa94a6d8f0bd004a535ce" target="_top" xlink:title=" ">
<polygon fill="white" stroke="black" points="22,-921 22,-951 130,-951 130,-921 22,-921"/>
<text text-anchor="start" x="30" y="-939" font-family="Helvetica,sans-Serif" font-size="10.00">TMC2208Stepper::en</text>
<text text-anchor="middle" x="76" y="-928" font-family="Helvetica,sans-Serif" font-size="10.00">_spreadCycle</text>
</a>
</g>
</g>
<!-- Node30&#45;&gt;Node31 -->
<g id="edge19" class="edge"><title>Node30&#45;&gt;Node31</title>
<path fill="none" stroke="midnightblue" d="M262.423,-800.813C242.175,-828.249 199.752,-880.827 152,-911 145.27,-915.252 137.74,-918.861 130.118,-921.9"/>
<polygon fill="midnightblue" stroke="midnightblue" points="265.383,-802.693 268.416,-792.541 259.715,-798.586 265.383,-802.693"/>
</g>
<!-- Node32 -->
<g id="node21" class="node"><title>Node32</title>
<g id="a_node21"><a xlink:href="class_t_m_c2208_stepper.html#a3b1c4e92ce6d46b6073974d8758275ff" target="_top" xlink:title=" ">
<polygon fill="white" stroke="black" points="12,-872 12,-902 140,-902 140,-872 12,-872"/>
<text text-anchor="start" x="20" y="-890" font-family="Helvetica,sans-Serif" font-size="10.00">TMC2208Stepper::I_scale</text>
<text text-anchor="middle" x="76" y="-879" font-family="Helvetica,sans-Serif" font-size="10.00">_analog</text>
</a>
</g>
</g>
<!-- Node30&#45;&gt;Node32 -->
<g id="edge20" class="edge"><title>Node30&#45;&gt;Node32</title>
<path fill="none" stroke="midnightblue" d="M254.094,-798.741C230.349,-816.057 189.96,-843.834 152,-862 144.448,-865.614 136.236,-868.925 128.109,-871.873"/>
<polygon fill="midnightblue" stroke="midnightblue" points="256.37,-801.412 262.34,-792.659 252.215,-795.778 256.37,-801.412"/>
</g>
<!-- Node33 -->
<g id="node22" class="node"><title>Node33</title>
<g id="a_node22"><a xlink:href="class_t_m_c2208_stepper.html#a8a8172fcb19ea2439d4898f4102fa039" target="_top" xlink:title=" ">
<polygon fill="white" stroke="red" points="3,-833.5 3,-852.5 149,-852.5 149,-833.5 3,-833.5"/>
<text text-anchor="middle" x="76" y="-840.5" font-family="Helvetica,sans-Serif" font-size="10.00">TMC2208Stepper::index_otpw</text>
</a>
</g>
</g>
<!-- Node30&#45;&gt;Node33 -->
<g id="edge21" class="edge"><title>Node30&#45;&gt;Node33</title>
<path fill="none" stroke="midnightblue" d="M238.748,-795.865C214.367,-804.324 181.428,-815.38 152,-824 140.656,-827.323 128.249,-830.606 116.85,-833.485"/>
<polygon fill="midnightblue" stroke="midnightblue" points="240.017,-799.13 248.306,-792.53 237.711,-792.52 240.017,-799.13"/>
</g>
<!-- Node35 -->
<g id="node23" class="node"><title>Node35</title>
<g id="a_node23"><a xlink:href="class_t_m_c2208_stepper.html#aa0f677d760ac3c9a297a6f6d2778ec81" target="_top" xlink:title=" ">
<polygon fill="white" stroke="red" points="3.5,-795.5 3.5,-814.5 148.5,-814.5 148.5,-795.5 3.5,-795.5"/>
<text text-anchor="middle" x="76" y="-802.5" font-family="Helvetica,sans-Serif" font-size="10.00">TMC2208Stepper::index_step</text>
</a>
</g>
</g>
<!-- Node30&#45;&gt;Node35 -->
<g id="edge22" class="edge"><title>Node30&#45;&gt;Node35</title>
<path fill="none" stroke="midnightblue" d="M199.62,-791.376C182.893,-793.234 165.211,-795.199 148.639,-797.04"/>
<polygon fill="midnightblue" stroke="midnightblue" points="200.341,-794.817 209.893,-790.234 199.568,-787.86 200.341,-794.817"/>
</g>
<!-- Node37 -->
<g id="node24" class="node"><title>Node37</title>
<g id="a_node24"><a xlink:href="class_t_m_c2208_stepper.html#a8159b7bd97a76b6020bf285c052809b6" target="_top" xlink:title=" ">
<polygon fill="white" stroke="black" points="11.5,-746 11.5,-776 140.5,-776 140.5,-746 11.5,-746"/>
<text text-anchor="start" x="19.5" y="-764" font-family="Helvetica,sans-Serif" font-size="10.00">TMC2208Stepper::internal</text>
<text text-anchor="middle" x="76" y="-753" font-family="Helvetica,sans-Serif" font-size="10.00">_Rsense</text>
</a>
</g>
</g>
<!-- Node30&#45;&gt;Node37 -->
<g id="edge23" class="edge"><title>Node30&#45;&gt;Node37</title>
<path fill="none" stroke="midnightblue" d="M199.851,-774.65C180.388,-772.488 159.616,-770.18 140.796,-768.088"/>
<polygon fill="midnightblue" stroke="midnightblue" points="199.568,-778.14 209.893,-775.766 200.341,-771.183 199.568,-778.14"/>
</g>
<!-- Node38 -->
<g id="node25" class="node"><title>Node38</title>
<g id="a_node25"><a xlink:href="class_t_m_c2208_stepper.html#a02994cba6b9ac73b61799cf7af0fd588" target="_top" xlink:title=" ">
<polygon fill="white" stroke="red" points="13.5,-697 13.5,-727 138.5,-727 138.5,-697 13.5,-697"/>
<text text-anchor="start" x="21.5" y="-715" font-family="Helvetica,sans-Serif" font-size="10.00">TMC2208Stepper::mstep</text>
<text text-anchor="middle" x="76" y="-704" font-family="Helvetica,sans-Serif" font-size="10.00">_reg_select</text>
</a>
</g>
</g>
<!-- Node30&#45;&gt;Node38 -->
<g id="edge24" class="edge"><title>Node30&#45;&gt;Node38</title>
<path fill="none" stroke="midnightblue" d="M241.514,-769.63C216.885,-759.937 182.525,-746.707 152,-736 143.486,-733.014 134.376,-729.972 125.545,-727.102"/>
<polygon fill="midnightblue" stroke="midnightblue" points="240.518,-773 251.104,-773.419 243.09,-766.489 240.518,-773"/>
</g>
<!-- Node41 -->
<g id="node26" class="node"><title>Node41</title>
<g id="a_node26"><a xlink:href="class_t_m_c2208_stepper.html#ac7e75314309e988c55e28da4798fa637" target="_top" xlink:title=" ">
<polygon fill="white" stroke="red" points="0,-658.5 0,-677.5 152,-677.5 152,-658.5 0,-658.5"/>
<text text-anchor="middle" x="76" y="-665.5" font-family="Helvetica,sans-Serif" font-size="10.00">TMC2208Stepper::multistep_filt</text>
</a>
</g>
</g>
<!-- Node30&#45;&gt;Node41 -->
<g id="edge25" class="edge"><title>Node30&#45;&gt;Node41</title>
<path fill="none" stroke="midnightblue" d="M258.47,-766.35C236.209,-744.869 194.466,-707.798 152,-687 144.159,-683.16 135.465,-680.045 126.856,-677.534"/>
<polygon fill="midnightblue" stroke="midnightblue" points="256.166,-768.994 265.755,-773.5 261.07,-763.998 256.166,-768.994"/>
</g>
<!-- Node43 -->
<g id="node27" class="node"><title>Node43</title>
<g id="a_node27"><a xlink:href="class_t_m_c2208_stepper.html#a9de4a150926f2875903be27063f00973" target="_top" xlink:title=" ">
<polygon fill="white" stroke="red" points="19.5,-609 19.5,-639 132.5,-639 132.5,-609 19.5,-609"/>
<text text-anchor="start" x="27.5" y="-627" font-family="Helvetica,sans-Serif" font-size="10.00">TMC2208Stepper::pdn</text>
<text text-anchor="middle" x="76" y="-616" font-family="Helvetica,sans-Serif" font-size="10.00">_disable</text>
</a>
</g>
</g>
<!-- Node30&#45;&gt;Node43 -->
<g id="edge26" class="edge"><title>Node30&#45;&gt;Node43</title>
<path fill="none" stroke="midnightblue" d="M262.914,-764.746C243.053,-736.106 200.81,-680.628 152,-649 146.01,-645.119 139.36,-641.783 132.563,-638.931"/>
<polygon fill="midnightblue" stroke="midnightblue" points="260.251,-767.054 268.769,-773.356 266.04,-763.118 260.251,-767.054"/>
</g>
<!-- Node45 -->
<g id="node28" class="node"><title>Node45</title>
<g id="a_node28"><a xlink:href="class_t_m_c2208_stepper.html#ab4500aa2baca79572a8145b64f809a37" target="_top" xlink:title=" ">
<polygon fill="white" stroke="red" points="16.5,-570.5 16.5,-589.5 135.5,-589.5 135.5,-570.5 16.5,-570.5"/>
<text text-anchor="middle" x="76" y="-577.5" font-family="Helvetica,sans-Serif" font-size="10.00">TMC2208Stepper::shaft</text>
</a>
</g>
</g>
<!-- Node30&#45;&gt;Node45 -->
<g id="edge29" class="edge"><title>Node30&#45;&gt;Node45</title>
<path fill="none" stroke="midnightblue" d="M267.731,-763.822C252.412,-726.094 213.111,-642.152 152,-599 146.514,-595.126 140.31,-592.041 133.877,-589.583"/>
<polygon fill="midnightblue" stroke="midnightblue" points="264.491,-765.146 271.414,-773.166 271.003,-762.579 264.491,-765.146"/>
</g>
<!-- Node49 -->
<g id="node31" class="node"><title>Node49</title>
<g id="a_node31"><a xlink:href="class_t_m_c2208_stepper.html#a3e89d66eba91684da6dce09b366aa716" target="_top" xlink:title=" ">
<polygon fill="white" stroke="black" points="18,-456.5 18,-475.5 134,-475.5 134,-456.5 18,-456.5"/>
<text text-anchor="middle" x="76" y="-463.5" font-family="Helvetica,sans-Serif" font-size="10.00">TMC2208Stepper::diag</text>
</a>
</g>
</g>
<!-- Node48&#45;&gt;Node49 -->
<g id="edge32" class="edge"><title>Node48&#45;&gt;Node49</title>
<path fill="none" stroke="midnightblue" d="M208.304,-340.194C200.911,-343.054 193.926,-346.888 188,-352 153.811,-381.493 185.696,-416.945 152,-447 146.787,-451.649 140.598,-455.194 134.044,-457.89"/>
<polygon fill="midnightblue" stroke="midnightblue" points="209.425,-343.51 217.837,-337.068 207.244,-336.858 209.425,-343.51"/>
</g>
<!-- Node50 -->
<g id="node32" class="node"><title>Node50</title>
<g id="a_node32"><a xlink:href="class_t_m_c2208_stepper.html#af4a3a3c37720a10e59331f74c8a84a4e" target="_top" xlink:title=" ">
<polygon fill="white" stroke="black" points="22,-418.5 22,-437.5 130,-437.5 130,-418.5 22,-418.5"/>
<text text-anchor="middle" x="76" y="-425.5" font-family="Helvetica,sans-Serif" font-size="10.00">TMC2208Stepper::dir</text>
</a>
</g>
</g>
<!-- Node48&#45;&gt;Node50 -->
<g id="edge33" class="edge"><title>Node48&#45;&gt;Node50</title>
<path fill="none" stroke="midnightblue" d="M208.12,-341.792C200.97,-344.394 194.093,-347.73 188,-352 163.462,-369.195 176.25,-391.401 152,-409 145.477,-413.734 137.892,-417.292 130.101,-419.966"/>
<polygon fill="midnightblue" stroke="midnightblue" points="209.508,-345.024 217.993,-338.679 207.403,-338.348 209.508,-345.024"/>
</g>
<!-- Node51 -->
<g id="node33" class="node"><title>Node51</title>
<g id="a_node33"><a xlink:href="class_t_m_c2208_stepper.html#acc1f92ce007231215fc4266fb4b99a62" target="_top" xlink:title=" ">
<polygon fill="white" stroke="red" points="19.5,-380.5 19.5,-399.5 132.5,-399.5 132.5,-380.5 19.5,-380.5"/>
<text text-anchor="middle" x="76" y="-387.5" font-family="Helvetica,sans-Serif" font-size="10.00">TMC2208Stepper::enn</text>
</a>
</g>
</g>
<!-- Node48&#45;&gt;Node51 -->
<g id="edge34" class="edge"><title>Node48&#45;&gt;Node51</title>
<path fill="none" stroke="midnightblue" d="M210.728,-344.965C202.98,-347.013 195.249,-349.351 188,-352 171.007,-358.209 168.888,-364.511 152,-371 142.471,-374.662 131.99,-377.824 121.961,-380.46"/>
<polygon fill="midnightblue" stroke="midnightblue" points="211.66,-348.34 220.517,-342.524 209.967,-341.547 211.66,-348.34"/>
</g>
<!-- Node52 -->
<g id="node34" class="node"><title>Node52</title>
<g id="a_node34"><a xlink:href="class_t_m_c2208_stepper.html#adbace6f10c292506035b9d162ed239b4" target="_top" xlink:title=" ">
<polygon fill="white" stroke="black" points="18,-342.5 18,-361.5 134,-361.5 134,-342.5 18,-342.5"/>
<text text-anchor="middle" x="76" y="-349.5" font-family="Helvetica,sans-Serif" font-size="10.00">TMC2208Stepper::ms1</text>
</a>
</g>
</g>
<!-- Node48&#45;&gt;Node52 -->
<g id="edge35" class="edge"><title>Node48&#45;&gt;Node52</title>
<path fill="none" stroke="midnightblue" d="M207.934,-339.436C184.014,-341.731 157.309,-344.294 134.287,-346.503"/>
<polygon fill="midnightblue" stroke="midnightblue" points="208.376,-342.909 217.996,-338.47 207.707,-335.941 208.376,-342.909"/>
</g>
<!-- Node53 -->
<g id="node35" class="node"><title>Node53</title>
<g id="a_node35"><a xlink:href="class_t_m_c2208_stepper.html#a4ec5d2b2f5a31259c7aba1f3208d63b8" target="_top" xlink:title=" ">
<polygon fill="white" stroke="red" points="18,-304.5 18,-323.5 134,-323.5 134,-304.5 18,-304.5"/>
<text text-anchor="middle" x="76" y="-311.5" font-family="Helvetica,sans-Serif" font-size="10.00">TMC2208Stepper::ms2</text>
</a>
</g>
</g>
<!-- Node48&#45;&gt;Node53 -->
<g id="edge36" class="edge"><title>Node48&#45;&gt;Node53</title>
<path fill="none" stroke="midnightblue" d="M207.934,-326.564C184.014,-324.269 157.309,-321.706 134.287,-319.497"/>
<polygon fill="midnightblue" stroke="midnightblue" points="207.707,-330.059 217.996,-327.53 208.376,-323.091 207.707,-330.059"/>
</g>
<!-- Node55 -->
<g id="node36" class="node"><title>Node55</title>
<g id="a_node36"><a xlink:href="class_t_m_c2208_stepper.html#ab1a4fdff9c56ed07ba453f961864e769" target="_top" xlink:title=" ">
<polygon fill="white" stroke="black" points="8.5,-266.5 8.5,-285.5 143.5,-285.5 143.5,-266.5 8.5,-266.5"/>
<text text-anchor="middle" x="76" y="-273.5" font-family="Helvetica,sans-Serif" font-size="10.00">TMC2208Stepper::pdn_uart</text>
</a>
</g>
</g>
<!-- Node48&#45;&gt;Node55 -->
<g id="edge37" class="edge"><title>Node48&#45;&gt;Node55</title>
<path fill="none" stroke="midnightblue" d="M210.728,-321.035C202.98,-318.987 195.249,-316.649 188,-314 171.007,-307.791 168.888,-301.489 152,-295 142.471,-291.338 131.99,-288.176 121.961,-285.54"/>
<polygon fill="midnightblue" stroke="midnightblue" points="209.967,-324.453 220.517,-323.476 211.66,-317.66 209.967,-324.453"/>
</g>
<!-- Node56 -->
<g id="node37" class="node"><title>Node56</title>
<g id="a_node37"><a xlink:href="class_t_m_c2208_stepper.html#a462e14ef67b55c14c361c741767eee5e" target="_top" xlink:title=" ">
<polygon fill="white" stroke="black" points="15.5,-228.5 15.5,-247.5 136.5,-247.5 136.5,-228.5 15.5,-228.5"/>
<text text-anchor="middle" x="76" y="-235.5" font-family="Helvetica,sans-Serif" font-size="10.00">TMC2208Stepper::sel_a</text>
</a>
</g>
</g>
<!-- Node48&#45;&gt;Node56 -->
<g id="edge38" class="edge"><title>Node48&#45;&gt;Node56</title>
<path fill="none" stroke="midnightblue" d="M208.12,-324.208C200.97,-321.606 194.093,-318.27 188,-314 163.462,-296.805 176.25,-274.599 152,-257 146.673,-253.134 140.638,-250.052 134.36,-247.595"/>
<polygon fill="midnightblue" stroke="midnightblue" points="207.403,-327.652 217.993,-327.321 209.508,-320.976 207.403,-327.652"/>
</g>
<!-- Node57 -->
<g id="node38" class="node"><title>Node57</title>
<g id="a_node38"><a xlink:href="class_t_m_c2208_stepper.html#ac5cbf509e5e74a27507ce976bd973a4d" target="_top" xlink:title=" ">
<polygon fill="white" stroke="black" points="18,-190.5 18,-209.5 134,-209.5 134,-190.5 18,-190.5"/>
<text text-anchor="middle" x="76" y="-197.5" font-family="Helvetica,sans-Serif" font-size="10.00">TMC2208Stepper::step</text>
</a>
</g>
</g>
<!-- Node48&#45;&gt;Node57 -->
<g id="edge39" class="edge"><title>Node48&#45;&gt;Node57</title>
<path fill="none" stroke="midnightblue" d="M208.304,-325.806C200.911,-322.946 193.926,-319.112 188,-314 153.811,-284.507 185.696,-249.055 152,-219 146.787,-214.351 140.598,-210.806 134.044,-208.11"/>
<polygon fill="midnightblue" stroke="midnightblue" points="207.244,-329.142 217.837,-328.932 209.425,-322.49 207.244,-329.142"/>
</g>
<!-- Node58 -->
<g id="node39" class="node"><title>Node58</title>
<g id="a_node39"><a xlink:href="class_t_m_c2208_stepper.html#afd696df315a1b1296bd77f6438c4cbe8" target="_top" xlink:title=" ">
<polygon fill="white" stroke="black" points="12,-152.5 12,-171.5 140,-171.5 140,-152.5 12,-152.5"/>
<text text-anchor="middle" x="76" y="-159.5" font-family="Helvetica,sans-Serif" font-size="10.00">TMC2208Stepper::version</text>
</a>
</g>
</g>
<!-- Node48&#45;&gt;Node58 -->
<g id="edge40" class="edge"><title>Node48&#45;&gt;Node58</title>
<path fill="none" stroke="midnightblue" d="M208.112,-326.477C200.688,-323.512 193.748,-319.471 188,-314 143.643,-271.779 195.652,-223.949 152,-181 148.074,-177.138 143.482,-174.025 138.538,-171.521"/>
<polygon fill="midnightblue" stroke="midnightblue" points="207.127,-329.837 217.72,-329.682 209.342,-323.197 207.127,-329.837"/>
</g>
<!-- Node60 -->
<g id="node41" class="node"><title>Node60</title>
<g id="a_node41"><a xlink:href="class_t_m_c2209_stepper.html#a57eb34f291e73aef7d3de9f21239e3ac" target="_top" xlink:title=" ">
<polygon fill="white" stroke="black" points="18,-114.5 18,-133.5 134,-133.5 134,-114.5 18,-114.5"/>
<text text-anchor="middle" x="76" y="-121.5" font-family="Helvetica,sans-Serif" font-size="10.00">TMC2209Stepper::diag</text>
</a>
</g>
</g>
<!-- Node59&#45;&gt;Node60 -->
<g id="edge42" class="edge"><title>Node59&#45;&gt;Node60</title>
<path fill="none" stroke="midnightblue" d="M208.112,-288.477C200.688,-285.512 193.748,-281.471 188,-276 143.643,-233.779 195.652,-185.949 152,-143 146.925,-138.007 140.737,-134.267 134.114,-131.475"/>
<polygon fill="midnightblue" stroke="midnightblue" points="207.127,-291.837 217.72,-291.682 209.342,-285.197 207.127,-291.837"/>
</g>
<!-- Node61 -->
<g id="node42" class="node"><title>Node61</title>
<g id="a_node42"><a xlink:href="class_t_m_c2209_stepper.html#abfe7546eae0d8d3496de34589c43e166" target="_top" xlink:title=" ">
<polygon fill="white" stroke="black" points="22,-76.5 22,-95.5 130,-95.5 130,-76.5 22,-76.5"/>
<text text-anchor="middle" x="76" y="-83.5" font-family="Helvetica,sans-Serif" font-size="10.00">TMC2209Stepper::dir</text>
</a>
</g>
</g>
<!-- Node59&#45;&gt;Node61 -->
<g id="edge43" class="edge"><title>Node59&#45;&gt;Node61</title>
<path fill="none" stroke="midnightblue" d="M208.113,-288.909C200.624,-285.883 193.667,-281.709 188,-276 133.289,-220.876 205.792,-161.022 152,-105 146.046,-98.7991 138.381,-94.5112 130.234,-91.5672"/>
<polygon fill="midnightblue" stroke="midnightblue" points="207.232,-292.305 217.826,-292.157 209.452,-285.666 207.232,-292.305"/>
</g>
<!-- Node62 -->
<g id="node43" class="node"><title>Node62</title>
<g id="a_node43"><a xlink:href="class_t_m_c2209_stepper.html#a15552d02544cc0df6b82317c937e4ea5" target="_top" xlink:title=" ">
<polygon fill="white" stroke="black" points="19.5,-38.5 19.5,-57.5 132.5,-57.5 132.5,-38.5 19.5,-38.5"/>
<text text-anchor="middle" x="76" y="-45.5" font-family="Helvetica,sans-Serif" font-size="10.00">TMC2209Stepper::enn</text>
</a>
</g>
</g>
<!-- Node59&#45;&gt;Node62 -->
<g id="edge44" class="edge"><title>Node59&#45;&gt;Node62</title>
<path fill="none" stroke="midnightblue" d="M207.91,-289.106C200.454,-286.048 193.56,-281.813 188,-276 122.848,-207.886 216.016,-136.183 152,-67 146.709,-61.2818 139.965,-57.1794 132.699,-54.2541"/>
<polygon fill="midnightblue" stroke="midnightblue" points="207.002,-292.494 217.597,-292.381 209.244,-285.862 207.002,-292.494"/>
</g>
<!-- Node63 -->
<g id="node44" class="node"><title>Node63</title>
<g id="a_node44"><a xlink:href="class_t_m_c2209_stepper.html#a72a107720c4c682acde250585e2a229e" target="_top" xlink:title=" ">
<polygon fill="white" stroke="black" points="18,-0.5 18,-19.5 134,-19.5 134,-0.5 18,-0.5"/>
<text text-anchor="middle" x="76" y="-7.5" font-family="Helvetica,sans-Serif" font-size="10.00">TMC2209Stepper::ms1</text>
</a>
</g>
</g>
<!-- Node59&#45;&gt;Node63 -->
<g id="edge45" class="edge"><title>Node59&#45;&gt;Node63</title>
<path fill="none" stroke="midnightblue" d="M208.32,-289.469C200.674,-286.373 193.621,-282.03 188,-276 112.36,-194.847 226.287,-111.393 152,-29 147.143,-23.6129 140.998,-19.6532 134.324,-16.7582"/>
<polygon fill="midnightblue" stroke="midnightblue" points="207.289,-292.815 217.883,-292.657 209.503,-286.174 207.289,-292.815"/>
</g>
<!-- Node86&#45;&gt;Node17 -->
<g id="edge51" class="edge"><title>Node86&#45;&gt;Node17</title>
<path fill="none" stroke="midnightblue" d="M215.134,-991.489C186.883,-996.911 153.564,-1003.31 126.729,-1008.46"/>
<polygon fill="midnightblue" stroke="midnightblue" points="216.131,-994.862 225.292,-989.54 214.811,-987.988 216.131,-994.862"/>
</g>
<!-- Node86&#45;&gt;Node18 -->
<g id="edge52" class="edge"><title>Node86&#45;&gt;Node18</title>
<path fill="none" stroke="midnightblue" d="M191.268,-980C172.551,-980 153.087,-980 135.64,-980"/>
<polygon fill="midnightblue" stroke="midnightblue" points="191.272,-983.5 201.272,-980 191.272,-976.5 191.272,-983.5"/>
</g>
</g>
</svg>
