<?xml version="1.0" encoding="UTF-8" standalone="no"?>
<!DOCTYPE svg PUBLIC "-//W3C//DTD SVG 1.1//EN"
 "http://www.w3.org/Graphics/SVG/1.1/DTD/svg11.dtd">
<!-- Generated by graphviz version 2.38.0 (20140413.2041)
 -->
<!-- Title: TMC2224Stepper::IOIN Pages: 1 -->
<svg width="811pt" height="156pt"
 viewBox="0.00 0.00 811.00 156.41" xmlns="http://www.w3.org/2000/svg" xmlns:xlink="http://www.w3.org/1999/xlink">
<g id="graph0" class="graph" transform="scale(1 1) rotate(0) translate(4 152.405)">
<title>TMC2224Stepper::IOIN</title>
<polygon fill="white" stroke="none" points="-4,4 -4,-152.405 807,-152.405 807,4 -4,4"/>
<!-- Node1 -->
<g id="node1" class="node"><title>Node1</title>
<g id="a_node1"><a xlink:title=" ">
<polygon fill="#bfbfbf" stroke="black" points="0,-46.9052 0,-65.9052 116,-65.9052 116,-46.9052 0,-46.9052"/>
<text text-anchor="middle" x="58" y="-53.9052" font-family="Helvetica,sans-Serif" font-size="10.00">TMC2224Stepper::IOIN</text>
</a>
</g>
</g>
<!-- Node2 -->
<g id="node2" class="node"><title>Node2</title>
<g id="a_node2"><a xlink:href="class_t_m_c2208_stepper.html#a2fae2050849c3ab7968012def8ea1cc5" target="_top" xlink:title=" ">
<polygon fill="white" stroke="black" points="152,-46.9052 152,-65.9052 268,-65.9052 268,-46.9052 152,-46.9052"/>
<text text-anchor="middle" x="210" y="-53.9052" font-family="Helvetica,sans-Serif" font-size="10.00">TMC2208Stepper::read</text>
</a>
</g>
</g>
<!-- Node1&#45;&gt;Node2 -->
<g id="edge1" class="edge"><title>Node1&#45;&gt;Node2</title>
<path fill="none" stroke="midnightblue" d="M116.136,-56.4052C124.377,-56.4052 132.923,-56.4052 141.344,-56.4052"/>
<polygon fill="midnightblue" stroke="midnightblue" points="141.526,-59.9053 151.525,-56.4052 141.525,-52.9053 141.526,-59.9053"/>
</g>
<!-- Node3 -->
<g id="node3" class="node"><title>Node3</title>
<g id="a_node3"><a xlink:href="class_t_m_c2208_stepper.html#a3e1f6a10aa1e3e41dc2594dbe1ea8a1d" target="_top" xlink:title=" ">
<polygon fill="white" stroke="black" points="304,-103.905 304,-122.905 470,-122.905 470,-103.905 304,-103.905"/>
<text text-anchor="middle" x="387" y="-110.905" font-family="Helvetica,sans-Serif" font-size="10.00">TMC2208Stepper::_sendDatagram</text>
</a>
</g>
</g>
<!-- Node2&#45;&gt;Node3 -->
<g id="edge2" class="edge"><title>Node2&#45;&gt;Node3</title>
<path fill="none" stroke="midnightblue" d="M231.7,-65.9833C250.317,-74.3262 278.568,-86.3205 304,-94.4052 312.008,-96.9508 320.555,-99.3114 328.996,-101.442"/>
<polygon fill="midnightblue" stroke="midnightblue" points="328.272,-104.868 338.816,-103.834 329.929,-98.0666 328.272,-104.868"/>
</g>
<!-- Node8 -->
<g id="node8" class="node"><title>Node8</title>
<g id="a_node8"><a xlink:href="class_s_switch.html#a6ff09d0850d551571dc333fb74ff8628" target="_top" xlink:title=" ">
<polygon fill="white" stroke="black" points="345.5,-65.9052 345.5,-84.9052 428.5,-84.9052 428.5,-65.9052 345.5,-65.9052"/>
<text text-anchor="middle" x="387" y="-72.9052" font-family="Helvetica,sans-Serif" font-size="10.00">SSwitch::active</text>
</a>
</g>
</g>
<!-- Node2&#45;&gt;Node8 -->
<g id="edge8" class="edge"><title>Node2&#45;&gt;Node8</title>
<path fill="none" stroke="midnightblue" d="M268.302,-62.6265C289.975,-64.9796 314.465,-67.6385 335.472,-69.9193"/>
<polygon fill="midnightblue" stroke="midnightblue" points="335.158,-73.4056 345.477,-71.0055 335.913,-66.4465 335.158,-73.4056"/>
</g>
<!-- Node9 -->
<g id="node9" class="node"><title>Node9</title>
<g id="a_node9"><a xlink:href="class_t_m_c2208_stepper.html#a409c19fa6b052a370a317d061bf9af4e" target="_top" xlink:title=" ">
<polygon fill="white" stroke="black" points="319,-27.9052 319,-46.9052 455,-46.9052 455,-27.9052 319,-27.9052"/>
<text text-anchor="middle" x="387" y="-34.9052" font-family="Helvetica,sans-Serif" font-size="10.00">TMC2208Stepper::calcCRC</text>
</a>
</g>
</g>
<!-- Node2&#45;&gt;Node9 -->
<g id="edge9" class="edge"><title>Node2&#45;&gt;Node9</title>
<path fill="none" stroke="midnightblue" d="M268.302,-50.1839C281.17,-48.7867 295.032,-47.2817 308.567,-45.8121"/>
<polygon fill="midnightblue" stroke="midnightblue" points="309.269,-49.2566 318.833,-44.6976 308.514,-42.2975 309.269,-49.2566"/>
</g>
<!-- Node4 -->
<g id="node4" class="node"><title>Node4</title>
<g id="a_node4"><a xlink:href="class_t_m_c2208_stepper.html#a4ec5d2b2f5a31259c7aba1f3208d63b8" target="_top" xlink:title=" ">
<polygon fill="white" stroke="black" points="520.5,-128.905 520.5,-147.905 636.5,-147.905 636.5,-128.905 520.5,-128.905"/>
<text text-anchor="middle" x="578.5" y="-135.905" font-family="Helvetica,sans-Serif" font-size="10.00">TMC2208Stepper::ms2</text>
</a>
</g>
</g>
<!-- Node3&#45;&gt;Node4 -->
<g id="edge3" class="edge"><title>Node3&#45;&gt;Node4</title>
<path fill="none" stroke="midnightblue" d="M460.182,-122.928C476.64,-125.099 494.062,-127.397 510.301,-129.54"/>
<polygon fill="midnightblue" stroke="midnightblue" points="509.868,-133.013 520.24,-130.851 510.784,-126.073 509.868,-133.013"/>
</g>
<!-- Node6 -->
<g id="node6" class="node"><title>Node6</title>
<g id="a_node6"><a xlink:href="class_t_m_c2208_stepper.html#ae561da4ec7c40830e97bf4dc8cf700fb" target="_top" xlink:title=" ">
<polygon fill="white" stroke="black" points="506,-90.9052 506,-109.905 651,-109.905 651,-90.9052 506,-90.9052"/>
<text text-anchor="middle" x="578.5" y="-97.9052" font-family="Helvetica,sans-Serif" font-size="10.00">TMC2208Stepper::serial_read</text>
</a>
</g>
</g>
<!-- Node3&#45;&gt;Node6 -->
<g id="edge6" class="edge"><title>Node3&#45;&gt;Node6</title>
<path fill="none" stroke="midnightblue" d="M470.015,-107.779C478.478,-107.198 487.078,-106.608 495.54,-106.028"/>
<polygon fill="midnightblue" stroke="midnightblue" points="496.038,-109.502 505.775,-105.326 495.559,-102.518 496.038,-109.502"/>
</g>
<!-- Node7 -->
<g id="node7" class="node"><title>Node7</title>
<g id="a_node7"><a xlink:href="class_t_m_c2208_stepper.html#a7dd83313385079099b0622957786a979" target="_top" xlink:title=" ">
<polygon fill="white" stroke="black" points="518,-41.4052 518,-71.4052 639,-71.4052 639,-41.4052 518,-41.4052"/>
<text text-anchor="start" x="526" y="-59.4052" font-family="Helvetica,sans-Serif" font-size="10.00">TMC2208Stepper::serial</text>
<text text-anchor="middle" x="578.5" y="-48.4052" font-family="Helvetica,sans-Serif" font-size="10.00">_write</text>
</a>
</g>
</g>
<!-- Node3&#45;&gt;Node7 -->
<g id="edge7" class="edge"><title>Node3&#45;&gt;Node7</title>
<path fill="none" stroke="midnightblue" d="M433.793,-103.808C445.658,-101.045 458.367,-97.8399 470,-94.4052 486.315,-89.5878 489.971,-87.1015 506,-81.4052 512.017,-79.2668 518.325,-77.0401 524.595,-74.8355"/>
<polygon fill="midnightblue" stroke="midnightblue" points="526.095,-78.0185 534.372,-71.4052 523.778,-71.4133 526.095,-78.0185"/>
</g>
<!-- Node5 -->
<g id="node5" class="node"><title>Node5</title>
<g id="a_node5"><a xlink:href="class_t_m_c2208_stepper.html#a5441dd87d0bcea4ffc309cb012166a57" target="_top" xlink:title=" ">
<polygon fill="white" stroke="black" points="687,-58.9052 687,-77.9052 803,-77.9052 803,-58.9052 687,-58.9052"/>
<text text-anchor="middle" x="745" y="-65.9052" font-family="Helvetica,sans-Serif" font-size="10.00">TMC2208Stepper::IOIN</text>
</a>
</g>
</g>
<!-- Node4&#45;&gt;Node5 -->
<g id="edge4" class="edge"><title>Node4&#45;&gt;Node5</title>
<path fill="none" stroke="midnightblue" d="M622.395,-128.814C631.954,-126.18 641.937,-123.032 651,-119.405 675.717,-109.514 702.177,-94.529 720.529,-83.3584"/>
<polygon fill="midnightblue" stroke="midnightblue" points="722.423,-86.3019 729.088,-78.0661 718.742,-80.348 722.423,-86.3019"/>
</g>
<!-- Node5&#45;&gt;Node2 -->
<g id="edge5" class="edge"><title>Node5&#45;&gt;Node2</title>
<path fill="none" stroke="midnightblue" d="M724.963,-58.8176C706.546,-50.0326 677.593,-37.4965 651,-31.4052 500.566,3.05335 455.437,11.3399 304,-18.4052 280.751,-22.9717 255.989,-33.3919 237.866,-42.1675"/>
<polygon fill="midnightblue" stroke="midnightblue" points="235.917,-39.2285 228.532,-46.826 239.043,-45.4917 235.917,-39.2285"/>
</g>
</g>
</svg>
