<?xml version="1.0" encoding="UTF-8" standalone="no"?>
<!DOCTYPE svg PUBLIC "-//W3C//DTD SVG 1.1//EN"
 "http://www.w3.org/Graphics/SVG/1.1/DTD/svg11.dtd">
<!-- Generated by graphviz version 2.38.0 (20140413.2041)
 -->
<!-- Title: TMC2130Stepper::switchCSpin Pages: 1 -->
<svg width="852pt" height="1858pt"
 viewBox="0.00 0.00 852.00 1858.19" xmlns="http://www.w3.org/2000/svg" xmlns:xlink="http://www.w3.org/1999/xlink">
<g id="graph0" class="graph" transform="scale(1 1) rotate(0) translate(4 1854.19)">
<title>TMC2130Stepper::switchCSpin</title>
<polygon fill="white" stroke="none" points="-4,4 -4,-1854.19 848,-1854.19 848,4 -4,4"/>
<!-- Node1 -->
<g id="node1" class="node"><title>Node1</title>
<g id="a_node1"><a xlink:title=" ">
<polygon fill="#bfbfbf" stroke="black" points="692,-1004.5 692,-1023.5 844,-1023.5 844,-1004.5 692,-1004.5"/>
<text text-anchor="middle" x="768" y="-1011.5" font-family="Helvetica,sans-Serif" font-size="10.00">TMC2130Stepper::switchCSpin</text>
</a>
</g>
</g>
<!-- Node2 -->
<g id="node2" class="node"><title>Node2</title>
<g id="a_node2"><a xlink:href="class_t_m_c2130_stepper.html#a2d19f2ad93b00b75ffdcdd73275d2f03" target="_top" xlink:title=" ">
<polygon fill="white" stroke="black" points="167,-1296.5 167,-1315.5 288,-1315.5 288,-1296.5 167,-1296.5"/>
<text text-anchor="middle" x="227.5" y="-1303.5" font-family="Helvetica,sans-Serif" font-size="10.00">TMC2130Stepper::begin</text>
</a>
</g>
</g>
<!-- Node1&#45;&gt;Node2 -->
<g id="edge1" class="edge"><title>Node1&#45;&gt;Node2</title>
<path fill="none" stroke="midnightblue" d="M763.672,-1033.58C743.977,-1146.89 638.877,-1717.07 502,-1816 441.485,-1859.74 391.899,-1863.15 334,-1816 252.145,-1749.34 231.841,-1379.99 228.905,-1315.58"/>
<polygon fill="midnightblue" stroke="midnightblue" points="767.15,-1034.01 765.397,-1023.56 760.251,-1032.82 767.15,-1034.01"/>
</g>
<!-- Node3 -->
<g id="node3" class="node"><title>Node3</title>
<g id="a_node3"><a xlink:href="class_t_m_c2160_stepper.html#a7ee48b042245ef5b3968b82029d1404c" target="_top" xlink:title=" ">
<polygon fill="white" stroke="black" points="167,-933.5 167,-952.5 288,-952.5 288,-933.5 167,-933.5"/>
<text text-anchor="middle" x="227.5" y="-940.5" font-family="Helvetica,sans-Serif" font-size="10.00">TMC2160Stepper::begin</text>
</a>
</g>
</g>
<!-- Node1&#45;&gt;Node3 -->
<g id="edge2" class="edge"><title>Node1&#45;&gt;Node3</title>
<path fill="none" stroke="midnightblue" d="M751.197,-996.834C713.065,-956.844 611.06,-858.207 502,-823 430.944,-800.062 402.03,-792.227 334,-823 282.188,-846.437 245.704,-909.288 233.224,-933.4"/>
<polygon fill="midnightblue" stroke="midnightblue" points="748.749,-999.339 758.151,-1004.22 753.847,-994.543 748.749,-999.339"/>
</g>
<!-- Node5 -->
<g id="node5" class="node"><title>Node5</title>
<g id="a_node5"><a xlink:href="class_t_m_c2130_stepper.html#aed0175bff6e80ebc14e0d2606283cbe0" target="_top" xlink:title=" ">
<polygon fill="white" stroke="black" points="539,-1252.5 539,-1271.5 655,-1271.5 655,-1252.5 539,-1252.5"/>
<text text-anchor="middle" x="597" y="-1259.5" font-family="Helvetica,sans-Serif" font-size="10.00">TMC2130Stepper::read</text>
</a>
</g>
</g>
<!-- Node1&#45;&gt;Node5 -->
<g id="edge4" class="edge"><title>Node1&#45;&gt;Node5</title>
<path fill="none" stroke="midnightblue" d="M754.675,-1032.09C721.286,-1081.08 629.898,-1215.19 604.579,-1252.35"/>
<polygon fill="midnightblue" stroke="midnightblue" points="757.636,-1033.96 760.375,-1023.72 751.851,-1030.01 757.636,-1033.96"/>
</g>
<!-- Node143 -->
<g id="node32" class="node"><title>Node143</title>
<g id="a_node32"><a xlink:href="class_t_m_c2130_stepper.html#a1f26f0ea072d38c0afd20f27563ebb64" target="_top" xlink:title=" ">
<polygon fill="white" stroke="red" points="538,-348.5 538,-367.5 656,-367.5 656,-348.5 538,-348.5"/>
<text text-anchor="middle" x="597" y="-355.5" font-family="Helvetica,sans-Serif" font-size="10.00">TMC2130Stepper::write</text>
</a>
</g>
</g>
<!-- Node1&#45;&gt;Node143 -->
<g id="edge37" class="edge"><title>Node1&#45;&gt;Node143</title>
<path fill="none" stroke="midnightblue" d="M761.985,-994.533C736.228,-894.552 619.29,-440.641 600.54,-367.859"/>
<polygon fill="midnightblue" stroke="midnightblue" points="758.662,-995.663 764.546,-1004.47 765.44,-993.917 758.662,-995.663"/>
</g>
<!-- Node4 -->
<g id="node4" class="node"><title>Node4</title>
<g id="a_node4"><a xlink:href="class_t_m_c5130_stepper.html#a897212f81817cdaee4536d642badc149" target="_top" xlink:title=" ">
<polygon fill="white" stroke="black" points="0,-794.5 0,-813.5 121,-813.5 121,-794.5 0,-794.5"/>
<text text-anchor="middle" x="60.5" y="-801.5" font-family="Helvetica,sans-Serif" font-size="10.00">TMC5130Stepper::begin</text>
</a>
</g>
</g>
<!-- Node3&#45;&gt;Node4 -->
<g id="edge3" class="edge"><title>Node3&#45;&gt;Node4</title>
<path fill="none" stroke="midnightblue" d="M207.196,-926.738C172.54,-897.543 100.792,-837.101 72.9205,-813.621"/>
<polygon fill="midnightblue" stroke="midnightblue" points="205.256,-929.68 215.159,-933.446 209.766,-924.326 205.256,-929.68"/>
</g>
<!-- Node6 -->
<g id="node6" class="node"><title>Node6</title>
<g id="a_node6"><a xlink:href="class_t_m_c2130_stepper.html#a67541b27d97ce45f175e9f6e4a2d0bff" target="_top" xlink:title=" ">
<polygon fill="white" stroke="red" points="342,-1296.5 342,-1315.5 494,-1315.5 494,-1296.5 342,-1296.5"/>
<text text-anchor="middle" x="418" y="-1303.5" font-family="Helvetica,sans-Serif" font-size="10.00">TMC2130Stepper::CHOPCONF</text>
</a>
</g>
</g>
<!-- Node5&#45;&gt;Node6 -->
<g id="edge5" class="edge"><title>Node5&#45;&gt;Node6</title>
<path fill="none" stroke="midnightblue" d="M551.345,-1274.22C535.762,-1278.39 518.137,-1283.01 502,-1287 489.085,-1290.19 474.992,-1293.49 462.146,-1296.42"/>
<polygon fill="midnightblue" stroke="midnightblue" points="552.508,-1277.53 561.255,-1271.55 550.689,-1270.77 552.508,-1277.53"/>
</g>
<!-- Node46 -->
<g id="node7" class="node"><title>Node46</title>
<g id="a_node7"><a xlink:href="class_t_m_c2130_stepper.html#a1a90b2919efe61dd825552c2fbeca993" target="_top" xlink:title=" ">
<polygon fill="white" stroke="red" points="350.5,-1384.5 350.5,-1403.5 485.5,-1403.5 485.5,-1384.5 350.5,-1384.5"/>
<text text-anchor="middle" x="418" y="-1391.5" font-family="Helvetica,sans-Serif" font-size="10.00">TMC2130Stepper::DCCTRL</text>
</a>
</g>
</g>
<!-- Node5&#45;&gt;Node46 -->
<g id="edge8" class="edge"><title>Node5&#45;&gt;Node46</title>
<path fill="none" stroke="midnightblue" d="M585.777,-1280.69C570.839,-1306.16 540.58,-1351.29 502,-1375 495.703,-1378.87 488.699,-1381.95 481.505,-1384.41"/>
<polygon fill="midnightblue" stroke="midnightblue" points="588.998,-1282.11 590.899,-1271.69 582.913,-1278.65 588.998,-1282.11"/>
</g>
<!-- Node49 -->
<g id="node8" class="node"><title>Node49</title>
<g id="a_node8"><a xlink:href="class_t_m_c2130_stepper.html#a8d6feb6e1ed123a0b1008d80b6d53287" target="_top" xlink:title=" ">
<polygon fill="white" stroke="black" points="359,-1335 359,-1365 477,-1365 477,-1335 359,-1335"/>
<text text-anchor="start" x="367" y="-1353" font-family="Helvetica,sans-Serif" font-size="10.00">TMC2130Stepper::DRV</text>
<text text-anchor="middle" x="418" y="-1342" font-family="Helvetica,sans-Serif" font-size="10.00">_STATUS</text>
</a>
</g>
</g>
<!-- Node5&#45;&gt;Node49 -->
<g id="edge9" class="edge"><title>Node5&#45;&gt;Node49</title>
<path fill="none" stroke="midnightblue" d="M576.089,-1277.92C557.75,-1291.94 529.323,-1312.09 502,-1325 494.108,-1328.73 485.532,-1332.05 476.987,-1334.96"/>
<polygon fill="midnightblue" stroke="midnightblue" points="578.487,-1280.49 584.232,-1271.59 574.19,-1274.97 578.487,-1280.49"/>
</g>
<!-- Node50 -->
<g id="node9" class="node"><title>Node50</title>
<g id="a_node9"><a xlink:href="class_t_m_c5130_stepper.html#a2dfc06fb1bfb9610b94257c822d803f4" target="_top" xlink:title=" ">
<polygon fill="white" stroke="black" points="359,-1247 359,-1277 477,-1277 477,-1247 359,-1247"/>
<text text-anchor="start" x="367" y="-1265" font-family="Helvetica,sans-Serif" font-size="10.00">TMC5130Stepper::ENC</text>
<text text-anchor="middle" x="418" y="-1254" font-family="Helvetica,sans-Serif" font-size="10.00">_LATCH</text>
</a>
</g>
</g>
<!-- Node5&#45;&gt;Node50 -->
<g id="edge10" class="edge"><title>Node5&#45;&gt;Node50</title>
<path fill="none" stroke="midnightblue" d="M528.199,-1262C511.345,-1262 493.429,-1262 477.088,-1262"/>
<polygon fill="midnightblue" stroke="midnightblue" points="528.533,-1265.5 538.533,-1262 528.533,-1258.5 528.533,-1265.5"/>
</g>
<!-- Node51 -->
<g id="node10" class="node"><title>Node51</title>
<g id="a_node10"><a xlink:href="class_t_m_c5130_stepper.html#aa51b7320a8feccf48756dbd81638be43" target="_top" xlink:title=" ">
<polygon fill="white" stroke="black" points="359,-1198 359,-1228 477,-1228 477,-1198 359,-1198"/>
<text text-anchor="start" x="367" y="-1216" font-family="Helvetica,sans-Serif" font-size="10.00">TMC5130Stepper::ENC</text>
<text text-anchor="middle" x="418" y="-1205" font-family="Helvetica,sans-Serif" font-size="10.00">_STATUS</text>
</a>
</g>
</g>
<!-- Node5&#45;&gt;Node51 -->
<g id="edge11" class="edge"><title>Node5&#45;&gt;Node51</title>
<path fill="none" stroke="midnightblue" d="M551.65,-1249.72C527.896,-1243.15 498.436,-1234.99 473.317,-1228.04"/>
<polygon fill="midnightblue" stroke="midnightblue" points="550.881,-1253.14 561.452,-1252.44 552.749,-1246.39 550.881,-1253.14"/>
</g>
<!-- Node52 -->
<g id="node11" class="node"><title>Node52</title>
<g id="a_node11"><a xlink:href="class_t_m_c5160_stepper.html#a3a64ce4aeeda0a8c3fbe07baed1c5317" target="_top" xlink:title=" ">
<polygon fill="white" stroke="black" points="359,-1149 359,-1179 477,-1179 477,-1149 359,-1149"/>
<text text-anchor="start" x="367" y="-1167" font-family="Helvetica,sans-Serif" font-size="10.00">TMC5160Stepper::ENC</text>
<text text-anchor="middle" x="418" y="-1156" font-family="Helvetica,sans-Serif" font-size="10.00">_STATUS</text>
</a>
</g>
</g>
<!-- Node5&#45;&gt;Node52 -->
<g id="edge12" class="edge"><title>Node5&#45;&gt;Node52</title>
<path fill="none" stroke="midnightblue" d="M578.796,-1245.43C560.91,-1229.02 531.457,-1204.2 502,-1189 494.244,-1185 485.741,-1181.52 477.229,-1178.55"/>
<polygon fill="midnightblue" stroke="midnightblue" points="576.463,-1248.04 586.158,-1252.31 581.244,-1242.93 576.463,-1248.04"/>
</g>
<!-- Node53 -->
<g id="node12" class="node"><title>Node53</title>
<g id="a_node12"><a xlink:href="class_t_m_c5130_stepper.html#a3c7840e9435d4332fc6a7742deeefa9f" target="_top" xlink:title=" ">
<polygon fill="white" stroke="red" points="344.5,-1110.5 344.5,-1129.5 491.5,-1129.5 491.5,-1110.5 344.5,-1110.5"/>
<text text-anchor="middle" x="418" y="-1117.5" font-family="Helvetica,sans-Serif" font-size="10.00">TMC5130Stepper::ENCMODE</text>
</a>
</g>
</g>
<!-- Node5&#45;&gt;Node53 -->
<g id="edge13" class="edge"><title>Node5&#45;&gt;Node53</title>
<path fill="none" stroke="midnightblue" d="M586.742,-1243.05C572.449,-1215.87 542.38,-1166.19 502,-1140 495.285,-1135.64 487.71,-1132.24 479.936,-1129.57"/>
<polygon fill="midnightblue" stroke="midnightblue" points="583.781,-1244.95 591.437,-1252.28 590.02,-1241.78 583.781,-1244.95"/>
</g>
<!-- Node54 -->
<g id="node13" class="node"><title>Node54</title>
<g id="a_node13"><a xlink:href="class_t_m_c2130_stepper.html#aee84a9abfc84b387c6ae5658f90bf684" target="_top" xlink:title=" ">
<polygon fill="white" stroke="red" points="352,-1034.5 352,-1053.5 484,-1053.5 484,-1034.5 352,-1034.5"/>
<text text-anchor="middle" x="418" y="-1041.5" font-family="Helvetica,sans-Serif" font-size="10.00">TMC2130Stepper::GCONF</text>
</a>
</g>
</g>
<!-- Node5&#45;&gt;Node54 -->
<g id="edge14" class="edge"><title>Node5&#45;&gt;Node54</title>
<path fill="none" stroke="midnightblue" d="M592.612,-1242.39C584.586,-1202.14 560.516,-1110.06 502,-1063 496.701,-1058.74 490.626,-1055.4 484.226,-1052.78"/>
<polygon fill="midnightblue" stroke="midnightblue" points="589.184,-1243.1 594.465,-1252.28 596.064,-1241.81 589.184,-1243.1"/>
</g>
<!-- Node93 -->
<g id="node14" class="node"><title>Node93</title>
<g id="a_node14"><a xlink:href="class_t_m_c5130_stepper.html#a2d2a5babc82b261952616363464fcd47" target="_top" xlink:title=" ">
<polygon fill="white" stroke="black" points="355.5,-1072.5 355.5,-1091.5 480.5,-1091.5 480.5,-1072.5 355.5,-1072.5"/>
<text text-anchor="middle" x="418" y="-1079.5" font-family="Helvetica,sans-Serif" font-size="10.00">TMC5130Stepper::IFCNT</text>
</a>
</g>
</g>
<!-- Node5&#45;&gt;Node93 -->
<g id="edge17" class="edge"><title>Node5&#45;&gt;Node93</title>
<path fill="none" stroke="midnightblue" d="M590.271,-1242.4C579.183,-1208.08 551.425,-1137.32 502,-1101 495.686,-1096.36 488.429,-1092.83 480.89,-1090.14"/>
<polygon fill="midnightblue" stroke="midnightblue" points="586.994,-1243.65 593.291,-1252.17 593.682,-1241.58 586.994,-1243.65"/>
</g>
<!-- Node94 -->
<g id="node15" class="node"><title>Node94</title>
<g id="a_node15"><a xlink:href="class_t_m_c2130_stepper.html#adde2041047c82600f5e01f52118f92a0" target="_top" xlink:title=" ">
<polygon fill="white" stroke="red" points="360,-996.5 360,-1015.5 476,-1015.5 476,-996.5 360,-996.5"/>
<text text-anchor="middle" x="418" y="-1003.5" font-family="Helvetica,sans-Serif" font-size="10.00">TMC2130Stepper::IOIN</text>
</a>
</g>
</g>
<!-- Node5&#45;&gt;Node94 -->
<g id="edge18" class="edge"><title>Node5&#45;&gt;Node94</title>
<path fill="none" stroke="midnightblue" d="M594.196,-1241.88C588.956,-1195.96 569.512,-1082.93 502,-1025 494.596,-1018.65 485.492,-1014.31 476.058,-1011.36"/>
<polygon fill="midnightblue" stroke="midnightblue" points="590.735,-1242.45 595.242,-1252.04 597.698,-1241.73 590.735,-1242.45"/>
</g>
<!-- Node102 -->
<g id="node16" class="node"><title>Node102</title>
<g id="a_node16"><a xlink:href="class_t_m_c2160_stepper.html#a3d1beb78c3356e99799915df3b424e60" target="_top" xlink:title=" ">
<polygon fill="white" stroke="red" points="360,-958.5 360,-977.5 476,-977.5 476,-958.5 360,-958.5"/>
<text text-anchor="middle" x="418" y="-965.5" font-family="Helvetica,sans-Serif" font-size="10.00">TMC2160Stepper::IOIN</text>
</a>
</g>
</g>
<!-- Node5&#45;&gt;Node102 -->
<g id="edge19" class="edge"><title>Node5&#45;&gt;Node102</title>
<path fill="none" stroke="midnightblue" d="M595.463,-1242.21C592.966,-1191.57 579.037,-1056.39 502,-987 494.751,-980.47 485.723,-976.045 476.315,-973.072"/>
<polygon fill="midnightblue" stroke="midnightblue" points="591.975,-1242.58 595.863,-1252.44 598.969,-1242.31 591.975,-1242.58"/>
</g>
<!-- Node110 -->
<g id="node17" class="node"><title>Node110</title>
<g id="a_node17"><a xlink:href="class_t_m_c5130_stepper.html#a74e9e262a8da77925d246916b431161d" target="_top" xlink:title=" ">
<polygon fill="white" stroke="red" points="360,-920.5 360,-939.5 476,-939.5 476,-920.5 360,-920.5"/>
<text text-anchor="middle" x="418" y="-927.5" font-family="Helvetica,sans-Serif" font-size="10.00">TMC5130Stepper::IOIN</text>
</a>
</g>
</g>
<!-- Node5&#45;&gt;Node110 -->
<g id="edge20" class="edge"><title>Node5&#45;&gt;Node110</title>
<path fill="none" stroke="midnightblue" d="M596.415,-1242.14C596.425,-1186.85 588.458,-1029.87 502,-949 494.767,-942.234 485.635,-937.708 476.093,-934.713"/>
<polygon fill="midnightblue" stroke="midnightblue" points="592.914,-1242.3 596.317,-1252.34 599.913,-1242.37 592.914,-1242.3"/>
</g>
<!-- Node122 -->
<g id="node18" class="node"><title>Node122</title>
<g id="a_node18"><a xlink:href="class_t_m_c2130_stepper.html#ab5b7c77b1826da5c2e40a420880da513" target="_top" xlink:title=" ">
<polygon fill="white" stroke="black" points="357,-871 357,-901 479,-901 479,-871 357,-871"/>
<text text-anchor="start" x="365" y="-889" font-family="Helvetica,sans-Serif" font-size="10.00">TMC2130Stepper::LOST</text>
<text text-anchor="middle" x="418" y="-878" font-family="Helvetica,sans-Serif" font-size="10.00">_STEPS</text>
</a>
</g>
</g>
<!-- Node5&#45;&gt;Node122 -->
<g id="edge21" class="edge"><title>Node5&#45;&gt;Node122</title>
<path fill="none" stroke="midnightblue" d="M593.243,-1242.12C583.592,-1175.23 549.324,-959.809 502,-911 495.715,-904.517 487.816,-899.7 479.406,-896.124"/>
<polygon fill="midnightblue" stroke="midnightblue" points="589.8,-1242.76 594.669,-1252.17 596.731,-1241.78 589.8,-1242.76"/>
</g>
<!-- Node123 -->
<g id="node19" class="node"><title>Node123</title>
<g id="a_node19"><a xlink:href="class_t_m_c2160_stepper.html#a6e35363428a742e1e14cf225e683fa4c" target="_top" xlink:title=" ">
<polygon fill="white" stroke="black" points="334,-832.5 334,-851.5 502,-851.5 502,-832.5 334,-832.5"/>
<text text-anchor="middle" x="418" y="-839.5" font-family="Helvetica,sans-Serif" font-size="10.00">TMC2160Stepper::OFFSET_READ</text>
</a>
</g>
</g>
<!-- Node5&#45;&gt;Node123 -->
<g id="edge22" class="edge"><title>Node5&#45;&gt;Node123</title>
<path fill="none" stroke="midnightblue" d="M594.087,-1242.07C586.655,-1168.85 557.337,-916.049 502,-861 498.227,-857.247 493.874,-854.174 489.179,-851.663"/>
<polygon fill="midnightblue" stroke="midnightblue" points="590.624,-1242.62 595.092,-1252.23 597.59,-1241.93 590.624,-1242.62"/>
</g>
<!-- Node124 -->
<g id="node20" class="node"><title>Node124</title>
<g id="a_node20"><a xlink:href="class_t_m_c5160_stepper.html#a7e8ae217437e9ca5ab353cb7a9d30b82" target="_top" xlink:title=" ">
<polygon fill="white" stroke="red" points="341,-1787.5 341,-1806.5 495,-1806.5 495,-1787.5 341,-1787.5"/>
<text text-anchor="middle" x="418" y="-1794.5" font-family="Helvetica,sans-Serif" font-size="10.00">TMC5160Stepper::PWM_AUTO</text>
</a>
</g>
</g>
<!-- Node5&#45;&gt;Node124 -->
<g id="edge23" class="edge"><title>Node5&#45;&gt;Node124</title>
<path fill="none" stroke="midnightblue" d="M595.202,-1282.13C591.376,-1368.26 572.089,-1704.7 502,-1778 498.424,-1781.74 494.275,-1784.81 489.776,-1787.33"/>
<polygon fill="midnightblue" stroke="midnightblue" points="598.71,-1282.03 595.635,-1271.89 591.716,-1281.73 598.71,-1282.03"/>
</g>
<!-- Node127 -->
<g id="node21" class="node"><title>Node127</title>
<g id="a_node21"><a xlink:href="class_t_m_c2130_stepper.html#ad207fa693692567d117d4b02c217a4e9" target="_top" xlink:title=" ">
<polygon fill="white" stroke="black" points="357,-1738 357,-1768 479,-1768 479,-1738 357,-1738"/>
<text text-anchor="start" x="365" y="-1756" font-family="Helvetica,sans-Serif" font-size="10.00">TMC2130Stepper::PWM</text>
<text text-anchor="middle" x="418" y="-1745" font-family="Helvetica,sans-Serif" font-size="10.00">_SCALE</text>
</a>
</g>
</g>
<!-- Node5&#45;&gt;Node127 -->
<g id="edge24" class="edge"><title>Node5&#45;&gt;Node127</title>
<path fill="none" stroke="midnightblue" d="M594.689,-1281.89C589.005,-1362.24 563.923,-1661.72 502,-1729 495.803,-1735.73 487.847,-1740.62 479.322,-1744.16"/>
<polygon fill="midnightblue" stroke="midnightblue" points="598.197,-1281.9 595.389,-1271.68 591.214,-1281.42 598.197,-1281.9"/>
</g>
<!-- Node128 -->
<g id="node22" class="node"><title>Node128</title>
<g id="a_node22"><a xlink:href="class_t_m_c2160_stepper.html#a105381369f3d6267e907ff4ea0b31aac" target="_top" xlink:title=" ">
<polygon fill="white" stroke="red" points="357,-1689 357,-1719 479,-1719 479,-1689 357,-1689"/>
<text text-anchor="start" x="365" y="-1707" font-family="Helvetica,sans-Serif" font-size="10.00">TMC2160Stepper::PWM</text>
<text text-anchor="middle" x="418" y="-1696" font-family="Helvetica,sans-Serif" font-size="10.00">_SCALE</text>
</a>
</g>
</g>
<!-- Node5&#45;&gt;Node128 -->
<g id="edge25" class="edge"><title>Node5&#45;&gt;Node128</title>
<path fill="none" stroke="midnightblue" d="M594.127,-1282.1C586.748,-1357.13 557.338,-1619.6 502,-1679 495.743,-1685.72 487.755,-1690.65 479.216,-1694.27"/>
<polygon fill="midnightblue" stroke="midnightblue" points="597.651,-1282.01 595.123,-1271.73 590.683,-1281.35 597.651,-1282.01"/>
</g>
<!-- Node131 -->
<g id="node23" class="node"><title>Node131</title>
<g id="a_node23"><a xlink:href="class_t_m_c5130_stepper.html#a1acd1a115fcf4dc050b3b0948cff9dc4" target="_top" xlink:title=" ">
<polygon fill="white" stroke="black" points="340.5,-1650.5 340.5,-1669.5 495.5,-1669.5 495.5,-1650.5 340.5,-1650.5"/>
<text text-anchor="middle" x="418" y="-1657.5" font-family="Helvetica,sans-Serif" font-size="10.00">TMC5130Stepper::RAMP_STAT</text>
</a>
</g>
</g>
<!-- Node5&#45;&gt;Node131 -->
<g id="edge26" class="edge"><title>Node5&#45;&gt;Node131</title>
<path fill="none" stroke="midnightblue" d="M593.819,-1281.73C585.644,-1352.11 554.575,-1589.37 502,-1641 498.098,-1644.83 493.59,-1647.95 488.732,-1650.49"/>
<polygon fill="midnightblue" stroke="midnightblue" points="597.32,-1281.92 594.971,-1271.59 590.364,-1281.13 597.32,-1281.92"/>
</g>
<!-- Node132 -->
<g id="node24" class="node"><title>Node132</title>
<g id="a_node24"><a xlink:href="class_t_m_c5130_stepper.html#a020e6ae2a6abce1a92338345aab2ae7c" target="_top" xlink:title=" ">
<polygon fill="white" stroke="red" points="340.5,-1612.5 340.5,-1631.5 495.5,-1631.5 495.5,-1612.5 340.5,-1612.5"/>
<text text-anchor="middle" x="418" y="-1619.5" font-family="Helvetica,sans-Serif" font-size="10.00">TMC5130Stepper::RAMPMODE</text>
</a>
</g>
</g>
<!-- Node5&#45;&gt;Node132 -->
<g id="edge27" class="edge"><title>Node5&#45;&gt;Node132</title>
<path fill="none" stroke="midnightblue" d="M593.221,-1281.85C583.606,-1347.69 549.713,-1557.34 502,-1603 498.048,-1606.78 493.505,-1609.87 488.624,-1612.38"/>
<polygon fill="midnightblue" stroke="midnightblue" points="596.734,-1282 594.688,-1271.61 589.805,-1281.01 596.734,-1282"/>
</g>
<!-- Node134 -->
<g id="node25" class="node"><title>Node134</title>
<g id="a_node25"><a xlink:href="class_t_m_c5130_stepper.html#af78bc5ec6076b4e7ac8006488b069413" target="_top" xlink:title=" ">
<polygon fill="white" stroke="red" points="343.5,-1574.5 343.5,-1593.5 492.5,-1593.5 492.5,-1574.5 343.5,-1574.5"/>
<text text-anchor="middle" x="418" y="-1581.5" font-family="Helvetica,sans-Serif" font-size="10.00">TMC5130Stepper::SW_MODE</text>
</a>
</g>
</g>
<!-- Node5&#45;&gt;Node134 -->
<g id="edge28" class="edge"><title>Node5&#45;&gt;Node134</title>
<path fill="none" stroke="midnightblue" d="M596.184,-1281.94C595.539,-1336.12 585.919,-1487.21 502,-1565 497.88,-1568.82 493.155,-1571.92 488.094,-1574.44"/>
<polygon fill="midnightblue" stroke="midnightblue" points="599.685,-1281.65 596.207,-1271.64 592.685,-1281.64 599.685,-1281.65"/>
</g>
<!-- Node135 -->
<g id="node26" class="node"><title>Node135</title>
<g id="a_node26"><a xlink:href="class_t_m_c5130_stepper.html#acd29f5c1f0f47342dd2d942c9c5252c1" target="_top" xlink:title=" ">
<polygon fill="white" stroke="black" points="347,-1536.5 347,-1555.5 489,-1555.5 489,-1536.5 347,-1536.5"/>
<text text-anchor="middle" x="418" y="-1543.5" font-family="Helvetica,sans-Serif" font-size="10.00">TMC5130Stepper::VACTUAL</text>
</a>
</g>
</g>
<!-- Node5&#45;&gt;Node135 -->
<g id="edge29" class="edge"><title>Node5&#45;&gt;Node135</title>
<path fill="none" stroke="midnightblue" d="M595.173,-1281.75C591.991,-1331.1 576.58,-1460.59 502,-1527 497.694,-1530.83 492.774,-1533.94 487.527,-1536.45"/>
<polygon fill="midnightblue" stroke="midnightblue" points="598.669,-1281.92 595.716,-1271.75 591.679,-1281.54 598.669,-1281.92"/>
</g>
<!-- Node136 -->
<g id="node27" class="node"><title>Node136</title>
<g id="a_node27"><a xlink:href="class_t_m_c5130_stepper.html#a432764a59619856079ecfb56ee426f2d" target="_top" xlink:title=" ">
<polygon fill="white" stroke="black" points="354,-1498.5 354,-1517.5 482,-1517.5 482,-1498.5 354,-1498.5"/>
<text text-anchor="middle" x="418" y="-1505.5" font-family="Helvetica,sans-Serif" font-size="10.00">TMC5130Stepper::X_ENC</text>
</a>
</g>
</g>
<!-- Node5&#45;&gt;Node136 -->
<g id="edge30" class="edge"><title>Node5&#45;&gt;Node136</title>
<path fill="none" stroke="midnightblue" d="M593.876,-1281.57C587.993,-1325.78 567.337,-1433.79 502,-1489 496.242,-1493.87 489.484,-1497.55 482.353,-1500.32"/>
<polygon fill="midnightblue" stroke="midnightblue" points="597.361,-1281.9 595.096,-1271.55 590.412,-1281.06 597.361,-1281.9"/>
</g>
<!-- Node137 -->
<g id="node28" class="node"><title>Node137</title>
<g id="a_node28"><a xlink:href="class_t_m_c5130_stepper.html#a7ddd27bea8034e6aec78ab2cf83cedd4" target="_top" xlink:title=" ">
<polygon fill="white" stroke="red" points="157.5,-737.5 157.5,-756.5 297.5,-756.5 297.5,-737.5 157.5,-737.5"/>
<text text-anchor="middle" x="227.5" y="-744.5" font-family="Helvetica,sans-Serif" font-size="10.00">TMC5130Stepper::XACTUAL</text>
</a>
</g>
</g>
<!-- Node5&#45;&gt;Node137 -->
<g id="edge31" class="edge"><title>Node5&#45;&gt;Node137</title>
<path fill="none" stroke="midnightblue" d="M595.162,-1242.13C591.236,-1159.26 571.802,-842.497 502,-778 440.228,-720.923 334.121,-727.674 273.837,-737.468"/>
<polygon fill="midnightblue" stroke="midnightblue" points="591.67,-1242.39 595.617,-1252.22 598.663,-1242.07 591.67,-1242.39"/>
</g>
<!-- Node138 -->
<g id="node29" class="node"><title>Node138</title>
<g id="a_node29"><a xlink:href="class_t_m_c2130_stepper.html#af486cd4712be021c735fc3bcb8eee9f5" target="_top" xlink:title=" ">
<polygon fill="white" stroke="red" points="349.5,-1460.5 349.5,-1479.5 486.5,-1479.5 486.5,-1460.5 349.5,-1460.5"/>
<text text-anchor="middle" x="418" y="-1467.5" font-family="Helvetica,sans-Serif" font-size="10.00">TMC2130Stepper::XDIRECT</text>
</a>
</g>
</g>
<!-- Node5&#45;&gt;Node138 -->
<g id="edge33" class="edge"><title>Node5&#45;&gt;Node138</title>
<path fill="none" stroke="midnightblue" d="M592.064,-1281.68C583.235,-1320.47 558.074,-1406.83 502,-1451 497.123,-1454.84 491.611,-1457.93 485.806,-1460.42"/>
<polygon fill="midnightblue" stroke="midnightblue" points="595.535,-1282.19 594.215,-1271.67 588.692,-1280.72 595.535,-1282.19"/>
</g>
<!-- Node141 -->
<g id="node30" class="node"><title>Node141</title>
<g id="a_node30"><a xlink:href="class_t_m_c5130_stepper.html#aa027fe70ea5dc43b7bb0ac4452b4cbc3" target="_top" xlink:title=" ">
<polygon fill="white" stroke="black" points="351,-1422.5 351,-1441.5 485,-1441.5 485,-1422.5 351,-1422.5"/>
<text text-anchor="middle" x="418" y="-1429.5" font-family="Helvetica,sans-Serif" font-size="10.00">TMC5130Stepper::XLATCH</text>
</a>
</g>
</g>
<!-- Node5&#45;&gt;Node141 -->
<g id="edge34" class="edge"><title>Node5&#45;&gt;Node141</title>
<path fill="none" stroke="midnightblue" d="M589.588,-1281.28C577.736,-1313.82 549.209,-1379.33 502,-1413 496.584,-1416.86 490.508,-1419.95 484.17,-1422.43"/>
<polygon fill="midnightblue" stroke="midnightblue" points="592.974,-1282.21 592.971,-1271.61 586.366,-1279.89 592.974,-1282.21"/>
</g>
<!-- Node142 -->
<g id="node31" class="node"><title>Node142</title>
<g id="a_node31"><a xlink:href="class_t_m_c5130_stepper.html#ae33c13bf7dc95cd8a8a4d8e1c444f9e5" target="_top" xlink:title=" ">
<polygon fill="white" stroke="black" points="157,-794.5 157,-813.5 298,-813.5 298,-794.5 157,-794.5"/>
<text text-anchor="middle" x="227.5" y="-801.5" font-family="Helvetica,sans-Serif" font-size="10.00">TMC5130Stepper::XTARGET</text>
</a>
</g>
</g>
<!-- Node5&#45;&gt;Node142 -->
<g id="edge35" class="edge"><title>Node5&#45;&gt;Node142</title>
<path fill="none" stroke="midnightblue" d="M594.802,-1241.94C589.676,-1163.52 566.819,-879.236 502,-823 435.128,-764.984 321.051,-781.243 263.665,-794.472"/>
<polygon fill="midnightblue" stroke="midnightblue" points="591.335,-1242.57 595.454,-1252.33 598.321,-1242.13 591.335,-1242.57"/>
</g>
<!-- Node6&#45;&gt;Node2 -->
<g id="edge6" class="edge"><title>Node6&#45;&gt;Node2</title>
<path fill="none" stroke="midnightblue" d="M331.826,-1306C317.096,-1306 302.067,-1306 288.197,-1306"/>
<polygon fill="midnightblue" stroke="midnightblue" points="331.958,-1309.5 341.958,-1306 331.958,-1302.5 331.958,-1309.5"/>
</g>
<!-- Node6&#45;&gt;Node3 -->
<g id="edge7" class="edge"><title>Node6&#45;&gt;Node3</title>
<path fill="none" stroke="midnightblue" d="M339.296,-1291.32C337.442,-1289.99 335.671,-1288.55 334,-1287 231.076,-1191.28 227.577,-998.087 228.239,-952.701"/>
<polygon fill="midnightblue" stroke="midnightblue" points="337.513,-1294.33 347.892,-1296.45 341.104,-1288.32 337.513,-1294.33"/>
</g>
<!-- Node54&#45;&gt;Node2 -->
<g id="edge15" class="edge"><title>Node54&#45;&gt;Node2</title>
<path fill="none" stroke="midnightblue" d="M342.389,-1057.17C339.431,-1058.89 336.615,-1060.83 334,-1063 256.518,-1127.36 234.395,-1259.44 229.619,-1296.27"/>
<polygon fill="midnightblue" stroke="midnightblue" points="344.215,-1060.17 351.636,-1052.61 341.12,-1053.89 344.215,-1060.17"/>
</g>
<!-- Node54&#45;&gt;Node3 -->
<g id="edge16" class="edge"><title>Node54&#45;&gt;Node3</title>
<path fill="none" stroke="midnightblue" d="M350.454,-1031.53C344.779,-1029.64 339.219,-1027.48 334,-1025 293.967,-1006.01 254.943,-969.712 237.708,-952.502"/>
<polygon fill="midnightblue" stroke="midnightblue" points="349.488,-1034.89 360.073,-1034.45 351.523,-1028.19 349.488,-1034.89"/>
</g>
<!-- Node137&#45;&gt;Node4 -->
<g id="edge32" class="edge"><title>Node137&#45;&gt;Node4</title>
<path fill="none" stroke="midnightblue" d="M189.076,-759.928C158.716,-770.416 116.604,-784.964 89.2074,-794.428"/>
<polygon fill="midnightblue" stroke="midnightblue" points="190.574,-763.114 198.883,-756.541 188.288,-756.498 190.574,-763.114"/>
</g>
<!-- Node142&#45;&gt;Node4 -->
<g id="edge36" class="edge"><title>Node142&#45;&gt;Node4</title>
<path fill="none" stroke="midnightblue" d="M146.255,-804C137.803,-804 129.32,-804 121.16,-804"/>
<polygon fill="midnightblue" stroke="midnightblue" points="146.525,-807.5 156.525,-804 146.525,-800.5 146.525,-807.5"/>
</g>
<!-- Node144 -->
<g id="node33" class="node"><title>Node144</title>
<g id="a_node33"><a xlink:href="class_t_m_c5130_stepper.html#a76052c6b0797d7f5707167f9dc38c070" target="_top" xlink:title=" ">
<polygon fill="white" stroke="black" points="363,-190.5 363,-209.5 473,-209.5 473,-190.5 363,-190.5"/>
<text text-anchor="middle" x="418" y="-197.5" font-family="Helvetica,sans-Serif" font-size="10.00">TMC5130Stepper::A1</text>
</a>
</g>
</g>
<!-- Node143&#45;&gt;Node144 -->
<g id="edge38" class="edge"><title>Node143&#45;&gt;Node144</title>
<path fill="none" stroke="midnightblue" d="M588.614,-338.966C575.806,-308.592 546.503,-249.486 502,-219 493.463,-213.152 483.389,-209.082 473.257,-206.254"/>
<polygon fill="midnightblue" stroke="midnightblue" points="585.448,-340.471 592.455,-348.418 591.933,-337.836 585.448,-340.471"/>
</g>
<!-- Node145 -->
<g id="node34" class="node"><title>Node145</title>
<g id="a_node34"><a xlink:href="class_t_m_c5130_stepper.html#a967f67e12de5fc725f34d1f07e751146" target="_top" xlink:title=" ">
<polygon fill="white" stroke="black" points="355.5,-152.5 355.5,-171.5 480.5,-171.5 480.5,-152.5 355.5,-152.5"/>
<text text-anchor="middle" x="418" y="-159.5" font-family="Helvetica,sans-Serif" font-size="10.00">TMC5130Stepper::AMAX</text>
</a>
</g>
</g>
<!-- Node143&#45;&gt;Node145 -->
<g id="edge39" class="edge"><title>Node143&#45;&gt;Node145</title>
<path fill="none" stroke="midnightblue" d="M591.274,-338.035C581.423,-300.982 555.061,-221.658 502,-181 495.664,-176.145 488.308,-172.493 480.644,-169.752"/>
<polygon fill="midnightblue" stroke="midnightblue" points="587.971,-339.248 593.813,-348.087 594.758,-337.534 587.971,-339.248"/>
</g>
<!-- Node146 -->
<g id="node35" class="node"><title>Node146</title>
<g id="a_node35"><a xlink:href="class_t_m_c2130_stepper.html#a8f881532eca7813597a1292ed060d18c" target="_top" xlink:title=" ">
<polygon fill="white" stroke="black" points="342,-114.5 342,-133.5 494,-133.5 494,-114.5 342,-114.5"/>
<text text-anchor="middle" x="418" y="-121.5" font-family="Helvetica,sans-Serif" font-size="10.00">TMC2130Stepper::CHOPCONF</text>
</a>
</g>
</g>
<!-- Node143&#45;&gt;Node146 -->
<g id="edge40" class="edge"><title>Node143&#45;&gt;Node146</title>
<path fill="none" stroke="midnightblue" d="M593.357,-338.318C586.551,-295.719 564.359,-194.659 502,-143 497.333,-139.134 492.031,-136.018 486.419,-133.513"/>
<polygon fill="midnightblue" stroke="midnightblue" points="589.934,-339.097 594.86,-348.477 596.859,-338.073 589.934,-339.097"/>
</g>
<!-- Node147 -->
<g id="node36" class="node"><title>Node147</title>
<g id="a_node36"><a xlink:href="class_t_m_c2130_stepper.html#a11e7ca8148bc856a18af9fa0394a647d" target="_top" xlink:title=" ">
<polygon fill="white" stroke="black" points="355.5,-76.5 355.5,-95.5 480.5,-95.5 480.5,-76.5 355.5,-76.5"/>
<text text-anchor="middle" x="418" y="-83.5" font-family="Helvetica,sans-Serif" font-size="10.00">TMC2130Stepper::coil_A</text>
</a>
</g>
</g>
<!-- Node143&#45;&gt;Node147 -->
<g id="edge41" class="edge"><title>Node143&#45;&gt;Node147</title>
<path fill="none" stroke="midnightblue" d="M594.791,-338.195C590.757,-290.35 573.594,-167.799 502,-105 495.888,-99.6387 488.571,-95.704 480.849,-92.8305"/>
<polygon fill="midnightblue" stroke="midnightblue" points="591.319,-338.714 595.544,-348.43 598.301,-338.201 591.319,-338.714"/>
</g>
<!-- Node148 -->
<g id="node37" class="node"><title>Node148</title>
<g id="a_node37"><a xlink:href="class_t_m_c2130_stepper.html#a40464704d8da6ad1998cb0c1ea564cce" target="_top" xlink:title=" ">
<polygon fill="white" stroke="black" points="355.5,-38.5 355.5,-57.5 480.5,-57.5 480.5,-38.5 355.5,-38.5"/>
<text text-anchor="middle" x="418" y="-45.5" font-family="Helvetica,sans-Serif" font-size="10.00">TMC2130Stepper::coil_B</text>
</a>
</g>
</g>
<!-- Node143&#45;&gt;Node148 -->
<g id="edge42" class="edge"><title>Node143&#45;&gt;Node148</title>
<path fill="none" stroke="midnightblue" d="M595.89,-338.147C594.463,-285.481 582.975,-141.189 502,-67 495.896,-61.4078 488.491,-57.353 480.646,-54.4305"/>
<polygon fill="midnightblue" stroke="midnightblue" points="592.396,-338.516 596.067,-348.454 599.395,-338.396 592.396,-338.516"/>
</g>
<!-- Node149 -->
<g id="node38" class="node"><title>Node149</title>
<g id="a_node38"><a xlink:href="class_t_m_c2130_stepper.html#afc1072e86397d2646fd4fb7b30e41ab8" target="_top" xlink:title=" ">
<polygon fill="white" stroke="black" points="342,-0.5 342,-19.5 494,-19.5 494,-0.5 342,-0.5"/>
<text text-anchor="middle" x="418" y="-7.5" font-family="Helvetica,sans-Serif" font-size="10.00">TMC2130Stepper::COOLCONF</text>
</a>
</g>
</g>
<!-- Node143&#45;&gt;Node149 -->
<g id="edge43" class="edge"><title>Node143&#45;&gt;Node149</title>
<path fill="none" stroke="midnightblue" d="M596.754,-338.288C597.789,-281.281 592.541,-114.842 502,-29 498.031,-25.2368 493.475,-22.1646 488.586,-19.6621"/>
<polygon fill="midnightblue" stroke="midnightblue" points="593.251,-338.358 596.476,-348.45 600.248,-338.549 593.251,-338.358"/>
</g>
<!-- Node150 -->
<g id="node39" class="node"><title>Node150</title>
<g id="a_node39"><a xlink:href="class_t_m_c5130_stepper.html#abc7865021874083213e60aa77b7201d6" target="_top" xlink:title=" ">
<polygon fill="white" stroke="black" points="363,-680.5 363,-699.5 473,-699.5 473,-680.5 363,-680.5"/>
<text text-anchor="middle" x="418" y="-687.5" font-family="Helvetica,sans-Serif" font-size="10.00">TMC5130Stepper::D1</text>
</a>
</g>
</g>
<!-- Node143&#45;&gt;Node150 -->
<g id="edge44" class="edge"><title>Node143&#45;&gt;Node150</title>
<path fill="none" stroke="midnightblue" d="M596.415,-377.856C596.425,-433.149 588.458,-590.125 502,-671 494.011,-678.473 483.706,-683.213 473.09,-686.176"/>
<polygon fill="midnightblue" stroke="midnightblue" points="599.913,-377.63 596.317,-367.665 592.914,-377.698 599.913,-377.63"/>
</g>
<!-- Node151 -->
<g id="node40" class="node"><title>Node151</title>
<g id="a_node40"><a xlink:href="class_t_m_c2130_stepper.html#a55ea165bcc2fc0da6395340f17e47611" target="_top" xlink:title=" ">
<polygon fill="white" stroke="black" points="356,-642.5 356,-661.5 480,-661.5 480,-642.5 356,-642.5"/>
<text text-anchor="middle" x="418" y="-649.5" font-family="Helvetica,sans-Serif" font-size="10.00">TMC2130Stepper::dc_sg</text>
</a>
</g>
</g>
<!-- Node143&#45;&gt;Node151 -->
<g id="edge45" class="edge"><title>Node143&#45;&gt;Node151</title>
<path fill="none" stroke="midnightblue" d="M595.463,-377.786C592.966,-428.426 579.037,-563.608 502,-633 495.739,-638.639 488.152,-642.709 480.139,-645.629"/>
<polygon fill="midnightblue" stroke="midnightblue" points="598.969,-377.691 595.863,-367.562 591.975,-377.417 598.969,-377.691"/>
</g>
<!-- Node152 -->
<g id="node41" class="node"><title>Node152</title>
<g id="a_node41"><a xlink:href="class_t_m_c2130_stepper.html#a5b90d46cecffc6511b6bb95943b30bdb" target="_top" xlink:title=" ">
<polygon fill="white" stroke="black" points="352,-604.5 352,-623.5 484,-623.5 484,-604.5 352,-604.5"/>
<text text-anchor="middle" x="418" y="-611.5" font-family="Helvetica,sans-Serif" font-size="10.00">TMC2130Stepper::dc_time</text>
</a>
</g>
</g>
<!-- Node143&#45;&gt;Node152 -->
<g id="edge46" class="edge"><title>Node143&#45;&gt;Node152</title>
<path fill="none" stroke="midnightblue" d="M594.196,-378.117C588.956,-424.038 569.512,-537.074 502,-595 496.727,-599.524 490.593,-603.028 484.091,-605.732"/>
<polygon fill="midnightblue" stroke="midnightblue" points="597.698,-378.268 595.242,-367.962 590.735,-377.551 597.698,-378.268"/>
</g>
<!-- Node153 -->
<g id="node42" class="node"><title>Node153</title>
<g id="a_node42"><a xlink:href="class_t_m_c2130_stepper.html#ae9a34eefa766c1c5f8bda09acb1e61c1" target="_top" xlink:title=" ">
<polygon fill="white" stroke="black" points="350.5,-566.5 350.5,-585.5 485.5,-585.5 485.5,-566.5 350.5,-566.5"/>
<text text-anchor="middle" x="418" y="-573.5" font-family="Helvetica,sans-Serif" font-size="10.00">TMC2130Stepper::DCCTRL</text>
</a>
</g>
</g>
<!-- Node143&#45;&gt;Node153 -->
<g id="edge47" class="edge"><title>Node143&#45;&gt;Node153</title>
<path fill="none" stroke="midnightblue" d="M592.612,-377.613C584.586,-417.861 560.516,-509.944 502,-557 497.162,-560.891 491.677,-564.016 485.888,-566.523"/>
<polygon fill="midnightblue" stroke="midnightblue" points="596.064,-378.19 594.465,-367.717 589.184,-376.901 596.064,-378.19"/>
</g>
<!-- Node154 -->
<g id="node43" class="node"><title>Node154</title>
<g id="a_node43"><a xlink:href="class_t_m_c5130_stepper.html#a6fc018f81c10dd3307d55b31d070b816" target="_top" xlink:title=" ">
<polygon fill="white" stroke="black" points="355.5,-528.5 355.5,-547.5 480.5,-547.5 480.5,-528.5 355.5,-528.5"/>
<text text-anchor="middle" x="418" y="-535.5" font-family="Helvetica,sans-Serif" font-size="10.00">TMC5130Stepper::DMAX</text>
</a>
</g>
</g>
<!-- Node143&#45;&gt;Node154 -->
<g id="edge48" class="edge"><title>Node143&#45;&gt;Node154</title>
<path fill="none" stroke="midnightblue" d="M590.271,-377.6C579.183,-411.918 551.425,-482.684 502,-519 495.686,-523.639 488.429,-527.172 480.89,-529.857"/>
<polygon fill="midnightblue" stroke="midnightblue" points="593.682,-378.416 593.291,-367.828 586.994,-376.349 593.682,-378.416"/>
</g>
<!-- Node155 -->
<g id="node44" class="node"><title>Node155</title>
<g id="a_node44"><a xlink:href="class_t_m_c2160_stepper.html#a6aec416cc563c9a195929bfd36e1707a" target="_top" xlink:title=" ">
<polygon fill="white" stroke="black" points="343,-490.5 343,-509.5 493,-509.5 493,-490.5 343,-490.5"/>
<text text-anchor="middle" x="418" y="-497.5" font-family="Helvetica,sans-Serif" font-size="10.00">TMC2160Stepper::DRV_CONF</text>
</a>
</g>
</g>
<!-- Node143&#45;&gt;Node155 -->
<g id="edge49" class="edge"><title>Node143&#45;&gt;Node155</title>
<path fill="none" stroke="midnightblue" d="M586.742,-376.947C572.449,-404.133 542.38,-453.81 502,-480 495.285,-484.355 487.71,-487.763 479.936,-490.43"/>
<polygon fill="midnightblue" stroke="midnightblue" points="590.02,-378.224 591.437,-367.724 583.781,-375.048 590.02,-378.224"/>
</g>
<!-- Node156 -->
<g id="node45" class="node"><title>Node156</title>
<g id="a_node45"><a xlink:href="class_t_m_c5130_stepper.html#a4e170413a630ba0037569cb2cb96351c" target="_top" xlink:title=" ">
<polygon fill="white" stroke="black" points="359,-441 359,-471 477,-471 477,-441 359,-441"/>
<text text-anchor="start" x="367" y="-459" font-family="Helvetica,sans-Serif" font-size="10.00">TMC5130Stepper::ENC</text>
<text text-anchor="middle" x="418" y="-448" font-family="Helvetica,sans-Serif" font-size="10.00">_CONST</text>
</a>
</g>
</g>
<!-- Node143&#45;&gt;Node156 -->
<g id="edge50" class="edge"><title>Node143&#45;&gt;Node156</title>
<path fill="none" stroke="midnightblue" d="M578.796,-374.569C560.91,-390.98 531.457,-415.797 502,-431 494.244,-435.003 485.741,-438.475 477.229,-441.452"/>
<polygon fill="midnightblue" stroke="midnightblue" points="581.244,-377.072 586.158,-367.685 576.463,-371.959 581.244,-377.072"/>
</g>
<!-- Node157 -->
<g id="node46" class="node"><title>Node157</title>
<g id="a_node46"><a xlink:href="class_t_m_c5160_stepper.html#a42b5bd196fdbb78044b669342384ec28" target="_top" xlink:title=" ">
<polygon fill="white" stroke="black" points="359,-392 359,-422 477,-422 477,-392 359,-392"/>
<text text-anchor="start" x="367" y="-410" font-family="Helvetica,sans-Serif" font-size="10.00">TMC5160Stepper::ENC</text>
<text text-anchor="middle" x="418" y="-399" font-family="Helvetica,sans-Serif" font-size="10.00">_DEVIATION</text>
</a>
</g>
</g>
<!-- Node143&#45;&gt;Node157 -->
<g id="edge51" class="edge"><title>Node143&#45;&gt;Node157</title>
<path fill="none" stroke="midnightblue" d="M551.65,-370.278C527.896,-376.854 498.436,-385.009 473.317,-391.963"/>
<polygon fill="midnightblue" stroke="midnightblue" points="552.749,-373.605 561.452,-367.564 550.881,-366.859 552.749,-373.605"/>
</g>
<!-- Node158 -->
<g id="node47" class="node"><title>Node158</title>
<g id="a_node47"><a xlink:href="class_t_m_c5160_stepper.html#a5b60cb0c1913fc270311011223782363" target="_top" xlink:title=" ">
<polygon fill="white" stroke="black" points="359,-343 359,-373 477,-373 477,-343 359,-343"/>
<text text-anchor="start" x="367" y="-361" font-family="Helvetica,sans-Serif" font-size="10.00">TMC5160Stepper::ENC</text>
<text text-anchor="middle" x="418" y="-350" font-family="Helvetica,sans-Serif" font-size="10.00">_STATUS</text>
</a>
</g>
</g>
<!-- Node143&#45;&gt;Node158 -->
<g id="edge52" class="edge"><title>Node143&#45;&gt;Node158</title>
<path fill="none" stroke="midnightblue" d="M527.36,-358C510.75,-358 493.155,-358 477.084,-358"/>
<polygon fill="midnightblue" stroke="midnightblue" points="527.553,-361.5 537.553,-358 527.553,-354.5 527.553,-361.5"/>
</g>
<!-- Node159 -->
<g id="node48" class="node"><title>Node159</title>
<g id="a_node48"><a xlink:href="class_t_m_c2130_stepper.html#af193f7a3cecbeff29d0db36a2c8b3094" target="_top" xlink:title=" ">
<polygon fill="white" stroke="black" points="340.5,-304.5 340.5,-323.5 495.5,-323.5 495.5,-304.5 340.5,-304.5"/>
<text text-anchor="middle" x="418" y="-311.5" font-family="Helvetica,sans-Serif" font-size="10.00">TMC2130Stepper::ENCM_CTRL</text>
</a>
</g>
</g>
<!-- Node143&#45;&gt;Node159 -->
<g id="edge53" class="edge"><title>Node143&#45;&gt;Node159</title>
<path fill="none" stroke="midnightblue" d="M551.345,-345.783C535.762,-341.61 518.137,-336.991 502,-333 489.085,-329.805 474.992,-326.509 462.146,-323.576"/>
<polygon fill="midnightblue" stroke="midnightblue" points="550.689,-349.23 561.255,-348.449 552.508,-342.471 550.689,-349.23"/>
</g>
<!-- Node160 -->
<g id="node49" class="node"><title>Node160</title>
<g id="a_node49"><a xlink:href="class_t_m_c5130_stepper.html#aef59e4f446323c23418fe05051993e6f" target="_top" xlink:title=" ">
<polygon fill="white" stroke="black" points="344.5,-266.5 344.5,-285.5 491.5,-285.5 491.5,-266.5 344.5,-266.5"/>
<text text-anchor="middle" x="418" y="-273.5" font-family="Helvetica,sans-Serif" font-size="10.00">TMC5130Stepper::ENCMODE</text>
</a>
</g>
</g>
<!-- Node143&#45;&gt;Node160 -->
<g id="edge54" class="edge"><title>Node143&#45;&gt;Node160</title>
<path fill="none" stroke="midnightblue" d="M576.594,-341.871C558.402,-327.54 529.898,-307.051 502,-295 493.179,-291.19 483.487,-288.09 473.934,-285.584"/>
<polygon fill="midnightblue" stroke="midnightblue" points="574.662,-344.808 584.648,-348.347 579.048,-339.353 574.662,-344.808"/>
</g>
<!-- Node161 -->
<g id="node50" class="node"><title>Node161</title>
<g id="a_node50"><a xlink:href="class_t_m_c2160_stepper.html#a905cd46baa5574ef977964787379c30e" target="_top" xlink:title=" ">
<polygon fill="white" stroke="black" points="349,-228.5 349,-247.5 487,-247.5 487,-228.5 349,-228.5"/>
<text text-anchor="middle" x="418" y="-235.5" font-family="Helvetica,sans-Serif" font-size="10.00">TMC2160Stepper::freewheel</text>
</a>
</g>
</g>
<!-- Node143&#45;&gt;Node161 -->
<g id="edge55" class="edge"><title>Node143&#45;&gt;Node161</title>
<path fill="none" stroke="midnightblue" d="M584.365,-339.97C568.564,-317.01 538.11,-277.827 502,-257 495.213,-253.086 487.679,-249.978 479.998,-247.51"/>
<polygon fill="midnightblue" stroke="midnightblue" points="581.567,-342.082 590.038,-348.445 587.384,-338.188 581.567,-342.082"/>
</g>
</g>
</svg>
