<?xml version="1.0" encoding="UTF-8" standalone="no"?>
<!DOCTYPE svg PUBLIC "-//W3C//DTD SVG 1.1//EN"
 "http://www.w3.org/Graphics/SVG/1.1/DTD/svg11.dtd">
<!-- Generated by graphviz version 2.38.0 (20140413.2041)
 -->
<!-- Title: TMCStepper::MSCURACT Pages: 1 -->
<svg width="276pt" height="66pt"
 viewBox="0.00 0.00 276.00 66.00" xmlns="http://www.w3.org/2000/svg" xmlns:xlink="http://www.w3.org/1999/xlink">
<g id="graph0" class="graph" transform="scale(1 1) rotate(0) translate(4 62)">
<title>TMCStepper::MSCURACT</title>
<polygon fill="white" stroke="none" points="-4,4 -4,-62 272,-62 272,4 -4,4"/>
<!-- Node1 -->
<g id="node1" class="node"><title>Node1</title>
<g id="a_node1"><a xlink:title=" ">
<polygon fill="#bfbfbf" stroke="black" points="137,-19.5 137,-38.5 268,-38.5 268,-19.5 137,-19.5"/>
<text text-anchor="middle" x="202.5" y="-26.5" font-family="Helvetica,sans-Serif" font-size="10.00">TMCStepper::MSCURACT</text>
</a>
</g>
</g>
<!-- Node2 -->
<g id="node2" class="node"><title>Node2</title>
<g id="a_node2"><a xlink:href="class_t_m_c_stepper.html#a58d924967fb53750c162d0e9c4d2020c" target="_top" xlink:title=" ">
<polygon fill="white" stroke="black" points="0,-38.5 0,-57.5 101,-57.5 101,-38.5 0,-38.5"/>
<text text-anchor="middle" x="50.5" y="-45.5" font-family="Helvetica,sans-Serif" font-size="10.00">TMCStepper::cur_a</text>
</a>
</g>
</g>
<!-- Node1&#45;&gt;Node2 -->
<g id="edge1" class="edge"><title>Node1&#45;&gt;Node2</title>
<path fill="none" stroke="midnightblue" d="M126.505,-38.4994C117.899,-39.5895 109.293,-40.6795 101.14,-41.7122"/>
<polygon fill="midnightblue" stroke="midnightblue" points="127.099,-41.9521 136.58,-37.2232 126.22,-35.0076 127.099,-41.9521"/>
</g>
<!-- Node3 -->
<g id="node3" class="node"><title>Node3</title>
<g id="a_node3"><a xlink:href="class_t_m_c_stepper.html#ac7451afd82d3ebac91fe607d4bab65f8" target="_top" xlink:title=" ">
<polygon fill="white" stroke="black" points="0,-0.5 0,-19.5 101,-19.5 101,-0.5 0,-0.5"/>
<text text-anchor="middle" x="50.5" y="-7.5" font-family="Helvetica,sans-Serif" font-size="10.00">TMCStepper::cur_b</text>
</a>
</g>
</g>
<!-- Node1&#45;&gt;Node3 -->
<g id="edge2" class="edge"><title>Node1&#45;&gt;Node3</title>
<path fill="none" stroke="midnightblue" d="M126.505,-19.5006C117.899,-18.4105 109.293,-17.3205 101.14,-16.2878"/>
<polygon fill="midnightblue" stroke="midnightblue" points="126.22,-22.9924 136.58,-20.7768 127.099,-16.0479 126.22,-22.9924"/>
</g>
</g>
</svg>
