<?xml version="1.0" encoding="UTF-8" standalone="no"?>
<!DOCTYPE svg PUBLIC "-//W3C//DTD SVG 1.1//EN"
 "http://www.w3.org/Graphics/SVG/1.1/DTD/svg11.dtd">
<!-- Generated by graphviz version 2.38.0 (20140413.2041)
 -->
<!-- Title: TMC2209Stepper::dir Pages: 1 -->
<svg width="955pt" height="156pt"
 viewBox="0.00 0.00 955.00 156.41" xmlns="http://www.w3.org/2000/svg" xmlns:xlink="http://www.w3.org/1999/xlink">
<g id="graph0" class="graph" transform="scale(1 1) rotate(0) translate(4 152.405)">
<title>TMC2209Stepper::dir</title>
<polygon fill="white" stroke="none" points="-4,4 -4,-152.405 951,-152.405 951,4 -4,4"/>
<!-- Node1 -->
<g id="node1" class="node"><title>Node1</title>
<g id="a_node1"><a xlink:title=" ">
<polygon fill="#bfbfbf" stroke="black" points="0,-46.9052 0,-65.9052 108,-65.9052 108,-46.9052 0,-46.9052"/>
<text text-anchor="middle" x="54" y="-53.9052" font-family="Helvetica,sans-Serif" font-size="10.00">TMC2209Stepper::dir</text>
</a>
</g>
</g>
<!-- Node2 -->
<g id="node2" class="node"><title>Node2</title>
<g id="a_node2"><a xlink:href="class_t_m_c2209_stepper.html#aeab582b2f23d4e58f63aec80163b3838" target="_top" xlink:title=" ">
<polygon fill="white" stroke="black" points="144,-46.9052 144,-65.9052 260,-65.9052 260,-46.9052 144,-46.9052"/>
<text text-anchor="middle" x="202" y="-53.9052" font-family="Helvetica,sans-Serif" font-size="10.00">TMC2209Stepper::IOIN</text>
</a>
</g>
</g>
<!-- Node1&#45;&gt;Node2 -->
<g id="edge1" class="edge"><title>Node1&#45;&gt;Node2</title>
<path fill="none" stroke="midnightblue" d="M108.122,-56.4052C116.444,-56.4052 125.138,-56.4052 133.727,-56.4052"/>
<polygon fill="midnightblue" stroke="midnightblue" points="133.731,-59.9053 143.731,-56.4052 133.731,-52.9053 133.731,-59.9053"/>
</g>
<!-- Node3 -->
<g id="node3" class="node"><title>Node3</title>
<g id="a_node3"><a xlink:href="class_t_m_c2208_stepper.html#a2fae2050849c3ab7968012def8ea1cc5" target="_top" xlink:title=" ">
<polygon fill="white" stroke="black" points="296,-46.9052 296,-65.9052 412,-65.9052 412,-46.9052 296,-46.9052"/>
<text text-anchor="middle" x="354" y="-53.9052" font-family="Helvetica,sans-Serif" font-size="10.00">TMC2208Stepper::read</text>
</a>
</g>
</g>
<!-- Node2&#45;&gt;Node3 -->
<g id="edge2" class="edge"><title>Node2&#45;&gt;Node3</title>
<path fill="none" stroke="midnightblue" d="M260.136,-56.4052C268.377,-56.4052 276.923,-56.4052 285.344,-56.4052"/>
<polygon fill="midnightblue" stroke="midnightblue" points="285.526,-59.9053 295.525,-56.4052 285.525,-52.9053 285.526,-59.9053"/>
</g>
<!-- Node4 -->
<g id="node4" class="node"><title>Node4</title>
<g id="a_node4"><a xlink:href="class_t_m_c2208_stepper.html#a3e1f6a10aa1e3e41dc2594dbe1ea8a1d" target="_top" xlink:title=" ">
<polygon fill="white" stroke="black" points="448,-103.905 448,-122.905 614,-122.905 614,-103.905 448,-103.905"/>
<text text-anchor="middle" x="531" y="-110.905" font-family="Helvetica,sans-Serif" font-size="10.00">TMC2208Stepper::_sendDatagram</text>
</a>
</g>
</g>
<!-- Node3&#45;&gt;Node4 -->
<g id="edge3" class="edge"><title>Node3&#45;&gt;Node4</title>
<path fill="none" stroke="midnightblue" d="M375.7,-65.9833C394.317,-74.3262 422.568,-86.3205 448,-94.4052 456.008,-96.9508 464.555,-99.3114 472.996,-101.442"/>
<polygon fill="midnightblue" stroke="midnightblue" points="472.272,-104.868 482.816,-103.834 473.929,-98.0666 472.272,-104.868"/>
</g>
<!-- Node9 -->
<g id="node9" class="node"><title>Node9</title>
<g id="a_node9"><a xlink:href="class_s_switch.html#a6ff09d0850d551571dc333fb74ff8628" target="_top" xlink:title=" ">
<polygon fill="white" stroke="black" points="489.5,-65.9052 489.5,-84.9052 572.5,-84.9052 572.5,-65.9052 489.5,-65.9052"/>
<text text-anchor="middle" x="531" y="-72.9052" font-family="Helvetica,sans-Serif" font-size="10.00">SSwitch::active</text>
</a>
</g>
</g>
<!-- Node3&#45;&gt;Node9 -->
<g id="edge9" class="edge"><title>Node3&#45;&gt;Node9</title>
<path fill="none" stroke="midnightblue" d="M412.302,-62.6265C433.975,-64.9796 458.465,-67.6385 479.472,-69.9193"/>
<polygon fill="midnightblue" stroke="midnightblue" points="479.158,-73.4056 489.477,-71.0055 479.913,-66.4465 479.158,-73.4056"/>
</g>
<!-- Node10 -->
<g id="node10" class="node"><title>Node10</title>
<g id="a_node10"><a xlink:href="class_t_m_c2208_stepper.html#a409c19fa6b052a370a317d061bf9af4e" target="_top" xlink:title=" ">
<polygon fill="white" stroke="black" points="463,-27.9052 463,-46.9052 599,-46.9052 599,-27.9052 463,-27.9052"/>
<text text-anchor="middle" x="531" y="-34.9052" font-family="Helvetica,sans-Serif" font-size="10.00">TMC2208Stepper::calcCRC</text>
</a>
</g>
</g>
<!-- Node3&#45;&gt;Node10 -->
<g id="edge10" class="edge"><title>Node3&#45;&gt;Node10</title>
<path fill="none" stroke="midnightblue" d="M412.302,-50.1839C425.17,-48.7867 439.032,-47.2817 452.567,-45.8121"/>
<polygon fill="midnightblue" stroke="midnightblue" points="453.269,-49.2566 462.833,-44.6976 452.514,-42.2975 453.269,-49.2566"/>
</g>
<!-- Node5 -->
<g id="node5" class="node"><title>Node5</title>
<g id="a_node5"><a xlink:href="class_t_m_c2208_stepper.html#a4ec5d2b2f5a31259c7aba1f3208d63b8" target="_top" xlink:title=" ">
<polygon fill="white" stroke="black" points="664.5,-128.905 664.5,-147.905 780.5,-147.905 780.5,-128.905 664.5,-128.905"/>
<text text-anchor="middle" x="722.5" y="-135.905" font-family="Helvetica,sans-Serif" font-size="10.00">TMC2208Stepper::ms2</text>
</a>
</g>
</g>
<!-- Node4&#45;&gt;Node5 -->
<g id="edge4" class="edge"><title>Node4&#45;&gt;Node5</title>
<path fill="none" stroke="midnightblue" d="M604.182,-122.928C620.64,-125.099 638.062,-127.397 654.301,-129.54"/>
<polygon fill="midnightblue" stroke="midnightblue" points="653.868,-133.013 664.24,-130.851 654.784,-126.073 653.868,-133.013"/>
</g>
<!-- Node7 -->
<g id="node7" class="node"><title>Node7</title>
<g id="a_node7"><a xlink:href="class_t_m_c2208_stepper.html#ae561da4ec7c40830e97bf4dc8cf700fb" target="_top" xlink:title=" ">
<polygon fill="white" stroke="black" points="650,-90.9052 650,-109.905 795,-109.905 795,-90.9052 650,-90.9052"/>
<text text-anchor="middle" x="722.5" y="-97.9052" font-family="Helvetica,sans-Serif" font-size="10.00">TMC2208Stepper::serial_read</text>
</a>
</g>
</g>
<!-- Node4&#45;&gt;Node7 -->
<g id="edge7" class="edge"><title>Node4&#45;&gt;Node7</title>
<path fill="none" stroke="midnightblue" d="M614.015,-107.779C622.478,-107.198 631.078,-106.608 639.54,-106.028"/>
<polygon fill="midnightblue" stroke="midnightblue" points="640.038,-109.502 649.775,-105.326 639.559,-102.518 640.038,-109.502"/>
</g>
<!-- Node8 -->
<g id="node8" class="node"><title>Node8</title>
<g id="a_node8"><a xlink:href="class_t_m_c2208_stepper.html#a7dd83313385079099b0622957786a979" target="_top" xlink:title=" ">
<polygon fill="white" stroke="black" points="662,-41.4052 662,-71.4052 783,-71.4052 783,-41.4052 662,-41.4052"/>
<text text-anchor="start" x="670" y="-59.4052" font-family="Helvetica,sans-Serif" font-size="10.00">TMC2208Stepper::serial</text>
<text text-anchor="middle" x="722.5" y="-48.4052" font-family="Helvetica,sans-Serif" font-size="10.00">_write</text>
</a>
</g>
</g>
<!-- Node4&#45;&gt;Node8 -->
<g id="edge8" class="edge"><title>Node4&#45;&gt;Node8</title>
<path fill="none" stroke="midnightblue" d="M577.793,-103.808C589.658,-101.045 602.367,-97.8399 614,-94.4052 630.315,-89.5878 633.971,-87.1015 650,-81.4052 656.017,-79.2668 662.325,-77.0401 668.595,-74.8355"/>
<polygon fill="midnightblue" stroke="midnightblue" points="670.095,-78.0185 678.372,-71.4052 667.778,-71.4133 670.095,-78.0185"/>
</g>
<!-- Node6 -->
<g id="node6" class="node"><title>Node6</title>
<g id="a_node6"><a xlink:href="class_t_m_c2208_stepper.html#a5441dd87d0bcea4ffc309cb012166a57" target="_top" xlink:title=" ">
<polygon fill="white" stroke="black" points="831,-58.9052 831,-77.9052 947,-77.9052 947,-58.9052 831,-58.9052"/>
<text text-anchor="middle" x="889" y="-65.9052" font-family="Helvetica,sans-Serif" font-size="10.00">TMC2208Stepper::IOIN</text>
</a>
</g>
</g>
<!-- Node5&#45;&gt;Node6 -->
<g id="edge5" class="edge"><title>Node5&#45;&gt;Node6</title>
<path fill="none" stroke="midnightblue" d="M766.395,-128.814C775.954,-126.18 785.937,-123.032 795,-119.405 819.717,-109.514 846.177,-94.529 864.529,-83.3584"/>
<polygon fill="midnightblue" stroke="midnightblue" points="866.423,-86.3019 873.088,-78.0661 862.742,-80.348 866.423,-86.3019"/>
</g>
<!-- Node6&#45;&gt;Node3 -->
<g id="edge6" class="edge"><title>Node6&#45;&gt;Node3</title>
<path fill="none" stroke="midnightblue" d="M868.963,-58.8176C850.546,-50.0326 821.593,-37.4965 795,-31.4052 644.566,3.05335 599.437,11.3399 448,-18.4052 424.751,-22.9717 399.989,-33.3919 381.866,-42.1675"/>
<polygon fill="midnightblue" stroke="midnightblue" points="379.917,-39.2285 372.532,-46.826 383.043,-45.4917 379.917,-39.2285"/>
</g>
</g>
</svg>
