<?xml version="1.0" encoding="UTF-8" standalone="no"?>
<!DOCTYPE svg PUBLIC "-//W3C//DTD SVG 1.1//EN"
 "http://www.w3.org/Graphics/SVG/1.1/DTD/svg11.dtd">
<!-- Generated by graphviz version 2.38.0 (20140413.2041)
 -->
<!-- Title: TMC2208Stepper::toff Pages: 1 -->
<svg width="993pt" height="156pt"
 viewBox="0.00 0.00 993.00 156.41" xmlns="http://www.w3.org/2000/svg" xmlns:xlink="http://www.w3.org/1999/xlink">
<g id="graph0" class="graph" transform="scale(1 1) rotate(0) translate(4 152.405)">
<title>TMC2208Stepper::toff</title>
<polygon fill="white" stroke="none" points="-4,4 -4,-152.405 989,-152.405 989,4 -4,4"/>
<!-- Node1 -->
<g id="node1" class="node"><title>Node1</title>
<g id="a_node1"><a xlink:title=" ">
<polygon fill="#bfbfbf" stroke="black" points="0,-46.9052 0,-65.9052 110,-65.9052 110,-46.9052 0,-46.9052"/>
<text text-anchor="middle" x="55" y="-53.9052" font-family="Helvetica,sans-Serif" font-size="10.00">TMC2208Stepper::toff</text>
</a>
</g>
</g>
<!-- Node2 -->
<g id="node2" class="node"><title>Node2</title>
<g id="a_node2"><a xlink:href="class_t_m_c2208_stepper.html#aa11281f54c293f3ff2539b1a583682a9" target="_top" xlink:title=" ">
<polygon fill="white" stroke="black" points="146,-46.9052 146,-65.9052 298,-65.9052 298,-46.9052 146,-46.9052"/>
<text text-anchor="middle" x="222" y="-53.9052" font-family="Helvetica,sans-Serif" font-size="10.00">TMC2208Stepper::CHOPCONF</text>
</a>
</g>
</g>
<!-- Node1&#45;&gt;Node2 -->
<g id="edge1" class="edge"><title>Node1&#45;&gt;Node2</title>
<path fill="none" stroke="midnightblue" d="M110.027,-56.4052C118.269,-56.4052 126.942,-56.4052 135.658,-56.4052"/>
<polygon fill="midnightblue" stroke="midnightblue" points="135.886,-59.9053 145.886,-56.4052 135.886,-52.9053 135.886,-59.9053"/>
</g>
<!-- Node3 -->
<g id="node3" class="node"><title>Node3</title>
<g id="a_node3"><a xlink:href="class_t_m_c2208_stepper.html#a2fae2050849c3ab7968012def8ea1cc5" target="_top" xlink:title=" ">
<polygon fill="white" stroke="black" points="334,-46.9052 334,-65.9052 450,-65.9052 450,-46.9052 334,-46.9052"/>
<text text-anchor="middle" x="392" y="-53.9052" font-family="Helvetica,sans-Serif" font-size="10.00">TMC2208Stepper::read</text>
</a>
</g>
</g>
<!-- Node2&#45;&gt;Node3 -->
<g id="edge2" class="edge"><title>Node2&#45;&gt;Node3</title>
<path fill="none" stroke="midnightblue" d="M298.155,-56.4052C306.664,-56.4052 315.296,-56.4052 323.696,-56.4052"/>
<polygon fill="midnightblue" stroke="midnightblue" points="323.802,-59.9053 333.802,-56.4052 323.802,-52.9053 323.802,-59.9053"/>
</g>
<!-- Node4 -->
<g id="node4" class="node"><title>Node4</title>
<g id="a_node4"><a xlink:href="class_t_m_c2208_stepper.html#a3e1f6a10aa1e3e41dc2594dbe1ea8a1d" target="_top" xlink:title=" ">
<polygon fill="white" stroke="black" points="486,-103.905 486,-122.905 652,-122.905 652,-103.905 486,-103.905"/>
<text text-anchor="middle" x="569" y="-110.905" font-family="Helvetica,sans-Serif" font-size="10.00">TMC2208Stepper::_sendDatagram</text>
</a>
</g>
</g>
<!-- Node3&#45;&gt;Node4 -->
<g id="edge3" class="edge"><title>Node3&#45;&gt;Node4</title>
<path fill="none" stroke="midnightblue" d="M413.7,-65.9833C432.317,-74.3262 460.568,-86.3205 486,-94.4052 494.008,-96.9508 502.555,-99.3114 510.996,-101.442"/>
<polygon fill="midnightblue" stroke="midnightblue" points="510.272,-104.868 520.816,-103.834 511.929,-98.0666 510.272,-104.868"/>
</g>
<!-- Node9 -->
<g id="node9" class="node"><title>Node9</title>
<g id="a_node9"><a xlink:href="class_s_switch.html#a6ff09d0850d551571dc333fb74ff8628" target="_top" xlink:title=" ">
<polygon fill="white" stroke="black" points="527.5,-65.9052 527.5,-84.9052 610.5,-84.9052 610.5,-65.9052 527.5,-65.9052"/>
<text text-anchor="middle" x="569" y="-72.9052" font-family="Helvetica,sans-Serif" font-size="10.00">SSwitch::active</text>
</a>
</g>
</g>
<!-- Node3&#45;&gt;Node9 -->
<g id="edge9" class="edge"><title>Node3&#45;&gt;Node9</title>
<path fill="none" stroke="midnightblue" d="M450.302,-62.6265C471.975,-64.9796 496.465,-67.6385 517.472,-69.9193"/>
<polygon fill="midnightblue" stroke="midnightblue" points="517.158,-73.4056 527.477,-71.0055 517.913,-66.4465 517.158,-73.4056"/>
</g>
<!-- Node10 -->
<g id="node10" class="node"><title>Node10</title>
<g id="a_node10"><a xlink:href="class_t_m_c2208_stepper.html#a409c19fa6b052a370a317d061bf9af4e" target="_top" xlink:title=" ">
<polygon fill="white" stroke="black" points="501,-27.9052 501,-46.9052 637,-46.9052 637,-27.9052 501,-27.9052"/>
<text text-anchor="middle" x="569" y="-34.9052" font-family="Helvetica,sans-Serif" font-size="10.00">TMC2208Stepper::calcCRC</text>
</a>
</g>
</g>
<!-- Node3&#45;&gt;Node10 -->
<g id="edge10" class="edge"><title>Node3&#45;&gt;Node10</title>
<path fill="none" stroke="midnightblue" d="M450.302,-50.1839C463.17,-48.7867 477.032,-47.2817 490.567,-45.8121"/>
<polygon fill="midnightblue" stroke="midnightblue" points="491.269,-49.2566 500.833,-44.6976 490.514,-42.2975 491.269,-49.2566"/>
</g>
<!-- Node5 -->
<g id="node5" class="node"><title>Node5</title>
<g id="a_node5"><a xlink:href="class_t_m_c2208_stepper.html#a4ec5d2b2f5a31259c7aba1f3208d63b8" target="_top" xlink:title=" ">
<polygon fill="white" stroke="black" points="702.5,-128.905 702.5,-147.905 818.5,-147.905 818.5,-128.905 702.5,-128.905"/>
<text text-anchor="middle" x="760.5" y="-135.905" font-family="Helvetica,sans-Serif" font-size="10.00">TMC2208Stepper::ms2</text>
</a>
</g>
</g>
<!-- Node4&#45;&gt;Node5 -->
<g id="edge4" class="edge"><title>Node4&#45;&gt;Node5</title>
<path fill="none" stroke="midnightblue" d="M642.182,-122.928C658.64,-125.099 676.062,-127.397 692.301,-129.54"/>
<polygon fill="midnightblue" stroke="midnightblue" points="691.868,-133.013 702.24,-130.851 692.784,-126.073 691.868,-133.013"/>
</g>
<!-- Node7 -->
<g id="node7" class="node"><title>Node7</title>
<g id="a_node7"><a xlink:href="class_t_m_c2208_stepper.html#ae561da4ec7c40830e97bf4dc8cf700fb" target="_top" xlink:title=" ">
<polygon fill="white" stroke="black" points="688,-90.9052 688,-109.905 833,-109.905 833,-90.9052 688,-90.9052"/>
<text text-anchor="middle" x="760.5" y="-97.9052" font-family="Helvetica,sans-Serif" font-size="10.00">TMC2208Stepper::serial_read</text>
</a>
</g>
</g>
<!-- Node4&#45;&gt;Node7 -->
<g id="edge7" class="edge"><title>Node4&#45;&gt;Node7</title>
<path fill="none" stroke="midnightblue" d="M652.015,-107.779C660.478,-107.198 669.078,-106.608 677.54,-106.028"/>
<polygon fill="midnightblue" stroke="midnightblue" points="678.038,-109.502 687.775,-105.326 677.559,-102.518 678.038,-109.502"/>
</g>
<!-- Node8 -->
<g id="node8" class="node"><title>Node8</title>
<g id="a_node8"><a xlink:href="class_t_m_c2208_stepper.html#a7dd83313385079099b0622957786a979" target="_top" xlink:title=" ">
<polygon fill="white" stroke="black" points="700,-41.4052 700,-71.4052 821,-71.4052 821,-41.4052 700,-41.4052"/>
<text text-anchor="start" x="708" y="-59.4052" font-family="Helvetica,sans-Serif" font-size="10.00">TMC2208Stepper::serial</text>
<text text-anchor="middle" x="760.5" y="-48.4052" font-family="Helvetica,sans-Serif" font-size="10.00">_write</text>
</a>
</g>
</g>
<!-- Node4&#45;&gt;Node8 -->
<g id="edge8" class="edge"><title>Node4&#45;&gt;Node8</title>
<path fill="none" stroke="midnightblue" d="M615.793,-103.808C627.658,-101.045 640.367,-97.8399 652,-94.4052 668.315,-89.5878 671.971,-87.1015 688,-81.4052 694.017,-79.2668 700.325,-77.0401 706.595,-74.8355"/>
<polygon fill="midnightblue" stroke="midnightblue" points="708.095,-78.0185 716.372,-71.4052 705.778,-71.4133 708.095,-78.0185"/>
</g>
<!-- Node6 -->
<g id="node6" class="node"><title>Node6</title>
<g id="a_node6"><a xlink:href="class_t_m_c2208_stepper.html#a5441dd87d0bcea4ffc309cb012166a57" target="_top" xlink:title=" ">
<polygon fill="white" stroke="black" points="869,-58.9052 869,-77.9052 985,-77.9052 985,-58.9052 869,-58.9052"/>
<text text-anchor="middle" x="927" y="-65.9052" font-family="Helvetica,sans-Serif" font-size="10.00">TMC2208Stepper::IOIN</text>
</a>
</g>
</g>
<!-- Node5&#45;&gt;Node6 -->
<g id="edge5" class="edge"><title>Node5&#45;&gt;Node6</title>
<path fill="none" stroke="midnightblue" d="M804.395,-128.814C813.954,-126.18 823.937,-123.032 833,-119.405 857.717,-109.514 884.177,-94.529 902.529,-83.3584"/>
<polygon fill="midnightblue" stroke="midnightblue" points="904.423,-86.3019 911.088,-78.0661 900.742,-80.348 904.423,-86.3019"/>
</g>
<!-- Node6&#45;&gt;Node3 -->
<g id="edge6" class="edge"><title>Node6&#45;&gt;Node3</title>
<path fill="none" stroke="midnightblue" d="M906.963,-58.8176C888.546,-50.0326 859.593,-37.4965 833,-31.4052 682.566,3.05335 637.437,11.3399 486,-18.4052 462.751,-22.9717 437.989,-33.3919 419.866,-42.1675"/>
<polygon fill="midnightblue" stroke="midnightblue" points="417.917,-39.2285 410.532,-46.826 421.043,-45.4917 417.917,-39.2285"/>
</g>
</g>
</svg>
