<?xml version="1.0" encoding="UTF-8" standalone="no"?>
<!DOCTYPE svg PUBLIC "-//W3C//DTD SVG 1.1//EN"
 "http://www.w3.org/Graphics/SVG/1.1/DTD/svg11.dtd">
<!-- Generated by graphviz version 2.38.0 (20140413.2041)
 -->
<!-- Title: TMC2208Stepper::GCONF Pages: 1 -->
<!--zoomable 466 -->
<svg id="main" version="1.1" xmlns="http://www.w3.org/2000/svg" xmlns:xlink="http://www.w3.org/1999/xlink" xml:space="preserve" onload="init(evt)">
<style type="text/css"><![CDATA[
.edge:hover path { stroke: red; }
.edge:hover polygon { stroke: red; fill: red; }
]]></style>
<script type="text/javascript"><![CDATA[
var edges = document.getElementsByTagName('g');
if (edges && edges.length) {
  for (var i=0;i<edges.length;i++) {
    if (edges[i].id.substr(0,4)=='edge') {
      edges[i].setAttribute('class','edge');
    }
  }
}
]]></script>
        <defs>
                <circle id="rim" cx="0" cy="0" r="7"/>
                <circle id="rim2" cx="0" cy="0" r="3.5"/>
                <g id="zoomPlus">
                        <use xlink:href="#rim" fill="#404040">
                                <set attributeName="fill" to="#808080" begin="zoomplus.mouseover" end="zoomplus.mouseout"/>
                        </use>
                        <path d="M-4,0h8M0,-4v8" fill="none" stroke="white" stroke-width="1.5" pointer-events="none"/>
                </g>
                <g id="zoomMin">
                        <use xlink:href="#rim" fill="#404040">
                                <set attributeName="fill" to="#808080" begin="zoomminus.mouseover" end="zoomminus.mouseout"/>
                        </use>
                        <path d="M-4,0h8" fill="none" stroke="white" stroke-width="1.5" pointer-events="none"/>
                </g>
                <g id="dirArrow">
                        <path fill="none" stroke="white" stroke-width="1.5" d="M0,-3.0v7 M-2.5,-0.5L0,-3.0L2.5,-0.5"/>
                </g>
               <g id="resetDef">
                       <use xlink:href="#rim2" fill="#404040">
                               <set attributeName="fill" to="#808080" begin="reset.mouseover" end="reset.mouseout"/>
                       </use>
               </g>
        </defs>

<script type="text/javascript">
var viewWidth = 516;
var viewHeight = 466;
var sectionId = 'dynsection-35';
</script>
<script xlink:href="svgpan.js"/>
<svg id="graph" class="graph">
<g id="viewport">
<title>TMC2208Stepper::GCONF</title>
<polygon fill="white" stroke="none" points="-4,4 -4,-461.5 512,-461.5 512,4 -4,4"/>
<!-- Node1 -->
<g id="node1" class="node"><title>Node1</title>
<g id="a_node1"><a xlink:title=" ">
<polygon fill="#bfbfbf" stroke="black" points="376,-213.5 376,-232.5 508,-232.5 508,-213.5 376,-213.5"/>
<text text-anchor="middle" x="442" y="-220.5" font-family="Helvetica,sans-Serif" font-size="10.00">TMC2208Stepper::GCONF</text>
</a>
</g>
</g>
<!-- Node2 -->
<g id="node2" class="node"><title>Node2</title>
<g id="a_node2"><a xlink:href="class_t_m_c2208_stepper.html#a3e5b6f25ec1fa94a6d8f0bd004a535ce" target="_top" xlink:title=" ">
<polygon fill="white" stroke="black" points="210,-427 210,-457 318,-457 318,-427 210,-427"/>
<text text-anchor="start" x="218" y="-445" font-family="Helvetica,sans-Serif" font-size="10.00">TMC2208Stepper::en</text>
<text text-anchor="middle" x="264" y="-434" font-family="Helvetica,sans-Serif" font-size="10.00">_spreadCycle</text>
</a>
</g>
</g>
<!-- Node1&#45;&gt;Node2 -->
<g id="edge1" class="edge"><title>Node1&#45;&gt;Node2</title>
<path fill="none" stroke="midnightblue" d="M436.235,-242.653C425.727,-281.825 396.856,-369.985 340,-418 333.629,-423.381 326.035,-427.56 318.164,-430.805"/>
<polygon fill="midnightblue" stroke="midnightblue" points="439.675,-243.329 438.77,-232.773 432.894,-241.59 439.675,-243.329"/>
</g>
<!-- Node3 -->
<g id="node3" class="node"><title>Node3</title>
<g id="a_node3"><a xlink:href="class_t_m_c2208_stepper.html#a3b1c4e92ce6d46b6073974d8758275ff" target="_top" xlink:title=" ">
<polygon fill="white" stroke="black" points="200,-378 200,-408 328,-408 328,-378 200,-378"/>
<text text-anchor="start" x="208" y="-396" font-family="Helvetica,sans-Serif" font-size="10.00">TMC2208Stepper::I_scale</text>
<text text-anchor="middle" x="264" y="-385" font-family="Helvetica,sans-Serif" font-size="10.00">_analog</text>
</a>
</g>
</g>
<!-- Node1&#45;&gt;Node3 -->
<g id="edge2" class="edge"><title>Node1&#45;&gt;Node3</title>
<path fill="none" stroke="midnightblue" d="M432.72,-241.942C418.3,-272.783 385.693,-333.832 340,-368 334.834,-371.863 329.037,-375.15 323.014,-377.943"/>
<polygon fill="midnightblue" stroke="midnightblue" points="435.958,-243.276 436.905,-232.723 429.584,-240.382 435.958,-243.276"/>
</g>
<!-- Node4 -->
<g id="node4" class="node"><title>Node4</title>
<g id="a_node4"><a xlink:href="class_t_m_c2208_stepper.html#a8a8172fcb19ea2439d4898f4102fa039" target="_top" xlink:title=" ">
<polygon fill="white" stroke="black" points="191,-339.5 191,-358.5 337,-358.5 337,-339.5 191,-339.5"/>
<text text-anchor="middle" x="264" y="-346.5" font-family="Helvetica,sans-Serif" font-size="10.00">TMC2208Stepper::index_otpw</text>
</a>
</g>
</g>
<!-- Node1&#45;&gt;Node4 -->
<g id="edge3" class="edge"><title>Node1&#45;&gt;Node4</title>
<path fill="none" stroke="midnightblue" d="M428.839,-241.276C411.845,-265.345 378.694,-307.267 340,-330 333.399,-333.878 326.019,-336.971 318.534,-339.437"/>
<polygon fill="midnightblue" stroke="midnightblue" points="431.94,-242.944 434.727,-232.722 426.174,-238.975 431.94,-242.944"/>
</g>
<!-- Node6 -->
<g id="node6" class="node"><title>Node6</title>
<g id="a_node6"><a xlink:href="class_t_m_c2208_stepper.html#aa0f677d760ac3c9a297a6f6d2778ec81" target="_top" xlink:title=" ">
<polygon fill="white" stroke="black" points="191.5,-301.5 191.5,-320.5 336.5,-320.5 336.5,-301.5 191.5,-301.5"/>
<text text-anchor="middle" x="264" y="-308.5" font-family="Helvetica,sans-Serif" font-size="10.00">TMC2208Stepper::index_step</text>
</a>
</g>
</g>
<!-- Node1&#45;&gt;Node6 -->
<g id="edge5" class="edge"><title>Node1&#45;&gt;Node6</title>
<path fill="none" stroke="midnightblue" d="M421.894,-239.112C402.449,-254.742 370.859,-278.081 340,-292 331.551,-295.811 322.209,-298.948 313.067,-301.497"/>
<polygon fill="midnightblue" stroke="midnightblue" points="424.165,-241.776 429.687,-232.734 419.732,-236.359 424.165,-241.776"/>
</g>
<!-- Node8 -->
<g id="node8" class="node"><title>Node8</title>
<g id="a_node8"><a xlink:href="class_t_m_c2208_stepper.html#a8159b7bd97a76b6020bf285c052809b6" target="_top" xlink:title=" ">
<polygon fill="white" stroke="black" points="199.5,-252 199.5,-282 328.5,-282 328.5,-252 199.5,-252"/>
<text text-anchor="start" x="207.5" y="-270" font-family="Helvetica,sans-Serif" font-size="10.00">TMC2208Stepper::internal</text>
<text text-anchor="middle" x="264" y="-259" font-family="Helvetica,sans-Serif" font-size="10.00">_Rsense</text>
</a>
</g>
</g>
<!-- Node1&#45;&gt;Node8 -->
<g id="edge7" class="edge"><title>Node1&#45;&gt;Node8</title>
<path fill="none" stroke="midnightblue" d="M392.895,-235.026C372.019,-240.245 347.342,-246.414 325.261,-251.935"/>
<polygon fill="midnightblue" stroke="midnightblue" points="393.958,-238.368 402.811,-232.547 392.26,-231.577 393.958,-238.368"/>
</g>
<!-- Node9 -->
<g id="node9" class="node"><title>Node9</title>
<g id="a_node9"><a xlink:href="class_t_m_c2208_stepper.html#a02994cba6b9ac73b61799cf7af0fd588" target="_top" xlink:title=" ">
<polygon fill="white" stroke="black" points="201.5,-164 201.5,-194 326.5,-194 326.5,-164 201.5,-164"/>
<text text-anchor="start" x="209.5" y="-182" font-family="Helvetica,sans-Serif" font-size="10.00">TMC2208Stepper::mstep</text>
<text text-anchor="middle" x="264" y="-171" font-family="Helvetica,sans-Serif" font-size="10.00">_reg_select</text>
</a>
</g>
</g>
<!-- Node1&#45;&gt;Node9 -->
<g id="edge8" class="edge"><title>Node1&#45;&gt;Node9</title>
<path fill="none" stroke="midnightblue" d="M392.895,-210.974C372.019,-205.755 347.342,-199.586 325.261,-194.065"/>
<polygon fill="midnightblue" stroke="midnightblue" points="392.26,-214.423 402.811,-213.453 393.958,-207.632 392.26,-214.423"/>
</g>
<!-- Node12 -->
<g id="node12" class="node"><title>Node12</title>
<g id="a_node12"><a xlink:href="class_t_m_c2208_stepper.html#ac7e75314309e988c55e28da4798fa637" target="_top" xlink:title=" ">
<polygon fill="white" stroke="black" points="188,-213.5 188,-232.5 340,-232.5 340,-213.5 188,-213.5"/>
<text text-anchor="middle" x="264" y="-220.5" font-family="Helvetica,sans-Serif" font-size="10.00">TMC2208Stepper::multistep_filt</text>
</a>
</g>
</g>
<!-- Node1&#45;&gt;Node12 -->
<g id="edge11" class="edge"><title>Node1&#45;&gt;Node12</title>
<path fill="none" stroke="midnightblue" d="M365.736,-223C357.268,-223 348.638,-223 340.171,-223"/>
<polygon fill="midnightblue" stroke="midnightblue" points="365.964,-226.5 375.964,-223 365.964,-219.5 365.964,-226.5"/>
</g>
<!-- Node14 -->
<g id="node14" class="node"><title>Node14</title>
<g id="a_node14"><a xlink:href="class_t_m_c2208_stepper.html#a9de4a150926f2875903be27063f00973" target="_top" xlink:title=" ">
<polygon fill="white" stroke="black" points="207.5,-115 207.5,-145 320.5,-145 320.5,-115 207.5,-115"/>
<text text-anchor="start" x="215.5" y="-133" font-family="Helvetica,sans-Serif" font-size="10.00">TMC2208Stepper::pdn</text>
<text text-anchor="middle" x="264" y="-122" font-family="Helvetica,sans-Serif" font-size="10.00">_disable</text>
</a>
</g>
</g>
<!-- Node1&#45;&gt;Node14 -->
<g id="edge13" class="edge"><title>Node1&#45;&gt;Node14</title>
<path fill="none" stroke="midnightblue" d="M421.383,-207.04C401.768,-191.718 370.249,-168.781 340,-154 333.244,-150.699 325.929,-147.708 318.608,-145.047"/>
<polygon fill="midnightblue" stroke="midnightblue" points="419.256,-209.82 429.266,-213.29 423.605,-204.335 419.256,-209.82"/>
</g>
<!-- Node16 -->
<g id="node16" class="node"><title>Node16</title>
<g id="a_node16"><a xlink:href="class_t_m_c2208_stepper.html#a8eb0d71fbfeeb24c9092328c44fab7e5" target="_top" xlink:title=" ">
<polygon fill="white" stroke="black" points="204.5,-76.5 204.5,-95.5 323.5,-95.5 323.5,-76.5 204.5,-76.5"/>
<text text-anchor="middle" x="264" y="-83.5" font-family="Helvetica,sans-Serif" font-size="10.00">TMC2208Stepper::push</text>
</a>
</g>
</g>
<!-- Node1&#45;&gt;Node16 -->
<g id="edge16" class="edge"><title>Node1&#45;&gt;Node16</title>
<path fill="none" stroke="midnightblue" d="M430.459,-204.702C414.385,-178.486 381.219,-130.584 340,-105 333.723,-101.104 326.681,-98.0051 319.493,-95.5406"/>
<polygon fill="midnightblue" stroke="midnightblue" points="427.46,-206.506 435.592,-213.298 433.47,-202.918 427.46,-206.506"/>
</g>
<!-- Node17 -->
<g id="node17" class="node"><title>Node17</title>
<g id="a_node17"><a xlink:href="class_t_m_c2209_stepper.html#a180f4b9a78e526592d946ec12f71982e" target="_top" xlink:title=" ">
<polygon fill="white" stroke="black" points="204.5,-38.5 204.5,-57.5 323.5,-57.5 323.5,-38.5 204.5,-38.5"/>
<text text-anchor="middle" x="264" y="-45.5" font-family="Helvetica,sans-Serif" font-size="10.00">TMC2209Stepper::push</text>
</a>
</g>
</g>
<!-- Node1&#45;&gt;Node17 -->
<g id="edge17" class="edge"><title>Node1&#45;&gt;Node17</title>
<path fill="none" stroke="midnightblue" d="M433.964,-203.623C420.852,-170.336 389.445,-102.462 340,-67 334.542,-63.0859 328.356,-59.9759 321.933,-57.5053"/>
<polygon fill="midnightblue" stroke="midnightblue" points="430.753,-205.026 437.578,-213.13 437.296,-202.539 430.753,-205.026"/>
</g>
<!-- Node18 -->
<g id="node18" class="node"><title>Node18</title>
<g id="a_node18"><a xlink:href="class_t_m_c2208_stepper.html#ab4500aa2baca79572a8145b64f809a37" target="_top" xlink:title=" ">
<polygon fill="white" stroke="black" points="204.5,-0.5 204.5,-19.5 323.5,-19.5 323.5,-0.5 204.5,-0.5"/>
<text text-anchor="middle" x="264" y="-7.5" font-family="Helvetica,sans-Serif" font-size="10.00">TMC2208Stepper::shaft</text>
</a>
</g>
</g>
<!-- Node1&#45;&gt;Node18 -->
<g id="edge18" class="edge"><title>Node1&#45;&gt;Node18</title>
<path fill="none" stroke="midnightblue" d="M436.514,-203.401C426.448,-164.013 398.244,-75.0925 340,-29 335.155,-25.1657 329.629,-22.0959 323.824,-19.6396"/>
<polygon fill="midnightblue" stroke="midnightblue" points="433.114,-204.233 438.882,-213.12 439.915,-202.576 433.114,-204.233"/>
</g>
<!-- Node5 -->
<g id="node5" class="node"><title>Node5</title>
<g id="a_node5"><a xlink:href="class_t_m_c2208_stepper.html#a6a0ee6a6d86ca0f9eef130a57130a00b" target="_top" xlink:title=" ">
<polygon fill="white" stroke="black" points="3,-339.5 3,-358.5 149,-358.5 149,-339.5 3,-339.5"/>
<text text-anchor="middle" x="76" y="-346.5" font-family="Helvetica,sans-Serif" font-size="10.00">TMC2208Stepper::index_otpw</text>
</a>
</g>
</g>
<!-- Node4&#45;&gt;Node5 -->
<g id="edge4" class="edge"><title>Node4&#45;&gt;Node5</title>
<path fill="none" stroke="midnightblue" d="M180.786,-349C170.24,-349 159.507,-349 149.138,-349"/>
<polygon fill="midnightblue" stroke="midnightblue" points="180.821,-352.5 190.821,-349 180.821,-345.5 180.821,-352.5"/>
</g>
<!-- Node7 -->
<g id="node7" class="node"><title>Node7</title>
<g id="a_node7"><a xlink:href="class_t_m_c2208_stepper.html#a772889e1d2f41ebc72bcd4254305026c" target="_top" xlink:title=" ">
<polygon fill="white" stroke="black" points="3.5,-301.5 3.5,-320.5 148.5,-320.5 148.5,-301.5 3.5,-301.5"/>
<text text-anchor="middle" x="76" y="-308.5" font-family="Helvetica,sans-Serif" font-size="10.00">TMC2208Stepper::index_step</text>
</a>
</g>
</g>
<!-- Node6&#45;&gt;Node7 -->
<g id="edge6" class="edge"><title>Node6&#45;&gt;Node7</title>
<path fill="none" stroke="midnightblue" d="M181.066,-311C170.251,-311 159.233,-311 148.61,-311"/>
<polygon fill="midnightblue" stroke="midnightblue" points="181.354,-314.5 191.354,-311 181.354,-307.5 181.354,-314.5"/>
</g>
<!-- Node10 -->
<g id="node10" class="node"><title>Node10</title>
<g id="a_node10"><a xlink:href="class_t_m_c2208_stepper.html#a974fa83e3bab04cd9f9a7b2d31ebd18e" target="_top" xlink:title=" ">
<polygon fill="white" stroke="black" points="15.5,-125.5 15.5,-144.5 136.5,-144.5 136.5,-125.5 15.5,-125.5"/>
<text text-anchor="middle" x="76" y="-132.5" font-family="Helvetica,sans-Serif" font-size="10.00">TMC2208Stepper::begin</text>
</a>
</g>
</g>
<!-- Node9&#45;&gt;Node10 -->
<g id="edge9" class="edge"><title>Node9&#45;&gt;Node10</title>
<path fill="none" stroke="midnightblue" d="M191.428,-162.069C166.24,-156.111 138.835,-149.628 117.16,-144.5"/>
<polygon fill="midnightblue" stroke="midnightblue" points="190.786,-165.514 201.323,-164.41 192.397,-158.702 190.786,-165.514"/>
</g>
<!-- Node11 -->
<g id="node11" class="node"><title>Node11</title>
<g id="a_node11"><a xlink:href="class_t_m_c2208_stepper.html#afb391fd21b77113e5651ebaa9af1c22e" target="_top" xlink:title=" ">
<polygon fill="white" stroke="black" points="13.5,-164 13.5,-194 138.5,-194 138.5,-164 13.5,-164"/>
<text text-anchor="start" x="21.5" y="-182" font-family="Helvetica,sans-Serif" font-size="10.00">TMC2208Stepper::mstep</text>
<text text-anchor="middle" x="76" y="-171" font-family="Helvetica,sans-Serif" font-size="10.00">_reg_select</text>
</a>
</g>
</g>
<!-- Node9&#45;&gt;Node11 -->
<g id="edge10" class="edge"><title>Node9&#45;&gt;Node11</title>
<path fill="none" stroke="midnightblue" d="M191.221,-179C173.826,-179 155.384,-179 138.51,-179"/>
<polygon fill="midnightblue" stroke="midnightblue" points="191.323,-182.5 201.323,-179 191.323,-175.5 191.323,-182.5"/>
</g>
<!-- Node13 -->
<g id="node13" class="node"><title>Node13</title>
<g id="a_node13"><a xlink:href="class_t_m_c2208_stepper.html#af937d7dd6f0cd461a20f3dff5ac20e57" target="_top" xlink:title=" ">
<polygon fill="white" stroke="black" points="0,-213.5 0,-232.5 152,-232.5 152,-213.5 0,-213.5"/>
<text text-anchor="middle" x="76" y="-220.5" font-family="Helvetica,sans-Serif" font-size="10.00">TMC2208Stepper::multistep_filt</text>
</a>
</g>
</g>
<!-- Node12&#45;&gt;Node13 -->
<g id="edge12" class="edge"><title>Node12&#45;&gt;Node13</title>
<path fill="none" stroke="midnightblue" d="M177.853,-223C169.258,-223 160.574,-223 152.095,-223"/>
<polygon fill="midnightblue" stroke="midnightblue" points="177.883,-226.5 187.883,-223 177.883,-219.5 177.883,-226.5"/>
</g>
<!-- Node14&#45;&gt;Node10 -->
<g id="edge14" class="edge"><title>Node14&#45;&gt;Node10</title>
<path fill="none" stroke="midnightblue" d="M197.325,-131.765C177.616,-132.295 156.111,-132.873 136.803,-133.392"/>
<polygon fill="midnightblue" stroke="midnightblue" points="197.544,-135.261 207.446,-131.493 197.355,-128.263 197.544,-135.261"/>
</g>
<!-- Node15 -->
<g id="node15" class="node"><title>Node15</title>
<g id="a_node15"><a xlink:href="class_t_m_c2208_stepper.html#acc565fdcd70fa33a60a078cb5527afc8" target="_top" xlink:title=" ">
<polygon fill="white" stroke="black" points="19.5,-76 19.5,-106 132.5,-106 132.5,-76 19.5,-76"/>
<text text-anchor="start" x="27.5" y="-94" font-family="Helvetica,sans-Serif" font-size="10.00">TMC2208Stepper::pdn</text>
<text text-anchor="middle" x="76" y="-83" font-family="Helvetica,sans-Serif" font-size="10.00">_disable</text>
</a>
</g>
</g>
<!-- Node14&#45;&gt;Node15 -->
<g id="edge15" class="edge"><title>Node14&#45;&gt;Node15</title>
<path fill="none" stroke="midnightblue" d="M197.545,-116.276C176.331,-111.827 153.015,-106.939 132.589,-102.656"/>
<polygon fill="midnightblue" stroke="midnightblue" points="196.94,-119.725 207.446,-118.352 198.377,-112.874 196.94,-119.725"/>
</g>
<!-- Node19 -->
<g id="node19" class="node"><title>Node19</title>
<g id="a_node19"><a xlink:href="class_t_m_c2208_stepper.html#acf06e6e1f043e164b14432480ca50866" target="_top" xlink:title=" ">
<polygon fill="white" stroke="black" points="16.5,-0.5 16.5,-19.5 135.5,-19.5 135.5,-0.5 16.5,-0.5"/>
<text text-anchor="middle" x="76" y="-7.5" font-family="Helvetica,sans-Serif" font-size="10.00">TMC2208Stepper::shaft</text>
</a>
</g>
</g>
<!-- Node18&#45;&gt;Node19 -->
<g id="edge19" class="edge"><title>Node18&#45;&gt;Node19</title>
<path fill="none" stroke="midnightblue" d="M194.192,-10C174.947,-10 154.217,-10 135.621,-10"/>
<polygon fill="midnightblue" stroke="midnightblue" points="194.404,-13.5001 204.404,-10 194.404,-6.5001 194.404,-13.5001"/>
</g>
</g>
</svg>
        <g id="navigator" transform="translate(0 0)" fill="#404254">
                <rect fill="#f2f5e9" fill-opacity="0.5" stroke="#606060" stroke-width=".5" x="0" y="0" width="60" height="60"/>
                <use id="zoomplus" xlink:href="#zoomPlus" x="17" y="9" onmousedown="handleZoom(evt,'in')"/>
                <use id="zoomminus" xlink:href="#zoomMin" x="42" y="9" onmousedown="handleZoom(evt,'out')"/>
                <use id="reset" xlink:href="#resetDef" x="30" y="36" onmousedown="handleReset()"/>
                <g id="arrowUp" xlink:href="#dirArrow" transform="translate(30 24)" onmousedown="handlePan(0,-1)">
                  <use xlink:href="#rim" fill="#404040">
                        <set attributeName="fill" to="#808080" begin="arrowUp.mouseover" end="arrowUp.mouseout"/>
                  </use>
                  <path fill="none" stroke="white" stroke-width="1.5" d="M0,-3.0v7 M-2.5,-0.5L0,-3.0L2.5,-0.5"/>
                </g>
                <g id="arrowRight" xlink:href="#dirArrow" transform="rotate(90) translate(36 -43)" onmousedown="handlePan(1,0)">
                  <use xlink:href="#rim" fill="#404040">
                        <set attributeName="fill" to="#808080" begin="arrowRight.mouseover" end="arrowRight.mouseout"/>
                  </use>
                  <path fill="none" stroke="white" stroke-width="1.5" d="M0,-3.0v7 M-2.5,-0.5L0,-3.0L2.5,-0.5"/>
                </g>
                <g id="arrowDown" xlink:href="#dirArrow" transform="rotate(180) translate(-30 -48)" onmousedown="handlePan(0,1)">
                  <use xlink:href="#rim" fill="#404040">
                        <set attributeName="fill" to="#808080" begin="arrowDown.mouseover" end="arrowDown.mouseout"/>
                  </use>
                  <path fill="none" stroke="white" stroke-width="1.5" d="M0,-3.0v7 M-2.5,-0.5L0,-3.0L2.5,-0.5"/>
                </g>
                <g id="arrowLeft" xlink:href="#dirArrow" transform="rotate(270) translate(-36 17)" onmousedown="handlePan(-1,0)">
                  <use xlink:href="#rim" fill="#404040">
                        <set attributeName="fill" to="#808080" begin="arrowLeft.mouseover" end="arrowLeft.mouseout"/>
                  </use>
                  <path fill="none" stroke="white" stroke-width="1.5" d="M0,-3.0v7 M-2.5,-0.5L0,-3.0L2.5,-0.5"/>
                </g>
        </g>
        <svg viewBox="0 0 15 15" width="100%" height="30px" preserveAspectRatio="xMaxYMin meet">
         <g id="arrow_out" transform="scale(0.3 0.3)">
          <a xlink:href="class_t_m_c2208_stepper_a549db4f962d4ae698dda33ef9a708e33_icgraph_org.svg" target="_base">
           <rect id="button" ry="5" rx="5" y="6" x="6" height="38" width="38"
                fill="#f2f5e9" fill-opacity="0.5" stroke="#606060" stroke-width="1.0"/>
           <path id="arrow"
             d="M 11.500037,31.436501 C 11.940474,20.09759 22.043105,11.32322 32.158766,21.979434 L 37.068811,17.246167 C 37.068811,17.246167 37.088388,32 37.088388,32 L 22.160133,31.978069 C 22.160133,31.978069 26.997745,27.140456 26.997745,27.140456 C 18.528582,18.264221 13.291696,25.230495 11.500037,31.436501 z"
             style="fill:#404040;"/>
          </a>
         </g>
        </svg>
</svg>
