<?xml version="1.0" encoding="UTF-8" standalone="no"?>
<!DOCTYPE svg PUBLIC "-//W3C//DTD SVG 1.1//EN"
 "http://www.w3.org/Graphics/SVG/1.1/DTD/svg11.dtd">
<!-- Generated by graphviz version 2.38.0 (20140413.2041)
 -->
<!-- Title: TMC2208Stepper::PWMCONF Pages: 1 -->
<svg width="335pt" height="393pt"
 viewBox="0.00 0.00 335.00 393.00" xmlns="http://www.w3.org/2000/svg" xmlns:xlink="http://www.w3.org/1999/xlink">
<g id="graph0" class="graph" transform="scale(1 1) rotate(0) translate(4 389)">
<title>TMC2208Stepper::PWMCONF</title>
<polygon fill="white" stroke="none" points="-4,4 -4,-389 331,-389 331,4 -4,4"/>
<!-- Node1 -->
<g id="node1" class="node"><title>Node1</title>
<g id="a_node1"><a xlink:title=" ">
<polygon fill="#bfbfbf" stroke="black" points="178,-174.5 178,-193.5 327,-193.5 327,-174.5 178,-174.5"/>
<text text-anchor="middle" x="252.5" y="-181.5" font-family="Helvetica,sans-Serif" font-size="10.00">TMC2208Stepper::PWMCONF</text>
</a>
</g>
</g>
<!-- Node2 -->
<g id="node2" class="node"><title>Node2</title>
<g id="a_node2"><a xlink:href="class_t_m_c2208_stepper.html#ae8f3ed04844725fb6f64150f17c73039" target="_top" xlink:title=" ">
<polygon fill="white" stroke="black" points="2,-365.5 2,-384.5 140,-384.5 140,-365.5 2,-365.5"/>
<text text-anchor="middle" x="71" y="-372.5" font-family="Helvetica,sans-Serif" font-size="10.00">TMC2208Stepper::freewheel</text>
</a>
</g>
</g>
<!-- Node1&#45;&gt;Node2 -->
<g id="edge1" class="edge"><title>Node1&#45;&gt;Node2</title>
<path fill="none" stroke="midnightblue" d="M244.681,-203.251C231.008,-239.007 196.775,-315.687 142,-356 136.726,-359.881 130.707,-362.97 124.462,-365.427"/>
<polygon fill="midnightblue" stroke="midnightblue" points="248.081,-204.148 248.264,-193.554 241.515,-201.721 248.081,-204.148"/>
</g>
<!-- Node3 -->
<g id="node3" class="node"><title>Node3</title>
<g id="a_node3"><a xlink:href="class_t_m_c2208_stepper.html#a8eb0d71fbfeeb24c9092328c44fab7e5" target="_top" xlink:title=" ">
<polygon fill="white" stroke="black" points="11.5,-327.5 11.5,-346.5 130.5,-346.5 130.5,-327.5 11.5,-327.5"/>
<text text-anchor="middle" x="71" y="-334.5" font-family="Helvetica,sans-Serif" font-size="10.00">TMC2208Stepper::push</text>
</a>
</g>
</g>
<!-- Node1&#45;&gt;Node3 -->
<g id="edge2" class="edge"><title>Node1&#45;&gt;Node3</title>
<path fill="none" stroke="midnightblue" d="M241.442,-202.613C224.727,-231.746 188.425,-287.891 142,-318 135.978,-321.906 129.167,-325.014 122.218,-327.487"/>
<polygon fill="midnightblue" stroke="midnightblue" points="244.519,-204.282 246.346,-193.845 238.41,-200.864 244.519,-204.282"/>
</g>
<!-- Node4 -->
<g id="node4" class="node"><title>Node4</title>
<g id="a_node4"><a xlink:href="class_t_m_c2209_stepper.html#a180f4b9a78e526592d946ec12f71982e" target="_top" xlink:title=" ">
<polygon fill="white" stroke="black" points="11.5,-289.5 11.5,-308.5 130.5,-308.5 130.5,-289.5 11.5,-289.5"/>
<text text-anchor="middle" x="71" y="-296.5" font-family="Helvetica,sans-Serif" font-size="10.00">TMC2209Stepper::push</text>
</a>
</g>
</g>
<!-- Node1&#45;&gt;Node4 -->
<g id="edge3" class="edge"><title>Node1&#45;&gt;Node4</title>
<path fill="none" stroke="midnightblue" d="M236.296,-201.529C216.639,-223.11 180.352,-259.424 142,-280 134.898,-283.81 126.972,-286.903 119.078,-289.398"/>
<polygon fill="midnightblue" stroke="midnightblue" points="239.161,-203.575 243.211,-193.784 233.94,-198.913 239.161,-203.575"/>
</g>
<!-- Node5 -->
<g id="node5" class="node"><title>Node5</title>
<g id="a_node5"><a xlink:href="class_t_m_c2208_stepper.html#adf7a92730a7345dfa6c0fecddcf80380" target="_top" xlink:title=" ">
<polygon fill="white" stroke="black" points="12,-240 12,-270 130,-270 130,-240 12,-240"/>
<text text-anchor="start" x="20" y="-258" font-family="Helvetica,sans-Serif" font-size="10.00">TMC2208Stepper::pwm</text>
<text text-anchor="middle" x="71" y="-247" font-family="Helvetica,sans-Serif" font-size="10.00">_autograd</text>
</a>
</g>
</g>
<!-- Node1&#45;&gt;Node5 -->
<g id="edge4" class="edge"><title>Node1&#45;&gt;Node5</title>
<path fill="none" stroke="midnightblue" d="M220.894,-197.869C199.075,-207.576 168.951,-220.613 142,-231 134.208,-234.003 125.86,-237.029 117.741,-239.871"/>
<polygon fill="midnightblue" stroke="midnightblue" points="222.594,-200.943 230.293,-193.665 219.736,-194.553 222.594,-200.943"/>
</g>
<!-- Node6 -->
<g id="node6" class="node"><title>Node6</title>
<g id="a_node6"><a xlink:href="class_t_m_c2208_stepper.html#a0f6b6319aff30970679cbaec7c26c86e" target="_top" xlink:title=" ">
<polygon fill="white" stroke="black" points="12,-191 12,-221 130,-221 130,-191 12,-191"/>
<text text-anchor="start" x="20" y="-209" font-family="Helvetica,sans-Serif" font-size="10.00">TMC2208Stepper::pwm</text>
<text text-anchor="middle" x="71" y="-198" font-family="Helvetica,sans-Serif" font-size="10.00">_autoscale</text>
</a>
</g>
</g>
<!-- Node1&#45;&gt;Node6 -->
<g id="edge5" class="edge"><title>Node1&#45;&gt;Node6</title>
<path fill="none" stroke="midnightblue" d="M167.788,-194.26C155.021,-195.825 142.09,-197.41 130.035,-198.887"/>
<polygon fill="midnightblue" stroke="midnightblue" points="168.473,-197.702 177.973,-193.012 167.621,-190.754 168.473,-197.702"/>
</g>
<!-- Node7 -->
<g id="node7" class="node"><title>Node7</title>
<g id="a_node7"><a xlink:href="class_t_m_c2208_stepper.html#a62d888c9ec5e5d58704b597bb62924f6" target="_top" xlink:title=" ">
<polygon fill="white" stroke="black" points="1.5,-152.5 1.5,-171.5 140.5,-171.5 140.5,-152.5 1.5,-152.5"/>
<text text-anchor="middle" x="71" y="-159.5" font-family="Helvetica,sans-Serif" font-size="10.00">TMC2208Stepper::pwm_freq</text>
</a>
</g>
</g>
<!-- Node1&#45;&gt;Node7 -->
<g id="edge6" class="edge"><title>Node1&#45;&gt;Node7</title>
<path fill="none" stroke="midnightblue" d="M168.025,-173.769C158.809,-172.64 149.504,-171.499 140.501,-170.396"/>
<polygon fill="midnightblue" stroke="midnightblue" points="167.621,-177.246 177.973,-174.988 168.473,-170.298 167.621,-177.246"/>
</g>
<!-- Node8 -->
<g id="node8" class="node"><title>Node8</title>
<g id="a_node8"><a xlink:href="class_t_m_c2208_stepper.html#a8b2d4fa1743850a033cc014243fe028c" target="_top" xlink:title=" ">
<polygon fill="white" stroke="black" points="0,-114.5 0,-133.5 142,-133.5 142,-114.5 0,-114.5"/>
<text text-anchor="middle" x="71" y="-121.5" font-family="Helvetica,sans-Serif" font-size="10.00">TMC2208Stepper::pwm_grad</text>
</a>
</g>
</g>
<!-- Node1&#45;&gt;Node8 -->
<g id="edge7" class="edge"><title>Node1&#45;&gt;Node8</title>
<path fill="none" stroke="midnightblue" d="M218.437,-170.701C196.857,-162.25 167.971,-151.367 142,-143 131.572,-139.641 120.148,-136.37 109.608,-133.516"/>
<polygon fill="midnightblue" stroke="midnightblue" points="217.214,-173.982 227.801,-174.395 219.783,-167.47 217.214,-173.982"/>
</g>
<!-- Node9 -->
<g id="node9" class="node"><title>Node9</title>
<g id="a_node9"><a xlink:href="class_t_m_c2208_stepper.html#a07a53a2e3e055b37b02d9e0e5815083d" target="_top" xlink:title=" ">
<polygon fill="white" stroke="black" points="3,-76.5 3,-95.5 139,-95.5 139,-76.5 3,-76.5"/>
<text text-anchor="middle" x="71" y="-83.5" font-family="Helvetica,sans-Serif" font-size="10.00">TMC2208Stepper::pwm_lim</text>
</a>
</g>
</g>
<!-- Node1&#45;&gt;Node9 -->
<g id="edge8" class="edge"><title>Node1&#45;&gt;Node9</title>
<path fill="none" stroke="midnightblue" d="M233.15,-167.537C212.409,-149.735 176.961,-121.674 142,-105 134.044,-101.206 125.205,-98.0655 116.561,-95.5059"/>
<polygon fill="midnightblue" stroke="midnightblue" points="231.011,-170.316 240.846,-174.255 235.614,-165.042 231.011,-170.316"/>
</g>
<!-- Node10 -->
<g id="node10" class="node"><title>Node10</title>
<g id="a_node10"><a xlink:href="class_t_m_c2208_stepper.html#a58a760f5e4a9970248f71e3b01efd262" target="_top" xlink:title=" ">
<polygon fill="white" stroke="black" points="3,-38.5 3,-57.5 139,-57.5 139,-38.5 3,-38.5"/>
<text text-anchor="middle" x="71" y="-45.5" font-family="Helvetica,sans-Serif" font-size="10.00">TMC2208Stepper::pwm_ofs</text>
</a>
</g>
</g>
<!-- Node1&#45;&gt;Node10 -->
<g id="edge9" class="edge"><title>Node1&#45;&gt;Node10</title>
<path fill="none" stroke="midnightblue" d="M239.594,-165.975C221.572,-140.126 184.884,-92.8091 142,-67 135.526,-63.104 128.242,-59.9905 120.883,-57.5068"/>
<polygon fill="midnightblue" stroke="midnightblue" points="236.843,-168.153 245.366,-174.447 242.628,-164.212 236.843,-168.153"/>
</g>
<!-- Node11 -->
<g id="node11" class="node"><title>Node11</title>
<g id="a_node11"><a xlink:href="class_t_m_c2208_stepper.html#af9cf1c0b74a1604ee12eb2d5e391004c" target="_top" xlink:title=" ">
<polygon fill="white" stroke="black" points="2.5,-0.5 2.5,-19.5 139.5,-19.5 139.5,-0.5 2.5,-0.5"/>
<text text-anchor="middle" x="71" y="-7.5" font-family="Helvetica,sans-Serif" font-size="10.00">TMC2208Stepper::pwm_reg</text>
</a>
</g>
</g>
<!-- Node1&#45;&gt;Node11 -->
<g id="edge10" class="edge"><title>Node1&#45;&gt;Node11</title>
<path fill="none" stroke="midnightblue" d="M243.312,-164.826C228.239,-131.875 192.915,-64.6156 142,-29 136.428,-25.1023 130.092,-22.0036 123.562,-19.5401"/>
<polygon fill="midnightblue" stroke="midnightblue" points="240.232,-166.516 247.488,-174.236 246.631,-163.676 240.232,-166.516"/>
</g>
</g>
</svg>
