<?xml version="1.0" encoding="UTF-8" standalone="no"?>
<!DOCTYPE svg PUBLIC "-//W3C//DTD SVG 1.1//EN"
 "http://www.w3.org/Graphics/SVG/1.1/DTD/svg11.dtd">
<!-- Generated by graphviz version 2.38.0 (20140413.2041)
 -->
<!-- Title: TMC2208Stepper::pwm_lim Pages: 1 -->
<svg width="1016pt" height="156pt"
 viewBox="0.00 0.00 1016.00 156.41" xmlns="http://www.w3.org/2000/svg" xmlns:xlink="http://www.w3.org/1999/xlink">
<g id="graph0" class="graph" transform="scale(1 1) rotate(0) translate(4 152.405)">
<title>TMC2208Stepper::pwm_lim</title>
<polygon fill="white" stroke="none" points="-4,4 -4,-152.405 1012,-152.405 1012,4 -4,4"/>
<!-- Node1 -->
<g id="node1" class="node"><title>Node1</title>
<g id="a_node1"><a xlink:title=" ">
<polygon fill="#bfbfbf" stroke="black" points="0,-46.9052 0,-65.9052 136,-65.9052 136,-46.9052 0,-46.9052"/>
<text text-anchor="middle" x="68" y="-53.9052" font-family="Helvetica,sans-Serif" font-size="10.00">TMC2208Stepper::pwm_lim</text>
</a>
</g>
</g>
<!-- Node2 -->
<g id="node2" class="node"><title>Node2</title>
<g id="a_node2"><a xlink:href="class_t_m_c2208_stepper.html#a7c2e849de2f2933ba9bf8ede8dc53f53" target="_top" xlink:title=" ">
<polygon fill="white" stroke="black" points="172,-46.9052 172,-65.9052 321,-65.9052 321,-46.9052 172,-46.9052"/>
<text text-anchor="middle" x="246.5" y="-53.9052" font-family="Helvetica,sans-Serif" font-size="10.00">TMC2208Stepper::PWMCONF</text>
</a>
</g>
</g>
<!-- Node1&#45;&gt;Node2 -->
<g id="edge1" class="edge"><title>Node1&#45;&gt;Node2</title>
<path fill="none" stroke="midnightblue" d="M136.231,-56.4052C144.633,-56.4052 153.305,-56.4052 161.918,-56.4052"/>
<polygon fill="midnightblue" stroke="midnightblue" points="161.982,-59.9053 171.982,-56.4052 161.982,-52.9053 161.982,-59.9053"/>
</g>
<!-- Node3 -->
<g id="node3" class="node"><title>Node3</title>
<g id="a_node3"><a xlink:href="class_t_m_c2208_stepper.html#a2fae2050849c3ab7968012def8ea1cc5" target="_top" xlink:title=" ">
<polygon fill="white" stroke="black" points="357,-46.9052 357,-65.9052 473,-65.9052 473,-46.9052 357,-46.9052"/>
<text text-anchor="middle" x="415" y="-53.9052" font-family="Helvetica,sans-Serif" font-size="10.00">TMC2208Stepper::read</text>
</a>
</g>
</g>
<!-- Node2&#45;&gt;Node3 -->
<g id="edge2" class="edge"><title>Node2&#45;&gt;Node3</title>
<path fill="none" stroke="midnightblue" d="M321.014,-56.4052C329.561,-56.4052 338.246,-56.4052 346.704,-56.4052"/>
<polygon fill="midnightblue" stroke="midnightblue" points="346.882,-59.9053 356.882,-56.4052 346.882,-52.9053 346.882,-59.9053"/>
</g>
<!-- Node4 -->
<g id="node4" class="node"><title>Node4</title>
<g id="a_node4"><a xlink:href="class_t_m_c2208_stepper.html#a3e1f6a10aa1e3e41dc2594dbe1ea8a1d" target="_top" xlink:title=" ">
<polygon fill="white" stroke="black" points="509,-103.905 509,-122.905 675,-122.905 675,-103.905 509,-103.905"/>
<text text-anchor="middle" x="592" y="-110.905" font-family="Helvetica,sans-Serif" font-size="10.00">TMC2208Stepper::_sendDatagram</text>
</a>
</g>
</g>
<!-- Node3&#45;&gt;Node4 -->
<g id="edge3" class="edge"><title>Node3&#45;&gt;Node4</title>
<path fill="none" stroke="midnightblue" d="M436.7,-65.9833C455.317,-74.3262 483.568,-86.3205 509,-94.4052 517.008,-96.9508 525.555,-99.3114 533.996,-101.442"/>
<polygon fill="midnightblue" stroke="midnightblue" points="533.272,-104.868 543.816,-103.834 534.929,-98.0666 533.272,-104.868"/>
</g>
<!-- Node9 -->
<g id="node9" class="node"><title>Node9</title>
<g id="a_node9"><a xlink:href="class_s_switch.html#a6ff09d0850d551571dc333fb74ff8628" target="_top" xlink:title=" ">
<polygon fill="white" stroke="black" points="550.5,-65.9052 550.5,-84.9052 633.5,-84.9052 633.5,-65.9052 550.5,-65.9052"/>
<text text-anchor="middle" x="592" y="-72.9052" font-family="Helvetica,sans-Serif" font-size="10.00">SSwitch::active</text>
</a>
</g>
</g>
<!-- Node3&#45;&gt;Node9 -->
<g id="edge9" class="edge"><title>Node3&#45;&gt;Node9</title>
<path fill="none" stroke="midnightblue" d="M473.302,-62.6265C494.975,-64.9796 519.465,-67.6385 540.472,-69.9193"/>
<polygon fill="midnightblue" stroke="midnightblue" points="540.158,-73.4056 550.477,-71.0055 540.913,-66.4465 540.158,-73.4056"/>
</g>
<!-- Node10 -->
<g id="node10" class="node"><title>Node10</title>
<g id="a_node10"><a xlink:href="class_t_m_c2208_stepper.html#a409c19fa6b052a370a317d061bf9af4e" target="_top" xlink:title=" ">
<polygon fill="white" stroke="black" points="524,-27.9052 524,-46.9052 660,-46.9052 660,-27.9052 524,-27.9052"/>
<text text-anchor="middle" x="592" y="-34.9052" font-family="Helvetica,sans-Serif" font-size="10.00">TMC2208Stepper::calcCRC</text>
</a>
</g>
</g>
<!-- Node3&#45;&gt;Node10 -->
<g id="edge10" class="edge"><title>Node3&#45;&gt;Node10</title>
<path fill="none" stroke="midnightblue" d="M473.302,-50.1839C486.17,-48.7867 500.032,-47.2817 513.567,-45.8121"/>
<polygon fill="midnightblue" stroke="midnightblue" points="514.269,-49.2566 523.833,-44.6976 513.514,-42.2975 514.269,-49.2566"/>
</g>
<!-- Node5 -->
<g id="node5" class="node"><title>Node5</title>
<g id="a_node5"><a xlink:href="class_t_m_c2208_stepper.html#a4ec5d2b2f5a31259c7aba1f3208d63b8" target="_top" xlink:title=" ">
<polygon fill="white" stroke="black" points="725.5,-128.905 725.5,-147.905 841.5,-147.905 841.5,-128.905 725.5,-128.905"/>
<text text-anchor="middle" x="783.5" y="-135.905" font-family="Helvetica,sans-Serif" font-size="10.00">TMC2208Stepper::ms2</text>
</a>
</g>
</g>
<!-- Node4&#45;&gt;Node5 -->
<g id="edge4" class="edge"><title>Node4&#45;&gt;Node5</title>
<path fill="none" stroke="midnightblue" d="M665.182,-122.928C681.64,-125.099 699.062,-127.397 715.301,-129.54"/>
<polygon fill="midnightblue" stroke="midnightblue" points="714.868,-133.013 725.24,-130.851 715.784,-126.073 714.868,-133.013"/>
</g>
<!-- Node7 -->
<g id="node7" class="node"><title>Node7</title>
<g id="a_node7"><a xlink:href="class_t_m_c2208_stepper.html#ae561da4ec7c40830e97bf4dc8cf700fb" target="_top" xlink:title=" ">
<polygon fill="white" stroke="black" points="711,-90.9052 711,-109.905 856,-109.905 856,-90.9052 711,-90.9052"/>
<text text-anchor="middle" x="783.5" y="-97.9052" font-family="Helvetica,sans-Serif" font-size="10.00">TMC2208Stepper::serial_read</text>
</a>
</g>
</g>
<!-- Node4&#45;&gt;Node7 -->
<g id="edge7" class="edge"><title>Node4&#45;&gt;Node7</title>
<path fill="none" stroke="midnightblue" d="M675.015,-107.779C683.478,-107.198 692.078,-106.608 700.54,-106.028"/>
<polygon fill="midnightblue" stroke="midnightblue" points="701.038,-109.502 710.775,-105.326 700.559,-102.518 701.038,-109.502"/>
</g>
<!-- Node8 -->
<g id="node8" class="node"><title>Node8</title>
<g id="a_node8"><a xlink:href="class_t_m_c2208_stepper.html#a7dd83313385079099b0622957786a979" target="_top" xlink:title=" ">
<polygon fill="white" stroke="black" points="723,-41.4052 723,-71.4052 844,-71.4052 844,-41.4052 723,-41.4052"/>
<text text-anchor="start" x="731" y="-59.4052" font-family="Helvetica,sans-Serif" font-size="10.00">TMC2208Stepper::serial</text>
<text text-anchor="middle" x="783.5" y="-48.4052" font-family="Helvetica,sans-Serif" font-size="10.00">_write</text>
</a>
</g>
</g>
<!-- Node4&#45;&gt;Node8 -->
<g id="edge8" class="edge"><title>Node4&#45;&gt;Node8</title>
<path fill="none" stroke="midnightblue" d="M638.793,-103.808C650.658,-101.045 663.367,-97.8399 675,-94.4052 691.315,-89.5878 694.971,-87.1015 711,-81.4052 717.017,-79.2668 723.325,-77.0401 729.595,-74.8355"/>
<polygon fill="midnightblue" stroke="midnightblue" points="731.095,-78.0185 739.372,-71.4052 728.778,-71.4133 731.095,-78.0185"/>
</g>
<!-- Node6 -->
<g id="node6" class="node"><title>Node6</title>
<g id="a_node6"><a xlink:href="class_t_m_c2208_stepper.html#a5441dd87d0bcea4ffc309cb012166a57" target="_top" xlink:title=" ">
<polygon fill="white" stroke="black" points="892,-58.9052 892,-77.9052 1008,-77.9052 1008,-58.9052 892,-58.9052"/>
<text text-anchor="middle" x="950" y="-65.9052" font-family="Helvetica,sans-Serif" font-size="10.00">TMC2208Stepper::IOIN</text>
</a>
</g>
</g>
<!-- Node5&#45;&gt;Node6 -->
<g id="edge5" class="edge"><title>Node5&#45;&gt;Node6</title>
<path fill="none" stroke="midnightblue" d="M827.395,-128.814C836.954,-126.18 846.937,-123.032 856,-119.405 880.717,-109.514 907.177,-94.529 925.529,-83.3584"/>
<polygon fill="midnightblue" stroke="midnightblue" points="927.423,-86.3019 934.088,-78.0661 923.742,-80.348 927.423,-86.3019"/>
</g>
<!-- Node6&#45;&gt;Node3 -->
<g id="edge6" class="edge"><title>Node6&#45;&gt;Node3</title>
<path fill="none" stroke="midnightblue" d="M929.963,-58.8176C911.546,-50.0326 882.593,-37.4965 856,-31.4052 705.566,3.05335 660.437,11.3399 509,-18.4052 485.751,-22.9717 460.989,-33.3919 442.866,-42.1675"/>
<polygon fill="midnightblue" stroke="midnightblue" points="440.917,-39.2285 433.532,-46.826 444.043,-45.4917 440.917,-39.2285"/>
</g>
</g>
</svg>
