<?xml version="1.0" encoding="UTF-8" standalone="no"?>
<!DOCTYPE svg PUBLIC "-//W3C//DTD SVG 1.1//EN"
 "http://www.w3.org/Graphics/SVG/1.1/DTD/svg11.dtd">
<!-- Generated by graphviz version 2.38.0 (20140413.2041)
 -->
<!-- Title: TMC2160Stepper::rms_current Pages: 1 -->
<svg width="461pt" height="72pt"
 viewBox="0.00 0.00 461.00 71.50" xmlns="http://www.w3.org/2000/svg" xmlns:xlink="http://www.w3.org/1999/xlink">
<g id="graph0" class="graph" transform="scale(1 1) rotate(0) translate(4 67.5)">
<title>TMC2160Stepper::rms_current</title>
<polygon fill="white" stroke="none" points="-4,4 -4,-67.5 457,-67.5 457,4 -4,4"/>
<!-- Node1 -->
<g id="node1" class="node"><title>Node1</title>
<g id="a_node1"><a xlink:title=" ">
<polygon fill="#bfbfbf" stroke="black" points="0,-14 0,-44 114,-44 114,-14 0,-14"/>
<text text-anchor="start" x="8" y="-32" font-family="Helvetica,sans-Serif" font-size="10.00">TMC2160Stepper::rms</text>
<text text-anchor="middle" x="57" y="-21" font-family="Helvetica,sans-Serif" font-size="10.00">_current</text>
</a>
</g>
</g>
<!-- Node2 -->
<g id="node2" class="node"><title>Node2</title>
<g id="a_node2"><a xlink:href="class_t_m_c2160_stepper.html#a6c84af7f87af2c616de8a6a288309ecb" target="_top" xlink:title=" ">
<polygon fill="white" stroke="black" points="150,-38.5 150,-57.5 280,-57.5 280,-38.5 150,-38.5"/>
<text text-anchor="middle" x="215" y="-45.5" font-family="Helvetica,sans-Serif" font-size="10.00">TMC2160Stepper::cs2rms</text>
</a>
</g>
</g>
<!-- Node1&#45;&gt;Node2 -->
<g id="edge1" class="edge"><title>Node1&#45;&gt;Node2</title>
<path fill="none" stroke="midnightblue" d="M114.32,-35.8594C122.6,-36.8679 131.234,-37.9195 139.807,-38.9636"/>
<polygon fill="midnightblue" stroke="midnightblue" points="139.467,-42.4481 149.817,-40.1829 140.314,-35.4994 139.467,-42.4481"/>
</g>
<!-- Node4 -->
<g id="node4" class="node"><title>Node4</title>
<g id="a_node4"><a xlink:href="class_t_m_c_stepper.html#a89f965f7d005e189ef27951f37e699f2" target="_top" xlink:title=" ">
<polygon fill="white" stroke="black" points="169,-0.5 169,-19.5 261,-19.5 261,-0.5 169,-0.5"/>
<text text-anchor="middle" x="215" y="-7.5" font-family="Helvetica,sans-Serif" font-size="10.00">TMCStepper::irun</text>
</a>
</g>
</g>
<!-- Node1&#45;&gt;Node4 -->
<g id="edge3" class="edge"><title>Node1&#45;&gt;Node4</title>
<path fill="none" stroke="midnightblue" d="M114.32,-22.1406C128.646,-20.3957 144.033,-18.5217 158.327,-16.7807"/>
<polygon fill="midnightblue" stroke="midnightblue" points="159.008,-20.2237 168.511,-15.5403 158.162,-13.275 159.008,-20.2237"/>
</g>
<!-- Node3 -->
<g id="node3" class="node"><title>Node3</title>
<g id="a_node3"><a xlink:href="class_t_m_c2160_stepper.html#a4dc485fd467892f35f98ad6ea30b6d21" target="_top" xlink:title=" ">
<polygon fill="white" stroke="black" points="316,-33 316,-63 453,-63 453,-33 316,-33"/>
<text text-anchor="start" x="324" y="-51" font-family="Helvetica,sans-Serif" font-size="10.00">TMC2160Stepper::GLOBAL</text>
<text text-anchor="middle" x="384.5" y="-40" font-family="Helvetica,sans-Serif" font-size="10.00">_SCALER</text>
</a>
</g>
</g>
<!-- Node2&#45;&gt;Node3 -->
<g id="edge2" class="edge"><title>Node2&#45;&gt;Node3</title>
<path fill="none" stroke="midnightblue" d="M280.281,-48C288.545,-48 297.077,-48 305.53,-48"/>
<polygon fill="midnightblue" stroke="midnightblue" points="305.779,-51.5001 315.779,-48 305.779,-44.5001 305.779,-51.5001"/>
</g>
</g>
</svg>
