<?xml version="1.0" encoding="UTF-8" standalone="no"?>
<!DOCTYPE svg PUBLIC "-//W3C//DTD SVG 1.1//EN"
 "http://www.w3.org/Graphics/SVG/1.1/DTD/svg11.dtd">
<!-- Generated by graphviz version 2.38.0 (20140413.2041)
 -->
<!-- Title: TMCStepper::irun Pages: 1 -->
<svg width="264pt" height="116pt"
 viewBox="0.00 0.00 264.00 115.50" xmlns="http://www.w3.org/2000/svg" xmlns:xlink="http://www.w3.org/1999/xlink">
<g id="graph0" class="graph" transform="scale(1 1) rotate(0) translate(4 111.5)">
<title>TMCStepper::irun</title>
<polygon fill="white" stroke="none" points="-4,4 -4,-111.5 260,-111.5 260,4 -4,4"/>
<!-- Node1 -->
<g id="node1" class="node"><title>Node1</title>
<g id="a_node1"><a xlink:title=" ">
<polygon fill="#bfbfbf" stroke="black" points="164,-50 164,-69 256,-69 256,-50 164,-50"/>
<text text-anchor="middle" x="210" y="-57" font-family="Helvetica,sans-Serif" font-size="10.00">TMCStepper::irun</text>
</a>
</g>
</g>
<!-- Node2 -->
<g id="node2" class="node"><title>Node2</title>
<g id="a_node2"><a xlink:href="class_t_m_c_stepper.html#aa82391a803e3103b03fadd9bb597d532" target="_top" xlink:title=" ">
<polygon fill="white" stroke="black" points="18,-88 18,-107 110,-107 110,-88 18,-88"/>
<text text-anchor="middle" x="64" y="-95" font-family="Helvetica,sans-Serif" font-size="10.00">TMCStepper::irun</text>
</a>
</g>
</g>
<!-- Node1&#45;&gt;Node2 -->
<g id="edge1" class="edge"><title>Node1&#45;&gt;Node2</title>
<path fill="none" stroke="midnightblue" d="M162.828,-71.6843C142.836,-76.96 119.781,-83.0438 101.076,-87.9799"/>
<polygon fill="midnightblue" stroke="midnightblue" points="163.887,-75.0248 172.663,-69.089 162.101,-68.2565 163.887,-75.0248"/>
</g>
<!-- Node3 -->
<g id="node3" class="node"><title>Node3</title>
<g id="a_node3"><a xlink:href="class_t_m_c_stepper.html#af6bd7fc36dabb23fee412d7293a3bb75" target="_top" xlink:title=" ">
<polygon fill="white" stroke="black" points="0,-50 0,-69 128,-69 128,-50 0,-50"/>
<text text-anchor="middle" x="64" y="-57" font-family="Helvetica,sans-Serif" font-size="10.00">TMCStepper::rms_current</text>
</a>
</g>
</g>
<!-- Node1&#45;&gt;Node3 -->
<g id="edge2" class="edge"><title>Node1&#45;&gt;Node3</title>
<path fill="none" stroke="midnightblue" d="M153.808,-59.5C145.433,-59.5 136.735,-59.5 128.206,-59.5"/>
<polygon fill="midnightblue" stroke="midnightblue" points="153.833,-63.0001 163.833,-59.5 153.833,-56.0001 153.833,-63.0001"/>
</g>
<!-- Node4 -->
<g id="node4" class="node"><title>Node4</title>
<g id="a_node4"><a xlink:href="class_t_m_c2160_stepper.html#a90a23ccb351310ef8f74a6a9f7953042" target="_top" xlink:title=" ">
<polygon fill="white" stroke="black" points="7,-0.5 7,-30.5 121,-30.5 121,-0.5 7,-0.5"/>
<text text-anchor="start" x="15" y="-18.5" font-family="Helvetica,sans-Serif" font-size="10.00">TMC2160Stepper::rms</text>
<text text-anchor="middle" x="64" y="-7.5" font-family="Helvetica,sans-Serif" font-size="10.00">_current</text>
</a>
</g>
</g>
<!-- Node1&#45;&gt;Node4 -->
<g id="edge3" class="edge"><title>Node1&#45;&gt;Node4</title>
<path fill="none" stroke="midnightblue" d="M167.766,-46.9008C151.095,-41.8069 131.714,-35.8849 114.305,-30.5654"/>
<polygon fill="midnightblue" stroke="midnightblue" points="167.168,-50.3776 177.754,-49.9527 169.213,-43.6832 167.168,-50.3776"/>
</g>
</g>
</svg>
