<?xml version="1.0" encoding="UTF-8" standalone="no"?>
<!DOCTYPE svg PUBLIC "-//W3C//DTD SVG 1.1//EN"
 "http://www.w3.org/Graphics/SVG/1.1/DTD/svg11.dtd">
<!-- Generated by graphviz version 2.38.0 (20140413.2041)
 -->
<!-- Title: TMC2130Stepper::direct_mode Pages: 1 -->
<svg width="1007pt" height="104pt"
 viewBox="0.00 0.00 1007.00 104.00" xmlns="http://www.w3.org/2000/svg" xmlns:xlink="http://www.w3.org/1999/xlink">
<g id="graph0" class="graph" transform="scale(1 1) rotate(0) translate(4 100)">
<title>TMC2130Stepper::direct_mode</title>
<polygon fill="white" stroke="none" points="-4,4 -4,-100 1003,-100 1003,4 -4,4"/>
<!-- Node1 -->
<g id="node1" class="node"><title>Node1</title>
<g id="a_node1"><a xlink:title=" ">
<polygon fill="#bfbfbf" stroke="black" points="0,-38.5 0,-57.5 151,-57.5 151,-38.5 0,-38.5"/>
<text text-anchor="middle" x="75.5" y="-45.5" font-family="Helvetica,sans-Serif" font-size="10.00">TMC2130Stepper::direct_mode</text>
</a>
</g>
</g>
<!-- Node2 -->
<g id="node2" class="node"><title>Node2</title>
<g id="a_node2"><a xlink:href="class_t_m_c2130_stepper.html#a6dc182cb867bbeaf8ce2476e74d90679" target="_top" xlink:title=" ">
<polygon fill="white" stroke="black" points="187,-38.5 187,-57.5 338,-57.5 338,-38.5 187,-38.5"/>
<text text-anchor="middle" x="262.5" y="-45.5" font-family="Helvetica,sans-Serif" font-size="10.00">TMC2130Stepper::direct_mode</text>
</a>
</g>
</g>
<!-- Node1&#45;&gt;Node2 -->
<g id="edge1" class="edge"><title>Node1&#45;&gt;Node2</title>
<path fill="none" stroke="midnightblue" d="M151.213,-48C159.555,-48 168.097,-48 176.554,-48"/>
<polygon fill="midnightblue" stroke="midnightblue" points="176.809,-51.5001 186.809,-48 176.809,-44.5001 176.809,-51.5001"/>
</g>
<!-- Node3 -->
<g id="node3" class="node"><title>Node3</title>
<g id="a_node3"><a xlink:href="class_t_m_c2130_stepper.html#aee84a9abfc84b387c6ae5658f90bf684" target="_top" xlink:title=" ">
<polygon fill="white" stroke="black" points="374,-38.5 374,-57.5 506,-57.5 506,-38.5 374,-38.5"/>
<text text-anchor="middle" x="440" y="-45.5" font-family="Helvetica,sans-Serif" font-size="10.00">TMC2130Stepper::GCONF</text>
</a>
</g>
</g>
<!-- Node2&#45;&gt;Node3 -->
<g id="edge2" class="edge"><title>Node2&#45;&gt;Node3</title>
<path fill="none" stroke="midnightblue" d="M338.182,-48C346.606,-48 355.194,-48 363.626,-48"/>
<polygon fill="midnightblue" stroke="midnightblue" points="363.813,-51.5001 373.813,-48 363.812,-44.5001 363.813,-51.5001"/>
</g>
<!-- Node4 -->
<g id="node4" class="node"><title>Node4</title>
<g id="a_node4"><a xlink:href="class_t_m_c2130_stepper.html#aed0175bff6e80ebc14e0d2606283cbe0" target="_top" xlink:title=" ">
<polygon fill="white" stroke="black" points="542,-38.5 542,-57.5 658,-57.5 658,-38.5 542,-38.5"/>
<text text-anchor="middle" x="600" y="-45.5" font-family="Helvetica,sans-Serif" font-size="10.00">TMC2130Stepper::read</text>
</a>
</g>
</g>
<!-- Node3&#45;&gt;Node4 -->
<g id="edge3" class="edge"><title>Node3&#45;&gt;Node4</title>
<path fill="none" stroke="midnightblue" d="M506.177,-48C514.517,-48 523.069,-48 531.445,-48"/>
<polygon fill="midnightblue" stroke="midnightblue" points="531.55,-51.5001 541.55,-48 531.55,-44.5001 531.55,-51.5001"/>
</g>
<!-- Node5 -->
<g id="node5" class="node"><title>Node5</title>
<g id="a_node5"><a xlink:href="class_t_m_c2130_stepper.html#aed8aa4583943e649dbf3bb1c1da90d63" target="_top" xlink:title=" ">
<polygon fill="white" stroke="black" points="694,-76.5 694,-95.5 846,-95.5 846,-76.5 694,-76.5"/>
<text text-anchor="middle" x="770" y="-83.5" font-family="Helvetica,sans-Serif" font-size="10.00">TMC2130Stepper::switchCSpin</text>
</a>
</g>
</g>
<!-- Node4&#45;&gt;Node5 -->
<g id="edge4" class="edge"><title>Node4&#45;&gt;Node5</title>
<path fill="none" stroke="midnightblue" d="M643.393,-57.589C665.763,-62.6487 693.398,-68.8996 717.047,-74.2488"/>
<polygon fill="midnightblue" stroke="midnightblue" points="716.386,-77.6875 726.911,-76.4799 717.93,-70.8599 716.386,-77.6875"/>
</g>
<!-- Node6 -->
<g id="node6" class="node"><title>Node6</title>
<g id="a_node6"><a xlink:href="class_s_w___s_p_i_class.html#af260fdc0af3f1312b106483161e559c3" target="_top" xlink:title=" ">
<polygon fill="white" stroke="black" points="882,-19.5 882,-38.5 999,-38.5 999,-19.5 882,-19.5"/>
<text text-anchor="middle" x="940.5" y="-26.5" font-family="Helvetica,sans-Serif" font-size="10.00">SW_SPIClass::transfer</text>
</a>
</g>
</g>
<!-- Node4&#45;&gt;Node6 -->
<g id="edge5" class="edge"><title>Node4&#45;&gt;Node6</title>
<path fill="none" stroke="midnightblue" d="M658.039,-44.7984C717.027,-41.4874 809.113,-36.3186 871.765,-32.802"/>
<polygon fill="midnightblue" stroke="midnightblue" points="872.156,-36.2856 881.944,-32.2306 871.763,-29.2966 872.156,-36.2856"/>
</g>
<!-- Node7 -->
<g id="node7" class="node"><title>Node7</title>
<g id="a_node7"><a xlink:href="class_s_w___s_p_i_class.html#a1b7600aa1d9571c103718c5d3e376675" target="_top" xlink:title=" ">
<polygon fill="white" stroke="black" points="706,-0.5 706,-19.5 834,-19.5 834,-0.5 706,-0.5"/>
<text text-anchor="middle" x="770" y="-7.5" font-family="Helvetica,sans-Serif" font-size="10.00">SW_SPIClass::transfer16</text>
</a>
</g>
</g>
<!-- Node4&#45;&gt;Node7 -->
<g id="edge6" class="edge"><title>Node4&#45;&gt;Node7</title>
<path fill="none" stroke="midnightblue" d="M643.393,-38.411C665.763,-33.3513 693.398,-27.1004 717.047,-21.7512"/>
<polygon fill="midnightblue" stroke="midnightblue" points="717.93,-25.1401 726.911,-19.5201 716.386,-18.3125 717.93,-25.1401"/>
</g>
<!-- Node7&#45;&gt;Node6 -->
<g id="edge7" class="edge"><title>Node7&#45;&gt;Node6</title>
<path fill="none" stroke="midnightblue" d="M834.223,-17.129C846.406,-18.5028 859.217,-19.9473 871.543,-21.3372"/>
<polygon fill="midnightblue" stroke="midnightblue" points="871.43,-24.8466 881.76,-22.4892 872.215,-17.8907 871.43,-24.8466"/>
</g>
</g>
</svg>
