<?xml version="1.0" encoding="UTF-8" standalone="no"?>
<!DOCTYPE svg PUBLIC "-//W3C//DTD SVG 1.1//EN"
 "http://www.w3.org/Graphics/SVG/1.1/DTD/svg11.dtd">
<!-- Generated by graphviz version 2.38.0 (20140413.2041)
 -->
<!-- Title: TMC2130Stepper::stop_enable Pages: 1 -->
<svg width="785pt" height="104pt"
 viewBox="0.00 0.00 785.00 104.00" xmlns="http://www.w3.org/2000/svg" xmlns:xlink="http://www.w3.org/1999/xlink">
<g id="graph0" class="graph" transform="scale(1 1) rotate(0) translate(4 100)">
<title>TMC2130Stepper::stop_enable</title>
<polygon fill="white" stroke="none" points="-4,4 -4,-100 781,-100 781,4 -4,4"/>
<!-- Node1 -->
<g id="node1" class="node"><title>Node1</title>
<g id="a_node1"><a xlink:title=" ">
<polygon fill="#bfbfbf" stroke="black" points="0,-33 0,-63 116,-63 116,-33 0,-33"/>
<text text-anchor="start" x="8" y="-51" font-family="Helvetica,sans-Serif" font-size="10.00">TMC2130Stepper::stop</text>
<text text-anchor="middle" x="58" y="-40" font-family="Helvetica,sans-Serif" font-size="10.00">_enable</text>
</a>
</g>
</g>
<!-- Node2 -->
<g id="node2" class="node"><title>Node2</title>
<g id="a_node2"><a xlink:href="class_t_m_c2130_stepper.html#aee84a9abfc84b387c6ae5658f90bf684" target="_top" xlink:title=" ">
<polygon fill="white" stroke="black" points="152,-38.5 152,-57.5 284,-57.5 284,-38.5 152,-38.5"/>
<text text-anchor="middle" x="218" y="-45.5" font-family="Helvetica,sans-Serif" font-size="10.00">TMC2130Stepper::GCONF</text>
</a>
</g>
</g>
<!-- Node1&#45;&gt;Node2 -->
<g id="edge1" class="edge"><title>Node1&#45;&gt;Node2</title>
<path fill="none" stroke="midnightblue" d="M116.042,-48C124.428,-48 133.173,-48 141.855,-48"/>
<polygon fill="midnightblue" stroke="midnightblue" points="141.994,-51.5001 151.994,-48 141.994,-44.5001 141.994,-51.5001"/>
</g>
<!-- Node3 -->
<g id="node3" class="node"><title>Node3</title>
<g id="a_node3"><a xlink:href="class_t_m_c2130_stepper.html#aed0175bff6e80ebc14e0d2606283cbe0" target="_top" xlink:title=" ">
<polygon fill="white" stroke="black" points="320,-38.5 320,-57.5 436,-57.5 436,-38.5 320,-38.5"/>
<text text-anchor="middle" x="378" y="-45.5" font-family="Helvetica,sans-Serif" font-size="10.00">TMC2130Stepper::read</text>
</a>
</g>
</g>
<!-- Node2&#45;&gt;Node3 -->
<g id="edge2" class="edge"><title>Node2&#45;&gt;Node3</title>
<path fill="none" stroke="midnightblue" d="M284.177,-48C292.517,-48 301.069,-48 309.445,-48"/>
<polygon fill="midnightblue" stroke="midnightblue" points="309.55,-51.5001 319.55,-48 309.55,-44.5001 309.55,-51.5001"/>
</g>
<!-- Node4 -->
<g id="node4" class="node"><title>Node4</title>
<g id="a_node4"><a xlink:href="class_t_m_c2130_stepper.html#aed8aa4583943e649dbf3bb1c1da90d63" target="_top" xlink:title=" ">
<polygon fill="white" stroke="black" points="472,-76.5 472,-95.5 624,-95.5 624,-76.5 472,-76.5"/>
<text text-anchor="middle" x="548" y="-83.5" font-family="Helvetica,sans-Serif" font-size="10.00">TMC2130Stepper::switchCSpin</text>
</a>
</g>
</g>
<!-- Node3&#45;&gt;Node4 -->
<g id="edge3" class="edge"><title>Node3&#45;&gt;Node4</title>
<path fill="none" stroke="midnightblue" d="M421.393,-57.589C443.763,-62.6487 471.398,-68.8996 495.047,-74.2488"/>
<polygon fill="midnightblue" stroke="midnightblue" points="494.386,-77.6875 504.911,-76.4799 495.93,-70.8599 494.386,-77.6875"/>
</g>
<!-- Node5 -->
<g id="node5" class="node"><title>Node5</title>
<g id="a_node5"><a xlink:href="class_s_w___s_p_i_class.html#af260fdc0af3f1312b106483161e559c3" target="_top" xlink:title=" ">
<polygon fill="white" stroke="black" points="660,-19.5 660,-38.5 777,-38.5 777,-19.5 660,-19.5"/>
<text text-anchor="middle" x="718.5" y="-26.5" font-family="Helvetica,sans-Serif" font-size="10.00">SW_SPIClass::transfer</text>
</a>
</g>
</g>
<!-- Node3&#45;&gt;Node5 -->
<g id="edge4" class="edge"><title>Node3&#45;&gt;Node5</title>
<path fill="none" stroke="midnightblue" d="M436.039,-44.7984C495.027,-41.4874 587.113,-36.3186 649.765,-32.802"/>
<polygon fill="midnightblue" stroke="midnightblue" points="650.156,-36.2856 659.944,-32.2306 649.763,-29.2966 650.156,-36.2856"/>
</g>
<!-- Node6 -->
<g id="node6" class="node"><title>Node6</title>
<g id="a_node6"><a xlink:href="class_s_w___s_p_i_class.html#a1b7600aa1d9571c103718c5d3e376675" target="_top" xlink:title=" ">
<polygon fill="white" stroke="black" points="484,-0.5 484,-19.5 612,-19.5 612,-0.5 484,-0.5"/>
<text text-anchor="middle" x="548" y="-7.5" font-family="Helvetica,sans-Serif" font-size="10.00">SW_SPIClass::transfer16</text>
</a>
</g>
</g>
<!-- Node3&#45;&gt;Node6 -->
<g id="edge5" class="edge"><title>Node3&#45;&gt;Node6</title>
<path fill="none" stroke="midnightblue" d="M421.393,-38.411C443.763,-33.3513 471.398,-27.1004 495.047,-21.7512"/>
<polygon fill="midnightblue" stroke="midnightblue" points="495.93,-25.1401 504.911,-19.5201 494.386,-18.3125 495.93,-25.1401"/>
</g>
<!-- Node6&#45;&gt;Node5 -->
<g id="edge6" class="edge"><title>Node6&#45;&gt;Node5</title>
<path fill="none" stroke="midnightblue" d="M612.223,-17.129C624.406,-18.5028 637.217,-19.9473 649.543,-21.3372"/>
<polygon fill="midnightblue" stroke="midnightblue" points="649.43,-24.8466 659.76,-22.4892 650.215,-17.8907 649.43,-24.8466"/>
</g>
</g>
</svg>
