<?xml version="1.0" encoding="UTF-8" standalone="no"?>
<!DOCTYPE svg PUBLIC "-//W3C//DTD SVG 1.1//EN"
 "http://www.w3.org/Graphics/SVG/1.1/DTD/svg11.dtd">
<!-- Generated by graphviz version 2.38.0 (20140413.2041)
 -->
<!-- Title: TMC2208Stepper::intpol Pages: 1 -->
<svg width="1004pt" height="156pt"
 viewBox="0.00 0.00 1004.00 156.41" xmlns="http://www.w3.org/2000/svg" xmlns:xlink="http://www.w3.org/1999/xlink">
<g id="graph0" class="graph" transform="scale(1 1) rotate(0) translate(4 152.405)">
<title>TMC2208Stepper::intpol</title>
<polygon fill="white" stroke="none" points="-4,4 -4,-152.405 1000,-152.405 1000,4 -4,4"/>
<!-- Node1 -->
<g id="node1" class="node"><title>Node1</title>
<g id="a_node1"><a xlink:title=" ">
<polygon fill="#bfbfbf" stroke="black" points="0,-46.9052 0,-65.9052 121,-65.9052 121,-46.9052 0,-46.9052"/>
<text text-anchor="middle" x="60.5" y="-53.9052" font-family="Helvetica,sans-Serif" font-size="10.00">TMC2208Stepper::intpol</text>
</a>
</g>
</g>
<!-- Node2 -->
<g id="node2" class="node"><title>Node2</title>
<g id="a_node2"><a xlink:href="class_t_m_c2208_stepper.html#aa11281f54c293f3ff2539b1a583682a9" target="_top" xlink:title=" ">
<polygon fill="white" stroke="black" points="157,-46.9052 157,-65.9052 309,-65.9052 309,-46.9052 157,-46.9052"/>
<text text-anchor="middle" x="233" y="-53.9052" font-family="Helvetica,sans-Serif" font-size="10.00">TMC2208Stepper::CHOPCONF</text>
</a>
</g>
</g>
<!-- Node1&#45;&gt;Node2 -->
<g id="edge1" class="edge"><title>Node1&#45;&gt;Node2</title>
<path fill="none" stroke="midnightblue" d="M121.133,-56.4052C129.415,-56.4052 138.053,-56.4052 146.692,-56.4052"/>
<polygon fill="midnightblue" stroke="midnightblue" points="146.813,-59.9053 156.813,-56.4052 146.813,-52.9053 146.813,-59.9053"/>
</g>
<!-- Node3 -->
<g id="node3" class="node"><title>Node3</title>
<g id="a_node3"><a xlink:href="class_t_m_c2208_stepper.html#a2fae2050849c3ab7968012def8ea1cc5" target="_top" xlink:title=" ">
<polygon fill="white" stroke="black" points="345,-46.9052 345,-65.9052 461,-65.9052 461,-46.9052 345,-46.9052"/>
<text text-anchor="middle" x="403" y="-53.9052" font-family="Helvetica,sans-Serif" font-size="10.00">TMC2208Stepper::read</text>
</a>
</g>
</g>
<!-- Node2&#45;&gt;Node3 -->
<g id="edge2" class="edge"><title>Node2&#45;&gt;Node3</title>
<path fill="none" stroke="midnightblue" d="M309.155,-56.4052C317.664,-56.4052 326.296,-56.4052 334.696,-56.4052"/>
<polygon fill="midnightblue" stroke="midnightblue" points="334.802,-59.9053 344.802,-56.4052 334.802,-52.9053 334.802,-59.9053"/>
</g>
<!-- Node4 -->
<g id="node4" class="node"><title>Node4</title>
<g id="a_node4"><a xlink:href="class_t_m_c2208_stepper.html#a3e1f6a10aa1e3e41dc2594dbe1ea8a1d" target="_top" xlink:title=" ">
<polygon fill="white" stroke="black" points="497,-103.905 497,-122.905 663,-122.905 663,-103.905 497,-103.905"/>
<text text-anchor="middle" x="580" y="-110.905" font-family="Helvetica,sans-Serif" font-size="10.00">TMC2208Stepper::_sendDatagram</text>
</a>
</g>
</g>
<!-- Node3&#45;&gt;Node4 -->
<g id="edge3" class="edge"><title>Node3&#45;&gt;Node4</title>
<path fill="none" stroke="midnightblue" d="M424.7,-65.9833C443.317,-74.3262 471.568,-86.3205 497,-94.4052 505.008,-96.9508 513.555,-99.3114 521.996,-101.442"/>
<polygon fill="midnightblue" stroke="midnightblue" points="521.272,-104.868 531.816,-103.834 522.929,-98.0666 521.272,-104.868"/>
</g>
<!-- Node9 -->
<g id="node9" class="node"><title>Node9</title>
<g id="a_node9"><a xlink:href="class_s_switch.html#a6ff09d0850d551571dc333fb74ff8628" target="_top" xlink:title=" ">
<polygon fill="white" stroke="black" points="538.5,-65.9052 538.5,-84.9052 621.5,-84.9052 621.5,-65.9052 538.5,-65.9052"/>
<text text-anchor="middle" x="580" y="-72.9052" font-family="Helvetica,sans-Serif" font-size="10.00">SSwitch::active</text>
</a>
</g>
</g>
<!-- Node3&#45;&gt;Node9 -->
<g id="edge9" class="edge"><title>Node3&#45;&gt;Node9</title>
<path fill="none" stroke="midnightblue" d="M461.302,-62.6265C482.975,-64.9796 507.465,-67.6385 528.472,-69.9193"/>
<polygon fill="midnightblue" stroke="midnightblue" points="528.158,-73.4056 538.477,-71.0055 528.913,-66.4465 528.158,-73.4056"/>
</g>
<!-- Node10 -->
<g id="node10" class="node"><title>Node10</title>
<g id="a_node10"><a xlink:href="class_t_m_c2208_stepper.html#a409c19fa6b052a370a317d061bf9af4e" target="_top" xlink:title=" ">
<polygon fill="white" stroke="black" points="512,-27.9052 512,-46.9052 648,-46.9052 648,-27.9052 512,-27.9052"/>
<text text-anchor="middle" x="580" y="-34.9052" font-family="Helvetica,sans-Serif" font-size="10.00">TMC2208Stepper::calcCRC</text>
</a>
</g>
</g>
<!-- Node3&#45;&gt;Node10 -->
<g id="edge10" class="edge"><title>Node3&#45;&gt;Node10</title>
<path fill="none" stroke="midnightblue" d="M461.302,-50.1839C474.17,-48.7867 488.032,-47.2817 501.567,-45.8121"/>
<polygon fill="midnightblue" stroke="midnightblue" points="502.269,-49.2566 511.833,-44.6976 501.514,-42.2975 502.269,-49.2566"/>
</g>
<!-- Node5 -->
<g id="node5" class="node"><title>Node5</title>
<g id="a_node5"><a xlink:href="class_t_m_c2208_stepper.html#a4ec5d2b2f5a31259c7aba1f3208d63b8" target="_top" xlink:title=" ">
<polygon fill="white" stroke="black" points="713.5,-128.905 713.5,-147.905 829.5,-147.905 829.5,-128.905 713.5,-128.905"/>
<text text-anchor="middle" x="771.5" y="-135.905" font-family="Helvetica,sans-Serif" font-size="10.00">TMC2208Stepper::ms2</text>
</a>
</g>
</g>
<!-- Node4&#45;&gt;Node5 -->
<g id="edge4" class="edge"><title>Node4&#45;&gt;Node5</title>
<path fill="none" stroke="midnightblue" d="M653.182,-122.928C669.64,-125.099 687.062,-127.397 703.301,-129.54"/>
<polygon fill="midnightblue" stroke="midnightblue" points="702.868,-133.013 713.24,-130.851 703.784,-126.073 702.868,-133.013"/>
</g>
<!-- Node7 -->
<g id="node7" class="node"><title>Node7</title>
<g id="a_node7"><a xlink:href="class_t_m_c2208_stepper.html#ae561da4ec7c40830e97bf4dc8cf700fb" target="_top" xlink:title=" ">
<polygon fill="white" stroke="black" points="699,-90.9052 699,-109.905 844,-109.905 844,-90.9052 699,-90.9052"/>
<text text-anchor="middle" x="771.5" y="-97.9052" font-family="Helvetica,sans-Serif" font-size="10.00">TMC2208Stepper::serial_read</text>
</a>
</g>
</g>
<!-- Node4&#45;&gt;Node7 -->
<g id="edge7" class="edge"><title>Node4&#45;&gt;Node7</title>
<path fill="none" stroke="midnightblue" d="M663.015,-107.779C671.478,-107.198 680.078,-106.608 688.54,-106.028"/>
<polygon fill="midnightblue" stroke="midnightblue" points="689.038,-109.502 698.775,-105.326 688.559,-102.518 689.038,-109.502"/>
</g>
<!-- Node8 -->
<g id="node8" class="node"><title>Node8</title>
<g id="a_node8"><a xlink:href="class_t_m_c2208_stepper.html#a7dd83313385079099b0622957786a979" target="_top" xlink:title=" ">
<polygon fill="white" stroke="black" points="711,-41.4052 711,-71.4052 832,-71.4052 832,-41.4052 711,-41.4052"/>
<text text-anchor="start" x="719" y="-59.4052" font-family="Helvetica,sans-Serif" font-size="10.00">TMC2208Stepper::serial</text>
<text text-anchor="middle" x="771.5" y="-48.4052" font-family="Helvetica,sans-Serif" font-size="10.00">_write</text>
</a>
</g>
</g>
<!-- Node4&#45;&gt;Node8 -->
<g id="edge8" class="edge"><title>Node4&#45;&gt;Node8</title>
<path fill="none" stroke="midnightblue" d="M626.793,-103.808C638.658,-101.045 651.367,-97.8399 663,-94.4052 679.315,-89.5878 682.971,-87.1015 699,-81.4052 705.017,-79.2668 711.325,-77.0401 717.595,-74.8355"/>
<polygon fill="midnightblue" stroke="midnightblue" points="719.095,-78.0185 727.372,-71.4052 716.778,-71.4133 719.095,-78.0185"/>
</g>
<!-- Node6 -->
<g id="node6" class="node"><title>Node6</title>
<g id="a_node6"><a xlink:href="class_t_m_c2208_stepper.html#a5441dd87d0bcea4ffc309cb012166a57" target="_top" xlink:title=" ">
<polygon fill="white" stroke="black" points="880,-58.9052 880,-77.9052 996,-77.9052 996,-58.9052 880,-58.9052"/>
<text text-anchor="middle" x="938" y="-65.9052" font-family="Helvetica,sans-Serif" font-size="10.00">TMC2208Stepper::IOIN</text>
</a>
</g>
</g>
<!-- Node5&#45;&gt;Node6 -->
<g id="edge5" class="edge"><title>Node5&#45;&gt;Node6</title>
<path fill="none" stroke="midnightblue" d="M815.395,-128.814C824.954,-126.18 834.937,-123.032 844,-119.405 868.717,-109.514 895.177,-94.529 913.529,-83.3584"/>
<polygon fill="midnightblue" stroke="midnightblue" points="915.423,-86.3019 922.088,-78.0661 911.742,-80.348 915.423,-86.3019"/>
</g>
<!-- Node6&#45;&gt;Node3 -->
<g id="edge6" class="edge"><title>Node6&#45;&gt;Node3</title>
<path fill="none" stroke="midnightblue" d="M917.963,-58.8176C899.546,-50.0326 870.593,-37.4965 844,-31.4052 693.566,3.05335 648.437,11.3399 497,-18.4052 473.751,-22.9717 448.989,-33.3919 430.866,-42.1675"/>
<polygon fill="midnightblue" stroke="midnightblue" points="428.917,-39.2285 421.532,-46.826 432.043,-45.4917 428.917,-39.2285"/>
</g>
</g>
</svg>
