<?xml version="1.0" encoding="UTF-8" standalone="no"?>
<!DOCTYPE svg PUBLIC "-//W3C//DTD SVG 1.1//EN"
 "http://www.w3.org/Graphics/SVG/1.1/DTD/svg11.dtd">
<!-- Generated by graphviz version 2.38.0 (20140413.2041)
 -->
<!-- Title: TMC2208Stepper::pwm_scale_auto Pages: 1 -->
<svg width="971pt" height="156pt"
 viewBox="0.00 0.00 971.00 156.41" xmlns="http://www.w3.org/2000/svg" xmlns:xlink="http://www.w3.org/1999/xlink">
<g id="graph0" class="graph" transform="scale(1 1) rotate(0) translate(4 152.405)">
<title>TMC2208Stepper::pwm_scale_auto</title>
<polygon fill="white" stroke="none" points="-4,4 -4,-152.405 967,-152.405 967,4 -4,4"/>
<!-- Node1 -->
<g id="node1" class="node"><title>Node1</title>
<g id="a_node1"><a xlink:title=" ">
<polygon fill="#bfbfbf" stroke="black" points="0,-41.4052 0,-71.4052 118,-71.4052 118,-41.4052 0,-41.4052"/>
<text text-anchor="start" x="8" y="-59.4052" font-family="Helvetica,sans-Serif" font-size="10.00">TMC2208Stepper::pwm</text>
<text text-anchor="middle" x="59" y="-48.4052" font-family="Helvetica,sans-Serif" font-size="10.00">_scale_auto</text>
</a>
</g>
</g>
<!-- Node2 -->
<g id="node2" class="node"><title>Node2</title>
<g id="a_node2"><a xlink:href="class_t_m_c2208_stepper.html#adc81db53cf0291216352b13e5425e67b" target="_top" xlink:title=" ">
<polygon fill="white" stroke="black" points="154,-41.4052 154,-71.4052 276,-71.4052 276,-41.4052 154,-41.4052"/>
<text text-anchor="start" x="162" y="-59.4052" font-family="Helvetica,sans-Serif" font-size="10.00">TMC2208Stepper::PWM</text>
<text text-anchor="middle" x="215" y="-48.4052" font-family="Helvetica,sans-Serif" font-size="10.00">_SCALE</text>
</a>
</g>
</g>
<!-- Node1&#45;&gt;Node2 -->
<g id="edge1" class="edge"><title>Node1&#45;&gt;Node2</title>
<path fill="none" stroke="midnightblue" d="M118.221,-56.4052C126.608,-56.4052 135.312,-56.4052 143.9,-56.4052"/>
<polygon fill="midnightblue" stroke="midnightblue" points="143.903,-59.9053 153.903,-56.4052 143.903,-52.9053 143.903,-59.9053"/>
</g>
<!-- Node3 -->
<g id="node3" class="node"><title>Node3</title>
<g id="a_node3"><a xlink:href="class_t_m_c2208_stepper.html#a2fae2050849c3ab7968012def8ea1cc5" target="_top" xlink:title=" ">
<polygon fill="white" stroke="black" points="312,-46.9052 312,-65.9052 428,-65.9052 428,-46.9052 312,-46.9052"/>
<text text-anchor="middle" x="370" y="-53.9052" font-family="Helvetica,sans-Serif" font-size="10.00">TMC2208Stepper::read</text>
</a>
</g>
</g>
<!-- Node2&#45;&gt;Node3 -->
<g id="edge2" class="edge"><title>Node2&#45;&gt;Node3</title>
<path fill="none" stroke="midnightblue" d="M276.031,-56.4052C284.363,-56.4052 292.969,-56.4052 301.428,-56.4052"/>
<polygon fill="midnightblue" stroke="midnightblue" points="301.644,-59.9053 311.644,-56.4052 301.644,-52.9053 301.644,-59.9053"/>
</g>
<!-- Node4 -->
<g id="node4" class="node"><title>Node4</title>
<g id="a_node4"><a xlink:href="class_t_m_c2208_stepper.html#a3e1f6a10aa1e3e41dc2594dbe1ea8a1d" target="_top" xlink:title=" ">
<polygon fill="white" stroke="black" points="464,-103.905 464,-122.905 630,-122.905 630,-103.905 464,-103.905"/>
<text text-anchor="middle" x="547" y="-110.905" font-family="Helvetica,sans-Serif" font-size="10.00">TMC2208Stepper::_sendDatagram</text>
</a>
</g>
</g>
<!-- Node3&#45;&gt;Node4 -->
<g id="edge3" class="edge"><title>Node3&#45;&gt;Node4</title>
<path fill="none" stroke="midnightblue" d="M391.7,-65.9833C410.317,-74.3262 438.568,-86.3205 464,-94.4052 472.008,-96.9508 480.555,-99.3114 488.996,-101.442"/>
<polygon fill="midnightblue" stroke="midnightblue" points="488.272,-104.868 498.816,-103.834 489.929,-98.0666 488.272,-104.868"/>
</g>
<!-- Node9 -->
<g id="node9" class="node"><title>Node9</title>
<g id="a_node9"><a xlink:href="class_s_switch.html#a6ff09d0850d551571dc333fb74ff8628" target="_top" xlink:title=" ">
<polygon fill="white" stroke="black" points="505.5,-65.9052 505.5,-84.9052 588.5,-84.9052 588.5,-65.9052 505.5,-65.9052"/>
<text text-anchor="middle" x="547" y="-72.9052" font-family="Helvetica,sans-Serif" font-size="10.00">SSwitch::active</text>
</a>
</g>
</g>
<!-- Node3&#45;&gt;Node9 -->
<g id="edge9" class="edge"><title>Node3&#45;&gt;Node9</title>
<path fill="none" stroke="midnightblue" d="M428.302,-62.6265C449.975,-64.9796 474.465,-67.6385 495.472,-69.9193"/>
<polygon fill="midnightblue" stroke="midnightblue" points="495.158,-73.4056 505.477,-71.0055 495.913,-66.4465 495.158,-73.4056"/>
</g>
<!-- Node10 -->
<g id="node10" class="node"><title>Node10</title>
<g id="a_node10"><a xlink:href="class_t_m_c2208_stepper.html#a409c19fa6b052a370a317d061bf9af4e" target="_top" xlink:title=" ">
<polygon fill="white" stroke="black" points="479,-27.9052 479,-46.9052 615,-46.9052 615,-27.9052 479,-27.9052"/>
<text text-anchor="middle" x="547" y="-34.9052" font-family="Helvetica,sans-Serif" font-size="10.00">TMC2208Stepper::calcCRC</text>
</a>
</g>
</g>
<!-- Node3&#45;&gt;Node10 -->
<g id="edge10" class="edge"><title>Node3&#45;&gt;Node10</title>
<path fill="none" stroke="midnightblue" d="M428.302,-50.1839C441.17,-48.7867 455.032,-47.2817 468.567,-45.8121"/>
<polygon fill="midnightblue" stroke="midnightblue" points="469.269,-49.2566 478.833,-44.6976 468.514,-42.2975 469.269,-49.2566"/>
</g>
<!-- Node5 -->
<g id="node5" class="node"><title>Node5</title>
<g id="a_node5"><a xlink:href="class_t_m_c2208_stepper.html#a4ec5d2b2f5a31259c7aba1f3208d63b8" target="_top" xlink:title=" ">
<polygon fill="white" stroke="black" points="680.5,-128.905 680.5,-147.905 796.5,-147.905 796.5,-128.905 680.5,-128.905"/>
<text text-anchor="middle" x="738.5" y="-135.905" font-family="Helvetica,sans-Serif" font-size="10.00">TMC2208Stepper::ms2</text>
</a>
</g>
</g>
<!-- Node4&#45;&gt;Node5 -->
<g id="edge4" class="edge"><title>Node4&#45;&gt;Node5</title>
<path fill="none" stroke="midnightblue" d="M620.182,-122.928C636.64,-125.099 654.062,-127.397 670.301,-129.54"/>
<polygon fill="midnightblue" stroke="midnightblue" points="669.868,-133.013 680.24,-130.851 670.784,-126.073 669.868,-133.013"/>
</g>
<!-- Node7 -->
<g id="node7" class="node"><title>Node7</title>
<g id="a_node7"><a xlink:href="class_t_m_c2208_stepper.html#ae561da4ec7c40830e97bf4dc8cf700fb" target="_top" xlink:title=" ">
<polygon fill="white" stroke="black" points="666,-90.9052 666,-109.905 811,-109.905 811,-90.9052 666,-90.9052"/>
<text text-anchor="middle" x="738.5" y="-97.9052" font-family="Helvetica,sans-Serif" font-size="10.00">TMC2208Stepper::serial_read</text>
</a>
</g>
</g>
<!-- Node4&#45;&gt;Node7 -->
<g id="edge7" class="edge"><title>Node4&#45;&gt;Node7</title>
<path fill="none" stroke="midnightblue" d="M630.015,-107.779C638.478,-107.198 647.078,-106.608 655.54,-106.028"/>
<polygon fill="midnightblue" stroke="midnightblue" points="656.038,-109.502 665.775,-105.326 655.559,-102.518 656.038,-109.502"/>
</g>
<!-- Node8 -->
<g id="node8" class="node"><title>Node8</title>
<g id="a_node8"><a xlink:href="class_t_m_c2208_stepper.html#a7dd83313385079099b0622957786a979" target="_top" xlink:title=" ">
<polygon fill="white" stroke="black" points="678,-41.4052 678,-71.4052 799,-71.4052 799,-41.4052 678,-41.4052"/>
<text text-anchor="start" x="686" y="-59.4052" font-family="Helvetica,sans-Serif" font-size="10.00">TMC2208Stepper::serial</text>
<text text-anchor="middle" x="738.5" y="-48.4052" font-family="Helvetica,sans-Serif" font-size="10.00">_write</text>
</a>
</g>
</g>
<!-- Node4&#45;&gt;Node8 -->
<g id="edge8" class="edge"><title>Node4&#45;&gt;Node8</title>
<path fill="none" stroke="midnightblue" d="M593.793,-103.808C605.658,-101.045 618.367,-97.8399 630,-94.4052 646.315,-89.5878 649.971,-87.1015 666,-81.4052 672.017,-79.2668 678.325,-77.0401 684.595,-74.8355"/>
<polygon fill="midnightblue" stroke="midnightblue" points="686.095,-78.0185 694.372,-71.4052 683.778,-71.4133 686.095,-78.0185"/>
</g>
<!-- Node6 -->
<g id="node6" class="node"><title>Node6</title>
<g id="a_node6"><a xlink:href="class_t_m_c2208_stepper.html#a5441dd87d0bcea4ffc309cb012166a57" target="_top" xlink:title=" ">
<polygon fill="white" stroke="black" points="847,-58.9052 847,-77.9052 963,-77.9052 963,-58.9052 847,-58.9052"/>
<text text-anchor="middle" x="905" y="-65.9052" font-family="Helvetica,sans-Serif" font-size="10.00">TMC2208Stepper::IOIN</text>
</a>
</g>
</g>
<!-- Node5&#45;&gt;Node6 -->
<g id="edge5" class="edge"><title>Node5&#45;&gt;Node6</title>
<path fill="none" stroke="midnightblue" d="M782.395,-128.814C791.954,-126.18 801.937,-123.032 811,-119.405 835.717,-109.514 862.177,-94.529 880.529,-83.3584"/>
<polygon fill="midnightblue" stroke="midnightblue" points="882.423,-86.3019 889.088,-78.0661 878.742,-80.348 882.423,-86.3019"/>
</g>
<!-- Node6&#45;&gt;Node3 -->
<g id="edge6" class="edge"><title>Node6&#45;&gt;Node3</title>
<path fill="none" stroke="midnightblue" d="M884.963,-58.8176C866.546,-50.0326 837.593,-37.4965 811,-31.4052 660.566,3.05335 615.437,11.3399 464,-18.4052 440.751,-22.9717 415.989,-33.3919 397.866,-42.1675"/>
<polygon fill="midnightblue" stroke="midnightblue" points="395.917,-39.2285 388.532,-46.826 399.043,-45.4917 395.917,-39.2285"/>
</g>
</g>
</svg>
