<?xml version="1.0" encoding="UTF-8" standalone="no"?>
<!DOCTYPE svg PUBLIC "-//W3C//DTD SVG 1.1//EN"
 "http://www.w3.org/Graphics/SVG/1.1/DTD/svg11.dtd">
<!-- Generated by graphviz version 2.38.0 (20140413.2041)
 -->
<!-- Title: TMC2130Stepper::DCCTRL Pages: 1 -->
<svg width="311pt" height="218pt"
 viewBox="0.00 0.00 311.00 218.00" xmlns="http://www.w3.org/2000/svg" xmlns:xlink="http://www.w3.org/1999/xlink">
<g id="graph0" class="graph" transform="scale(1 1) rotate(0) translate(4 214)">
<title>TMC2130Stepper::DCCTRL</title>
<polygon fill="white" stroke="none" points="-4,4 -4,-214 307,-214 307,4 -4,4"/>
<!-- Node1 -->
<g id="node1" class="node"><title>Node1</title>
<g id="a_node1"><a xlink:title=" ">
<polygon fill="#bfbfbf" stroke="black" points="168,-95.5 168,-114.5 303,-114.5 303,-95.5 168,-95.5"/>
<text text-anchor="middle" x="235.5" y="-102.5" font-family="Helvetica,sans-Serif" font-size="10.00">TMC2130Stepper::DCCTRL</text>
</a>
</g>
</g>
<!-- Node2 -->
<g id="node2" class="node"><title>Node2</title>
<g id="a_node2"><a xlink:href="class_t_m_c2130_stepper.html#aafabeef9ffd19821104d0b00488b7115" target="_top" xlink:title=" ">
<polygon fill="white" stroke="black" points="4,-190.5 4,-209.5 128,-209.5 128,-190.5 4,-190.5"/>
<text text-anchor="middle" x="66" y="-197.5" font-family="Helvetica,sans-Serif" font-size="10.00">TMC2130Stepper::dc_sg</text>
</a>
</g>
</g>
<!-- Node1&#45;&gt;Node2 -->
<g id="edge1" class="edge"><title>Node1&#45;&gt;Node2</title>
<path fill="none" stroke="midnightblue" d="M216.773,-121.244C197.3,-138.31 164.461,-164.869 132,-181 124.525,-184.715 116.196,-187.831 108.062,-190.394"/>
<polygon fill="midnightblue" stroke="midnightblue" points="219.125,-123.837 224.26,-114.569 214.467,-118.611 219.125,-123.837"/>
</g>
<!-- Node3 -->
<g id="node3" class="node"><title>Node3</title>
<g id="a_node3"><a xlink:href="class_t_m_c2130_stepper.html#a4781278716fa3c2a5204bb1b45da4fee" target="_top" xlink:title=" ">
<polygon fill="white" stroke="black" points="0,-152.5 0,-171.5 132,-171.5 132,-152.5 0,-152.5"/>
<text text-anchor="middle" x="66" y="-159.5" font-family="Helvetica,sans-Serif" font-size="10.00">TMC2130Stepper::dc_time</text>
</a>
</g>
</g>
<!-- Node1&#45;&gt;Node3 -->
<g id="edge2" class="edge"><title>Node1&#45;&gt;Node3</title>
<path fill="none" stroke="midnightblue" d="M200.695,-118.217C180.815,-125.818 155.119,-135.346 132,-143 122.067,-146.289 111.184,-149.587 101.212,-152.491"/>
<polygon fill="midnightblue" stroke="midnightblue" points="202.157,-121.405 210.233,-114.548 199.643,-114.872 202.157,-121.405"/>
</g>
<!-- Node4 -->
<g id="node4" class="node"><title>Node4</title>
<g id="a_node4"><a xlink:href="class_t_m_c2130_stepper.html#ac62d32ad08be0a34b411bdd5a8489246" target="_top" xlink:title=" ">
<polygon fill="white" stroke="black" points="6.5,-114.5 6.5,-133.5 125.5,-133.5 125.5,-114.5 6.5,-114.5"/>
<text text-anchor="middle" x="66" y="-121.5" font-family="Helvetica,sans-Serif" font-size="10.00">TMC2130Stepper::push</text>
</a>
</g>
</g>
<!-- Node1&#45;&gt;Node4 -->
<g id="edge3" class="edge"><title>Node1&#45;&gt;Node4</title>
<path fill="none" stroke="midnightblue" d="M157.584,-113.725C146.836,-114.944 135.938,-116.18 125.603,-117.353"/>
<polygon fill="midnightblue" stroke="midnightblue" points="158.277,-117.169 167.818,-112.564 157.487,-110.213 158.277,-117.169"/>
</g>
<!-- Node5 -->
<g id="node5" class="node"><title>Node5</title>
<g id="a_node5"><a xlink:href="class_t_m_c2160_stepper.html#ae8035a0cb8151d5227d8528e540e637d" target="_top" xlink:title=" ">
<polygon fill="white" stroke="black" points="6.5,-76.5 6.5,-95.5 125.5,-95.5 125.5,-76.5 6.5,-76.5"/>
<text text-anchor="middle" x="66" y="-83.5" font-family="Helvetica,sans-Serif" font-size="10.00">TMC2160Stepper::push</text>
</a>
</g>
</g>
<!-- Node1&#45;&gt;Node5 -->
<g id="edge4" class="edge"><title>Node1&#45;&gt;Node5</title>
<path fill="none" stroke="midnightblue" d="M157.584,-96.2752C146.836,-95.0561 135.938,-93.8198 125.603,-92.6475"/>
<polygon fill="midnightblue" stroke="midnightblue" points="157.487,-99.7866 167.818,-97.4361 158.277,-92.8312 157.487,-99.7866"/>
</g>
<!-- Node6 -->
<g id="node6" class="node"><title>Node6</title>
<g id="a_node6"><a xlink:href="class_t_m_c5130_stepper.html#a55e61f5181d74f26c9d35c54e4436d7a" target="_top" xlink:title=" ">
<polygon fill="white" stroke="black" points="6.5,-38.5 6.5,-57.5 125.5,-57.5 125.5,-38.5 6.5,-38.5"/>
<text text-anchor="middle" x="66" y="-45.5" font-family="Helvetica,sans-Serif" font-size="10.00">TMC5130Stepper::push</text>
</a>
</g>
</g>
<!-- Node1&#45;&gt;Node6 -->
<g id="edge5" class="edge"><title>Node1&#45;&gt;Node6</title>
<path fill="none" stroke="midnightblue" d="M200.695,-91.7831C180.815,-84.1824 155.119,-74.654 132,-67 122.067,-63.7114 111.184,-60.413 101.212,-57.509"/>
<polygon fill="midnightblue" stroke="midnightblue" points="199.643,-95.1284 210.233,-95.4521 202.157,-88.5951 199.643,-95.1284"/>
</g>
<!-- Node7 -->
<g id="node7" class="node"><title>Node7</title>
<g id="a_node7"><a xlink:href="class_t_m_c5160_stepper.html#a5a12974304588f9d01898d91ba854b87" target="_top" xlink:title=" ">
<polygon fill="white" stroke="black" points="6.5,-0.5 6.5,-19.5 125.5,-19.5 125.5,-0.5 6.5,-0.5"/>
<text text-anchor="middle" x="66" y="-7.5" font-family="Helvetica,sans-Serif" font-size="10.00">TMC5160Stepper::push</text>
</a>
</g>
</g>
<!-- Node1&#45;&gt;Node7 -->
<g id="edge6" class="edge"><title>Node1&#45;&gt;Node7</title>
<path fill="none" stroke="midnightblue" d="M216.773,-88.7557C197.3,-71.6895 164.461,-45.1312 132,-29 124.525,-25.2852 116.196,-22.1695 108.062,-19.6063"/>
<polygon fill="midnightblue" stroke="midnightblue" points="214.467,-91.3885 224.26,-95.4306 219.125,-86.1635 214.467,-91.3885"/>
</g>
</g>
</svg>
