<?xml version="1.0" encoding="UTF-8" standalone="no"?>
<!DOCTYPE svg PUBLIC "-//W3C//DTD SVG 1.1//EN"
 "http://www.w3.org/Graphics/SVG/1.1/DTD/svg11.dtd">
<!-- Generated by graphviz version 2.38.0 (20140413.2041)
 -->
<!-- Title: TMC2209Stepper::IOIN Pages: 1 -->
<svg width="303pt" height="332pt"
 viewBox="0.00 0.00 303.00 332.00" xmlns="http://www.w3.org/2000/svg" xmlns:xlink="http://www.w3.org/1999/xlink">
<g id="graph0" class="graph" transform="scale(1 1) rotate(0) translate(4 328)">
<title>TMC2209Stepper::IOIN</title>
<polygon fill="white" stroke="none" points="-4,4 -4,-328 299,-328 299,4 -4,4"/>
<!-- Node1 -->
<g id="node1" class="node"><title>Node1</title>
<g id="a_node1"><a xlink:title=" ">
<polygon fill="#bfbfbf" stroke="black" points="179,-152.5 179,-171.5 295,-171.5 295,-152.5 179,-152.5"/>
<text text-anchor="middle" x="237" y="-159.5" font-family="Helvetica,sans-Serif" font-size="10.00">TMC2209Stepper::IOIN</text>
</a>
</g>
</g>
<!-- Node2 -->
<g id="node2" class="node"><title>Node2</title>
<g id="a_node2"><a xlink:href="class_t_m_c2209_stepper.html#a57eb34f291e73aef7d3de9f21239e3ac" target="_top" xlink:title=" ">
<polygon fill="white" stroke="black" points="13.5,-304.5 13.5,-323.5 129.5,-323.5 129.5,-304.5 13.5,-304.5"/>
<text text-anchor="middle" x="71.5" y="-311.5" font-family="Helvetica,sans-Serif" font-size="10.00">TMC2209Stepper::diag</text>
</a>
</g>
</g>
<!-- Node1&#45;&gt;Node2 -->
<g id="edge1" class="edge"><title>Node1&#45;&gt;Node2</title>
<path fill="none" stroke="midnightblue" d="M227.829,-181.253C214.458,-210.4 185.108,-265.45 143,-295 137.501,-298.859 131.257,-301.935 124.812,-304.386"/>
<polygon fill="midnightblue" stroke="midnightblue" points="231.175,-182.342 232.027,-171.782 224.775,-179.506 231.175,-182.342"/>
</g>
<!-- Node3 -->
<g id="node3" class="node"><title>Node3</title>
<g id="a_node3"><a xlink:href="class_t_m_c2209_stepper.html#abfe7546eae0d8d3496de34589c43e166" target="_top" xlink:title=" ">
<polygon fill="white" stroke="black" points="17.5,-266.5 17.5,-285.5 125.5,-285.5 125.5,-266.5 17.5,-266.5"/>
<text text-anchor="middle" x="71.5" y="-273.5" font-family="Helvetica,sans-Serif" font-size="10.00">TMC2209Stepper::dir</text>
</a>
</g>
</g>
<!-- Node1&#45;&gt;Node3 -->
<g id="edge2" class="edge"><title>Node1&#45;&gt;Node3</title>
<path fill="none" stroke="midnightblue" d="M223.208,-180.012C206.981,-201.528 176.985,-237.104 143,-257 136.436,-260.843 129.077,-263.928 121.655,-266.399"/>
<polygon fill="midnightblue" stroke="midnightblue" points="226.188,-181.868 229.291,-171.738 220.548,-177.722 226.188,-181.868"/>
</g>
<!-- Node4 -->
<g id="node4" class="node"><title>Node4</title>
<g id="a_node4"><a xlink:href="class_t_m_c2209_stepper.html#a15552d02544cc0df6b82317c937e4ea5" target="_top" xlink:title=" ">
<polygon fill="white" stroke="black" points="15,-228.5 15,-247.5 128,-247.5 128,-228.5 15,-228.5"/>
<text text-anchor="middle" x="71.5" y="-235.5" font-family="Helvetica,sans-Serif" font-size="10.00">TMC2209Stepper::enn</text>
</a>
</g>
</g>
<!-- Node1&#45;&gt;Node4 -->
<g id="edge3" class="edge"><title>Node1&#45;&gt;Node4</title>
<path fill="none" stroke="midnightblue" d="M214.932,-177.348C196.678,-190.036 169.158,-207.738 143,-219 134.384,-222.709 124.859,-225.862 115.669,-228.47"/>
<polygon fill="midnightblue" stroke="midnightblue" points="216.957,-180.203 223.102,-171.572 212.916,-174.487 216.957,-180.203"/>
</g>
<!-- Node5 -->
<g id="node5" class="node"><title>Node5</title>
<g id="a_node5"><a xlink:href="class_t_m_c2209_stepper.html#a72a107720c4c682acde250585e2a229e" target="_top" xlink:title=" ">
<polygon fill="white" stroke="black" points="13.5,-190.5 13.5,-209.5 129.5,-209.5 129.5,-190.5 13.5,-190.5"/>
<text text-anchor="middle" x="71.5" y="-197.5" font-family="Helvetica,sans-Serif" font-size="10.00">TMC2209Stepper::ms1</text>
</a>
</g>
</g>
<!-- Node1&#45;&gt;Node5 -->
<g id="edge4" class="edge"><title>Node1&#45;&gt;Node5</title>
<path fill="none" stroke="midnightblue" d="M184.816,-173.896C161.834,-179.237 135.087,-185.454 113.461,-190.48"/>
<polygon fill="midnightblue" stroke="midnightblue" points="185.794,-177.262 194.742,-171.589 184.209,-170.444 185.794,-177.262"/>
</g>
<!-- Node6 -->
<g id="node6" class="node"><title>Node6</title>
<g id="a_node6"><a xlink:href="class_t_m_c2209_stepper.html#aa7bbe749cc644f742056c85d8c63bc95" target="_top" xlink:title=" ">
<polygon fill="white" stroke="black" points="13.5,-152.5 13.5,-171.5 129.5,-171.5 129.5,-152.5 13.5,-152.5"/>
<text text-anchor="middle" x="71.5" y="-159.5" font-family="Helvetica,sans-Serif" font-size="10.00">TMC2209Stepper::ms2</text>
</a>
</g>
</g>
<!-- Node1&#45;&gt;Node6 -->
<g id="edge5" class="edge"><title>Node1&#45;&gt;Node6</title>
<path fill="none" stroke="midnightblue" d="M168.577,-162C155.646,-162 142.221,-162 129.652,-162"/>
<polygon fill="midnightblue" stroke="midnightblue" points="168.816,-165.5 178.816,-162 168.816,-158.5 168.816,-165.5"/>
</g>
<!-- Node7 -->
<g id="node7" class="node"><title>Node7</title>
<g id="a_node7"><a xlink:href="class_t_m_c2209_stepper.html#abe77ad49b98bb8ce7a83837b5eefc542" target="_top" xlink:title=" ">
<polygon fill="white" stroke="black" points="4,-114.5 4,-133.5 139,-133.5 139,-114.5 4,-114.5"/>
<text text-anchor="middle" x="71.5" y="-121.5" font-family="Helvetica,sans-Serif" font-size="10.00">TMC2209Stepper::pdn_uart</text>
</a>
</g>
</g>
<!-- Node1&#45;&gt;Node7 -->
<g id="edge6" class="edge"><title>Node1&#45;&gt;Node7</title>
<path fill="none" stroke="midnightblue" d="M184.816,-150.104C161.834,-144.763 135.087,-138.546 113.461,-133.52"/>
<polygon fill="midnightblue" stroke="midnightblue" points="184.209,-153.556 194.742,-152.411 185.794,-146.738 184.209,-153.556"/>
</g>
<!-- Node8 -->
<g id="node8" class="node"><title>Node8</title>
<g id="a_node8"><a xlink:href="class_t_m_c2209_stepper.html#abb62137c0dba69eafb2532ce3bbe4749" target="_top" xlink:title=" ">
<polygon fill="white" stroke="black" points="0,-76.5 0,-95.5 143,-95.5 143,-76.5 0,-76.5"/>
<text text-anchor="middle" x="71.5" y="-83.5" font-family="Helvetica,sans-Serif" font-size="10.00">TMC2209Stepper::spread_en</text>
</a>
</g>
</g>
<!-- Node1&#45;&gt;Node8 -->
<g id="edge7" class="edge"><title>Node1&#45;&gt;Node8</title>
<path fill="none" stroke="midnightblue" d="M214.932,-146.652C196.678,-133.964 169.158,-116.262 143,-105 134.384,-101.291 124.859,-98.1381 115.669,-95.5305"/>
<polygon fill="midnightblue" stroke="midnightblue" points="212.916,-149.513 223.102,-152.428 216.957,-143.797 212.916,-149.513"/>
</g>
<!-- Node9 -->
<g id="node9" class="node"><title>Node9</title>
<g id="a_node9"><a xlink:href="class_t_m_c2209_stepper.html#addc6c0342e5b35667cde4dbae26c6e2d" target="_top" xlink:title=" ">
<polygon fill="white" stroke="black" points="13.5,-38.5 13.5,-57.5 129.5,-57.5 129.5,-38.5 13.5,-38.5"/>
<text text-anchor="middle" x="71.5" y="-45.5" font-family="Helvetica,sans-Serif" font-size="10.00">TMC2209Stepper::step</text>
</a>
</g>
</g>
<!-- Node1&#45;&gt;Node9 -->
<g id="edge8" class="edge"><title>Node1&#45;&gt;Node9</title>
<path fill="none" stroke="midnightblue" d="M223.208,-143.988C206.981,-122.472 176.985,-86.8963 143,-67 136.436,-63.1574 129.077,-60.0723 121.655,-57.6007"/>
<polygon fill="midnightblue" stroke="midnightblue" points="220.548,-146.278 229.291,-152.262 226.188,-142.132 220.548,-146.278"/>
</g>
<!-- Node10 -->
<g id="node10" class="node"><title>Node10</title>
<g id="a_node10"><a xlink:href="class_t_m_c2209_stepper.html#a32b4d9a1b78ccc722c85089b45a48947" target="_top" xlink:title=" ">
<polygon fill="white" stroke="black" points="7.5,-0.5 7.5,-19.5 135.5,-19.5 135.5,-0.5 7.5,-0.5"/>
<text text-anchor="middle" x="71.5" y="-7.5" font-family="Helvetica,sans-Serif" font-size="10.00">TMC2209Stepper::version</text>
</a>
</g>
</g>
<!-- Node1&#45;&gt;Node10 -->
<g id="edge9" class="edge"><title>Node1&#45;&gt;Node10</title>
<path fill="none" stroke="midnightblue" d="M227.829,-142.747C214.458,-113.6 185.108,-58.55 143,-29 137.501,-25.1407 131.257,-22.065 124.812,-19.6139"/>
<polygon fill="midnightblue" stroke="midnightblue" points="224.775,-144.494 232.027,-152.218 231.175,-141.658 224.775,-144.494"/>
</g>
</g>
</svg>
