<?xml version="1.0" encoding="UTF-8" standalone="no"?>
<!DOCTYPE svg PUBLIC "-//W3C//DTD SVG 1.1//EN"
 "http://www.w3.org/Graphics/SVG/1.1/DTD/svg11.dtd">
<!-- Generated by graphviz version 2.38.0 (20140413.2041)
 -->
<!-- Title: TMC2208Stepper::freewheel Pages: 1 -->
<svg width="1018pt" height="156pt"
 viewBox="0.00 0.00 1018.00 156.41" xmlns="http://www.w3.org/2000/svg" xmlns:xlink="http://www.w3.org/1999/xlink">
<g id="graph0" class="graph" transform="scale(1 1) rotate(0) translate(4 152.405)">
<title>TMC2208Stepper::freewheel</title>
<polygon fill="white" stroke="none" points="-4,4 -4,-152.405 1014,-152.405 1014,4 -4,4"/>
<!-- Node1 -->
<g id="node1" class="node"><title>Node1</title>
<g id="a_node1"><a xlink:title=" ">
<polygon fill="#bfbfbf" stroke="black" points="0,-46.9052 0,-65.9052 138,-65.9052 138,-46.9052 0,-46.9052"/>
<text text-anchor="middle" x="69" y="-53.9052" font-family="Helvetica,sans-Serif" font-size="10.00">TMC2208Stepper::freewheel</text>
</a>
</g>
</g>
<!-- Node2 -->
<g id="node2" class="node"><title>Node2</title>
<g id="a_node2"><a xlink:href="class_t_m_c2208_stepper.html#a7c2e849de2f2933ba9bf8ede8dc53f53" target="_top" xlink:title=" ">
<polygon fill="white" stroke="black" points="174,-46.9052 174,-65.9052 323,-65.9052 323,-46.9052 174,-46.9052"/>
<text text-anchor="middle" x="248.5" y="-53.9052" font-family="Helvetica,sans-Serif" font-size="10.00">TMC2208Stepper::PWMCONF</text>
</a>
</g>
</g>
<!-- Node1&#45;&gt;Node2 -->
<g id="edge1" class="edge"><title>Node1&#45;&gt;Node2</title>
<path fill="none" stroke="midnightblue" d="M138.118,-56.4052C146.551,-56.4052 155.246,-56.4052 163.877,-56.4052"/>
<polygon fill="midnightblue" stroke="midnightblue" points="163.959,-59.9053 173.959,-56.4052 163.958,-52.9053 163.959,-59.9053"/>
</g>
<!-- Node3 -->
<g id="node3" class="node"><title>Node3</title>
<g id="a_node3"><a xlink:href="class_t_m_c2208_stepper.html#a2fae2050849c3ab7968012def8ea1cc5" target="_top" xlink:title=" ">
<polygon fill="white" stroke="black" points="359,-46.9052 359,-65.9052 475,-65.9052 475,-46.9052 359,-46.9052"/>
<text text-anchor="middle" x="417" y="-53.9052" font-family="Helvetica,sans-Serif" font-size="10.00">TMC2208Stepper::read</text>
</a>
</g>
</g>
<!-- Node2&#45;&gt;Node3 -->
<g id="edge2" class="edge"><title>Node2&#45;&gt;Node3</title>
<path fill="none" stroke="midnightblue" d="M323.014,-56.4052C331.561,-56.4052 340.246,-56.4052 348.704,-56.4052"/>
<polygon fill="midnightblue" stroke="midnightblue" points="348.882,-59.9053 358.882,-56.4052 348.882,-52.9053 348.882,-59.9053"/>
</g>
<!-- Node4 -->
<g id="node4" class="node"><title>Node4</title>
<g id="a_node4"><a xlink:href="class_t_m_c2208_stepper.html#a3e1f6a10aa1e3e41dc2594dbe1ea8a1d" target="_top" xlink:title=" ">
<polygon fill="white" stroke="black" points="511,-103.905 511,-122.905 677,-122.905 677,-103.905 511,-103.905"/>
<text text-anchor="middle" x="594" y="-110.905" font-family="Helvetica,sans-Serif" font-size="10.00">TMC2208Stepper::_sendDatagram</text>
</a>
</g>
</g>
<!-- Node3&#45;&gt;Node4 -->
<g id="edge3" class="edge"><title>Node3&#45;&gt;Node4</title>
<path fill="none" stroke="midnightblue" d="M438.7,-65.9833C457.317,-74.3262 485.568,-86.3205 511,-94.4052 519.008,-96.9508 527.555,-99.3114 535.996,-101.442"/>
<polygon fill="midnightblue" stroke="midnightblue" points="535.272,-104.868 545.816,-103.834 536.929,-98.0666 535.272,-104.868"/>
</g>
<!-- Node9 -->
<g id="node9" class="node"><title>Node9</title>
<g id="a_node9"><a xlink:href="class_s_switch.html#a6ff09d0850d551571dc333fb74ff8628" target="_top" xlink:title=" ">
<polygon fill="white" stroke="black" points="552.5,-65.9052 552.5,-84.9052 635.5,-84.9052 635.5,-65.9052 552.5,-65.9052"/>
<text text-anchor="middle" x="594" y="-72.9052" font-family="Helvetica,sans-Serif" font-size="10.00">SSwitch::active</text>
</a>
</g>
</g>
<!-- Node3&#45;&gt;Node9 -->
<g id="edge9" class="edge"><title>Node3&#45;&gt;Node9</title>
<path fill="none" stroke="midnightblue" d="M475.302,-62.6265C496.975,-64.9796 521.465,-67.6385 542.472,-69.9193"/>
<polygon fill="midnightblue" stroke="midnightblue" points="542.158,-73.4056 552.477,-71.0055 542.913,-66.4465 542.158,-73.4056"/>
</g>
<!-- Node10 -->
<g id="node10" class="node"><title>Node10</title>
<g id="a_node10"><a xlink:href="class_t_m_c2208_stepper.html#a409c19fa6b052a370a317d061bf9af4e" target="_top" xlink:title=" ">
<polygon fill="white" stroke="black" points="526,-27.9052 526,-46.9052 662,-46.9052 662,-27.9052 526,-27.9052"/>
<text text-anchor="middle" x="594" y="-34.9052" font-family="Helvetica,sans-Serif" font-size="10.00">TMC2208Stepper::calcCRC</text>
</a>
</g>
</g>
<!-- Node3&#45;&gt;Node10 -->
<g id="edge10" class="edge"><title>Node3&#45;&gt;Node10</title>
<path fill="none" stroke="midnightblue" d="M475.302,-50.1839C488.17,-48.7867 502.032,-47.2817 515.567,-45.8121"/>
<polygon fill="midnightblue" stroke="midnightblue" points="516.269,-49.2566 525.833,-44.6976 515.514,-42.2975 516.269,-49.2566"/>
</g>
<!-- Node5 -->
<g id="node5" class="node"><title>Node5</title>
<g id="a_node5"><a xlink:href="class_t_m_c2208_stepper.html#a4ec5d2b2f5a31259c7aba1f3208d63b8" target="_top" xlink:title=" ">
<polygon fill="white" stroke="black" points="727.5,-128.905 727.5,-147.905 843.5,-147.905 843.5,-128.905 727.5,-128.905"/>
<text text-anchor="middle" x="785.5" y="-135.905" font-family="Helvetica,sans-Serif" font-size="10.00">TMC2208Stepper::ms2</text>
</a>
</g>
</g>
<!-- Node4&#45;&gt;Node5 -->
<g id="edge4" class="edge"><title>Node4&#45;&gt;Node5</title>
<path fill="none" stroke="midnightblue" d="M667.182,-122.928C683.64,-125.099 701.062,-127.397 717.301,-129.54"/>
<polygon fill="midnightblue" stroke="midnightblue" points="716.868,-133.013 727.24,-130.851 717.784,-126.073 716.868,-133.013"/>
</g>
<!-- Node7 -->
<g id="node7" class="node"><title>Node7</title>
<g id="a_node7"><a xlink:href="class_t_m_c2208_stepper.html#ae561da4ec7c40830e97bf4dc8cf700fb" target="_top" xlink:title=" ">
<polygon fill="white" stroke="black" points="713,-90.9052 713,-109.905 858,-109.905 858,-90.9052 713,-90.9052"/>
<text text-anchor="middle" x="785.5" y="-97.9052" font-family="Helvetica,sans-Serif" font-size="10.00">TMC2208Stepper::serial_read</text>
</a>
</g>
</g>
<!-- Node4&#45;&gt;Node7 -->
<g id="edge7" class="edge"><title>Node4&#45;&gt;Node7</title>
<path fill="none" stroke="midnightblue" d="M677.015,-107.779C685.478,-107.198 694.078,-106.608 702.54,-106.028"/>
<polygon fill="midnightblue" stroke="midnightblue" points="703.038,-109.502 712.775,-105.326 702.559,-102.518 703.038,-109.502"/>
</g>
<!-- Node8 -->
<g id="node8" class="node"><title>Node8</title>
<g id="a_node8"><a xlink:href="class_t_m_c2208_stepper.html#a7dd83313385079099b0622957786a979" target="_top" xlink:title=" ">
<polygon fill="white" stroke="black" points="725,-41.4052 725,-71.4052 846,-71.4052 846,-41.4052 725,-41.4052"/>
<text text-anchor="start" x="733" y="-59.4052" font-family="Helvetica,sans-Serif" font-size="10.00">TMC2208Stepper::serial</text>
<text text-anchor="middle" x="785.5" y="-48.4052" font-family="Helvetica,sans-Serif" font-size="10.00">_write</text>
</a>
</g>
</g>
<!-- Node4&#45;&gt;Node8 -->
<g id="edge8" class="edge"><title>Node4&#45;&gt;Node8</title>
<path fill="none" stroke="midnightblue" d="M640.793,-103.808C652.658,-101.045 665.367,-97.8399 677,-94.4052 693.315,-89.5878 696.971,-87.1015 713,-81.4052 719.017,-79.2668 725.325,-77.0401 731.595,-74.8355"/>
<polygon fill="midnightblue" stroke="midnightblue" points="733.095,-78.0185 741.372,-71.4052 730.778,-71.4133 733.095,-78.0185"/>
</g>
<!-- Node6 -->
<g id="node6" class="node"><title>Node6</title>
<g id="a_node6"><a xlink:href="class_t_m_c2208_stepper.html#a5441dd87d0bcea4ffc309cb012166a57" target="_top" xlink:title=" ">
<polygon fill="white" stroke="black" points="894,-58.9052 894,-77.9052 1010,-77.9052 1010,-58.9052 894,-58.9052"/>
<text text-anchor="middle" x="952" y="-65.9052" font-family="Helvetica,sans-Serif" font-size="10.00">TMC2208Stepper::IOIN</text>
</a>
</g>
</g>
<!-- Node5&#45;&gt;Node6 -->
<g id="edge5" class="edge"><title>Node5&#45;&gt;Node6</title>
<path fill="none" stroke="midnightblue" d="M829.395,-128.814C838.954,-126.18 848.937,-123.032 858,-119.405 882.717,-109.514 909.177,-94.529 927.529,-83.3584"/>
<polygon fill="midnightblue" stroke="midnightblue" points="929.423,-86.3019 936.088,-78.0661 925.742,-80.348 929.423,-86.3019"/>
</g>
<!-- Node6&#45;&gt;Node3 -->
<g id="edge6" class="edge"><title>Node6&#45;&gt;Node3</title>
<path fill="none" stroke="midnightblue" d="M931.963,-58.8176C913.546,-50.0326 884.593,-37.4965 858,-31.4052 707.566,3.05335 662.437,11.3399 511,-18.4052 487.751,-22.9717 462.989,-33.3919 444.866,-42.1675"/>
<polygon fill="midnightblue" stroke="midnightblue" points="442.917,-39.2285 435.532,-46.826 446.043,-45.4917 442.917,-39.2285"/>
</g>
</g>
</svg>
