<?xml version="1.0" encoding="UTF-8" standalone="no"?>
<!DOCTYPE svg PUBLIC "-//W3C//DTD SVG 1.1//EN"
 "http://www.w3.org/Graphics/SVG/1.1/DTD/svg11.dtd">
<!-- Generated by graphviz version 2.38.0 (20140413.2041)
 -->
<!-- Title: TMC2208Stepper::dir Pages: 1 -->
<svg width="803pt" height="140pt"
 viewBox="0.00 0.00 803.00 139.53" xmlns="http://www.w3.org/2000/svg" xmlns:xlink="http://www.w3.org/1999/xlink">
<g id="graph0" class="graph" transform="scale(1 1) rotate(0) translate(4 135.532)">
<title>TMC2208Stepper::dir</title>
<polygon fill="white" stroke="none" points="-4,4 -4,-135.532 799,-135.532 799,4 -4,4"/>
<!-- Node1 -->
<g id="node1" class="node"><title>Node1</title>
<g id="a_node1"><a xlink:title=" ">
<polygon fill="#bfbfbf" stroke="black" points="0,-4.03223 0,-23.0322 108,-23.0322 108,-4.03223 0,-4.03223"/>
<text text-anchor="middle" x="54" y="-11.0322" font-family="Helvetica,sans-Serif" font-size="10.00">TMC2208Stepper::dir</text>
</a>
</g>
</g>
<!-- Node2 -->
<g id="node2" class="node"><title>Node2</title>
<g id="a_node2"><a xlink:href="class_t_m_c2208_stepper.html#a5441dd87d0bcea4ffc309cb012166a57" target="_top" xlink:title=" ">
<polygon fill="white" stroke="black" points="144,-4.03223 144,-23.0322 260,-23.0322 260,-4.03223 144,-4.03223"/>
<text text-anchor="middle" x="202" y="-11.0322" font-family="Helvetica,sans-Serif" font-size="10.00">TMC2208Stepper::IOIN</text>
</a>
</g>
</g>
<!-- Node1&#45;&gt;Node2 -->
<g id="edge1" class="edge"><title>Node1&#45;&gt;Node2</title>
<path fill="none" stroke="midnightblue" d="M108.122,-13.5322C116.444,-13.5322 125.138,-13.5322 133.727,-13.5322"/>
<polygon fill="midnightblue" stroke="midnightblue" points="133.731,-17.0323 143.731,-13.5322 133.731,-10.0323 133.731,-17.0323"/>
</g>
<!-- Node3 -->
<g id="node3" class="node"><title>Node3</title>
<g id="a_node3"><a xlink:href="class_t_m_c2208_stepper.html#a2fae2050849c3ab7968012def8ea1cc5" target="_top" xlink:title=" ">
<polygon fill="white" stroke="black" points="296,-33.0322 296,-52.0322 412,-52.0322 412,-33.0322 296,-33.0322"/>
<text text-anchor="middle" x="354" y="-40.0322" font-family="Helvetica,sans-Serif" font-size="10.00">TMC2208Stepper::read</text>
</a>
</g>
</g>
<!-- Node2&#45;&gt;Node3 -->
<g id="edge2" class="edge"><title>Node2&#45;&gt;Node3</title>
<path fill="none" stroke="midnightblue" d="M252.531,-23.1083C265.784,-25.6705 280.241,-28.4655 293.952,-31.1163"/>
<polygon fill="midnightblue" stroke="midnightblue" points="293.294,-34.5538 303.776,-33.0157 294.623,-27.681 293.294,-34.5538"/>
</g>
<!-- Node4 -->
<g id="node4" class="node"><title>Node4</title>
<g id="a_node4"><a xlink:href="class_t_m_c2208_stepper.html#a3e1f6a10aa1e3e41dc2594dbe1ea8a1d" target="_top" xlink:title=" ">
<polygon fill="white" stroke="black" points="448,-90.0322 448,-109.032 614,-109.032 614,-90.0322 448,-90.0322"/>
<text text-anchor="middle" x="531" y="-97.0322" font-family="Helvetica,sans-Serif" font-size="10.00">TMC2208Stepper::_sendDatagram</text>
</a>
</g>
</g>
<!-- Node3&#45;&gt;Node4 -->
<g id="edge3" class="edge"><title>Node3&#45;&gt;Node4</title>
<path fill="none" stroke="midnightblue" d="M375.7,-52.1104C394.317,-60.4533 422.568,-72.4476 448,-80.5322 456.008,-83.0779 464.555,-85.4385 472.996,-87.5688"/>
<polygon fill="midnightblue" stroke="midnightblue" points="472.272,-90.9948 482.816,-89.9611 473.929,-84.1937 472.272,-90.9948"/>
</g>
<!-- Node8 -->
<g id="node8" class="node"><title>Node8</title>
<g id="a_node8"><a xlink:href="class_s_switch.html#a6ff09d0850d551571dc333fb74ff8628" target="_top" xlink:title=" ">
<polygon fill="white" stroke="black" points="489.5,-52.0322 489.5,-71.0322 572.5,-71.0322 572.5,-52.0322 489.5,-52.0322"/>
<text text-anchor="middle" x="531" y="-59.0322" font-family="Helvetica,sans-Serif" font-size="10.00">SSwitch::active</text>
</a>
</g>
</g>
<!-- Node3&#45;&gt;Node8 -->
<g id="edge8" class="edge"><title>Node3&#45;&gt;Node8</title>
<path fill="none" stroke="midnightblue" d="M412.302,-48.7535C433.975,-51.1066 458.465,-53.7656 479.472,-56.0463"/>
<polygon fill="midnightblue" stroke="midnightblue" points="479.158,-59.5327 489.477,-57.1326 479.913,-52.5736 479.158,-59.5327"/>
</g>
<!-- Node9 -->
<g id="node9" class="node"><title>Node9</title>
<g id="a_node9"><a xlink:href="class_t_m_c2208_stepper.html#a409c19fa6b052a370a317d061bf9af4e" target="_top" xlink:title=" ">
<polygon fill="white" stroke="black" points="463,-14.0322 463,-33.0322 599,-33.0322 599,-14.0322 463,-14.0322"/>
<text text-anchor="middle" x="531" y="-21.0322" font-family="Helvetica,sans-Serif" font-size="10.00">TMC2208Stepper::calcCRC</text>
</a>
</g>
</g>
<!-- Node3&#45;&gt;Node9 -->
<g id="edge9" class="edge"><title>Node3&#45;&gt;Node9</title>
<path fill="none" stroke="midnightblue" d="M412.302,-36.3109C425.17,-34.9138 439.032,-33.4088 452.567,-31.9392"/>
<polygon fill="midnightblue" stroke="midnightblue" points="453.269,-35.3836 462.833,-30.8246 452.514,-28.4245 453.269,-35.3836"/>
</g>
<!-- Node5 -->
<g id="node5" class="node"><title>Node5</title>
<g id="a_node5"><a xlink:href="class_t_m_c2208_stepper.html#a4ec5d2b2f5a31259c7aba1f3208d63b8" target="_top" xlink:title=" ">
<polygon fill="white" stroke="black" points="664.5,-11.0322 664.5,-30.0322 780.5,-30.0322 780.5,-11.0322 664.5,-11.0322"/>
<text text-anchor="middle" x="722.5" y="-18.0322" font-family="Helvetica,sans-Serif" font-size="10.00">TMC2208Stepper::ms2</text>
</a>
</g>
</g>
<!-- Node4&#45;&gt;Node5 -->
<g id="edge4" class="edge"><title>Node4&#45;&gt;Node5</title>
<path fill="none" stroke="midnightblue" d="M588.242,-89.9247C597.083,-87.4489 605.952,-84.3643 614,-80.5322 632.301,-71.8185 632.624,-62.9698 650,-52.5322 661.591,-45.5698 674.963,-39.1888 686.984,-33.9877"/>
<polygon fill="midnightblue" stroke="midnightblue" points="688.414,-37.1834 696.276,-30.081 685.701,-30.7305 688.414,-37.1834"/>
</g>
<!-- Node6 -->
<g id="node6" class="node"><title>Node6</title>
<g id="a_node6"><a xlink:href="class_t_m_c2208_stepper.html#ae561da4ec7c40830e97bf4dc8cf700fb" target="_top" xlink:title=" ">
<polygon fill="white" stroke="black" points="650,-112.032 650,-131.032 795,-131.032 795,-112.032 650,-112.032"/>
<text text-anchor="middle" x="722.5" y="-119.032" font-family="Helvetica,sans-Serif" font-size="10.00">TMC2208Stepper::serial_read</text>
</a>
</g>
</g>
<!-- Node4&#45;&gt;Node6 -->
<g id="edge6" class="edge"><title>Node4&#45;&gt;Node6</title>
<path fill="none" stroke="midnightblue" d="M614.015,-109.054C622.571,-110.047 631.268,-111.057 639.819,-112.05"/>
<polygon fill="midnightblue" stroke="midnightblue" points="639.438,-115.529 649.775,-113.205 640.245,-108.575 639.438,-115.529"/>
</g>
<!-- Node7 -->
<g id="node7" class="node"><title>Node7</title>
<g id="a_node7"><a xlink:href="class_t_m_c2208_stepper.html#a7dd83313385079099b0622957786a979" target="_top" xlink:title=" ">
<polygon fill="white" stroke="black" points="662,-62.5322 662,-92.5322 783,-92.5322 783,-62.5322 662,-62.5322"/>
<text text-anchor="start" x="670" y="-80.5322" font-family="Helvetica,sans-Serif" font-size="10.00">TMC2208Stepper::serial</text>
<text text-anchor="middle" x="722.5" y="-69.5322" font-family="Helvetica,sans-Serif" font-size="10.00">_write</text>
</a>
</g>
</g>
<!-- Node4&#45;&gt;Node7 -->
<g id="edge7" class="edge"><title>Node4&#45;&gt;Node7</title>
<path fill="none" stroke="midnightblue" d="M614.015,-90.0107C626.597,-88.55 639.484,-87.0539 651.767,-85.6279"/>
<polygon fill="midnightblue" stroke="midnightblue" points="652.392,-89.0789 661.922,-84.4489 651.585,-82.1256 652.392,-89.0789"/>
</g>
<!-- Node5&#45;&gt;Node2 -->
<g id="edge5" class="edge"><title>Node5&#45;&gt;Node2</title>
<path fill="none" stroke="midnightblue" d="M668.088,-10.9924C650.881,-8.34632 631.688,-5.84135 614,-4.53223 493.185,4.40943 351.893,-2.4631 270.393,-8.10973"/>
<polygon fill="midnightblue" stroke="midnightblue" points="269.998,-4.62883 260.27,-8.82619 270.492,-11.6114 269.998,-4.62883"/>
</g>
</g>
</svg>
