<?xml version="1.0" encoding="UTF-8" standalone="no"?>
<!DOCTYPE svg PUBLIC "-//W3C//DTD SVG 1.1//EN"
 "http://www.w3.org/Graphics/SVG/1.1/DTD/svg11.dtd">
<!-- Generated by graphviz version 2.38.0 (20140413.2041)
 -->
<!-- Title: TMC2130Stepper::tbl Pages: 1 -->
<svg width="941pt" height="104pt"
 viewBox="0.00 0.00 941.00 104.00" xmlns="http://www.w3.org/2000/svg" xmlns:xlink="http://www.w3.org/1999/xlink">
<g id="graph0" class="graph" transform="scale(1 1) rotate(0) translate(4 100)">
<title>TMC2130Stepper::tbl</title>
<polygon fill="white" stroke="none" points="-4,4 -4,-100 937,-100 937,4 -4,4"/>
<!-- Node1 -->
<g id="node1" class="node"><title>Node1</title>
<g id="a_node1"><a xlink:title=" ">
<polygon fill="#bfbfbf" stroke="black" points="0,-38.5 0,-57.5 108,-57.5 108,-38.5 0,-38.5"/>
<text text-anchor="middle" x="54" y="-45.5" font-family="Helvetica,sans-Serif" font-size="10.00">TMC2130Stepper::tbl</text>
</a>
</g>
</g>
<!-- Node2 -->
<g id="node2" class="node"><title>Node2</title>
<g id="a_node2"><a xlink:href="class_t_m_c2130_stepper.html#ae54d816846ca2103976f490c5ab8e887" target="_top" xlink:title=" ">
<polygon fill="white" stroke="black" points="144,-38.5 144,-57.5 252,-57.5 252,-38.5 144,-38.5"/>
<text text-anchor="middle" x="198" y="-45.5" font-family="Helvetica,sans-Serif" font-size="10.00">TMC2130Stepper::tbl</text>
</a>
</g>
</g>
<!-- Node1&#45;&gt;Node2 -->
<g id="edge1" class="edge"><title>Node1&#45;&gt;Node2</title>
<path fill="none" stroke="midnightblue" d="M108.28,-48C116.56,-48 125.184,-48 133.661,-48"/>
<polygon fill="midnightblue" stroke="midnightblue" points="133.894,-51.5001 143.894,-48 133.894,-44.5001 133.894,-51.5001"/>
</g>
<!-- Node3 -->
<g id="node3" class="node"><title>Node3</title>
<g id="a_node3"><a xlink:href="class_t_m_c2130_stepper.html#a67541b27d97ce45f175e9f6e4a2d0bff" target="_top" xlink:title=" ">
<polygon fill="white" stroke="black" points="288,-38.5 288,-57.5 440,-57.5 440,-38.5 288,-38.5"/>
<text text-anchor="middle" x="364" y="-45.5" font-family="Helvetica,sans-Serif" font-size="10.00">TMC2130Stepper::CHOPCONF</text>
</a>
</g>
</g>
<!-- Node2&#45;&gt;Node3 -->
<g id="edge2" class="edge"><title>Node2&#45;&gt;Node3</title>
<path fill="none" stroke="midnightblue" d="M252.246,-48C260.447,-48 269.088,-48 277.777,-48"/>
<polygon fill="midnightblue" stroke="midnightblue" points="277.976,-51.5001 287.976,-48 277.976,-44.5001 277.976,-51.5001"/>
</g>
<!-- Node4 -->
<g id="node4" class="node"><title>Node4</title>
<g id="a_node4"><a xlink:href="class_t_m_c2130_stepper.html#aed0175bff6e80ebc14e0d2606283cbe0" target="_top" xlink:title=" ">
<polygon fill="white" stroke="black" points="476,-38.5 476,-57.5 592,-57.5 592,-38.5 476,-38.5"/>
<text text-anchor="middle" x="534" y="-45.5" font-family="Helvetica,sans-Serif" font-size="10.00">TMC2130Stepper::read</text>
</a>
</g>
</g>
<!-- Node3&#45;&gt;Node4 -->
<g id="edge3" class="edge"><title>Node3&#45;&gt;Node4</title>
<path fill="none" stroke="midnightblue" d="M440.155,-48C448.664,-48 457.296,-48 465.696,-48"/>
<polygon fill="midnightblue" stroke="midnightblue" points="465.802,-51.5001 475.802,-48 465.802,-44.5001 465.802,-51.5001"/>
</g>
<!-- Node5 -->
<g id="node5" class="node"><title>Node5</title>
<g id="a_node5"><a xlink:href="class_t_m_c2130_stepper.html#aed8aa4583943e649dbf3bb1c1da90d63" target="_top" xlink:title=" ">
<polygon fill="white" stroke="black" points="628,-76.5 628,-95.5 780,-95.5 780,-76.5 628,-76.5"/>
<text text-anchor="middle" x="704" y="-83.5" font-family="Helvetica,sans-Serif" font-size="10.00">TMC2130Stepper::switchCSpin</text>
</a>
</g>
</g>
<!-- Node4&#45;&gt;Node5 -->
<g id="edge4" class="edge"><title>Node4&#45;&gt;Node5</title>
<path fill="none" stroke="midnightblue" d="M577.393,-57.589C599.763,-62.6487 627.398,-68.8996 651.047,-74.2488"/>
<polygon fill="midnightblue" stroke="midnightblue" points="650.386,-77.6875 660.911,-76.4799 651.93,-70.8599 650.386,-77.6875"/>
</g>
<!-- Node6 -->
<g id="node6" class="node"><title>Node6</title>
<g id="a_node6"><a xlink:href="class_s_w___s_p_i_class.html#af260fdc0af3f1312b106483161e559c3" target="_top" xlink:title=" ">
<polygon fill="white" stroke="black" points="816,-19.5 816,-38.5 933,-38.5 933,-19.5 816,-19.5"/>
<text text-anchor="middle" x="874.5" y="-26.5" font-family="Helvetica,sans-Serif" font-size="10.00">SW_SPIClass::transfer</text>
</a>
</g>
</g>
<!-- Node4&#45;&gt;Node6 -->
<g id="edge5" class="edge"><title>Node4&#45;&gt;Node6</title>
<path fill="none" stroke="midnightblue" d="M592.039,-44.7984C651.027,-41.4874 743.113,-36.3186 805.765,-32.802"/>
<polygon fill="midnightblue" stroke="midnightblue" points="806.156,-36.2856 815.944,-32.2306 805.763,-29.2966 806.156,-36.2856"/>
</g>
<!-- Node7 -->
<g id="node7" class="node"><title>Node7</title>
<g id="a_node7"><a xlink:href="class_s_w___s_p_i_class.html#a1b7600aa1d9571c103718c5d3e376675" target="_top" xlink:title=" ">
<polygon fill="white" stroke="black" points="640,-0.5 640,-19.5 768,-19.5 768,-0.5 640,-0.5"/>
<text text-anchor="middle" x="704" y="-7.5" font-family="Helvetica,sans-Serif" font-size="10.00">SW_SPIClass::transfer16</text>
</a>
</g>
</g>
<!-- Node4&#45;&gt;Node7 -->
<g id="edge6" class="edge"><title>Node4&#45;&gt;Node7</title>
<path fill="none" stroke="midnightblue" d="M577.393,-38.411C599.763,-33.3513 627.398,-27.1004 651.047,-21.7512"/>
<polygon fill="midnightblue" stroke="midnightblue" points="651.93,-25.1401 660.911,-19.5201 650.386,-18.3125 651.93,-25.1401"/>
</g>
<!-- Node7&#45;&gt;Node6 -->
<g id="edge7" class="edge"><title>Node7&#45;&gt;Node6</title>
<path fill="none" stroke="midnightblue" d="M768.223,-17.129C780.406,-18.5028 793.217,-19.9473 805.543,-21.3372"/>
<polygon fill="midnightblue" stroke="midnightblue" points="805.43,-24.8466 815.76,-22.4892 806.215,-17.8907 805.43,-24.8466"/>
</g>
</g>
</svg>
