<?xml version="1.0" encoding="UTF-8" standalone="no"?>
<!DOCTYPE svg PUBLIC "-//W3C//DTD SVG 1.1//EN"
 "http://www.w3.org/Graphics/SVG/1.1/DTD/svg11.dtd">
<!-- Generated by graphviz version 2.38.0 (20140413.2041)
 -->
<!-- Title: TMC2660Stepper::DRV_STATUS Pages: 1 -->
<svg width="660pt" height="85pt"
 viewBox="0.00 0.00 660.00 85.00" xmlns="http://www.w3.org/2000/svg" xmlns:xlink="http://www.w3.org/1999/xlink">
<g id="graph0" class="graph" transform="scale(1 1) rotate(0) translate(4 81)">
<title>TMC2660Stepper::DRV_STATUS</title>
<polygon fill="white" stroke="none" points="-4,4 -4,-81 656,-81 656,4 -4,4"/>
<!-- Node1 -->
<g id="node1" class="node"><title>Node1</title>
<g id="a_node1"><a xlink:title=" ">
<polygon fill="#bfbfbf" stroke="black" points="0,-33 0,-63 118,-63 118,-33 0,-33"/>
<text text-anchor="start" x="8" y="-51" font-family="Helvetica,sans-Serif" font-size="10.00">TMC2660Stepper::DRV</text>
<text text-anchor="middle" x="59" y="-40" font-family="Helvetica,sans-Serif" font-size="10.00">_STATUS</text>
</a>
</g>
</g>
<!-- Node2 -->
<g id="node2" class="node"><title>Node2</title>
<g id="a_node2"><a xlink:href="class_t_m_c2660_stepper.html#a124bab76346c3c6c17f812e8c4ad7a5c" target="_top" xlink:title=" ">
<polygon fill="white" stroke="black" points="154,-38.5 154,-57.5 309,-57.5 309,-38.5 154,-38.5"/>
<text text-anchor="middle" x="231.5" y="-45.5" font-family="Helvetica,sans-Serif" font-size="10.00">TMC2660Stepper::DRVSTATUS</text>
</a>
</g>
</g>
<!-- Node1&#45;&gt;Node2 -->
<g id="edge1" class="edge"><title>Node1&#45;&gt;Node2</title>
<path fill="none" stroke="midnightblue" d="M118.2,-48C126.451,-48 135.079,-48 143.728,-48"/>
<polygon fill="midnightblue" stroke="midnightblue" points="143.87,-51.5001 153.87,-48 143.87,-44.5001 143.87,-51.5001"/>
</g>
<!-- Node3 -->
<g id="node3" class="node"><title>Node3</title>
<g id="a_node3"><a xlink:href="class_t_m_c2660_stepper.html#a4fa131ecb1e0e0436abff079c44eee5b" target="_top" xlink:title=" ">
<polygon fill="white" stroke="black" points="345,-57.5 345,-76.5 464,-76.5 464,-57.5 345,-57.5"/>
<text text-anchor="middle" x="404.5" y="-64.5" font-family="Helvetica,sans-Serif" font-size="10.00">TMC2660Stepper::rdsel</text>
</a>
</g>
</g>
<!-- Node2&#45;&gt;Node3 -->
<g id="edge2" class="edge"><title>Node2&#45;&gt;Node3</title>
<path fill="none" stroke="midnightblue" d="M309.496,-56.5551C317.941,-57.4934 326.498,-58.4442 334.833,-59.3703"/>
<polygon fill="midnightblue" stroke="midnightblue" points="334.541,-62.8594 344.866,-60.4852 335.314,-55.9022 334.541,-62.8594"/>
</g>
<!-- Node4 -->
<g id="node4" class="node"><title>Node4</title>
<g id="a_node4"><a xlink:href="class_t_m_c2660_stepper.html#aba43e2af829abee9e029bdd43bde5f61" target="_top" xlink:title=" ">
<polygon fill="white" stroke="black" points="346.5,-19.5 346.5,-38.5 462.5,-38.5 462.5,-19.5 346.5,-19.5"/>
<text text-anchor="middle" x="404.5" y="-26.5" font-family="Helvetica,sans-Serif" font-size="10.00">TMC2660Stepper::read</text>
</a>
</g>
</g>
<!-- Node2&#45;&gt;Node4 -->
<g id="edge3" class="edge"><title>Node2&#45;&gt;Node4</title>
<path fill="none" stroke="midnightblue" d="M309.496,-39.4449C318.416,-38.4538 327.461,-37.4488 336.237,-36.4737"/>
<polygon fill="midnightblue" stroke="midnightblue" points="336.84,-39.9283 346.392,-35.3453 336.067,-32.9711 336.84,-39.9283"/>
</g>
<!-- Node5 -->
<g id="node5" class="node"><title>Node5</title>
<g id="a_node5"><a xlink:href="class_t_m_c2660_stepper.html#a63505ee4078e1f060a2ccecc30f228bd" target="_top" xlink:title=" ">
<polygon fill="white" stroke="black" points="500,-38.5 500,-57.5 652,-57.5 652,-38.5 500,-38.5"/>
<text text-anchor="middle" x="576" y="-45.5" font-family="Helvetica,sans-Serif" font-size="10.00">TMC2660Stepper::switchCSpin</text>
</a>
</g>
</g>
<!-- Node4&#45;&gt;Node5 -->
<g id="edge4" class="edge"><title>Node4&#45;&gt;Node5</title>
<path fill="none" stroke="midnightblue" d="M462.885,-35.4325C471.631,-36.4129 480.812,-37.4421 489.997,-38.4717"/>
<polygon fill="midnightblue" stroke="midnightblue" points="489.618,-41.951 499.945,-39.5868 490.398,-34.9945 489.618,-41.951"/>
</g>
<!-- Node6 -->
<g id="node6" class="node"><title>Node6</title>
<g id="a_node6"><a xlink:href="class_s_w___s_p_i_class.html#af260fdc0af3f1312b106483161e559c3" target="_top" xlink:title=" ">
<polygon fill="white" stroke="black" points="517.5,-0.5 517.5,-19.5 634.5,-19.5 634.5,-0.5 517.5,-0.5"/>
<text text-anchor="middle" x="576" y="-7.5" font-family="Helvetica,sans-Serif" font-size="10.00">SW_SPIClass::transfer</text>
</a>
</g>
</g>
<!-- Node4&#45;&gt;Node6 -->
<g id="edge5" class="edge"><title>Node4&#45;&gt;Node6</title>
<path fill="none" stroke="midnightblue" d="M462.885,-22.5675C477.165,-20.9667 492.606,-19.2359 507.33,-17.5854"/>
<polygon fill="midnightblue" stroke="midnightblue" points="507.838,-21.0505 517.386,-16.4582 507.058,-14.0941 507.838,-21.0505"/>
</g>
</g>
</svg>
