<?xml version="1.0" encoding="UTF-8" standalone="no"?>
<!DOCTYPE svg PUBLIC "-//W3C//DTD SVG 1.1//EN"
 "http://www.w3.org/Graphics/SVG/1.1/DTD/svg11.dtd">
<!-- Generated by graphviz version 2.38.0 (20140413.2041)
 -->
<!-- Title: TMCStepper Pages: 1 -->
<svg width="320pt" height="308pt"
 viewBox="0.00 0.00 320.00 308.00" xmlns="http://www.w3.org/2000/svg" xmlns:xlink="http://www.w3.org/1999/xlink">
<g id="graph0" class="graph" transform="scale(1 1) rotate(0) translate(4 304)">
<title>TMCStepper</title>
<polygon fill="white" stroke="none" points="-4,4 -4,-304 316,-304 316,4 -4,4"/>
<!-- Node1 -->
<g id="node1" class="node"><title>Node1</title>
<g id="a_node1"><a xlink:title=" ">
<polygon fill="#bfbfbf" stroke="black" points="65.5,-280.5 65.5,-299.5 136.5,-299.5 136.5,-280.5 65.5,-280.5"/>
<text text-anchor="middle" x="101" y="-287.5" font-family="Helvetica,sans-Serif" font-size="10.00">TMCStepper</text>
</a>
</g>
</g>
<!-- Node2 -->
<g id="node2" class="node"><title>Node2</title>
<g id="a_node2"><a xlink:href="class_t_m_c2130_stepper.html" target="_top" xlink:title=" ">
<polygon fill="white" stroke="black" points="0,-224.5 0,-243.5 92,-243.5 92,-224.5 0,-224.5"/>
<text text-anchor="middle" x="46" y="-231.5" font-family="Helvetica,sans-Serif" font-size="10.00">TMC2130Stepper</text>
</a>
</g>
</g>
<!-- Node1&#45;&gt;Node2 -->
<g id="edge1" class="edge"><title>Node1&#45;&gt;Node2</title>
<path fill="none" stroke="midnightblue" d="M84.7062,-273.002C74.9594,-263.433 62.947,-251.639 54.9131,-243.751"/>
<polygon fill="midnightblue" stroke="midnightblue" points="82.3301,-275.575 91.9179,-280.083 87.2343,-270.58 82.3301,-275.575"/>
</g>
<!-- Node7 -->
<g id="node7" class="node"><title>Node7</title>
<g id="a_node7"><a xlink:href="class_t_m_c2208_stepper.html" target="_top" xlink:title=" ">
<polygon fill="white" stroke="black" points="110,-224.5 110,-243.5 202,-243.5 202,-224.5 110,-224.5"/>
<text text-anchor="middle" x="156" y="-231.5" font-family="Helvetica,sans-Serif" font-size="10.00">TMC2208Stepper</text>
</a>
</g>
</g>
<!-- Node1&#45;&gt;Node7 -->
<g id="edge6" class="edge"><title>Node1&#45;&gt;Node7</title>
<path fill="none" stroke="midnightblue" d="M117.294,-273.002C127.041,-263.433 139.053,-251.639 147.087,-243.751"/>
<polygon fill="midnightblue" stroke="midnightblue" points="114.766,-270.58 110.082,-280.083 119.67,-275.575 114.766,-270.58"/>
</g>
<!-- Node3 -->
<g id="node3" class="node"><title>Node3</title>
<g id="a_node3"><a xlink:href="class_t_m_c2160_stepper.html" target="_top" xlink:title=" ">
<polygon fill="white" stroke="black" points="0,-168.5 0,-187.5 92,-187.5 92,-168.5 0,-168.5"/>
<text text-anchor="middle" x="46" y="-175.5" font-family="Helvetica,sans-Serif" font-size="10.00">TMC2160Stepper</text>
</a>
</g>
</g>
<!-- Node2&#45;&gt;Node3 -->
<g id="edge2" class="edge"><title>Node2&#45;&gt;Node3</title>
<path fill="none" stroke="midnightblue" d="M46,-213.805C46,-204.91 46,-194.78 46,-187.751"/>
<polygon fill="midnightblue" stroke="midnightblue" points="42.5001,-214.083 46,-224.083 49.5001,-214.083 42.5001,-214.083"/>
</g>
<!-- Node4 -->
<g id="node4" class="node"><title>Node4</title>
<g id="a_node4"><a xlink:href="class_t_m_c5130_stepper.html" target="_top" xlink:title=" ">
<polygon fill="white" stroke="black" points="0,-112.5 0,-131.5 92,-131.5 92,-112.5 0,-112.5"/>
<text text-anchor="middle" x="46" y="-119.5" font-family="Helvetica,sans-Serif" font-size="10.00">TMC5130Stepper</text>
</a>
</g>
</g>
<!-- Node3&#45;&gt;Node4 -->
<g id="edge3" class="edge"><title>Node3&#45;&gt;Node4</title>
<path fill="none" stroke="midnightblue" d="M46,-157.805C46,-148.91 46,-138.78 46,-131.751"/>
<polygon fill="midnightblue" stroke="midnightblue" points="42.5001,-158.083 46,-168.083 49.5001,-158.083 42.5001,-158.083"/>
</g>
<!-- Node5 -->
<g id="node5" class="node"><title>Node5</title>
<g id="a_node5"><a xlink:href="class_t_m_c5160_stepper.html" target="_top" xlink:title=" ">
<polygon fill="white" stroke="black" points="0,-56.5 0,-75.5 92,-75.5 92,-56.5 0,-56.5"/>
<text text-anchor="middle" x="46" y="-63.5" font-family="Helvetica,sans-Serif" font-size="10.00">TMC5160Stepper</text>
</a>
</g>
</g>
<!-- Node4&#45;&gt;Node5 -->
<g id="edge4" class="edge"><title>Node4&#45;&gt;Node5</title>
<path fill="none" stroke="midnightblue" d="M46,-101.805C46,-92.9102 46,-82.7798 46,-75.7511"/>
<polygon fill="midnightblue" stroke="midnightblue" points="42.5001,-102.083 46,-112.083 49.5001,-102.083 42.5001,-102.083"/>
</g>
<!-- Node6 -->
<g id="node6" class="node"><title>Node6</title>
<g id="a_node6"><a xlink:href="class_t_m_c5161_stepper.html" target="_top" xlink:title=" ">
<polygon fill="white" stroke="black" points="0,-0.5 0,-19.5 92,-19.5 92,-0.5 0,-0.5"/>
<text text-anchor="middle" x="46" y="-7.5" font-family="Helvetica,sans-Serif" font-size="10.00">TMC5161Stepper</text>
</a>
</g>
</g>
<!-- Node5&#45;&gt;Node6 -->
<g id="edge5" class="edge"><title>Node5&#45;&gt;Node6</title>
<path fill="none" stroke="midnightblue" d="M46,-45.8045C46,-36.9102 46,-26.7798 46,-19.7511"/>
<polygon fill="midnightblue" stroke="midnightblue" points="42.5001,-46.083 46,-56.083 49.5001,-46.083 42.5001,-46.083"/>
</g>
<!-- Node8 -->
<g id="node8" class="node"><title>Node8</title>
<g id="a_node8"><a xlink:href="class_t_m_c2209_stepper.html" target="_top" xlink:title=" ">
<polygon fill="white" stroke="black" points="110,-168.5 110,-187.5 202,-187.5 202,-168.5 110,-168.5"/>
<text text-anchor="middle" x="156" y="-175.5" font-family="Helvetica,sans-Serif" font-size="10.00">TMC2209Stepper</text>
</a>
</g>
</g>
<!-- Node7&#45;&gt;Node8 -->
<g id="edge7" class="edge"><title>Node7&#45;&gt;Node8</title>
<path fill="none" stroke="midnightblue" d="M156,-213.805C156,-204.91 156,-194.78 156,-187.751"/>
<polygon fill="midnightblue" stroke="midnightblue" points="152.5,-214.083 156,-224.083 159.5,-214.083 152.5,-214.083"/>
</g>
<!-- Node9 -->
<g id="node9" class="node"><title>Node9</title>
<g id="a_node9"><a xlink:href="class_t_m_c2224_stepper.html" target="_top" xlink:title=" ">
<polygon fill="white" stroke="black" points="220,-168.5 220,-187.5 312,-187.5 312,-168.5 220,-168.5"/>
<text text-anchor="middle" x="266" y="-175.5" font-family="Helvetica,sans-Serif" font-size="10.00">TMC2224Stepper</text>
</a>
</g>
</g>
<!-- Node7&#45;&gt;Node9 -->
<g id="edge8" class="edge"><title>Node7&#45;&gt;Node9</title>
<path fill="none" stroke="midnightblue" d="M182.762,-219.862C203.159,-209.849 230.666,-196.346 248.37,-187.655"/>
<polygon fill="midnightblue" stroke="midnightblue" points="181.108,-216.775 173.673,-224.324 184.192,-223.059 181.108,-216.775"/>
</g>
</g>
</svg>
