<?xml version="1.0" encoding="UTF-8" standalone="no"?>
<!DOCTYPE svg PUBLIC "-//W3C//DTD SVG 1.1//EN"
 "http://www.w3.org/Graphics/SVG/1.1/DTD/svg11.dtd">
<!-- Generated by graphviz version 2.38.0 (20140413.2041)
 -->
<!-- Title: TMC2130Stepper::hstrt Pages: 1 -->
<svg width="806pt" height="104pt"
 viewBox="0.00 0.00 806.00 104.00" xmlns="http://www.w3.org/2000/svg" xmlns:xlink="http://www.w3.org/1999/xlink">
<g id="graph0" class="graph" transform="scale(1 1) rotate(0) translate(4 100)">
<title>TMC2130Stepper::hstrt</title>
<polygon fill="white" stroke="none" points="-4,4 -4,-100 802,-100 802,4 -4,4"/>
<!-- Node1 -->
<g id="node1" class="node"><title>Node1</title>
<g id="a_node1"><a xlink:title=" ">
<polygon fill="#bfbfbf" stroke="black" points="0,-38.5 0,-57.5 117,-57.5 117,-38.5 0,-38.5"/>
<text text-anchor="middle" x="58.5" y="-45.5" font-family="Helvetica,sans-Serif" font-size="10.00">TMC2130Stepper::hstrt</text>
</a>
</g>
</g>
<!-- Node2 -->
<g id="node2" class="node"><title>Node2</title>
<g id="a_node2"><a xlink:href="class_t_m_c2130_stepper.html#a67541b27d97ce45f175e9f6e4a2d0bff" target="_top" xlink:title=" ">
<polygon fill="white" stroke="black" points="153,-38.5 153,-57.5 305,-57.5 305,-38.5 153,-38.5"/>
<text text-anchor="middle" x="229" y="-45.5" font-family="Helvetica,sans-Serif" font-size="10.00">TMC2130Stepper::CHOPCONF</text>
</a>
</g>
</g>
<!-- Node1&#45;&gt;Node2 -->
<g id="edge1" class="edge"><title>Node1&#45;&gt;Node2</title>
<path fill="none" stroke="midnightblue" d="M117.017,-48C125.308,-48 133.985,-48 142.677,-48"/>
<polygon fill="midnightblue" stroke="midnightblue" points="142.866,-51.5001 152.866,-48 142.866,-44.5001 142.866,-51.5001"/>
</g>
<!-- Node3 -->
<g id="node3" class="node"><title>Node3</title>
<g id="a_node3"><a xlink:href="class_t_m_c2130_stepper.html#aed0175bff6e80ebc14e0d2606283cbe0" target="_top" xlink:title=" ">
<polygon fill="white" stroke="black" points="341,-38.5 341,-57.5 457,-57.5 457,-38.5 341,-38.5"/>
<text text-anchor="middle" x="399" y="-45.5" font-family="Helvetica,sans-Serif" font-size="10.00">TMC2130Stepper::read</text>
</a>
</g>
</g>
<!-- Node2&#45;&gt;Node3 -->
<g id="edge2" class="edge"><title>Node2&#45;&gt;Node3</title>
<path fill="none" stroke="midnightblue" d="M305.155,-48C313.664,-48 322.296,-48 330.696,-48"/>
<polygon fill="midnightblue" stroke="midnightblue" points="330.802,-51.5001 340.802,-48 330.802,-44.5001 330.802,-51.5001"/>
</g>
<!-- Node4 -->
<g id="node4" class="node"><title>Node4</title>
<g id="a_node4"><a xlink:href="class_t_m_c2130_stepper.html#aed8aa4583943e649dbf3bb1c1da90d63" target="_top" xlink:title=" ">
<polygon fill="white" stroke="black" points="493,-76.5 493,-95.5 645,-95.5 645,-76.5 493,-76.5"/>
<text text-anchor="middle" x="569" y="-83.5" font-family="Helvetica,sans-Serif" font-size="10.00">TMC2130Stepper::switchCSpin</text>
</a>
</g>
</g>
<!-- Node3&#45;&gt;Node4 -->
<g id="edge3" class="edge"><title>Node3&#45;&gt;Node4</title>
<path fill="none" stroke="midnightblue" d="M442.393,-57.589C464.763,-62.6487 492.398,-68.8996 516.047,-74.2488"/>
<polygon fill="midnightblue" stroke="midnightblue" points="515.386,-77.6875 525.911,-76.4799 516.93,-70.8599 515.386,-77.6875"/>
</g>
<!-- Node5 -->
<g id="node5" class="node"><title>Node5</title>
<g id="a_node5"><a xlink:href="class_s_w___s_p_i_class.html#af260fdc0af3f1312b106483161e559c3" target="_top" xlink:title=" ">
<polygon fill="white" stroke="black" points="681,-19.5 681,-38.5 798,-38.5 798,-19.5 681,-19.5"/>
<text text-anchor="middle" x="739.5" y="-26.5" font-family="Helvetica,sans-Serif" font-size="10.00">SW_SPIClass::transfer</text>
</a>
</g>
</g>
<!-- Node3&#45;&gt;Node5 -->
<g id="edge4" class="edge"><title>Node3&#45;&gt;Node5</title>
<path fill="none" stroke="midnightblue" d="M457.039,-44.7984C516.027,-41.4874 608.113,-36.3186 670.765,-32.802"/>
<polygon fill="midnightblue" stroke="midnightblue" points="671.156,-36.2856 680.944,-32.2306 670.763,-29.2966 671.156,-36.2856"/>
</g>
<!-- Node6 -->
<g id="node6" class="node"><title>Node6</title>
<g id="a_node6"><a xlink:href="class_s_w___s_p_i_class.html#a1b7600aa1d9571c103718c5d3e376675" target="_top" xlink:title=" ">
<polygon fill="white" stroke="black" points="505,-0.5 505,-19.5 633,-19.5 633,-0.5 505,-0.5"/>
<text text-anchor="middle" x="569" y="-7.5" font-family="Helvetica,sans-Serif" font-size="10.00">SW_SPIClass::transfer16</text>
</a>
</g>
</g>
<!-- Node3&#45;&gt;Node6 -->
<g id="edge5" class="edge"><title>Node3&#45;&gt;Node6</title>
<path fill="none" stroke="midnightblue" d="M442.393,-38.411C464.763,-33.3513 492.398,-27.1004 516.047,-21.7512"/>
<polygon fill="midnightblue" stroke="midnightblue" points="516.93,-25.1401 525.911,-19.5201 515.386,-18.3125 516.93,-25.1401"/>
</g>
<!-- Node6&#45;&gt;Node5 -->
<g id="edge6" class="edge"><title>Node6&#45;&gt;Node5</title>
<path fill="none" stroke="midnightblue" d="M633.223,-17.129C645.406,-18.5028 658.217,-19.9473 670.543,-21.3372"/>
<polygon fill="midnightblue" stroke="midnightblue" points="670.43,-24.8466 680.76,-22.4892 671.215,-17.8907 670.43,-24.8466"/>
</g>
</g>
</svg>
