<?xml version="1.0" encoding="UTF-8" standalone="no"?>
<!DOCTYPE svg PUBLIC "-//W3C//DTD SVG 1.1//EN"
 "http://www.w3.org/Graphics/SVG/1.1/DTD/svg11.dtd">
<!-- Generated by graphviz version 2.38.0 (20140413.2041)
 -->
<!-- Title: TMC2660Stepper::switchCSpin Pages: 1 -->
<svg width="662pt" height="273pt"
 viewBox="0.00 0.00 662.00 272.50" xmlns="http://www.w3.org/2000/svg" xmlns:xlink="http://www.w3.org/1999/xlink">
<g id="graph0" class="graph" transform="scale(1 1) rotate(0) translate(4 268.5)">
<title>TMC2660Stepper::switchCSpin</title>
<polygon fill="white" stroke="none" points="-4,4 -4,-268.5 658,-268.5 658,4 -4,4"/>
<!-- Node1 -->
<g id="node1" class="node"><title>Node1</title>
<g id="a_node1"><a xlink:title=" ">
<polygon fill="#bfbfbf" stroke="black" points="502,-171.5 502,-190.5 654,-190.5 654,-171.5 502,-171.5"/>
<text text-anchor="middle" x="578" y="-178.5" font-family="Helvetica,sans-Serif" font-size="10.00">TMC2660Stepper::switchCSpin</text>
</a>
</g>
</g>
<!-- Node2 -->
<g id="node2" class="node"><title>Node2</title>
<g id="a_node2"><a xlink:href="class_t_m_c2660_stepper.html#a36fec657eca5845bef6668fd2fce1b54" target="_top" xlink:title=" ">
<polygon fill="white" stroke="black" points="345,-209.5 345,-228.5 466,-228.5 466,-209.5 345,-209.5"/>
<text text-anchor="middle" x="405.5" y="-216.5" font-family="Helvetica,sans-Serif" font-size="10.00">TMC2660Stepper::begin</text>
</a>
</g>
</g>
<!-- Node1&#45;&gt;Node2 -->
<g id="edge1" class="edge"><title>Node1&#45;&gt;Node2</title>
<path fill="none" stroke="midnightblue" d="M523.946,-192.824C499.909,-198.182 471.868,-204.431 449.215,-209.48"/>
<polygon fill="midnightblue" stroke="midnightblue" points="524.977,-196.181 533.976,-190.589 523.454,-189.348 524.977,-196.181"/>
</g>
<!-- Node3 -->
<g id="node3" class="node"><title>Node3</title>
<g id="a_node3"><a xlink:href="class_t_m_c2660_stepper.html#aba43e2af829abee9e029bdd43bde5f61" target="_top" xlink:title=" ">
<polygon fill="white" stroke="black" points="347.5,-171.5 347.5,-190.5 463.5,-190.5 463.5,-171.5 347.5,-171.5"/>
<text text-anchor="middle" x="405.5" y="-178.5" font-family="Helvetica,sans-Serif" font-size="10.00">TMC2660Stepper::read</text>
</a>
</g>
</g>
<!-- Node1&#45;&gt;Node3 -->
<g id="edge2" class="edge"><title>Node1&#45;&gt;Node3</title>
<path fill="none" stroke="midnightblue" d="M491.512,-181C482.087,-181 472.665,-181 463.708,-181"/>
<polygon fill="midnightblue" stroke="midnightblue" points="491.72,-184.5 501.72,-181 491.72,-177.5 491.72,-184.5"/>
</g>
<!-- Node8 -->
<g id="node8" class="node"><title>Node8</title>
<g id="a_node8"><a xlink:href="class_t_m_c2660_stepper.html#a4ab9b5cf6da0c345ecc50e877b54ada2" target="_top" xlink:title=" ">
<polygon fill="white" stroke="black" points="346.5,-95.5 346.5,-114.5 464.5,-114.5 464.5,-95.5 346.5,-95.5"/>
<text text-anchor="middle" x="405.5" y="-102.5" font-family="Helvetica,sans-Serif" font-size="10.00">TMC2660Stepper::write</text>
</a>
</g>
</g>
<!-- Node1&#45;&gt;Node8 -->
<g id="edge7" class="edge"><title>Node1&#45;&gt;Node8</title>
<path fill="none" stroke="midnightblue" d="M545.902,-167.138C511.706,-151.895 457.673,-127.81 427.919,-114.547"/>
<polygon fill="midnightblue" stroke="midnightblue" points="544.847,-170.5 555.406,-171.375 547.697,-164.106 544.847,-170.5"/>
</g>
<!-- Node4 -->
<g id="node4" class="node"><title>Node4</title>
<g id="a_node4"><a xlink:href="class_t_m_c2660_stepper.html#a124bab76346c3c6c17f812e8c4ad7a5c" target="_top" xlink:title=" ">
<polygon fill="white" stroke="black" points="154,-190.5 154,-209.5 309,-209.5 309,-190.5 154,-190.5"/>
<text text-anchor="middle" x="231.5" y="-197.5" font-family="Helvetica,sans-Serif" font-size="10.00">TMC2660Stepper::DRVSTATUS</text>
</a>
</g>
</g>
<!-- Node3&#45;&gt;Node4 -->
<g id="edge3" class="edge"><title>Node3&#45;&gt;Node4</title>
<path fill="none" stroke="midnightblue" d="M337.034,-188.453C327.874,-189.465 318.42,-190.509 309.114,-191.537"/>
<polygon fill="midnightblue" stroke="midnightblue" points="337.671,-191.904 347.226,-187.327 336.903,-184.946 337.671,-191.904"/>
</g>
<!-- Node5 -->
<g id="node5" class="node"><title>Node5</title>
<g id="a_node5"><a xlink:href="class_t_m_c2660_stepper.html#a560c825469ada7c23ec66a4106360e48" target="_top" xlink:title=" ">
<polygon fill="white" stroke="black" points="0,-234 0,-264 118,-264 118,-234 0,-234"/>
<text text-anchor="start" x="8" y="-252" font-family="Helvetica,sans-Serif" font-size="10.00">TMC2660Stepper::DRV</text>
<text text-anchor="middle" x="59" y="-241" font-family="Helvetica,sans-Serif" font-size="10.00">_STATUS</text>
</a>
</g>
</g>
<!-- Node4&#45;&gt;Node5 -->
<g id="edge4" class="edge"><title>Node4&#45;&gt;Node5</title>
<path fill="none" stroke="midnightblue" d="M187.472,-212.366C164.644,-218.926 136.411,-227.04 112.322,-233.963"/>
<polygon fill="midnightblue" stroke="midnightblue" points="188.577,-215.69 197.221,-209.564 186.643,-208.962 188.577,-215.69"/>
</g>
<!-- Node6 -->
<g id="node6" class="node"><title>Node6</title>
<g id="a_node6"><a xlink:href="class_t_m_c2660_stepper.html#a51f799cf592f8d9d50d110aaedfe141a" target="_top" xlink:title=" ">
<polygon fill="white" stroke="black" points="5,-185 5,-215 113,-215 113,-185 5,-185"/>
<text text-anchor="start" x="13" y="-203" font-family="Helvetica,sans-Serif" font-size="10.00">TMC2660Stepper::sg</text>
<text text-anchor="middle" x="59" y="-192" font-family="Helvetica,sans-Serif" font-size="10.00">_result</text>
</a>
</g>
</g>
<!-- Node4&#45;&gt;Node6 -->
<g id="edge5" class="edge"><title>Node4&#45;&gt;Node6</title>
<path fill="none" stroke="midnightblue" d="M143.488,-200C133.235,-200 123.017,-200 113.427,-200"/>
<polygon fill="midnightblue" stroke="midnightblue" points="143.729,-203.5 153.729,-200 143.729,-196.5 143.729,-203.5"/>
</g>
<!-- Node7 -->
<g id="node7" class="node"><title>Node7</title>
<g id="a_node7"><a xlink:href="class_t_m_c2660_stepper.html#a72a9a2ecf2d0707dba76de414cec209e" target="_top" xlink:title=" ">
<polygon fill="white" stroke="black" points="2,-136 2,-166 116,-166 116,-136 2,-136"/>
<text text-anchor="start" x="10" y="-154" font-family="Helvetica,sans-Serif" font-size="10.00">TMC2660Stepper::test</text>
<text text-anchor="middle" x="59" y="-143" font-family="Helvetica,sans-Serif" font-size="10.00">_connection</text>
</a>
</g>
</g>
<!-- Node4&#45;&gt;Node7 -->
<g id="edge6" class="edge"><title>Node4&#45;&gt;Node7</title>
<path fill="none" stroke="midnightblue" d="M180.147,-187.992C171.403,-185.765 162.418,-183.386 154,-181 138.013,-176.469 120.646,-171.064 105.239,-166.099"/>
<polygon fill="midnightblue" stroke="midnightblue" points="179.322,-191.394 189.873,-190.435 181.027,-184.605 179.322,-191.394"/>
</g>
<!-- Node9 -->
<g id="node9" class="node"><title>Node9</title>
<g id="a_node9"><a xlink:href="class_t_m_c2660_stepper.html#a70328d7ca863697d018760836310a6ee" target="_top" xlink:title=" ">
<polygon fill="white" stroke="black" points="155.5,-152.5 155.5,-171.5 307.5,-171.5 307.5,-152.5 155.5,-152.5"/>
<text text-anchor="middle" x="231.5" y="-159.5" font-family="Helvetica,sans-Serif" font-size="10.00">TMC2660Stepper::CHOPCONF</text>
</a>
</g>
</g>
<!-- Node8&#45;&gt;Node9 -->
<g id="edge8" class="edge"><title>Node8&#45;&gt;Node9</title>
<path fill="none" stroke="midnightblue" d="M373.422,-118.604C354.934,-126.384 330.888,-135.963 309,-143 298.187,-146.477 286.344,-149.696 275.275,-152.46"/>
<polygon fill="midnightblue" stroke="midnightblue" points="374.977,-121.746 382.807,-114.609 372.235,-115.305 374.977,-121.746"/>
</g>
<!-- Node10 -->
<g id="node10" class="node"><title>Node10</title>
<g id="a_node10"><a xlink:href="class_t_m_c2660_stepper.html#aec6cc6025a1e9d9aa0165a6f9a8b67d9" target="_top" xlink:title=" ">
<polygon fill="white" stroke="black" points="159,-114.5 159,-133.5 304,-133.5 304,-114.5 159,-114.5"/>
<text text-anchor="middle" x="231.5" y="-121.5" font-family="Helvetica,sans-Serif" font-size="10.00">TMC2660Stepper::DRVCONF</text>
</a>
</g>
</g>
<!-- Node8&#45;&gt;Node10 -->
<g id="edge9" class="edge"><title>Node8&#45;&gt;Node10</title>
<path fill="none" stroke="midnightblue" d="M336.267,-112.537C325.692,-113.705 314.743,-114.915 304.097,-116.091"/>
<polygon fill="midnightblue" stroke="midnightblue" points="336.713,-116.009 346.269,-111.433 335.945,-109.052 336.713,-116.009"/>
</g>
<!-- Node11 -->
<g id="node11" class="node"><title>Node11</title>
<g id="a_node11"><a xlink:href="class_t_m_c2660_stepper.html#a52b5e94e7a6a339f4c58f47edbf97f0b" target="_top" xlink:title=" ">
<polygon fill="white" stroke="black" points="160.5,-76.5 160.5,-95.5 302.5,-95.5 302.5,-76.5 160.5,-76.5"/>
<text text-anchor="middle" x="231.5" y="-83.5" font-family="Helvetica,sans-Serif" font-size="10.00">TMC2660Stepper::DRVCTRL</text>
</a>
</g>
</g>
<!-- Node8&#45;&gt;Node11 -->
<g id="edge10" class="edge"><title>Node8&#45;&gt;Node11</title>
<path fill="none" stroke="midnightblue" d="M336.241,-97.4598C325.173,-96.2371 313.694,-94.9691 302.583,-93.7417"/>
<polygon fill="midnightblue" stroke="midnightblue" points="335.945,-100.948 346.269,-98.5675 336.713,-93.9906 335.945,-100.948"/>
</g>
<!-- Node12 -->
<g id="node12" class="node"><title>Node12</title>
<g id="a_node12"><a xlink:href="class_t_m_c2660_stepper.html#a49dec7d4fe3d3fc5c26b748b1653e6e6" target="_top" xlink:title=" ">
<polygon fill="white" stroke="black" points="155.5,-38.5 155.5,-57.5 307.5,-57.5 307.5,-38.5 155.5,-38.5"/>
<text text-anchor="middle" x="231.5" y="-45.5" font-family="Helvetica,sans-Serif" font-size="10.00">TMC2660Stepper::SGCSCONF</text>
</a>
</g>
</g>
<!-- Node8&#45;&gt;Node12 -->
<g id="edge11" class="edge"><title>Node8&#45;&gt;Node12</title>
<path fill="none" stroke="midnightblue" d="M373.422,-91.3963C354.934,-83.6163 330.888,-74.0371 309,-67 298.187,-63.5235 286.344,-60.304 275.275,-57.5404"/>
<polygon fill="midnightblue" stroke="midnightblue" points="372.235,-94.6948 382.807,-95.3915 374.977,-88.2542 372.235,-94.6948"/>
</g>
<!-- Node13 -->
<g id="node13" class="node"><title>Node13</title>
<g id="a_node13"><a xlink:href="class_t_m_c2660_stepper.html#a6e7b6995932a531acd1a8b81e81fd94e" target="_top" xlink:title=" ">
<polygon fill="white" stroke="black" points="159,-0.5 159,-19.5 304,-19.5 304,-0.5 159,-0.5"/>
<text text-anchor="middle" x="231.5" y="-7.5" font-family="Helvetica,sans-Serif" font-size="10.00">TMC2660Stepper::SMARTEN</text>
</a>
</g>
</g>
<!-- Node8&#45;&gt;Node13 -->
<g id="edge12" class="edge"><title>Node8&#45;&gt;Node13</title>
<path fill="none" stroke="midnightblue" d="M388.123,-88.2514C370.239,-70.9128 339.988,-44.2684 309,-29 301.266,-25.1895 292.706,-22.1038 284.195,-19.6169"/>
<polygon fill="midnightblue" stroke="midnightblue" points="385.861,-90.9372 395.429,-95.4887 390.788,-85.9643 385.861,-90.9372"/>
</g>
</g>
</svg>
