<?xml version="1.0" encoding="UTF-8" standalone="no"?>
<!DOCTYPE svg PUBLIC "-//W3C//DTD SVG 1.1//EN"
 "http://www.w3.org/Graphics/SVG/1.1/DTD/svg11.dtd">
<!-- Generated by graphviz version 2.38.0 (20140413.2041)
 -->
<!-- Title: TMC2130Stepper::TCOOLTHRS Pages: 1 -->
<svg width="658pt" height="104pt"
 viewBox="0.00 0.00 658.00 104.00" xmlns="http://www.w3.org/2000/svg" xmlns:xlink="http://www.w3.org/1999/xlink">
<g id="graph0" class="graph" transform="scale(1 1) rotate(0) translate(4 100)">
<title>TMC2130Stepper::TCOOLTHRS</title>
<polygon fill="white" stroke="none" points="-4,4 -4,-100 654,-100 654,4 -4,4"/>
<!-- Node1 -->
<g id="node1" class="node"><title>Node1</title>
<g id="a_node1"><a xlink:title=" ">
<polygon fill="#bfbfbf" stroke="black" points="0,-38.5 0,-57.5 155,-57.5 155,-38.5 0,-38.5"/>
<text text-anchor="middle" x="77.5" y="-45.5" font-family="Helvetica,sans-Serif" font-size="10.00">TMC2130Stepper::TCOOLTHRS</text>
</a>
</g>
</g>
<!-- Node2 -->
<g id="node2" class="node"><title>Node2</title>
<g id="a_node2"><a xlink:href="class_t_m_c2130_stepper.html#a1f26f0ea072d38c0afd20f27563ebb64" target="_top" xlink:title=" ">
<polygon fill="white" stroke="black" points="191,-38.5 191,-57.5 309,-57.5 309,-38.5 191,-38.5"/>
<text text-anchor="middle" x="250" y="-45.5" font-family="Helvetica,sans-Serif" font-size="10.00">TMC2130Stepper::write</text>
</a>
</g>
</g>
<!-- Node1&#45;&gt;Node2 -->
<g id="edge1" class="edge"><title>Node1&#45;&gt;Node2</title>
<path fill="none" stroke="midnightblue" d="M155.271,-48C163.754,-48 172.35,-48 180.719,-48"/>
<polygon fill="midnightblue" stroke="midnightblue" points="180.792,-51.5001 190.792,-48 180.792,-44.5001 180.792,-51.5001"/>
</g>
<!-- Node3 -->
<g id="node3" class="node"><title>Node3</title>
<g id="a_node3"><a xlink:href="class_t_m_c2130_stepper.html#aed8aa4583943e649dbf3bb1c1da90d63" target="_top" xlink:title=" ">
<polygon fill="white" stroke="black" points="345,-76.5 345,-95.5 497,-95.5 497,-76.5 345,-76.5"/>
<text text-anchor="middle" x="421" y="-83.5" font-family="Helvetica,sans-Serif" font-size="10.00">TMC2130Stepper::switchCSpin</text>
</a>
</g>
</g>
<!-- Node2&#45;&gt;Node3 -->
<g id="edge2" class="edge"><title>Node2&#45;&gt;Node3</title>
<path fill="none" stroke="midnightblue" d="M293.646,-57.589C316.148,-62.6487 343.948,-68.8996 367.738,-74.2488"/>
<polygon fill="midnightblue" stroke="midnightblue" points="367.137,-77.7009 377.661,-76.4799 368.672,-70.8714 367.137,-77.7009"/>
</g>
<!-- Node4 -->
<g id="node4" class="node"><title>Node4</title>
<g id="a_node4"><a xlink:href="class_s_w___s_p_i_class.html#af260fdc0af3f1312b106483161e559c3" target="_top" xlink:title=" ">
<polygon fill="white" stroke="black" points="533,-19.5 533,-38.5 650,-38.5 650,-19.5 533,-19.5"/>
<text text-anchor="middle" x="591.5" y="-26.5" font-family="Helvetica,sans-Serif" font-size="10.00">SW_SPIClass::transfer</text>
</a>
</g>
</g>
<!-- Node2&#45;&gt;Node4 -->
<g id="edge3" class="edge"><title>Node2&#45;&gt;Node4</title>
<path fill="none" stroke="midnightblue" d="M309.362,-44.7338C368.626,-41.4171 460.321,-36.2854 522.755,-32.7913"/>
<polygon fill="midnightblue" stroke="midnightblue" points="523.111,-36.277 532.899,-32.2236 522.719,-29.2879 523.111,-36.277"/>
</g>
<!-- Node5 -->
<g id="node5" class="node"><title>Node5</title>
<g id="a_node5"><a xlink:href="class_s_w___s_p_i_class.html#a1b7600aa1d9571c103718c5d3e376675" target="_top" xlink:title=" ">
<polygon fill="white" stroke="black" points="357,-0.5 357,-19.5 485,-19.5 485,-0.5 357,-0.5"/>
<text text-anchor="middle" x="421" y="-7.5" font-family="Helvetica,sans-Serif" font-size="10.00">SW_SPIClass::transfer16</text>
</a>
</g>
</g>
<!-- Node2&#45;&gt;Node5 -->
<g id="edge4" class="edge"><title>Node2&#45;&gt;Node5</title>
<path fill="none" stroke="midnightblue" d="M293.646,-38.411C316.148,-33.3513 343.948,-27.1004 367.738,-21.7512"/>
<polygon fill="midnightblue" stroke="midnightblue" points="368.672,-25.1286 377.661,-19.5201 367.137,-18.2991 368.672,-25.1286"/>
</g>
<!-- Node5&#45;&gt;Node4 -->
<g id="edge5" class="edge"><title>Node5&#45;&gt;Node4</title>
<path fill="none" stroke="midnightblue" d="M485.223,-17.129C497.406,-18.5028 510.217,-19.9473 522.543,-21.3372"/>
<polygon fill="midnightblue" stroke="midnightblue" points="522.43,-24.8466 532.76,-22.4892 523.215,-17.8907 522.43,-24.8466"/>
</g>
</g>
</svg>
