<?xml version="1.0" encoding="UTF-8" standalone="no"?>
<!DOCTYPE svg PUBLIC "-//W3C//DTD SVG 1.1//EN"
 "http://www.w3.org/Graphics/SVG/1.1/DTD/svg11.dtd">
<!-- Generated by graphviz version 2.38.0 (20140413.2041)
 -->
<!-- Title: TMC2208Stepper::mres Pages: 1 -->
<svg width="1002pt" height="156pt"
 viewBox="0.00 0.00 1002.00 156.41" xmlns="http://www.w3.org/2000/svg" xmlns:xlink="http://www.w3.org/1999/xlink">
<g id="graph0" class="graph" transform="scale(1 1) rotate(0) translate(4 152.405)">
<title>TMC2208Stepper::mres</title>
<polygon fill="white" stroke="none" points="-4,4 -4,-152.405 998,-152.405 998,4 -4,4"/>
<!-- Node1 -->
<g id="node1" class="node"><title>Node1</title>
<g id="a_node1"><a xlink:title=" ">
<polygon fill="#bfbfbf" stroke="black" points="0,-46.9052 0,-65.9052 119,-65.9052 119,-46.9052 0,-46.9052"/>
<text text-anchor="middle" x="59.5" y="-53.9052" font-family="Helvetica,sans-Serif" font-size="10.00">TMC2208Stepper::mres</text>
</a>
</g>
</g>
<!-- Node2 -->
<g id="node2" class="node"><title>Node2</title>
<g id="a_node2"><a xlink:href="class_t_m_c2208_stepper.html#aa11281f54c293f3ff2539b1a583682a9" target="_top" xlink:title=" ">
<polygon fill="white" stroke="black" points="155,-46.9052 155,-65.9052 307,-65.9052 307,-46.9052 155,-46.9052"/>
<text text-anchor="middle" x="231" y="-53.9052" font-family="Helvetica,sans-Serif" font-size="10.00">TMC2208Stepper::CHOPCONF</text>
</a>
</g>
</g>
<!-- Node1&#45;&gt;Node2 -->
<g id="edge1" class="edge"><title>Node1&#45;&gt;Node2</title>
<path fill="none" stroke="midnightblue" d="M119.307,-56.4052C127.554,-56.4052 136.164,-56.4052 144.78,-56.4052"/>
<polygon fill="midnightblue" stroke="midnightblue" points="144.876,-59.9053 154.876,-56.4052 144.876,-52.9053 144.876,-59.9053"/>
</g>
<!-- Node3 -->
<g id="node3" class="node"><title>Node3</title>
<g id="a_node3"><a xlink:href="class_t_m_c2208_stepper.html#a2fae2050849c3ab7968012def8ea1cc5" target="_top" xlink:title=" ">
<polygon fill="white" stroke="black" points="343,-46.9052 343,-65.9052 459,-65.9052 459,-46.9052 343,-46.9052"/>
<text text-anchor="middle" x="401" y="-53.9052" font-family="Helvetica,sans-Serif" font-size="10.00">TMC2208Stepper::read</text>
</a>
</g>
</g>
<!-- Node2&#45;&gt;Node3 -->
<g id="edge2" class="edge"><title>Node2&#45;&gt;Node3</title>
<path fill="none" stroke="midnightblue" d="M307.155,-56.4052C315.664,-56.4052 324.296,-56.4052 332.696,-56.4052"/>
<polygon fill="midnightblue" stroke="midnightblue" points="332.802,-59.9053 342.802,-56.4052 332.802,-52.9053 332.802,-59.9053"/>
</g>
<!-- Node4 -->
<g id="node4" class="node"><title>Node4</title>
<g id="a_node4"><a xlink:href="class_t_m_c2208_stepper.html#a3e1f6a10aa1e3e41dc2594dbe1ea8a1d" target="_top" xlink:title=" ">
<polygon fill="white" stroke="black" points="495,-103.905 495,-122.905 661,-122.905 661,-103.905 495,-103.905"/>
<text text-anchor="middle" x="578" y="-110.905" font-family="Helvetica,sans-Serif" font-size="10.00">TMC2208Stepper::_sendDatagram</text>
</a>
</g>
</g>
<!-- Node3&#45;&gt;Node4 -->
<g id="edge3" class="edge"><title>Node3&#45;&gt;Node4</title>
<path fill="none" stroke="midnightblue" d="M422.7,-65.9833C441.317,-74.3262 469.568,-86.3205 495,-94.4052 503.008,-96.9508 511.555,-99.3114 519.996,-101.442"/>
<polygon fill="midnightblue" stroke="midnightblue" points="519.272,-104.868 529.816,-103.834 520.929,-98.0666 519.272,-104.868"/>
</g>
<!-- Node9 -->
<g id="node9" class="node"><title>Node9</title>
<g id="a_node9"><a xlink:href="class_s_switch.html#a6ff09d0850d551571dc333fb74ff8628" target="_top" xlink:title=" ">
<polygon fill="white" stroke="black" points="536.5,-65.9052 536.5,-84.9052 619.5,-84.9052 619.5,-65.9052 536.5,-65.9052"/>
<text text-anchor="middle" x="578" y="-72.9052" font-family="Helvetica,sans-Serif" font-size="10.00">SSwitch::active</text>
</a>
</g>
</g>
<!-- Node3&#45;&gt;Node9 -->
<g id="edge9" class="edge"><title>Node3&#45;&gt;Node9</title>
<path fill="none" stroke="midnightblue" d="M459.302,-62.6265C480.975,-64.9796 505.465,-67.6385 526.472,-69.9193"/>
<polygon fill="midnightblue" stroke="midnightblue" points="526.158,-73.4056 536.477,-71.0055 526.913,-66.4465 526.158,-73.4056"/>
</g>
<!-- Node10 -->
<g id="node10" class="node"><title>Node10</title>
<g id="a_node10"><a xlink:href="class_t_m_c2208_stepper.html#a409c19fa6b052a370a317d061bf9af4e" target="_top" xlink:title=" ">
<polygon fill="white" stroke="black" points="510,-27.9052 510,-46.9052 646,-46.9052 646,-27.9052 510,-27.9052"/>
<text text-anchor="middle" x="578" y="-34.9052" font-family="Helvetica,sans-Serif" font-size="10.00">TMC2208Stepper::calcCRC</text>
</a>
</g>
</g>
<!-- Node3&#45;&gt;Node10 -->
<g id="edge10" class="edge"><title>Node3&#45;&gt;Node10</title>
<path fill="none" stroke="midnightblue" d="M459.302,-50.1839C472.17,-48.7867 486.032,-47.2817 499.567,-45.8121"/>
<polygon fill="midnightblue" stroke="midnightblue" points="500.269,-49.2566 509.833,-44.6976 499.514,-42.2975 500.269,-49.2566"/>
</g>
<!-- Node5 -->
<g id="node5" class="node"><title>Node5</title>
<g id="a_node5"><a xlink:href="class_t_m_c2208_stepper.html#a4ec5d2b2f5a31259c7aba1f3208d63b8" target="_top" xlink:title=" ">
<polygon fill="white" stroke="black" points="711.5,-128.905 711.5,-147.905 827.5,-147.905 827.5,-128.905 711.5,-128.905"/>
<text text-anchor="middle" x="769.5" y="-135.905" font-family="Helvetica,sans-Serif" font-size="10.00">TMC2208Stepper::ms2</text>
</a>
</g>
</g>
<!-- Node4&#45;&gt;Node5 -->
<g id="edge4" class="edge"><title>Node4&#45;&gt;Node5</title>
<path fill="none" stroke="midnightblue" d="M651.182,-122.928C667.64,-125.099 685.062,-127.397 701.301,-129.54"/>
<polygon fill="midnightblue" stroke="midnightblue" points="700.868,-133.013 711.24,-130.851 701.784,-126.073 700.868,-133.013"/>
</g>
<!-- Node7 -->
<g id="node7" class="node"><title>Node7</title>
<g id="a_node7"><a xlink:href="class_t_m_c2208_stepper.html#ae561da4ec7c40830e97bf4dc8cf700fb" target="_top" xlink:title=" ">
<polygon fill="white" stroke="black" points="697,-90.9052 697,-109.905 842,-109.905 842,-90.9052 697,-90.9052"/>
<text text-anchor="middle" x="769.5" y="-97.9052" font-family="Helvetica,sans-Serif" font-size="10.00">TMC2208Stepper::serial_read</text>
</a>
</g>
</g>
<!-- Node4&#45;&gt;Node7 -->
<g id="edge7" class="edge"><title>Node4&#45;&gt;Node7</title>
<path fill="none" stroke="midnightblue" d="M661.015,-107.779C669.478,-107.198 678.078,-106.608 686.54,-106.028"/>
<polygon fill="midnightblue" stroke="midnightblue" points="687.038,-109.502 696.775,-105.326 686.559,-102.518 687.038,-109.502"/>
</g>
<!-- Node8 -->
<g id="node8" class="node"><title>Node8</title>
<g id="a_node8"><a xlink:href="class_t_m_c2208_stepper.html#a7dd83313385079099b0622957786a979" target="_top" xlink:title=" ">
<polygon fill="white" stroke="black" points="709,-41.4052 709,-71.4052 830,-71.4052 830,-41.4052 709,-41.4052"/>
<text text-anchor="start" x="717" y="-59.4052" font-family="Helvetica,sans-Serif" font-size="10.00">TMC2208Stepper::serial</text>
<text text-anchor="middle" x="769.5" y="-48.4052" font-family="Helvetica,sans-Serif" font-size="10.00">_write</text>
</a>
</g>
</g>
<!-- Node4&#45;&gt;Node8 -->
<g id="edge8" class="edge"><title>Node4&#45;&gt;Node8</title>
<path fill="none" stroke="midnightblue" d="M624.793,-103.808C636.658,-101.045 649.367,-97.8399 661,-94.4052 677.315,-89.5878 680.971,-87.1015 697,-81.4052 703.017,-79.2668 709.325,-77.0401 715.595,-74.8355"/>
<polygon fill="midnightblue" stroke="midnightblue" points="717.095,-78.0185 725.372,-71.4052 714.778,-71.4133 717.095,-78.0185"/>
</g>
<!-- Node6 -->
<g id="node6" class="node"><title>Node6</title>
<g id="a_node6"><a xlink:href="class_t_m_c2208_stepper.html#a5441dd87d0bcea4ffc309cb012166a57" target="_top" xlink:title=" ">
<polygon fill="white" stroke="black" points="878,-58.9052 878,-77.9052 994,-77.9052 994,-58.9052 878,-58.9052"/>
<text text-anchor="middle" x="936" y="-65.9052" font-family="Helvetica,sans-Serif" font-size="10.00">TMC2208Stepper::IOIN</text>
</a>
</g>
</g>
<!-- Node5&#45;&gt;Node6 -->
<g id="edge5" class="edge"><title>Node5&#45;&gt;Node6</title>
<path fill="none" stroke="midnightblue" d="M813.395,-128.814C822.954,-126.18 832.937,-123.032 842,-119.405 866.717,-109.514 893.177,-94.529 911.529,-83.3584"/>
<polygon fill="midnightblue" stroke="midnightblue" points="913.423,-86.3019 920.088,-78.0661 909.742,-80.348 913.423,-86.3019"/>
</g>
<!-- Node6&#45;&gt;Node3 -->
<g id="edge6" class="edge"><title>Node6&#45;&gt;Node3</title>
<path fill="none" stroke="midnightblue" d="M915.963,-58.8176C897.546,-50.0326 868.593,-37.4965 842,-31.4052 691.566,3.05335 646.437,11.3399 495,-18.4052 471.751,-22.9717 446.989,-33.3919 428.866,-42.1675"/>
<polygon fill="midnightblue" stroke="midnightblue" points="426.917,-39.2285 419.532,-46.826 430.043,-45.4917 426.917,-39.2285"/>
</g>
</g>
</svg>
