<?xml version="1.0" encoding="UTF-8" standalone="no"?>
<!DOCTYPE svg PUBLIC "-//W3C//DTD SVG 1.1//EN"
 "http://www.w3.org/Graphics/SVG/1.1/DTD/svg11.dtd">
<!-- Generated by graphviz version 2.38.0 (20140413.2041)
 -->
<!-- Title: TMC2130Stepper::IOIN Pages: 1 -->
<svg width="478pt" height="268pt"
 viewBox="0.00 0.00 478.00 268.00" xmlns="http://www.w3.org/2000/svg" xmlns:xlink="http://www.w3.org/1999/xlink">
<g id="graph0" class="graph" transform="scale(1 1) rotate(0) translate(4 264)">
<title>TMC2130Stepper::IOIN</title>
<polygon fill="white" stroke="none" points="-4,4 -4,-264 474,-264 474,4 -4,4"/>
<!-- Node1 -->
<g id="node1" class="node"><title>Node1</title>
<g id="a_node1"><a xlink:title=" ">
<polygon fill="#bfbfbf" stroke="black" points="354,-126.5 354,-145.5 470,-145.5 470,-126.5 354,-126.5"/>
<text text-anchor="middle" x="412" y="-133.5" font-family="Helvetica,sans-Serif" font-size="10.00">TMC2130Stepper::IOIN</text>
</a>
</g>
</g>
<!-- Node2 -->
<g id="node2" class="node"><title>Node2</title>
<g id="a_node2"><a xlink:href="class_t_m_c2130_stepper.html#a1cfb671dae78bb8d5d8aee0402d0c837" target="_top" xlink:title=" ">
<polygon fill="white" stroke="black" points="176,-240.5 176,-259.5 318,-259.5 318,-240.5 176,-240.5"/>
<text text-anchor="middle" x="247" y="-247.5" font-family="Helvetica,sans-Serif" font-size="10.00">TMC2130Stepper::dcen_cfg4</text>
</a>
</g>
</g>
<!-- Node1&#45;&gt;Node2 -->
<g id="edge1" class="edge"><title>Node1&#45;&gt;Node2</title>
<path fill="none" stroke="midnightblue" d="M398.202,-154.002C381.969,-175.507 351.968,-211.073 318,-231 311.375,-234.887 303.932,-238 296.438,-240.488"/>
<polygon fill="midnightblue" stroke="midnightblue" points="401.18,-155.861 404.288,-145.732 395.542,-151.712 401.18,-155.861"/>
</g>
<!-- Node3 -->
<g id="node3" class="node"><title>Node3</title>
<g id="a_node3"><a xlink:href="class_t_m_c2130_stepper.html#a024b9486d8020acf450798ae80ff4f23" target="_top" xlink:title=" ">
<polygon fill="white" stroke="black" points="177.5,-202.5 177.5,-221.5 316.5,-221.5 316.5,-202.5 177.5,-202.5"/>
<text text-anchor="middle" x="247" y="-209.5" font-family="Helvetica,sans-Serif" font-size="10.00">TMC2130Stepper::dcin_cfg5</text>
</a>
</g>
</g>
<!-- Node1&#45;&gt;Node3 -->
<g id="edge2" class="edge"><title>Node1&#45;&gt;Node3</title>
<path fill="none" stroke="midnightblue" d="M389.927,-151.336C371.67,-164.017 344.148,-181.714 318,-193 309.444,-196.693 299.986,-199.838 290.862,-202.444"/>
<polygon fill="midnightblue" stroke="midnightblue" points="391.95,-154.192 398.099,-145.564 387.912,-148.475 391.95,-154.192"/>
</g>
<!-- Node4 -->
<g id="node4" class="node"><title>Node4</title>
<g id="a_node4"><a xlink:href="class_t_m_c2130_stepper.html#a6ef670298206ae7bf6baf8475e20ce37" target="_top" xlink:title=" ">
<polygon fill="white" stroke="black" points="190.5,-164.5 190.5,-183.5 303.5,-183.5 303.5,-164.5 190.5,-164.5"/>
<text text-anchor="middle" x="247" y="-171.5" font-family="Helvetica,sans-Serif" font-size="10.00">TMC2130Stepper::dco</text>
</a>
</g>
</g>
<!-- Node1&#45;&gt;Node4 -->
<g id="edge3" class="edge"><title>Node1&#45;&gt;Node4</title>
<path fill="none" stroke="midnightblue" d="M359.972,-147.896C337.061,-153.237 310.396,-159.454 288.836,-164.48"/>
<polygon fill="midnightblue" stroke="midnightblue" points="360.924,-151.268 369.868,-145.589 359.335,-144.451 360.924,-151.268"/>
</g>
<!-- Node5 -->
<g id="node5" class="node"><title>Node5</title>
<g id="a_node5"><a xlink:href="class_t_m_c2130_stepper.html#a200657a7d5d0dbae42f42447e21c58ae" target="_top" xlink:title=" ">
<polygon fill="white" stroke="black" points="193,-126.5 193,-145.5 301,-145.5 301,-126.5 193,-126.5"/>
<text text-anchor="middle" x="247" y="-133.5" font-family="Helvetica,sans-Serif" font-size="10.00">TMC2130Stepper::dir</text>
</a>
</g>
</g>
<!-- Node1&#45;&gt;Node5 -->
<g id="edge4" class="edge"><title>Node1&#45;&gt;Node5</title>
<path fill="none" stroke="midnightblue" d="M343.774,-136C329.563,-136 314.755,-136 301.15,-136"/>
<polygon fill="midnightblue" stroke="midnightblue" points="343.991,-139.5 353.991,-136 343.99,-132.5 343.991,-139.5"/>
</g>
<!-- Node6 -->
<g id="node6" class="node"><title>Node6</title>
<g id="a_node6"><a xlink:href="class_t_m_c2130_stepper.html#a838f3e6896ee64d6c8e203e9d5883667" target="_top" xlink:title=" ">
<polygon fill="white" stroke="black" points="192,-77 192,-107 302,-107 302,-77 192,-77"/>
<text text-anchor="start" x="200" y="-95" font-family="Helvetica,sans-Serif" font-size="10.00">TMC2130Stepper::drv</text>
<text text-anchor="middle" x="247" y="-84" font-family="Helvetica,sans-Serif" font-size="10.00">_enn_cfg6</text>
</a>
</g>
</g>
<!-- Node1&#45;&gt;Node6 -->
<g id="edge5" class="edge"><title>Node1&#45;&gt;Node6</title>
<path fill="none" stroke="midnightblue" d="M365.966,-123.844C346.231,-118.516 322.902,-112.219 302.222,-106.637"/>
<polygon fill="midnightblue" stroke="midnightblue" points="365.065,-127.226 375.631,-126.453 366.889,-120.467 365.065,-127.226"/>
</g>
<!-- Node8 -->
<g id="node8" class="node"><title>Node8</title>
<g id="a_node8"><a xlink:href="class_t_m_c2130_stepper.html#a3850472aefc14da68ece4565fa45e5b0" target="_top" xlink:title=" ">
<polygon fill="white" stroke="black" points="189,-38.5 189,-57.5 305,-57.5 305,-38.5 189,-38.5"/>
<text text-anchor="middle" x="247" y="-45.5" font-family="Helvetica,sans-Serif" font-size="10.00">TMC2130Stepper::step</text>
</a>
</g>
</g>
<!-- Node1&#45;&gt;Node8 -->
<g id="edge7" class="edge"><title>Node1&#45;&gt;Node8</title>
<path fill="none" stroke="midnightblue" d="M392.78,-119.624C374.894,-104.321 346.258,-81.8185 318,-68 309.484,-63.8357 299.95,-60.3948 290.725,-57.6109"/>
<polygon fill="midnightblue" stroke="midnightblue" points="390.811,-122.551 400.647,-126.488 395.413,-117.276 390.811,-122.551"/>
</g>
<!-- Node9 -->
<g id="node9" class="node"><title>Node9</title>
<g id="a_node9"><a xlink:href="class_t_m_c2130_stepper.html#a9617bb918094d98baef1980d0f869dc2" target="_top" xlink:title=" ">
<polygon fill="white" stroke="black" points="183,-0.5 183,-19.5 311,-19.5 311,-0.5 183,-0.5"/>
<text text-anchor="middle" x="247" y="-7.5" font-family="Helvetica,sans-Serif" font-size="10.00">TMC2130Stepper::version</text>
</a>
</g>
</g>
<!-- Node1&#45;&gt;Node9 -->
<g id="edge8" class="edge"><title>Node1&#45;&gt;Node9</title>
<path fill="none" stroke="midnightblue" d="M400.098,-117.795C384.783,-93.8065 354.631,-51.9739 318,-29 311.813,-25.1194 304.836,-22.0219 297.745,-19.5519"/>
<polygon fill="midnightblue" stroke="midnightblue" points="397.143,-119.671 405.393,-126.319 403.089,-115.977 397.143,-119.671"/>
</g>
<!-- Node7 -->
<g id="node7" class="node"><title>Node7</title>
<g id="a_node7"><a xlink:href="class_t_m_c2130_stepper.html#aca7a615bce307a631a6118fd95cc9195" target="_top" xlink:title=" ">
<polygon fill="white" stroke="black" points="0,-82.5 0,-101.5 140,-101.5 140,-82.5 0,-82.5"/>
<text text-anchor="middle" x="70" y="-89.5" font-family="Helvetica,sans-Serif" font-size="10.00">TMC2130Stepper::isEnabled</text>
</a>
</g>
</g>
<!-- Node6&#45;&gt;Node7 -->
<g id="edge6" class="edge"><title>Node6&#45;&gt;Node7</title>
<path fill="none" stroke="midnightblue" d="M181.485,-92C168.045,-92 153.826,-92 140.224,-92"/>
<polygon fill="midnightblue" stroke="midnightblue" points="181.588,-95.5001 191.588,-92 181.588,-88.5001 181.588,-95.5001"/>
</g>
</g>
</svg>
