<?xml version="1.0" encoding="UTF-8" standalone="no"?>
<!DOCTYPE svg PUBLIC "-//W3C//DTD SVG 1.1//EN"
 "http://www.w3.org/Graphics/SVG/1.1/DTD/svg11.dtd">
<!-- Generated by graphviz version 2.38.0 (20140413.2041)
 -->
<!-- Title: TMC2208Stepper::_sendDatagram Pages: 1 -->
<!--zoomable 1378 -->
<svg id="main" version="1.1" xmlns="http://www.w3.org/2000/svg" xmlns:xlink="http://www.w3.org/1999/xlink" xml:space="preserve" onload="init(evt)">
<style type="text/css"><![CDATA[
.edge:hover path { stroke: red; }
.edge:hover polygon { stroke: red; fill: red; }
]]></style>
<script type="text/javascript"><![CDATA[
var edges = document.getElementsByTagName('g');
if (edges && edges.length) {
  for (var i=0;i<edges.length;i++) {
    if (edges[i].id.substr(0,4)=='edge') {
      edges[i].setAttribute('class','edge');
    }
  }
}
]]></script>
        <defs>
                <circle id="rim" cx="0" cy="0" r="7"/>
                <circle id="rim2" cx="0" cy="0" r="3.5"/>
                <g id="zoomPlus">
                        <use xlink:href="#rim" fill="#404040">
                                <set attributeName="fill" to="#808080" begin="zoomplus.mouseover" end="zoomplus.mouseout"/>
                        </use>
                        <path d="M-4,0h8M0,-4v8" fill="none" stroke="white" stroke-width="1.5" pointer-events="none"/>
                </g>
                <g id="zoomMin">
                        <use xlink:href="#rim" fill="#404040">
                                <set attributeName="fill" to="#808080" begin="zoomminus.mouseover" end="zoomminus.mouseout"/>
                        </use>
                        <path d="M-4,0h8" fill="none" stroke="white" stroke-width="1.5" pointer-events="none"/>
                </g>
                <g id="dirArrow">
                        <path fill="none" stroke="white" stroke-width="1.5" d="M0,-3.0v7 M-2.5,-0.5L0,-3.0L2.5,-0.5"/>
                </g>
               <g id="resetDef">
                       <use xlink:href="#rim2" fill="#404040">
                               <set attributeName="fill" to="#808080" begin="reset.mouseover" end="reset.mouseout"/>
                       </use>
               </g>
        </defs>

<script type="text/javascript">
var viewWidth = 726;
var viewHeight = 1378;
var sectionId = 'dynsection-4';
</script>
<script xlink:href="svgpan.js"/>
<svg id="graph" class="graph">
<g id="viewport">
<title>TMC2208Stepper::_sendDatagram</title>
<polygon fill="white" stroke="none" points="-4,4 -4,-1374 722,-1374 722,4 -4,4"/>
<!-- Node1 -->
<g id="node1" class="node"><title>Node1</title>
<g id="a_node1"><a xlink:title=" ">
<polygon fill="#bfbfbf" stroke="black" points="552,-317.5 552,-336.5 718,-336.5 718,-317.5 552,-317.5"/>
<text text-anchor="middle" x="635" y="-324.5" font-family="Helvetica,sans-Serif" font-size="10.00">TMC2208Stepper::_sendDatagram</text>
</a>
</g>
</g>
<!-- Node2 -->
<g id="node2" class="node"><title>Node2</title>
<g id="a_node2"><a xlink:href="class_t_m_c2208_stepper.html#a2fae2050849c3ab7968012def8ea1cc5" target="_top" xlink:title=" ">
<polygon fill="white" stroke="black" points="400,-615.5 400,-634.5 516,-634.5 516,-615.5 400,-615.5"/>
<text text-anchor="middle" x="458" y="-622.5" font-family="Helvetica,sans-Serif" font-size="10.00">TMC2208Stepper::read</text>
</a>
</g>
</g>
<!-- Node1&#45;&gt;Node2 -->
<g id="edge1" class="edge"><title>Node1&#45;&gt;Node2</title>
<path fill="none" stroke="midnightblue" d="M623.119,-345.529C589.758,-402.337 489.662,-572.787 464.691,-615.308"/>
<polygon fill="midnightblue" stroke="midnightblue" points="626.33,-346.973 628.376,-336.577 620.294,-343.428 626.33,-346.973"/>
</g>
<!-- Node3 -->
<g id="node3" class="node"><title>Node3</title>
<g id="a_node3"><a xlink:href="class_t_m_c2208_stepper.html#aa11281f54c293f3ff2539b1a583682a9" target="_top" xlink:title=" ">
<polygon fill="white" stroke="black" points="200,-989.5 200,-1008.5 352,-1008.5 352,-989.5 200,-989.5"/>
<text text-anchor="middle" x="276" y="-996.5" font-family="Helvetica,sans-Serif" font-size="10.00">TMC2208Stepper::CHOPCONF</text>
</a>
</g>
</g>
<!-- Node2&#45;&gt;Node3 -->
<g id="edge2" class="edge"><title>Node2&#45;&gt;Node3</title>
<path fill="none" stroke="midnightblue" d="M449.747,-644.543C435.03,-683.65 399.993,-774.038 364,-847 336.693,-902.355 297.988,-965.498 283.132,-989.27"/>
<polygon fill="midnightblue" stroke="midnightblue" points="453.117,-645.522 453.343,-634.93 446.561,-643.07 453.117,-645.522"/>
</g>
<!-- Node27 -->
<g id="node16" class="node"><title>Node27</title>
<g id="a_node16"><a xlink:href="class_t_m_c2208_stepper.html#a2b4643106d473dd0081ec60a3f9b8fdf" target="_top" xlink:title=" ">
<polygon fill="white" stroke="black" points="217,-588 217,-618 335,-618 335,-588 217,-588"/>
<text text-anchor="start" x="225" y="-606" font-family="Helvetica,sans-Serif" font-size="10.00">TMC2208Stepper::DRV</text>
<text text-anchor="middle" x="276" y="-595" font-family="Helvetica,sans-Serif" font-size="10.00">_STATUS</text>
</a>
</g>
</g>
<!-- Node2&#45;&gt;Node27 -->
<g id="edge15" class="edge"><title>Node2&#45;&gt;Node27</title>
<path fill="none" stroke="midnightblue" d="M389.235,-616.718C371.431,-614.542 352.388,-612.214 335.138,-610.106"/>
<polygon fill="midnightblue" stroke="midnightblue" points="389.201,-620.239 399.552,-617.979 390.05,-613.291 389.201,-620.239"/>
</g>
<!-- Node28 -->
<g id="node17" class="node"><title>Node28</title>
<g id="a_node17"><a xlink:href="class_t_m_c2208_stepper.html#a64c51922eb2029e4bbcd4f8a51b6a6ae" target="_top" xlink:title=" ">
<polygon fill="white" stroke="black" points="188,-464.5 188,-483.5 364,-483.5 364,-464.5 188,-464.5"/>
<text text-anchor="middle" x="276" y="-471.5" font-family="Helvetica,sans-Serif" font-size="10.00">TMC2208Stepper::FACTORY_CONF</text>
</a>
</g>
</g>
<!-- Node2&#45;&gt;Node28 -->
<g id="edge16" class="edge"><title>Node2&#45;&gt;Node28</title>
<path fill="none" stroke="midnightblue" d="M437.786,-608.882C400.421,-577.536 318.979,-509.215 288.671,-483.79"/>
<polygon fill="midnightblue" stroke="midnightblue" points="435.556,-611.579 445.466,-615.325 440.055,-606.216 435.556,-611.579"/>
</g>
<!-- Node31 -->
<g id="node20" class="node"><title>Node31</title>
<g id="a_node20"><a xlink:href="class_t_m_c2208_stepper.html#a549db4f962d4ae698dda33ef9a708e33" target="_top" xlink:title=" ">
<polygon fill="white" stroke="black" points="210,-637.5 210,-656.5 342,-656.5 342,-637.5 210,-637.5"/>
<text text-anchor="middle" x="276" y="-644.5" font-family="Helvetica,sans-Serif" font-size="10.00">TMC2208Stepper::GCONF</text>
</a>
</g>
</g>
<!-- Node2&#45;&gt;Node31 -->
<g id="edge19" class="edge"><title>Node2&#45;&gt;Node31</title>
<path fill="none" stroke="midnightblue" d="M389.5,-633.25C373.961,-635.149 357.466,-637.165 342.034,-639.051"/>
<polygon fill="midnightblue" stroke="midnightblue" points="390.05,-636.709 399.552,-632.021 389.201,-629.761 390.05,-636.709"/>
</g>
<!-- Node48 -->
<g id="node30" class="node"><title>Node48</title>
<g id="a_node30"><a xlink:href="class_t_m_c2208_stepper.html#a54eeb50855c3d7dd9e7078a5dc0ebdfc" target="_top" xlink:title=" ">
<polygon fill="white" stroke="black" points="213.5,-426.5 213.5,-445.5 338.5,-445.5 338.5,-426.5 213.5,-426.5"/>
<text text-anchor="middle" x="276" y="-433.5" font-family="Helvetica,sans-Serif" font-size="10.00">TMC2208Stepper::IFCNT</text>
</a>
</g>
</g>
<!-- Node2&#45;&gt;Node48 -->
<g id="edge31" class="edge"><title>Node2&#45;&gt;Node48</title>
<path fill="none" stroke="midnightblue" d="M452.183,-605.765C442.201,-570.079 415.742,-493.734 364,-455 356.574,-449.441 347.85,-445.444 338.844,-442.582"/>
<polygon fill="midnightblue" stroke="midnightblue" points="448.807,-606.686 454.762,-615.448 455.571,-604.884 448.807,-606.686"/>
</g>
<!-- Node49 -->
<g id="node31" class="node"><title>Node49</title>
<g id="a_node31"><a xlink:href="class_t_m_c2208_stepper.html#a5441dd87d0bcea4ffc309cb012166a57" target="_top" xlink:title=" ">
<polygon fill="white" stroke="black" points="218,-209.5 218,-228.5 334,-228.5 334,-209.5 218,-209.5"/>
<text text-anchor="middle" x="276" y="-216.5" font-family="Helvetica,sans-Serif" font-size="10.00">TMC2208Stepper::IOIN</text>
</a>
</g>
</g>
<!-- Node2&#45;&gt;Node49 -->
<g id="edge32" class="edge"><title>Node2&#45;&gt;Node49</title>
<path fill="none" stroke="midnightblue" d="M448.659,-606.187C416.985,-534.743 304.755,-281.602 281.312,-228.726"/>
<polygon fill="midnightblue" stroke="midnightblue" points="445.475,-607.641 452.728,-615.364 451.875,-604.804 445.475,-607.641"/>
</g>
<!-- Node59 -->
<g id="node41" class="node"><title>Node59</title>
<g id="a_node41"><a xlink:href="class_t_m_c2209_stepper.html#aeab582b2f23d4e58f63aec80163b3838" target="_top" xlink:title=" ">
<polygon fill="white" stroke="red" points="218,-1185.5 218,-1204.5 334,-1204.5 334,-1185.5 218,-1185.5"/>
<text text-anchor="middle" x="276" y="-1192.5" font-family="Helvetica,sans-Serif" font-size="10.00">TMC2209Stepper::IOIN</text>
</a>
</g>
</g>
<!-- Node2&#45;&gt;Node59 -->
<g id="edge43" class="edge"><title>Node2&#45;&gt;Node59</title>
<path fill="none" stroke="midnightblue" d="M455.56,-645.007C450.389,-708.943 429.447,-913.135 364,-1067 343.281,-1115.71 302.93,-1165.25 285.432,-1185.5"/>
<polygon fill="midnightblue" stroke="midnightblue" points="459.072,-644.983 456.349,-634.744 452.093,-644.446 459.072,-644.983"/>
</g>
<!-- Node69 -->
<g id="node45" class="node"><title>Node69</title>
<g id="a_node45"><a xlink:href="class_t_m_c2224_stepper.html#aa5fa836e15992bc49e0297ef2126f725" target="_top" xlink:title=" ">
<polygon fill="white" stroke="red" points="218,-171.5 218,-190.5 334,-190.5 334,-171.5 218,-171.5"/>
<text text-anchor="middle" x="276" y="-178.5" font-family="Helvetica,sans-Serif" font-size="10.00">TMC2224Stepper::IOIN</text>
</a>
</g>
</g>
<!-- Node2&#45;&gt;Node69 -->
<g id="edge47" class="edge"><title>Node2&#45;&gt;Node69</title>
<path fill="none" stroke="midnightblue" d="M455.462,-605.347C449.142,-529.704 422.687,-258.662 364,-200 355.909,-191.912 345.226,-186.912 334.125,-183.891"/>
<polygon fill="midnightblue" stroke="midnightblue" points="451.98,-605.713 456.278,-615.397 458.957,-605.146 451.98,-605.713"/>
</g>
<!-- Node79 -->
<g id="node46" class="node"><title>Node79</title>
<g id="a_node46"><a xlink:href="class_t_m_c2208_stepper.html#a0727482b76d6cd679021f4d1677e5b3a" target="_top" xlink:title=" ">
<polygon fill="white" stroke="black" points="201.5,-133.5 201.5,-152.5 350.5,-152.5 350.5,-133.5 201.5,-133.5"/>
<text text-anchor="middle" x="276" y="-140.5" font-family="Helvetica,sans-Serif" font-size="10.00">TMC2208Stepper::OTP_READ</text>
</a>
</g>
</g>
<!-- Node2&#45;&gt;Node79 -->
<g id="edge48" class="edge"><title>Node2&#45;&gt;Node79</title>
<path fill="none" stroke="midnightblue" d="M455.831,-605.162C450.704,-525.053 427.557,-226.633 364,-162 360.098,-158.032 355.572,-154.804 350.677,-152.186"/>
<polygon fill="midnightblue" stroke="midnightblue" points="452.35,-605.578 456.459,-615.343 459.337,-605.146 452.35,-605.578"/>
</g>
<!-- Node80 -->
<g id="node47" class="node"><title>Node80</title>
<g id="a_node47"><a xlink:href="class_t_m_c2208_stepper.html#a3cad83843fc7cc00cbbff7d620690501" target="_top" xlink:title=" ">
<polygon fill="white" stroke="red" points="199,-1273.5 199,-1292.5 353,-1292.5 353,-1273.5 199,-1273.5"/>
<text text-anchor="middle" x="276" y="-1280.5" font-family="Helvetica,sans-Serif" font-size="10.00">TMC2208Stepper::PWM_AUTO</text>
</a>
</g>
</g>
<!-- Node2&#45;&gt;Node80 -->
<g id="edge49" class="edge"><title>Node2&#45;&gt;Node80</title>
<path fill="none" stroke="midnightblue" d="M457.027,-645.058C456.739,-743.132 450.479,-1171.2 364,-1264 360.522,-1267.73 356.495,-1270.82 352.118,-1273.36"/>
<polygon fill="midnightblue" stroke="midnightblue" points="460.527,-644.782 457.038,-634.779 453.527,-644.775 460.527,-644.782"/>
</g>
<!-- Node83 -->
<g id="node48" class="node"><title>Node83</title>
<g id="a_node48"><a xlink:href="class_t_m_c2208_stepper.html#adc81db53cf0291216352b13e5425e67b" target="_top" xlink:title=" ">
<polygon fill="white" stroke="red" points="215,-1224 215,-1254 337,-1254 337,-1224 215,-1224"/>
<text text-anchor="start" x="223" y="-1242" font-family="Helvetica,sans-Serif" font-size="10.00">TMC2208Stepper::PWM</text>
<text text-anchor="middle" x="276" y="-1231" font-family="Helvetica,sans-Serif" font-size="10.00">_SCALE</text>
</a>
</g>
</g>
<!-- Node2&#45;&gt;Node83 -->
<g id="edge50" class="edge"><title>Node2&#45;&gt;Node83</title>
<path fill="none" stroke="midnightblue" d="M456.635,-644.843C454.532,-737.493 441.164,-1126.69 364,-1214 356.923,-1222.01 347.467,-1227.52 337.396,-1231.31"/>
<polygon fill="midnightblue" stroke="midnightblue" points="460.134,-644.912 456.843,-634.841 453.136,-644.766 460.134,-644.912"/>
</g>
<!-- Node86 -->
<g id="node49" class="node"><title>Node86</title>
<g id="a_node49"><a xlink:href="class_t_m_c2208_stepper.html#a7c2e849de2f2933ba9bf8ede8dc53f53" target="_top" xlink:title=" ">
<polygon fill="white" stroke="red" points="201.5,-818.5 201.5,-837.5 350.5,-837.5 350.5,-818.5 201.5,-818.5"/>
<text text-anchor="middle" x="276" y="-825.5" font-family="Helvetica,sans-Serif" font-size="10.00">TMC2208Stepper::PWMCONF</text>
</a>
</g>
</g>
<!-- Node2&#45;&gt;Node86 -->
<g id="edge51" class="edge"><title>Node2&#45;&gt;Node86</title>
<path fill="none" stroke="midnightblue" d="M441.867,-642.067C405.506,-683.073 314.136,-786.119 285.632,-818.266"/>
<polygon fill="midnightblue" stroke="midnightblue" points="444.544,-644.323 448.56,-634.519 439.306,-639.679 444.544,-644.323"/>
</g>
<!-- Node95 -->
<g id="node50" class="node"><title>Node95</title>
<g id="a_node50"><a xlink:href="class_t_m_c2209_stepper.html#ac1d2ec19eb65fd2f14d8d02cc1e7b02e" target="_top" xlink:title=" ">
<polygon fill="white" stroke="black" points="220,-1028 220,-1058 332,-1058 332,-1028 220,-1028"/>
<text text-anchor="start" x="228" y="-1046" font-family="Helvetica,sans-Serif" font-size="10.00">TMC2209Stepper::SG</text>
<text text-anchor="middle" x="276" y="-1035" font-family="Helvetica,sans-Serif" font-size="10.00">_RESULT</text>
</a>
</g>
</g>
<!-- Node2&#45;&gt;Node95 -->
<g id="edge54" class="edge"><title>Node2&#45;&gt;Node95</title>
<path fill="none" stroke="midnightblue" d="M454.933,-644.879C447.062,-716.884 416.711,-962.726 364,-1018 355.54,-1026.87 344.159,-1032.66 332.422,-1036.41"/>
<polygon fill="midnightblue" stroke="midnightblue" points="458.457,-644.848 456.039,-634.532 451.496,-644.104 458.457,-644.848"/>
</g>
<!-- Node4 -->
<g id="node4" class="node"><title>Node4</title>
<g id="a_node4"><a xlink:href="class_t_m_c2208_stepper.html#a5b614f72c27fa1b7ff1c08fe07b17582" target="_top" xlink:title=" ">
<polygon fill="white" stroke="red" points="14,-970.5 14,-989.5 138,-989.5 138,-970.5 14,-970.5"/>
<text text-anchor="middle" x="76" y="-977.5" font-family="Helvetica,sans-Serif" font-size="10.00">TMC2208Stepper::dedge</text>
</a>
</g>
</g>
<!-- Node3&#45;&gt;Node4 -->
<g id="edge3" class="edge"><title>Node3&#45;&gt;Node4</title>
<path fill="none" stroke="midnightblue" d="M189.748,-990.819C172.43,-989.157 154.539,-987.441 138.251,-985.878"/>
<polygon fill="midnightblue" stroke="midnightblue" points="189.574,-994.319 199.862,-991.79 190.242,-987.351 189.574,-994.319"/>
</g>
<!-- Node6 -->
<g id="node5" class="node"><title>Node6</title>
<g id="a_node5"><a xlink:href="class_t_m_c2208_stepper.html#a810f59828ccf8b0f55c7274b21ea0255" target="_top" xlink:title=" ">
<polygon fill="white" stroke="red" points="13,-932.5 13,-951.5 139,-951.5 139,-932.5 13,-932.5"/>
<text text-anchor="middle" x="76" y="-939.5" font-family="Helvetica,sans-Serif" font-size="10.00">TMC2208Stepper::diss2g</text>
</a>
</g>
</g>
<!-- Node3&#45;&gt;Node6 -->
<g id="edge4" class="edge"><title>Node3&#45;&gt;Node6</title>
<path fill="none" stroke="midnightblue" d="M235.478,-986.222C211.434,-978.591 180.053,-968.881 152,-961 140.491,-957.767 127.919,-954.485 116.415,-951.58"/>
<polygon fill="midnightblue" stroke="midnightblue" points="234.711,-989.651 245.302,-989.354 236.837,-982.982 234.711,-989.651"/>
</g>
<!-- Node8 -->
<g id="node6" class="node"><title>Node8</title>
<g id="a_node6"><a xlink:href="class_t_m_c2208_stepper.html#afc70b23b3486ae3ea3a3dfa804441148" target="_top" xlink:title=" ">
<polygon fill="white" stroke="red" points="11,-894.5 11,-913.5 141,-913.5 141,-894.5 11,-894.5"/>
<text text-anchor="middle" x="76" y="-901.5" font-family="Helvetica,sans-Serif" font-size="10.00">TMC2208Stepper::diss2vs</text>
</a>
</g>
</g>
<!-- Node3&#45;&gt;Node8 -->
<g id="edge5" class="edge"><title>Node3&#45;&gt;Node8</title>
<path fill="none" stroke="midnightblue" d="M254.23,-983.396C230.605,-966.326 190.324,-939.239 152,-923 143.219,-919.279 133.54,-916.161 124.136,-913.597"/>
<polygon fill="midnightblue" stroke="midnightblue" points="252.294,-986.317 262.43,-989.404 256.432,-980.67 252.294,-986.317"/>
</g>
<!-- Node10 -->
<g id="node7" class="node"><title>Node10</title>
<g id="a_node7"><a xlink:href="class_t_m_c2208_stepper.html#a2f36996a01d99a96f40d179931eb606a" target="_top" xlink:title=" ">
<polygon fill="white" stroke="red" points="16.5,-1236.5 16.5,-1255.5 135.5,-1255.5 135.5,-1236.5 16.5,-1236.5"/>
<text text-anchor="middle" x="76" y="-1243.5" font-family="Helvetica,sans-Serif" font-size="10.00">TMC2208Stepper::hend</text>
</a>
</g>
</g>
<!-- Node3&#45;&gt;Node10 -->
<g id="edge6" class="edge"><title>Node3&#45;&gt;Node10</title>
<path fill="none" stroke="midnightblue" d="M191.94,-1014.32C190.565,-1015.47 189.249,-1016.69 188,-1018 122.848,-1086.11 216.016,-1157.82 152,-1227 147.439,-1231.93 141.798,-1235.66 135.674,-1238.47"/>
<polygon fill="midnightblue" stroke="midnightblue" points="194.13,-1017.06 200.393,-1008.51 190.168,-1011.29 194.13,-1017.06"/>
</g>
<!-- Node12 -->
<g id="node8" class="node"><title>Node12</title>
<g id="a_node8"><a xlink:href="class_t_m_c2208_stepper.html#ae86e87a3b5882ac40c6f21348c6793ed" target="_top" xlink:title=" ">
<polygon fill="white" stroke="red" points="17.5,-1198.5 17.5,-1217.5 134.5,-1217.5 134.5,-1198.5 17.5,-1198.5"/>
<text text-anchor="middle" x="76" y="-1205.5" font-family="Helvetica,sans-Serif" font-size="10.00">TMC2208Stepper::hstrt</text>
</a>
</g>
</g>
<!-- Node3&#45;&gt;Node12 -->
<g id="edge7" class="edge"><title>Node3&#45;&gt;Node12</title>
<path fill="none" stroke="midnightblue" d="M192.005,-1014.38C190.611,-1015.51 189.273,-1016.72 188,-1018 133.289,-1073.12 205.792,-1132.98 152,-1189 147.162,-1194.04 141.196,-1197.81 134.758,-1200.63"/>
<polygon fill="midnightblue" stroke="midnightblue" points="194.183,-1017.13 200.55,-1008.67 190.292,-1011.32 194.183,-1017.13"/>
</g>
<!-- Node14 -->
<g id="node9" class="node"><title>Node14</title>
<g id="a_node9"><a xlink:href="class_t_m_c2208_stepper.html#a787cbae9adfab6f79a873310c472e7cd" target="_top" xlink:title=" ">
<polygon fill="white" stroke="red" points="15.5,-1160.5 15.5,-1179.5 136.5,-1179.5 136.5,-1160.5 15.5,-1160.5"/>
<text text-anchor="middle" x="76" y="-1167.5" font-family="Helvetica,sans-Serif" font-size="10.00">TMC2208Stepper::intpol</text>
</a>
</g>
</g>
<!-- Node3&#45;&gt;Node14 -->
<g id="edge8" class="edge"><title>Node3&#45;&gt;Node14</title>
<path fill="none" stroke="midnightblue" d="M192.631,-1014.08C191.018,-1015.3 189.47,-1016.6 188,-1018 143.643,-1060.22 195.652,-1108.05 152,-1151 147.596,-1155.33 142.353,-1158.72 136.714,-1161.37"/>
<polygon fill="midnightblue" stroke="midnightblue" points="194.595,-1016.98 201.197,-1008.69 190.868,-1011.05 194.595,-1016.98"/>
</g>
<!-- Node16 -->
<g id="node10" class="node"><title>Node16</title>
<g id="a_node10"><a xlink:href="class_t_m_c2208_stepper.html#a445b61c23afadb9bd48c3f4d9ef9125e" target="_top" xlink:title=" ">
<polygon fill="white" stroke="red" points="16.5,-1122.5 16.5,-1141.5 135.5,-1141.5 135.5,-1122.5 16.5,-1122.5"/>
<text text-anchor="middle" x="76" y="-1129.5" font-family="Helvetica,sans-Serif" font-size="10.00">TMC2208Stepper::mres</text>
</a>
</g>
</g>
<!-- Node3&#45;&gt;Node16 -->
<g id="edge9" class="edge"><title>Node3&#45;&gt;Node16</title>
<path fill="none" stroke="midnightblue" d="M193.698,-1013.67C191.713,-1015 189.807,-1016.44 188,-1018 153.811,-1047.49 185.696,-1082.95 152,-1113 147.188,-1117.29 141.544,-1120.64 135.549,-1123.25"/>
<polygon fill="midnightblue" stroke="midnightblue" points="195.858,-1016.47 202.859,-1008.52 192.427,-1010.37 195.858,-1016.47"/>
</g>
<!-- Node18 -->
<g id="node11" class="node"><title>Node18</title>
<g id="a_node11"><a xlink:href="class_t_m_c2208_stepper.html#a8eb0d71fbfeeb24c9092328c44fab7e5" target="_top" xlink:title=" ">
<polygon fill="white" stroke="black" points="16.5,-818.5 16.5,-837.5 135.5,-837.5 135.5,-818.5 16.5,-818.5"/>
<text text-anchor="middle" x="76" y="-825.5" font-family="Helvetica,sans-Serif" font-size="10.00">TMC2208Stepper::push</text>
</a>
</g>
</g>
<!-- Node3&#45;&gt;Node18 -->
<g id="edge10" class="edge"><title>Node3&#45;&gt;Node18</title>
<path fill="none" stroke="midnightblue" d="M265.355,-980.53C247.506,-948.237 206.156,-881.658 152,-847 145.891,-843.09 139.022,-839.984 131.985,-837.517"/>
<polygon fill="midnightblue" stroke="midnightblue" points="262.299,-982.239 270.127,-989.378 268.46,-978.915 262.299,-982.239"/>
</g>
<!-- Node19 -->
<g id="node12" class="node"><title>Node19</title>
<g id="a_node12"><a xlink:href="class_t_m_c2209_stepper.html#a180f4b9a78e526592d946ec12f71982e" target="_top" xlink:title=" ">
<polygon fill="white" stroke="black" points="16.5,-856.5 16.5,-875.5 135.5,-875.5 135.5,-856.5 16.5,-856.5"/>
<text text-anchor="middle" x="76" y="-863.5" font-family="Helvetica,sans-Serif" font-size="10.00">TMC2209Stepper::push</text>
</a>
</g>
</g>
<!-- Node3&#45;&gt;Node19 -->
<g id="edge11" class="edge"><title>Node3&#45;&gt;Node19</title>
<path fill="none" stroke="midnightblue" d="M261.021,-981.356C240.057,-956.115 197.997,-909.996 152,-885 144.919,-881.152 137.037,-878.064 129.119,-875.591"/>
<polygon fill="midnightblue" stroke="midnightblue" points="258.498,-983.802 267.528,-989.344 263.926,-979.381 258.498,-983.802"/>
</g>
<!-- Node20 -->
<g id="node13" class="node"><title>Node20</title>
<g id="a_node13"><a xlink:href="class_t_m_c2208_stepper.html#a84a5b9684c546c5f4549f375048512be" target="_top" xlink:title=" ">
<polygon fill="white" stroke="red" points="22,-1084.5 22,-1103.5 130,-1103.5 130,-1084.5 22,-1084.5"/>
<text text-anchor="middle" x="76" y="-1091.5" font-family="Helvetica,sans-Serif" font-size="10.00">TMC2208Stepper::tbl</text>
</a>
</g>
</g>
<!-- Node3&#45;&gt;Node20 -->
<g id="edge12" class="edge"><title>Node3&#45;&gt;Node20</title>
<path fill="none" stroke="midnightblue" d="M196.59,-1012.82C193.601,-1014.37 190.722,-1016.09 188,-1018 163.462,-1035.2 176.25,-1057.4 152,-1075 145.477,-1079.73 137.892,-1083.29 130.101,-1085.97"/>
<polygon fill="midnightblue" stroke="midnightblue" points="198.166,-1015.95 205.846,-1008.65 195.291,-1009.57 198.166,-1015.95"/>
</g>
<!-- Node22 -->
<g id="node14" class="node"><title>Node22</title>
<g id="a_node14"><a xlink:href="class_t_m_c2208_stepper.html#aad3790e8c9040b5b4770ee65ed06b1ed" target="_top" xlink:title=" ">
<polygon fill="white" stroke="red" points="21,-1046.5 21,-1065.5 131,-1065.5 131,-1046.5 21,-1046.5"/>
<text text-anchor="middle" x="76" y="-1053.5" font-family="Helvetica,sans-Serif" font-size="10.00">TMC2208Stepper::toff</text>
</a>
</g>
</g>
<!-- Node3&#45;&gt;Node22 -->
<g id="edge13" class="edge"><title>Node3&#45;&gt;Node22</title>
<path fill="none" stroke="midnightblue" d="M210.728,-1010.96C202.98,-1013.01 195.249,-1015.35 188,-1018 171.007,-1024.21 168.888,-1030.51 152,-1037 142.471,-1040.66 131.99,-1043.82 121.961,-1046.46"/>
<polygon fill="midnightblue" stroke="midnightblue" points="211.66,-1014.34 220.517,-1008.52 209.967,-1007.55 211.66,-1014.34"/>
</g>
<!-- Node25 -->
<g id="node15" class="node"><title>Node25</title>
<g id="a_node15"><a xlink:href="class_t_m_c2208_stepper.html#aca88bb5ae86daeca56094bf2f8bdea5d" target="_top" xlink:title=" ">
<polygon fill="white" stroke="red" points="12,-1008.5 12,-1027.5 140,-1027.5 140,-1008.5 12,-1008.5"/>
<text text-anchor="middle" x="76" y="-1015.5" font-family="Helvetica,sans-Serif" font-size="10.00">TMC2208Stepper::vsense</text>
</a>
</g>
</g>
<!-- Node3&#45;&gt;Node25 -->
<g id="edge14" class="edge"><title>Node3&#45;&gt;Node25</title>
<path fill="none" stroke="midnightblue" d="M189.607,-1007.19C173.001,-1008.79 155.874,-1010.43 140.144,-1011.94"/>
<polygon fill="midnightblue" stroke="midnightblue" points="190.242,-1010.65 199.862,-1006.21 189.574,-1003.68 190.242,-1010.65"/>
</g>
<!-- Node29 -->
<g id="node18" class="node"><title>Node29</title>
<g id="a_node18"><a xlink:href="class_t_m_c2208_stepper.html#a2576f25049dff1a3102da1ea5b4eb7fc" target="_top" xlink:title=" ">
<polygon fill="white" stroke="black" points="11.5,-342.5 11.5,-361.5 140.5,-361.5 140.5,-342.5 11.5,-342.5"/>
<text text-anchor="middle" x="76" y="-349.5" font-family="Helvetica,sans-Serif" font-size="10.00">TMC2208Stepper::fclktrim</text>
</a>
</g>
</g>
<!-- Node28&#45;&gt;Node29 -->
<g id="edge17" class="edge"><title>Node28&#45;&gt;Node29</title>
<path fill="none" stroke="midnightblue" d="M194.423,-459.633C192.183,-458.221 190.034,-456.68 188,-455 156.686,-429.131 182.882,-397.384 152,-371 147.506,-367.161 142.342,-364.08 136.87,-361.611"/>
<polygon fill="midnightblue" stroke="midnightblue" points="192.993,-462.837 203.462,-464.466 196.294,-456.664 192.993,-462.837"/>
</g>
<!-- Node30 -->
<g id="node19" class="node"><title>Node30</title>
<g id="a_node19"><a xlink:href="class_t_m_c2208_stepper.html#a1d354657666fa70cd13004cb70bc9fcf" target="_top" xlink:title=" ">
<polygon fill="white" stroke="black" points="15,-380.5 15,-399.5 137,-399.5 137,-380.5 15,-380.5"/>
<text text-anchor="middle" x="76" y="-387.5" font-family="Helvetica,sans-Serif" font-size="10.00">TMC2208Stepper::ottrim</text>
</a>
</g>
</g>
<!-- Node28&#45;&gt;Node30 -->
<g id="edge18" class="edge"><title>Node28&#45;&gt;Node30</title>
<path fill="none" stroke="midnightblue" d="M198.624,-460.668C194.931,-458.995 191.365,-457.114 188,-455 166.017,-441.19 173.752,-423.171 152,-409 146.035,-405.114 139.326,-402.023 132.435,-399.563"/>
<polygon fill="midnightblue" stroke="midnightblue" points="197.439,-463.963 208.024,-464.415 200.031,-457.461 197.439,-463.963"/>
</g>
<!-- Node31&#45;&gt;Node18 -->
<g id="edge28" class="edge"><title>Node31&#45;&gt;Node18</title>
<path fill="none" stroke="midnightblue" d="M265.852,-666.01C248.532,-699.923 207.644,-770.783 152,-808 145.503,-812.345 138.101,-815.748 130.536,-818.413"/>
<polygon fill="midnightblue" stroke="midnightblue" points="269.138,-667.261 270.46,-656.749 262.872,-664.142 269.138,-667.261"/>
</g>
<!-- Node31&#45;&gt;Node19 -->
<g id="edge29" class="edge"><title>Node31&#45;&gt;Node19</title>
<path fill="none" stroke="midnightblue" d="M265.712,-665.901C243.246,-710.904 185.368,-822.478 152,-847 146.696,-850.898 140.675,-853.999 134.406,-856.467"/>
<polygon fill="midnightblue" stroke="midnightblue" points="268.983,-667.183 270.289,-656.669 262.711,-664.074 268.983,-667.183"/>
</g>
<!-- Node32 -->
<g id="node21" class="node"><title>Node32</title>
<g id="a_node21"><a xlink:href="class_t_m_c2208_stepper.html#a3e5b6f25ec1fa94a6d8f0bd004a535ce" target="_top" xlink:title=" ">
<polygon fill="white" stroke="black" points="22,-681 22,-711 130,-711 130,-681 22,-681"/>
<text text-anchor="start" x="30" y="-699" font-family="Helvetica,sans-Serif" font-size="10.00">TMC2208Stepper::en</text>
<text text-anchor="middle" x="76" y="-688" font-family="Helvetica,sans-Serif" font-size="10.00">_spreadCycle</text>
</a>
</g>
</g>
<!-- Node31&#45;&gt;Node32 -->
<g id="edge20" class="edge"><title>Node31&#45;&gt;Node32</title>
<path fill="none" stroke="midnightblue" d="M226.393,-659.029C197.225,-666.247 160.099,-675.435 130.155,-682.845"/>
<polygon fill="midnightblue" stroke="midnightblue" points="227.487,-662.364 236.354,-656.564 225.806,-655.569 227.487,-662.364"/>
</g>
<!-- Node33 -->
<g id="node22" class="node"><title>Node33</title>
<g id="a_node22"><a xlink:href="class_t_m_c2208_stepper.html#a3b1c4e92ce6d46b6073974d8758275ff" target="_top" xlink:title=" ">
<polygon fill="white" stroke="black" points="12,-632 12,-662 140,-662 140,-632 12,-632"/>
<text text-anchor="start" x="20" y="-650" font-family="Helvetica,sans-Serif" font-size="10.00">TMC2208Stepper::I_scale</text>
<text text-anchor="middle" x="76" y="-639" font-family="Helvetica,sans-Serif" font-size="10.00">_analog</text>
</a>
</g>
</g>
<!-- Node31&#45;&gt;Node33 -->
<g id="edge21" class="edge"><title>Node31&#45;&gt;Node33</title>
<path fill="none" stroke="midnightblue" d="M199.748,-647C180.082,-647 159.088,-647 140.124,-647"/>
<polygon fill="midnightblue" stroke="midnightblue" points="199.893,-650.5 209.893,-647 199.893,-643.5 199.893,-650.5"/>
</g>
<!-- Node34 -->
<g id="node23" class="node"><title>Node34</title>
<g id="a_node23"><a xlink:href="class_t_m_c2208_stepper.html#a8a8172fcb19ea2439d4898f4102fa039" target="_top" xlink:title=" ">
<polygon fill="white" stroke="red" points="3,-593.5 3,-612.5 149,-612.5 149,-593.5 3,-593.5"/>
<text text-anchor="middle" x="76" y="-600.5" font-family="Helvetica,sans-Serif" font-size="10.00">TMC2208Stepper::index_otpw</text>
</a>
</g>
</g>
<!-- Node31&#45;&gt;Node34 -->
<g id="edge22" class="edge"><title>Node31&#45;&gt;Node34</title>
<path fill="none" stroke="midnightblue" d="M221.972,-635.216C190.009,-628.113 149.828,-619.184 119.879,-612.529"/>
<polygon fill="midnightblue" stroke="midnightblue" points="221.516,-638.7 232.037,-637.453 223.034,-631.867 221.516,-638.7"/>
</g>
<!-- Node36 -->
<g id="node24" class="node"><title>Node36</title>
<g id="a_node24"><a xlink:href="class_t_m_c2208_stepper.html#aa0f677d760ac3c9a297a6f6d2778ec81" target="_top" xlink:title=" ">
<polygon fill="white" stroke="red" points="3.5,-555.5 3.5,-574.5 148.5,-574.5 148.5,-555.5 3.5,-555.5"/>
<text text-anchor="middle" x="76" y="-562.5" font-family="Helvetica,sans-Serif" font-size="10.00">TMC2208Stepper::index_step</text>
</a>
</g>
</g>
<!-- Node31&#45;&gt;Node36 -->
<g id="edge23" class="edge"><title>Node31&#45;&gt;Node36</title>
<path fill="none" stroke="midnightblue" d="M201.849,-633.978C197.016,-631.975 192.348,-629.665 188,-627 166.749,-613.975 173.105,-597.26 152,-584 145.858,-580.141 138.97,-577.065 131.925,-574.613"/>
<polygon fill="midnightblue" stroke="midnightblue" points="200.714,-637.29 211.308,-637.463 203.135,-630.722 200.714,-637.29"/>
</g>
<!-- Node38 -->
<g id="node25" class="node"><title>Node38</title>
<g id="a_node25"><a xlink:href="class_t_m_c2208_stepper.html#a8159b7bd97a76b6020bf285c052809b6" target="_top" xlink:title=" ">
<polygon fill="white" stroke="black" points="11.5,-506 11.5,-536 140.5,-536 140.5,-506 11.5,-506"/>
<text text-anchor="start" x="19.5" y="-524" font-family="Helvetica,sans-Serif" font-size="10.00">TMC2208Stepper::internal</text>
<text text-anchor="middle" x="76" y="-513" font-family="Helvetica,sans-Serif" font-size="10.00">_Rsense</text>
</a>
</g>
</g>
<!-- Node31&#45;&gt;Node38 -->
<g id="edge24" class="edge"><title>Node31&#45;&gt;Node38</title>
<path fill="none" stroke="midnightblue" d="M200.306,-634.99C195.917,-632.743 191.764,-630.102 188,-627 157.598,-601.946 181.168,-572.481 152,-546 147.732,-542.125 142.846,-538.849 137.659,-536.079"/>
<polygon fill="midnightblue" stroke="midnightblue" points="199.037,-638.255 209.601,-639.071 201.851,-631.846 199.037,-638.255"/>
</g>
<!-- Node39 -->
<g id="node26" class="node"><title>Node39</title>
<g id="a_node26"><a xlink:href="class_t_m_c2208_stepper.html#a02994cba6b9ac73b61799cf7af0fd588" target="_top" xlink:title=" ">
<polygon fill="white" stroke="red" points="13.5,-457 13.5,-487 138.5,-487 138.5,-457 13.5,-457"/>
<text text-anchor="start" x="21.5" y="-475" font-family="Helvetica,sans-Serif" font-size="10.00">TMC2208Stepper::mstep</text>
<text text-anchor="middle" x="76" y="-464" font-family="Helvetica,sans-Serif" font-size="10.00">_reg_select</text>
</a>
</g>
</g>
<!-- Node31&#45;&gt;Node39 -->
<g id="edge25" class="edge"><title>Node31&#45;&gt;Node39</title>
<path fill="none" stroke="midnightblue" d="M200.579,-636.084C196.009,-633.591 191.75,-630.595 188,-627 144.412,-585.215 193.8,-539.573 152,-496 148.12,-491.955 143.558,-488.59 138.634,-485.791"/>
<polygon fill="midnightblue" stroke="midnightblue" points="199.154,-639.28 209.702,-640.282 202.081,-632.922 199.154,-639.28"/>
</g>
<!-- Node42 -->
<g id="node27" class="node"><title>Node42</title>
<g id="a_node27"><a xlink:href="class_t_m_c2208_stepper.html#ac7e75314309e988c55e28da4798fa637" target="_top" xlink:title=" ">
<polygon fill="white" stroke="red" points="0,-418.5 0,-437.5 152,-437.5 152,-418.5 0,-418.5"/>
<text text-anchor="middle" x="76" y="-425.5" font-family="Helvetica,sans-Serif" font-size="10.00">TMC2208Stepper::multistep_filt</text>
</a>
</g>
</g>
<!-- Node31&#45;&gt;Node42 -->
<g id="edge26" class="edge"><title>Node31&#45;&gt;Node42</title>
<path fill="none" stroke="midnightblue" d="M200.532,-636.518C195.935,-633.93 191.686,-630.793 188,-627 131.141,-568.493 208.208,-506.133 152,-447 148.391,-443.203 144.141,-440.122 139.529,-437.627"/>
<polygon fill="midnightblue" stroke="midnightblue" points="199.204,-639.762 209.743,-640.849 202.183,-633.427 199.204,-639.762"/>
</g>
<!-- Node44 -->
<g id="node28" class="node"><title>Node44</title>
<g id="a_node28"><a xlink:href="class_t_m_c2208_stepper.html#a9de4a150926f2875903be27063f00973" target="_top" xlink:title=" ">
<polygon fill="white" stroke="red" points="19.5,-769 19.5,-799 132.5,-799 132.5,-769 19.5,-769"/>
<text text-anchor="start" x="27.5" y="-787" font-family="Helvetica,sans-Serif" font-size="10.00">TMC2208Stepper::pdn</text>
<text text-anchor="middle" x="76" y="-776" font-family="Helvetica,sans-Serif" font-size="10.00">_disable</text>
</a>
</g>
</g>
<!-- Node31&#45;&gt;Node44 -->
<g id="edge27" class="edge"><title>Node31&#45;&gt;Node44</title>
<path fill="none" stroke="midnightblue" d="M260.382,-664.245C238.92,-688.563 196.576,-732.871 152,-759 145.606,-762.748 138.572,-766.027 131.453,-768.869"/>
<polygon fill="midnightblue" stroke="midnightblue" points="263.158,-666.386 267.071,-656.54 257.872,-661.797 263.158,-666.386"/>
</g>
<!-- Node46 -->
<g id="node29" class="node"><title>Node46</title>
<g id="a_node29"><a xlink:href="class_t_m_c2208_stepper.html#ab4500aa2baca79572a8145b64f809a37" target="_top" xlink:title=" ">
<polygon fill="white" stroke="red" points="16.5,-730.5 16.5,-749.5 135.5,-749.5 135.5,-730.5 16.5,-730.5"/>
<text text-anchor="middle" x="76" y="-737.5" font-family="Helvetica,sans-Serif" font-size="10.00">TMC2208Stepper::shaft</text>
</a>
</g>
</g>
<!-- Node31&#45;&gt;Node46 -->
<g id="edge30" class="edge"><title>Node31&#45;&gt;Node46</title>
<path fill="none" stroke="midnightblue" d="M253.325,-662.378C229.482,-678.68 189.549,-704.208 152,-720 142.187,-724.127 131.288,-727.612 120.908,-730.457"/>
<polygon fill="midnightblue" stroke="midnightblue" points="255.408,-665.192 261.636,-656.621 251.423,-659.437 255.408,-665.192"/>
</g>
<!-- Node50 -->
<g id="node32" class="node"><title>Node50</title>
<g id="a_node32"><a xlink:href="class_t_m_c2208_stepper.html#a3e89d66eba91684da6dce09b366aa716" target="_top" xlink:title=" ">
<polygon fill="white" stroke="black" points="18,-266.5 18,-285.5 134,-285.5 134,-266.5 18,-266.5"/>
<text text-anchor="middle" x="76" y="-273.5" font-family="Helvetica,sans-Serif" font-size="10.00">TMC2208Stepper::diag</text>
</a>
</g>
</g>
<!-- Node49&#45;&gt;Node50 -->
<g id="edge33" class="edge"><title>Node49&#45;&gt;Node50</title>
<path fill="none" stroke="midnightblue" d="M235.478,-231.778C211.434,-239.409 180.053,-249.119 152,-257 140.491,-260.233 127.919,-263.515 116.415,-266.42"/>
<polygon fill="midnightblue" stroke="midnightblue" points="236.837,-235.018 245.302,-228.646 234.711,-228.349 236.837,-235.018"/>
</g>
<!-- Node51 -->
<g id="node33" class="node"><title>Node51</title>
<g id="a_node33"><a xlink:href="class_t_m_c2208_stepper.html#af4a3a3c37720a10e59331f74c8a84a4e" target="_top" xlink:title=" ">
<polygon fill="white" stroke="black" points="22,-228.5 22,-247.5 130,-247.5 130,-228.5 22,-228.5"/>
<text text-anchor="middle" x="76" y="-235.5" font-family="Helvetica,sans-Serif" font-size="10.00">TMC2208Stepper::dir</text>
</a>
</g>
</g>
<!-- Node49&#45;&gt;Node51 -->
<g id="edge34" class="edge"><title>Node49&#45;&gt;Node51</title>
<path fill="none" stroke="midnightblue" d="M207.736,-225.455C182.44,-227.882 154.053,-230.606 130.21,-232.894"/>
<polygon fill="midnightblue" stroke="midnightblue" points="208.376,-228.909 217.996,-224.47 207.707,-221.941 208.376,-228.909"/>
</g>
<!-- Node52 -->
<g id="node34" class="node"><title>Node52</title>
<g id="a_node34"><a xlink:href="class_t_m_c2208_stepper.html#acc1f92ce007231215fc4266fb4b99a62" target="_top" xlink:title=" ">
<polygon fill="white" stroke="red" points="19.5,-190.5 19.5,-209.5 132.5,-209.5 132.5,-190.5 19.5,-190.5"/>
<text text-anchor="middle" x="76" y="-197.5" font-family="Helvetica,sans-Serif" font-size="10.00">TMC2208Stepper::enn</text>
</a>
</g>
</g>
<!-- Node49&#45;&gt;Node52 -->
<g id="edge35" class="edge"><title>Node49&#45;&gt;Node52</title>
<path fill="none" stroke="midnightblue" d="M208.038,-212.574C183.498,-210.22 156.014,-207.582 132.578,-205.333"/>
<polygon fill="midnightblue" stroke="midnightblue" points="207.707,-216.059 217.996,-213.53 208.376,-209.091 207.707,-216.059"/>
</g>
<!-- Node53 -->
<g id="node35" class="node"><title>Node53</title>
<g id="a_node35"><a xlink:href="class_t_m_c2208_stepper.html#adbace6f10c292506035b9d162ed239b4" target="_top" xlink:title=" ">
<polygon fill="white" stroke="black" points="18,-152.5 18,-171.5 134,-171.5 134,-152.5 18,-152.5"/>
<text text-anchor="middle" x="76" y="-159.5" font-family="Helvetica,sans-Serif" font-size="10.00">TMC2208Stepper::ms1</text>
</a>
</g>
</g>
<!-- Node49&#45;&gt;Node53 -->
<g id="edge36" class="edge"><title>Node49&#45;&gt;Node53</title>
<path fill="none" stroke="midnightblue" d="M210.728,-207.035C202.98,-204.987 195.249,-202.649 188,-200 171.007,-193.791 168.888,-187.489 152,-181 142.471,-177.338 131.99,-174.176 121.961,-171.54"/>
<polygon fill="midnightblue" stroke="midnightblue" points="209.967,-210.453 220.517,-209.476 211.66,-203.66 209.967,-210.453"/>
</g>
<!-- Node54 -->
<g id="node36" class="node"><title>Node54</title>
<g id="a_node36"><a xlink:href="class_t_m_c2208_stepper.html#a4ec5d2b2f5a31259c7aba1f3208d63b8" target="_top" xlink:title=" ">
<polygon fill="white" stroke="black" points="18,-0.5 18,-19.5 134,-19.5 134,-0.5 18,-0.5"/>
<text text-anchor="middle" x="76" y="-7.5" font-family="Helvetica,sans-Serif" font-size="10.00">TMC2208Stepper::ms2</text>
</a>
</g>
</g>
<!-- Node49&#45;&gt;Node54 -->
<g id="edge37" class="edge"><title>Node49&#45;&gt;Node54</title>
<path fill="none" stroke="midnightblue" d="M208.113,-212.909C200.624,-209.883 193.667,-205.709 188,-200 133.289,-144.876 205.792,-85.022 152,-29 146.976,-23.768 140.735,-19.8979 134.013,-17.0478"/>
<polygon fill="midnightblue" stroke="midnightblue" points="207.232,-216.305 217.826,-216.157 209.452,-209.666 207.232,-216.305"/>
</g>
<!-- Node55 -->
<g id="node37" class="node"><title>Node55</title>
<g id="a_node37"><a xlink:href="class_t_m_c2208_stepper.html#ab1a4fdff9c56ed07ba453f961864e769" target="_top" xlink:title=" ">
<polygon fill="white" stroke="black" points="8.5,-114.5 8.5,-133.5 143.5,-133.5 143.5,-114.5 8.5,-114.5"/>
<text text-anchor="middle" x="76" y="-121.5" font-family="Helvetica,sans-Serif" font-size="10.00">TMC2208Stepper::pdn_uart</text>
</a>
</g>
</g>
<!-- Node49&#45;&gt;Node55 -->
<g id="edge39" class="edge"><title>Node49&#45;&gt;Node55</title>
<path fill="none" stroke="midnightblue" d="M208.12,-210.208C200.97,-207.606 194.093,-204.27 188,-200 163.462,-182.805 176.25,-160.599 152,-143 146.673,-139.134 140.638,-136.052 134.36,-133.595"/>
<polygon fill="midnightblue" stroke="midnightblue" points="207.403,-213.652 217.993,-213.321 209.508,-206.976 207.403,-213.652"/>
</g>
<!-- Node56 -->
<g id="node38" class="node"><title>Node56</title>
<g id="a_node38"><a xlink:href="class_t_m_c2208_stepper.html#a462e14ef67b55c14c361c741767eee5e" target="_top" xlink:title=" ">
<polygon fill="white" stroke="black" points="15.5,-76.5 15.5,-95.5 136.5,-95.5 136.5,-76.5 15.5,-76.5"/>
<text text-anchor="middle" x="76" y="-83.5" font-family="Helvetica,sans-Serif" font-size="10.00">TMC2208Stepper::sel_a</text>
</a>
</g>
</g>
<!-- Node49&#45;&gt;Node56 -->
<g id="edge40" class="edge"><title>Node49&#45;&gt;Node56</title>
<path fill="none" stroke="midnightblue" d="M208.304,-211.806C200.911,-208.946 193.926,-205.112 188,-200 153.811,-170.507 185.696,-135.055 152,-105 147.489,-100.977 142.247,-97.7806 136.669,-95.2454"/>
<polygon fill="midnightblue" stroke="midnightblue" points="207.244,-215.142 217.837,-214.932 209.425,-208.49 207.244,-215.142"/>
</g>
<!-- Node57 -->
<g id="node39" class="node"><title>Node57</title>
<g id="a_node39"><a xlink:href="class_t_m_c2208_stepper.html#ac5cbf509e5e74a27507ce976bd973a4d" target="_top" xlink:title=" ">
<polygon fill="white" stroke="black" points="18,-38.5 18,-57.5 134,-57.5 134,-38.5 18,-38.5"/>
<text text-anchor="middle" x="76" y="-45.5" font-family="Helvetica,sans-Serif" font-size="10.00">TMC2208Stepper::step</text>
</a>
</g>
</g>
<!-- Node49&#45;&gt;Node57 -->
<g id="edge41" class="edge"><title>Node49&#45;&gt;Node57</title>
<path fill="none" stroke="midnightblue" d="M208.112,-212.477C200.688,-209.512 193.748,-205.471 188,-200 143.643,-157.779 195.652,-109.949 152,-67 146.925,-62.0071 140.737,-58.2672 134.114,-55.4755"/>
<polygon fill="midnightblue" stroke="midnightblue" points="207.127,-215.837 217.72,-215.682 209.342,-209.197 207.127,-215.837"/>
</g>
<!-- Node58 -->
<g id="node40" class="node"><title>Node58</title>
<g id="a_node40"><a xlink:href="class_t_m_c2208_stepper.html#afd696df315a1b1296bd77f6438c4cbe8" target="_top" xlink:title=" ">
<polygon fill="white" stroke="black" points="12,-304.5 12,-323.5 140,-323.5 140,-304.5 12,-304.5"/>
<text text-anchor="middle" x="76" y="-311.5" font-family="Helvetica,sans-Serif" font-size="10.00">TMC2208Stepper::version</text>
</a>
</g>
</g>
<!-- Node49&#45;&gt;Node58 -->
<g id="edge42" class="edge"><title>Node49&#45;&gt;Node58</title>
<path fill="none" stroke="midnightblue" d="M254.23,-234.604C230.605,-251.674 190.324,-278.761 152,-295 143.219,-298.721 133.54,-301.839 124.136,-304.403"/>
<polygon fill="midnightblue" stroke="midnightblue" points="256.432,-237.33 262.43,-228.596 252.294,-231.683 256.432,-237.33"/>
</g>
<!-- Node54&#45;&gt;Node1 -->
<g id="edge38" class="edge"><title>Node54&#45;&gt;Node1</title>
<path fill="none" stroke="midnightblue" d="M129.946,-22.1878C137.412,-24.2609 144.943,-26.5457 152,-29 249.521,-62.916 275.071,-71.5381 364,-124 471.589,-187.47 587.058,-285.854 622.813,-317.114"/>
<polygon fill="midnightblue" stroke="midnightblue" points="130.778,-18.7875 120.213,-19.5881 128.971,-25.5504 130.778,-18.7875"/>
</g>
<!-- Node60 -->
<g id="node42" class="node"><title>Node60</title>
<g id="a_node42"><a xlink:href="class_t_m_c2209_stepper.html#a57eb34f291e73aef7d3de9f21239e3ac" target="_top" xlink:title=" ">
<polygon fill="white" stroke="black" points="18,-1274.5 18,-1293.5 134,-1293.5 134,-1274.5 18,-1274.5"/>
<text text-anchor="middle" x="76" y="-1281.5" font-family="Helvetica,sans-Serif" font-size="10.00">TMC2209Stepper::diag</text>
</a>
</g>
</g>
<!-- Node59&#45;&gt;Node60 -->
<g id="edge44" class="edge"><title>Node59&#45;&gt;Node60</title>
<path fill="none" stroke="midnightblue" d="M208.049,-1205.09C200.965,-1207.68 194.124,-1210.93 188,-1215 165.191,-1230.15 174.64,-1249.6 152,-1265 146.336,-1268.85 139.953,-1271.93 133.361,-1274.38"/>
<polygon fill="midnightblue" stroke="midnightblue" points="209.365,-1208.35 217.812,-1201.95 207.221,-1201.68 209.365,-1208.35"/>
</g>
<!-- Node61 -->
<g id="node43" class="node"><title>Node61</title>
<g id="a_node43"><a xlink:href="class_t_m_c2209_stepper.html#abfe7546eae0d8d3496de34589c43e166" target="_top" xlink:title=" ">
<polygon fill="white" stroke="black" points="22,-1350.5 22,-1369.5 130,-1369.5 130,-1350.5 22,-1350.5"/>
<text text-anchor="middle" x="76" y="-1357.5" font-family="Helvetica,sans-Serif" font-size="10.00">TMC2209Stepper::dir</text>
</a>
</g>
</g>
<!-- Node59&#45;&gt;Node61 -->
<g id="edge45" class="edge"><title>Node59&#45;&gt;Node61</title>
<path fill="none" stroke="midnightblue" d="M208.155,-1202.41C200.724,-1205.44 193.77,-1209.52 188,-1215 145.754,-1255.09 193.799,-1300.44 152,-1341 145.927,-1346.89 138.3,-1351.04 130.253,-1353.93"/>
<polygon fill="midnightblue" stroke="midnightblue" points="209.447,-1205.67 217.769,-1199.11 207.174,-1199.05 209.447,-1205.67"/>
</g>
<!-- Node62 -->
<g id="node44" class="node"><title>Node62</title>
<g id="a_node44"><a xlink:href="class_t_m_c2209_stepper.html#a15552d02544cc0df6b82317c937e4ea5" target="_top" xlink:title=" ">
<polygon fill="white" stroke="black" points="19.5,-1312.5 19.5,-1331.5 132.5,-1331.5 132.5,-1312.5 19.5,-1312.5"/>
<text text-anchor="middle" x="76" y="-1319.5" font-family="Helvetica,sans-Serif" font-size="10.00">TMC2209Stepper::enn</text>
</a>
</g>
</g>
<!-- Node59&#45;&gt;Node62 -->
<g id="edge46" class="edge"><title>Node59&#45;&gt;Node62</title>
<path fill="none" stroke="midnightblue" d="M208.406,-1203.15C200.996,-1206.07 193.98,-1209.92 188,-1215 155.795,-1242.36 183.9,-1275.29 152,-1303 146.423,-1307.85 139.781,-1311.49 132.788,-1314.21"/>
<polygon fill="midnightblue" stroke="midnightblue" points="209.59,-1206.45 217.954,-1199.95 207.36,-1199.81 209.59,-1206.45"/>
</g>
<!-- Node86&#45;&gt;Node18 -->
<g id="edge52" class="edge"><title>Node86&#45;&gt;Node18</title>
<path fill="none" stroke="midnightblue" d="M191.268,-828C172.551,-828 153.087,-828 135.64,-828"/>
<polygon fill="midnightblue" stroke="midnightblue" points="191.272,-831.5 201.272,-828 191.272,-824.5 191.272,-831.5"/>
</g>
<!-- Node86&#45;&gt;Node19 -->
<g id="edge53" class="edge"><title>Node86&#45;&gt;Node19</title>
<path fill="none" stroke="midnightblue" d="M215.134,-839.489C186.883,-844.911 153.564,-851.306 126.729,-856.456"/>
<polygon fill="midnightblue" stroke="midnightblue" points="216.131,-842.862 225.292,-837.54 214.811,-835.988 216.131,-842.862"/>
</g>
</g>
</svg>
        <g id="navigator" transform="translate(0 0)" fill="#404254">
                <rect fill="#f2f5e9" fill-opacity="0.5" stroke="#606060" stroke-width=".5" x="0" y="0" width="60" height="60"/>
                <use id="zoomplus" xlink:href="#zoomPlus" x="17" y="9" onmousedown="handleZoom(evt,'in')"/>
                <use id="zoomminus" xlink:href="#zoomMin" x="42" y="9" onmousedown="handleZoom(evt,'out')"/>
                <use id="reset" xlink:href="#resetDef" x="30" y="36" onmousedown="handleReset()"/>
                <g id="arrowUp" xlink:href="#dirArrow" transform="translate(30 24)" onmousedown="handlePan(0,-1)">
                  <use xlink:href="#rim" fill="#404040">
                        <set attributeName="fill" to="#808080" begin="arrowUp.mouseover" end="arrowUp.mouseout"/>
                  </use>
                  <path fill="none" stroke="white" stroke-width="1.5" d="M0,-3.0v7 M-2.5,-0.5L0,-3.0L2.5,-0.5"/>
                </g>
                <g id="arrowRight" xlink:href="#dirArrow" transform="rotate(90) translate(36 -43)" onmousedown="handlePan(1,0)">
                  <use xlink:href="#rim" fill="#404040">
                        <set attributeName="fill" to="#808080" begin="arrowRight.mouseover" end="arrowRight.mouseout"/>
                  </use>
                  <path fill="none" stroke="white" stroke-width="1.5" d="M0,-3.0v7 M-2.5,-0.5L0,-3.0L2.5,-0.5"/>
                </g>
                <g id="arrowDown" xlink:href="#dirArrow" transform="rotate(180) translate(-30 -48)" onmousedown="handlePan(0,1)">
                  <use xlink:href="#rim" fill="#404040">
                        <set attributeName="fill" to="#808080" begin="arrowDown.mouseover" end="arrowDown.mouseout"/>
                  </use>
                  <path fill="none" stroke="white" stroke-width="1.5" d="M0,-3.0v7 M-2.5,-0.5L0,-3.0L2.5,-0.5"/>
                </g>
                <g id="arrowLeft" xlink:href="#dirArrow" transform="rotate(270) translate(-36 17)" onmousedown="handlePan(-1,0)">
                  <use xlink:href="#rim" fill="#404040">
                        <set attributeName="fill" to="#808080" begin="arrowLeft.mouseover" end="arrowLeft.mouseout"/>
                  </use>
                  <path fill="none" stroke="white" stroke-width="1.5" d="M0,-3.0v7 M-2.5,-0.5L0,-3.0L2.5,-0.5"/>
                </g>
        </g>
        <svg viewBox="0 0 15 15" width="100%" height="30px" preserveAspectRatio="xMaxYMin meet">
         <g id="arrow_out" transform="scale(0.3 0.3)">
          <a xlink:href="class_t_m_c2208_stepper_a3e1f6a10aa1e3e41dc2594dbe1ea8a1d_icgraph_org.svg" target="_base">
           <rect id="button" ry="5" rx="5" y="6" x="6" height="38" width="38"
                fill="#f2f5e9" fill-opacity="0.5" stroke="#606060" stroke-width="1.0"/>
           <path id="arrow"
             d="M 11.500037,31.436501 C 11.940474,20.09759 22.043105,11.32322 32.158766,21.979434 L 37.068811,17.246167 C 37.068811,17.246167 37.088388,32 37.088388,32 L 22.160133,31.978069 C 22.160133,31.978069 26.997745,27.140456 26.997745,27.140456 C 18.528582,18.264221 13.291696,25.230495 11.500037,31.436501 z"
             style="fill:#404040;"/>
          </a>
         </g>
        </svg>
</svg>
