<?xml version="1.0" encoding="UTF-8" standalone="no"?>
<!DOCTYPE svg PUBLIC "-//W3C//DTD SVG 1.1//EN"
 "http://www.w3.org/Graphics/SVG/1.1/DTD/svg11.dtd">
<!-- Generated by graphviz version 2.38.0 (20140413.2041)
 -->
<!-- Title: TMC2224Stepper Pages: 1 -->
<svg width="150pt" height="152pt"
 viewBox="0.00 0.00 150.00 152.00" xmlns="http://www.w3.org/2000/svg" xmlns:xlink="http://www.w3.org/1999/xlink">
<g id="graph0" class="graph" transform="scale(1 1) rotate(0) translate(4 148)">
<title>TMC2224Stepper</title>
<polygon fill="white" stroke="none" points="-4,4 -4,-148 146,-148 146,4 -4,4"/>
<!-- Node1 -->
<g id="node1" class="node"><title>Node1</title>
<g id="a_node1"><a xlink:title=" ">
<polygon fill="#bfbfbf" stroke="black" points="29.5,-0.5 29.5,-19.5 121.5,-19.5 121.5,-0.5 29.5,-0.5"/>
<text text-anchor="middle" x="75.5" y="-7.5" font-family="Helvetica,sans-Serif" font-size="10.00">TMC2224Stepper</text>
</a>
</g>
</g>
<!-- Node2 -->
<g id="node2" class="node"><title>Node2</title>
<g id="a_node2"><a xlink:href="class_t_m_c2208_stepper.html" target="_top" xlink:title=" ">
<polygon fill="white" stroke="black" points="29.5,-57.5 29.5,-76.5 121.5,-76.5 121.5,-57.5 29.5,-57.5"/>
<text text-anchor="middle" x="75.5" y="-64.5" font-family="Helvetica,sans-Serif" font-size="10.00">TMC2208Stepper</text>
</a>
</g>
</g>
<!-- Node2&#45;&gt;Node1 -->
<g id="edge1" class="edge"><title>Node2&#45;&gt;Node1</title>
<path fill="none" stroke="midnightblue" d="M75.5,-47.1166C75.5,-37.8173 75.5,-27.0557 75.5,-19.7149"/>
<polygon fill="midnightblue" stroke="midnightblue" points="72.0001,-47.4062 75.5,-57.4063 79.0001,-47.4063 72.0001,-47.4062"/>
</g>
<!-- Node3 -->
<g id="node3" class="node"><title>Node3</title>
<g id="a_node3"><a xlink:href="class_t_m_c_stepper.html" target="_top" xlink:title=" ">
<polygon fill="white" stroke="black" points="0,-124.5 0,-143.5 71,-143.5 71,-124.5 0,-124.5"/>
<text text-anchor="middle" x="35.5" y="-131.5" font-family="Helvetica,sans-Serif" font-size="10.00">TMCStepper</text>
</a>
</g>
</g>
<!-- Node3&#45;&gt;Node2 -->
<g id="edge2" class="edge"><title>Node3&#45;&gt;Node2</title>
<path fill="none" stroke="midnightblue" d="M46.2479,-115.535C53.9924,-102.95 64.1109,-86.5072 70.1909,-76.6273"/>
<polygon fill="midnightblue" stroke="midnightblue" points="43.1548,-113.883 40.8946,-124.234 49.1164,-117.552 43.1548,-113.883"/>
</g>
<!-- Node4 -->
<g id="node4" class="node"><title>Node4</title>
<g id="a_node4"><a xlink:href="class_s_switch.html" target="_top" xlink:title=" ">
<polygon fill="white" stroke="black" points="89,-124.5 89,-143.5 142,-143.5 142,-124.5 89,-124.5"/>
<text text-anchor="middle" x="115.5" y="-131.5" font-family="Helvetica,sans-Serif" font-size="10.00">SSwitch</text>
</a>
</g>
</g>
<!-- Node4&#45;&gt;Node2 -->
<g id="edge3" class="edge"><title>Node4&#45;&gt;Node2</title>
<path fill="none" stroke="#9a32cd" stroke-dasharray="5,2" d="M104.752,-115.535C97.0076,-102.95 86.8891,-86.5072 80.8091,-76.6273"/>
<polygon fill="#9a32cd" stroke="#9a32cd" points="101.884,-117.552 110.105,-124.234 107.845,-113.883 101.884,-117.552"/>
<text text-anchor="middle" x="116" y="-98" font-family="Helvetica,sans-Serif" font-size="10.00"> sswitch</text>
</g>
</g>
</svg>
