<?xml version="1.0" encoding="UTF-8" standalone="no"?>
<!DOCTYPE svg PUBLIC "-//W3C//DTD SVG 1.1//EN"
 "http://www.w3.org/Graphics/SVG/1.1/DTD/svg11.dtd">
<!-- Generated by graphviz version 2.38.0 (20140413.2041)
 -->
<!-- Title: TMC2208Stepper::mstep_reg_select Pages: 1 -->
<svg width="988pt" height="156pt"
 viewBox="0.00 0.00 988.00 156.41" xmlns="http://www.w3.org/2000/svg" xmlns:xlink="http://www.w3.org/1999/xlink">
<g id="graph0" class="graph" transform="scale(1 1) rotate(0) translate(4 152.405)">
<title>TMC2208Stepper::mstep_reg_select</title>
<polygon fill="white" stroke="none" points="-4,4 -4,-152.405 984,-152.405 984,4 -4,4"/>
<!-- Node1 -->
<g id="node1" class="node"><title>Node1</title>
<g id="a_node1"><a xlink:title=" ">
<polygon fill="#bfbfbf" stroke="black" points="0,-41.4052 0,-71.4052 125,-71.4052 125,-41.4052 0,-41.4052"/>
<text text-anchor="start" x="8" y="-59.4052" font-family="Helvetica,sans-Serif" font-size="10.00">TMC2208Stepper::mstep</text>
<text text-anchor="middle" x="62.5" y="-48.4052" font-family="Helvetica,sans-Serif" font-size="10.00">_reg_select</text>
</a>
</g>
</g>
<!-- Node2 -->
<g id="node2" class="node"><title>Node2</title>
<g id="a_node2"><a xlink:href="class_t_m_c2208_stepper.html#a549db4f962d4ae698dda33ef9a708e33" target="_top" xlink:title=" ">
<polygon fill="white" stroke="black" points="161,-46.9052 161,-65.9052 293,-65.9052 293,-46.9052 161,-46.9052"/>
<text text-anchor="middle" x="227" y="-53.9052" font-family="Helvetica,sans-Serif" font-size="10.00">TMC2208Stepper::GCONF</text>
</a>
</g>
</g>
<!-- Node1&#45;&gt;Node2 -->
<g id="edge1" class="edge"><title>Node1&#45;&gt;Node2</title>
<path fill="none" stroke="midnightblue" d="M125.398,-56.4052C133.624,-56.4052 142.13,-56.4052 150.553,-56.4052"/>
<polygon fill="midnightblue" stroke="midnightblue" points="150.762,-59.9053 160.762,-56.4052 150.762,-52.9053 150.762,-59.9053"/>
</g>
<!-- Node3 -->
<g id="node3" class="node"><title>Node3</title>
<g id="a_node3"><a xlink:href="class_t_m_c2208_stepper.html#a2fae2050849c3ab7968012def8ea1cc5" target="_top" xlink:title=" ">
<polygon fill="white" stroke="black" points="329,-46.9052 329,-65.9052 445,-65.9052 445,-46.9052 329,-46.9052"/>
<text text-anchor="middle" x="387" y="-53.9052" font-family="Helvetica,sans-Serif" font-size="10.00">TMC2208Stepper::read</text>
</a>
</g>
</g>
<!-- Node2&#45;&gt;Node3 -->
<g id="edge2" class="edge"><title>Node2&#45;&gt;Node3</title>
<path fill="none" stroke="midnightblue" d="M293.177,-56.4052C301.517,-56.4052 310.069,-56.4052 318.445,-56.4052"/>
<polygon fill="midnightblue" stroke="midnightblue" points="318.55,-59.9053 328.55,-56.4052 318.55,-52.9053 318.55,-59.9053"/>
</g>
<!-- Node4 -->
<g id="node4" class="node"><title>Node4</title>
<g id="a_node4"><a xlink:href="class_t_m_c2208_stepper.html#a3e1f6a10aa1e3e41dc2594dbe1ea8a1d" target="_top" xlink:title=" ">
<polygon fill="white" stroke="black" points="481,-103.905 481,-122.905 647,-122.905 647,-103.905 481,-103.905"/>
<text text-anchor="middle" x="564" y="-110.905" font-family="Helvetica,sans-Serif" font-size="10.00">TMC2208Stepper::_sendDatagram</text>
</a>
</g>
</g>
<!-- Node3&#45;&gt;Node4 -->
<g id="edge3" class="edge"><title>Node3&#45;&gt;Node4</title>
<path fill="none" stroke="midnightblue" d="M408.7,-65.9833C427.317,-74.3262 455.568,-86.3205 481,-94.4052 489.008,-96.9508 497.555,-99.3114 505.996,-101.442"/>
<polygon fill="midnightblue" stroke="midnightblue" points="505.272,-104.868 515.816,-103.834 506.929,-98.0666 505.272,-104.868"/>
</g>
<!-- Node9 -->
<g id="node9" class="node"><title>Node9</title>
<g id="a_node9"><a xlink:href="class_s_switch.html#a6ff09d0850d551571dc333fb74ff8628" target="_top" xlink:title=" ">
<polygon fill="white" stroke="black" points="522.5,-65.9052 522.5,-84.9052 605.5,-84.9052 605.5,-65.9052 522.5,-65.9052"/>
<text text-anchor="middle" x="564" y="-72.9052" font-family="Helvetica,sans-Serif" font-size="10.00">SSwitch::active</text>
</a>
</g>
</g>
<!-- Node3&#45;&gt;Node9 -->
<g id="edge9" class="edge"><title>Node3&#45;&gt;Node9</title>
<path fill="none" stroke="midnightblue" d="M445.302,-62.6265C466.975,-64.9796 491.465,-67.6385 512.472,-69.9193"/>
<polygon fill="midnightblue" stroke="midnightblue" points="512.158,-73.4056 522.477,-71.0055 512.913,-66.4465 512.158,-73.4056"/>
</g>
<!-- Node10 -->
<g id="node10" class="node"><title>Node10</title>
<g id="a_node10"><a xlink:href="class_t_m_c2208_stepper.html#a409c19fa6b052a370a317d061bf9af4e" target="_top" xlink:title=" ">
<polygon fill="white" stroke="black" points="496,-27.9052 496,-46.9052 632,-46.9052 632,-27.9052 496,-27.9052"/>
<text text-anchor="middle" x="564" y="-34.9052" font-family="Helvetica,sans-Serif" font-size="10.00">TMC2208Stepper::calcCRC</text>
</a>
</g>
</g>
<!-- Node3&#45;&gt;Node10 -->
<g id="edge10" class="edge"><title>Node3&#45;&gt;Node10</title>
<path fill="none" stroke="midnightblue" d="M445.302,-50.1839C458.17,-48.7867 472.032,-47.2817 485.567,-45.8121"/>
<polygon fill="midnightblue" stroke="midnightblue" points="486.269,-49.2566 495.833,-44.6976 485.514,-42.2975 486.269,-49.2566"/>
</g>
<!-- Node5 -->
<g id="node5" class="node"><title>Node5</title>
<g id="a_node5"><a xlink:href="class_t_m_c2208_stepper.html#a4ec5d2b2f5a31259c7aba1f3208d63b8" target="_top" xlink:title=" ">
<polygon fill="white" stroke="black" points="697.5,-128.905 697.5,-147.905 813.5,-147.905 813.5,-128.905 697.5,-128.905"/>
<text text-anchor="middle" x="755.5" y="-135.905" font-family="Helvetica,sans-Serif" font-size="10.00">TMC2208Stepper::ms2</text>
</a>
</g>
</g>
<!-- Node4&#45;&gt;Node5 -->
<g id="edge4" class="edge"><title>Node4&#45;&gt;Node5</title>
<path fill="none" stroke="midnightblue" d="M637.182,-122.928C653.64,-125.099 671.062,-127.397 687.301,-129.54"/>
<polygon fill="midnightblue" stroke="midnightblue" points="686.868,-133.013 697.24,-130.851 687.784,-126.073 686.868,-133.013"/>
</g>
<!-- Node7 -->
<g id="node7" class="node"><title>Node7</title>
<g id="a_node7"><a xlink:href="class_t_m_c2208_stepper.html#ae561da4ec7c40830e97bf4dc8cf700fb" target="_top" xlink:title=" ">
<polygon fill="white" stroke="black" points="683,-90.9052 683,-109.905 828,-109.905 828,-90.9052 683,-90.9052"/>
<text text-anchor="middle" x="755.5" y="-97.9052" font-family="Helvetica,sans-Serif" font-size="10.00">TMC2208Stepper::serial_read</text>
</a>
</g>
</g>
<!-- Node4&#45;&gt;Node7 -->
<g id="edge7" class="edge"><title>Node4&#45;&gt;Node7</title>
<path fill="none" stroke="midnightblue" d="M647.015,-107.779C655.478,-107.198 664.078,-106.608 672.54,-106.028"/>
<polygon fill="midnightblue" stroke="midnightblue" points="673.038,-109.502 682.775,-105.326 672.559,-102.518 673.038,-109.502"/>
</g>
<!-- Node8 -->
<g id="node8" class="node"><title>Node8</title>
<g id="a_node8"><a xlink:href="class_t_m_c2208_stepper.html#a7dd83313385079099b0622957786a979" target="_top" xlink:title=" ">
<polygon fill="white" stroke="black" points="695,-41.4052 695,-71.4052 816,-71.4052 816,-41.4052 695,-41.4052"/>
<text text-anchor="start" x="703" y="-59.4052" font-family="Helvetica,sans-Serif" font-size="10.00">TMC2208Stepper::serial</text>
<text text-anchor="middle" x="755.5" y="-48.4052" font-family="Helvetica,sans-Serif" font-size="10.00">_write</text>
</a>
</g>
</g>
<!-- Node4&#45;&gt;Node8 -->
<g id="edge8" class="edge"><title>Node4&#45;&gt;Node8</title>
<path fill="none" stroke="midnightblue" d="M610.793,-103.808C622.658,-101.045 635.367,-97.8399 647,-94.4052 663.315,-89.5878 666.971,-87.1015 683,-81.4052 689.017,-79.2668 695.325,-77.0401 701.595,-74.8355"/>
<polygon fill="midnightblue" stroke="midnightblue" points="703.095,-78.0185 711.372,-71.4052 700.778,-71.4133 703.095,-78.0185"/>
</g>
<!-- Node6 -->
<g id="node6" class="node"><title>Node6</title>
<g id="a_node6"><a xlink:href="class_t_m_c2208_stepper.html#a5441dd87d0bcea4ffc309cb012166a57" target="_top" xlink:title=" ">
<polygon fill="white" stroke="black" points="864,-58.9052 864,-77.9052 980,-77.9052 980,-58.9052 864,-58.9052"/>
<text text-anchor="middle" x="922" y="-65.9052" font-family="Helvetica,sans-Serif" font-size="10.00">TMC2208Stepper::IOIN</text>
</a>
</g>
</g>
<!-- Node5&#45;&gt;Node6 -->
<g id="edge5" class="edge"><title>Node5&#45;&gt;Node6</title>
<path fill="none" stroke="midnightblue" d="M799.395,-128.814C808.954,-126.18 818.937,-123.032 828,-119.405 852.717,-109.514 879.177,-94.529 897.529,-83.3584"/>
<polygon fill="midnightblue" stroke="midnightblue" points="899.423,-86.3019 906.088,-78.0661 895.742,-80.348 899.423,-86.3019"/>
</g>
<!-- Node6&#45;&gt;Node3 -->
<g id="edge6" class="edge"><title>Node6&#45;&gt;Node3</title>
<path fill="none" stroke="midnightblue" d="M901.963,-58.8176C883.546,-50.0326 854.593,-37.4965 828,-31.4052 677.566,3.05335 632.437,11.3399 481,-18.4052 457.751,-22.9717 432.989,-33.3919 414.866,-42.1675"/>
<polygon fill="midnightblue" stroke="midnightblue" points="412.917,-39.2285 405.532,-46.826 416.043,-45.4917 412.917,-39.2285"/>
</g>
</g>
</svg>
