<?xml version="1.0" encoding="UTF-8" standalone="no"?>
<!DOCTYPE svg PUBLIC "-//W3C//DTD SVG 1.1//EN"
 "http://www.w3.org/Graphics/SVG/1.1/DTD/svg11.dtd">
<!-- Generated by graphviz version 2.38.0 (20140413.2041)
 -->
<!-- Title: TMC2208Stepper::sel_a Pages: 1 -->
<svg width="816pt" height="140pt"
 viewBox="0.00 0.00 816.00 139.53" xmlns="http://www.w3.org/2000/svg" xmlns:xlink="http://www.w3.org/1999/xlink">
<g id="graph0" class="graph" transform="scale(1 1) rotate(0) translate(4 135.532)">
<title>TMC2208Stepper::sel_a</title>
<polygon fill="white" stroke="none" points="-4,4 -4,-135.532 812,-135.532 812,4 -4,4"/>
<!-- Node1 -->
<g id="node1" class="node"><title>Node1</title>
<g id="a_node1"><a xlink:title=" ">
<polygon fill="#bfbfbf" stroke="black" points="0,-4.03223 0,-23.0322 121,-23.0322 121,-4.03223 0,-4.03223"/>
<text text-anchor="middle" x="60.5" y="-11.0322" font-family="Helvetica,sans-Serif" font-size="10.00">TMC2208Stepper::sel_a</text>
</a>
</g>
</g>
<!-- Node2 -->
<g id="node2" class="node"><title>Node2</title>
<g id="a_node2"><a xlink:href="class_t_m_c2208_stepper.html#a5441dd87d0bcea4ffc309cb012166a57" target="_top" xlink:title=" ">
<polygon fill="white" stroke="black" points="157,-4.03223 157,-23.0322 273,-23.0322 273,-4.03223 157,-4.03223"/>
<text text-anchor="middle" x="215" y="-11.0322" font-family="Helvetica,sans-Serif" font-size="10.00">TMC2208Stepper::IOIN</text>
</a>
</g>
</g>
<!-- Node1&#45;&gt;Node2 -->
<g id="edge1" class="edge"><title>Node1&#45;&gt;Node2</title>
<path fill="none" stroke="midnightblue" d="M121.334,-13.5322C129.64,-13.5322 138.218,-13.5322 146.649,-13.5322"/>
<polygon fill="midnightblue" stroke="midnightblue" points="146.832,-17.0323 156.832,-13.5322 146.832,-10.0323 146.832,-17.0323"/>
</g>
<!-- Node3 -->
<g id="node3" class="node"><title>Node3</title>
<g id="a_node3"><a xlink:href="class_t_m_c2208_stepper.html#a2fae2050849c3ab7968012def8ea1cc5" target="_top" xlink:title=" ">
<polygon fill="white" stroke="black" points="309,-33.0322 309,-52.0322 425,-52.0322 425,-33.0322 309,-33.0322"/>
<text text-anchor="middle" x="367" y="-40.0322" font-family="Helvetica,sans-Serif" font-size="10.00">TMC2208Stepper::read</text>
</a>
</g>
</g>
<!-- Node2&#45;&gt;Node3 -->
<g id="edge2" class="edge"><title>Node2&#45;&gt;Node3</title>
<path fill="none" stroke="midnightblue" d="M265.531,-23.1083C278.784,-25.6705 293.241,-28.4655 306.952,-31.1163"/>
<polygon fill="midnightblue" stroke="midnightblue" points="306.294,-34.5538 316.776,-33.0157 307.623,-27.681 306.294,-34.5538"/>
</g>
<!-- Node4 -->
<g id="node4" class="node"><title>Node4</title>
<g id="a_node4"><a xlink:href="class_t_m_c2208_stepper.html#a3e1f6a10aa1e3e41dc2594dbe1ea8a1d" target="_top" xlink:title=" ">
<polygon fill="white" stroke="black" points="461,-90.0322 461,-109.032 627,-109.032 627,-90.0322 461,-90.0322"/>
<text text-anchor="middle" x="544" y="-97.0322" font-family="Helvetica,sans-Serif" font-size="10.00">TMC2208Stepper::_sendDatagram</text>
</a>
</g>
</g>
<!-- Node3&#45;&gt;Node4 -->
<g id="edge3" class="edge"><title>Node3&#45;&gt;Node4</title>
<path fill="none" stroke="midnightblue" d="M388.7,-52.1104C407.317,-60.4533 435.568,-72.4476 461,-80.5322 469.008,-83.0779 477.555,-85.4385 485.996,-87.5688"/>
<polygon fill="midnightblue" stroke="midnightblue" points="485.272,-90.9948 495.816,-89.9611 486.929,-84.1937 485.272,-90.9948"/>
</g>
<!-- Node8 -->
<g id="node8" class="node"><title>Node8</title>
<g id="a_node8"><a xlink:href="class_s_switch.html#a6ff09d0850d551571dc333fb74ff8628" target="_top" xlink:title=" ">
<polygon fill="white" stroke="black" points="502.5,-52.0322 502.5,-71.0322 585.5,-71.0322 585.5,-52.0322 502.5,-52.0322"/>
<text text-anchor="middle" x="544" y="-59.0322" font-family="Helvetica,sans-Serif" font-size="10.00">SSwitch::active</text>
</a>
</g>
</g>
<!-- Node3&#45;&gt;Node8 -->
<g id="edge8" class="edge"><title>Node3&#45;&gt;Node8</title>
<path fill="none" stroke="midnightblue" d="M425.302,-48.7535C446.975,-51.1066 471.465,-53.7656 492.472,-56.0463"/>
<polygon fill="midnightblue" stroke="midnightblue" points="492.158,-59.5327 502.477,-57.1326 492.913,-52.5736 492.158,-59.5327"/>
</g>
<!-- Node9 -->
<g id="node9" class="node"><title>Node9</title>
<g id="a_node9"><a xlink:href="class_t_m_c2208_stepper.html#a409c19fa6b052a370a317d061bf9af4e" target="_top" xlink:title=" ">
<polygon fill="white" stroke="black" points="476,-14.0322 476,-33.0322 612,-33.0322 612,-14.0322 476,-14.0322"/>
<text text-anchor="middle" x="544" y="-21.0322" font-family="Helvetica,sans-Serif" font-size="10.00">TMC2208Stepper::calcCRC</text>
</a>
</g>
</g>
<!-- Node3&#45;&gt;Node9 -->
<g id="edge9" class="edge"><title>Node3&#45;&gt;Node9</title>
<path fill="none" stroke="midnightblue" d="M425.302,-36.3109C438.17,-34.9138 452.032,-33.4088 465.567,-31.9392"/>
<polygon fill="midnightblue" stroke="midnightblue" points="466.269,-35.3836 475.833,-30.8246 465.514,-28.4245 466.269,-35.3836"/>
</g>
<!-- Node5 -->
<g id="node5" class="node"><title>Node5</title>
<g id="a_node5"><a xlink:href="class_t_m_c2208_stepper.html#a4ec5d2b2f5a31259c7aba1f3208d63b8" target="_top" xlink:title=" ">
<polygon fill="white" stroke="black" points="677.5,-11.0322 677.5,-30.0322 793.5,-30.0322 793.5,-11.0322 677.5,-11.0322"/>
<text text-anchor="middle" x="735.5" y="-18.0322" font-family="Helvetica,sans-Serif" font-size="10.00">TMC2208Stepper::ms2</text>
</a>
</g>
</g>
<!-- Node4&#45;&gt;Node5 -->
<g id="edge4" class="edge"><title>Node4&#45;&gt;Node5</title>
<path fill="none" stroke="midnightblue" d="M601.242,-89.9247C610.083,-87.4489 618.952,-84.3643 627,-80.5322 645.301,-71.8185 645.624,-62.9698 663,-52.5322 674.591,-45.5698 687.963,-39.1888 699.984,-33.9877"/>
<polygon fill="midnightblue" stroke="midnightblue" points="701.414,-37.1834 709.276,-30.081 698.701,-30.7305 701.414,-37.1834"/>
</g>
<!-- Node6 -->
<g id="node6" class="node"><title>Node6</title>
<g id="a_node6"><a xlink:href="class_t_m_c2208_stepper.html#ae561da4ec7c40830e97bf4dc8cf700fb" target="_top" xlink:title=" ">
<polygon fill="white" stroke="black" points="663,-112.032 663,-131.032 808,-131.032 808,-112.032 663,-112.032"/>
<text text-anchor="middle" x="735.5" y="-119.032" font-family="Helvetica,sans-Serif" font-size="10.00">TMC2208Stepper::serial_read</text>
</a>
</g>
</g>
<!-- Node4&#45;&gt;Node6 -->
<g id="edge6" class="edge"><title>Node4&#45;&gt;Node6</title>
<path fill="none" stroke="midnightblue" d="M627.015,-109.054C635.571,-110.047 644.268,-111.057 652.819,-112.05"/>
<polygon fill="midnightblue" stroke="midnightblue" points="652.438,-115.529 662.775,-113.205 653.245,-108.575 652.438,-115.529"/>
</g>
<!-- Node7 -->
<g id="node7" class="node"><title>Node7</title>
<g id="a_node7"><a xlink:href="class_t_m_c2208_stepper.html#a7dd83313385079099b0622957786a979" target="_top" xlink:title=" ">
<polygon fill="white" stroke="black" points="675,-62.5322 675,-92.5322 796,-92.5322 796,-62.5322 675,-62.5322"/>
<text text-anchor="start" x="683" y="-80.5322" font-family="Helvetica,sans-Serif" font-size="10.00">TMC2208Stepper::serial</text>
<text text-anchor="middle" x="735.5" y="-69.5322" font-family="Helvetica,sans-Serif" font-size="10.00">_write</text>
</a>
</g>
</g>
<!-- Node4&#45;&gt;Node7 -->
<g id="edge7" class="edge"><title>Node4&#45;&gt;Node7</title>
<path fill="none" stroke="midnightblue" d="M627.015,-90.0107C639.597,-88.55 652.484,-87.0539 664.767,-85.6279"/>
<polygon fill="midnightblue" stroke="midnightblue" points="665.392,-89.0789 674.922,-84.4489 664.585,-82.1256 665.392,-89.0789"/>
</g>
<!-- Node5&#45;&gt;Node2 -->
<g id="edge5" class="edge"><title>Node5&#45;&gt;Node2</title>
<path fill="none" stroke="midnightblue" d="M681.088,-10.9924C663.881,-8.34632 644.688,-5.84135 627,-4.53223 506.185,4.40943 364.893,-2.4631 283.393,-8.10973"/>
<polygon fill="midnightblue" stroke="midnightblue" points="282.998,-4.62883 273.27,-8.82619 283.492,-11.6114 282.998,-4.62883"/>
</g>
</g>
</svg>
