<?xml version="1.0" encoding="UTF-8" standalone="no"?>
<!DOCTYPE svg PUBLIC "-//W3C//DTD SVG 1.1//EN"
 "http://www.w3.org/Graphics/SVG/1.1/DTD/svg11.dtd">
<!-- Generated by graphviz version 2.38.0 (20140413.2041)
 -->
<!-- Title: TMC2208Stepper::CHOPCONF Pages: 1 -->
<!--zoomable 474 -->
<svg id="main" version="1.1" xmlns="http://www.w3.org/2000/svg" xmlns:xlink="http://www.w3.org/1999/xlink" xml:space="preserve" onload="init(evt)">
<style type="text/css"><![CDATA[
.edge:hover path { stroke: red; }
.edge:hover polygon { stroke: red; fill: red; }
]]></style>
<script type="text/javascript"><![CDATA[
var edges = document.getElementsByTagName('g');
if (edges && edges.length) {
  for (var i=0;i<edges.length;i++) {
    if (edges[i].id.substr(0,4)=='edge') {
      edges[i].setAttribute('class','edge');
    }
  }
}
]]></script>
        <defs>
                <circle id="rim" cx="0" cy="0" r="7"/>
                <circle id="rim2" cx="0" cy="0" r="3.5"/>
                <g id="zoomPlus">
                        <use xlink:href="#rim" fill="#404040">
                                <set attributeName="fill" to="#808080" begin="zoomplus.mouseover" end="zoomplus.mouseout"/>
                        </use>
                        <path d="M-4,0h8M0,-4v8" fill="none" stroke="white" stroke-width="1.5" pointer-events="none"/>
                </g>
                <g id="zoomMin">
                        <use xlink:href="#rim" fill="#404040">
                                <set attributeName="fill" to="#808080" begin="zoomminus.mouseover" end="zoomminus.mouseout"/>
                        </use>
                        <path d="M-4,0h8" fill="none" stroke="white" stroke-width="1.5" pointer-events="none"/>
                </g>
                <g id="dirArrow">
                        <path fill="none" stroke="white" stroke-width="1.5" d="M0,-3.0v7 M-2.5,-0.5L0,-3.0L2.5,-0.5"/>
                </g>
               <g id="resetDef">
                       <use xlink:href="#rim2" fill="#404040">
                               <set attributeName="fill" to="#808080" begin="reset.mouseover" end="reset.mouseout"/>
                       </use>
               </g>
        </defs>

<script type="text/javascript">
var viewWidth = 502;
var viewHeight = 474;
var sectionId = 'dynsection-9';
</script>
<script xlink:href="svgpan.js"/>
<svg id="graph" class="graph">
<g id="viewport">
<title>TMC2208Stepper::CHOPCONF</title>
<polygon fill="white" stroke="none" points="-4,4 -4,-470 498,-470 498,4 -4,4"/>
<!-- Node1 -->
<g id="node1" class="node"><title>Node1</title>
<g id="a_node1"><a xlink:title=" ">
<polygon fill="#bfbfbf" stroke="black" points="342,-237.5 342,-256.5 494,-256.5 494,-237.5 342,-237.5"/>
<text text-anchor="middle" x="418" y="-244.5" font-family="Helvetica,sans-Serif" font-size="10.00">TMC2208Stepper::CHOPCONF</text>
</a>
</g>
</g>
<!-- Node2 -->
<g id="node2" class="node"><title>Node2</title>
<g id="a_node2"><a xlink:href="class_t_m_c2208_stepper.html#a5b614f72c27fa1b7ff1c08fe07b17582" target="_top" xlink:title=" ">
<polygon fill="white" stroke="black" points="179,-446.5 179,-465.5 303,-465.5 303,-446.5 179,-446.5"/>
<text text-anchor="middle" x="241" y="-453.5" font-family="Helvetica,sans-Serif" font-size="10.00">TMC2208Stepper::dedge</text>
</a>
</g>
</g>
<!-- Node1&#45;&gt;Node2 -->
<g id="edge1" class="edge"><title>Node1&#45;&gt;Node2</title>
<path fill="none" stroke="midnightblue" d="M411.035,-266.523C398.255,-305.043 364.538,-391.066 306,-437 301.076,-440.864 295.382,-443.943 289.461,-446.396"/>
<polygon fill="midnightblue" stroke="midnightblue" points="414.499,-267.18 414.211,-256.589 407.832,-265.048 414.499,-267.18"/>
</g>
<!-- Node4 -->
<g id="node4" class="node"><title>Node4</title>
<g id="a_node4"><a xlink:href="class_t_m_c2208_stepper.html#a810f59828ccf8b0f55c7274b21ea0255" target="_top" xlink:title=" ">
<polygon fill="white" stroke="black" points="178,-408.5 178,-427.5 304,-427.5 304,-408.5 178,-408.5"/>
<text text-anchor="middle" x="241" y="-415.5" font-family="Helvetica,sans-Serif" font-size="10.00">TMC2208Stepper::diss2g</text>
</a>
</g>
</g>
<!-- Node1&#45;&gt;Node4 -->
<g id="edge3" class="edge"><title>Node1&#45;&gt;Node4</title>
<path fill="none" stroke="midnightblue" d="M408.439,-265.679C392.759,-297.804 356.357,-363.48 306,-399 300.507,-402.875 294.217,-405.969 287.775,-408.438"/>
<polygon fill="midnightblue" stroke="midnightblue" points="411.665,-267.043 412.793,-256.508 405.342,-264.041 411.665,-267.043"/>
</g>
<!-- Node6 -->
<g id="node6" class="node"><title>Node6</title>
<g id="a_node6"><a xlink:href="class_t_m_c2208_stepper.html#afc70b23b3486ae3ea3a3dfa804441148" target="_top" xlink:title=" ">
<polygon fill="white" stroke="black" points="176,-370.5 176,-389.5 306,-389.5 306,-370.5 176,-370.5"/>
<text text-anchor="middle" x="241" y="-377.5" font-family="Helvetica,sans-Serif" font-size="10.00">TMC2208Stepper::diss2vs</text>
</a>
</g>
</g>
<!-- Node1&#45;&gt;Node6 -->
<g id="edge5" class="edge"><title>Node1&#45;&gt;Node6</title>
<path fill="none" stroke="midnightblue" d="M404.405,-264.788C385.732,-289.87 348.321,-335.42 306,-361 299.652,-364.837 292.477,-367.943 285.287,-370.444"/>
<polygon fill="midnightblue" stroke="midnightblue" points="407.349,-266.691 410.411,-256.548 401.692,-262.567 407.349,-266.691"/>
</g>
<!-- Node8 -->
<g id="node8" class="node"><title>Node8</title>
<g id="a_node8"><a xlink:href="class_t_m_c2208_stepper.html#a2f36996a01d99a96f40d179931eb606a" target="_top" xlink:title=" ">
<polygon fill="white" stroke="black" points="181.5,-332.5 181.5,-351.5 300.5,-351.5 300.5,-332.5 181.5,-332.5"/>
<text text-anchor="middle" x="241" y="-339.5" font-family="Helvetica,sans-Serif" font-size="10.00">TMC2208Stepper::hend</text>
</a>
</g>
</g>
<!-- Node1&#45;&gt;Node8 -->
<g id="edge7" class="edge"><title>Node1&#45;&gt;Node8</title>
<path fill="none" stroke="midnightblue" d="M397.491,-263.173C376.181,-280.142 340.47,-306.583 306,-323 298.256,-326.688 289.642,-329.831 281.307,-332.437"/>
<polygon fill="midnightblue" stroke="midnightblue" points="399.861,-265.758 405.438,-256.75 395.461,-260.314 399.861,-265.758"/>
</g>
<!-- Node10 -->
<g id="node10" class="node"><title>Node10</title>
<g id="a_node10"><a xlink:href="class_t_m_c2208_stepper.html#ae86e87a3b5882ac40c6f21348c6793ed" target="_top" xlink:title=" ">
<polygon fill="white" stroke="black" points="182.5,-294.5 182.5,-313.5 299.5,-313.5 299.5,-294.5 182.5,-294.5"/>
<text text-anchor="middle" x="241" y="-301.5" font-family="Helvetica,sans-Serif" font-size="10.00">TMC2208Stepper::hstrt</text>
</a>
</g>
</g>
<!-- Node1&#45;&gt;Node10 -->
<g id="edge9" class="edge"><title>Node1&#45;&gt;Node10</title>
<path fill="none" stroke="midnightblue" d="M380.736,-259.837C359.111,-267.386 331.071,-276.991 306,-285 295.953,-288.21 284.962,-291.538 274.967,-294.496"/>
<polygon fill="midnightblue" stroke="midnightblue" points="381.907,-263.135 390.187,-256.526 379.592,-256.529 381.907,-263.135"/>
</g>
<!-- Node12 -->
<g id="node12" class="node"><title>Node12</title>
<g id="a_node12"><a xlink:href="class_t_m_c2208_stepper.html#a787cbae9adfab6f79a873310c472e7cd" target="_top" xlink:title=" ">
<polygon fill="white" stroke="black" points="180.5,-256.5 180.5,-275.5 301.5,-275.5 301.5,-256.5 180.5,-256.5"/>
<text text-anchor="middle" x="241" y="-263.5" font-family="Helvetica,sans-Serif" font-size="10.00">TMC2208Stepper::intpol</text>
</a>
</g>
</g>
<!-- Node1&#45;&gt;Node12 -->
<g id="edge11" class="edge"><title>Node1&#45;&gt;Node12</title>
<path fill="none" stroke="midnightblue" d="M331.641,-256.268C321.48,-257.371 311.28,-258.478 301.59,-259.53"/>
<polygon fill="midnightblue" stroke="midnightblue" points="332.205,-259.727 341.769,-255.168 331.449,-252.768 332.205,-259.727"/>
</g>
<!-- Node14 -->
<g id="node14" class="node"><title>Node14</title>
<g id="a_node14"><a xlink:href="class_t_m_c2208_stepper.html#a445b61c23afadb9bd48c3f4d9ef9125e" target="_top" xlink:title=" ">
<polygon fill="white" stroke="black" points="181.5,-218.5 181.5,-237.5 300.5,-237.5 300.5,-218.5 181.5,-218.5"/>
<text text-anchor="middle" x="241" y="-225.5" font-family="Helvetica,sans-Serif" font-size="10.00">TMC2208Stepper::mres</text>
</a>
</g>
</g>
<!-- Node1&#45;&gt;Node14 -->
<g id="edge13" class="edge"><title>Node1&#45;&gt;Node14</title>
<path fill="none" stroke="midnightblue" d="M331.687,-237.737C321.137,-236.592 310.544,-235.442 300.523,-234.354"/>
<polygon fill="midnightblue" stroke="midnightblue" points="331.449,-241.232 341.769,-238.832 332.205,-234.273 331.449,-241.232"/>
</g>
<!-- Node16 -->
<g id="node16" class="node"><title>Node16</title>
<g id="a_node16"><a xlink:href="class_t_m_c2208_stepper.html#a8eb0d71fbfeeb24c9092328c44fab7e5" target="_top" xlink:title=" ">
<polygon fill="white" stroke="black" points="181.5,-180.5 181.5,-199.5 300.5,-199.5 300.5,-180.5 181.5,-180.5"/>
<text text-anchor="middle" x="241" y="-187.5" font-family="Helvetica,sans-Serif" font-size="10.00">TMC2208Stepper::push</text>
</a>
</g>
</g>
<!-- Node1&#45;&gt;Node16 -->
<g id="edge15" class="edge"><title>Node1&#45;&gt;Node16</title>
<path fill="none" stroke="midnightblue" d="M380.736,-234.163C359.111,-226.614 331.071,-217.009 306,-209 295.953,-205.79 284.962,-202.462 274.967,-199.504"/>
<polygon fill="midnightblue" stroke="midnightblue" points="379.592,-237.471 390.187,-237.474 381.907,-230.865 379.592,-237.471"/>
</g>
<!-- Node17 -->
<g id="node17" class="node"><title>Node17</title>
<g id="a_node17"><a xlink:href="class_t_m_c2209_stepper.html#a180f4b9a78e526592d946ec12f71982e" target="_top" xlink:title=" ">
<polygon fill="white" stroke="black" points="181.5,-142.5 181.5,-161.5 300.5,-161.5 300.5,-142.5 181.5,-142.5"/>
<text text-anchor="middle" x="241" y="-149.5" font-family="Helvetica,sans-Serif" font-size="10.00">TMC2209Stepper::push</text>
</a>
</g>
</g>
<!-- Node1&#45;&gt;Node17 -->
<g id="edge16" class="edge"><title>Node1&#45;&gt;Node17</title>
<path fill="none" stroke="midnightblue" d="M397.491,-230.827C376.181,-213.858 340.47,-187.417 306,-171 298.256,-167.312 289.642,-164.169 281.307,-161.563"/>
<polygon fill="midnightblue" stroke="midnightblue" points="395.461,-233.686 405.438,-237.25 399.861,-228.242 395.461,-233.686"/>
</g>
<!-- Node18 -->
<g id="node18" class="node"><title>Node18</title>
<g id="a_node18"><a xlink:href="class_t_m_c2208_stepper.html#a84a5b9684c546c5f4549f375048512be" target="_top" xlink:title=" ">
<polygon fill="white" stroke="black" points="187,-104.5 187,-123.5 295,-123.5 295,-104.5 187,-104.5"/>
<text text-anchor="middle" x="241" y="-111.5" font-family="Helvetica,sans-Serif" font-size="10.00">TMC2208Stepper::tbl</text>
</a>
</g>
</g>
<!-- Node1&#45;&gt;Node18 -->
<g id="edge17" class="edge"><title>Node1&#45;&gt;Node18</title>
<path fill="none" stroke="midnightblue" d="M404.405,-229.212C385.732,-204.13 348.321,-158.58 306,-133 299.652,-129.163 292.477,-126.057 285.287,-123.556"/>
<polygon fill="midnightblue" stroke="midnightblue" points="401.692,-231.433 410.411,-237.452 407.349,-227.309 401.692,-231.433"/>
</g>
<!-- Node20 -->
<g id="node20" class="node"><title>Node20</title>
<g id="a_node20"><a xlink:href="class_t_m_c2208_stepper.html#aad3790e8c9040b5b4770ee65ed06b1ed" target="_top" xlink:title=" ">
<polygon fill="white" stroke="black" points="186,-66.5 186,-85.5 296,-85.5 296,-66.5 186,-66.5"/>
<text text-anchor="middle" x="241" y="-73.5" font-family="Helvetica,sans-Serif" font-size="10.00">TMC2208Stepper::toff</text>
</a>
</g>
</g>
<!-- Node1&#45;&gt;Node20 -->
<g id="edge19" class="edge"><title>Node1&#45;&gt;Node20</title>
<path fill="none" stroke="midnightblue" d="M408.439,-228.321C392.759,-196.196 356.357,-130.52 306,-95 300.507,-91.1252 294.217,-88.0309 287.775,-85.5623"/>
<polygon fill="midnightblue" stroke="midnightblue" points="405.342,-229.959 412.793,-237.492 411.665,-226.957 405.342,-229.959"/>
</g>
<!-- Node23 -->
<g id="node23" class="node"><title>Node23</title>
<g id="a_node23"><a xlink:href="class_t_m_c2208_stepper.html#aca88bb5ae86daeca56094bf2f8bdea5d" target="_top" xlink:title=" ">
<polygon fill="white" stroke="black" points="177,-19.5 177,-38.5 305,-38.5 305,-19.5 177,-19.5"/>
<text text-anchor="middle" x="241" y="-26.5" font-family="Helvetica,sans-Serif" font-size="10.00">TMC2208Stepper::vsense</text>
</a>
</g>
</g>
<!-- Node1&#45;&gt;Node23 -->
<g id="edge22" class="edge"><title>Node1&#45;&gt;Node23</title>
<path fill="none" stroke="midnightblue" d="M410.334,-227.555C396.512,-189.861 361.325,-106.237 306,-57 296.94,-48.9372 285.193,-42.901 274.24,-38.5384"/>
<polygon fill="midnightblue" stroke="midnightblue" points="407.151,-229.05 413.802,-237.298 413.746,-226.703 407.151,-229.05"/>
</g>
<!-- Node3 -->
<g id="node3" class="node"><title>Node3</title>
<g id="a_node3"><a xlink:href="class_t_m_c2208_stepper.html#a0c54d58d36627714213b8f9b5405638a" target="_top" xlink:title=" ">
<polygon fill="white" stroke="black" points="8,-446.5 8,-465.5 132,-465.5 132,-446.5 8,-446.5"/>
<text text-anchor="middle" x="70" y="-453.5" font-family="Helvetica,sans-Serif" font-size="10.00">TMC2208Stepper::dedge</text>
</a>
</g>
</g>
<!-- Node2&#45;&gt;Node3 -->
<g id="edge2" class="edge"><title>Node2&#45;&gt;Node3</title>
<path fill="none" stroke="midnightblue" d="M168.862,-456C156.675,-456 144.107,-456 132.207,-456"/>
<polygon fill="midnightblue" stroke="midnightblue" points="168.987,-459.5 178.987,-456 168.987,-452.5 168.987,-459.5"/>
</g>
<!-- Node5 -->
<g id="node5" class="node"><title>Node5</title>
<g id="a_node5"><a xlink:href="class_t_m_c2208_stepper.html#af9e723eb68920b230396d99314802625" target="_top" xlink:title=" ">
<polygon fill="white" stroke="black" points="7,-408.5 7,-427.5 133,-427.5 133,-408.5 7,-408.5"/>
<text text-anchor="middle" x="70" y="-415.5" font-family="Helvetica,sans-Serif" font-size="10.00">TMC2208Stepper::diss2g</text>
</a>
</g>
</g>
<!-- Node4&#45;&gt;Node5 -->
<g id="edge4" class="edge"><title>Node4&#45;&gt;Node5</title>
<path fill="none" stroke="midnightblue" d="M167.24,-418C155.899,-418 144.27,-418 133.193,-418"/>
<polygon fill="midnightblue" stroke="midnightblue" points="167.551,-421.5 177.551,-418 167.551,-414.5 167.551,-421.5"/>
</g>
<!-- Node7 -->
<g id="node7" class="node"><title>Node7</title>
<g id="a_node7"><a xlink:href="class_t_m_c2208_stepper.html#a3df95f42838a9aba18f50a2a2440a609" target="_top" xlink:title=" ">
<polygon fill="white" stroke="black" points="5,-370.5 5,-389.5 135,-389.5 135,-370.5 5,-370.5"/>
<text text-anchor="middle" x="70" y="-377.5" font-family="Helvetica,sans-Serif" font-size="10.00">TMC2208Stepper::diss2vs</text>
</a>
</g>
</g>
<!-- Node6&#45;&gt;Node7 -->
<g id="edge6" class="edge"><title>Node6&#45;&gt;Node7</title>
<path fill="none" stroke="midnightblue" d="M165.583,-380C155.452,-380 145.124,-380 135.195,-380"/>
<polygon fill="midnightblue" stroke="midnightblue" points="165.626,-383.5 175.626,-380 165.626,-376.5 165.626,-383.5"/>
</g>
<!-- Node9 -->
<g id="node9" class="node"><title>Node9</title>
<g id="a_node9"><a xlink:href="class_t_m_c2208_stepper.html#a81a7fcf597905d654045abd35bb5412e" target="_top" xlink:title=" ">
<polygon fill="white" stroke="black" points="10.5,-332.5 10.5,-351.5 129.5,-351.5 129.5,-332.5 10.5,-332.5"/>
<text text-anchor="middle" x="70" y="-339.5" font-family="Helvetica,sans-Serif" font-size="10.00">TMC2208Stepper::hend</text>
</a>
</g>
</g>
<!-- Node8&#45;&gt;Node9 -->
<g id="edge8" class="edge"><title>Node8&#45;&gt;Node9</title>
<path fill="none" stroke="midnightblue" d="M170.981,-342C157.222,-342 142.896,-342 129.53,-342"/>
<polygon fill="midnightblue" stroke="midnightblue" points="171.366,-345.5 181.366,-342 171.366,-338.5 171.366,-345.5"/>
</g>
<!-- Node11 -->
<g id="node11" class="node"><title>Node11</title>
<g id="a_node11"><a xlink:href="class_t_m_c2208_stepper.html#a2d96852bda7fac58f65ba3e96cdfc642" target="_top" xlink:title=" ">
<polygon fill="white" stroke="black" points="11.5,-294.5 11.5,-313.5 128.5,-313.5 128.5,-294.5 11.5,-294.5"/>
<text text-anchor="middle" x="70" y="-301.5" font-family="Helvetica,sans-Serif" font-size="10.00">TMC2208Stepper::hstrt</text>
</a>
</g>
</g>
<!-- Node10&#45;&gt;Node11 -->
<g id="edge10" class="edge"><title>Node10&#45;&gt;Node11</title>
<path fill="none" stroke="midnightblue" d="M172.005,-304C157.654,-304 142.643,-304 128.714,-304"/>
<polygon fill="midnightblue" stroke="midnightblue" points="172.312,-307.5 182.312,-304 172.312,-300.5 172.312,-307.5"/>
</g>
<!-- Node13 -->
<g id="node13" class="node"><title>Node13</title>
<g id="a_node13"><a xlink:href="class_t_m_c2208_stepper.html#acb690e8811ad65d15ff1b04dfc158302" target="_top" xlink:title=" ">
<polygon fill="white" stroke="black" points="9.5,-256.5 9.5,-275.5 130.5,-275.5 130.5,-256.5 9.5,-256.5"/>
<text text-anchor="middle" x="70" y="-263.5" font-family="Helvetica,sans-Serif" font-size="10.00">TMC2208Stepper::intpol</text>
</a>
</g>
</g>
<!-- Node12&#45;&gt;Node13 -->
<g id="edge12" class="edge"><title>Node12&#45;&gt;Node13</title>
<path fill="none" stroke="midnightblue" d="M170.041,-266C156.942,-266 143.364,-266 130.615,-266"/>
<polygon fill="midnightblue" stroke="midnightblue" points="170.417,-269.5 180.417,-266 170.417,-262.5 170.417,-269.5"/>
</g>
<!-- Node15 -->
<g id="node15" class="node"><title>Node15</title>
<g id="a_node15"><a xlink:href="class_t_m_c2208_stepper.html#a9b1b9c2cc87274b569d6ecf47ae621eb" target="_top" xlink:title=" ">
<polygon fill="white" stroke="black" points="10.5,-218.5 10.5,-237.5 129.5,-237.5 129.5,-218.5 10.5,-218.5"/>
<text text-anchor="middle" x="70" y="-225.5" font-family="Helvetica,sans-Serif" font-size="10.00">TMC2208Stepper::mres</text>
</a>
</g>
</g>
<!-- Node14&#45;&gt;Node15 -->
<g id="edge14" class="edge"><title>Node14&#45;&gt;Node15</title>
<path fill="none" stroke="midnightblue" d="M170.981,-228C157.222,-228 142.896,-228 129.53,-228"/>
<polygon fill="midnightblue" stroke="midnightblue" points="171.366,-231.5 181.366,-228 171.366,-224.5 171.366,-231.5"/>
</g>
<!-- Node19 -->
<g id="node19" class="node"><title>Node19</title>
<g id="a_node19"><a xlink:href="class_t_m_c2208_stepper.html#a0f222fc82369c922746a1f457fea668a" target="_top" xlink:title=" ">
<polygon fill="white" stroke="black" points="16,-114.5 16,-133.5 124,-133.5 124,-114.5 16,-114.5"/>
<text text-anchor="middle" x="70" y="-121.5" font-family="Helvetica,sans-Serif" font-size="10.00">TMC2208Stepper::tbl</text>
</a>
</g>
</g>
<!-- Node18&#45;&gt;Node19 -->
<g id="edge18" class="edge"><title>Node18&#45;&gt;Node19</title>
<path fill="none" stroke="midnightblue" d="M176.93,-117.732C159.548,-118.76 140.869,-119.866 124.111,-120.857"/>
<polygon fill="midnightblue" stroke="midnightblue" points="177.215,-121.221 186.991,-117.137 176.802,-114.234 177.215,-121.221"/>
</g>
<!-- Node21 -->
<g id="node21" class="node"><title>Node21</title>
<g id="a_node21"><a xlink:href="class_t_m_c2208_stepper.html#a9ad9b892e8abf475e15e6d8c30c56ce2" target="_top" xlink:title=" ">
<polygon fill="white" stroke="black" points="0,-76.5 0,-95.5 140,-95.5 140,-76.5 0,-76.5"/>
<text text-anchor="middle" x="70" y="-83.5" font-family="Helvetica,sans-Serif" font-size="10.00">TMC2208Stepper::isEnabled</text>
</a>
</g>
</g>
<!-- Node20&#45;&gt;Node21 -->
<g id="edge20" class="edge"><title>Node20&#45;&gt;Node21</title>
<path fill="none" stroke="midnightblue" d="M175.574,-79.8122C163.986,-80.4979 151.862,-81.2153 140.146,-81.9085"/>
<polygon fill="midnightblue" stroke="midnightblue" points="175.821,-83.3038 185.597,-79.2191 175.408,-76.316 175.821,-83.3038"/>
</g>
<!-- Node22 -->
<g id="node22" class="node"><title>Node22</title>
<g id="a_node22"><a xlink:href="class_t_m_c2208_stepper.html#a7ec1e7b4256e23a062cf72135d480d5f" target="_top" xlink:title=" ">
<polygon fill="white" stroke="black" points="15,-38.5 15,-57.5 125,-57.5 125,-38.5 15,-38.5"/>
<text text-anchor="middle" x="70" y="-45.5" font-family="Helvetica,sans-Serif" font-size="10.00">TMC2208Stepper::toff</text>
</a>
</g>
</g>
<!-- Node20&#45;&gt;Node22 -->
<g id="edge21" class="edge"><title>Node20&#45;&gt;Node22</title>
<path fill="none" stroke="midnightblue" d="M175.406,-65.298C158.772,-62.542 141.046,-59.6052 125.012,-56.9487"/>
<polygon fill="midnightblue" stroke="midnightblue" points="175.159,-68.8048 185.597,-66.9865 176.304,-61.899 175.159,-68.8048"/>
</g>
<!-- Node24 -->
<g id="node24" class="node"><title>Node24</title>
<g id="a_node24"><a xlink:href="class_t_m_c2208_stepper.html#a35c5c94dd12048b8daa148134c94be5f" target="_top" xlink:title=" ">
<polygon fill="white" stroke="black" points="6,-0.5 6,-19.5 134,-19.5 134,-0.5 6,-0.5"/>
<text text-anchor="middle" x="70" y="-7.5" font-family="Helvetica,sans-Serif" font-size="10.00">TMC2208Stepper::vsense</text>
</a>
</g>
</g>
<!-- Node23&#45;&gt;Node24 -->
<g id="edge23" class="edge"><title>Node23&#45;&gt;Node24</title>
<path fill="none" stroke="midnightblue" d="M166.399,-20.7253C155.67,-19.5191 144.702,-18.286 134.203,-17.1057"/>
<polygon fill="midnightblue" stroke="midnightblue" points="166.261,-24.2318 176.59,-21.871 167.043,-17.2756 166.261,-24.2318"/>
</g>
</g>
</svg>
        <g id="navigator" transform="translate(0 0)" fill="#404254">
                <rect fill="#f2f5e9" fill-opacity="0.5" stroke="#606060" stroke-width=".5" x="0" y="0" width="60" height="60"/>
                <use id="zoomplus" xlink:href="#zoomPlus" x="17" y="9" onmousedown="handleZoom(evt,'in')"/>
                <use id="zoomminus" xlink:href="#zoomMin" x="42" y="9" onmousedown="handleZoom(evt,'out')"/>
                <use id="reset" xlink:href="#resetDef" x="30" y="36" onmousedown="handleReset()"/>
                <g id="arrowUp" xlink:href="#dirArrow" transform="translate(30 24)" onmousedown="handlePan(0,-1)">
                  <use xlink:href="#rim" fill="#404040">
                        <set attributeName="fill" to="#808080" begin="arrowUp.mouseover" end="arrowUp.mouseout"/>
                  </use>
                  <path fill="none" stroke="white" stroke-width="1.5" d="M0,-3.0v7 M-2.5,-0.5L0,-3.0L2.5,-0.5"/>
                </g>
                <g id="arrowRight" xlink:href="#dirArrow" transform="rotate(90) translate(36 -43)" onmousedown="handlePan(1,0)">
                  <use xlink:href="#rim" fill="#404040">
                        <set attributeName="fill" to="#808080" begin="arrowRight.mouseover" end="arrowRight.mouseout"/>
                  </use>
                  <path fill="none" stroke="white" stroke-width="1.5" d="M0,-3.0v7 M-2.5,-0.5L0,-3.0L2.5,-0.5"/>
                </g>
                <g id="arrowDown" xlink:href="#dirArrow" transform="rotate(180) translate(-30 -48)" onmousedown="handlePan(0,1)">
                  <use xlink:href="#rim" fill="#404040">
                        <set attributeName="fill" to="#808080" begin="arrowDown.mouseover" end="arrowDown.mouseout"/>
                  </use>
                  <path fill="none" stroke="white" stroke-width="1.5" d="M0,-3.0v7 M-2.5,-0.5L0,-3.0L2.5,-0.5"/>
                </g>
                <g id="arrowLeft" xlink:href="#dirArrow" transform="rotate(270) translate(-36 17)" onmousedown="handlePan(-1,0)">
                  <use xlink:href="#rim" fill="#404040">
                        <set attributeName="fill" to="#808080" begin="arrowLeft.mouseover" end="arrowLeft.mouseout"/>
                  </use>
                  <path fill="none" stroke="white" stroke-width="1.5" d="M0,-3.0v7 M-2.5,-0.5L0,-3.0L2.5,-0.5"/>
                </g>
        </g>
        <svg viewBox="0 0 15 15" width="100%" height="30px" preserveAspectRatio="xMaxYMin meet">
         <g id="arrow_out" transform="scale(0.3 0.3)">
          <a xlink:href="class_t_m_c2208_stepper_aa11281f54c293f3ff2539b1a583682a9_icgraph_org.svg" target="_base">
           <rect id="button" ry="5" rx="5" y="6" x="6" height="38" width="38"
                fill="#f2f5e9" fill-opacity="0.5" stroke="#606060" stroke-width="1.0"/>
           <path id="arrow"
             d="M 11.500037,31.436501 C 11.940474,20.09759 22.043105,11.32322 32.158766,21.979434 L 37.068811,17.246167 C 37.068811,17.246167 37.088388,32 37.088388,32 L 22.160133,31.978069 C 22.160133,31.978069 26.997745,27.140456 26.997745,27.140456 C 18.528582,18.264221 13.291696,25.230495 11.500037,31.436501 z"
             style="fill:#404040;"/>
          </a>
         </g>
        </svg>
</svg>
