<?xml version="1.0" encoding="UTF-8" standalone="no"?>
<!DOCTYPE svg PUBLIC "-//W3C//DTD SVG 1.1//EN"
 "http://www.w3.org/Graphics/SVG/1.1/DTD/svg11.dtd">
<!-- Generated by graphviz version 2.38.0 (20140413.2041)
 -->
<!-- Title: TMC5160Stepper::enc_n_dco_cfg6 Pages: 1 -->
<svg width="915pt" height="104pt"
 viewBox="0.00 0.00 915.00 104.00" xmlns="http://www.w3.org/2000/svg" xmlns:xlink="http://www.w3.org/1999/xlink">
<g id="graph0" class="graph" transform="scale(1 1) rotate(0) translate(4 100)">
<title>TMC5160Stepper::enc_n_dco_cfg6</title>
<polygon fill="white" stroke="none" points="-4,4 -4,-100 911,-100 911,4 -4,4"/>
<!-- Node1 -->
<g id="node1" class="node"><title>Node1</title>
<g id="a_node1"><a xlink:title=" ">
<polygon fill="#bfbfbf" stroke="black" points="0,-33 0,-63 113,-63 113,-33 0,-33"/>
<text text-anchor="start" x="8" y="-51" font-family="Helvetica,sans-Serif" font-size="10.00">TMC5160Stepper::enc</text>
<text text-anchor="middle" x="56.5" y="-40" font-family="Helvetica,sans-Serif" font-size="10.00">_n_dco_cfg6</text>
</a>
</g>
</g>
<!-- Node2 -->
<g id="node2" class="node"><title>Node2</title>
<g id="a_node2"><a xlink:href="class_t_m_c5130_stepper.html#adc1e0971a9d17880735d30fcb0eac342" target="_top" xlink:title=" ">
<polygon fill="white" stroke="black" points="149,-33 149,-63 262,-63 262,-33 149,-33"/>
<text text-anchor="start" x="157" y="-51" font-family="Helvetica,sans-Serif" font-size="10.00">TMC5130Stepper::enc</text>
<text text-anchor="middle" x="205.5" y="-40" font-family="Helvetica,sans-Serif" font-size="10.00">_n_dco</text>
</a>
</g>
</g>
<!-- Node1&#45;&gt;Node2 -->
<g id="edge1" class="edge"><title>Node1&#45;&gt;Node2</title>
<path fill="none" stroke="midnightblue" d="M113.074,-48C121.489,-48 130.238,-48 138.842,-48"/>
<polygon fill="midnightblue" stroke="midnightblue" points="138.847,-51.5001 148.847,-48 138.847,-44.5001 138.847,-51.5001"/>
</g>
<!-- Node3 -->
<g id="node3" class="node"><title>Node3</title>
<g id="a_node3"><a xlink:href="class_t_m_c5130_stepper.html#a74e9e262a8da77925d246916b431161d" target="_top" xlink:title=" ">
<polygon fill="white" stroke="black" points="298,-38.5 298,-57.5 414,-57.5 414,-38.5 298,-38.5"/>
<text text-anchor="middle" x="356" y="-45.5" font-family="Helvetica,sans-Serif" font-size="10.00">TMC5130Stepper::IOIN</text>
</a>
</g>
</g>
<!-- Node2&#45;&gt;Node3 -->
<g id="edge2" class="edge"><title>Node2&#45;&gt;Node3</title>
<path fill="none" stroke="midnightblue" d="M262.218,-48C270.618,-48 279.356,-48 287.963,-48"/>
<polygon fill="midnightblue" stroke="midnightblue" points="287.979,-51.5001 297.979,-48 287.979,-44.5001 287.979,-51.5001"/>
</g>
<!-- Node4 -->
<g id="node4" class="node"><title>Node4</title>
<g id="a_node4"><a xlink:href="class_t_m_c2130_stepper.html#aed0175bff6e80ebc14e0d2606283cbe0" target="_top" xlink:title=" ">
<polygon fill="white" stroke="black" points="450,-38.5 450,-57.5 566,-57.5 566,-38.5 450,-38.5"/>
<text text-anchor="middle" x="508" y="-45.5" font-family="Helvetica,sans-Serif" font-size="10.00">TMC2130Stepper::read</text>
</a>
</g>
</g>
<!-- Node3&#45;&gt;Node4 -->
<g id="edge3" class="edge"><title>Node3&#45;&gt;Node4</title>
<path fill="none" stroke="midnightblue" d="M414.136,-48C422.377,-48 430.923,-48 439.344,-48"/>
<polygon fill="midnightblue" stroke="midnightblue" points="439.526,-51.5001 449.525,-48 439.525,-44.5001 439.526,-51.5001"/>
</g>
<!-- Node5 -->
<g id="node5" class="node"><title>Node5</title>
<g id="a_node5"><a xlink:href="class_t_m_c2130_stepper.html#aed8aa4583943e649dbf3bb1c1da90d63" target="_top" xlink:title=" ">
<polygon fill="white" stroke="black" points="602,-76.5 602,-95.5 754,-95.5 754,-76.5 602,-76.5"/>
<text text-anchor="middle" x="678" y="-83.5" font-family="Helvetica,sans-Serif" font-size="10.00">TMC2130Stepper::switchCSpin</text>
</a>
</g>
</g>
<!-- Node4&#45;&gt;Node5 -->
<g id="edge4" class="edge"><title>Node4&#45;&gt;Node5</title>
<path fill="none" stroke="midnightblue" d="M551.393,-57.589C573.763,-62.6487 601.398,-68.8996 625.047,-74.2488"/>
<polygon fill="midnightblue" stroke="midnightblue" points="624.386,-77.6875 634.911,-76.4799 625.93,-70.8599 624.386,-77.6875"/>
</g>
<!-- Node6 -->
<g id="node6" class="node"><title>Node6</title>
<g id="a_node6"><a xlink:href="class_s_w___s_p_i_class.html#af260fdc0af3f1312b106483161e559c3" target="_top" xlink:title=" ">
<polygon fill="white" stroke="black" points="790,-19.5 790,-38.5 907,-38.5 907,-19.5 790,-19.5"/>
<text text-anchor="middle" x="848.5" y="-26.5" font-family="Helvetica,sans-Serif" font-size="10.00">SW_SPIClass::transfer</text>
</a>
</g>
</g>
<!-- Node4&#45;&gt;Node6 -->
<g id="edge5" class="edge"><title>Node4&#45;&gt;Node6</title>
<path fill="none" stroke="midnightblue" d="M566.039,-44.7984C625.027,-41.4874 717.113,-36.3186 779.765,-32.802"/>
<polygon fill="midnightblue" stroke="midnightblue" points="780.156,-36.2856 789.944,-32.2306 779.763,-29.2966 780.156,-36.2856"/>
</g>
<!-- Node7 -->
<g id="node7" class="node"><title>Node7</title>
<g id="a_node7"><a xlink:href="class_s_w___s_p_i_class.html#a1b7600aa1d9571c103718c5d3e376675" target="_top" xlink:title=" ">
<polygon fill="white" stroke="black" points="614,-0.5 614,-19.5 742,-19.5 742,-0.5 614,-0.5"/>
<text text-anchor="middle" x="678" y="-7.5" font-family="Helvetica,sans-Serif" font-size="10.00">SW_SPIClass::transfer16</text>
</a>
</g>
</g>
<!-- Node4&#45;&gt;Node7 -->
<g id="edge6" class="edge"><title>Node4&#45;&gt;Node7</title>
<path fill="none" stroke="midnightblue" d="M551.393,-38.411C573.763,-33.3513 601.398,-27.1004 625.047,-21.7512"/>
<polygon fill="midnightblue" stroke="midnightblue" points="625.93,-25.1401 634.911,-19.5201 624.386,-18.3125 625.93,-25.1401"/>
</g>
<!-- Node7&#45;&gt;Node6 -->
<g id="edge7" class="edge"><title>Node7&#45;&gt;Node6</title>
<path fill="none" stroke="midnightblue" d="M742.223,-17.129C754.406,-18.5028 767.217,-19.9473 779.543,-21.3372"/>
<polygon fill="midnightblue" stroke="midnightblue" points="779.43,-24.8466 789.76,-22.4892 780.215,-17.8907 779.43,-24.8466"/>
</g>
</g>
</svg>
