<?xml version="1.0" encoding="UTF-8" standalone="no"?>
<!DOCTYPE svg PUBLIC "-//W3C//DTD SVG 1.1//EN"
 "http://www.w3.org/Graphics/SVG/1.1/DTD/svg11.dtd">
<!-- Generated by graphviz version 2.38.0 (20140413.2041)
 -->
<!-- Title: TMC2208Stepper::diss2vs Pages: 1 -->
<svg width="1179pt" height="156pt"
 viewBox="0.00 0.00 1179.00 156.41" xmlns="http://www.w3.org/2000/svg" xmlns:xlink="http://www.w3.org/1999/xlink">
<g id="graph0" class="graph" transform="scale(1 1) rotate(0) translate(4 152.405)">
<title>TMC2208Stepper::diss2vs</title>
<polygon fill="white" stroke="none" points="-4,4 -4,-152.405 1175,-152.405 1175,4 -4,4"/>
<!-- Node1 -->
<g id="node1" class="node"><title>Node1</title>
<g id="a_node1"><a xlink:title=" ">
<polygon fill="#bfbfbf" stroke="black" points="0,-46.9052 0,-65.9052 130,-65.9052 130,-46.9052 0,-46.9052"/>
<text text-anchor="middle" x="65" y="-53.9052" font-family="Helvetica,sans-Serif" font-size="10.00">TMC2208Stepper::diss2vs</text>
</a>
</g>
</g>
<!-- Node2 -->
<g id="node2" class="node"><title>Node2</title>
<g id="a_node2"><a xlink:href="class_t_m_c2208_stepper.html#afc70b23b3486ae3ea3a3dfa804441148" target="_top" xlink:title=" ">
<polygon fill="white" stroke="black" points="166,-46.9052 166,-65.9052 296,-65.9052 296,-46.9052 166,-46.9052"/>
<text text-anchor="middle" x="231" y="-53.9052" font-family="Helvetica,sans-Serif" font-size="10.00">TMC2208Stepper::diss2vs</text>
</a>
</g>
</g>
<!-- Node1&#45;&gt;Node2 -->
<g id="edge1" class="edge"><title>Node1&#45;&gt;Node2</title>
<path fill="none" stroke="midnightblue" d="M130.346,-56.4052C138.64,-56.4052 147.187,-56.4052 155.625,-56.4052"/>
<polygon fill="midnightblue" stroke="midnightblue" points="155.839,-59.9053 165.839,-56.4052 155.839,-52.9053 155.839,-59.9053"/>
</g>
<!-- Node3 -->
<g id="node3" class="node"><title>Node3</title>
<g id="a_node3"><a xlink:href="class_t_m_c2208_stepper.html#aa11281f54c293f3ff2539b1a583682a9" target="_top" xlink:title=" ">
<polygon fill="white" stroke="black" points="332,-46.9052 332,-65.9052 484,-65.9052 484,-46.9052 332,-46.9052"/>
<text text-anchor="middle" x="408" y="-53.9052" font-family="Helvetica,sans-Serif" font-size="10.00">TMC2208Stepper::CHOPCONF</text>
</a>
</g>
</g>
<!-- Node2&#45;&gt;Node3 -->
<g id="edge2" class="edge"><title>Node2&#45;&gt;Node3</title>
<path fill="none" stroke="midnightblue" d="M296.17,-56.4052C304.513,-56.4052 313.162,-56.4052 321.781,-56.4052"/>
<polygon fill="midnightblue" stroke="midnightblue" points="321.866,-59.9053 331.866,-56.4052 321.866,-52.9053 321.866,-59.9053"/>
</g>
<!-- Node4 -->
<g id="node4" class="node"><title>Node4</title>
<g id="a_node4"><a xlink:href="class_t_m_c2208_stepper.html#a2fae2050849c3ab7968012def8ea1cc5" target="_top" xlink:title=" ">
<polygon fill="white" stroke="black" points="520,-46.9052 520,-65.9052 636,-65.9052 636,-46.9052 520,-46.9052"/>
<text text-anchor="middle" x="578" y="-53.9052" font-family="Helvetica,sans-Serif" font-size="10.00">TMC2208Stepper::read</text>
</a>
</g>
</g>
<!-- Node3&#45;&gt;Node4 -->
<g id="edge3" class="edge"><title>Node3&#45;&gt;Node4</title>
<path fill="none" stroke="midnightblue" d="M484.155,-56.4052C492.664,-56.4052 501.296,-56.4052 509.696,-56.4052"/>
<polygon fill="midnightblue" stroke="midnightblue" points="509.802,-59.9053 519.802,-56.4052 509.802,-52.9053 509.802,-59.9053"/>
</g>
<!-- Node5 -->
<g id="node5" class="node"><title>Node5</title>
<g id="a_node5"><a xlink:href="class_t_m_c2208_stepper.html#a3e1f6a10aa1e3e41dc2594dbe1ea8a1d" target="_top" xlink:title=" ">
<polygon fill="white" stroke="black" points="672,-103.905 672,-122.905 838,-122.905 838,-103.905 672,-103.905"/>
<text text-anchor="middle" x="755" y="-110.905" font-family="Helvetica,sans-Serif" font-size="10.00">TMC2208Stepper::_sendDatagram</text>
</a>
</g>
</g>
<!-- Node4&#45;&gt;Node5 -->
<g id="edge4" class="edge"><title>Node4&#45;&gt;Node5</title>
<path fill="none" stroke="midnightblue" d="M599.7,-65.9833C618.317,-74.3262 646.568,-86.3205 672,-94.4052 680.008,-96.9508 688.555,-99.3114 696.996,-101.442"/>
<polygon fill="midnightblue" stroke="midnightblue" points="696.272,-104.868 706.816,-103.834 697.929,-98.0666 696.272,-104.868"/>
</g>
<!-- Node10 -->
<g id="node10" class="node"><title>Node10</title>
<g id="a_node10"><a xlink:href="class_s_switch.html#a6ff09d0850d551571dc333fb74ff8628" target="_top" xlink:title=" ">
<polygon fill="white" stroke="black" points="713.5,-65.9052 713.5,-84.9052 796.5,-84.9052 796.5,-65.9052 713.5,-65.9052"/>
<text text-anchor="middle" x="755" y="-72.9052" font-family="Helvetica,sans-Serif" font-size="10.00">SSwitch::active</text>
</a>
</g>
</g>
<!-- Node4&#45;&gt;Node10 -->
<g id="edge10" class="edge"><title>Node4&#45;&gt;Node10</title>
<path fill="none" stroke="midnightblue" d="M636.302,-62.6265C657.975,-64.9796 682.465,-67.6385 703.472,-69.9193"/>
<polygon fill="midnightblue" stroke="midnightblue" points="703.158,-73.4056 713.477,-71.0055 703.913,-66.4465 703.158,-73.4056"/>
</g>
<!-- Node11 -->
<g id="node11" class="node"><title>Node11</title>
<g id="a_node11"><a xlink:href="class_t_m_c2208_stepper.html#a409c19fa6b052a370a317d061bf9af4e" target="_top" xlink:title=" ">
<polygon fill="white" stroke="black" points="687,-27.9052 687,-46.9052 823,-46.9052 823,-27.9052 687,-27.9052"/>
<text text-anchor="middle" x="755" y="-34.9052" font-family="Helvetica,sans-Serif" font-size="10.00">TMC2208Stepper::calcCRC</text>
</a>
</g>
</g>
<!-- Node4&#45;&gt;Node11 -->
<g id="edge11" class="edge"><title>Node4&#45;&gt;Node11</title>
<path fill="none" stroke="midnightblue" d="M636.302,-50.1839C649.17,-48.7867 663.032,-47.2817 676.567,-45.8121"/>
<polygon fill="midnightblue" stroke="midnightblue" points="677.269,-49.2566 686.833,-44.6976 676.514,-42.2975 677.269,-49.2566"/>
</g>
<!-- Node6 -->
<g id="node6" class="node"><title>Node6</title>
<g id="a_node6"><a xlink:href="class_t_m_c2208_stepper.html#a4ec5d2b2f5a31259c7aba1f3208d63b8" target="_top" xlink:title=" ">
<polygon fill="white" stroke="black" points="888.5,-128.905 888.5,-147.905 1004.5,-147.905 1004.5,-128.905 888.5,-128.905"/>
<text text-anchor="middle" x="946.5" y="-135.905" font-family="Helvetica,sans-Serif" font-size="10.00">TMC2208Stepper::ms2</text>
</a>
</g>
</g>
<!-- Node5&#45;&gt;Node6 -->
<g id="edge5" class="edge"><title>Node5&#45;&gt;Node6</title>
<path fill="none" stroke="midnightblue" d="M828.182,-122.928C844.64,-125.099 862.062,-127.397 878.301,-129.54"/>
<polygon fill="midnightblue" stroke="midnightblue" points="877.868,-133.013 888.24,-130.851 878.784,-126.073 877.868,-133.013"/>
</g>
<!-- Node8 -->
<g id="node8" class="node"><title>Node8</title>
<g id="a_node8"><a xlink:href="class_t_m_c2208_stepper.html#ae561da4ec7c40830e97bf4dc8cf700fb" target="_top" xlink:title=" ">
<polygon fill="white" stroke="black" points="874,-90.9052 874,-109.905 1019,-109.905 1019,-90.9052 874,-90.9052"/>
<text text-anchor="middle" x="946.5" y="-97.9052" font-family="Helvetica,sans-Serif" font-size="10.00">TMC2208Stepper::serial_read</text>
</a>
</g>
</g>
<!-- Node5&#45;&gt;Node8 -->
<g id="edge8" class="edge"><title>Node5&#45;&gt;Node8</title>
<path fill="none" stroke="midnightblue" d="M838.015,-107.779C846.478,-107.198 855.078,-106.608 863.54,-106.028"/>
<polygon fill="midnightblue" stroke="midnightblue" points="864.038,-109.502 873.775,-105.326 863.559,-102.518 864.038,-109.502"/>
</g>
<!-- Node9 -->
<g id="node9" class="node"><title>Node9</title>
<g id="a_node9"><a xlink:href="class_t_m_c2208_stepper.html#a7dd83313385079099b0622957786a979" target="_top" xlink:title=" ">
<polygon fill="white" stroke="black" points="886,-41.4052 886,-71.4052 1007,-71.4052 1007,-41.4052 886,-41.4052"/>
<text text-anchor="start" x="894" y="-59.4052" font-family="Helvetica,sans-Serif" font-size="10.00">TMC2208Stepper::serial</text>
<text text-anchor="middle" x="946.5" y="-48.4052" font-family="Helvetica,sans-Serif" font-size="10.00">_write</text>
</a>
</g>
</g>
<!-- Node5&#45;&gt;Node9 -->
<g id="edge9" class="edge"><title>Node5&#45;&gt;Node9</title>
<path fill="none" stroke="midnightblue" d="M801.793,-103.808C813.658,-101.045 826.367,-97.8399 838,-94.4052 854.315,-89.5878 857.971,-87.1015 874,-81.4052 880.017,-79.2668 886.325,-77.0401 892.595,-74.8355"/>
<polygon fill="midnightblue" stroke="midnightblue" points="894.095,-78.0185 902.372,-71.4052 891.778,-71.4133 894.095,-78.0185"/>
</g>
<!-- Node7 -->
<g id="node7" class="node"><title>Node7</title>
<g id="a_node7"><a xlink:href="class_t_m_c2208_stepper.html#a5441dd87d0bcea4ffc309cb012166a57" target="_top" xlink:title=" ">
<polygon fill="white" stroke="black" points="1055,-58.9052 1055,-77.9052 1171,-77.9052 1171,-58.9052 1055,-58.9052"/>
<text text-anchor="middle" x="1113" y="-65.9052" font-family="Helvetica,sans-Serif" font-size="10.00">TMC2208Stepper::IOIN</text>
</a>
</g>
</g>
<!-- Node6&#45;&gt;Node7 -->
<g id="edge6" class="edge"><title>Node6&#45;&gt;Node7</title>
<path fill="none" stroke="midnightblue" d="M990.395,-128.814C999.954,-126.18 1009.94,-123.032 1019,-119.405 1043.72,-109.514 1070.18,-94.529 1088.53,-83.3584"/>
<polygon fill="midnightblue" stroke="midnightblue" points="1090.42,-86.3019 1097.09,-78.0661 1086.74,-80.348 1090.42,-86.3019"/>
</g>
<!-- Node7&#45;&gt;Node4 -->
<g id="edge7" class="edge"><title>Node7&#45;&gt;Node4</title>
<path fill="none" stroke="midnightblue" d="M1092.96,-58.8176C1074.55,-50.0326 1045.59,-37.4965 1019,-31.4052 868.566,3.05335 823.437,11.3399 672,-18.4052 648.751,-22.9717 623.989,-33.3919 605.866,-42.1675"/>
<polygon fill="midnightblue" stroke="midnightblue" points="603.917,-39.2285 596.532,-46.826 607.043,-45.4917 603.917,-39.2285"/>
</g>
</g>
</svg>
