<?xml version="1.0" encoding="UTF-8" standalone="no"?>
<!DOCTYPE svg PUBLIC "-//W3C//DTD SVG 1.1//EN"
 "http://www.w3.org/Graphics/SVG/1.1/DTD/svg11.dtd">
<!-- Generated by graphviz version 2.38.0 (20140413.2041)
 -->
<!-- Title: TMC2160Stepper Pages: 1 -->
<svg width="183pt" height="152pt"
 viewBox="0.00 0.00 182.50 152.00" xmlns="http://www.w3.org/2000/svg" xmlns:xlink="http://www.w3.org/1999/xlink">
<g id="graph0" class="graph" transform="scale(1 1) rotate(0) translate(4 148)">
<title>TMC2160Stepper</title>
<polygon fill="white" stroke="none" points="-4,4 -4,-148 178.5,-148 178.5,4 -4,4"/>
<!-- Node1 -->
<g id="node1" class="node"><title>Node1</title>
<g id="a_node1"><a xlink:title=" ">
<polygon fill="#bfbfbf" stroke="black" points="35.5,-0.5 35.5,-19.5 127.5,-19.5 127.5,-0.5 35.5,-0.5"/>
<text text-anchor="middle" x="81.5" y="-7.5" font-family="Helvetica,sans-Serif" font-size="10.00">TMC2160Stepper</text>
</a>
</g>
</g>
<!-- Node2 -->
<g id="node2" class="node"><title>Node2</title>
<g id="a_node2"><a xlink:href="class_t_m_c2130_stepper.html" target="_top" xlink:title=" ">
<polygon fill="white" stroke="black" points="35.5,-57.5 35.5,-76.5 127.5,-76.5 127.5,-57.5 35.5,-57.5"/>
<text text-anchor="middle" x="81.5" y="-64.5" font-family="Helvetica,sans-Serif" font-size="10.00">TMC2130Stepper</text>
</a>
</g>
</g>
<!-- Node2&#45;&gt;Node1 -->
<g id="edge1" class="edge"><title>Node2&#45;&gt;Node1</title>
<path fill="none" stroke="midnightblue" d="M81.5,-47.1166C81.5,-37.8173 81.5,-27.0557 81.5,-19.7149"/>
<polygon fill="midnightblue" stroke="midnightblue" points="78.0001,-47.4062 81.5,-57.4063 85.0001,-47.4063 78.0001,-47.4062"/>
</g>
<!-- Node3 -->
<g id="node3" class="node"><title>Node3</title>
<g id="a_node3"><a xlink:href="class_t_m_c_stepper.html" target="_top" xlink:title=" ">
<polygon fill="white" stroke="black" points="0,-124.5 0,-143.5 71,-143.5 71,-124.5 0,-124.5"/>
<text text-anchor="middle" x="35.5" y="-131.5" font-family="Helvetica,sans-Serif" font-size="10.00">TMCStepper</text>
</a>
</g>
</g>
<!-- Node3&#45;&gt;Node2 -->
<g id="edge2" class="edge"><title>Node3&#45;&gt;Node2</title>
<path fill="none" stroke="midnightblue" d="M47.5989,-115.904C56.5376,-103.273 68.334,-86.6041 75.3945,-76.6273"/>
<polygon fill="midnightblue" stroke="midnightblue" points="44.6235,-114.049 41.7038,-124.234 50.3375,-118.093 44.6235,-114.049"/>
</g>
<!-- Node4 -->
<g id="node4" class="node"><title>Node4</title>
<g id="a_node4"><a xlink:href="class_s_w___s_p_i_class.html" target="_top" xlink:title=" ">
<polygon fill="white" stroke="black" points="89,-124.5 89,-143.5 168,-143.5 168,-124.5 89,-124.5"/>
<text text-anchor="middle" x="128.5" y="-131.5" font-family="Helvetica,sans-Serif" font-size="10.00">SW_SPIClass</text>
</a>
</g>
</g>
<!-- Node4&#45;&gt;Node2 -->
<g id="edge3" class="edge"><title>Node4&#45;&gt;Node2</title>
<path fill="none" stroke="#9a32cd" stroke-dasharray="5,2" d="M116.138,-115.904C107.005,-103.273 94.9522,-86.6041 87.7382,-76.6273"/>
<polygon fill="#9a32cd" stroke="#9a32cd" points="113.466,-118.181 122.161,-124.234 119.138,-114.079 113.466,-118.181"/>
<text text-anchor="middle" x="141" y="-98" font-family="Helvetica,sans-Serif" font-size="10.00"> TMC_SW_SPI</text>
</g>
</g>
</svg>
