<?xml version="1.0" encoding="UTF-8" standalone="no"?>
<!DOCTYPE svg PUBLIC "-//W3C//DTD SVG 1.1//EN"
 "http://www.w3.org/Graphics/SVG/1.1/DTD/svg11.dtd">
<!-- Generated by graphviz version 2.38.0 (20140413.2041)
 -->
<!-- Title: TMC5160Stepper::recalibrate Pages: 1 -->
<svg width="812pt" height="104pt"
 viewBox="0.00 0.00 812.00 104.00" xmlns="http://www.w3.org/2000/svg" xmlns:xlink="http://www.w3.org/1999/xlink">
<g id="graph0" class="graph" transform="scale(1 1) rotate(0) translate(4 100)">
<title>TMC5160Stepper::recalibrate</title>
<polygon fill="white" stroke="none" points="-4,4 -4,-100 808,-100 808,4 -4,4"/>
<!-- Node1 -->
<g id="node1" class="node"><title>Node1</title>
<g id="a_node1"><a xlink:title=" ">
<polygon fill="#bfbfbf" stroke="black" points="0,-38.5 0,-57.5 143,-57.5 143,-38.5 0,-38.5"/>
<text text-anchor="middle" x="71.5" y="-45.5" font-family="Helvetica,sans-Serif" font-size="10.00">TMC5160Stepper::recalibrate</text>
</a>
</g>
</g>
<!-- Node2 -->
<g id="node2" class="node"><title>Node2</title>
<g id="a_node2"><a xlink:href="class_t_m_c2130_stepper.html#aee84a9abfc84b387c6ae5658f90bf684" target="_top" xlink:title=" ">
<polygon fill="white" stroke="black" points="179,-38.5 179,-57.5 311,-57.5 311,-38.5 179,-38.5"/>
<text text-anchor="middle" x="245" y="-45.5" font-family="Helvetica,sans-Serif" font-size="10.00">TMC2130Stepper::GCONF</text>
</a>
</g>
</g>
<!-- Node1&#45;&gt;Node2 -->
<g id="edge1" class="edge"><title>Node1&#45;&gt;Node2</title>
<path fill="none" stroke="midnightblue" d="M143.246,-48C151.642,-48 160.237,-48 168.694,-48"/>
<polygon fill="midnightblue" stroke="midnightblue" points="168.919,-51.5001 178.919,-48 168.919,-44.5001 168.919,-51.5001"/>
</g>
<!-- Node3 -->
<g id="node3" class="node"><title>Node3</title>
<g id="a_node3"><a xlink:href="class_t_m_c2130_stepper.html#aed0175bff6e80ebc14e0d2606283cbe0" target="_top" xlink:title=" ">
<polygon fill="white" stroke="black" points="347,-38.5 347,-57.5 463,-57.5 463,-38.5 347,-38.5"/>
<text text-anchor="middle" x="405" y="-45.5" font-family="Helvetica,sans-Serif" font-size="10.00">TMC2130Stepper::read</text>
</a>
</g>
</g>
<!-- Node2&#45;&gt;Node3 -->
<g id="edge2" class="edge"><title>Node2&#45;&gt;Node3</title>
<path fill="none" stroke="midnightblue" d="M311.177,-48C319.517,-48 328.069,-48 336.445,-48"/>
<polygon fill="midnightblue" stroke="midnightblue" points="336.55,-51.5001 346.55,-48 336.55,-44.5001 336.55,-51.5001"/>
</g>
<!-- Node4 -->
<g id="node4" class="node"><title>Node4</title>
<g id="a_node4"><a xlink:href="class_t_m_c2130_stepper.html#aed8aa4583943e649dbf3bb1c1da90d63" target="_top" xlink:title=" ">
<polygon fill="white" stroke="black" points="499,-76.5 499,-95.5 651,-95.5 651,-76.5 499,-76.5"/>
<text text-anchor="middle" x="575" y="-83.5" font-family="Helvetica,sans-Serif" font-size="10.00">TMC2130Stepper::switchCSpin</text>
</a>
</g>
</g>
<!-- Node3&#45;&gt;Node4 -->
<g id="edge3" class="edge"><title>Node3&#45;&gt;Node4</title>
<path fill="none" stroke="midnightblue" d="M448.393,-57.589C470.763,-62.6487 498.398,-68.8996 522.047,-74.2488"/>
<polygon fill="midnightblue" stroke="midnightblue" points="521.386,-77.6875 531.911,-76.4799 522.93,-70.8599 521.386,-77.6875"/>
</g>
<!-- Node5 -->
<g id="node5" class="node"><title>Node5</title>
<g id="a_node5"><a xlink:href="class_s_w___s_p_i_class.html#af260fdc0af3f1312b106483161e559c3" target="_top" xlink:title=" ">
<polygon fill="white" stroke="black" points="687,-19.5 687,-38.5 804,-38.5 804,-19.5 687,-19.5"/>
<text text-anchor="middle" x="745.5" y="-26.5" font-family="Helvetica,sans-Serif" font-size="10.00">SW_SPIClass::transfer</text>
</a>
</g>
</g>
<!-- Node3&#45;&gt;Node5 -->
<g id="edge4" class="edge"><title>Node3&#45;&gt;Node5</title>
<path fill="none" stroke="midnightblue" d="M463.039,-44.7984C522.027,-41.4874 614.113,-36.3186 676.765,-32.802"/>
<polygon fill="midnightblue" stroke="midnightblue" points="677.156,-36.2856 686.944,-32.2306 676.763,-29.2966 677.156,-36.2856"/>
</g>
<!-- Node6 -->
<g id="node6" class="node"><title>Node6</title>
<g id="a_node6"><a xlink:href="class_s_w___s_p_i_class.html#a1b7600aa1d9571c103718c5d3e376675" target="_top" xlink:title=" ">
<polygon fill="white" stroke="black" points="511,-0.5 511,-19.5 639,-19.5 639,-0.5 511,-0.5"/>
<text text-anchor="middle" x="575" y="-7.5" font-family="Helvetica,sans-Serif" font-size="10.00">SW_SPIClass::transfer16</text>
</a>
</g>
</g>
<!-- Node3&#45;&gt;Node6 -->
<g id="edge5" class="edge"><title>Node3&#45;&gt;Node6</title>
<path fill="none" stroke="midnightblue" d="M448.393,-38.411C470.763,-33.3513 498.398,-27.1004 522.047,-21.7512"/>
<polygon fill="midnightblue" stroke="midnightblue" points="522.93,-25.1401 531.911,-19.5201 521.386,-18.3125 522.93,-25.1401"/>
</g>
<!-- Node6&#45;&gt;Node5 -->
<g id="edge6" class="edge"><title>Node6&#45;&gt;Node5</title>
<path fill="none" stroke="midnightblue" d="M639.223,-17.129C651.406,-18.5028 664.217,-19.9473 676.543,-21.3372"/>
<polygon fill="midnightblue" stroke="midnightblue" points="676.43,-24.8466 686.76,-22.4892 677.215,-17.8907 676.43,-24.8466"/>
</g>
</g>
</svg>
