<?xml version="1.0" encoding="UTF-8" standalone="no"?>
<!DOCTYPE svg PUBLIC "-//W3C//DTD SVG 1.1//EN"
 "http://www.w3.org/Graphics/SVG/1.1/DTD/svg11.dtd">
<!-- Generated by graphviz version 2.38.0 (20140413.2041)
 -->
<!-- Title: TMC5160Stepper::tpfd Pages: 1 -->
<svg width="951pt" height="104pt"
 viewBox="0.00 0.00 951.00 104.00" xmlns="http://www.w3.org/2000/svg" xmlns:xlink="http://www.w3.org/1999/xlink">
<g id="graph0" class="graph" transform="scale(1 1) rotate(0) translate(4 100)">
<title>TMC5160Stepper::tpfd</title>
<polygon fill="white" stroke="none" points="-4,4 -4,-100 947,-100 947,4 -4,4"/>
<!-- Node1 -->
<g id="node1" class="node"><title>Node1</title>
<g id="a_node1"><a xlink:title=" ">
<polygon fill="#bfbfbf" stroke="black" points="0,-38.5 0,-57.5 113,-57.5 113,-38.5 0,-38.5"/>
<text text-anchor="middle" x="56.5" y="-45.5" font-family="Helvetica,sans-Serif" font-size="10.00">TMC5160Stepper::tpfd</text>
</a>
</g>
</g>
<!-- Node2 -->
<g id="node2" class="node"><title>Node2</title>
<g id="a_node2"><a xlink:href="class_t_m_c5160_stepper.html#a365f4343bff99bedff934f0647cbaa34" target="_top" xlink:title=" ">
<polygon fill="white" stroke="black" points="149,-38.5 149,-57.5 262,-57.5 262,-38.5 149,-38.5"/>
<text text-anchor="middle" x="205.5" y="-45.5" font-family="Helvetica,sans-Serif" font-size="10.00">TMC5160Stepper::tpfd</text>
</a>
</g>
</g>
<!-- Node1&#45;&gt;Node2 -->
<g id="edge1" class="edge"><title>Node1&#45;&gt;Node2</title>
<path fill="none" stroke="midnightblue" d="M113.074,-48C121.489,-48 130.238,-48 138.842,-48"/>
<polygon fill="midnightblue" stroke="midnightblue" points="138.847,-51.5001 148.847,-48 138.847,-44.5001 138.847,-51.5001"/>
</g>
<!-- Node3 -->
<g id="node3" class="node"><title>Node3</title>
<g id="a_node3"><a xlink:href="class_t_m_c2130_stepper.html#a67541b27d97ce45f175e9f6e4a2d0bff" target="_top" xlink:title=" ">
<polygon fill="white" stroke="black" points="298,-38.5 298,-57.5 450,-57.5 450,-38.5 298,-38.5"/>
<text text-anchor="middle" x="374" y="-45.5" font-family="Helvetica,sans-Serif" font-size="10.00">TMC2130Stepper::CHOPCONF</text>
</a>
</g>
</g>
<!-- Node2&#45;&gt;Node3 -->
<g id="edge2" class="edge"><title>Node2&#45;&gt;Node3</title>
<path fill="none" stroke="midnightblue" d="M262.405,-48C270.554,-48 279.095,-48 287.666,-48"/>
<polygon fill="midnightblue" stroke="midnightblue" points="287.719,-51.5001 297.719,-48 287.719,-44.5001 287.719,-51.5001"/>
</g>
<!-- Node4 -->
<g id="node4" class="node"><title>Node4</title>
<g id="a_node4"><a xlink:href="class_t_m_c2130_stepper.html#aed0175bff6e80ebc14e0d2606283cbe0" target="_top" xlink:title=" ">
<polygon fill="white" stroke="black" points="486,-38.5 486,-57.5 602,-57.5 602,-38.5 486,-38.5"/>
<text text-anchor="middle" x="544" y="-45.5" font-family="Helvetica,sans-Serif" font-size="10.00">TMC2130Stepper::read</text>
</a>
</g>
</g>
<!-- Node3&#45;&gt;Node4 -->
<g id="edge3" class="edge"><title>Node3&#45;&gt;Node4</title>
<path fill="none" stroke="midnightblue" d="M450.155,-48C458.664,-48 467.296,-48 475.696,-48"/>
<polygon fill="midnightblue" stroke="midnightblue" points="475.802,-51.5001 485.802,-48 475.802,-44.5001 475.802,-51.5001"/>
</g>
<!-- Node5 -->
<g id="node5" class="node"><title>Node5</title>
<g id="a_node5"><a xlink:href="class_t_m_c2130_stepper.html#aed8aa4583943e649dbf3bb1c1da90d63" target="_top" xlink:title=" ">
<polygon fill="white" stroke="black" points="638,-76.5 638,-95.5 790,-95.5 790,-76.5 638,-76.5"/>
<text text-anchor="middle" x="714" y="-83.5" font-family="Helvetica,sans-Serif" font-size="10.00">TMC2130Stepper::switchCSpin</text>
</a>
</g>
</g>
<!-- Node4&#45;&gt;Node5 -->
<g id="edge4" class="edge"><title>Node4&#45;&gt;Node5</title>
<path fill="none" stroke="midnightblue" d="M587.393,-57.589C609.763,-62.6487 637.398,-68.8996 661.047,-74.2488"/>
<polygon fill="midnightblue" stroke="midnightblue" points="660.386,-77.6875 670.911,-76.4799 661.93,-70.8599 660.386,-77.6875"/>
</g>
<!-- Node6 -->
<g id="node6" class="node"><title>Node6</title>
<g id="a_node6"><a xlink:href="class_s_w___s_p_i_class.html#af260fdc0af3f1312b106483161e559c3" target="_top" xlink:title=" ">
<polygon fill="white" stroke="black" points="826,-19.5 826,-38.5 943,-38.5 943,-19.5 826,-19.5"/>
<text text-anchor="middle" x="884.5" y="-26.5" font-family="Helvetica,sans-Serif" font-size="10.00">SW_SPIClass::transfer</text>
</a>
</g>
</g>
<!-- Node4&#45;&gt;Node6 -->
<g id="edge5" class="edge"><title>Node4&#45;&gt;Node6</title>
<path fill="none" stroke="midnightblue" d="M602.039,-44.7984C661.027,-41.4874 753.113,-36.3186 815.765,-32.802"/>
<polygon fill="midnightblue" stroke="midnightblue" points="816.156,-36.2856 825.944,-32.2306 815.763,-29.2966 816.156,-36.2856"/>
</g>
<!-- Node7 -->
<g id="node7" class="node"><title>Node7</title>
<g id="a_node7"><a xlink:href="class_s_w___s_p_i_class.html#a1b7600aa1d9571c103718c5d3e376675" target="_top" xlink:title=" ">
<polygon fill="white" stroke="black" points="650,-0.5 650,-19.5 778,-19.5 778,-0.5 650,-0.5"/>
<text text-anchor="middle" x="714" y="-7.5" font-family="Helvetica,sans-Serif" font-size="10.00">SW_SPIClass::transfer16</text>
</a>
</g>
</g>
<!-- Node4&#45;&gt;Node7 -->
<g id="edge6" class="edge"><title>Node4&#45;&gt;Node7</title>
<path fill="none" stroke="midnightblue" d="M587.393,-38.411C609.763,-33.3513 637.398,-27.1004 661.047,-21.7512"/>
<polygon fill="midnightblue" stroke="midnightblue" points="661.93,-25.1401 670.911,-19.5201 660.386,-18.3125 661.93,-25.1401"/>
</g>
<!-- Node7&#45;&gt;Node6 -->
<g id="edge7" class="edge"><title>Node7&#45;&gt;Node6</title>
<path fill="none" stroke="midnightblue" d="M778.223,-17.129C790.406,-18.5028 803.217,-19.9473 815.543,-21.3372"/>
<polygon fill="midnightblue" stroke="midnightblue" points="815.43,-24.8466 825.76,-22.4892 816.215,-17.8907 815.43,-24.8466"/>
</g>
</g>
</svg>
