<?xml version="1.0" encoding="UTF-8" standalone="no"?>
<!DOCTYPE svg PUBLIC "-//W3C//DTD SVG 1.1//EN"
 "http://www.w3.org/Graphics/SVG/1.1/DTD/svg11.dtd">
<!-- Generated by graphviz version 2.38.0 (20140413.2041)
 -->
<!-- Title: TMC2130Stepper::XDIRECT Pages: 1 -->
<svg width="306pt" height="218pt"
 viewBox="0.00 0.00 306.00 218.00" xmlns="http://www.w3.org/2000/svg" xmlns:xlink="http://www.w3.org/1999/xlink">
<g id="graph0" class="graph" transform="scale(1 1) rotate(0) translate(4 214)">
<title>TMC2130Stepper::XDIRECT</title>
<polygon fill="white" stroke="none" points="-4,4 -4,-214 302,-214 302,4 -4,4"/>
<!-- Node1 -->
<g id="node1" class="node"><title>Node1</title>
<g id="a_node1"><a xlink:title=" ">
<polygon fill="#bfbfbf" stroke="black" points="161,-95.5 161,-114.5 298,-114.5 298,-95.5 161,-95.5"/>
<text text-anchor="middle" x="229.5" y="-102.5" font-family="Helvetica,sans-Serif" font-size="10.00">TMC2130Stepper::XDIRECT</text>
</a>
</g>
</g>
<!-- Node2 -->
<g id="node2" class="node"><title>Node2</title>
<g id="a_node2"><a xlink:href="class_t_m_c2130_stepper.html#ac05adb95ef728ef435bf8798adeda888" target="_top" xlink:title=" ">
<polygon fill="white" stroke="black" points="0,-190.5 0,-209.5 125,-209.5 125,-190.5 0,-190.5"/>
<text text-anchor="middle" x="62.5" y="-197.5" font-family="Helvetica,sans-Serif" font-size="10.00">TMC2130Stepper::coil_A</text>
</a>
</g>
</g>
<!-- Node1&#45;&gt;Node2 -->
<g id="edge1" class="edge"><title>Node1&#45;&gt;Node2</title>
<path fill="none" stroke="midnightblue" d="M210.523,-121.137C190.794,-138.112 157.579,-164.594 125,-181 117.614,-184.719 109.359,-187.876 101.355,-190.485"/>
<polygon fill="midnightblue" stroke="midnightblue" points="212.887,-123.719 218.111,-114.501 208.279,-118.449 212.887,-123.719"/>
</g>
<!-- Node3 -->
<g id="node3" class="node"><title>Node3</title>
<g id="a_node3"><a xlink:href="class_t_m_c2130_stepper.html#a43481d6754741d995b69a82e83076573" target="_top" xlink:title=" ">
<polygon fill="white" stroke="black" points="0,-152.5 0,-171.5 125,-171.5 125,-152.5 0,-152.5"/>
<text text-anchor="middle" x="62.5" y="-159.5" font-family="Helvetica,sans-Serif" font-size="10.00">TMC2130Stepper::coil_B</text>
</a>
</g>
</g>
<!-- Node1&#45;&gt;Node3 -->
<g id="edge2" class="edge"><title>Node1&#45;&gt;Node3</title>
<path fill="none" stroke="midnightblue" d="M193.907,-118.214C173.871,-125.738 148.116,-135.192 125,-143 115.471,-146.219 105.041,-149.523 95.5216,-152.454"/>
<polygon fill="midnightblue" stroke="midnightblue" points="195.412,-121.387 203.533,-114.583 192.941,-114.838 195.412,-121.387"/>
</g>
<!-- Node4 -->
<g id="node4" class="node"><title>Node4</title>
<g id="a_node4"><a xlink:href="class_t_m_c2130_stepper.html#ac62d32ad08be0a34b411bdd5a8489246" target="_top" xlink:title=" ">
<polygon fill="white" stroke="black" points="3,-114.5 3,-133.5 122,-133.5 122,-114.5 3,-114.5"/>
<text text-anchor="middle" x="62.5" y="-121.5" font-family="Helvetica,sans-Serif" font-size="10.00">TMC2130Stepper::push</text>
</a>
</g>
</g>
<!-- Node1&#45;&gt;Node4 -->
<g id="edge3" class="edge"><title>Node1&#45;&gt;Node4</title>
<path fill="none" stroke="midnightblue" d="M150.853,-113.941C141.148,-115.059 131.353,-116.187 122.008,-117.263"/>
<polygon fill="midnightblue" stroke="midnightblue" points="151.378,-117.404 160.912,-112.783 150.577,-110.45 151.378,-117.404"/>
</g>
<!-- Node5 -->
<g id="node5" class="node"><title>Node5</title>
<g id="a_node5"><a xlink:href="class_t_m_c2160_stepper.html#ae8035a0cb8151d5227d8528e540e637d" target="_top" xlink:title=" ">
<polygon fill="white" stroke="black" points="3,-76.5 3,-95.5 122,-95.5 122,-76.5 3,-76.5"/>
<text text-anchor="middle" x="62.5" y="-83.5" font-family="Helvetica,sans-Serif" font-size="10.00">TMC2160Stepper::push</text>
</a>
</g>
</g>
<!-- Node1&#45;&gt;Node5 -->
<g id="edge4" class="edge"><title>Node1&#45;&gt;Node5</title>
<path fill="none" stroke="midnightblue" d="M150.853,-96.0589C141.148,-94.9413 131.353,-93.8134 122.008,-92.7372"/>
<polygon fill="midnightblue" stroke="midnightblue" points="150.577,-99.5501 160.912,-97.2172 151.378,-92.5961 150.577,-99.5501"/>
</g>
<!-- Node6 -->
<g id="node6" class="node"><title>Node6</title>
<g id="a_node6"><a xlink:href="class_t_m_c5130_stepper.html#a55e61f5181d74f26c9d35c54e4436d7a" target="_top" xlink:title=" ">
<polygon fill="white" stroke="black" points="3,-38.5 3,-57.5 122,-57.5 122,-38.5 3,-38.5"/>
<text text-anchor="middle" x="62.5" y="-45.5" font-family="Helvetica,sans-Serif" font-size="10.00">TMC5130Stepper::push</text>
</a>
</g>
</g>
<!-- Node1&#45;&gt;Node6 -->
<g id="edge5" class="edge"><title>Node1&#45;&gt;Node6</title>
<path fill="none" stroke="midnightblue" d="M193.907,-91.7861C173.871,-84.2616 148.116,-74.8082 125,-67 115.471,-63.7813 105.041,-60.4775 95.5216,-57.5461"/>
<polygon fill="midnightblue" stroke="midnightblue" points="192.941,-95.1622 203.533,-95.4174 195.412,-88.6128 192.941,-95.1622"/>
</g>
<!-- Node7 -->
<g id="node7" class="node"><title>Node7</title>
<g id="a_node7"><a xlink:href="class_t_m_c5160_stepper.html#a5a12974304588f9d01898d91ba854b87" target="_top" xlink:title=" ">
<polygon fill="white" stroke="black" points="3,-0.5 3,-19.5 122,-19.5 122,-0.5 3,-0.5"/>
<text text-anchor="middle" x="62.5" y="-7.5" font-family="Helvetica,sans-Serif" font-size="10.00">TMC5160Stepper::push</text>
</a>
</g>
</g>
<!-- Node1&#45;&gt;Node7 -->
<g id="edge6" class="edge"><title>Node1&#45;&gt;Node7</title>
<path fill="none" stroke="midnightblue" d="M210.523,-88.8631C190.794,-71.8879 157.579,-45.4061 125,-29 117.614,-25.2806 109.359,-22.1239 101.355,-19.5154"/>
<polygon fill="midnightblue" stroke="midnightblue" points="208.279,-91.5508 218.111,-95.4991 212.887,-86.2815 208.279,-91.5508"/>
</g>
</g>
</svg>
