<?xml version="1.0" encoding="UTF-8" standalone="no"?>
<!DOCTYPE svg PUBLIC "-//W3C//DTD SVG 1.1//EN"
 "http://www.w3.org/Graphics/SVG/1.1/DTD/svg11.dtd">
<!-- Generated by graphviz version 2.38.0 (20140413.2041)
 -->
<!-- Title: TMC2160Stepper::pwm_scale_sum Pages: 1 -->
<svg width="777pt" height="104pt"
 viewBox="0.00 0.00 777.00 104.00" xmlns="http://www.w3.org/2000/svg" xmlns:xlink="http://www.w3.org/1999/xlink">
<g id="graph0" class="graph" transform="scale(1 1) rotate(0) translate(4 100)">
<title>TMC2160Stepper::pwm_scale_sum</title>
<polygon fill="white" stroke="none" points="-4,4 -4,-100 773,-100 773,4 -4,4"/>
<!-- Node1 -->
<g id="node1" class="node"><title>Node1</title>
<g id="a_node1"><a xlink:title=" ">
<polygon fill="#bfbfbf" stroke="black" points="0,-33 0,-63 118,-63 118,-33 0,-33"/>
<text text-anchor="start" x="8" y="-51" font-family="Helvetica,sans-Serif" font-size="10.00">TMC2160Stepper::pwm</text>
<text text-anchor="middle" x="59" y="-40" font-family="Helvetica,sans-Serif" font-size="10.00">_scale_sum</text>
</a>
</g>
</g>
<!-- Node2 -->
<g id="node2" class="node"><title>Node2</title>
<g id="a_node2"><a xlink:href="class_t_m_c2160_stepper.html#a105381369f3d6267e907ff4ea0b31aac" target="_top" xlink:title=" ">
<polygon fill="white" stroke="black" points="154,-33 154,-63 276,-63 276,-33 154,-33"/>
<text text-anchor="start" x="162" y="-51" font-family="Helvetica,sans-Serif" font-size="10.00">TMC2160Stepper::PWM</text>
<text text-anchor="middle" x="215" y="-40" font-family="Helvetica,sans-Serif" font-size="10.00">_SCALE</text>
</a>
</g>
</g>
<!-- Node1&#45;&gt;Node2 -->
<g id="edge1" class="edge"><title>Node1&#45;&gt;Node2</title>
<path fill="none" stroke="midnightblue" d="M118.221,-48C126.608,-48 135.312,-48 143.9,-48"/>
<polygon fill="midnightblue" stroke="midnightblue" points="143.903,-51.5001 153.903,-48 143.903,-44.5001 143.903,-51.5001"/>
</g>
<!-- Node3 -->
<g id="node3" class="node"><title>Node3</title>
<g id="a_node3"><a xlink:href="class_t_m_c2130_stepper.html#aed0175bff6e80ebc14e0d2606283cbe0" target="_top" xlink:title=" ">
<polygon fill="white" stroke="black" points="312,-38.5 312,-57.5 428,-57.5 428,-38.5 312,-38.5"/>
<text text-anchor="middle" x="370" y="-45.5" font-family="Helvetica,sans-Serif" font-size="10.00">TMC2130Stepper::read</text>
</a>
</g>
</g>
<!-- Node2&#45;&gt;Node3 -->
<g id="edge2" class="edge"><title>Node2&#45;&gt;Node3</title>
<path fill="none" stroke="midnightblue" d="M276.031,-48C284.363,-48 292.969,-48 301.428,-48"/>
<polygon fill="midnightblue" stroke="midnightblue" points="301.644,-51.5001 311.644,-48 301.644,-44.5001 301.644,-51.5001"/>
</g>
<!-- Node4 -->
<g id="node4" class="node"><title>Node4</title>
<g id="a_node4"><a xlink:href="class_t_m_c2130_stepper.html#aed8aa4583943e649dbf3bb1c1da90d63" target="_top" xlink:title=" ">
<polygon fill="white" stroke="black" points="464,-76.5 464,-95.5 616,-95.5 616,-76.5 464,-76.5"/>
<text text-anchor="middle" x="540" y="-83.5" font-family="Helvetica,sans-Serif" font-size="10.00">TMC2130Stepper::switchCSpin</text>
</a>
</g>
</g>
<!-- Node3&#45;&gt;Node4 -->
<g id="edge3" class="edge"><title>Node3&#45;&gt;Node4</title>
<path fill="none" stroke="midnightblue" d="M413.393,-57.589C435.763,-62.6487 463.398,-68.8996 487.047,-74.2488"/>
<polygon fill="midnightblue" stroke="midnightblue" points="486.386,-77.6875 496.911,-76.4799 487.93,-70.8599 486.386,-77.6875"/>
</g>
<!-- Node5 -->
<g id="node5" class="node"><title>Node5</title>
<g id="a_node5"><a xlink:href="class_s_w___s_p_i_class.html#af260fdc0af3f1312b106483161e559c3" target="_top" xlink:title=" ">
<polygon fill="white" stroke="black" points="652,-19.5 652,-38.5 769,-38.5 769,-19.5 652,-19.5"/>
<text text-anchor="middle" x="710.5" y="-26.5" font-family="Helvetica,sans-Serif" font-size="10.00">SW_SPIClass::transfer</text>
</a>
</g>
</g>
<!-- Node3&#45;&gt;Node5 -->
<g id="edge4" class="edge"><title>Node3&#45;&gt;Node5</title>
<path fill="none" stroke="midnightblue" d="M428.039,-44.7984C487.027,-41.4874 579.113,-36.3186 641.765,-32.802"/>
<polygon fill="midnightblue" stroke="midnightblue" points="642.156,-36.2856 651.944,-32.2306 641.763,-29.2966 642.156,-36.2856"/>
</g>
<!-- Node6 -->
<g id="node6" class="node"><title>Node6</title>
<g id="a_node6"><a xlink:href="class_s_w___s_p_i_class.html#a1b7600aa1d9571c103718c5d3e376675" target="_top" xlink:title=" ">
<polygon fill="white" stroke="black" points="476,-0.5 476,-19.5 604,-19.5 604,-0.5 476,-0.5"/>
<text text-anchor="middle" x="540" y="-7.5" font-family="Helvetica,sans-Serif" font-size="10.00">SW_SPIClass::transfer16</text>
</a>
</g>
</g>
<!-- Node3&#45;&gt;Node6 -->
<g id="edge5" class="edge"><title>Node3&#45;&gt;Node6</title>
<path fill="none" stroke="midnightblue" d="M413.393,-38.411C435.763,-33.3513 463.398,-27.1004 487.047,-21.7512"/>
<polygon fill="midnightblue" stroke="midnightblue" points="487.93,-25.1401 496.911,-19.5201 486.386,-18.3125 487.93,-25.1401"/>
</g>
<!-- Node6&#45;&gt;Node5 -->
<g id="edge6" class="edge"><title>Node6&#45;&gt;Node5</title>
<path fill="none" stroke="midnightblue" d="M604.223,-17.129C616.406,-18.5028 629.217,-19.9473 641.543,-21.3372"/>
<polygon fill="midnightblue" stroke="midnightblue" points="641.43,-24.8466 651.76,-22.4892 642.215,-17.8907 641.43,-24.8466"/>
</g>
</g>
</svg>
