<?xml version="1.0" encoding="UTF-8" standalone="no"?>
<!DOCTYPE svg PUBLIC "-//W3C//DTD SVG 1.1//EN"
 "http://www.w3.org/Graphics/SVG/1.1/DTD/svg11.dtd">
<!-- Generated by graphviz version 2.38.0 (20140413.2041)
 -->
<!-- Title: TMC2208Stepper::pdn_uart Pages: 1 -->
<svg width="830pt" height="140pt"
 viewBox="0.00 0.00 830.00 139.53" xmlns="http://www.w3.org/2000/svg" xmlns:xlink="http://www.w3.org/1999/xlink">
<g id="graph0" class="graph" transform="scale(1 1) rotate(0) translate(4 135.532)">
<title>TMC2208Stepper::pdn_uart</title>
<polygon fill="white" stroke="none" points="-4,4 -4,-135.532 826,-135.532 826,4 -4,4"/>
<!-- Node1 -->
<g id="node1" class="node"><title>Node1</title>
<g id="a_node1"><a xlink:title=" ">
<polygon fill="#bfbfbf" stroke="black" points="0,-4.03223 0,-23.0322 135,-23.0322 135,-4.03223 0,-4.03223"/>
<text text-anchor="middle" x="67.5" y="-11.0322" font-family="Helvetica,sans-Serif" font-size="10.00">TMC2208Stepper::pdn_uart</text>
</a>
</g>
</g>
<!-- Node2 -->
<g id="node2" class="node"><title>Node2</title>
<g id="a_node2"><a xlink:href="class_t_m_c2208_stepper.html#a5441dd87d0bcea4ffc309cb012166a57" target="_top" xlink:title=" ">
<polygon fill="white" stroke="black" points="171,-4.03223 171,-23.0322 287,-23.0322 287,-4.03223 171,-4.03223"/>
<text text-anchor="middle" x="229" y="-11.0322" font-family="Helvetica,sans-Serif" font-size="10.00">TMC2208Stepper::IOIN</text>
</a>
</g>
</g>
<!-- Node1&#45;&gt;Node2 -->
<g id="edge1" class="edge"><title>Node1&#45;&gt;Node2</title>
<path fill="none" stroke="midnightblue" d="M135.218,-13.5322C143.593,-13.5322 152.166,-13.5322 160.552,-13.5322"/>
<polygon fill="midnightblue" stroke="midnightblue" points="160.663,-17.0323 170.663,-13.5322 160.663,-10.0323 160.663,-17.0323"/>
</g>
<!-- Node3 -->
<g id="node3" class="node"><title>Node3</title>
<g id="a_node3"><a xlink:href="class_t_m_c2208_stepper.html#a2fae2050849c3ab7968012def8ea1cc5" target="_top" xlink:title=" ">
<polygon fill="white" stroke="black" points="323,-33.0322 323,-52.0322 439,-52.0322 439,-33.0322 323,-33.0322"/>
<text text-anchor="middle" x="381" y="-40.0322" font-family="Helvetica,sans-Serif" font-size="10.00">TMC2208Stepper::read</text>
</a>
</g>
</g>
<!-- Node2&#45;&gt;Node3 -->
<g id="edge2" class="edge"><title>Node2&#45;&gt;Node3</title>
<path fill="none" stroke="midnightblue" d="M279.531,-23.1083C292.784,-25.6705 307.241,-28.4655 320.952,-31.1163"/>
<polygon fill="midnightblue" stroke="midnightblue" points="320.294,-34.5538 330.776,-33.0157 321.623,-27.681 320.294,-34.5538"/>
</g>
<!-- Node4 -->
<g id="node4" class="node"><title>Node4</title>
<g id="a_node4"><a xlink:href="class_t_m_c2208_stepper.html#a3e1f6a10aa1e3e41dc2594dbe1ea8a1d" target="_top" xlink:title=" ">
<polygon fill="white" stroke="black" points="475,-90.0322 475,-109.032 641,-109.032 641,-90.0322 475,-90.0322"/>
<text text-anchor="middle" x="558" y="-97.0322" font-family="Helvetica,sans-Serif" font-size="10.00">TMC2208Stepper::_sendDatagram</text>
</a>
</g>
</g>
<!-- Node3&#45;&gt;Node4 -->
<g id="edge3" class="edge"><title>Node3&#45;&gt;Node4</title>
<path fill="none" stroke="midnightblue" d="M402.7,-52.1104C421.317,-60.4533 449.568,-72.4476 475,-80.5322 483.008,-83.0779 491.555,-85.4385 499.996,-87.5688"/>
<polygon fill="midnightblue" stroke="midnightblue" points="499.272,-90.9948 509.816,-89.9611 500.929,-84.1937 499.272,-90.9948"/>
</g>
<!-- Node8 -->
<g id="node8" class="node"><title>Node8</title>
<g id="a_node8"><a xlink:href="class_s_switch.html#a6ff09d0850d551571dc333fb74ff8628" target="_top" xlink:title=" ">
<polygon fill="white" stroke="black" points="516.5,-52.0322 516.5,-71.0322 599.5,-71.0322 599.5,-52.0322 516.5,-52.0322"/>
<text text-anchor="middle" x="558" y="-59.0322" font-family="Helvetica,sans-Serif" font-size="10.00">SSwitch::active</text>
</a>
</g>
</g>
<!-- Node3&#45;&gt;Node8 -->
<g id="edge8" class="edge"><title>Node3&#45;&gt;Node8</title>
<path fill="none" stroke="midnightblue" d="M439.302,-48.7535C460.975,-51.1066 485.465,-53.7656 506.472,-56.0463"/>
<polygon fill="midnightblue" stroke="midnightblue" points="506.158,-59.5327 516.477,-57.1326 506.913,-52.5736 506.158,-59.5327"/>
</g>
<!-- Node9 -->
<g id="node9" class="node"><title>Node9</title>
<g id="a_node9"><a xlink:href="class_t_m_c2208_stepper.html#a409c19fa6b052a370a317d061bf9af4e" target="_top" xlink:title=" ">
<polygon fill="white" stroke="black" points="490,-14.0322 490,-33.0322 626,-33.0322 626,-14.0322 490,-14.0322"/>
<text text-anchor="middle" x="558" y="-21.0322" font-family="Helvetica,sans-Serif" font-size="10.00">TMC2208Stepper::calcCRC</text>
</a>
</g>
</g>
<!-- Node3&#45;&gt;Node9 -->
<g id="edge9" class="edge"><title>Node3&#45;&gt;Node9</title>
<path fill="none" stroke="midnightblue" d="M439.302,-36.3109C452.17,-34.9138 466.032,-33.4088 479.567,-31.9392"/>
<polygon fill="midnightblue" stroke="midnightblue" points="480.269,-35.3836 489.833,-30.8246 479.514,-28.4245 480.269,-35.3836"/>
</g>
<!-- Node5 -->
<g id="node5" class="node"><title>Node5</title>
<g id="a_node5"><a xlink:href="class_t_m_c2208_stepper.html#a4ec5d2b2f5a31259c7aba1f3208d63b8" target="_top" xlink:title=" ">
<polygon fill="white" stroke="black" points="691.5,-11.0322 691.5,-30.0322 807.5,-30.0322 807.5,-11.0322 691.5,-11.0322"/>
<text text-anchor="middle" x="749.5" y="-18.0322" font-family="Helvetica,sans-Serif" font-size="10.00">TMC2208Stepper::ms2</text>
</a>
</g>
</g>
<!-- Node4&#45;&gt;Node5 -->
<g id="edge4" class="edge"><title>Node4&#45;&gt;Node5</title>
<path fill="none" stroke="midnightblue" d="M615.242,-89.9247C624.083,-87.4489 632.952,-84.3643 641,-80.5322 659.301,-71.8185 659.624,-62.9698 677,-52.5322 688.591,-45.5698 701.963,-39.1888 713.984,-33.9877"/>
<polygon fill="midnightblue" stroke="midnightblue" points="715.414,-37.1834 723.276,-30.081 712.701,-30.7305 715.414,-37.1834"/>
</g>
<!-- Node6 -->
<g id="node6" class="node"><title>Node6</title>
<g id="a_node6"><a xlink:href="class_t_m_c2208_stepper.html#ae561da4ec7c40830e97bf4dc8cf700fb" target="_top" xlink:title=" ">
<polygon fill="white" stroke="black" points="677,-112.032 677,-131.032 822,-131.032 822,-112.032 677,-112.032"/>
<text text-anchor="middle" x="749.5" y="-119.032" font-family="Helvetica,sans-Serif" font-size="10.00">TMC2208Stepper::serial_read</text>
</a>
</g>
</g>
<!-- Node4&#45;&gt;Node6 -->
<g id="edge6" class="edge"><title>Node4&#45;&gt;Node6</title>
<path fill="none" stroke="midnightblue" d="M641.015,-109.054C649.571,-110.047 658.268,-111.057 666.819,-112.05"/>
<polygon fill="midnightblue" stroke="midnightblue" points="666.438,-115.529 676.775,-113.205 667.245,-108.575 666.438,-115.529"/>
</g>
<!-- Node7 -->
<g id="node7" class="node"><title>Node7</title>
<g id="a_node7"><a xlink:href="class_t_m_c2208_stepper.html#a7dd83313385079099b0622957786a979" target="_top" xlink:title=" ">
<polygon fill="white" stroke="black" points="689,-62.5322 689,-92.5322 810,-92.5322 810,-62.5322 689,-62.5322"/>
<text text-anchor="start" x="697" y="-80.5322" font-family="Helvetica,sans-Serif" font-size="10.00">TMC2208Stepper::serial</text>
<text text-anchor="middle" x="749.5" y="-69.5322" font-family="Helvetica,sans-Serif" font-size="10.00">_write</text>
</a>
</g>
</g>
<!-- Node4&#45;&gt;Node7 -->
<g id="edge7" class="edge"><title>Node4&#45;&gt;Node7</title>
<path fill="none" stroke="midnightblue" d="M641.015,-90.0107C653.597,-88.55 666.484,-87.0539 678.767,-85.6279"/>
<polygon fill="midnightblue" stroke="midnightblue" points="679.392,-89.0789 688.922,-84.4489 678.585,-82.1256 679.392,-89.0789"/>
</g>
<!-- Node5&#45;&gt;Node2 -->
<g id="edge5" class="edge"><title>Node5&#45;&gt;Node2</title>
<path fill="none" stroke="midnightblue" d="M695.088,-10.9924C677.881,-8.34632 658.688,-5.84135 641,-4.53223 520.185,4.40943 378.893,-2.4631 297.393,-8.10973"/>
<polygon fill="midnightblue" stroke="midnightblue" points="296.998,-4.62883 287.27,-8.82619 297.492,-11.6114 296.998,-4.62883"/>
</g>
</g>
</svg>
