<?xml version="1.0" encoding="UTF-8" standalone="no"?>
<!DOCTYPE svg PUBLIC "-//W3C//DTD SVG 1.1//EN"
 "http://www.w3.org/Graphics/SVG/1.1/DTD/svg11.dtd">
<!-- Generated by graphviz version 2.38.0 (20140413.2041)
 -->
<!-- Title: TMC2208Stepper::IOIN Pages: 1 -->
<!--zoomable 1025 -->
<svg id="main" version="1.1" xmlns="http://www.w3.org/2000/svg" xmlns:xlink="http://www.w3.org/1999/xlink" xml:space="preserve" onload="init(evt)">
<style type="text/css"><![CDATA[
.edge:hover path { stroke: red; }
.edge:hover polygon { stroke: red; fill: red; }
]]></style>
<script type="text/javascript"><![CDATA[
var edges = document.getElementsByTagName('g');
if (edges && edges.length) {
  for (var i=0;i<edges.length;i++) {
    if (edges[i].id.substr(0,4)=='edge') {
      edges[i].setAttribute('class','edge');
    }
  }
}
]]></script>
        <defs>
                <circle id="rim" cx="0" cy="0" r="7"/>
                <circle id="rim2" cx="0" cy="0" r="3.5"/>
                <g id="zoomPlus">
                        <use xlink:href="#rim" fill="#404040">
                                <set attributeName="fill" to="#808080" begin="zoomplus.mouseover" end="zoomplus.mouseout"/>
                        </use>
                        <path d="M-4,0h8M0,-4v8" fill="none" stroke="white" stroke-width="1.5" pointer-events="none"/>
                </g>
                <g id="zoomMin">
                        <use xlink:href="#rim" fill="#404040">
                                <set attributeName="fill" to="#808080" begin="zoomminus.mouseover" end="zoomminus.mouseout"/>
                        </use>
                        <path d="M-4,0h8" fill="none" stroke="white" stroke-width="1.5" pointer-events="none"/>
                </g>
                <g id="dirArrow">
                        <path fill="none" stroke="white" stroke-width="1.5" d="M0,-3.0v7 M-2.5,-0.5L0,-3.0L2.5,-0.5"/>
                </g>
               <g id="resetDef">
                       <use xlink:href="#rim2" fill="#404040">
                               <set attributeName="fill" to="#808080" begin="reset.mouseover" end="reset.mouseout"/>
                       </use>
               </g>
        </defs>

<script type="text/javascript">
var viewWidth = 1225;
var viewHeight = 1025;
var sectionId = 'dynsection-56';
</script>
<script xlink:href="svgpan.js"/>
<svg id="graph" class="graph">
<g id="viewport">
<title>TMC2208Stepper::IOIN</title>
<polygon fill="white" stroke="none" points="-4,4 -4,-1021.5 1221,-1021.5 1221,4 -4,4"/>
<!-- Node1 -->
<g id="node1" class="node"><title>Node1</title>
<g id="a_node1"><a xlink:title=" ">
<polygon fill="#bfbfbf" stroke="black" points="1101,-402.5 1101,-421.5 1217,-421.5 1217,-402.5 1101,-402.5"/>
<text text-anchor="middle" x="1159" y="-409.5" font-family="Helvetica,sans-Serif" font-size="10.00">TMC2208Stepper::IOIN</text>
</a>
</g>
</g>
<!-- Node2 -->
<g id="node2" class="node"><title>Node2</title>
<g id="a_node2"><a xlink:href="class_t_m_c2208_stepper.html#a3e89d66eba91684da6dce09b366aa716" target="_top" xlink:title=" ">
<polygon fill="white" stroke="black" points="939.5,-573.5 939.5,-592.5 1055.5,-592.5 1055.5,-573.5 939.5,-573.5"/>
<text text-anchor="middle" x="997.5" y="-580.5" font-family="Helvetica,sans-Serif" font-size="10.00">TMC2208Stepper::diag</text>
</a>
</g>
</g>
<!-- Node1&#45;&gt;Node2 -->
<g id="edge1" class="edge"><title>Node1&#45;&gt;Node2</title>
<path fill="none" stroke="midnightblue" d="M1151.56,-431.143C1139.68,-463.484 1111.24,-528.844 1065,-564 1059.93,-567.851 1054.12,-570.922 1048.07,-573.371"/>
<polygon fill="midnightblue" stroke="midnightblue" points="1154.92,-432.127 1154.95,-421.532 1148.32,-429.796 1154.92,-432.127"/>
</g>
<!-- Node3 -->
<g id="node3" class="node"><title>Node3</title>
<g id="a_node3"><a xlink:href="class_t_m_c2208_stepper.html#af4a3a3c37720a10e59331f74c8a84a4e" target="_top" xlink:title=" ">
<polygon fill="white" stroke="black" points="943.5,-535.5 943.5,-554.5 1051.5,-554.5 1051.5,-535.5 943.5,-535.5"/>
<text text-anchor="middle" x="997.5" y="-542.5" font-family="Helvetica,sans-Serif" font-size="10.00">TMC2208Stepper::dir</text>
</a>
</g>
</g>
<!-- Node1&#45;&gt;Node3 -->
<g id="edge2" class="edge"><title>Node1&#45;&gt;Node3</title>
<path fill="none" stroke="midnightblue" d="M1146.89,-430.112C1131.35,-454.062 1100.93,-496.13 1065,-521 1056.12,-527.147 1045.49,-531.904 1035.35,-535.5"/>
<polygon fill="midnightblue" stroke="midnightblue" points="1149.88,-431.936 1152.28,-421.615 1143.97,-428.189 1149.88,-431.936"/>
</g>
<!-- Node4 -->
<g id="node4" class="node"><title>Node4</title>
<g id="a_node4"><a xlink:href="class_t_m_c2208_stepper.html#acc1f92ce007231215fc4266fb4b99a62" target="_top" xlink:title=" ">
<polygon fill="white" stroke="black" points="754.5,-753.5 754.5,-772.5 867.5,-772.5 867.5,-753.5 754.5,-753.5"/>
<text text-anchor="middle" x="811" y="-760.5" font-family="Helvetica,sans-Serif" font-size="10.00">TMC2208Stepper::enn</text>
</a>
</g>
</g>
<!-- Node1&#45;&gt;Node4 -->
<g id="edge3" class="edge"><title>Node1&#45;&gt;Node4</title>
<path fill="none" stroke="midnightblue" d="M1140.1,-428.692C1122.26,-444.566 1093.49,-468.162 1065,-483 1009.15,-512.09 977.812,-485.021 930,-526 853.92,-591.208 821.845,-717.221 813.999,-753.195"/>
<polygon fill="midnightblue" stroke="midnightblue" points="1142.88,-430.902 1147.94,-421.592 1138.18,-425.717 1142.88,-430.902"/>
</g>
<!-- Node6 -->
<g id="node6" class="node"><title>Node6</title>
<g id="a_node6"><a xlink:href="class_t_m_c2208_stepper.html#adbace6f10c292506035b9d162ed239b4" target="_top" xlink:title=" ">
<polygon fill="white" stroke="black" points="939.5,-383.5 939.5,-402.5 1055.5,-402.5 1055.5,-383.5 939.5,-383.5"/>
<text text-anchor="middle" x="997.5" y="-390.5" font-family="Helvetica,sans-Serif" font-size="10.00">TMC2208Stepper::ms1</text>
</a>
</g>
</g>
<!-- Node1&#45;&gt;Node6 -->
<g id="edge5" class="edge"><title>Node1&#45;&gt;Node6</title>
<path fill="none" stroke="midnightblue" d="M1090.7,-403.983C1078.98,-402.587 1066.9,-401.148 1055.5,-399.79"/>
<polygon fill="midnightblue" stroke="midnightblue" points="1090.52,-407.487 1100.87,-405.194 1091.35,-400.536 1090.52,-407.487"/>
</g>
<!-- Node7 -->
<g id="node7" class="node"><title>Node7</title>
<g id="a_node7"><a xlink:href="class_t_m_c2208_stepper.html#a4ec5d2b2f5a31259c7aba1f3208d63b8" target="_top" xlink:title=" ">
<polygon fill="white" stroke="black" points="939.5,-421.5 939.5,-440.5 1055.5,-440.5 1055.5,-421.5 939.5,-421.5"/>
<text text-anchor="middle" x="997.5" y="-428.5" font-family="Helvetica,sans-Serif" font-size="10.00">TMC2208Stepper::ms2</text>
</a>
</g>
</g>
<!-- Node1&#45;&gt;Node7 -->
<g id="edge6" class="edge"><title>Node1&#45;&gt;Node7</title>
<path fill="none" stroke="midnightblue" d="M1090.7,-420.017C1078.98,-421.413 1066.9,-422.852 1055.5,-424.21"/>
<polygon fill="midnightblue" stroke="midnightblue" points="1091.35,-423.464 1100.87,-418.806 1090.52,-416.513 1091.35,-423.464"/>
</g>
<!-- Node92 -->
<g id="node47" class="node"><title>Node92</title>
<g id="a_node47"><a xlink:href="class_t_m_c2208_stepper.html#ab1a4fdff9c56ed07ba453f961864e769" target="_top" xlink:title=" ">
<polygon fill="white" stroke="black" points="930,-345.5 930,-364.5 1065,-364.5 1065,-345.5 930,-345.5"/>
<text text-anchor="middle" x="997.5" y="-352.5" font-family="Helvetica,sans-Serif" font-size="10.00">TMC2208Stepper::pdn_uart</text>
</a>
</g>
</g>
<!-- Node1&#45;&gt;Node92 -->
<g id="edge52" class="edge"><title>Node1&#45;&gt;Node92</title>
<path fill="none" stroke="midnightblue" d="M1127.07,-398.368C1109.13,-390.712 1086,-381.266 1065,-374 1055.24,-370.624 1044.53,-367.372 1034.62,-364.541"/>
<polygon fill="midnightblue" stroke="midnightblue" points="1125.89,-401.669 1136.46,-402.412 1128.66,-395.241 1125.89,-401.669"/>
</g>
<!-- Node93 -->
<g id="node48" class="node"><title>Node93</title>
<g id="a_node48"><a xlink:href="class_t_m_c2208_stepper.html#a462e14ef67b55c14c361c741767eee5e" target="_top" xlink:title=" ">
<polygon fill="white" stroke="black" points="937,-307.5 937,-326.5 1058,-326.5 1058,-307.5 937,-307.5"/>
<text text-anchor="middle" x="997.5" y="-314.5" font-family="Helvetica,sans-Serif" font-size="10.00">TMC2208Stepper::sel_a</text>
</a>
</g>
</g>
<!-- Node1&#45;&gt;Node93 -->
<g id="edge53" class="edge"><title>Node1&#45;&gt;Node93</title>
<path fill="none" stroke="midnightblue" d="M1141.75,-395.167C1124.28,-377.981 1094.97,-351.666 1065,-336 1057.76,-332.217 1049.68,-329.103 1041.71,-326.57"/>
<polygon fill="midnightblue" stroke="midnightblue" points="1139.37,-397.733 1148.9,-402.35 1144.33,-392.794 1139.37,-397.733"/>
</g>
<!-- Node94 -->
<g id="node49" class="node"><title>Node94</title>
<g id="a_node49"><a xlink:href="class_t_m_c2208_stepper.html#ac5cbf509e5e74a27507ce976bd973a4d" target="_top" xlink:title=" ">
<polygon fill="white" stroke="black" points="939.5,-269.5 939.5,-288.5 1055.5,-288.5 1055.5,-269.5 939.5,-269.5"/>
<text text-anchor="middle" x="997.5" y="-276.5" font-family="Helvetica,sans-Serif" font-size="10.00">TMC2208Stepper::step</text>
</a>
</g>
</g>
<!-- Node1&#45;&gt;Node94 -->
<g id="edge54" class="edge"><title>Node1&#45;&gt;Node94</title>
<path fill="none" stroke="midnightblue" d="M1147.8,-393.427C1132.91,-368.071 1102.85,-322.929 1065,-298 1059.08,-294.103 1052.36,-290.994 1045.52,-288.515"/>
<polygon fill="midnightblue" stroke="midnightblue" points="1144.91,-395.432 1152.9,-402.385 1150.99,-391.965 1144.91,-395.432"/>
</g>
<!-- Node95 -->
<g id="node50" class="node"><title>Node95</title>
<g id="a_node50"><a xlink:href="class_t_m_c2208_stepper.html#afd696df315a1b1296bd77f6438c4cbe8" target="_top" xlink:title=" ">
<polygon fill="white" stroke="black" points="933.5,-231.5 933.5,-250.5 1061.5,-250.5 1061.5,-231.5 933.5,-231.5"/>
<text text-anchor="middle" x="997.5" y="-238.5" font-family="Helvetica,sans-Serif" font-size="10.00">TMC2208Stepper::version</text>
</a>
</g>
</g>
<!-- Node1&#45;&gt;Node95 -->
<g id="edge55" class="edge"><title>Node1&#45;&gt;Node95</title>
<path fill="none" stroke="midnightblue" d="M1151.56,-392.857C1139.68,-360.516 1111.24,-295.156 1065,-260 1059.93,-256.149 1054.12,-253.078 1048.07,-250.629"/>
<polygon fill="midnightblue" stroke="midnightblue" points="1148.32,-394.204 1154.95,-402.468 1154.92,-391.873 1148.32,-394.204"/>
</g>
<!-- Node5 -->
<g id="node5" class="node"><title>Node5</title>
<g id="a_node5"><a xlink:href="class_t_m_c2208_stepper.html#a9ad9b892e8abf475e15e6d8c30c56ce2" target="_top" xlink:title=" ">
<polygon fill="white" stroke="black" points="0,-837.5 0,-856.5 140,-856.5 140,-837.5 0,-837.5"/>
<text text-anchor="middle" x="70" y="-844.5" font-family="Helvetica,sans-Serif" font-size="10.00">TMC2208Stepper::isEnabled</text>
</a>
</g>
</g>
<!-- Node4&#45;&gt;Node5 -->
<g id="edge4" class="edge"><title>Node4&#45;&gt;Node5</title>
<path fill="none" stroke="midnightblue" d="M787.93,-778.459C721.991,-823.583 519.154,-954.715 328,-999 262.188,-1014.25 235.823,-1030.38 176,-999 116.072,-967.561 83.6012,-884.688 74.0374,-856.525"/>
<polygon fill="midnightblue" stroke="midnightblue" points="790.065,-781.239 796.311,-772.681 786.091,-775.476 790.065,-781.239"/>
</g>
<!-- Node8 -->
<g id="node8" class="node"><title>Node8</title>
<g id="a_node8"><a xlink:href="class_t_m_c2208_stepper.html#a3e1f6a10aa1e3e41dc2594dbe1ea8a1d" target="_top" xlink:title=" ">
<polygon fill="white" stroke="black" points="728,-421.5 728,-440.5 894,-440.5 894,-421.5 728,-421.5"/>
<text text-anchor="middle" x="811" y="-428.5" font-family="Helvetica,sans-Serif" font-size="10.00">TMC2208Stepper::_sendDatagram</text>
</a>
</g>
</g>
<!-- Node7&#45;&gt;Node8 -->
<g id="edge7" class="edge"><title>Node7&#45;&gt;Node8</title>
<path fill="none" stroke="midnightblue" d="M929.145,-431C917.803,-431 905.918,-431 894.249,-431"/>
<polygon fill="midnightblue" stroke="midnightblue" points="929.387,-434.5 939.387,-431 929.387,-427.5 929.387,-434.5"/>
</g>
<!-- Node9 -->
<g id="node9" class="node"><title>Node9</title>
<g id="a_node9"><a xlink:href="class_t_m_c2208_stepper.html#a2fae2050849c3ab7968012def8ea1cc5" target="_top" xlink:title=" ">
<polygon fill="white" stroke="black" points="576,-421.5 576,-440.5 692,-440.5 692,-421.5 576,-421.5"/>
<text text-anchor="middle" x="634" y="-428.5" font-family="Helvetica,sans-Serif" font-size="10.00">TMC2208Stepper::read</text>
</a>
</g>
</g>
<!-- Node8&#45;&gt;Node9 -->
<g id="edge8" class="edge"><title>Node8&#45;&gt;Node9</title>
<path fill="none" stroke="midnightblue" d="M717.678,-431C708.995,-431 700.375,-431 692.162,-431"/>
<polygon fill="midnightblue" stroke="midnightblue" points="717.88,-434.5 727.88,-431 717.88,-427.5 717.88,-434.5"/>
</g>
<!-- Node9&#45;&gt;Node1 -->
<g id="edge40" class="edge"><title>Node9&#45;&gt;Node1</title>
<path fill="none" stroke="midnightblue" d="M682.925,-442.712C697.325,-445.709 713.223,-448.506 728,-450 877.018,-465.067 918.03,-478.868 1065,-450 1092.55,-444.588 1122.23,-430.953 1140.47,-421.579"/>
<polygon fill="midnightblue" stroke="midnightblue" points="683.257,-439.203 672.743,-440.51 681.777,-446.044 683.257,-439.203"/>
</g>
<!-- Node10 -->
<g id="node10" class="node"><title>Node10</title>
<g id="a_node10"><a xlink:href="class_t_m_c2208_stepper.html#aa11281f54c293f3ff2539b1a583682a9" target="_top" xlink:title=" ">
<polygon fill="white" stroke="black" points="376,-685.5 376,-704.5 528,-704.5 528,-685.5 376,-685.5"/>
<text text-anchor="middle" x="452" y="-692.5" font-family="Helvetica,sans-Serif" font-size="10.00">TMC2208Stepper::CHOPCONF</text>
</a>
</g>
</g>
<!-- Node9&#45;&gt;Node10 -->
<g id="edge9" class="edge"><title>Node9&#45;&gt;Node10</title>
<path fill="none" stroke="midnightblue" d="M622.247,-449.615C605.48,-478.339 571.73,-534.96 540,-581 512.45,-620.975 476.392,-666.195 460.772,-685.476"/>
<polygon fill="midnightblue" stroke="midnightblue" points="625.44,-451.087 627.438,-440.682 619.387,-447.569 625.44,-451.087"/>
</g>
<!-- Node33 -->
<g id="node23" class="node"><title>Node33</title>
<g id="a_node23"><a xlink:href="class_t_m_c2208_stepper.html#a2b4643106d473dd0081ec60a3f9b8fdf" target="_top" xlink:title=" ">
<polygon fill="white" stroke="black" points="393,-372 393,-402 511,-402 511,-372 393,-372"/>
<text text-anchor="start" x="401" y="-390" font-family="Helvetica,sans-Serif" font-size="10.00">TMC2208Stepper::DRV</text>
<text text-anchor="middle" x="452" y="-379" font-family="Helvetica,sans-Serif" font-size="10.00">_STATUS</text>
</a>
</g>
</g>
<!-- Node9&#45;&gt;Node33 -->
<g id="edge23" class="edge"><title>Node9&#45;&gt;Node33</title>
<path fill="none" stroke="midnightblue" d="M583.942,-419.008C561.454,-413.511 534.63,-406.954 511.134,-401.211"/>
<polygon fill="midnightblue" stroke="midnightblue" points="583.398,-422.478 593.943,-421.453 585.06,-415.678 583.398,-422.478"/>
</g>
<!-- Node34 -->
<g id="node24" class="node"><title>Node34</title>
<g id="a_node24"><a xlink:href="class_t_m_c2208_stepper.html#a64c51922eb2029e4bbcd4f8a51b6a6ae" target="_top" xlink:title=" ">
<polygon fill="white" stroke="black" points="364,-333.5 364,-352.5 540,-352.5 540,-333.5 364,-333.5"/>
<text text-anchor="middle" x="452" y="-340.5" font-family="Helvetica,sans-Serif" font-size="10.00">TMC2208Stepper::FACTORY_CONF</text>
</a>
</g>
</g>
<!-- Node9&#45;&gt;Node34 -->
<g id="edge24" class="edge"><title>Node9&#45;&gt;Node34</title>
<path fill="none" stroke="midnightblue" d="M614.937,-414.292C597.165,-398.747 568.61,-376.074 540,-363 530.556,-358.684 520.096,-355.257 509.799,-352.55"/>
<polygon fill="midnightblue" stroke="midnightblue" points="612.96,-417.22 622.747,-421.277 617.626,-412.002 612.96,-417.22"/>
</g>
<!-- Node37 -->
<g id="node27" class="node"><title>Node37</title>
<g id="a_node27"><a xlink:href="class_t_m_c2208_stepper.html#a549db4f962d4ae698dda33ef9a708e33" target="_top" xlink:title=" ">
<polygon fill="white" stroke="black" points="386,-421.5 386,-440.5 518,-440.5 518,-421.5 386,-421.5"/>
<text text-anchor="middle" x="452" y="-428.5" font-family="Helvetica,sans-Serif" font-size="10.00">TMC2208Stepper::GCONF</text>
</a>
</g>
</g>
<!-- Node9&#45;&gt;Node37 -->
<g id="edge27" class="edge"><title>Node9&#45;&gt;Node37</title>
<path fill="none" stroke="midnightblue" d="M565.5,-431C549.961,-431 533.466,-431 518.034,-431"/>
<polygon fill="midnightblue" stroke="midnightblue" points="565.552,-434.5 575.552,-431 565.552,-427.5 565.552,-434.5"/>
</g>
<!-- Node54 -->
<g id="node37" class="node"><title>Node54</title>
<g id="a_node37"><a xlink:href="class_t_m_c2208_stepper.html#a54eeb50855c3d7dd9e7078a5dc0ebdfc" target="_top" xlink:title=" ">
<polygon fill="white" stroke="black" points="389.5,-295.5 389.5,-314.5 514.5,-314.5 514.5,-295.5 389.5,-295.5"/>
<text text-anchor="middle" x="452" y="-302.5" font-family="Helvetica,sans-Serif" font-size="10.00">TMC2208Stepper::IFCNT</text>
</a>
</g>
</g>
<!-- Node9&#45;&gt;Node54 -->
<g id="edge39" class="edge"><title>Node9&#45;&gt;Node54</title>
<path fill="none" stroke="midnightblue" d="M622.491,-412.887C607.437,-388.651 577.381,-346.161 540,-324 532.287,-319.427 523.603,-315.951 514.784,-313.31"/>
<polygon fill="midnightblue" stroke="midnightblue" points="619.514,-414.727 627.675,-421.483 625.508,-411.112 619.514,-414.727"/>
</g>
<!-- Node55 -->
<g id="node38" class="node"><title>Node55</title>
<g id="a_node38"><a xlink:href="class_t_m_c2209_stepper.html#aeab582b2f23d4e58f63aec80163b3838" target="_top" xlink:title=" ">
<polygon fill="white" stroke="red" points="394,-257.5 394,-276.5 510,-276.5 510,-257.5 394,-257.5"/>
<text text-anchor="middle" x="452" y="-264.5" font-family="Helvetica,sans-Serif" font-size="10.00">TMC2209Stepper::IOIN</text>
</a>
</g>
</g>
<!-- Node9&#45;&gt;Node55 -->
<g id="edge41" class="edge"><title>Node9&#45;&gt;Node55</title>
<path fill="none" stroke="midnightblue" d="M626.355,-411.974C614.334,-380.501 585.88,-317.914 540,-286 531.243,-279.909 520.886,-275.72 510.428,-272.852"/>
<polygon fill="midnightblue" stroke="midnightblue" points="623.071,-413.184 629.803,-421.365 629.642,-410.771 623.071,-413.184"/>
</g>
<!-- Node65 -->
<g id="node41" class="node"><title>Node65</title>
<g id="a_node41"><a xlink:href="class_t_m_c2224_stepper.html#aa5fa836e15992bc49e0297ef2126f725" target="_top" xlink:title=" ">
<polygon fill="white" stroke="red" points="394,-219.5 394,-238.5 510,-238.5 510,-219.5 394,-219.5"/>
<text text-anchor="middle" x="452" y="-226.5" font-family="Helvetica,sans-Serif" font-size="10.00">TMC2224Stepper::IOIN</text>
</a>
</g>
</g>
<!-- Node9&#45;&gt;Node65 -->
<g id="edge44" class="edge"><title>Node9&#45;&gt;Node65</title>
<path fill="none" stroke="midnightblue" d="M628.886,-411.356C619.873,-373.45 594.672,-290.24 540,-248 531.314,-241.289 520.754,-236.839 510.027,-233.912"/>
<polygon fill="midnightblue" stroke="midnightblue" points="625.485,-412.185 631.094,-421.173 632.314,-410.649 625.485,-412.185"/>
</g>
<!-- Node75 -->
<g id="node42" class="node"><title>Node75</title>
<g id="a_node42"><a xlink:href="class_t_m_c2208_stepper.html#a0727482b76d6cd679021f4d1677e5b3a" target="_top" xlink:title=" ">
<polygon fill="white" stroke="black" points="377.5,-181.5 377.5,-200.5 526.5,-200.5 526.5,-181.5 377.5,-181.5"/>
<text text-anchor="middle" x="452" y="-188.5" font-family="Helvetica,sans-Serif" font-size="10.00">TMC2208Stepper::OTP_READ</text>
</a>
</g>
</g>
<!-- Node9&#45;&gt;Node75 -->
<g id="edge45" class="edge"><title>Node9&#45;&gt;Node75</title>
<path fill="none" stroke="midnightblue" d="M630.712,-411.019C624.6,-367.338 603.754,-263.021 540,-210 535.364,-206.145 530.122,-203.023 524.565,-200.501"/>
<polygon fill="midnightblue" stroke="midnightblue" points="627.274,-411.724 632.018,-421.197 634.217,-410.833 627.274,-411.724"/>
</g>
<!-- Node76 -->
<g id="node43" class="node"><title>Node76</title>
<g id="a_node43"><a xlink:href="class_t_m_c2208_stepper.html#a3cad83843fc7cc00cbbff7d620690501" target="_top" xlink:title=" ">
<polygon fill="white" stroke="red" points="375,-822.5 375,-841.5 529,-841.5 529,-822.5 375,-822.5"/>
<text text-anchor="middle" x="452" y="-829.5" font-family="Helvetica,sans-Serif" font-size="10.00">TMC2208Stepper::PWM_AUTO</text>
</a>
</g>
</g>
<!-- Node9&#45;&gt;Node76 -->
<g id="edge46" class="edge"><title>Node9&#45;&gt;Node76</title>
<path fill="none" stroke="midnightblue" d="M630.915,-450.902C623.077,-521.886 593.084,-761.165 540,-813 536.129,-816.78 531.69,-819.882 526.91,-822.42"/>
<polygon fill="midnightblue" stroke="midnightblue" points="634.426,-450.991 632.018,-440.673 627.466,-450.24 634.426,-450.991"/>
</g>
<!-- Node79 -->
<g id="node44" class="node"><title>Node79</title>
<g id="a_node44"><a xlink:href="class_t_m_c2208_stepper.html#adc81db53cf0291216352b13e5425e67b" target="_top" xlink:title=" ">
<polygon fill="white" stroke="red" points="391,-773 391,-803 513,-803 513,-773 391,-773"/>
<text text-anchor="start" x="399" y="-791" font-family="Helvetica,sans-Serif" font-size="10.00">TMC2208Stepper::PWM</text>
<text text-anchor="middle" x="452" y="-780" font-family="Helvetica,sans-Serif" font-size="10.00">_SCALE</text>
</a>
</g>
</g>
<!-- Node9&#45;&gt;Node79 -->
<g id="edge47" class="edge"><title>Node9&#45;&gt;Node79</title>
<path fill="none" stroke="midnightblue" d="M633.718,-450.747C634.665,-507.891 629.286,-674.996 540,-764 532.565,-771.411 523.063,-776.587 513.084,-780.19"/>
<polygon fill="midnightblue" stroke="midnightblue" points="637.212,-450.471 633.457,-440.563 630.214,-450.65 637.212,-450.471"/>
</g>
<!-- Node82 -->
<g id="node45" class="node"><title>Node82</title>
<g id="a_node45"><a xlink:href="class_t_m_c2208_stepper.html#a7c2e849de2f2933ba9bf8ede8dc53f53" target="_top" xlink:title=" ">
<polygon fill="white" stroke="red" points="377.5,-552.5 377.5,-571.5 526.5,-571.5 526.5,-552.5 377.5,-552.5"/>
<text text-anchor="middle" x="452" y="-559.5" font-family="Helvetica,sans-Serif" font-size="10.00">TMC2208Stepper::PWMCONF</text>
</a>
</g>
</g>
<!-- Node9&#45;&gt;Node82 -->
<g id="edge48" class="edge"><title>Node9&#45;&gt;Node82</title>
<path fill="none" stroke="midnightblue" d="M611.51,-446.64C573.871,-474.033 497.091,-529.911 466.255,-552.353"/>
<polygon fill="midnightblue" stroke="midnightblue" points="613.738,-449.347 619.764,-440.633 609.619,-443.687 613.738,-449.347"/>
</g>
<!-- Node91 -->
<g id="node46" class="node"><title>Node91</title>
<g id="a_node46"><a xlink:href="class_t_m_c2209_stepper.html#ac1d2ec19eb65fd2f14d8d02cc1e7b02e" target="_top" xlink:title=" ">
<polygon fill="white" stroke="black" points="396,-724 396,-754 508,-754 508,-724 396,-724"/>
<text text-anchor="start" x="404" y="-742" font-family="Helvetica,sans-Serif" font-size="10.00">TMC2209Stepper::SG</text>
<text text-anchor="middle" x="452" y="-731" font-family="Helvetica,sans-Serif" font-size="10.00">_RESULT</text>
</a>
</g>
</g>
<!-- Node9&#45;&gt;Node91 -->
<g id="edge51" class="edge"><title>Node9&#45;&gt;Node91</title>
<path fill="none" stroke="midnightblue" d="M632.522,-450.768C630.186,-501.984 616.711,-640.127 540,-714 531.284,-722.394 519.94,-728 508.338,-731.736"/>
<polygon fill="midnightblue" stroke="midnightblue" points="636.023,-450.824 632.884,-440.705 629.027,-450.572 636.023,-450.824"/>
</g>
<!-- Node11 -->
<g id="node11" class="node"><title>Node11</title>
<g id="a_node11"><a xlink:href="class_t_m_c2208_stepper.html#a5b614f72c27fa1b7ff1c08fe07b17582" target="_top" xlink:title=" ">
<polygon fill="white" stroke="red" points="190,-628.5 190,-647.5 314,-647.5 314,-628.5 190,-628.5"/>
<text text-anchor="middle" x="252" y="-635.5" font-family="Helvetica,sans-Serif" font-size="10.00">TMC2208Stepper::dedge</text>
</a>
</g>
</g>
<!-- Node10&#45;&gt;Node11 -->
<g id="edge10" class="edge"><title>Node10&#45;&gt;Node11</title>
<path fill="none" stroke="midnightblue" d="M411.478,-682.222C387.434,-674.591 356.053,-664.881 328,-657 316.491,-653.767 303.919,-650.485 292.415,-647.58"/>
<polygon fill="midnightblue" stroke="midnightblue" points="410.711,-685.651 421.302,-685.354 412.837,-678.982 410.711,-685.651"/>
</g>
<!-- Node13 -->
<g id="node12" class="node"><title>Node13</title>
<g id="a_node12"><a xlink:href="class_t_m_c2208_stepper.html#a810f59828ccf8b0f55c7274b21ea0255" target="_top" xlink:title=" ">
<polygon fill="white" stroke="red" points="189,-970.5 189,-989.5 315,-989.5 315,-970.5 189,-970.5"/>
<text text-anchor="middle" x="252" y="-977.5" font-family="Helvetica,sans-Serif" font-size="10.00">TMC2208Stepper::diss2g</text>
</a>
</g>
</g>
<!-- Node10&#45;&gt;Node13 -->
<g id="edge11" class="edge"><title>Node10&#45;&gt;Node13</title>
<path fill="none" stroke="midnightblue" d="M369.063,-710.25C367.273,-711.707 365.58,-713.288 364,-715 289.08,-796.22 402.016,-878.955 328,-961 324.311,-965.089 319.88,-968.356 315.039,-970.959"/>
<polygon fill="midnightblue" stroke="midnightblue" points="371.109,-713.092 377.463,-704.614 367.209,-707.279 371.109,-713.092"/>
</g>
<!-- Node15 -->
<g id="node13" class="node"><title>Node15</title>
<g id="a_node13"><a xlink:href="class_t_m_c2208_stepper.html#afc70b23b3486ae3ea3a3dfa804441148" target="_top" xlink:title=" ">
<polygon fill="white" stroke="red" points="187,-932.5 187,-951.5 317,-951.5 317,-932.5 187,-932.5"/>
<text text-anchor="middle" x="252" y="-939.5" font-family="Helvetica,sans-Serif" font-size="10.00">TMC2208Stepper::diss2vs</text>
</a>
</g>
</g>
<!-- Node10&#45;&gt;Node15 -->
<g id="edge12" class="edge"><title>Node10&#45;&gt;Node15</title>
<path fill="none" stroke="midnightblue" d="M369.269,-710.188C367.408,-711.662 365.645,-713.263 364,-715 299.495,-783.125 391.746,-854.164 328,-923 324.441,-926.844 320.225,-929.957 315.636,-932.474"/>
<polygon fill="midnightblue" stroke="midnightblue" points="371.523,-712.897 377.991,-704.506 367.701,-707.032 371.523,-712.897"/>
</g>
<!-- Node17 -->
<g id="node14" class="node"><title>Node17</title>
<g id="a_node14"><a xlink:href="class_t_m_c2208_stepper.html#a2f36996a01d99a96f40d179931eb606a" target="_top" xlink:title=" ">
<polygon fill="white" stroke="red" points="192.5,-894.5 192.5,-913.5 311.5,-913.5 311.5,-894.5 192.5,-894.5"/>
<text text-anchor="middle" x="252" y="-901.5" font-family="Helvetica,sans-Serif" font-size="10.00">TMC2208Stepper::hend</text>
</a>
</g>
</g>
<!-- Node10&#45;&gt;Node17 -->
<g id="edge13" class="edge"><title>Node10&#45;&gt;Node17</title>
<path fill="none" stroke="midnightblue" d="M369.354,-710.27C367.468,-711.72 365.677,-713.294 364,-715 309.863,-770.08 381.523,-829.323 328,-885 323.439,-889.745 317.876,-893.369 311.862,-896.129"/>
<polygon fill="midnightblue" stroke="midnightblue" points="371.601,-712.99 378.163,-704.671 367.846,-707.082 371.601,-712.99"/>
</g>
<!-- Node19 -->
<g id="node15" class="node"><title>Node19</title>
<g id="a_node15"><a xlink:href="class_t_m_c2208_stepper.html#ae86e87a3b5882ac40c6f21348c6793ed" target="_top" xlink:title=" ">
<polygon fill="white" stroke="red" points="193.5,-856.5 193.5,-875.5 310.5,-875.5 310.5,-856.5 193.5,-856.5"/>
<text text-anchor="middle" x="252" y="-863.5" font-family="Helvetica,sans-Serif" font-size="10.00">TMC2208Stepper::hstrt</text>
</a>
</g>
</g>
<!-- Node10&#45;&gt;Node19 -->
<g id="edge14" class="edge"><title>Node10&#45;&gt;Node19</title>
<path fill="none" stroke="midnightblue" d="M370.257,-709.84C368.051,-711.406 365.956,-713.121 364,-715 320.144,-757.124 371.387,-804.393 328,-847 323.112,-851.8 317.195,-855.441 310.853,-858.195"/>
<polygon fill="midnightblue" stroke="midnightblue" points="372.432,-712.62 379.257,-704.516 368.868,-706.595 372.432,-712.62"/>
</g>
<!-- Node21 -->
<g id="node16" class="node"><title>Node21</title>
<g id="a_node16"><a xlink:href="class_t_m_c2208_stepper.html#a787cbae9adfab6f79a873310c472e7cd" target="_top" xlink:title=" ">
<polygon fill="white" stroke="red" points="191.5,-818.5 191.5,-837.5 312.5,-837.5 312.5,-818.5 191.5,-818.5"/>
<text text-anchor="middle" x="252" y="-825.5" font-family="Helvetica,sans-Serif" font-size="10.00">TMC2208Stepper::intpol</text>
</a>
</g>
</g>
<!-- Node10&#45;&gt;Node21 -->
<g id="edge15" class="edge"><title>Node10&#45;&gt;Node21</title>
<path fill="none" stroke="midnightblue" d="M371.61,-709.383C368.931,-711.066 366.38,-712.932 364,-715 330.234,-744.347 361.439,-779.281 328,-809 323.482,-813.015 318.235,-816.206 312.655,-818.738"/>
<polygon fill="midnightblue" stroke="midnightblue" points="373.381,-712.406 380.556,-704.61 370.086,-706.23 373.381,-712.406"/>
</g>
<!-- Node23 -->
<g id="node17" class="node"><title>Node23</title>
<g id="a_node17"><a xlink:href="class_t_m_c2208_stepper.html#a445b61c23afadb9bd48c3f4d9ef9125e" target="_top" xlink:title=" ">
<polygon fill="white" stroke="red" points="192.5,-780.5 192.5,-799.5 311.5,-799.5 311.5,-780.5 192.5,-780.5"/>
<text text-anchor="middle" x="252" y="-787.5" font-family="Helvetica,sans-Serif" font-size="10.00">TMC2208Stepper::mres</text>
</a>
</g>
</g>
<!-- Node10&#45;&gt;Node23 -->
<g id="edge16" class="edge"><title>Node10&#45;&gt;Node23</title>
<path fill="none" stroke="midnightblue" d="M375.156,-708.486C371.245,-710.384 367.495,-712.543 364,-715 339.794,-732.016 352.016,-753.717 328,-771 322.658,-774.844 316.613,-777.913 310.33,-780.363"/>
<polygon fill="midnightblue" stroke="midnightblue" points="376.685,-711.64 384.528,-704.516 373.955,-705.194 376.685,-711.64"/>
</g>
<!-- Node25 -->
<g id="node18" class="node"><title>Node25</title>
<g id="a_node18"><a xlink:href="class_t_m_c2208_stepper.html#a8eb0d71fbfeeb24c9092328c44fab7e5" target="_top" xlink:title=" ">
<polygon fill="white" stroke="black" points="192.5,-590.5 192.5,-609.5 311.5,-609.5 311.5,-590.5 192.5,-590.5"/>
<text text-anchor="middle" x="252" y="-597.5" font-family="Helvetica,sans-Serif" font-size="10.00">TMC2208Stepper::push</text>
</a>
</g>
</g>
<!-- Node10&#45;&gt;Node25 -->
<g id="edge17" class="edge"><title>Node10&#45;&gt;Node25</title>
<path fill="none" stroke="midnightblue" d="M430.23,-679.396C406.605,-662.326 366.324,-635.239 328,-619 319.219,-615.279 309.54,-612.161 300.136,-609.597"/>
<polygon fill="midnightblue" stroke="midnightblue" points="428.294,-682.317 438.43,-685.404 432.432,-676.67 428.294,-682.317"/>
</g>
<!-- Node26 -->
<g id="node19" class="node"><title>Node26</title>
<g id="a_node19"><a xlink:href="class_t_m_c2209_stepper.html#a180f4b9a78e526592d946ec12f71982e" target="_top" xlink:title=" ">
<polygon fill="white" stroke="black" points="192.5,-552.5 192.5,-571.5 311.5,-571.5 311.5,-552.5 192.5,-552.5"/>
<text text-anchor="middle" x="252" y="-559.5" font-family="Helvetica,sans-Serif" font-size="10.00">TMC2209Stepper::push</text>
</a>
</g>
</g>
<!-- Node10&#45;&gt;Node26 -->
<g id="edge18" class="edge"><title>Node10&#45;&gt;Node26</title>
<path fill="none" stroke="midnightblue" d="M437.021,-677.356C416.057,-652.115 373.997,-605.996 328,-581 320.919,-577.152 313.037,-574.064 305.119,-571.591"/>
<polygon fill="midnightblue" stroke="midnightblue" points="434.498,-679.802 443.528,-685.344 439.926,-675.381 434.498,-679.802"/>
</g>
<!-- Node27 -->
<g id="node20" class="node"><title>Node27</title>
<g id="a_node20"><a xlink:href="class_t_m_c2208_stepper.html#a84a5b9684c546c5f4549f375048512be" target="_top" xlink:title=" ">
<polygon fill="white" stroke="red" points="198,-742.5 198,-761.5 306,-761.5 306,-742.5 198,-742.5"/>
<text text-anchor="middle" x="252" y="-749.5" font-family="Helvetica,sans-Serif" font-size="10.00">TMC2208Stepper::tbl</text>
</a>
</g>
</g>
<!-- Node10&#45;&gt;Node27 -->
<g id="edge19" class="edge"><title>Node10&#45;&gt;Node27</title>
<path fill="none" stroke="midnightblue" d="M390.276,-707.006C381.364,-709.329 372.372,-711.993 364,-715 347.164,-721.047 344.768,-726.767 328,-733 318.305,-736.604 307.657,-739.758 297.507,-742.408"/>
<polygon fill="midnightblue" stroke="midnightblue" points="391.404,-710.332 400.267,-704.527 389.718,-703.538 391.404,-710.332"/>
</g>
<!-- Node29 -->
<g id="node21" class="node"><title>Node29</title>
<g id="a_node21"><a xlink:href="class_t_m_c2208_stepper.html#aad3790e8c9040b5b4770ee65ed06b1ed" target="_top" xlink:title=" ">
<polygon fill="white" stroke="red" points="197,-666.5 197,-685.5 307,-685.5 307,-666.5 197,-666.5"/>
<text text-anchor="middle" x="252" y="-673.5" font-family="Helvetica,sans-Serif" font-size="10.00">TMC2208Stepper::toff</text>
</a>
</g>
</g>
<!-- Node10&#45;&gt;Node29 -->
<g id="edge20" class="edge"><title>Node10&#45;&gt;Node29</title>
<path fill="none" stroke="midnightblue" d="M365.851,-686.829C345.939,-684.918 325.265,-682.934 307.136,-681.195"/>
<polygon fill="midnightblue" stroke="midnightblue" points="365.574,-690.319 375.862,-687.79 366.242,-683.351 365.574,-690.319"/>
</g>
<!-- Node31 -->
<g id="node22" class="node"><title>Node31</title>
<g id="a_node22"><a xlink:href="class_t_m_c2208_stepper.html#aca88bb5ae86daeca56094bf2f8bdea5d" target="_top" xlink:title=" ">
<polygon fill="white" stroke="red" points="188,-704.5 188,-723.5 316,-723.5 316,-704.5 188,-704.5"/>
<text text-anchor="middle" x="252" y="-711.5" font-family="Helvetica,sans-Serif" font-size="10.00">TMC2208Stepper::vsense</text>
</a>
</g>
</g>
<!-- Node10&#45;&gt;Node31 -->
<g id="edge22" class="edge"><title>Node10&#45;&gt;Node31</title>
<path fill="none" stroke="midnightblue" d="M365.607,-703.194C349.001,-704.788 331.874,-706.431 316.144,-707.941"/>
<polygon fill="midnightblue" stroke="midnightblue" points="366.242,-706.649 375.862,-702.21 365.574,-699.681 366.242,-706.649"/>
</g>
<!-- Node29&#45;&gt;Node5 -->
<g id="edge21" class="edge"><title>Node29&#45;&gt;Node5</title>
<path fill="none" stroke="midnightblue" d="M187.354,-688.54C183.364,-690.403 179.537,-692.543 176,-695 120.949,-733.247 85.8016,-810.355 74.7513,-837.379"/>
<polygon fill="midnightblue" stroke="midnightblue" points="188.942,-691.673 196.897,-684.675 186.315,-685.184 188.942,-691.673"/>
</g>
<!-- Node35 -->
<g id="node25" class="node"><title>Node35</title>
<g id="a_node25"><a xlink:href="class_t_m_c2208_stepper.html#a2576f25049dff1a3102da1ea5b4eb7fc" target="_top" xlink:title=" ">
<polygon fill="white" stroke="black" points="187.5,-114.5 187.5,-133.5 316.5,-133.5 316.5,-114.5 187.5,-114.5"/>
<text text-anchor="middle" x="252" y="-121.5" font-family="Helvetica,sans-Serif" font-size="10.00">TMC2208Stepper::fclktrim</text>
</a>
</g>
</g>
<!-- Node34&#45;&gt;Node35 -->
<g id="edge25" class="edge"><title>Node34&#45;&gt;Node35</title>
<path fill="none" stroke="midnightblue" d="M367.986,-327.639C366.597,-326.501 365.266,-325.29 364,-324 306.547,-265.464 384.476,-202.479 328,-143 324.393,-139.201 320.144,-136.119 315.533,-133.623"/>
<polygon fill="midnightblue" stroke="midnightblue" points="366.255,-330.693 376.503,-333.38 370.167,-324.888 366.255,-330.693"/>
</g>
<!-- Node36 -->
<g id="node26" class="node"><title>Node36</title>
<g id="a_node26"><a xlink:href="class_t_m_c2208_stepper.html#a1d354657666fa70cd13004cb70bc9fcf" target="_top" xlink:title=" ">
<polygon fill="white" stroke="black" points="191,-76.5 191,-95.5 313,-95.5 313,-76.5 191,-76.5"/>
<text text-anchor="middle" x="252" y="-83.5" font-family="Helvetica,sans-Serif" font-size="10.00">TMC2208Stepper::ottrim</text>
</a>
</g>
</g>
<!-- Node34&#45;&gt;Node36 -->
<g id="edge26" class="edge"><title>Node34&#45;&gt;Node36</title>
<path fill="none" stroke="midnightblue" d="M367.445,-327.285C366.248,-326.25 365.098,-325.156 364,-324 296.091,-252.459 394.716,-177.655 328,-105 323.821,-100.449 318.722,-96.9198 313.169,-94.1925"/>
<polygon fill="midnightblue" stroke="midnightblue" points="365.77,-330.387 375.96,-333.289 369.804,-324.666 365.77,-330.387"/>
</g>
<!-- Node37&#45;&gt;Node25 -->
<g id="edge36" class="edge"><title>Node37&#45;&gt;Node25</title>
<path fill="none" stroke="midnightblue" d="M437.544,-448.637C408.65,-486.322 342.144,-572.013 328,-581 321.878,-584.89 315.002,-587.984 307.961,-590.445"/>
<polygon fill="midnightblue" stroke="midnightblue" points="440.424,-450.632 443.721,-440.563 434.865,-446.378 440.424,-450.632"/>
</g>
<!-- Node37&#45;&gt;Node26 -->
<g id="edge37" class="edge"><title>Node37&#45;&gt;Node26</title>
<path fill="none" stroke="midnightblue" d="M436.635,-448.696C415.481,-473.561 373.507,-518.53 328,-543 320.784,-546.88 312.748,-549.99 304.693,-552.477"/>
<polygon fill="midnightblue" stroke="midnightblue" points="439.5,-450.726 443.221,-440.806 434.126,-446.241 439.5,-450.726"/>
</g>
<!-- Node38 -->
<g id="node28" class="node"><title>Node38</title>
<g id="a_node28"><a xlink:href="class_t_m_c2208_stepper.html#a3e5b6f25ec1fa94a6d8f0bd004a535ce" target="_top" xlink:title=" ">
<polygon fill="white" stroke="black" points="198,-240 198,-270 306,-270 306,-240 198,-240"/>
<text text-anchor="start" x="206" y="-258" font-family="Helvetica,sans-Serif" font-size="10.00">TMC2208Stepper::en</text>
<text text-anchor="middle" x="252" y="-247" font-family="Helvetica,sans-Serif" font-size="10.00">_spreadCycle</text>
</a>
</g>
</g>
<!-- Node37&#45;&gt;Node38 -->
<g id="edge28" class="edge"><title>Node37&#45;&gt;Node38</title>
<path fill="none" stroke="midnightblue" d="M376.595,-420.978C372.021,-418.529 367.757,-415.569 364,-412 319.914,-370.117 369.789,-324.175 328,-280 321.963,-273.619 314.258,-268.866 306.095,-265.325"/>
<polygon fill="midnightblue" stroke="midnightblue" points="375.167,-424.174 385.723,-425.085 378.039,-417.79 375.167,-424.174"/>
</g>
<!-- Node39 -->
<g id="node29" class="node"><title>Node39</title>
<g id="a_node29"><a xlink:href="class_t_m_c2208_stepper.html#a3b1c4e92ce6d46b6073974d8758275ff" target="_top" xlink:title=" ">
<polygon fill="white" stroke="black" points="188,-191 188,-221 316,-221 316,-191 188,-191"/>
<text text-anchor="start" x="196" y="-209" font-family="Helvetica,sans-Serif" font-size="10.00">TMC2208Stepper::I_scale</text>
<text text-anchor="middle" x="252" y="-198" font-family="Helvetica,sans-Serif" font-size="10.00">_analog</text>
</a>
</g>
</g>
<!-- Node37&#45;&gt;Node39 -->
<g id="edge29" class="edge"><title>Node37&#45;&gt;Node39</title>
<path fill="none" stroke="midnightblue" d="M376.549,-421.412C371.948,-418.868 367.694,-415.767 364,-412 306.273,-353.122 382.876,-291.544 328,-230 324.543,-226.122 320.459,-222.867 316.011,-220.135"/>
<polygon fill="midnightblue" stroke="midnightblue" points="375.218,-424.653 385.766,-425.649 378.142,-418.292 375.218,-424.653"/>
</g>
<!-- Node40 -->
<g id="node30" class="node"><title>Node40</title>
<g id="a_node30"><a xlink:href="class_t_m_c2208_stepper.html#a8a8172fcb19ea2439d4898f4102fa039" target="_top" xlink:title=" ">
<polygon fill="white" stroke="red" points="179,-152.5 179,-171.5 325,-171.5 325,-152.5 179,-152.5"/>
<text text-anchor="middle" x="252" y="-159.5" font-family="Helvetica,sans-Serif" font-size="10.00">TMC2208Stepper::index_otpw</text>
</a>
</g>
</g>
<!-- Node37&#45;&gt;Node40 -->
<g id="edge30" class="edge"><title>Node37&#45;&gt;Node40</title>
<path fill="none" stroke="midnightblue" d="M376.619,-421.718C371.964,-419.109 367.681,-415.91 364,-412 292.78,-336.342 397.958,-257.826 328,-181 324.563,-177.226 320.495,-174.154 316.057,-171.658"/>
<polygon fill="midnightblue" stroke="midnightblue" points="375.422,-425.02 385.968,-426.038 378.359,-418.666 375.422,-425.02"/>
</g>
<!-- Node42 -->
<g id="node31" class="node"><title>Node42</title>
<g id="a_node31"><a xlink:href="class_t_m_c2208_stepper.html#aa0f677d760ac3c9a297a6f6d2778ec81" target="_top" xlink:title=" ">
<polygon fill="white" stroke="red" points="179.5,-514.5 179.5,-533.5 324.5,-533.5 324.5,-514.5 179.5,-514.5"/>
<text text-anchor="middle" x="252" y="-521.5" font-family="Helvetica,sans-Serif" font-size="10.00">TMC2208Stepper::index_step</text>
</a>
</g>
</g>
<!-- Node37&#45;&gt;Node42 -->
<g id="edge31" class="edge"><title>Node37&#45;&gt;Node42</title>
<path fill="none" stroke="midnightblue" d="M429.781,-446.429C406.046,-463.036 365.939,-489.189 328,-505 319.073,-508.72 309.235,-511.851 299.704,-514.429"/>
<polygon fill="midnightblue" stroke="midnightblue" points="431.905,-449.213 438.037,-440.573 427.855,-443.504 431.905,-449.213"/>
</g>
<!-- Node44 -->
<g id="node32" class="node"><title>Node44</title>
<g id="a_node32"><a xlink:href="class_t_m_c2208_stepper.html#a8159b7bd97a76b6020bf285c052809b6" target="_top" xlink:title=" ">
<polygon fill="white" stroke="black" points="187.5,-465 187.5,-495 316.5,-495 316.5,-465 187.5,-465"/>
<text text-anchor="start" x="195.5" y="-483" font-family="Helvetica,sans-Serif" font-size="10.00">TMC2208Stepper::internal</text>
<text text-anchor="middle" x="252" y="-472" font-family="Helvetica,sans-Serif" font-size="10.00">_Rsense</text>
</a>
</g>
</g>
<!-- Node37&#45;&gt;Node44 -->
<g id="edge32" class="edge"><title>Node37&#45;&gt;Node44</title>
<path fill="none" stroke="midnightblue" d="M402.453,-443.014C375.699,-449.635 342.237,-457.916 313.762,-464.963"/>
<polygon fill="midnightblue" stroke="midnightblue" points="403.487,-446.364 412.354,-440.564 401.806,-439.569 403.487,-446.364"/>
</g>
<!-- Node45 -->
<g id="node33" class="node"><title>Node45</title>
<g id="a_node33"><a xlink:href="class_t_m_c2208_stepper.html#a02994cba6b9ac73b61799cf7af0fd588" target="_top" xlink:title=" ">
<polygon fill="white" stroke="red" points="189.5,-416 189.5,-446 314.5,-446 314.5,-416 189.5,-416"/>
<text text-anchor="start" x="197.5" y="-434" font-family="Helvetica,sans-Serif" font-size="10.00">TMC2208Stepper::mstep</text>
<text text-anchor="middle" x="252" y="-423" font-family="Helvetica,sans-Serif" font-size="10.00">_reg_select</text>
</a>
</g>
</g>
<!-- Node37&#45;&gt;Node45 -->
<g id="edge33" class="edge"><title>Node37&#45;&gt;Node45</title>
<path fill="none" stroke="midnightblue" d="M375.817,-431C355.667,-431 334.118,-431 314.785,-431"/>
<polygon fill="midnightblue" stroke="midnightblue" points="375.893,-434.5 385.893,-431 375.893,-427.5 375.893,-434.5"/>
</g>
<!-- Node48 -->
<g id="node34" class="node"><title>Node48</title>
<g id="a_node34"><a xlink:href="class_t_m_c2208_stepper.html#ac7e75314309e988c55e28da4798fa637" target="_top" xlink:title=" ">
<polygon fill="white" stroke="red" points="176,-377.5 176,-396.5 328,-396.5 328,-377.5 176,-377.5"/>
<text text-anchor="middle" x="252" y="-384.5" font-family="Helvetica,sans-Serif" font-size="10.00">TMC2208Stepper::multistep_filt</text>
</a>
</g>
</g>
<!-- Node37&#45;&gt;Node48 -->
<g id="edge34" class="edge"><title>Node37&#45;&gt;Node48</title>
<path fill="none" stroke="midnightblue" d="M397.247,-419.318C386.246,-416.911 374.747,-414.384 364,-412 341.147,-406.931 315.668,-401.198 294.889,-396.502"/>
<polygon fill="midnightblue" stroke="midnightblue" points="396.658,-422.772 407.175,-421.487 398.152,-415.933 396.658,-422.772"/>
</g>
<!-- Node50 -->
<g id="node35" class="node"><title>Node50</title>
<g id="a_node35"><a xlink:href="class_t_m_c2208_stepper.html#a9de4a150926f2875903be27063f00973" target="_top" xlink:title=" ">
<polygon fill="white" stroke="red" points="195.5,-328 195.5,-358 308.5,-358 308.5,-328 195.5,-328"/>
<text text-anchor="start" x="203.5" y="-346" font-family="Helvetica,sans-Serif" font-size="10.00">TMC2208Stepper::pdn</text>
<text text-anchor="middle" x="252" y="-335" font-family="Helvetica,sans-Serif" font-size="10.00">_disable</text>
</a>
</g>
</g>
<!-- Node37&#45;&gt;Node50 -->
<g id="edge35" class="edge"><title>Node37&#45;&gt;Node50</title>
<path fill="none" stroke="midnightblue" d="M376.324,-418.295C372.031,-416.469 367.886,-414.383 364,-412 342.46,-398.792 348.805,-382.338 328,-368 322.123,-363.95 315.539,-360.514 308.778,-357.609"/>
<polygon fill="midnightblue" stroke="midnightblue" points="375.322,-421.657 385.914,-421.891 377.779,-415.102 375.322,-421.657"/>
</g>
<!-- Node52 -->
<g id="node36" class="node"><title>Node52</title>
<g id="a_node36"><a xlink:href="class_t_m_c2208_stepper.html#ab4500aa2baca79572a8145b64f809a37" target="_top" xlink:title=" ">
<polygon fill="white" stroke="red" points="192.5,-289.5 192.5,-308.5 311.5,-308.5 311.5,-289.5 192.5,-289.5"/>
<text text-anchor="middle" x="252" y="-296.5" font-family="Helvetica,sans-Serif" font-size="10.00">TMC2208Stepper::shaft</text>
</a>
</g>
</g>
<!-- Node37&#45;&gt;Node52 -->
<g id="edge38" class="edge"><title>Node37&#45;&gt;Node52</title>
<path fill="none" stroke="midnightblue" d="M376.395,-420.221C371.951,-417.939 367.765,-415.224 364,-412 330.337,-383.169 360.997,-348.591 328,-319 323.184,-314.681 317.538,-311.279 311.541,-308.602"/>
<polygon fill="midnightblue" stroke="midnightblue" points="375.258,-423.544 385.824,-424.323 378.05,-417.125 375.258,-423.544"/>
</g>
<!-- Node56 -->
<g id="node39" class="node"><title>Node56</title>
<g id="a_node39"><a xlink:href="class_t_m_c2209_stepper.html#a57eb34f291e73aef7d3de9f21239e3ac" target="_top" xlink:title=" ">
<polygon fill="white" stroke="black" points="194,-38.5 194,-57.5 310,-57.5 310,-38.5 194,-38.5"/>
<text text-anchor="middle" x="252" y="-45.5" font-family="Helvetica,sans-Serif" font-size="10.00">TMC2209Stepper::diag</text>
</a>
</g>
</g>
<!-- Node55&#45;&gt;Node56 -->
<g id="edge42" class="edge"><title>Node55&#45;&gt;Node56</title>
<path fill="none" stroke="midnightblue" d="M384.052,-260.969C376.573,-257.933 369.635,-253.741 364,-248 306.547,-189.464 384.476,-126.479 328,-67 323.006,-61.74 316.781,-57.8537 310.068,-54.9956"/>
<polygon fill="midnightblue" stroke="midnightblue" points="383.163,-264.362 393.757,-264.225 385.39,-257.726 383.163,-264.362"/>
</g>
<!-- Node57 -->
<g id="node40" class="node"><title>Node57</title>
<g id="a_node40"><a xlink:href="class_t_m_c2209_stepper.html#abfe7546eae0d8d3496de34589c43e166" target="_top" xlink:title=" ">
<polygon fill="white" stroke="black" points="198,-0.5 198,-19.5 306,-19.5 306,-0.5 198,-0.5"/>
<text text-anchor="middle" x="252" y="-7.5" font-family="Helvetica,sans-Serif" font-size="10.00">TMC2209Stepper::dir</text>
</a>
</g>
</g>
<!-- Node55&#45;&gt;Node57 -->
<g id="edge43" class="edge"><title>Node55&#45;&gt;Node57</title>
<path fill="none" stroke="midnightblue" d="M384.422,-261.372C376.761,-258.291 369.675,-253.979 364,-248 296.091,-176.459 394.716,-101.655 328,-29 322.095,-22.569 314.353,-18.1789 306.088,-15.2078"/>
<polygon fill="midnightblue" stroke="midnightblue" points="383.405,-264.722 393.998,-264.549 385.609,-258.078 383.405,-264.722"/>
</g>
<!-- Node82&#45;&gt;Node25 -->
<g id="edge49" class="edge"><title>Node82&#45;&gt;Node25</title>
<path fill="none" stroke="midnightblue" d="M391.134,-573.489C362.883,-578.911 329.564,-585.306 302.729,-590.456"/>
<polygon fill="midnightblue" stroke="midnightblue" points="392.131,-576.862 401.292,-571.54 390.811,-569.988 392.131,-576.862"/>
</g>
<!-- Node82&#45;&gt;Node26 -->
<g id="edge50" class="edge"><title>Node82&#45;&gt;Node26</title>
<path fill="none" stroke="midnightblue" d="M367.268,-562C348.551,-562 329.087,-562 311.64,-562"/>
<polygon fill="midnightblue" stroke="midnightblue" points="367.272,-565.5 377.272,-562 367.272,-558.5 367.272,-565.5"/>
</g>
</g>
</svg>
        <g id="navigator" transform="translate(0 0)" fill="#404254">
                <rect fill="#f2f5e9" fill-opacity="0.5" stroke="#606060" stroke-width=".5" x="0" y="0" width="60" height="60"/>
                <use id="zoomplus" xlink:href="#zoomPlus" x="17" y="9" onmousedown="handleZoom(evt,'in')"/>
                <use id="zoomminus" xlink:href="#zoomMin" x="42" y="9" onmousedown="handleZoom(evt,'out')"/>
                <use id="reset" xlink:href="#resetDef" x="30" y="36" onmousedown="handleReset()"/>
                <g id="arrowUp" xlink:href="#dirArrow" transform="translate(30 24)" onmousedown="handlePan(0,-1)">
                  <use xlink:href="#rim" fill="#404040">
                        <set attributeName="fill" to="#808080" begin="arrowUp.mouseover" end="arrowUp.mouseout"/>
                  </use>
                  <path fill="none" stroke="white" stroke-width="1.5" d="M0,-3.0v7 M-2.5,-0.5L0,-3.0L2.5,-0.5"/>
                </g>
                <g id="arrowRight" xlink:href="#dirArrow" transform="rotate(90) translate(36 -43)" onmousedown="handlePan(1,0)">
                  <use xlink:href="#rim" fill="#404040">
                        <set attributeName="fill" to="#808080" begin="arrowRight.mouseover" end="arrowRight.mouseout"/>
                  </use>
                  <path fill="none" stroke="white" stroke-width="1.5" d="M0,-3.0v7 M-2.5,-0.5L0,-3.0L2.5,-0.5"/>
                </g>
                <g id="arrowDown" xlink:href="#dirArrow" transform="rotate(180) translate(-30 -48)" onmousedown="handlePan(0,1)">
                  <use xlink:href="#rim" fill="#404040">
                        <set attributeName="fill" to="#808080" begin="arrowDown.mouseover" end="arrowDown.mouseout"/>
                  </use>
                  <path fill="none" stroke="white" stroke-width="1.5" d="M0,-3.0v7 M-2.5,-0.5L0,-3.0L2.5,-0.5"/>
                </g>
                <g id="arrowLeft" xlink:href="#dirArrow" transform="rotate(270) translate(-36 17)" onmousedown="handlePan(-1,0)">
                  <use xlink:href="#rim" fill="#404040">
                        <set attributeName="fill" to="#808080" begin="arrowLeft.mouseover" end="arrowLeft.mouseout"/>
                  </use>
                  <path fill="none" stroke="white" stroke-width="1.5" d="M0,-3.0v7 M-2.5,-0.5L0,-3.0L2.5,-0.5"/>
                </g>
        </g>
        <svg viewBox="0 0 15 15" width="100%" height="30px" preserveAspectRatio="xMaxYMin meet">
         <g id="arrow_out" transform="scale(0.3 0.3)">
          <a xlink:href="class_t_m_c2208_stepper_a5441dd87d0bcea4ffc309cb012166a57_icgraph_org.svg" target="_base">
           <rect id="button" ry="5" rx="5" y="6" x="6" height="38" width="38"
                fill="#f2f5e9" fill-opacity="0.5" stroke="#606060" stroke-width="1.0"/>
           <path id="arrow"
             d="M 11.500037,31.436501 C 11.940474,20.09759 22.043105,11.32322 32.158766,21.979434 L 37.068811,17.246167 C 37.068811,17.246167 37.088388,32 37.088388,32 L 22.160133,31.978069 C 22.160133,31.978069 26.997745,27.140456 26.997745,27.140456 C 18.528582,18.264221 13.291696,25.230495 11.500037,31.436501 z"
             style="fill:#404040;"/>
          </a>
         </g>
        </svg>
</svg>
