<?xml version="1.0" encoding="UTF-8" standalone="no"?>
<!DOCTYPE svg PUBLIC "-//W3C//DTD SVG 1.1//EN"
 "http://www.w3.org/Graphics/SVG/1.1/DTD/svg11.dtd">
<!-- Generated by graphviz version 2.38.0 (20140413.2041)
 -->
<!-- Title: TMC2160Stepper::begin Pages: 1 -->
<svg width="998pt" height="329pt"
 viewBox="0.00 0.00 998.00 329.07" xmlns="http://www.w3.org/2000/svg" xmlns:xlink="http://www.w3.org/1999/xlink">
<g id="graph0" class="graph" transform="scale(1 1) rotate(0) translate(4 325.07)">
<title>TMC2160Stepper::begin</title>
<polygon fill="white" stroke="none" points="-4,4 -4,-325.07 994,-325.07 994,4 -4,4"/>
<!-- Node1 -->
<g id="node1" class="node"><title>Node1</title>
<g id="a_node1"><a xlink:title=" ">
<polygon fill="#bfbfbf" stroke="black" points="0,-141.952 0,-160.952 121,-160.952 121,-141.952 0,-141.952"/>
<text text-anchor="middle" x="60.5" y="-148.952" font-family="Helvetica,sans-Serif" font-size="10.00">TMC2160Stepper::begin</text>
</a>
</g>
</g>
<!-- Node2 -->
<g id="node2" class="node"><title>Node2</title>
<g id="a_node2"><a xlink:href="class_t_m_c2130_stepper.html#a67541b27d97ce45f175e9f6e4a2d0bff" target="_top" xlink:title=" ">
<polygon fill="white" stroke="black" points="345,-179.952 345,-198.952 497,-198.952 497,-179.952 345,-179.952"/>
<text text-anchor="middle" x="421" y="-186.952" font-family="Helvetica,sans-Serif" font-size="10.00">TMC2130Stepper::CHOPCONF</text>
</a>
</g>
</g>
<!-- Node1&#45;&gt;Node2 -->
<g id="edge1" class="edge"><title>Node1&#45;&gt;Node2</title>
<path fill="none" stroke="midnightblue" d="M67.3936,-161.152C80.4762,-181.619 114.197,-228.788 157,-246.452 219.447,-272.223 243.336,-262.326 309,-246.452 342.164,-238.435 376.536,-218.707 398.076,-204.713"/>
<polygon fill="midnightblue" stroke="midnightblue" points="400.097,-207.573 406.481,-199.118 396.217,-201.746 400.097,-207.573"/>
</g>
<!-- Node4 -->
<g id="node4" class="node"><title>Node4</title>
<g id="a_node4"><a xlink:href="class_t_m_c2130_stepper.html#aed8aa4583943e649dbf3bb1c1da90d63" target="_top" xlink:title=" ">
<polygon fill="white" stroke="black" points="685,-264.952 685,-283.952 837,-283.952 837,-264.952 685,-264.952"/>
<text text-anchor="middle" x="761" y="-271.952" font-family="Helvetica,sans-Serif" font-size="10.00">TMC2130Stepper::switchCSpin</text>
</a>
</g>
</g>
<!-- Node1&#45;&gt;Node4 -->
<g id="edge13" class="edge"><title>Node1&#45;&gt;Node4</title>
<path fill="none" stroke="midnightblue" d="M65.7799,-161.02C76.8603,-184.45 109.009,-244.458 157,-267.452 346.372,-358.187 609.152,-311.041 714.068,-286.371"/>
<polygon fill="midnightblue" stroke="midnightblue" points="715.107,-289.721 724.015,-283.987 713.475,-282.914 715.107,-289.721"/>
</g>
<!-- Node7 -->
<g id="node7" class="node"><title>Node7</title>
<g id="a_node7"><a xlink:href="class_t_m_c2130_stepper.html#abc48be984238d94bb3b72ed3aa26f028" target="_top" xlink:title=" ">
<polygon fill="white" stroke="black" points="157,-217.952 157,-236.952 309,-236.952 309,-217.952 157,-217.952"/>
<text text-anchor="middle" x="233" y="-224.952" font-family="Helvetica,sans-Serif" font-size="10.00">TMC2130Stepper::COOLCONF</text>
</a>
</g>
</g>
<!-- Node1&#45;&gt;Node7 -->
<g id="edge7" class="edge"><title>Node1&#45;&gt;Node7</title>
<path fill="none" stroke="midnightblue" d="M74.7578,-161.073C92.6211,-173.625 125.787,-195.508 157,-208.452 162.863,-210.883 169.116,-213.064 175.416,-215.005"/>
<polygon fill="midnightblue" stroke="midnightblue" points="174.728,-218.449 185.306,-217.857 176.668,-211.723 174.728,-218.449"/>
</g>
<!-- Node8 -->
<g id="node8" class="node"><title>Node8</title>
<g id="a_node8"><a xlink:href="class_t_m_c2130_stepper.html#aee84a9abfc84b387c6ae5658f90bf684" target="_top" xlink:title=" ">
<polygon fill="white" stroke="black" points="355,-65.9521 355,-84.9521 487,-84.9521 487,-65.9521 355,-65.9521"/>
<text text-anchor="middle" x="421" y="-72.9521" font-family="Helvetica,sans-Serif" font-size="10.00">TMC2130Stepper::GCONF</text>
</a>
</g>
</g>
<!-- Node1&#45;&gt;Node8 -->
<g id="edge8" class="edge"><title>Node1&#45;&gt;Node8</title>
<path fill="none" stroke="midnightblue" d="M64.9027,-141.652C74.518,-115.693 104.646,-45.3123 157,-18.4521 217.107,12.3854 243.336,-2.57781 309,-18.4521 342.164,-26.4696 376.536,-46.1971 398.076,-60.1911"/>
<polygon fill="midnightblue" stroke="midnightblue" points="396.217,-63.1584 406.481,-65.7866 400.097,-57.3315 396.217,-63.1584"/>
</g>
<!-- Node9 -->
<g id="node9" class="node"><title>Node9</title>
<g id="a_node9"><a xlink:href="class_t_m_c_stepper.html#a597bc308bad0d1198b98c48a6ef34fc3" target="_top" xlink:title=" ">
<polygon fill="white" stroke="black" points="166.5,-141.952 166.5,-160.952 299.5,-160.952 299.5,-141.952 166.5,-141.952"/>
<text text-anchor="middle" x="233" y="-148.952" font-family="Helvetica,sans-Serif" font-size="10.00">TMCStepper::IHOLD_IRUN</text>
</a>
</g>
</g>
<!-- Node1&#45;&gt;Node9 -->
<g id="edge10" class="edge"><title>Node1&#45;&gt;Node9</title>
<path fill="none" stroke="midnightblue" d="M121.133,-151.452C132.422,-151.452 144.372,-151.452 156.085,-151.452"/>
<polygon fill="midnightblue" stroke="midnightblue" points="156.294,-154.952 166.294,-151.452 156.294,-147.952 156.294,-154.952"/>
</g>
<!-- Node10 -->
<g id="node10" class="node"><title>Node10</title>
<g id="a_node10"><a xlink:href="class_s_w___s_p_i_class.html#aa35a68a7e184e42445f391876e58dd68" target="_top" xlink:title=" ">
<polygon fill="white" stroke="black" points="184,-103.952 184,-122.952 282,-122.952 282,-103.952 184,-103.952"/>
<text text-anchor="middle" x="233" y="-110.952" font-family="Helvetica,sans-Serif" font-size="10.00">SW_SPIClass::init</text>
</a>
</g>
</g>
<!-- Node1&#45;&gt;Node10 -->
<g id="edge11" class="edge"><title>Node1&#45;&gt;Node10</title>
<path fill="none" stroke="midnightblue" d="M104.524,-141.863C127.226,-136.803 155.273,-130.553 179.274,-125.203"/>
<polygon fill="midnightblue" stroke="midnightblue" points="180.286,-128.564 189.285,-122.972 178.763,-121.731 180.286,-128.564"/>
</g>
<!-- Node11 -->
<g id="node11" class="node"><title>Node11</title>
<g id="a_node11"><a xlink:href="class_t_m_c2160_stepper.html#ae59c6240979e95e7b05074e20f3600de" target="_top" xlink:title=" ">
<polygon fill="white" stroke="black" points="158.5,-65.9521 158.5,-84.9521 307.5,-84.9521 307.5,-65.9521 158.5,-65.9521"/>
<text text-anchor="middle" x="233" y="-72.9521" font-family="Helvetica,sans-Serif" font-size="10.00">TMC2160Stepper::PWMCONF</text>
</a>
</g>
</g>
<!-- Node1&#45;&gt;Node11 -->
<g id="edge12" class="edge"><title>Node1&#45;&gt;Node11</title>
<path fill="none" stroke="midnightblue" d="M74.7578,-141.831C92.6211,-129.279 125.787,-107.396 157,-94.4521 162.863,-92.021 169.116,-89.84 175.416,-87.8996"/>
<polygon fill="midnightblue" stroke="midnightblue" points="176.668,-91.1815 185.306,-85.0473 174.728,-84.4557 176.668,-91.1815"/>
</g>
<!-- Node12 -->
<g id="node12" class="node"><title>Node12</title>
<g id="a_node12"><a xlink:href="class_t_m_c2130_stepper.html#ae54d816846ca2103976f490c5ab8e887" target="_top" xlink:title=" ">
<polygon fill="white" stroke="black" points="179,-179.952 179,-198.952 287,-198.952 287,-179.952 179,-179.952"/>
<text text-anchor="middle" x="233" y="-186.952" font-family="Helvetica,sans-Serif" font-size="10.00">TMC2130Stepper::tbl</text>
</a>
</g>
</g>
<!-- Node1&#45;&gt;Node12 -->
<g id="edge14" class="edge"><title>Node1&#45;&gt;Node12</title>
<path fill="none" stroke="midnightblue" d="M104.524,-161.041C127.226,-166.101 155.273,-172.352 179.274,-177.701"/>
<polygon fill="midnightblue" stroke="midnightblue" points="178.763,-181.173 189.285,-179.932 180.286,-174.34 178.763,-181.173"/>
</g>
<!-- Node13 -->
<g id="node13" class="node"><title>Node13</title>
<g id="a_node13"><a xlink:href="class_t_m_c2130_stepper.html#ac34bf4add4f669e935f2a91e1b42817c" target="_top" xlink:title=" ">
<polygon fill="white" stroke="black" points="178,-27.9521 178,-46.9521 288,-46.9521 288,-27.9521 178,-27.9521"/>
<text text-anchor="middle" x="233" y="-34.9521" font-family="Helvetica,sans-Serif" font-size="10.00">TMC2130Stepper::toff</text>
</a>
</g>
</g>
<!-- Node1&#45;&gt;Node13 -->
<g id="edge16" class="edge"><title>Node1&#45;&gt;Node13</title>
<path fill="none" stroke="midnightblue" d="M68.4243,-141.67C82.6804,-122.285 117.322,-78.9308 157,-56.4521 160.919,-54.232 165.098,-52.2676 169.401,-50.5298"/>
<polygon fill="midnightblue" stroke="midnightblue" points="170.752,-53.7635 178.97,-47.0766 168.375,-47.1792 170.752,-53.7635"/>
</g>
<!-- Node3 -->
<g id="node3" class="node"><title>Node3</title>
<g id="a_node3"><a xlink:href="class_t_m_c2130_stepper.html#aed0175bff6e80ebc14e0d2606283cbe0" target="_top" xlink:title=" ">
<polygon fill="white" stroke="black" points="533,-179.952 533,-198.952 649,-198.952 649,-179.952 533,-179.952"/>
<text text-anchor="middle" x="591" y="-186.952" font-family="Helvetica,sans-Serif" font-size="10.00">TMC2130Stepper::read</text>
</a>
</g>
</g>
<!-- Node2&#45;&gt;Node3 -->
<g id="edge2" class="edge"><title>Node2&#45;&gt;Node3</title>
<path fill="none" stroke="midnightblue" d="M497.155,-189.452C505.664,-189.452 514.296,-189.452 522.696,-189.452"/>
<polygon fill="midnightblue" stroke="midnightblue" points="522.802,-192.952 532.802,-189.452 522.802,-185.952 522.802,-192.952"/>
</g>
<!-- Node3&#45;&gt;Node4 -->
<g id="edge3" class="edge"><title>Node3&#45;&gt;Node4</title>
<path fill="none" stroke="midnightblue" d="M610.945,-199.037C640.516,-213.999 697.803,-242.983 732.102,-260.337"/>
<polygon fill="midnightblue" stroke="midnightblue" points="730.621,-263.51 741.124,-264.902 733.781,-257.264 730.621,-263.51"/>
</g>
<!-- Node5 -->
<g id="node5" class="node"><title>Node5</title>
<g id="a_node5"><a xlink:href="class_s_w___s_p_i_class.html#af260fdc0af3f1312b106483161e559c3" target="_top" xlink:title=" ">
<polygon fill="white" stroke="black" points="873,-179.952 873,-198.952 990,-198.952 990,-179.952 873,-179.952"/>
<text text-anchor="middle" x="931.5" y="-186.952" font-family="Helvetica,sans-Serif" font-size="10.00">SW_SPIClass::transfer</text>
</a>
</g>
</g>
<!-- Node3&#45;&gt;Node5 -->
<g id="edge4" class="edge"><title>Node3&#45;&gt;Node5</title>
<path fill="none" stroke="midnightblue" d="M649.039,-189.452C708.027,-189.452 800.113,-189.452 862.765,-189.452"/>
<polygon fill="midnightblue" stroke="midnightblue" points="862.944,-192.952 872.944,-189.452 862.944,-185.952 862.944,-192.952"/>
</g>
<!-- Node6 -->
<g id="node6" class="node"><title>Node6</title>
<g id="a_node6"><a xlink:href="class_s_w___s_p_i_class.html#a1b7600aa1d9571c103718c5d3e376675" target="_top" xlink:title=" ">
<polygon fill="white" stroke="black" points="697,-160.952 697,-179.952 825,-179.952 825,-160.952 697,-160.952"/>
<text text-anchor="middle" x="761" y="-167.952" font-family="Helvetica,sans-Serif" font-size="10.00">SW_SPIClass::transfer16</text>
</a>
</g>
</g>
<!-- Node3&#45;&gt;Node6 -->
<g id="edge5" class="edge"><title>Node3&#45;&gt;Node6</title>
<path fill="none" stroke="midnightblue" d="M649.346,-182.967C661.422,-181.601 674.318,-180.142 686.883,-178.721"/>
<polygon fill="midnightblue" stroke="midnightblue" points="687.324,-182.194 696.867,-177.592 686.537,-175.238 687.324,-182.194"/>
</g>
<!-- Node6&#45;&gt;Node5 -->
<g id="edge6" class="edge"><title>Node6&#45;&gt;Node5</title>
<path fill="none" stroke="midnightblue" d="M825.223,-177.581C837.406,-178.955 850.217,-180.399 862.543,-181.789"/>
<polygon fill="midnightblue" stroke="midnightblue" points="862.43,-185.299 872.76,-182.941 863.215,-178.343 862.43,-185.299"/>
</g>
<!-- Node8&#45;&gt;Node3 -->
<g id="edge9" class="edge"><title>Node8&#45;&gt;Node3</title>
<path fill="none" stroke="midnightblue" d="M436.035,-84.9756C464.992,-104.625 531.603,-149.825 566.966,-173.822"/>
<polygon fill="midnightblue" stroke="midnightblue" points="565.409,-176.995 575.649,-179.714 569.34,-171.203 565.409,-176.995"/>
</g>
<!-- Node12&#45;&gt;Node2 -->
<g id="edge15" class="edge"><title>Node12&#45;&gt;Node2</title>
<path fill="none" stroke="midnightblue" d="M287.3,-189.452C302.146,-189.452 318.654,-189.452 334.842,-189.452"/>
<polygon fill="midnightblue" stroke="midnightblue" points="334.863,-192.952 344.863,-189.452 334.863,-185.952 334.863,-192.952"/>
</g>
<!-- Node13&#45;&gt;Node2 -->
<g id="edge17" class="edge"><title>Node13&#45;&gt;Node2</title>
<path fill="none" stroke="midnightblue" d="M288.147,-46.7862C295.464,-49.2828 302.634,-52.4456 309,-56.4521 321.384,-64.2459 379.086,-137.05 406.048,-171.52"/>
<polygon fill="midnightblue" stroke="midnightblue" points="403.574,-174.038 412.486,-179.768 409.092,-169.732 403.574,-174.038"/>
</g>
</g>
</svg>
