<?xml version="1.0" encoding="UTF-8" standalone="no"?>
<!DOCTYPE svg PUBLIC "-//W3C//DTD SVG 1.1//EN"
 "http://www.w3.org/Graphics/SVG/1.1/DTD/svg11.dtd">
<!-- Generated by graphviz version 2.38.0 (20140413.2041)
 -->
<!-- Title: TMC2660Stepper::SGCSCONF Pages: 1 -->
<svg width="502pt" height="66pt"
 viewBox="0.00 0.00 502.00 66.00" xmlns="http://www.w3.org/2000/svg" xmlns:xlink="http://www.w3.org/1999/xlink">
<g id="graph0" class="graph" transform="scale(1 1) rotate(0) translate(4 62)">
<title>TMC2660Stepper::SGCSCONF</title>
<polygon fill="white" stroke="none" points="-4,4 -4,-62 498,-62 498,4 -4,4"/>
<!-- Node1 -->
<g id="node1" class="node"><title>Node1</title>
<g id="a_node1"><a xlink:title=" ">
<polygon fill="#bfbfbf" stroke="black" points="0,-19.5 0,-38.5 152,-38.5 152,-19.5 0,-19.5"/>
<text text-anchor="middle" x="76" y="-26.5" font-family="Helvetica,sans-Serif" font-size="10.00">TMC2660Stepper::SGCSCONF</text>
</a>
</g>
</g>
<!-- Node2 -->
<g id="node2" class="node"><title>Node2</title>
<g id="a_node2"><a xlink:href="class_t_m_c2660_stepper.html#a4ab9b5cf6da0c345ecc50e877b54ada2" target="_top" xlink:title=" ">
<polygon fill="white" stroke="black" points="188,-19.5 188,-38.5 306,-38.5 306,-19.5 188,-19.5"/>
<text text-anchor="middle" x="247" y="-26.5" font-family="Helvetica,sans-Serif" font-size="10.00">TMC2660Stepper::write</text>
</a>
</g>
</g>
<!-- Node1&#45;&gt;Node2 -->
<g id="edge1" class="edge"><title>Node1&#45;&gt;Node2</title>
<path fill="none" stroke="midnightblue" d="M152.11,-29C160.634,-29 169.286,-29 177.715,-29"/>
<polygon fill="midnightblue" stroke="midnightblue" points="177.862,-32.5001 187.862,-29 177.862,-25.5001 177.862,-32.5001"/>
</g>
<!-- Node3 -->
<g id="node3" class="node"><title>Node3</title>
<g id="a_node3"><a xlink:href="class_t_m_c2660_stepper.html#a63505ee4078e1f060a2ccecc30f228bd" target="_top" xlink:title=" ">
<polygon fill="white" stroke="black" points="342,-38.5 342,-57.5 494,-57.5 494,-38.5 342,-38.5"/>
<text text-anchor="middle" x="418" y="-45.5" font-family="Helvetica,sans-Serif" font-size="10.00">TMC2660Stepper::switchCSpin</text>
</a>
</g>
</g>
<!-- Node2&#45;&gt;Node3 -->
<g id="edge2" class="edge"><title>Node2&#45;&gt;Node3</title>
<path fill="none" stroke="midnightblue" d="M306.16,-35.5387C314.395,-36.4646 323.001,-37.4321 331.62,-38.401"/>
<polygon fill="midnightblue" stroke="midnightblue" points="331.392,-41.8974 341.721,-39.5366 332.174,-34.9412 331.392,-41.8974"/>
</g>
<!-- Node4 -->
<g id="node4" class="node"><title>Node4</title>
<g id="a_node4"><a xlink:href="class_s_w___s_p_i_class.html#af260fdc0af3f1312b106483161e559c3" target="_top" xlink:title=" ">
<polygon fill="white" stroke="black" points="359.5,-0.5 359.5,-19.5 476.5,-19.5 476.5,-0.5 359.5,-0.5"/>
<text text-anchor="middle" x="418" y="-7.5" font-family="Helvetica,sans-Serif" font-size="10.00">SW_SPIClass::transfer</text>
</a>
</g>
</g>
<!-- Node2&#45;&gt;Node4 -->
<g id="edge3" class="edge"><title>Node2&#45;&gt;Node4</title>
<path fill="none" stroke="midnightblue" d="M306.16,-22.4613C319.99,-20.9065 334.865,-19.2341 349.088,-17.635"/>
<polygon fill="midnightblue" stroke="midnightblue" points="349.759,-21.0818 359.305,-16.4864 348.977,-14.1256 349.759,-21.0818"/>
</g>
</g>
</svg>
