<?xml version="1.0" encoding="UTF-8" standalone="no"?>
<!DOCTYPE svg PUBLIC "-//W3C//DTD SVG 1.1//EN"
 "http://www.w3.org/Graphics/SVG/1.1/DTD/svg11.dtd">
<!-- Generated by graphviz version 2.38.0 (20140413.2041)
 -->
<!-- Title: TMC2208Stepper::vsense Pages: 1 -->
<svg width="1011pt" height="156pt"
 viewBox="0.00 0.00 1011.00 156.41" xmlns="http://www.w3.org/2000/svg" xmlns:xlink="http://www.w3.org/1999/xlink">
<g id="graph0" class="graph" transform="scale(1 1) rotate(0) translate(4 152.405)">
<title>TMC2208Stepper::vsense</title>
<polygon fill="white" stroke="none" points="-4,4 -4,-152.405 1007,-152.405 1007,4 -4,4"/>
<!-- Node1 -->
<g id="node1" class="node"><title>Node1</title>
<g id="a_node1"><a xlink:title=" ">
<polygon fill="#bfbfbf" stroke="black" points="0,-46.9052 0,-65.9052 128,-65.9052 128,-46.9052 0,-46.9052"/>
<text text-anchor="middle" x="64" y="-53.9052" font-family="Helvetica,sans-Serif" font-size="10.00">TMC2208Stepper::vsense</text>
</a>
</g>
</g>
<!-- Node2 -->
<g id="node2" class="node"><title>Node2</title>
<g id="a_node2"><a xlink:href="class_t_m_c2208_stepper.html#aa11281f54c293f3ff2539b1a583682a9" target="_top" xlink:title=" ">
<polygon fill="white" stroke="black" points="164,-46.9052 164,-65.9052 316,-65.9052 316,-46.9052 164,-46.9052"/>
<text text-anchor="middle" x="240" y="-53.9052" font-family="Helvetica,sans-Serif" font-size="10.00">TMC2208Stepper::CHOPCONF</text>
</a>
</g>
</g>
<!-- Node1&#45;&gt;Node2 -->
<g id="edge1" class="edge"><title>Node1&#45;&gt;Node2</title>
<path fill="none" stroke="midnightblue" d="M128.31,-56.4052C136.621,-56.4052 145.245,-56.4052 153.844,-56.4052"/>
<polygon fill="midnightblue" stroke="midnightblue" points="153.907,-59.9053 163.907,-56.4052 153.907,-52.9053 153.907,-59.9053"/>
</g>
<!-- Node3 -->
<g id="node3" class="node"><title>Node3</title>
<g id="a_node3"><a xlink:href="class_t_m_c2208_stepper.html#a2fae2050849c3ab7968012def8ea1cc5" target="_top" xlink:title=" ">
<polygon fill="white" stroke="black" points="352,-46.9052 352,-65.9052 468,-65.9052 468,-46.9052 352,-46.9052"/>
<text text-anchor="middle" x="410" y="-53.9052" font-family="Helvetica,sans-Serif" font-size="10.00">TMC2208Stepper::read</text>
</a>
</g>
</g>
<!-- Node2&#45;&gt;Node3 -->
<g id="edge2" class="edge"><title>Node2&#45;&gt;Node3</title>
<path fill="none" stroke="midnightblue" d="M316.155,-56.4052C324.664,-56.4052 333.296,-56.4052 341.696,-56.4052"/>
<polygon fill="midnightblue" stroke="midnightblue" points="341.802,-59.9053 351.802,-56.4052 341.802,-52.9053 341.802,-59.9053"/>
</g>
<!-- Node4 -->
<g id="node4" class="node"><title>Node4</title>
<g id="a_node4"><a xlink:href="class_t_m_c2208_stepper.html#a3e1f6a10aa1e3e41dc2594dbe1ea8a1d" target="_top" xlink:title=" ">
<polygon fill="white" stroke="black" points="504,-103.905 504,-122.905 670,-122.905 670,-103.905 504,-103.905"/>
<text text-anchor="middle" x="587" y="-110.905" font-family="Helvetica,sans-Serif" font-size="10.00">TMC2208Stepper::_sendDatagram</text>
</a>
</g>
</g>
<!-- Node3&#45;&gt;Node4 -->
<g id="edge3" class="edge"><title>Node3&#45;&gt;Node4</title>
<path fill="none" stroke="midnightblue" d="M431.7,-65.9833C450.317,-74.3262 478.568,-86.3205 504,-94.4052 512.008,-96.9508 520.555,-99.3114 528.996,-101.442"/>
<polygon fill="midnightblue" stroke="midnightblue" points="528.272,-104.868 538.816,-103.834 529.929,-98.0666 528.272,-104.868"/>
</g>
<!-- Node9 -->
<g id="node9" class="node"><title>Node9</title>
<g id="a_node9"><a xlink:href="class_s_switch.html#a6ff09d0850d551571dc333fb74ff8628" target="_top" xlink:title=" ">
<polygon fill="white" stroke="black" points="545.5,-65.9052 545.5,-84.9052 628.5,-84.9052 628.5,-65.9052 545.5,-65.9052"/>
<text text-anchor="middle" x="587" y="-72.9052" font-family="Helvetica,sans-Serif" font-size="10.00">SSwitch::active</text>
</a>
</g>
</g>
<!-- Node3&#45;&gt;Node9 -->
<g id="edge9" class="edge"><title>Node3&#45;&gt;Node9</title>
<path fill="none" stroke="midnightblue" d="M468.302,-62.6265C489.975,-64.9796 514.465,-67.6385 535.472,-69.9193"/>
<polygon fill="midnightblue" stroke="midnightblue" points="535.158,-73.4056 545.477,-71.0055 535.913,-66.4465 535.158,-73.4056"/>
</g>
<!-- Node10 -->
<g id="node10" class="node"><title>Node10</title>
<g id="a_node10"><a xlink:href="class_t_m_c2208_stepper.html#a409c19fa6b052a370a317d061bf9af4e" target="_top" xlink:title=" ">
<polygon fill="white" stroke="black" points="519,-27.9052 519,-46.9052 655,-46.9052 655,-27.9052 519,-27.9052"/>
<text text-anchor="middle" x="587" y="-34.9052" font-family="Helvetica,sans-Serif" font-size="10.00">TMC2208Stepper::calcCRC</text>
</a>
</g>
</g>
<!-- Node3&#45;&gt;Node10 -->
<g id="edge10" class="edge"><title>Node3&#45;&gt;Node10</title>
<path fill="none" stroke="midnightblue" d="M468.302,-50.1839C481.17,-48.7867 495.032,-47.2817 508.567,-45.8121"/>
<polygon fill="midnightblue" stroke="midnightblue" points="509.269,-49.2566 518.833,-44.6976 508.514,-42.2975 509.269,-49.2566"/>
</g>
<!-- Node5 -->
<g id="node5" class="node"><title>Node5</title>
<g id="a_node5"><a xlink:href="class_t_m_c2208_stepper.html#a4ec5d2b2f5a31259c7aba1f3208d63b8" target="_top" xlink:title=" ">
<polygon fill="white" stroke="black" points="720.5,-128.905 720.5,-147.905 836.5,-147.905 836.5,-128.905 720.5,-128.905"/>
<text text-anchor="middle" x="778.5" y="-135.905" font-family="Helvetica,sans-Serif" font-size="10.00">TMC2208Stepper::ms2</text>
</a>
</g>
</g>
<!-- Node4&#45;&gt;Node5 -->
<g id="edge4" class="edge"><title>Node4&#45;&gt;Node5</title>
<path fill="none" stroke="midnightblue" d="M660.182,-122.928C676.64,-125.099 694.062,-127.397 710.301,-129.54"/>
<polygon fill="midnightblue" stroke="midnightblue" points="709.868,-133.013 720.24,-130.851 710.784,-126.073 709.868,-133.013"/>
</g>
<!-- Node7 -->
<g id="node7" class="node"><title>Node7</title>
<g id="a_node7"><a xlink:href="class_t_m_c2208_stepper.html#ae561da4ec7c40830e97bf4dc8cf700fb" target="_top" xlink:title=" ">
<polygon fill="white" stroke="black" points="706,-90.9052 706,-109.905 851,-109.905 851,-90.9052 706,-90.9052"/>
<text text-anchor="middle" x="778.5" y="-97.9052" font-family="Helvetica,sans-Serif" font-size="10.00">TMC2208Stepper::serial_read</text>
</a>
</g>
</g>
<!-- Node4&#45;&gt;Node7 -->
<g id="edge7" class="edge"><title>Node4&#45;&gt;Node7</title>
<path fill="none" stroke="midnightblue" d="M670.015,-107.779C678.478,-107.198 687.078,-106.608 695.54,-106.028"/>
<polygon fill="midnightblue" stroke="midnightblue" points="696.038,-109.502 705.775,-105.326 695.559,-102.518 696.038,-109.502"/>
</g>
<!-- Node8 -->
<g id="node8" class="node"><title>Node8</title>
<g id="a_node8"><a xlink:href="class_t_m_c2208_stepper.html#a7dd83313385079099b0622957786a979" target="_top" xlink:title=" ">
<polygon fill="white" stroke="black" points="718,-41.4052 718,-71.4052 839,-71.4052 839,-41.4052 718,-41.4052"/>
<text text-anchor="start" x="726" y="-59.4052" font-family="Helvetica,sans-Serif" font-size="10.00">TMC2208Stepper::serial</text>
<text text-anchor="middle" x="778.5" y="-48.4052" font-family="Helvetica,sans-Serif" font-size="10.00">_write</text>
</a>
</g>
</g>
<!-- Node4&#45;&gt;Node8 -->
<g id="edge8" class="edge"><title>Node4&#45;&gt;Node8</title>
<path fill="none" stroke="midnightblue" d="M633.793,-103.808C645.658,-101.045 658.367,-97.8399 670,-94.4052 686.315,-89.5878 689.971,-87.1015 706,-81.4052 712.017,-79.2668 718.325,-77.0401 724.595,-74.8355"/>
<polygon fill="midnightblue" stroke="midnightblue" points="726.095,-78.0185 734.372,-71.4052 723.778,-71.4133 726.095,-78.0185"/>
</g>
<!-- Node6 -->
<g id="node6" class="node"><title>Node6</title>
<g id="a_node6"><a xlink:href="class_t_m_c2208_stepper.html#a5441dd87d0bcea4ffc309cb012166a57" target="_top" xlink:title=" ">
<polygon fill="white" stroke="black" points="887,-58.9052 887,-77.9052 1003,-77.9052 1003,-58.9052 887,-58.9052"/>
<text text-anchor="middle" x="945" y="-65.9052" font-family="Helvetica,sans-Serif" font-size="10.00">TMC2208Stepper::IOIN</text>
</a>
</g>
</g>
<!-- Node5&#45;&gt;Node6 -->
<g id="edge5" class="edge"><title>Node5&#45;&gt;Node6</title>
<path fill="none" stroke="midnightblue" d="M822.395,-128.814C831.954,-126.18 841.937,-123.032 851,-119.405 875.717,-109.514 902.177,-94.529 920.529,-83.3584"/>
<polygon fill="midnightblue" stroke="midnightblue" points="922.423,-86.3019 929.088,-78.0661 918.742,-80.348 922.423,-86.3019"/>
</g>
<!-- Node6&#45;&gt;Node3 -->
<g id="edge6" class="edge"><title>Node6&#45;&gt;Node3</title>
<path fill="none" stroke="midnightblue" d="M924.963,-58.8176C906.546,-50.0326 877.593,-37.4965 851,-31.4052 700.566,3.05335 655.437,11.3399 504,-18.4052 480.751,-22.9717 455.989,-33.3919 437.866,-42.1675"/>
<polygon fill="midnightblue" stroke="midnightblue" points="435.917,-39.2285 428.532,-46.826 439.043,-45.4917 435.917,-39.2285"/>
</g>
</g>
</svg>
