<?xml version="1.0" encoding="UTF-8" standalone="no"?>
<!DOCTYPE svg PUBLIC "-//W3C//DTD SVG 1.1//EN"
 "http://www.w3.org/Graphics/SVG/1.1/DTD/svg11.dtd">
<!-- Generated by graphviz version 2.38.0 (20140413.2041)
 -->
<!-- Title: TMC2224Stepper::sel_a Pages: 1 -->
<svg width="968pt" height="156pt"
 viewBox="0.00 0.00 968.00 156.41" xmlns="http://www.w3.org/2000/svg" xmlns:xlink="http://www.w3.org/1999/xlink">
<g id="graph0" class="graph" transform="scale(1 1) rotate(0) translate(4 152.405)">
<title>TMC2224Stepper::sel_a</title>
<polygon fill="white" stroke="none" points="-4,4 -4,-152.405 964,-152.405 964,4 -4,4"/>
<!-- Node1 -->
<g id="node1" class="node"><title>Node1</title>
<g id="a_node1"><a xlink:title=" ">
<polygon fill="#bfbfbf" stroke="black" points="0,-46.9052 0,-65.9052 121,-65.9052 121,-46.9052 0,-46.9052"/>
<text text-anchor="middle" x="60.5" y="-53.9052" font-family="Helvetica,sans-Serif" font-size="10.00">TMC2224Stepper::sel_a</text>
</a>
</g>
</g>
<!-- Node2 -->
<g id="node2" class="node"><title>Node2</title>
<g id="a_node2"><a xlink:href="class_t_m_c2224_stepper.html#aa5fa836e15992bc49e0297ef2126f725" target="_top" xlink:title=" ">
<polygon fill="white" stroke="black" points="157,-46.9052 157,-65.9052 273,-65.9052 273,-46.9052 157,-46.9052"/>
<text text-anchor="middle" x="215" y="-53.9052" font-family="Helvetica,sans-Serif" font-size="10.00">TMC2224Stepper::IOIN</text>
</a>
</g>
</g>
<!-- Node1&#45;&gt;Node2 -->
<g id="edge1" class="edge"><title>Node1&#45;&gt;Node2</title>
<path fill="none" stroke="midnightblue" d="M121.334,-56.4052C129.64,-56.4052 138.218,-56.4052 146.649,-56.4052"/>
<polygon fill="midnightblue" stroke="midnightblue" points="146.832,-59.9053 156.832,-56.4052 146.832,-52.9053 146.832,-59.9053"/>
</g>
<!-- Node3 -->
<g id="node3" class="node"><title>Node3</title>
<g id="a_node3"><a xlink:href="class_t_m_c2208_stepper.html#a2fae2050849c3ab7968012def8ea1cc5" target="_top" xlink:title=" ">
<polygon fill="white" stroke="black" points="309,-46.9052 309,-65.9052 425,-65.9052 425,-46.9052 309,-46.9052"/>
<text text-anchor="middle" x="367" y="-53.9052" font-family="Helvetica,sans-Serif" font-size="10.00">TMC2208Stepper::read</text>
</a>
</g>
</g>
<!-- Node2&#45;&gt;Node3 -->
<g id="edge2" class="edge"><title>Node2&#45;&gt;Node3</title>
<path fill="none" stroke="midnightblue" d="M273.136,-56.4052C281.377,-56.4052 289.923,-56.4052 298.344,-56.4052"/>
<polygon fill="midnightblue" stroke="midnightblue" points="298.526,-59.9053 308.525,-56.4052 298.525,-52.9053 298.526,-59.9053"/>
</g>
<!-- Node4 -->
<g id="node4" class="node"><title>Node4</title>
<g id="a_node4"><a xlink:href="class_t_m_c2208_stepper.html#a3e1f6a10aa1e3e41dc2594dbe1ea8a1d" target="_top" xlink:title=" ">
<polygon fill="white" stroke="black" points="461,-103.905 461,-122.905 627,-122.905 627,-103.905 461,-103.905"/>
<text text-anchor="middle" x="544" y="-110.905" font-family="Helvetica,sans-Serif" font-size="10.00">TMC2208Stepper::_sendDatagram</text>
</a>
</g>
</g>
<!-- Node3&#45;&gt;Node4 -->
<g id="edge3" class="edge"><title>Node3&#45;&gt;Node4</title>
<path fill="none" stroke="midnightblue" d="M388.7,-65.9833C407.317,-74.3262 435.568,-86.3205 461,-94.4052 469.008,-96.9508 477.555,-99.3114 485.996,-101.442"/>
<polygon fill="midnightblue" stroke="midnightblue" points="485.272,-104.868 495.816,-103.834 486.929,-98.0666 485.272,-104.868"/>
</g>
<!-- Node9 -->
<g id="node9" class="node"><title>Node9</title>
<g id="a_node9"><a xlink:href="class_s_switch.html#a6ff09d0850d551571dc333fb74ff8628" target="_top" xlink:title=" ">
<polygon fill="white" stroke="black" points="502.5,-65.9052 502.5,-84.9052 585.5,-84.9052 585.5,-65.9052 502.5,-65.9052"/>
<text text-anchor="middle" x="544" y="-72.9052" font-family="Helvetica,sans-Serif" font-size="10.00">SSwitch::active</text>
</a>
</g>
</g>
<!-- Node3&#45;&gt;Node9 -->
<g id="edge9" class="edge"><title>Node3&#45;&gt;Node9</title>
<path fill="none" stroke="midnightblue" d="M425.302,-62.6265C446.975,-64.9796 471.465,-67.6385 492.472,-69.9193"/>
<polygon fill="midnightblue" stroke="midnightblue" points="492.158,-73.4056 502.477,-71.0055 492.913,-66.4465 492.158,-73.4056"/>
</g>
<!-- Node10 -->
<g id="node10" class="node"><title>Node10</title>
<g id="a_node10"><a xlink:href="class_t_m_c2208_stepper.html#a409c19fa6b052a370a317d061bf9af4e" target="_top" xlink:title=" ">
<polygon fill="white" stroke="black" points="476,-27.9052 476,-46.9052 612,-46.9052 612,-27.9052 476,-27.9052"/>
<text text-anchor="middle" x="544" y="-34.9052" font-family="Helvetica,sans-Serif" font-size="10.00">TMC2208Stepper::calcCRC</text>
</a>
</g>
</g>
<!-- Node3&#45;&gt;Node10 -->
<g id="edge10" class="edge"><title>Node3&#45;&gt;Node10</title>
<path fill="none" stroke="midnightblue" d="M425.302,-50.1839C438.17,-48.7867 452.032,-47.2817 465.567,-45.8121"/>
<polygon fill="midnightblue" stroke="midnightblue" points="466.269,-49.2566 475.833,-44.6976 465.514,-42.2975 466.269,-49.2566"/>
</g>
<!-- Node5 -->
<g id="node5" class="node"><title>Node5</title>
<g id="a_node5"><a xlink:href="class_t_m_c2208_stepper.html#a4ec5d2b2f5a31259c7aba1f3208d63b8" target="_top" xlink:title=" ">
<polygon fill="white" stroke="black" points="677.5,-128.905 677.5,-147.905 793.5,-147.905 793.5,-128.905 677.5,-128.905"/>
<text text-anchor="middle" x="735.5" y="-135.905" font-family="Helvetica,sans-Serif" font-size="10.00">TMC2208Stepper::ms2</text>
</a>
</g>
</g>
<!-- Node4&#45;&gt;Node5 -->
<g id="edge4" class="edge"><title>Node4&#45;&gt;Node5</title>
<path fill="none" stroke="midnightblue" d="M617.182,-122.928C633.64,-125.099 651.062,-127.397 667.301,-129.54"/>
<polygon fill="midnightblue" stroke="midnightblue" points="666.868,-133.013 677.24,-130.851 667.784,-126.073 666.868,-133.013"/>
</g>
<!-- Node7 -->
<g id="node7" class="node"><title>Node7</title>
<g id="a_node7"><a xlink:href="class_t_m_c2208_stepper.html#ae561da4ec7c40830e97bf4dc8cf700fb" target="_top" xlink:title=" ">
<polygon fill="white" stroke="black" points="663,-90.9052 663,-109.905 808,-109.905 808,-90.9052 663,-90.9052"/>
<text text-anchor="middle" x="735.5" y="-97.9052" font-family="Helvetica,sans-Serif" font-size="10.00">TMC2208Stepper::serial_read</text>
</a>
</g>
</g>
<!-- Node4&#45;&gt;Node7 -->
<g id="edge7" class="edge"><title>Node4&#45;&gt;Node7</title>
<path fill="none" stroke="midnightblue" d="M627.015,-107.779C635.478,-107.198 644.078,-106.608 652.54,-106.028"/>
<polygon fill="midnightblue" stroke="midnightblue" points="653.038,-109.502 662.775,-105.326 652.559,-102.518 653.038,-109.502"/>
</g>
<!-- Node8 -->
<g id="node8" class="node"><title>Node8</title>
<g id="a_node8"><a xlink:href="class_t_m_c2208_stepper.html#a7dd83313385079099b0622957786a979" target="_top" xlink:title=" ">
<polygon fill="white" stroke="black" points="675,-41.4052 675,-71.4052 796,-71.4052 796,-41.4052 675,-41.4052"/>
<text text-anchor="start" x="683" y="-59.4052" font-family="Helvetica,sans-Serif" font-size="10.00">TMC2208Stepper::serial</text>
<text text-anchor="middle" x="735.5" y="-48.4052" font-family="Helvetica,sans-Serif" font-size="10.00">_write</text>
</a>
</g>
</g>
<!-- Node4&#45;&gt;Node8 -->
<g id="edge8" class="edge"><title>Node4&#45;&gt;Node8</title>
<path fill="none" stroke="midnightblue" d="M590.793,-103.808C602.658,-101.045 615.367,-97.8399 627,-94.4052 643.315,-89.5878 646.971,-87.1015 663,-81.4052 669.017,-79.2668 675.325,-77.0401 681.595,-74.8355"/>
<polygon fill="midnightblue" stroke="midnightblue" points="683.095,-78.0185 691.372,-71.4052 680.778,-71.4133 683.095,-78.0185"/>
</g>
<!-- Node6 -->
<g id="node6" class="node"><title>Node6</title>
<g id="a_node6"><a xlink:href="class_t_m_c2208_stepper.html#a5441dd87d0bcea4ffc309cb012166a57" target="_top" xlink:title=" ">
<polygon fill="white" stroke="black" points="844,-58.9052 844,-77.9052 960,-77.9052 960,-58.9052 844,-58.9052"/>
<text text-anchor="middle" x="902" y="-65.9052" font-family="Helvetica,sans-Serif" font-size="10.00">TMC2208Stepper::IOIN</text>
</a>
</g>
</g>
<!-- Node5&#45;&gt;Node6 -->
<g id="edge5" class="edge"><title>Node5&#45;&gt;Node6</title>
<path fill="none" stroke="midnightblue" d="M779.395,-128.814C788.954,-126.18 798.937,-123.032 808,-119.405 832.717,-109.514 859.177,-94.529 877.529,-83.3584"/>
<polygon fill="midnightblue" stroke="midnightblue" points="879.423,-86.3019 886.088,-78.0661 875.742,-80.348 879.423,-86.3019"/>
</g>
<!-- Node6&#45;&gt;Node3 -->
<g id="edge6" class="edge"><title>Node6&#45;&gt;Node3</title>
<path fill="none" stroke="midnightblue" d="M881.963,-58.8176C863.546,-50.0326 834.593,-37.4965 808,-31.4052 657.566,3.05335 612.437,11.3399 461,-18.4052 437.751,-22.9717 412.989,-33.3919 394.866,-42.1675"/>
<polygon fill="midnightblue" stroke="midnightblue" points="392.917,-39.2285 385.532,-46.826 396.043,-45.4917 392.917,-39.2285"/>
</g>
</g>
</svg>
