<?xml version="1.0" encoding="UTF-8" standalone="no"?>
<!DOCTYPE svg PUBLIC "-//W3C//DTD SVG 1.1//EN"
 "http://www.w3.org/Graphics/SVG/1.1/DTD/svg11.dtd">
<!-- Generated by graphviz version 2.38.0 (20140413.2041)
 -->
<!-- Title: TMC2208Stepper::hstrt Pages: 1 -->
<svg width="1153pt" height="156pt"
 viewBox="0.00 0.00 1153.00 156.41" xmlns="http://www.w3.org/2000/svg" xmlns:xlink="http://www.w3.org/1999/xlink">
<g id="graph0" class="graph" transform="scale(1 1) rotate(0) translate(4 152.405)">
<title>TMC2208Stepper::hstrt</title>
<polygon fill="white" stroke="none" points="-4,4 -4,-152.405 1149,-152.405 1149,4 -4,4"/>
<!-- Node1 -->
<g id="node1" class="node"><title>Node1</title>
<g id="a_node1"><a xlink:title=" ">
<polygon fill="#bfbfbf" stroke="black" points="0,-46.9052 0,-65.9052 117,-65.9052 117,-46.9052 0,-46.9052"/>
<text text-anchor="middle" x="58.5" y="-53.9052" font-family="Helvetica,sans-Serif" font-size="10.00">TMC2208Stepper::hstrt</text>
</a>
</g>
</g>
<!-- Node2 -->
<g id="node2" class="node"><title>Node2</title>
<g id="a_node2"><a xlink:href="class_t_m_c2208_stepper.html#ae86e87a3b5882ac40c6f21348c6793ed" target="_top" xlink:title=" ">
<polygon fill="white" stroke="black" points="153,-46.9052 153,-65.9052 270,-65.9052 270,-46.9052 153,-46.9052"/>
<text text-anchor="middle" x="211.5" y="-53.9052" font-family="Helvetica,sans-Serif" font-size="10.00">TMC2208Stepper::hstrt</text>
</a>
</g>
</g>
<!-- Node1&#45;&gt;Node2 -->
<g id="edge1" class="edge"><title>Node1&#45;&gt;Node2</title>
<path fill="none" stroke="midnightblue" d="M117.017,-56.4052C125.464,-56.4052 134.229,-56.4052 142.856,-56.4052"/>
<polygon fill="midnightblue" stroke="midnightblue" points="142.893,-59.9053 152.893,-56.4052 142.892,-52.9053 142.893,-59.9053"/>
</g>
<!-- Node3 -->
<g id="node3" class="node"><title>Node3</title>
<g id="a_node3"><a xlink:href="class_t_m_c2208_stepper.html#aa11281f54c293f3ff2539b1a583682a9" target="_top" xlink:title=" ">
<polygon fill="white" stroke="black" points="306,-46.9052 306,-65.9052 458,-65.9052 458,-46.9052 306,-46.9052"/>
<text text-anchor="middle" x="382" y="-53.9052" font-family="Helvetica,sans-Serif" font-size="10.00">TMC2208Stepper::CHOPCONF</text>
</a>
</g>
</g>
<!-- Node2&#45;&gt;Node3 -->
<g id="edge2" class="edge"><title>Node2&#45;&gt;Node3</title>
<path fill="none" stroke="midnightblue" d="M270.017,-56.4052C278.308,-56.4052 286.985,-56.4052 295.677,-56.4052"/>
<polygon fill="midnightblue" stroke="midnightblue" points="295.866,-59.9053 305.866,-56.4052 295.866,-52.9053 295.866,-59.9053"/>
</g>
<!-- Node4 -->
<g id="node4" class="node"><title>Node4</title>
<g id="a_node4"><a xlink:href="class_t_m_c2208_stepper.html#a2fae2050849c3ab7968012def8ea1cc5" target="_top" xlink:title=" ">
<polygon fill="white" stroke="black" points="494,-46.9052 494,-65.9052 610,-65.9052 610,-46.9052 494,-46.9052"/>
<text text-anchor="middle" x="552" y="-53.9052" font-family="Helvetica,sans-Serif" font-size="10.00">TMC2208Stepper::read</text>
</a>
</g>
</g>
<!-- Node3&#45;&gt;Node4 -->
<g id="edge3" class="edge"><title>Node3&#45;&gt;Node4</title>
<path fill="none" stroke="midnightblue" d="M458.155,-56.4052C466.664,-56.4052 475.296,-56.4052 483.696,-56.4052"/>
<polygon fill="midnightblue" stroke="midnightblue" points="483.802,-59.9053 493.802,-56.4052 483.802,-52.9053 483.802,-59.9053"/>
</g>
<!-- Node5 -->
<g id="node5" class="node"><title>Node5</title>
<g id="a_node5"><a xlink:href="class_t_m_c2208_stepper.html#a3e1f6a10aa1e3e41dc2594dbe1ea8a1d" target="_top" xlink:title=" ">
<polygon fill="white" stroke="black" points="646,-103.905 646,-122.905 812,-122.905 812,-103.905 646,-103.905"/>
<text text-anchor="middle" x="729" y="-110.905" font-family="Helvetica,sans-Serif" font-size="10.00">TMC2208Stepper::_sendDatagram</text>
</a>
</g>
</g>
<!-- Node4&#45;&gt;Node5 -->
<g id="edge4" class="edge"><title>Node4&#45;&gt;Node5</title>
<path fill="none" stroke="midnightblue" d="M573.7,-65.9833C592.317,-74.3262 620.568,-86.3205 646,-94.4052 654.008,-96.9508 662.555,-99.3114 670.996,-101.442"/>
<polygon fill="midnightblue" stroke="midnightblue" points="670.272,-104.868 680.816,-103.834 671.929,-98.0666 670.272,-104.868"/>
</g>
<!-- Node10 -->
<g id="node10" class="node"><title>Node10</title>
<g id="a_node10"><a xlink:href="class_s_switch.html#a6ff09d0850d551571dc333fb74ff8628" target="_top" xlink:title=" ">
<polygon fill="white" stroke="black" points="687.5,-65.9052 687.5,-84.9052 770.5,-84.9052 770.5,-65.9052 687.5,-65.9052"/>
<text text-anchor="middle" x="729" y="-72.9052" font-family="Helvetica,sans-Serif" font-size="10.00">SSwitch::active</text>
</a>
</g>
</g>
<!-- Node4&#45;&gt;Node10 -->
<g id="edge10" class="edge"><title>Node4&#45;&gt;Node10</title>
<path fill="none" stroke="midnightblue" d="M610.302,-62.6265C631.975,-64.9796 656.465,-67.6385 677.472,-69.9193"/>
<polygon fill="midnightblue" stroke="midnightblue" points="677.158,-73.4056 687.477,-71.0055 677.913,-66.4465 677.158,-73.4056"/>
</g>
<!-- Node11 -->
<g id="node11" class="node"><title>Node11</title>
<g id="a_node11"><a xlink:href="class_t_m_c2208_stepper.html#a409c19fa6b052a370a317d061bf9af4e" target="_top" xlink:title=" ">
<polygon fill="white" stroke="black" points="661,-27.9052 661,-46.9052 797,-46.9052 797,-27.9052 661,-27.9052"/>
<text text-anchor="middle" x="729" y="-34.9052" font-family="Helvetica,sans-Serif" font-size="10.00">TMC2208Stepper::calcCRC</text>
</a>
</g>
</g>
<!-- Node4&#45;&gt;Node11 -->
<g id="edge11" class="edge"><title>Node4&#45;&gt;Node11</title>
<path fill="none" stroke="midnightblue" d="M610.302,-50.1839C623.17,-48.7867 637.032,-47.2817 650.567,-45.8121"/>
<polygon fill="midnightblue" stroke="midnightblue" points="651.269,-49.2566 660.833,-44.6976 650.514,-42.2975 651.269,-49.2566"/>
</g>
<!-- Node6 -->
<g id="node6" class="node"><title>Node6</title>
<g id="a_node6"><a xlink:href="class_t_m_c2208_stepper.html#a4ec5d2b2f5a31259c7aba1f3208d63b8" target="_top" xlink:title=" ">
<polygon fill="white" stroke="black" points="862.5,-128.905 862.5,-147.905 978.5,-147.905 978.5,-128.905 862.5,-128.905"/>
<text text-anchor="middle" x="920.5" y="-135.905" font-family="Helvetica,sans-Serif" font-size="10.00">TMC2208Stepper::ms2</text>
</a>
</g>
</g>
<!-- Node5&#45;&gt;Node6 -->
<g id="edge5" class="edge"><title>Node5&#45;&gt;Node6</title>
<path fill="none" stroke="midnightblue" d="M802.182,-122.928C818.64,-125.099 836.062,-127.397 852.301,-129.54"/>
<polygon fill="midnightblue" stroke="midnightblue" points="851.868,-133.013 862.24,-130.851 852.784,-126.073 851.868,-133.013"/>
</g>
<!-- Node8 -->
<g id="node8" class="node"><title>Node8</title>
<g id="a_node8"><a xlink:href="class_t_m_c2208_stepper.html#ae561da4ec7c40830e97bf4dc8cf700fb" target="_top" xlink:title=" ">
<polygon fill="white" stroke="black" points="848,-90.9052 848,-109.905 993,-109.905 993,-90.9052 848,-90.9052"/>
<text text-anchor="middle" x="920.5" y="-97.9052" font-family="Helvetica,sans-Serif" font-size="10.00">TMC2208Stepper::serial_read</text>
</a>
</g>
</g>
<!-- Node5&#45;&gt;Node8 -->
<g id="edge8" class="edge"><title>Node5&#45;&gt;Node8</title>
<path fill="none" stroke="midnightblue" d="M812.015,-107.779C820.478,-107.198 829.078,-106.608 837.54,-106.028"/>
<polygon fill="midnightblue" stroke="midnightblue" points="838.038,-109.502 847.775,-105.326 837.559,-102.518 838.038,-109.502"/>
</g>
<!-- Node9 -->
<g id="node9" class="node"><title>Node9</title>
<g id="a_node9"><a xlink:href="class_t_m_c2208_stepper.html#a7dd83313385079099b0622957786a979" target="_top" xlink:title=" ">
<polygon fill="white" stroke="black" points="860,-41.4052 860,-71.4052 981,-71.4052 981,-41.4052 860,-41.4052"/>
<text text-anchor="start" x="868" y="-59.4052" font-family="Helvetica,sans-Serif" font-size="10.00">TMC2208Stepper::serial</text>
<text text-anchor="middle" x="920.5" y="-48.4052" font-family="Helvetica,sans-Serif" font-size="10.00">_write</text>
</a>
</g>
</g>
<!-- Node5&#45;&gt;Node9 -->
<g id="edge9" class="edge"><title>Node5&#45;&gt;Node9</title>
<path fill="none" stroke="midnightblue" d="M775.793,-103.808C787.658,-101.045 800.367,-97.8399 812,-94.4052 828.315,-89.5878 831.971,-87.1015 848,-81.4052 854.017,-79.2668 860.325,-77.0401 866.595,-74.8355"/>
<polygon fill="midnightblue" stroke="midnightblue" points="868.095,-78.0185 876.372,-71.4052 865.778,-71.4133 868.095,-78.0185"/>
</g>
<!-- Node7 -->
<g id="node7" class="node"><title>Node7</title>
<g id="a_node7"><a xlink:href="class_t_m_c2208_stepper.html#a5441dd87d0bcea4ffc309cb012166a57" target="_top" xlink:title=" ">
<polygon fill="white" stroke="black" points="1029,-58.9052 1029,-77.9052 1145,-77.9052 1145,-58.9052 1029,-58.9052"/>
<text text-anchor="middle" x="1087" y="-65.9052" font-family="Helvetica,sans-Serif" font-size="10.00">TMC2208Stepper::IOIN</text>
</a>
</g>
</g>
<!-- Node6&#45;&gt;Node7 -->
<g id="edge6" class="edge"><title>Node6&#45;&gt;Node7</title>
<path fill="none" stroke="midnightblue" d="M964.395,-128.814C973.954,-126.18 983.937,-123.032 993,-119.405 1017.72,-109.514 1044.18,-94.529 1062.53,-83.3584"/>
<polygon fill="midnightblue" stroke="midnightblue" points="1064.42,-86.3019 1071.09,-78.0661 1060.74,-80.348 1064.42,-86.3019"/>
</g>
<!-- Node7&#45;&gt;Node4 -->
<g id="edge7" class="edge"><title>Node7&#45;&gt;Node4</title>
<path fill="none" stroke="midnightblue" d="M1066.96,-58.8176C1048.55,-50.0326 1019.59,-37.4965 993,-31.4052 842.566,3.05335 797.437,11.3399 646,-18.4052 622.751,-22.9717 597.989,-33.3919 579.866,-42.1675"/>
<polygon fill="midnightblue" stroke="midnightblue" points="577.917,-39.2285 570.532,-46.826 581.043,-45.4917 577.917,-39.2285"/>
</g>
</g>
</svg>
