<?xml version="1.0" encoding="UTF-8" standalone="no"?>
<!DOCTYPE svg PUBLIC "-//W3C//DTD SVG 1.1//EN"
 "http://www.w3.org/Graphics/SVG/1.1/DTD/svg11.dtd">
<!-- Generated by graphviz version 2.38.0 (20140413.2041)
 -->
<!-- Title: TMC2130Stepper::isEnabled Pages: 1 -->
<svg width="975pt" height="104pt"
 viewBox="0.00 0.00 975.00 104.00" xmlns="http://www.w3.org/2000/svg" xmlns:xlink="http://www.w3.org/1999/xlink">
<g id="graph0" class="graph" transform="scale(1 1) rotate(0) translate(4 100)">
<title>TMC2130Stepper::isEnabled</title>
<polygon fill="white" stroke="none" points="-4,4 -4,-100 971,-100 971,4 -4,4"/>
<!-- Node1 -->
<g id="node1" class="node"><title>Node1</title>
<g id="a_node1"><a xlink:title=" ">
<polygon fill="#bfbfbf" stroke="black" points="0,-38.5 0,-57.5 140,-57.5 140,-38.5 0,-38.5"/>
<text text-anchor="middle" x="70" y="-45.5" font-family="Helvetica,sans-Serif" font-size="10.00">TMC2130Stepper::isEnabled</text>
</a>
</g>
</g>
<!-- Node2 -->
<g id="node2" class="node"><title>Node2</title>
<g id="a_node2"><a xlink:href="class_t_m_c2130_stepper.html#a838f3e6896ee64d6c8e203e9d5883667" target="_top" xlink:title=" ">
<polygon fill="white" stroke="black" points="176,-55 176,-85 286,-85 286,-55 176,-55"/>
<text text-anchor="start" x="184" y="-73" font-family="Helvetica,sans-Serif" font-size="10.00">TMC2130Stepper::drv</text>
<text text-anchor="middle" x="231" y="-62" font-family="Helvetica,sans-Serif" font-size="10.00">_enn_cfg6</text>
</a>
</g>
</g>
<!-- Node1&#45;&gt;Node2 -->
<g id="edge1" class="edge"><title>Node1&#45;&gt;Node2</title>
<path fill="none" stroke="midnightblue" d="M139.815,-57.5216C148.502,-58.7235 157.362,-59.9494 165.97,-61.1405"/>
<polygon fill="midnightblue" stroke="midnightblue" points="165.549,-64.6155 175.934,-62.5192 166.508,-57.6815 165.549,-64.6155"/>
</g>
<!-- Node8 -->
<g id="node8" class="node"><title>Node8</title>
<g id="a_node8"><a xlink:href="class_t_m_c2130_stepper.html#ac34bf4add4f669e935f2a91e1b42817c" target="_top" xlink:title=" ">
<polygon fill="white" stroke="black" points="176,-16.5 176,-35.5 286,-35.5 286,-16.5 176,-16.5"/>
<text text-anchor="middle" x="231" y="-23.5" font-family="Helvetica,sans-Serif" font-size="10.00">TMC2130Stepper::toff</text>
</a>
</g>
</g>
<!-- Node1&#45;&gt;Node8 -->
<g id="edge8" class="edge"><title>Node1&#45;&gt;Node8</title>
<path fill="none" stroke="midnightblue" d="M139.815,-38.4784C148.502,-37.2765 157.362,-36.0506 165.97,-34.8595"/>
<polygon fill="midnightblue" stroke="midnightblue" points="166.508,-38.3185 175.934,-33.4808 165.549,-31.3845 166.508,-38.3185"/>
</g>
<!-- Node3 -->
<g id="node3" class="node"><title>Node3</title>
<g id="a_node3"><a xlink:href="class_t_m_c2130_stepper.html#adde2041047c82600f5e01f52118f92a0" target="_top" xlink:title=" ">
<polygon fill="white" stroke="black" points="340,-58.5 340,-77.5 456,-77.5 456,-58.5 340,-58.5"/>
<text text-anchor="middle" x="398" y="-65.5" font-family="Helvetica,sans-Serif" font-size="10.00">TMC2130Stepper::IOIN</text>
</a>
</g>
</g>
<!-- Node2&#45;&gt;Node3 -->
<g id="edge2" class="edge"><title>Node2&#45;&gt;Node3</title>
<path fill="none" stroke="midnightblue" d="M286.027,-69.3451C299.867,-69.1774 314.926,-68.9948 329.358,-68.8199"/>
<polygon fill="midnightblue" stroke="midnightblue" points="329.772,-72.3152 339.729,-68.6942 329.687,-65.3158 329.772,-72.3152"/>
</g>
<!-- Node4 -->
<g id="node4" class="node"><title>Node4</title>
<g id="a_node4"><a xlink:href="class_t_m_c2130_stepper.html#aed0175bff6e80ebc14e0d2606283cbe0" target="_top" xlink:title=" ">
<polygon fill="white" stroke="black" points="510,-38.5 510,-57.5 626,-57.5 626,-38.5 510,-38.5"/>
<text text-anchor="middle" x="568" y="-45.5" font-family="Helvetica,sans-Serif" font-size="10.00">TMC2130Stepper::read</text>
</a>
</g>
</g>
<!-- Node3&#45;&gt;Node4 -->
<g id="edge3" class="edge"><title>Node3&#45;&gt;Node4</title>
<path fill="none" stroke="midnightblue" d="M456.346,-61.1731C470.267,-59.5158 485.278,-57.7288 499.616,-56.0219"/>
<polygon fill="midnightblue" stroke="midnightblue" points="500.396,-59.4538 509.912,-54.7962 499.569,-52.5029 500.396,-59.4538"/>
</g>
<!-- Node5 -->
<g id="node5" class="node"><title>Node5</title>
<g id="a_node5"><a xlink:href="class_t_m_c2130_stepper.html#aed8aa4583943e649dbf3bb1c1da90d63" target="_top" xlink:title=" ">
<polygon fill="white" stroke="black" points="662,-76.5 662,-95.5 814,-95.5 814,-76.5 662,-76.5"/>
<text text-anchor="middle" x="738" y="-83.5" font-family="Helvetica,sans-Serif" font-size="10.00">TMC2130Stepper::switchCSpin</text>
</a>
</g>
</g>
<!-- Node4&#45;&gt;Node5 -->
<g id="edge4" class="edge"><title>Node4&#45;&gt;Node5</title>
<path fill="none" stroke="midnightblue" d="M611.393,-57.589C633.763,-62.6487 661.398,-68.8996 685.047,-74.2488"/>
<polygon fill="midnightblue" stroke="midnightblue" points="684.386,-77.6875 694.911,-76.4799 685.93,-70.8599 684.386,-77.6875"/>
</g>
<!-- Node6 -->
<g id="node6" class="node"><title>Node6</title>
<g id="a_node6"><a xlink:href="class_s_w___s_p_i_class.html#af260fdc0af3f1312b106483161e559c3" target="_top" xlink:title=" ">
<polygon fill="white" stroke="black" points="850,-19.5 850,-38.5 967,-38.5 967,-19.5 850,-19.5"/>
<text text-anchor="middle" x="908.5" y="-26.5" font-family="Helvetica,sans-Serif" font-size="10.00">SW_SPIClass::transfer</text>
</a>
</g>
</g>
<!-- Node4&#45;&gt;Node6 -->
<g id="edge5" class="edge"><title>Node4&#45;&gt;Node6</title>
<path fill="none" stroke="midnightblue" d="M626.039,-44.7984C685.027,-41.4874 777.113,-36.3186 839.765,-32.802"/>
<polygon fill="midnightblue" stroke="midnightblue" points="840.156,-36.2856 849.944,-32.2306 839.763,-29.2966 840.156,-36.2856"/>
</g>
<!-- Node7 -->
<g id="node7" class="node"><title>Node7</title>
<g id="a_node7"><a xlink:href="class_s_w___s_p_i_class.html#a1b7600aa1d9571c103718c5d3e376675" target="_top" xlink:title=" ">
<polygon fill="white" stroke="black" points="674,-0.5 674,-19.5 802,-19.5 802,-0.5 674,-0.5"/>
<text text-anchor="middle" x="738" y="-7.5" font-family="Helvetica,sans-Serif" font-size="10.00">SW_SPIClass::transfer16</text>
</a>
</g>
</g>
<!-- Node4&#45;&gt;Node7 -->
<g id="edge6" class="edge"><title>Node4&#45;&gt;Node7</title>
<path fill="none" stroke="midnightblue" d="M611.393,-38.411C633.763,-33.3513 661.398,-27.1004 685.047,-21.7512"/>
<polygon fill="midnightblue" stroke="midnightblue" points="685.93,-25.1401 694.911,-19.5201 684.386,-18.3125 685.93,-25.1401"/>
</g>
<!-- Node7&#45;&gt;Node6 -->
<g id="edge7" class="edge"><title>Node7&#45;&gt;Node6</title>
<path fill="none" stroke="midnightblue" d="M802.223,-17.129C814.406,-18.5028 827.217,-19.9473 839.543,-21.3372"/>
<polygon fill="midnightblue" stroke="midnightblue" points="839.43,-24.8466 849.76,-22.4892 840.215,-17.8907 839.43,-24.8466"/>
</g>
<!-- Node9 -->
<g id="node9" class="node"><title>Node9</title>
<g id="a_node9"><a xlink:href="class_t_m_c2130_stepper.html#a67541b27d97ce45f175e9f6e4a2d0bff" target="_top" xlink:title=" ">
<polygon fill="white" stroke="black" points="322,-19.5 322,-38.5 474,-38.5 474,-19.5 322,-19.5"/>
<text text-anchor="middle" x="398" y="-26.5" font-family="Helvetica,sans-Serif" font-size="10.00">TMC2130Stepper::CHOPCONF</text>
</a>
</g>
</g>
<!-- Node8&#45;&gt;Node9 -->
<g id="edge9" class="edge"><title>Node8&#45;&gt;Node9</title>
<path fill="none" stroke="midnightblue" d="M286.027,-26.9823C294.269,-27.1322 302.942,-27.2899 311.658,-27.4483"/>
<polygon fill="midnightblue" stroke="midnightblue" points="311.824,-30.9518 321.886,-27.6343 311.951,-23.953 311.824,-30.9518"/>
</g>
<!-- Node9&#45;&gt;Node4 -->
<g id="edge10" class="edge"><title>Node9&#45;&gt;Node4</title>
<path fill="none" stroke="midnightblue" d="M474.155,-37.4997C482.664,-38.462 491.296,-39.4382 499.696,-40.3882"/>
<polygon fill="midnightblue" stroke="midnightblue" points="499.472,-43.8852 509.802,-41.5312 500.259,-36.9295 499.472,-43.8852"/>
</g>
</g>
</svg>
