<?xml version="1.0" encoding="UTF-8" standalone="no"?>
<!DOCTYPE svg PUBLIC "-//W3C//DTD SVG 1.1//EN"
 "http://www.w3.org/Graphics/SVG/1.1/DTD/svg11.dtd">
<!-- Generated by graphviz version 2.38.0 (20140413.2041)
 -->
<!-- Title: TMC2208Stepper::calcCRC Pages: 1 -->
<!--zoomable 1442 -->
<svg id="main" version="1.1" xmlns="http://www.w3.org/2000/svg" xmlns:xlink="http://www.w3.org/1999/xlink" xml:space="preserve" onload="init(evt)">
<style type="text/css"><![CDATA[
.edge:hover path { stroke: red; }
.edge:hover polygon { stroke: red; fill: red; }
]]></style>
<script type="text/javascript"><![CDATA[
var edges = document.getElementsByTagName('g');
if (edges && edges.length) {
  for (var i=0;i<edges.length;i++) {
    if (edges[i].id.substr(0,4)=='edge') {
      edges[i].setAttribute('class','edge');
    }
  }
}
]]></script>
        <defs>
                <circle id="rim" cx="0" cy="0" r="7"/>
                <circle id="rim2" cx="0" cy="0" r="3.5"/>
                <g id="zoomPlus">
                        <use xlink:href="#rim" fill="#404040">
                                <set attributeName="fill" to="#808080" begin="zoomplus.mouseover" end="zoomplus.mouseout"/>
                        </use>
                        <path d="M-4,0h8M0,-4v8" fill="none" stroke="white" stroke-width="1.5" pointer-events="none"/>
                </g>
                <g id="zoomMin">
                        <use xlink:href="#rim" fill="#404040">
                                <set attributeName="fill" to="#808080" begin="zoomminus.mouseover" end="zoomminus.mouseout"/>
                        </use>
                        <path d="M-4,0h8" fill="none" stroke="white" stroke-width="1.5" pointer-events="none"/>
                </g>
                <g id="dirArrow">
                        <path fill="none" stroke="white" stroke-width="1.5" d="M0,-3.0v7 M-2.5,-0.5L0,-3.0L2.5,-0.5"/>
                </g>
               <g id="resetDef">
                       <use xlink:href="#rim2" fill="#404040">
                               <set attributeName="fill" to="#808080" begin="reset.mouseover" end="reset.mouseout"/>
                       </use>
               </g>
        </defs>

<script type="text/javascript">
var viewWidth = 676;
var viewHeight = 1442;
var sectionId = 'dynsection-7';
</script>
<script xlink:href="svgpan.js"/>
<svg id="graph" class="graph">
<g id="viewport">
<title>TMC2208Stepper::calcCRC</title>
<polygon fill="white" stroke="none" points="-4,4 -4,-1438 672,-1438 672,4 -4,4"/>
<!-- Node1 -->
<g id="node1" class="node"><title>Node1</title>
<g id="a_node1"><a xlink:title=" ">
<polygon fill="#bfbfbf" stroke="black" points="532,-735.5 532,-754.5 668,-754.5 668,-735.5 532,-735.5"/>
<text text-anchor="middle" x="600" y="-742.5" font-family="Helvetica,sans-Serif" font-size="10.00">TMC2208Stepper::calcCRC</text>
</a>
</g>
</g>
<!-- Node2 -->
<g id="node2" class="node"><title>Node2</title>
<g id="a_node2"><a xlink:href="class_t_m_c2208_stepper.html#a2fae2050849c3ab7968012def8ea1cc5" target="_top" xlink:title=" ">
<polygon fill="white" stroke="black" points="379,-1053.5 379,-1072.5 495,-1072.5 495,-1053.5 379,-1053.5"/>
<text text-anchor="middle" x="437" y="-1060.5" font-family="Helvetica,sans-Serif" font-size="10.00">TMC2208Stepper::read</text>
</a>
</g>
</g>
<!-- Node1&#45;&gt;Node2 -->
<g id="edge1" class="edge"><title>Node1&#45;&gt;Node2</title>
<path fill="none" stroke="midnightblue" d="M589.61,-763.546C559.438,-823.142 465.607,-1008.47 442.957,-1053.21"/>
<polygon fill="midnightblue" stroke="midnightblue" points="592.787,-765.02 594.182,-754.517 586.542,-761.858 592.787,-765.02"/>
</g>
<!-- Node97 -->
<g id="node29" class="node"><title>Node97</title>
<g id="a_node29"><a xlink:href="class_t_m_c2208_stepper.html#a142b14de8a4dcc6cf76b4a6ede9e1cea" target="_top" xlink:title=" ">
<polygon fill="white" stroke="black" points="378,-399.5 378,-418.5 496,-418.5 496,-399.5 378,-399.5"/>
<text text-anchor="middle" x="437" y="-406.5" font-family="Helvetica,sans-Serif" font-size="10.00">TMC2208Stepper::write</text>
</a>
</g>
</g>
<!-- Node1&#45;&gt;Node97 -->
<g id="edge32" class="edge"><title>Node1&#45;&gt;Node97</title>
<path fill="none" stroke="midnightblue" d="M589.997,-726.21C560.118,-663.854 464.878,-465.093 442.664,-418.733"/>
<polygon fill="midnightblue" stroke="midnightblue" points="586.878,-727.801 594.355,-735.307 593.19,-724.776 586.878,-727.801"/>
</g>
<!-- Node3 -->
<g id="node3" class="node"><title>Node3</title>
<g id="a_node3"><a xlink:href="class_t_m_c2208_stepper.html#aa11281f54c293f3ff2539b1a583682a9" target="_top" xlink:title=" ">
<polygon fill="white" stroke="black" points="178,-1224.5 178,-1243.5 330,-1243.5 330,-1224.5 178,-1224.5"/>
<text text-anchor="middle" x="254" y="-1231.5" font-family="Helvetica,sans-Serif" font-size="10.00">TMC2208Stepper::CHOPCONF</text>
</a>
</g>
</g>
<!-- Node2&#45;&gt;Node3 -->
<g id="edge2" class="edge"><title>Node2&#45;&gt;Node3</title>
<path fill="none" stroke="midnightblue" d="M429.662,-1082.46C417.92,-1115.28 389.553,-1181.34 342,-1215 336.574,-1218.84 330.516,-1221.93 324.192,-1224.4"/>
<polygon fill="midnightblue" stroke="midnightblue" points="433.076,-1083.3 433.01,-1072.7 426.455,-1081.02 433.076,-1083.3"/>
</g>
<!-- Node27 -->
<g id="node16" class="node"><title>Node27</title>
<g id="a_node16"><a xlink:href="class_t_m_c2208_stepper.html#a2b4643106d473dd0081ec60a3f9b8fdf" target="_top" xlink:title=" ">
<polygon fill="white" stroke="black" points="195,-1263 195,-1293 313,-1293 313,-1263 195,-1263"/>
<text text-anchor="start" x="203" y="-1281" font-family="Helvetica,sans-Serif" font-size="10.00">TMC2208Stepper::DRV</text>
<text text-anchor="middle" x="254" y="-1270" font-family="Helvetica,sans-Serif" font-size="10.00">_STATUS</text>
</a>
</g>
</g>
<!-- Node2&#45;&gt;Node27 -->
<g id="edge15" class="edge"><title>Node2&#45;&gt;Node27</title>
<path fill="none" stroke="midnightblue" d="M431.884,-1082.52C422.735,-1121.04 397.028,-1207.06 342,-1253 333.676,-1259.95 323.518,-1264.97 313.121,-1268.59"/>
<polygon fill="midnightblue" stroke="midnightblue" points="435.339,-1083.11 434.122,-1072.59 428.51,-1081.58 435.339,-1083.11"/>
</g>
<!-- Node28 -->
<g id="node17" class="node"><title>Node28</title>
<g id="a_node17"><a xlink:href="class_t_m_c2208_stepper.html#a64c51922eb2029e4bbcd4f8a51b6a6ae" target="_top" xlink:title=" ">
<polygon fill="white" stroke="red" points="166,-1363.5 166,-1382.5 342,-1382.5 342,-1363.5 166,-1363.5"/>
<text text-anchor="middle" x="254" y="-1370.5" font-family="Helvetica,sans-Serif" font-size="10.00">TMC2208Stepper::FACTORY_CONF</text>
</a>
</g>
</g>
<!-- Node2&#45;&gt;Node28 -->
<g id="edge16" class="edge"><title>Node2&#45;&gt;Node28</title>
<path fill="none" stroke="midnightblue" d="M431.904,-1082.48C422.151,-1125.46 394.363,-1230.26 342,-1302 322.46,-1328.77 290.507,-1351.3 271.243,-1363.41"/>
<polygon fill="midnightblue" stroke="midnightblue" points="435.368,-1083.03 434.092,-1072.51 428.53,-1081.53 435.368,-1083.03"/>
</g>
<!-- Node31 -->
<g id="node19" class="node"><title>Node31</title>
<g id="a_node19"><a xlink:href="class_t_m_c2208_stepper.html#a549db4f962d4ae698dda33ef9a708e33" target="_top" xlink:title=" ">
<polygon fill="white" stroke="red" points="188,-821.5 188,-840.5 320,-840.5 320,-821.5 188,-821.5"/>
<text text-anchor="middle" x="254" y="-828.5" font-family="Helvetica,sans-Serif" font-size="10.00">TMC2208Stepper::GCONF</text>
</a>
</g>
</g>
<!-- Node2&#45;&gt;Node31 -->
<g id="edge18" class="edge"><title>Node2&#45;&gt;Node31</title>
<path fill="none" stroke="midnightblue" d="M433.284,-1043.13C426.376,-1000.65 404.061,-900.712 342,-850 335.655,-844.815 328.208,-840.963 320.388,-838.114"/>
<polygon fill="midnightblue" stroke="midnightblue" points="429.831,-1043.71 434.784,-1053.07 436.752,-1042.66 429.831,-1043.71"/>
</g>
<!-- Node48 -->
<g id="node20" class="node"><title>Node48</title>
<g id="a_node20"><a xlink:href="class_t_m_c2208_stepper.html#a54eeb50855c3d7dd9e7078a5dc0ebdfc" target="_top" xlink:title=" ">
<polygon fill="white" stroke="black" points="191.5,-1186.5 191.5,-1205.5 316.5,-1205.5 316.5,-1186.5 191.5,-1186.5"/>
<text text-anchor="middle" x="254" y="-1193.5" font-family="Helvetica,sans-Serif" font-size="10.00">TMC2208Stepper::IFCNT</text>
</a>
</g>
</g>
<!-- Node2&#45;&gt;Node48 -->
<g id="edge21" class="edge"><title>Node2&#45;&gt;Node48</title>
<path fill="none" stroke="midnightblue" d="M426.049,-1081.57C411.272,-1107.27 381.022,-1153.18 342,-1177 334.347,-1181.67 325.696,-1185.2 316.892,-1187.87"/>
<polygon fill="midnightblue" stroke="midnightblue" points="429.126,-1083.24 430.942,-1072.8 423.013,-1079.83 429.126,-1083.24"/>
</g>
<!-- Node49 -->
<g id="node21" class="node"><title>Node49</title>
<g id="a_node21"><a xlink:href="class_t_m_c2208_stepper.html#a5441dd87d0bcea4ffc309cb012166a57" target="_top" xlink:title=" ">
<polygon fill="white" stroke="red" points="196,-1148.5 196,-1167.5 312,-1167.5 312,-1148.5 196,-1148.5"/>
<text text-anchor="middle" x="254" y="-1155.5" font-family="Helvetica,sans-Serif" font-size="10.00">TMC2208Stepper::IOIN</text>
</a>
</g>
</g>
<!-- Node2&#45;&gt;Node49 -->
<g id="edge22" class="edge"><title>Node2&#45;&gt;Node49</title>
<path fill="none" stroke="midnightblue" d="M420.017,-1079.93C402.527,-1097.42 372.846,-1124.2 342,-1139 332.801,-1143.41 322.562,-1146.82 312.432,-1149.43"/>
<polygon fill="midnightblue" stroke="midnightblue" points="422.671,-1082.22 427.155,-1072.62 417.664,-1077.33 422.671,-1082.22"/>
</g>
<!-- Node60 -->
<g id="node22" class="node"><title>Node60</title>
<g id="a_node22"><a xlink:href="class_t_m_c2209_stepper.html#aeab582b2f23d4e58f63aec80163b3838" target="_top" xlink:title=" ">
<polygon fill="white" stroke="red" points="196,-1110.5 196,-1129.5 312,-1129.5 312,-1110.5 196,-1110.5"/>
<text text-anchor="middle" x="254" y="-1117.5" font-family="Helvetica,sans-Serif" font-size="10.00">TMC2209Stepper::IOIN</text>
</a>
</g>
</g>
<!-- Node2&#45;&gt;Node60 -->
<g id="edge23" class="edge"><title>Node2&#45;&gt;Node60</title>
<path fill="none" stroke="midnightblue" d="M405.861,-1076.7C387.649,-1084.6 363.812,-1094.26 342,-1101 330.33,-1104.6 317.578,-1107.79 305.523,-1110.48"/>
<polygon fill="midnightblue" stroke="midnightblue" points="407.346,-1079.87 415.091,-1072.64 404.528,-1073.47 407.346,-1079.87"/>
</g>
<!-- Node70 -->
<g id="node23" class="node"><title>Node70</title>
<g id="a_node23"><a xlink:href="class_t_m_c2224_stepper.html#aa5fa836e15992bc49e0297ef2126f725" target="_top" xlink:title=" ">
<polygon fill="white" stroke="red" points="196,-1072.5 196,-1091.5 312,-1091.5 312,-1072.5 196,-1072.5"/>
<text text-anchor="middle" x="254" y="-1079.5" font-family="Helvetica,sans-Serif" font-size="10.00">TMC2224Stepper::IOIN</text>
</a>
</g>
</g>
<!-- Node2&#45;&gt;Node70 -->
<g id="edge24" class="edge"><title>Node2&#45;&gt;Node70</title>
<path fill="none" stroke="midnightblue" d="M368.592,-1070.08C350.048,-1072.02 330.117,-1074.11 312.207,-1075.99"/>
<polygon fill="midnightblue" stroke="midnightblue" points="369.151,-1073.54 378.73,-1069.01 368.42,-1066.57 369.151,-1073.54"/>
</g>
<!-- Node80 -->
<g id="node24" class="node"><title>Node80</title>
<g id="a_node24"><a xlink:href="class_t_m_c2208_stepper.html#a0727482b76d6cd679021f4d1677e5b3a" target="_top" xlink:title=" ">
<polygon fill="white" stroke="black" points="179.5,-1034.5 179.5,-1053.5 328.5,-1053.5 328.5,-1034.5 179.5,-1034.5"/>
<text text-anchor="middle" x="254" y="-1041.5" font-family="Helvetica,sans-Serif" font-size="10.00">TMC2208Stepper::OTP_READ</text>
</a>
</g>
</g>
<!-- Node2&#45;&gt;Node80 -->
<g id="edge25" class="edge"><title>Node2&#45;&gt;Node80</title>
<path fill="none" stroke="midnightblue" d="M368.514,-1055.92C355.568,-1054.56 341.949,-1053.13 328.815,-1051.75"/>
<polygon fill="midnightblue" stroke="midnightblue" points="368.42,-1059.43 378.73,-1056.99 369.151,-1052.46 368.42,-1059.43"/>
</g>
<!-- Node81 -->
<g id="node25" class="node"><title>Node81</title>
<g id="a_node25"><a xlink:href="class_t_m_c2208_stepper.html#a3cad83843fc7cc00cbbff7d620690501" target="_top" xlink:title=" ">
<polygon fill="white" stroke="red" points="177,-996.5 177,-1015.5 331,-1015.5 331,-996.5 177,-996.5"/>
<text text-anchor="middle" x="254" y="-1003.5" font-family="Helvetica,sans-Serif" font-size="10.00">TMC2208Stepper::PWM_AUTO</text>
</a>
</g>
</g>
<!-- Node2&#45;&gt;Node81 -->
<g id="edge26" class="edge"><title>Node2&#45;&gt;Node81</title>
<path fill="none" stroke="midnightblue" d="M405.861,-1049.3C387.649,-1041.4 363.812,-1031.74 342,-1025 330.33,-1021.4 317.578,-1018.21 305.523,-1015.52"/>
<polygon fill="midnightblue" stroke="midnightblue" points="404.528,-1052.53 415.091,-1053.36 407.346,-1046.13 404.528,-1052.53"/>
</g>
<!-- Node84 -->
<g id="node26" class="node"><title>Node84</title>
<g id="a_node26"><a xlink:href="class_t_m_c2208_stepper.html#adc81db53cf0291216352b13e5425e67b" target="_top" xlink:title=" ">
<polygon fill="white" stroke="red" points="193,-947 193,-977 315,-977 315,-947 193,-947"/>
<text text-anchor="start" x="201" y="-965" font-family="Helvetica,sans-Serif" font-size="10.00">TMC2208Stepper::PWM</text>
<text text-anchor="middle" x="254" y="-954" font-family="Helvetica,sans-Serif" font-size="10.00">_SCALE</text>
</a>
</g>
</g>
<!-- Node2&#45;&gt;Node84 -->
<g id="edge27" class="edge"><title>Node2&#45;&gt;Node84</title>
<path fill="none" stroke="midnightblue" d="M419.538,-1046.19C401.85,-1029.01 372.188,-1002.71 342,-987 333.636,-982.647 324.413,-978.961 315.194,-975.869"/>
<polygon fill="midnightblue" stroke="midnightblue" points="417.214,-1048.81 426.782,-1053.36 422.141,-1043.84 417.214,-1048.81"/>
</g>
<!-- Node87 -->
<g id="node27" class="node"><title>Node87</title>
<g id="a_node27"><a xlink:href="class_t_m_c2208_stepper.html#a7c2e849de2f2933ba9bf8ede8dc53f53" target="_top" xlink:title=" ">
<polygon fill="white" stroke="red" points="179.5,-859.5 179.5,-878.5 328.5,-878.5 328.5,-859.5 179.5,-859.5"/>
<text text-anchor="middle" x="254" y="-866.5" font-family="Helvetica,sans-Serif" font-size="10.00">TMC2208Stepper::PWMCONF</text>
</a>
</g>
</g>
<!-- Node2&#45;&gt;Node87 -->
<g id="edge28" class="edge"><title>Node2&#45;&gt;Node87</title>
<path fill="none" stroke="midnightblue" d="M431.242,-1043.21C421.337,-1006.48 394.89,-927.911 342,-888 336.94,-884.182 331.27,-881.099 325.314,-878.615"/>
<polygon fill="midnightblue" stroke="midnightblue" points="427.923,-1044.35 433.796,-1053.17 434.704,-1042.62 427.923,-1044.35"/>
</g>
<!-- Node96 -->
<g id="node28" class="node"><title>Node96</title>
<g id="a_node28"><a xlink:href="class_t_m_c2209_stepper.html#ac1d2ec19eb65fd2f14d8d02cc1e7b02e" target="_top" xlink:title=" ">
<polygon fill="white" stroke="black" points="198,-898 198,-928 310,-928 310,-898 198,-898"/>
<text text-anchor="start" x="206" y="-916" font-family="Helvetica,sans-Serif" font-size="10.00">TMC2209Stepper::SG</text>
<text text-anchor="middle" x="254" y="-905" font-family="Helvetica,sans-Serif" font-size="10.00">_RESULT</text>
</a>
</g>
</g>
<!-- Node2&#45;&gt;Node96 -->
<g id="edge31" class="edge"><title>Node2&#45;&gt;Node96</title>
<path fill="none" stroke="midnightblue" d="M427.185,-1044.38C413.115,-1016.71 382.939,-964.978 342,-937 332.557,-930.546 321.425,-925.822 310.335,-922.365"/>
<polygon fill="midnightblue" stroke="midnightblue" points="424.07,-1045.98 431.63,-1053.4 430.349,-1042.89 424.07,-1045.98"/>
</g>
<!-- Node4 -->
<g id="node4" class="node"><title>Node4</title>
<g id="a_node4"><a xlink:href="class_t_m_c2208_stepper.html#a5b614f72c27fa1b7ff1c08fe07b17582" target="_top" xlink:title=" ">
<polygon fill="white" stroke="red" points="3,-1148.5 3,-1167.5 127,-1167.5 127,-1148.5 3,-1148.5"/>
<text text-anchor="middle" x="65" y="-1155.5" font-family="Helvetica,sans-Serif" font-size="10.00">TMC2208Stepper::dedge</text>
</a>
</g>
</g>
<!-- Node3&#45;&gt;Node4 -->
<g id="edge3" class="edge"><title>Node3&#45;&gt;Node4</title>
<path fill="none" stroke="midnightblue" d="M178.521,-1220.96C174.18,-1219.22 169.97,-1217.24 166,-1215 145.738,-1203.57 149.827,-1189.17 130,-1177 123.777,-1173.18 116.741,-1170.09 109.668,-1167.6"/>
<polygon fill="midnightblue" stroke="midnightblue" points="177.599,-1224.35 188.193,-1224.42 179.954,-1217.75 177.599,-1224.35"/>
</g>
<!-- Node6 -->
<g id="node5" class="node"><title>Node6</title>
<g id="a_node5"><a xlink:href="class_t_m_c2208_stepper.html#a810f59828ccf8b0f55c7274b21ea0255" target="_top" xlink:title=" ">
<polygon fill="white" stroke="red" points="2,-1110.5 2,-1129.5 128,-1129.5 128,-1110.5 2,-1110.5"/>
<text text-anchor="middle" x="65" y="-1117.5" font-family="Helvetica,sans-Serif" font-size="10.00">TMC2208Stepper::diss2g</text>
</a>
</g>
</g>
<!-- Node3&#45;&gt;Node6 -->
<g id="edge4" class="edge"><title>Node3&#45;&gt;Node6</title>
<path fill="none" stroke="midnightblue" d="M172.678,-1219.64C170.353,-1218.23 168.118,-1216.68 166,-1215 136.744,-1191.74 158.381,-1163.32 130,-1139 125.511,-1135.15 120.271,-1132.09 114.757,-1129.64"/>
<polygon fill="midnightblue" stroke="midnightblue" points="171.554,-1223 182.047,-1224.47 174.761,-1216.77 171.554,-1223"/>
</g>
<!-- Node8 -->
<g id="node6" class="node"><title>Node8</title>
<g id="a_node6"><a xlink:href="class_t_m_c2208_stepper.html#afc70b23b3486ae3ea3a3dfa804441148" target="_top" xlink:title=" ">
<polygon fill="white" stroke="red" points="0,-1072.5 0,-1091.5 130,-1091.5 130,-1072.5 0,-1072.5"/>
<text text-anchor="middle" x="65" y="-1079.5" font-family="Helvetica,sans-Serif" font-size="10.00">TMC2208Stepper::diss2vs</text>
</a>
</g>
</g>
<!-- Node3&#45;&gt;Node8 -->
<g id="edge5" class="edge"><title>Node3&#45;&gt;Node8</title>
<path fill="none" stroke="midnightblue" d="M170.849,-1218.94C169.162,-1217.72 167.541,-1216.41 166,-1215 126.762,-1179.17 167.894,-1138.24 130,-1101 126.032,-1097.1 121.302,-1093.99 116.236,-1091.52"/>
<polygon fill="midnightblue" stroke="midnightblue" points="169.414,-1222.16 179.784,-1224.34 173.033,-1216.17 169.414,-1222.16"/>
</g>
<!-- Node10 -->
<g id="node7" class="node"><title>Node10</title>
<g id="a_node7"><a xlink:href="class_t_m_c2208_stepper.html#a2f36996a01d99a96f40d179931eb606a" target="_top" xlink:title=" ">
<polygon fill="white" stroke="red" points="5.5,-1034.5 5.5,-1053.5 124.5,-1053.5 124.5,-1034.5 5.5,-1034.5"/>
<text text-anchor="middle" x="65" y="-1041.5" font-family="Helvetica,sans-Serif" font-size="10.00">TMC2208Stepper::hend</text>
</a>
</g>
</g>
<!-- Node3&#45;&gt;Node10 -->
<g id="edge6" class="edge"><title>Node3&#45;&gt;Node10</title>
<path fill="none" stroke="midnightblue" d="M170.571,-1218.98C168.975,-1217.75 167.447,-1216.42 166,-1215 116.481,-1166.34 177.696,-1113.45 130,-1063 126.337,-1059.13 121.924,-1056.03 117.149,-1053.56"/>
<polygon fill="midnightblue" stroke="midnightblue" points="168.759,-1221.98 179.063,-1224.45 172.546,-1216.09 168.759,-1221.98"/>
</g>
<!-- Node12 -->
<g id="node8" class="node"><title>Node12</title>
<g id="a_node8"><a xlink:href="class_t_m_c2208_stepper.html#ae86e87a3b5882ac40c6f21348c6793ed" target="_top" xlink:title=" ">
<polygon fill="white" stroke="red" points="6.5,-1376.5 6.5,-1395.5 123.5,-1395.5 123.5,-1376.5 6.5,-1376.5"/>
<text text-anchor="middle" x="65" y="-1383.5" font-family="Helvetica,sans-Serif" font-size="10.00">TMC2208Stepper::hstrt</text>
</a>
</g>
</g>
<!-- Node3&#45;&gt;Node12 -->
<g id="edge7" class="edge"><title>Node3&#45;&gt;Node12</title>
<path fill="none" stroke="midnightblue" d="M170.849,-1249.06C169.162,-1250.28 167.541,-1251.59 166,-1253 126.762,-1288.83 167.894,-1329.76 130,-1367 126.032,-1370.9 121.302,-1374.01 116.236,-1376.48"/>
<polygon fill="midnightblue" stroke="midnightblue" points="173.033,-1251.83 179.784,-1243.66 169.414,-1245.84 173.033,-1251.83"/>
</g>
<!-- Node14 -->
<g id="node9" class="node"><title>Node14</title>
<g id="a_node9"><a xlink:href="class_t_m_c2208_stepper.html#a787cbae9adfab6f79a873310c472e7cd" target="_top" xlink:title=" ">
<polygon fill="white" stroke="red" points="4.5,-1338.5 4.5,-1357.5 125.5,-1357.5 125.5,-1338.5 4.5,-1338.5"/>
<text text-anchor="middle" x="65" y="-1345.5" font-family="Helvetica,sans-Serif" font-size="10.00">TMC2208Stepper::intpol</text>
</a>
</g>
</g>
<!-- Node3&#45;&gt;Node14 -->
<g id="edge8" class="edge"><title>Node3&#45;&gt;Node14</title>
<path fill="none" stroke="midnightblue" d="M172.678,-1248.36C170.353,-1249.77 168.118,-1251.32 166,-1253 136.744,-1276.26 158.381,-1304.68 130,-1329 125.511,-1332.85 120.271,-1335.91 114.757,-1338.36"/>
<polygon fill="midnightblue" stroke="midnightblue" points="174.761,-1251.23 182.047,-1243.53 171.554,-1245 174.761,-1251.23"/>
</g>
<!-- Node16 -->
<g id="node10" class="node"><title>Node16</title>
<g id="a_node10"><a xlink:href="class_t_m_c2208_stepper.html#a445b61c23afadb9bd48c3f4d9ef9125e" target="_top" xlink:title=" ">
<polygon fill="white" stroke="red" points="5.5,-1300.5 5.5,-1319.5 124.5,-1319.5 124.5,-1300.5 5.5,-1300.5"/>
<text text-anchor="middle" x="65" y="-1307.5" font-family="Helvetica,sans-Serif" font-size="10.00">TMC2208Stepper::mres</text>
</a>
</g>
</g>
<!-- Node3&#45;&gt;Node16 -->
<g id="edge9" class="edge"><title>Node3&#45;&gt;Node16</title>
<path fill="none" stroke="midnightblue" d="M178.521,-1247.04C174.18,-1248.78 169.97,-1250.76 166,-1253 145.738,-1264.43 149.827,-1278.83 130,-1291 123.777,-1294.82 116.741,-1297.91 109.668,-1300.4"/>
<polygon fill="midnightblue" stroke="midnightblue" points="179.954,-1250.25 188.193,-1243.58 177.599,-1243.65 179.954,-1250.25"/>
</g>
<!-- Node18 -->
<g id="node11" class="node"><title>Node18</title>
<g id="a_node11"><a xlink:href="class_t_m_c2208_stepper.html#a8eb0d71fbfeeb24c9092328c44fab7e5" target="_top" xlink:title=" ">
<polygon fill="white" stroke="black" points="5.5,-878.5 5.5,-897.5 124.5,-897.5 124.5,-878.5 5.5,-878.5"/>
<text text-anchor="middle" x="65" y="-885.5" font-family="Helvetica,sans-Serif" font-size="10.00">TMC2208Stepper::push</text>
</a>
</g>
</g>
<!-- Node3&#45;&gt;Node18 -->
<g id="edge10" class="edge"><title>Node3&#45;&gt;Node18</title>
<path fill="none" stroke="midnightblue" d="M169.97,-1218.65C168.586,-1217.51 167.26,-1216.3 166,-1215 106.076,-1153.39 156.394,-1106.79 130,-1025 113.876,-975.033 83.8833,-919.521 71.533,-897.626"/>
<polygon fill="midnightblue" stroke="midnightblue" points="168.224,-1221.7 178.464,-1224.42 172.154,-1215.91 168.224,-1221.7"/>
</g>
<!-- Node19 -->
<g id="node12" class="node"><title>Node19</title>
<g id="a_node12"><a xlink:href="class_t_m_c2209_stepper.html#a180f4b9a78e526592d946ec12f71982e" target="_top" xlink:title=" ">
<polygon fill="white" stroke="black" points="5.5,-840.5 5.5,-859.5 124.5,-859.5 124.5,-840.5 5.5,-840.5"/>
<text text-anchor="middle" x="65" y="-847.5" font-family="Helvetica,sans-Serif" font-size="10.00">TMC2209Stepper::push</text>
</a>
</g>
</g>
<!-- Node3&#45;&gt;Node19 -->
<g id="edge11" class="edge"><title>Node3&#45;&gt;Node19</title>
<path fill="none" stroke="midnightblue" d="M169.349,-1218.37C168.181,-1217.31 167.063,-1216.19 166,-1215 62.9281,-1099.76 228.764,-987.951 130,-869 126.816,-865.166 122.896,-862.083 118.578,-859.608"/>
<polygon fill="midnightblue" stroke="midnightblue" points="167.578,-1221.42 177.707,-1224.52 171.726,-1215.78 167.578,-1221.42"/>
</g>
<!-- Node20 -->
<g id="node13" class="node"><title>Node20</title>
<g id="a_node13"><a xlink:href="class_t_m_c2208_stepper.html#a84a5b9684c546c5f4549f375048512be" target="_top" xlink:title=" ">
<polygon fill="white" stroke="red" points="11,-1262.5 11,-1281.5 119,-1281.5 119,-1262.5 11,-1262.5"/>
<text text-anchor="middle" x="65" y="-1269.5" font-family="Helvetica,sans-Serif" font-size="10.00">TMC2208Stepper::tbl</text>
</a>
</g>
</g>
<!-- Node3&#45;&gt;Node20 -->
<g id="edge12" class="edge"><title>Node3&#45;&gt;Node20</title>
<path fill="none" stroke="midnightblue" d="M195.869,-1245.61C169.273,-1251.01 138.027,-1257.36 112.849,-1262.48"/>
<polygon fill="midnightblue" stroke="midnightblue" points="196.709,-1249.01 205.812,-1243.59 195.315,-1242.15 196.709,-1249.01"/>
</g>
<!-- Node22 -->
<g id="node14" class="node"><title>Node22</title>
<g id="a_node14"><a xlink:href="class_t_m_c2208_stepper.html#aad3790e8c9040b5b4770ee65ed06b1ed" target="_top" xlink:title=" ">
<polygon fill="white" stroke="red" points="10,-1224.5 10,-1243.5 120,-1243.5 120,-1224.5 10,-1224.5"/>
<text text-anchor="middle" x="65" y="-1231.5" font-family="Helvetica,sans-Serif" font-size="10.00">TMC2208Stepper::toff</text>
</a>
</g>
</g>
<!-- Node3&#45;&gt;Node22 -->
<g id="edge13" class="edge"><title>Node3&#45;&gt;Node22</title>
<path fill="none" stroke="midnightblue" d="M167.728,-1234C151.537,-1234 135.014,-1234 120.122,-1234"/>
<polygon fill="midnightblue" stroke="midnightblue" points="167.748,-1237.5 177.748,-1234 167.748,-1230.5 167.748,-1237.5"/>
</g>
<!-- Node25 -->
<g id="node15" class="node"><title>Node25</title>
<g id="a_node15"><a xlink:href="class_t_m_c2208_stepper.html#aca88bb5ae86daeca56094bf2f8bdea5d" target="_top" xlink:title=" ">
<polygon fill="white" stroke="red" points="1,-1186.5 1,-1205.5 129,-1205.5 129,-1186.5 1,-1186.5"/>
<text text-anchor="middle" x="65" y="-1193.5" font-family="Helvetica,sans-Serif" font-size="10.00">TMC2208Stepper::vsense</text>
</a>
</g>
</g>
<!-- Node3&#45;&gt;Node25 -->
<g id="edge14" class="edge"><title>Node3&#45;&gt;Node25</title>
<path fill="none" stroke="midnightblue" d="M195.869,-1222.39C169.273,-1216.99 138.027,-1210.64 112.849,-1205.52"/>
<polygon fill="midnightblue" stroke="midnightblue" points="195.315,-1225.85 205.812,-1224.41 196.709,-1218.99 195.315,-1225.85"/>
</g>
<!-- Node29 -->
<g id="node18" class="node"><title>Node29</title>
<g id="a_node18"><a xlink:href="class_t_m_c2208_stepper.html#a2576f25049dff1a3102da1ea5b4eb7fc" target="_top" xlink:title=" ">
<polygon fill="white" stroke="black" points="0.5,-1414.5 0.5,-1433.5 129.5,-1433.5 129.5,-1414.5 0.5,-1414.5"/>
<text text-anchor="middle" x="65" y="-1421.5" font-family="Helvetica,sans-Serif" font-size="10.00">TMC2208Stepper::fclktrim</text>
</a>
</g>
</g>
<!-- Node28&#45;&gt;Node29 -->
<g id="edge17" class="edge"><title>Node28&#45;&gt;Node29</title>
<path fill="none" stroke="midnightblue" d="M208.014,-1385.27C175.165,-1394.23 131.267,-1406.2 101.016,-1414.45"/>
<polygon fill="midnightblue" stroke="midnightblue" points="209.1,-1388.6 217.827,-1382.59 207.258,-1381.85 209.1,-1388.6"/>
</g>
<!-- Node31&#45;&gt;Node18 -->
<g id="edge19" class="edge"><title>Node31&#45;&gt;Node18</title>
<path fill="none" stroke="midnightblue" d="M188.728,-842.965C180.98,-845.013 173.249,-847.351 166,-850 149.007,-856.209 146.753,-862.17 130,-869 121.306,-872.544 111.707,-875.748 102.645,-878.471"/>
<polygon fill="midnightblue" stroke="midnightblue" points="189.66,-846.34 198.517,-840.524 187.967,-839.547 189.66,-846.34"/>
</g>
<!-- Node31&#45;&gt;Node19 -->
<g id="edge20" class="edge"><title>Node31&#45;&gt;Node19</title>
<path fill="none" stroke="midnightblue" d="M177.599,-838.661C159.965,-840.453 141.438,-842.335 124.657,-844.04"/>
<polygon fill="midnightblue" stroke="midnightblue" points="178.264,-842.112 187.859,-837.619 177.556,-835.147 178.264,-842.112"/>
</g>
<!-- Node87&#45;&gt;Node18 -->
<g id="edge29" class="edge"><title>Node87&#45;&gt;Node18</title>
<path fill="none" stroke="midnightblue" d="M169.036,-877.531C154.018,-879.057 138.668,-880.617 124.558,-882.05"/>
<polygon fill="midnightblue" stroke="midnightblue" points="169.766,-880.975 179.361,-876.482 169.058,-874.011 169.766,-880.975"/>
</g>
<!-- Node87&#45;&gt;Node19 -->
<g id="edge30" class="edge"><title>Node87&#45;&gt;Node19</title>
<path fill="none" stroke="midnightblue" d="M169.036,-860.469C154.018,-858.943 138.668,-857.383 124.558,-855.95"/>
<polygon fill="midnightblue" stroke="midnightblue" points="169.058,-863.989 179.361,-861.518 169.766,-857.025 169.058,-863.989"/>
</g>
<!-- Node98 -->
<g id="node30" class="node"><title>Node98</title>
<g id="a_node30"><a xlink:href="class_t_m_c2208_stepper.html#ac7c979e2083f3a2b35bcaa0f4fd45cae" target="_top" xlink:title=" ">
<polygon fill="white" stroke="black" points="178,-76.5 178,-95.5 330,-95.5 330,-76.5 178,-76.5"/>
<text text-anchor="middle" x="254" y="-83.5" font-family="Helvetica,sans-Serif" font-size="10.00">TMC2208Stepper::CHOPCONF</text>
</a>
</g>
</g>
<!-- Node97&#45;&gt;Node98 -->
<g id="edge33" class="edge"><title>Node97&#45;&gt;Node98</title>
<path fill="none" stroke="midnightblue" d="M436.252,-389.293C435.806,-335.117 426.702,-182.802 342,-105 337.901,-101.235 333.235,-98.1531 328.241,-95.6368"/>
<polygon fill="midnightblue" stroke="midnightblue" points="432.752,-389.298 436.24,-399.302 439.752,-389.306 432.752,-389.298"/>
</g>
<!-- Node99 -->
<g id="node31" class="node"><title>Node99</title>
<g id="a_node31"><a xlink:href="class_t_m_c2209_stepper.html#add1136accc0b089a157c95fdf8e1e685" target="_top" xlink:title=" ">
<polygon fill="white" stroke="black" points="178,-38.5 178,-57.5 330,-57.5 330,-38.5 178,-38.5"/>
<text text-anchor="middle" x="254" y="-45.5" font-family="Helvetica,sans-Serif" font-size="10.00">TMC2209Stepper::COOLCONF</text>
</a>
</g>
</g>
<!-- Node97&#45;&gt;Node99 -->
<g id="edge34" class="edge"><title>Node97&#45;&gt;Node99</title>
<path fill="none" stroke="midnightblue" d="M433.247,-389.077C423.715,-322.982 390.055,-112.563 342,-67 338.073,-63.277 333.594,-60.2168 328.787,-57.7078"/>
<polygon fill="midnightblue" stroke="midnightblue" points="429.834,-389.943 434.701,-399.354 436.765,-388.963 429.834,-389.943"/>
</g>
<!-- Node100 -->
<g id="node32" class="node"><title>Node100</title>
<g id="a_node32"><a xlink:href="class_t_m_c2208_stepper.html#a97f0d743b9f5cf956637deb2e06d0145" target="_top" xlink:title=" ">
<polygon fill="white" stroke="black" points="166,-0.5 166,-19.5 342,-19.5 342,-0.5 166,-0.5"/>
<text text-anchor="middle" x="254" y="-7.5" font-family="Helvetica,sans-Serif" font-size="10.00">TMC2208Stepper::FACTORY_CONF</text>
</a>
</g>
</g>
<!-- Node97&#45;&gt;Node100 -->
<g id="edge35" class="edge"><title>Node97&#45;&gt;Node100</title>
<path fill="none" stroke="midnightblue" d="M433.844,-389.198C425.757,-318.575 394.949,-80.5129 342,-29 338.122,-25.2267 333.677,-22.1301 328.895,-19.5956"/>
<polygon fill="midnightblue" stroke="midnightblue" points="430.393,-389.827 434.984,-399.376 437.349,-389.048 430.393,-389.827"/>
</g>
<!-- Node101 -->
<g id="node33" class="node"><title>Node101</title>
<g id="a_node33"><a xlink:href="class_t_m_c2208_stepper.html#ad920d81bde73173f5974a62a85b719e6" target="_top" xlink:title=" ">
<polygon fill="white" stroke="black" points="189.5,-783.5 189.5,-802.5 318.5,-802.5 318.5,-783.5 189.5,-783.5"/>
<text text-anchor="middle" x="254" y="-790.5" font-family="Helvetica,sans-Serif" font-size="10.00">TMC2208Stepper::fclktrim</text>
</a>
</g>
</g>
<!-- Node97&#45;&gt;Node101 -->
<g id="edge36" class="edge"><title>Node97&#45;&gt;Node101</title>
<path fill="none" stroke="midnightblue" d="M433.617,-428.9C424.963,-497.828 393.001,-724.854 342,-774 335.432,-780.329 327.27,-784.75 318.598,-787.807"/>
<polygon fill="midnightblue" stroke="midnightblue" points="437.138,-428.941 434.884,-418.589 430.19,-428.087 437.138,-428.941"/>
</g>
<!-- Node102 -->
<g id="node34" class="node"><title>Node102</title>
<g id="a_node34"><a xlink:href="class_t_m_c2208_stepper.html#a57d97713abf9d4bde3d60975c8eddff5" target="_top" xlink:title=" ">
<polygon fill="white" stroke="black" points="185,-745.5 185,-764.5 323,-764.5 323,-745.5 185,-745.5"/>
<text text-anchor="middle" x="254" y="-752.5" font-family="Helvetica,sans-Serif" font-size="10.00">TMC2208Stepper::freewheel</text>
</a>
</g>
</g>
<!-- Node97&#45;&gt;Node102 -->
<g id="edge37" class="edge"><title>Node97&#45;&gt;Node102</title>
<path fill="none" stroke="midnightblue" d="M436.753,-428.639C437.784,-485.427 432.527,-651.165 342,-736 336.585,-741.074 330.142,-744.914 323.247,-747.803"/>
<polygon fill="midnightblue" stroke="midnightblue" points="440.248,-428.416 436.476,-418.516 433.251,-428.608 440.248,-428.416"/>
</g>
<!-- Node103 -->
<g id="node35" class="node"><title>Node103</title>
<g id="a_node35"><a xlink:href="class_t_m_c2208_stepper.html#a20d275e1dba5fe4ab75fc405b2f46281" target="_top" xlink:title=" ">
<polygon fill="white" stroke="black" points="188,-707.5 188,-726.5 320,-726.5 320,-707.5 188,-707.5"/>
<text text-anchor="middle" x="254" y="-714.5" font-family="Helvetica,sans-Serif" font-size="10.00">TMC2208Stepper::GCONF</text>
</a>
</g>
</g>
<!-- Node97&#45;&gt;Node103 -->
<g id="edge38" class="edge"><title>Node97&#45;&gt;Node103</title>
<path fill="none" stroke="midnightblue" d="M435.883,-428.765C434.44,-481.188 422.913,-624.758 342,-698 335.696,-703.706 328.085,-707.838 320.02,-710.807"/>
<polygon fill="midnightblue" stroke="midnightblue" points="439.387,-428.564 436.063,-418.504 432.388,-428.441 439.387,-428.564"/>
</g>
<!-- Node104 -->
<g id="node36" class="node"><title>Node104</title>
<g id="a_node36"><a xlink:href="class_t_m_c2208_stepper.html#a755b2adec0990d6bfcf2f5f1daf9d692" target="_top" xlink:title=" ">
<polygon fill="white" stroke="black" points="178.5,-669.5 178.5,-688.5 329.5,-688.5 329.5,-669.5 178.5,-669.5"/>
<text text-anchor="middle" x="254" y="-676.5" font-family="Helvetica,sans-Serif" font-size="10.00">TMC2208Stepper::OTP_PROG</text>
</a>
</g>
</g>
<!-- Node97&#45;&gt;Node104 -->
<g id="edge39" class="edge"><title>Node97&#45;&gt;Node104</title>
<path fill="none" stroke="midnightblue" d="M434.777,-428.698C430.714,-476.276 413.489,-598.087 342,-660 337.559,-663.846 332.52,-666.969 327.157,-669.499"/>
<polygon fill="midnightblue" stroke="midnightblue" points="438.283,-428.752 435.537,-418.519 431.302,-428.231 438.283,-428.752"/>
</g>
<!-- Node105 -->
<g id="node37" class="node"><title>Node105</title>
<g id="a_node37"><a xlink:href="class_t_m_c2208_stepper.html#ae51fb40f4fba4aecb8f0763adddb8296" target="_top" xlink:title=" ">
<polygon fill="white" stroke="black" points="193,-631.5 193,-650.5 315,-650.5 315,-631.5 193,-631.5"/>
<text text-anchor="middle" x="254" y="-638.5" font-family="Helvetica,sans-Serif" font-size="10.00">TMC2208Stepper::ottrim</text>
</a>
</g>
</g>
<!-- Node97&#45;&gt;Node105 -->
<g id="edge40" class="edge"><title>Node97&#45;&gt;Node105</title>
<path fill="none" stroke="midnightblue" d="M433.166,-428.994C426.065,-471.336 403.453,-570.311 342,-621 334.229,-627.41 324.795,-631.854 315.044,-634.918"/>
<polygon fill="midnightblue" stroke="midnightblue" points="436.664,-429.277 434.746,-418.857 429.748,-428.199 436.664,-429.277"/>
</g>
<!-- Node106 -->
<g id="node38" class="node"><title>Node106</title>
<g id="a_node38"><a xlink:href="class_t_m_c2208_stepper.html#a89a72c922d6c93ea811048401dcf2be0" target="_top" xlink:title=" ">
<polygon fill="white" stroke="black" points="195,-582 195,-612 313,-612 313,-582 195,-582"/>
<text text-anchor="start" x="203" y="-600" font-family="Helvetica,sans-Serif" font-size="10.00">TMC2208Stepper::pwm</text>
<text text-anchor="middle" x="254" y="-589" font-family="Helvetica,sans-Serif" font-size="10.00">_autograd</text>
</a>
</g>
</g>
<!-- Node97&#45;&gt;Node106 -->
<g id="edge41" class="edge"><title>Node97&#45;&gt;Node106</title>
<path fill="none" stroke="midnightblue" d="M430.136,-428.566C418.837,-462.877 390.759,-533.864 342,-572 333.582,-578.584 323.498,-583.434 313.227,-587.007"/>
<polygon fill="midnightblue" stroke="midnightblue" points="433.545,-429.393 433.22,-418.804 426.87,-427.285 433.545,-429.393"/>
</g>
<!-- Node107 -->
<g id="node39" class="node"><title>Node107</title>
<g id="a_node39"><a xlink:href="class_t_m_c2208_stepper.html#a8f8ab7ad3cddd1aac505dd326ad5ee27" target="_top" xlink:title=" ">
<polygon fill="white" stroke="black" points="195,-533 195,-563 313,-563 313,-533 195,-533"/>
<text text-anchor="start" x="203" y="-551" font-family="Helvetica,sans-Serif" font-size="10.00">TMC2208Stepper::pwm</text>
<text text-anchor="middle" x="254" y="-540" font-family="Helvetica,sans-Serif" font-size="10.00">_autoscale</text>
</a>
</g>
</g>
<!-- Node97&#45;&gt;Node107 -->
<g id="edge42" class="edge"><title>Node97&#45;&gt;Node107</title>
<path fill="none" stroke="midnightblue" d="M425.63,-427.563C410.521,-452.907 380.061,-498.034 342,-523 333.327,-528.689 323.344,-533.106 313.302,-536.529"/>
<polygon fill="midnightblue" stroke="midnightblue" points="428.833,-429.016 430.818,-418.609 422.776,-425.507 428.833,-429.016"/>
</g>
<!-- Node108 -->
<g id="node40" class="node"><title>Node108</title>
<g id="a_node40"><a xlink:href="class_t_m_c2208_stepper.html#a1ec2cc2c0d54fb407165ffc8bc3ccbdf" target="_top" xlink:title=" ">
<polygon fill="white" stroke="black" points="184.5,-494.5 184.5,-513.5 323.5,-513.5 323.5,-494.5 184.5,-494.5"/>
<text text-anchor="middle" x="254" y="-501.5" font-family="Helvetica,sans-Serif" font-size="10.00">TMC2208Stepper::pwm_freq</text>
</a>
</g>
</g>
<!-- Node97&#45;&gt;Node108 -->
<g id="edge43" class="edge"><title>Node97&#45;&gt;Node108</title>
<path fill="none" stroke="midnightblue" d="M420.017,-425.933C402.527,-443.425 372.846,-470.196 342,-485 333.916,-488.88 325.029,-491.977 316.118,-494.447"/>
<polygon fill="midnightblue" stroke="midnightblue" points="422.671,-428.224 427.155,-418.625 417.664,-423.333 422.671,-428.224"/>
</g>
<!-- Node109 -->
<g id="node41" class="node"><title>Node109</title>
<g id="a_node41"><a xlink:href="class_t_m_c2208_stepper.html#aabee9e304eb30077f53220822839f7c1" target="_top" xlink:title=" ">
<polygon fill="white" stroke="black" points="183,-456.5 183,-475.5 325,-475.5 325,-456.5 183,-456.5"/>
<text text-anchor="middle" x="254" y="-463.5" font-family="Helvetica,sans-Serif" font-size="10.00">TMC2208Stepper::pwm_grad</text>
</a>
</g>
</g>
<!-- Node97&#45;&gt;Node109 -->
<g id="edge44" class="edge"><title>Node97&#45;&gt;Node109</title>
<path fill="none" stroke="midnightblue" d="M405.861,-422.703C387.649,-430.599 363.812,-440.262 342,-447 330.33,-450.605 317.578,-453.794 305.523,-456.481"/>
<polygon fill="midnightblue" stroke="midnightblue" points="407.346,-425.874 415.091,-418.644 404.528,-419.466 407.346,-425.874"/>
</g>
<!-- Node110 -->
<g id="node42" class="node"><title>Node110</title>
<g id="a_node42"><a xlink:href="class_t_m_c2208_stepper.html#a130292409335270115a35839e39ddd1e" target="_top" xlink:title=" ">
<polygon fill="white" stroke="black" points="186,-418.5 186,-437.5 322,-437.5 322,-418.5 186,-418.5"/>
<text text-anchor="middle" x="254" y="-425.5" font-family="Helvetica,sans-Serif" font-size="10.00">TMC2208Stepper::pwm_lim</text>
</a>
</g>
</g>
<!-- Node97&#45;&gt;Node110 -->
<g id="edge45" class="edge"><title>Node97&#45;&gt;Node110</title>
<path fill="none" stroke="midnightblue" d="M367.616,-416.178C352.775,-417.736 337.089,-419.383 322.291,-420.936"/>
<polygon fill="midnightblue" stroke="midnightblue" points="368.154,-419.641 377.734,-415.116 367.423,-412.68 368.154,-419.641"/>
</g>
<!-- Node111 -->
<g id="node43" class="node"><title>Node111</title>
<g id="a_node43"><a xlink:href="class_t_m_c2208_stepper.html#a590f9f3dd5c41f135492a88044a4b24f" target="_top" xlink:title=" ">
<polygon fill="white" stroke="black" points="186,-380.5 186,-399.5 322,-399.5 322,-380.5 186,-380.5"/>
<text text-anchor="middle" x="254" y="-387.5" font-family="Helvetica,sans-Serif" font-size="10.00">TMC2208Stepper::pwm_ofs</text>
</a>
</g>
</g>
<!-- Node97&#45;&gt;Node111 -->
<g id="edge46" class="edge"><title>Node97&#45;&gt;Node111</title>
<path fill="none" stroke="midnightblue" d="M367.616,-401.822C352.775,-400.264 337.089,-398.617 322.291,-397.064"/>
<polygon fill="midnightblue" stroke="midnightblue" points="367.423,-405.32 377.734,-402.884 368.154,-398.359 367.423,-405.32"/>
</g>
<!-- Node112 -->
<g id="node44" class="node"><title>Node112</title>
<g id="a_node44"><a xlink:href="class_t_m_c2208_stepper.html#a675e8100c482de74a88a47de4894720d" target="_top" xlink:title=" ">
<polygon fill="white" stroke="black" points="185.5,-342.5 185.5,-361.5 322.5,-361.5 322.5,-342.5 185.5,-342.5"/>
<text text-anchor="middle" x="254" y="-349.5" font-family="Helvetica,sans-Serif" font-size="10.00">TMC2208Stepper::pwm_reg</text>
</a>
</g>
</g>
<!-- Node97&#45;&gt;Node112 -->
<g id="edge47" class="edge"><title>Node97&#45;&gt;Node112</title>
<path fill="none" stroke="midnightblue" d="M405.861,-395.297C387.649,-387.401 363.812,-377.738 342,-371 330.33,-367.395 317.578,-364.206 305.523,-361.519"/>
<polygon fill="midnightblue" stroke="midnightblue" points="404.528,-398.534 415.091,-399.356 407.346,-392.126 404.528,-398.534"/>
</g>
<!-- Node113 -->
<g id="node45" class="node"><title>Node113</title>
<g id="a_node45"><a xlink:href="class_t_m_c2208_stepper.html#a65df7ae90b9d77626cad8f4529aab83a" target="_top" xlink:title=" ">
<polygon fill="white" stroke="black" points="179.5,-304.5 179.5,-323.5 328.5,-323.5 328.5,-304.5 179.5,-304.5"/>
<text text-anchor="middle" x="254" y="-311.5" font-family="Helvetica,sans-Serif" font-size="10.00">TMC2208Stepper::PWMCONF</text>
</a>
</g>
</g>
<!-- Node97&#45;&gt;Node113 -->
<g id="edge48" class="edge"><title>Node97&#45;&gt;Node113</title>
<path fill="none" stroke="midnightblue" d="M420.017,-392.067C402.527,-374.575 372.846,-347.804 342,-333 333.916,-329.12 325.029,-326.023 316.118,-323.553"/>
<polygon fill="midnightblue" stroke="midnightblue" points="417.664,-394.667 427.155,-399.375 422.671,-389.776 417.664,-394.667"/>
</g>
<!-- Node114 -->
<g id="node46" class="node"><title>Node114</title>
<g id="a_node46"><a xlink:href="class_t_m_c2208_stepper.html#a8d1b1743b63ef0ab21a82da2acd5c465" target="_top" xlink:title=" ">
<polygon fill="white" stroke="black" points="183,-266.5 183,-285.5 325,-285.5 325,-266.5 183,-266.5"/>
<text text-anchor="middle" x="254" y="-273.5" font-family="Helvetica,sans-Serif" font-size="10.00">TMC2208Stepper::senddelay</text>
</a>
</g>
</g>
<!-- Node97&#45;&gt;Node114 -->
<g id="edge49" class="edge"><title>Node97&#45;&gt;Node114</title>
<path fill="none" stroke="midnightblue" d="M426.049,-390.426C411.272,-364.732 381.022,-318.825 342,-295 335.666,-291.133 328.649,-288.048 321.427,-285.588"/>
<polygon fill="midnightblue" stroke="midnightblue" points="423.013,-392.168 430.942,-399.196 429.126,-388.757 423.013,-392.168"/>
</g>
<!-- Node115 -->
<g id="node47" class="node"><title>Node115</title>
<g id="a_node47"><a xlink:href="class_t_m_c2209_stepper.html#ac02a95cfd0f560a2705136717f50d957" target="_top" xlink:title=" ">
<polygon fill="white" stroke="black" points="185.5,-228.5 185.5,-247.5 322.5,-247.5 322.5,-228.5 185.5,-228.5"/>
<text text-anchor="middle" x="254" y="-235.5" font-family="Helvetica,sans-Serif" font-size="10.00">TMC2209Stepper::SGTHRS</text>
</a>
</g>
</g>
<!-- Node97&#45;&gt;Node115 -->
<g id="edge50" class="edge"><title>Node97&#45;&gt;Node115</title>
<path fill="none" stroke="midnightblue" d="M429.662,-389.539C417.92,-356.719 389.553,-290.661 342,-257 336.195,-252.891 329.668,-249.645 322.864,-247.085"/>
<polygon fill="midnightblue" stroke="midnightblue" points="426.455,-390.976 433.01,-399.3 433.076,-388.705 426.455,-390.976"/>
</g>
<!-- Node116 -->
<g id="node48" class="node"><title>Node116</title>
<g id="a_node48"><a xlink:href="class_t_m_c2208_stepper.html#a62c4c6100151acdbae6de579009b9f0d" target="_top" xlink:title=" ">
<polygon fill="white" stroke="black" points="175.5,-190.5 175.5,-209.5 332.5,-209.5 332.5,-190.5 175.5,-190.5"/>
<text text-anchor="middle" x="254" y="-197.5" font-family="Helvetica,sans-Serif" font-size="10.00">TMC2208Stepper::SLAVECONF</text>
</a>
</g>
</g>
<!-- Node97&#45;&gt;Node116 -->
<g id="edge51" class="edge"><title>Node97&#45;&gt;Node116</title>
<path fill="none" stroke="midnightblue" d="M432.19,-389.418C423.54,-350.467 398.608,-263.224 342,-219 337.127,-215.193 331.652,-212.112 325.884,-209.622"/>
<polygon fill="midnightblue" stroke="midnightblue" points="428.774,-390.181 434.251,-399.251 435.625,-388.746 428.774,-390.181"/>
</g>
<!-- Node117 -->
<g id="node49" class="node"><title>Node117</title>
<g id="a_node49"><a xlink:href="class_t_m_c2209_stepper.html#acc61f21e6584dc64bd9bd025fd7bc29a" target="_top" xlink:title=" ">
<polygon fill="white" stroke="black" points="176.5,-152.5 176.5,-171.5 331.5,-171.5 331.5,-152.5 176.5,-152.5"/>
<text text-anchor="middle" x="254" y="-159.5" font-family="Helvetica,sans-Serif" font-size="10.00">TMC2209Stepper::TCOOLTHRS</text>
</a>
</g>
</g>
<!-- Node97&#45;&gt;Node117 -->
<g id="edge52" class="edge"><title>Node97&#45;&gt;Node117</title>
<path fill="none" stroke="midnightblue" d="M433.943,-389.3C428.201,-344.808 407.817,-236.143 342,-181 337.497,-177.227 332.413,-174.156 327.022,-171.66"/>
<polygon fill="midnightblue" stroke="midnightblue" points="430.485,-389.861 435.131,-399.383 437.437,-389.042 430.485,-389.861"/>
</g>
<!-- Node118 -->
<g id="node50" class="node"><title>Node118</title>
<g id="a_node50"><a xlink:href="class_t_m_c2208_stepper.html#a9e9792fafdbbf0681daf613b2a5f507a" target="_top" xlink:title=" ">
<polygon fill="white" stroke="black" points="183,-114.5 183,-133.5 325,-133.5 325,-114.5 183,-114.5"/>
<text text-anchor="middle" x="254" y="-121.5" font-family="Helvetica,sans-Serif" font-size="10.00">TMC2208Stepper::VACTUAL</text>
</a>
</g>
</g>
<!-- Node97&#45;&gt;Node118 -->
<g id="edge53" class="edge"><title>Node97&#45;&gt;Node118</title>
<path fill="none" stroke="midnightblue" d="M435.259,-389.467C432.278,-340.081 417.295,-209.448 342,-143 337.016,-138.601 331.251,-135.144 325.109,-132.436"/>
<polygon fill="midnightblue" stroke="midnightblue" points="431.764,-389.648 435.76,-399.46 438.755,-389.297 431.764,-389.648"/>
</g>
</g>
</svg>
        <g id="navigator" transform="translate(0 0)" fill="#404254">
                <rect fill="#f2f5e9" fill-opacity="0.5" stroke="#606060" stroke-width=".5" x="0" y="0" width="60" height="60"/>
                <use id="zoomplus" xlink:href="#zoomPlus" x="17" y="9" onmousedown="handleZoom(evt,'in')"/>
                <use id="zoomminus" xlink:href="#zoomMin" x="42" y="9" onmousedown="handleZoom(evt,'out')"/>
                <use id="reset" xlink:href="#resetDef" x="30" y="36" onmousedown="handleReset()"/>
                <g id="arrowUp" xlink:href="#dirArrow" transform="translate(30 24)" onmousedown="handlePan(0,-1)">
                  <use xlink:href="#rim" fill="#404040">
                        <set attributeName="fill" to="#808080" begin="arrowUp.mouseover" end="arrowUp.mouseout"/>
                  </use>
                  <path fill="none" stroke="white" stroke-width="1.5" d="M0,-3.0v7 M-2.5,-0.5L0,-3.0L2.5,-0.5"/>
                </g>
                <g id="arrowRight" xlink:href="#dirArrow" transform="rotate(90) translate(36 -43)" onmousedown="handlePan(1,0)">
                  <use xlink:href="#rim" fill="#404040">
                        <set attributeName="fill" to="#808080" begin="arrowRight.mouseover" end="arrowRight.mouseout"/>
                  </use>
                  <path fill="none" stroke="white" stroke-width="1.5" d="M0,-3.0v7 M-2.5,-0.5L0,-3.0L2.5,-0.5"/>
                </g>
                <g id="arrowDown" xlink:href="#dirArrow" transform="rotate(180) translate(-30 -48)" onmousedown="handlePan(0,1)">
                  <use xlink:href="#rim" fill="#404040">
                        <set attributeName="fill" to="#808080" begin="arrowDown.mouseover" end="arrowDown.mouseout"/>
                  </use>
                  <path fill="none" stroke="white" stroke-width="1.5" d="M0,-3.0v7 M-2.5,-0.5L0,-3.0L2.5,-0.5"/>
                </g>
                <g id="arrowLeft" xlink:href="#dirArrow" transform="rotate(270) translate(-36 17)" onmousedown="handlePan(-1,0)">
                  <use xlink:href="#rim" fill="#404040">
                        <set attributeName="fill" to="#808080" begin="arrowLeft.mouseover" end="arrowLeft.mouseout"/>
                  </use>
                  <path fill="none" stroke="white" stroke-width="1.5" d="M0,-3.0v7 M-2.5,-0.5L0,-3.0L2.5,-0.5"/>
                </g>
        </g>
        <svg viewBox="0 0 15 15" width="100%" height="30px" preserveAspectRatio="xMaxYMin meet">
         <g id="arrow_out" transform="scale(0.3 0.3)">
          <a xlink:href="class_t_m_c2208_stepper_a409c19fa6b052a370a317d061bf9af4e_icgraph_org.svg" target="_base">
           <rect id="button" ry="5" rx="5" y="6" x="6" height="38" width="38"
                fill="#f2f5e9" fill-opacity="0.5" stroke="#606060" stroke-width="1.0"/>
           <path id="arrow"
             d="M 11.500037,31.436501 C 11.940474,20.09759 22.043105,11.32322 32.158766,21.979434 L 37.068811,17.246167 C 37.068811,17.246167 37.088388,32 37.088388,32 L 22.160133,31.978069 C 22.160133,31.978069 26.997745,27.140456 26.997745,27.140456 C 18.528582,18.264221 13.291696,25.230495 11.500037,31.436501 z"
             style="fill:#404040;"/>
          </a>
         </g>
        </svg>
</svg>
