<?xml version="1.0" encoding="UTF-8" standalone="no"?>
<!DOCTYPE svg PUBLIC "-//W3C//DTD SVG 1.1//EN"
 "http://www.w3.org/Graphics/SVG/1.1/DTD/svg11.dtd">
<!-- Generated by graphviz version 2.38.0 (20140413.2041)
 -->
<!-- Title: TMC2209Stepper::enn Pages: 1 -->
<svg width="960pt" height="156pt"
 viewBox="0.00 0.00 960.00 156.41" xmlns="http://www.w3.org/2000/svg" xmlns:xlink="http://www.w3.org/1999/xlink">
<g id="graph0" class="graph" transform="scale(1 1) rotate(0) translate(4 152.405)">
<title>TMC2209Stepper::enn</title>
<polygon fill="white" stroke="none" points="-4,4 -4,-152.405 956,-152.405 956,4 -4,4"/>
<!-- Node1 -->
<g id="node1" class="node"><title>Node1</title>
<g id="a_node1"><a xlink:title=" ">
<polygon fill="#bfbfbf" stroke="black" points="0,-46.9052 0,-65.9052 113,-65.9052 113,-46.9052 0,-46.9052"/>
<text text-anchor="middle" x="56.5" y="-53.9052" font-family="Helvetica,sans-Serif" font-size="10.00">TMC2209Stepper::enn</text>
</a>
</g>
</g>
<!-- Node2 -->
<g id="node2" class="node"><title>Node2</title>
<g id="a_node2"><a xlink:href="class_t_m_c2209_stepper.html#aeab582b2f23d4e58f63aec80163b3838" target="_top" xlink:title=" ">
<polygon fill="white" stroke="black" points="149,-46.9052 149,-65.9052 265,-65.9052 265,-46.9052 149,-46.9052"/>
<text text-anchor="middle" x="207" y="-53.9052" font-family="Helvetica,sans-Serif" font-size="10.00">TMC2209Stepper::IOIN</text>
</a>
</g>
</g>
<!-- Node1&#45;&gt;Node2 -->
<g id="edge1" class="edge"><title>Node1&#45;&gt;Node2</title>
<path fill="none" stroke="midnightblue" d="M113.218,-56.4052C121.618,-56.4052 130.356,-56.4052 138.963,-56.4052"/>
<polygon fill="midnightblue" stroke="midnightblue" points="138.979,-59.9053 148.979,-56.4052 138.979,-52.9053 138.979,-59.9053"/>
</g>
<!-- Node3 -->
<g id="node3" class="node"><title>Node3</title>
<g id="a_node3"><a xlink:href="class_t_m_c2208_stepper.html#a2fae2050849c3ab7968012def8ea1cc5" target="_top" xlink:title=" ">
<polygon fill="white" stroke="black" points="301,-46.9052 301,-65.9052 417,-65.9052 417,-46.9052 301,-46.9052"/>
<text text-anchor="middle" x="359" y="-53.9052" font-family="Helvetica,sans-Serif" font-size="10.00">TMC2208Stepper::read</text>
</a>
</g>
</g>
<!-- Node2&#45;&gt;Node3 -->
<g id="edge2" class="edge"><title>Node2&#45;&gt;Node3</title>
<path fill="none" stroke="midnightblue" d="M265.136,-56.4052C273.377,-56.4052 281.923,-56.4052 290.344,-56.4052"/>
<polygon fill="midnightblue" stroke="midnightblue" points="290.526,-59.9053 300.525,-56.4052 290.525,-52.9053 290.526,-59.9053"/>
</g>
<!-- Node4 -->
<g id="node4" class="node"><title>Node4</title>
<g id="a_node4"><a xlink:href="class_t_m_c2208_stepper.html#a3e1f6a10aa1e3e41dc2594dbe1ea8a1d" target="_top" xlink:title=" ">
<polygon fill="white" stroke="black" points="453,-103.905 453,-122.905 619,-122.905 619,-103.905 453,-103.905"/>
<text text-anchor="middle" x="536" y="-110.905" font-family="Helvetica,sans-Serif" font-size="10.00">TMC2208Stepper::_sendDatagram</text>
</a>
</g>
</g>
<!-- Node3&#45;&gt;Node4 -->
<g id="edge3" class="edge"><title>Node3&#45;&gt;Node4</title>
<path fill="none" stroke="midnightblue" d="M380.7,-65.9833C399.317,-74.3262 427.568,-86.3205 453,-94.4052 461.008,-96.9508 469.555,-99.3114 477.996,-101.442"/>
<polygon fill="midnightblue" stroke="midnightblue" points="477.272,-104.868 487.816,-103.834 478.929,-98.0666 477.272,-104.868"/>
</g>
<!-- Node9 -->
<g id="node9" class="node"><title>Node9</title>
<g id="a_node9"><a xlink:href="class_s_switch.html#a6ff09d0850d551571dc333fb74ff8628" target="_top" xlink:title=" ">
<polygon fill="white" stroke="black" points="494.5,-65.9052 494.5,-84.9052 577.5,-84.9052 577.5,-65.9052 494.5,-65.9052"/>
<text text-anchor="middle" x="536" y="-72.9052" font-family="Helvetica,sans-Serif" font-size="10.00">SSwitch::active</text>
</a>
</g>
</g>
<!-- Node3&#45;&gt;Node9 -->
<g id="edge9" class="edge"><title>Node3&#45;&gt;Node9</title>
<path fill="none" stroke="midnightblue" d="M417.302,-62.6265C438.975,-64.9796 463.465,-67.6385 484.472,-69.9193"/>
<polygon fill="midnightblue" stroke="midnightblue" points="484.158,-73.4056 494.477,-71.0055 484.913,-66.4465 484.158,-73.4056"/>
</g>
<!-- Node10 -->
<g id="node10" class="node"><title>Node10</title>
<g id="a_node10"><a xlink:href="class_t_m_c2208_stepper.html#a409c19fa6b052a370a317d061bf9af4e" target="_top" xlink:title=" ">
<polygon fill="white" stroke="black" points="468,-27.9052 468,-46.9052 604,-46.9052 604,-27.9052 468,-27.9052"/>
<text text-anchor="middle" x="536" y="-34.9052" font-family="Helvetica,sans-Serif" font-size="10.00">TMC2208Stepper::calcCRC</text>
</a>
</g>
</g>
<!-- Node3&#45;&gt;Node10 -->
<g id="edge10" class="edge"><title>Node3&#45;&gt;Node10</title>
<path fill="none" stroke="midnightblue" d="M417.302,-50.1839C430.17,-48.7867 444.032,-47.2817 457.567,-45.8121"/>
<polygon fill="midnightblue" stroke="midnightblue" points="458.269,-49.2566 467.833,-44.6976 457.514,-42.2975 458.269,-49.2566"/>
</g>
<!-- Node5 -->
<g id="node5" class="node"><title>Node5</title>
<g id="a_node5"><a xlink:href="class_t_m_c2208_stepper.html#a4ec5d2b2f5a31259c7aba1f3208d63b8" target="_top" xlink:title=" ">
<polygon fill="white" stroke="black" points="669.5,-128.905 669.5,-147.905 785.5,-147.905 785.5,-128.905 669.5,-128.905"/>
<text text-anchor="middle" x="727.5" y="-135.905" font-family="Helvetica,sans-Serif" font-size="10.00">TMC2208Stepper::ms2</text>
</a>
</g>
</g>
<!-- Node4&#45;&gt;Node5 -->
<g id="edge4" class="edge"><title>Node4&#45;&gt;Node5</title>
<path fill="none" stroke="midnightblue" d="M609.182,-122.928C625.64,-125.099 643.062,-127.397 659.301,-129.54"/>
<polygon fill="midnightblue" stroke="midnightblue" points="658.868,-133.013 669.24,-130.851 659.784,-126.073 658.868,-133.013"/>
</g>
<!-- Node7 -->
<g id="node7" class="node"><title>Node7</title>
<g id="a_node7"><a xlink:href="class_t_m_c2208_stepper.html#ae561da4ec7c40830e97bf4dc8cf700fb" target="_top" xlink:title=" ">
<polygon fill="white" stroke="black" points="655,-90.9052 655,-109.905 800,-109.905 800,-90.9052 655,-90.9052"/>
<text text-anchor="middle" x="727.5" y="-97.9052" font-family="Helvetica,sans-Serif" font-size="10.00">TMC2208Stepper::serial_read</text>
</a>
</g>
</g>
<!-- Node4&#45;&gt;Node7 -->
<g id="edge7" class="edge"><title>Node4&#45;&gt;Node7</title>
<path fill="none" stroke="midnightblue" d="M619.015,-107.779C627.478,-107.198 636.078,-106.608 644.54,-106.028"/>
<polygon fill="midnightblue" stroke="midnightblue" points="645.038,-109.502 654.775,-105.326 644.559,-102.518 645.038,-109.502"/>
</g>
<!-- Node8 -->
<g id="node8" class="node"><title>Node8</title>
<g id="a_node8"><a xlink:href="class_t_m_c2208_stepper.html#a7dd83313385079099b0622957786a979" target="_top" xlink:title=" ">
<polygon fill="white" stroke="black" points="667,-41.4052 667,-71.4052 788,-71.4052 788,-41.4052 667,-41.4052"/>
<text text-anchor="start" x="675" y="-59.4052" font-family="Helvetica,sans-Serif" font-size="10.00">TMC2208Stepper::serial</text>
<text text-anchor="middle" x="727.5" y="-48.4052" font-family="Helvetica,sans-Serif" font-size="10.00">_write</text>
</a>
</g>
</g>
<!-- Node4&#45;&gt;Node8 -->
<g id="edge8" class="edge"><title>Node4&#45;&gt;Node8</title>
<path fill="none" stroke="midnightblue" d="M582.793,-103.808C594.658,-101.045 607.367,-97.8399 619,-94.4052 635.315,-89.5878 638.971,-87.1015 655,-81.4052 661.017,-79.2668 667.325,-77.0401 673.595,-74.8355"/>
<polygon fill="midnightblue" stroke="midnightblue" points="675.095,-78.0185 683.372,-71.4052 672.778,-71.4133 675.095,-78.0185"/>
</g>
<!-- Node6 -->
<g id="node6" class="node"><title>Node6</title>
<g id="a_node6"><a xlink:href="class_t_m_c2208_stepper.html#a5441dd87d0bcea4ffc309cb012166a57" target="_top" xlink:title=" ">
<polygon fill="white" stroke="black" points="836,-58.9052 836,-77.9052 952,-77.9052 952,-58.9052 836,-58.9052"/>
<text text-anchor="middle" x="894" y="-65.9052" font-family="Helvetica,sans-Serif" font-size="10.00">TMC2208Stepper::IOIN</text>
</a>
</g>
</g>
<!-- Node5&#45;&gt;Node6 -->
<g id="edge5" class="edge"><title>Node5&#45;&gt;Node6</title>
<path fill="none" stroke="midnightblue" d="M771.395,-128.814C780.954,-126.18 790.937,-123.032 800,-119.405 824.717,-109.514 851.177,-94.529 869.529,-83.3584"/>
<polygon fill="midnightblue" stroke="midnightblue" points="871.423,-86.3019 878.088,-78.0661 867.742,-80.348 871.423,-86.3019"/>
</g>
<!-- Node6&#45;&gt;Node3 -->
<g id="edge6" class="edge"><title>Node6&#45;&gt;Node3</title>
<path fill="none" stroke="midnightblue" d="M873.963,-58.8176C855.546,-50.0326 826.593,-37.4965 800,-31.4052 649.566,3.05335 604.437,11.3399 453,-18.4052 429.751,-22.9717 404.989,-33.3919 386.866,-42.1675"/>
<polygon fill="midnightblue" stroke="midnightblue" points="384.917,-39.2285 377.532,-46.826 388.043,-45.4917 384.917,-39.2285"/>
</g>
</g>
</svg>
