<?xml version="1.0" encoding="UTF-8" standalone="no"?>
<!DOCTYPE svg PUBLIC "-//W3C//DTD SVG 1.1//EN"
 "http://www.w3.org/Graphics/SVG/1.1/DTD/svg11.dtd">
<!-- Generated by graphviz version 2.38.0 (20140413.2041)
 -->
<!-- Title: TMC2209Stepper::SG_RESULT Pages: 1 -->
<svg width="807pt" height="156pt"
 viewBox="0.00 0.00 807.00 156.41" xmlns="http://www.w3.org/2000/svg" xmlns:xlink="http://www.w3.org/1999/xlink">
<g id="graph0" class="graph" transform="scale(1 1) rotate(0) translate(4 152.405)">
<title>TMC2209Stepper::SG_RESULT</title>
<polygon fill="white" stroke="none" points="-4,4 -4,-152.405 803,-152.405 803,4 -4,4"/>
<!-- Node1 -->
<g id="node1" class="node"><title>Node1</title>
<g id="a_node1"><a xlink:title=" ">
<polygon fill="#bfbfbf" stroke="black" points="0,-41.4052 0,-71.4052 112,-71.4052 112,-41.4052 0,-41.4052"/>
<text text-anchor="start" x="8" y="-59.4052" font-family="Helvetica,sans-Serif" font-size="10.00">TMC2209Stepper::SG</text>
<text text-anchor="middle" x="56" y="-48.4052" font-family="Helvetica,sans-Serif" font-size="10.00">_RESULT</text>
</a>
</g>
</g>
<!-- Node2 -->
<g id="node2" class="node"><title>Node2</title>
<g id="a_node2"><a xlink:href="class_t_m_c2208_stepper.html#a2fae2050849c3ab7968012def8ea1cc5" target="_top" xlink:title=" ">
<polygon fill="white" stroke="black" points="148,-46.9052 148,-65.9052 264,-65.9052 264,-46.9052 148,-46.9052"/>
<text text-anchor="middle" x="206" y="-53.9052" font-family="Helvetica,sans-Serif" font-size="10.00">TMC2208Stepper::read</text>
</a>
</g>
</g>
<!-- Node1&#45;&gt;Node2 -->
<g id="edge1" class="edge"><title>Node1&#45;&gt;Node2</title>
<path fill="none" stroke="midnightblue" d="M112.11,-56.4052C120.498,-56.4052 129.233,-56.4052 137.843,-56.4052"/>
<polygon fill="midnightblue" stroke="midnightblue" points="137.865,-59.9053 147.865,-56.4052 137.865,-52.9053 137.865,-59.9053"/>
</g>
<!-- Node3 -->
<g id="node3" class="node"><title>Node3</title>
<g id="a_node3"><a xlink:href="class_t_m_c2208_stepper.html#a3e1f6a10aa1e3e41dc2594dbe1ea8a1d" target="_top" xlink:title=" ">
<polygon fill="white" stroke="black" points="300,-103.905 300,-122.905 466,-122.905 466,-103.905 300,-103.905"/>
<text text-anchor="middle" x="383" y="-110.905" font-family="Helvetica,sans-Serif" font-size="10.00">TMC2208Stepper::_sendDatagram</text>
</a>
</g>
</g>
<!-- Node2&#45;&gt;Node3 -->
<g id="edge2" class="edge"><title>Node2&#45;&gt;Node3</title>
<path fill="none" stroke="midnightblue" d="M227.7,-65.9833C246.317,-74.3262 274.568,-86.3205 300,-94.4052 308.008,-96.9508 316.555,-99.3114 324.996,-101.442"/>
<polygon fill="midnightblue" stroke="midnightblue" points="324.272,-104.868 334.816,-103.834 325.929,-98.0666 324.272,-104.868"/>
</g>
<!-- Node8 -->
<g id="node8" class="node"><title>Node8</title>
<g id="a_node8"><a xlink:href="class_s_switch.html#a6ff09d0850d551571dc333fb74ff8628" target="_top" xlink:title=" ">
<polygon fill="white" stroke="black" points="341.5,-65.9052 341.5,-84.9052 424.5,-84.9052 424.5,-65.9052 341.5,-65.9052"/>
<text text-anchor="middle" x="383" y="-72.9052" font-family="Helvetica,sans-Serif" font-size="10.00">SSwitch::active</text>
</a>
</g>
</g>
<!-- Node2&#45;&gt;Node8 -->
<g id="edge8" class="edge"><title>Node2&#45;&gt;Node8</title>
<path fill="none" stroke="midnightblue" d="M264.302,-62.6265C285.975,-64.9796 310.465,-67.6385 331.472,-69.9193"/>
<polygon fill="midnightblue" stroke="midnightblue" points="331.158,-73.4056 341.477,-71.0055 331.913,-66.4465 331.158,-73.4056"/>
</g>
<!-- Node9 -->
<g id="node9" class="node"><title>Node9</title>
<g id="a_node9"><a xlink:href="class_t_m_c2208_stepper.html#a409c19fa6b052a370a317d061bf9af4e" target="_top" xlink:title=" ">
<polygon fill="white" stroke="black" points="315,-27.9052 315,-46.9052 451,-46.9052 451,-27.9052 315,-27.9052"/>
<text text-anchor="middle" x="383" y="-34.9052" font-family="Helvetica,sans-Serif" font-size="10.00">TMC2208Stepper::calcCRC</text>
</a>
</g>
</g>
<!-- Node2&#45;&gt;Node9 -->
<g id="edge9" class="edge"><title>Node2&#45;&gt;Node9</title>
<path fill="none" stroke="midnightblue" d="M264.302,-50.1839C277.17,-48.7867 291.032,-47.2817 304.567,-45.8121"/>
<polygon fill="midnightblue" stroke="midnightblue" points="305.269,-49.2566 314.833,-44.6976 304.514,-42.2975 305.269,-49.2566"/>
</g>
<!-- Node4 -->
<g id="node4" class="node"><title>Node4</title>
<g id="a_node4"><a xlink:href="class_t_m_c2208_stepper.html#a4ec5d2b2f5a31259c7aba1f3208d63b8" target="_top" xlink:title=" ">
<polygon fill="white" stroke="black" points="516.5,-128.905 516.5,-147.905 632.5,-147.905 632.5,-128.905 516.5,-128.905"/>
<text text-anchor="middle" x="574.5" y="-135.905" font-family="Helvetica,sans-Serif" font-size="10.00">TMC2208Stepper::ms2</text>
</a>
</g>
</g>
<!-- Node3&#45;&gt;Node4 -->
<g id="edge3" class="edge"><title>Node3&#45;&gt;Node4</title>
<path fill="none" stroke="midnightblue" d="M456.182,-122.928C472.64,-125.099 490.062,-127.397 506.301,-129.54"/>
<polygon fill="midnightblue" stroke="midnightblue" points="505.868,-133.013 516.24,-130.851 506.784,-126.073 505.868,-133.013"/>
</g>
<!-- Node6 -->
<g id="node6" class="node"><title>Node6</title>
<g id="a_node6"><a xlink:href="class_t_m_c2208_stepper.html#ae561da4ec7c40830e97bf4dc8cf700fb" target="_top" xlink:title=" ">
<polygon fill="white" stroke="black" points="502,-90.9052 502,-109.905 647,-109.905 647,-90.9052 502,-90.9052"/>
<text text-anchor="middle" x="574.5" y="-97.9052" font-family="Helvetica,sans-Serif" font-size="10.00">TMC2208Stepper::serial_read</text>
</a>
</g>
</g>
<!-- Node3&#45;&gt;Node6 -->
<g id="edge6" class="edge"><title>Node3&#45;&gt;Node6</title>
<path fill="none" stroke="midnightblue" d="M466.015,-107.779C474.478,-107.198 483.078,-106.608 491.54,-106.028"/>
<polygon fill="midnightblue" stroke="midnightblue" points="492.038,-109.502 501.775,-105.326 491.559,-102.518 492.038,-109.502"/>
</g>
<!-- Node7 -->
<g id="node7" class="node"><title>Node7</title>
<g id="a_node7"><a xlink:href="class_t_m_c2208_stepper.html#a7dd83313385079099b0622957786a979" target="_top" xlink:title=" ">
<polygon fill="white" stroke="black" points="514,-41.4052 514,-71.4052 635,-71.4052 635,-41.4052 514,-41.4052"/>
<text text-anchor="start" x="522" y="-59.4052" font-family="Helvetica,sans-Serif" font-size="10.00">TMC2208Stepper::serial</text>
<text text-anchor="middle" x="574.5" y="-48.4052" font-family="Helvetica,sans-Serif" font-size="10.00">_write</text>
</a>
</g>
</g>
<!-- Node3&#45;&gt;Node7 -->
<g id="edge7" class="edge"><title>Node3&#45;&gt;Node7</title>
<path fill="none" stroke="midnightblue" d="M429.793,-103.808C441.658,-101.045 454.367,-97.8399 466,-94.4052 482.315,-89.5878 485.971,-87.1015 502,-81.4052 508.017,-79.2668 514.325,-77.0401 520.595,-74.8355"/>
<polygon fill="midnightblue" stroke="midnightblue" points="522.095,-78.0185 530.372,-71.4052 519.778,-71.4133 522.095,-78.0185"/>
</g>
<!-- Node5 -->
<g id="node5" class="node"><title>Node5</title>
<g id="a_node5"><a xlink:href="class_t_m_c2208_stepper.html#a5441dd87d0bcea4ffc309cb012166a57" target="_top" xlink:title=" ">
<polygon fill="white" stroke="black" points="683,-58.9052 683,-77.9052 799,-77.9052 799,-58.9052 683,-58.9052"/>
<text text-anchor="middle" x="741" y="-65.9052" font-family="Helvetica,sans-Serif" font-size="10.00">TMC2208Stepper::IOIN</text>
</a>
</g>
</g>
<!-- Node4&#45;&gt;Node5 -->
<g id="edge4" class="edge"><title>Node4&#45;&gt;Node5</title>
<path fill="none" stroke="midnightblue" d="M618.395,-128.814C627.954,-126.18 637.937,-123.032 647,-119.405 671.717,-109.514 698.177,-94.529 716.529,-83.3584"/>
<polygon fill="midnightblue" stroke="midnightblue" points="718.423,-86.3019 725.088,-78.0661 714.742,-80.348 718.423,-86.3019"/>
</g>
<!-- Node5&#45;&gt;Node2 -->
<g id="edge5" class="edge"><title>Node5&#45;&gt;Node2</title>
<path fill="none" stroke="midnightblue" d="M720.963,-58.8176C702.546,-50.0326 673.593,-37.4965 647,-31.4052 496.566,3.05335 451.437,11.3399 300,-18.4052 276.751,-22.9717 251.989,-33.3919 233.866,-42.1675"/>
<polygon fill="midnightblue" stroke="midnightblue" points="231.917,-39.2285 224.532,-46.826 235.043,-45.4917 231.917,-39.2285"/>
</g>
</g>
</svg>
