<?xml version="1.0" encoding="UTF-8" standalone="no"?>
<!DOCTYPE svg PUBLIC "-//W3C//DTD SVG 1.1//EN"
 "http://www.w3.org/Graphics/SVG/1.1/DTD/svg11.dtd">
<!-- Generated by graphviz version 2.38.0 (20140413.2041)
 -->
<!-- Title: TMC2130Stepper::stop_enable Pages: 1 -->
<svg width="937pt" height="104pt"
 viewBox="0.00 0.00 937.00 104.00" xmlns="http://www.w3.org/2000/svg" xmlns:xlink="http://www.w3.org/1999/xlink">
<g id="graph0" class="graph" transform="scale(1 1) rotate(0) translate(4 100)">
<title>TMC2130Stepper::stop_enable</title>
<polygon fill="white" stroke="none" points="-4,4 -4,-100 933,-100 933,4 -4,4"/>
<!-- Node1 -->
<g id="node1" class="node"><title>Node1</title>
<g id="a_node1"><a xlink:title=" ">
<polygon fill="#bfbfbf" stroke="black" points="0,-33 0,-63 116,-63 116,-33 0,-33"/>
<text text-anchor="start" x="8" y="-51" font-family="Helvetica,sans-Serif" font-size="10.00">TMC2130Stepper::stop</text>
<text text-anchor="middle" x="58" y="-40" font-family="Helvetica,sans-Serif" font-size="10.00">_enable</text>
</a>
</g>
</g>
<!-- Node2 -->
<g id="node2" class="node"><title>Node2</title>
<g id="a_node2"><a xlink:href="class_t_m_c2130_stepper.html#a263a877ca5e91f01727c3bf7c998c76f" target="_top" xlink:title=" ">
<polygon fill="white" stroke="black" points="152,-33 152,-63 268,-63 268,-33 152,-33"/>
<text text-anchor="start" x="160" y="-51" font-family="Helvetica,sans-Serif" font-size="10.00">TMC2130Stepper::stop</text>
<text text-anchor="middle" x="210" y="-40" font-family="Helvetica,sans-Serif" font-size="10.00">_enable</text>
</a>
</g>
</g>
<!-- Node1&#45;&gt;Node2 -->
<g id="edge1" class="edge"><title>Node1&#45;&gt;Node2</title>
<path fill="none" stroke="midnightblue" d="M116.136,-48C124.377,-48 132.923,-48 141.344,-48"/>
<polygon fill="midnightblue" stroke="midnightblue" points="141.526,-51.5001 151.525,-48 141.525,-44.5001 141.526,-51.5001"/>
</g>
<!-- Node3 -->
<g id="node3" class="node"><title>Node3</title>
<g id="a_node3"><a xlink:href="class_t_m_c2130_stepper.html#aee84a9abfc84b387c6ae5658f90bf684" target="_top" xlink:title=" ">
<polygon fill="white" stroke="black" points="304,-38.5 304,-57.5 436,-57.5 436,-38.5 304,-38.5"/>
<text text-anchor="middle" x="370" y="-45.5" font-family="Helvetica,sans-Serif" font-size="10.00">TMC2130Stepper::GCONF</text>
</a>
</g>
</g>
<!-- Node2&#45;&gt;Node3 -->
<g id="edge2" class="edge"><title>Node2&#45;&gt;Node3</title>
<path fill="none" stroke="midnightblue" d="M268.042,-48C276.428,-48 285.173,-48 293.855,-48"/>
<polygon fill="midnightblue" stroke="midnightblue" points="293.994,-51.5001 303.994,-48 293.994,-44.5001 293.994,-51.5001"/>
</g>
<!-- Node4 -->
<g id="node4" class="node"><title>Node4</title>
<g id="a_node4"><a xlink:href="class_t_m_c2130_stepper.html#aed0175bff6e80ebc14e0d2606283cbe0" target="_top" xlink:title=" ">
<polygon fill="white" stroke="black" points="472,-38.5 472,-57.5 588,-57.5 588,-38.5 472,-38.5"/>
<text text-anchor="middle" x="530" y="-45.5" font-family="Helvetica,sans-Serif" font-size="10.00">TMC2130Stepper::read</text>
</a>
</g>
</g>
<!-- Node3&#45;&gt;Node4 -->
<g id="edge3" class="edge"><title>Node3&#45;&gt;Node4</title>
<path fill="none" stroke="midnightblue" d="M436.177,-48C444.517,-48 453.069,-48 461.445,-48"/>
<polygon fill="midnightblue" stroke="midnightblue" points="461.55,-51.5001 471.55,-48 461.55,-44.5001 461.55,-51.5001"/>
</g>
<!-- Node5 -->
<g id="node5" class="node"><title>Node5</title>
<g id="a_node5"><a xlink:href="class_t_m_c2130_stepper.html#aed8aa4583943e649dbf3bb1c1da90d63" target="_top" xlink:title=" ">
<polygon fill="white" stroke="black" points="624,-76.5 624,-95.5 776,-95.5 776,-76.5 624,-76.5"/>
<text text-anchor="middle" x="700" y="-83.5" font-family="Helvetica,sans-Serif" font-size="10.00">TMC2130Stepper::switchCSpin</text>
</a>
</g>
</g>
<!-- Node4&#45;&gt;Node5 -->
<g id="edge4" class="edge"><title>Node4&#45;&gt;Node5</title>
<path fill="none" stroke="midnightblue" d="M573.393,-57.589C595.763,-62.6487 623.398,-68.8996 647.047,-74.2488"/>
<polygon fill="midnightblue" stroke="midnightblue" points="646.386,-77.6875 656.911,-76.4799 647.93,-70.8599 646.386,-77.6875"/>
</g>
<!-- Node6 -->
<g id="node6" class="node"><title>Node6</title>
<g id="a_node6"><a xlink:href="class_s_w___s_p_i_class.html#af260fdc0af3f1312b106483161e559c3" target="_top" xlink:title=" ">
<polygon fill="white" stroke="black" points="812,-19.5 812,-38.5 929,-38.5 929,-19.5 812,-19.5"/>
<text text-anchor="middle" x="870.5" y="-26.5" font-family="Helvetica,sans-Serif" font-size="10.00">SW_SPIClass::transfer</text>
</a>
</g>
</g>
<!-- Node4&#45;&gt;Node6 -->
<g id="edge5" class="edge"><title>Node4&#45;&gt;Node6</title>
<path fill="none" stroke="midnightblue" d="M588.039,-44.7984C647.027,-41.4874 739.113,-36.3186 801.765,-32.802"/>
<polygon fill="midnightblue" stroke="midnightblue" points="802.156,-36.2856 811.944,-32.2306 801.763,-29.2966 802.156,-36.2856"/>
</g>
<!-- Node7 -->
<g id="node7" class="node"><title>Node7</title>
<g id="a_node7"><a xlink:href="class_s_w___s_p_i_class.html#a1b7600aa1d9571c103718c5d3e376675" target="_top" xlink:title=" ">
<polygon fill="white" stroke="black" points="636,-0.5 636,-19.5 764,-19.5 764,-0.5 636,-0.5"/>
<text text-anchor="middle" x="700" y="-7.5" font-family="Helvetica,sans-Serif" font-size="10.00">SW_SPIClass::transfer16</text>
</a>
</g>
</g>
<!-- Node4&#45;&gt;Node7 -->
<g id="edge6" class="edge"><title>Node4&#45;&gt;Node7</title>
<path fill="none" stroke="midnightblue" d="M573.393,-38.411C595.763,-33.3513 623.398,-27.1004 647.047,-21.7512"/>
<polygon fill="midnightblue" stroke="midnightblue" points="647.93,-25.1401 656.911,-19.5201 646.386,-18.3125 647.93,-25.1401"/>
</g>
<!-- Node7&#45;&gt;Node6 -->
<g id="edge7" class="edge"><title>Node7&#45;&gt;Node6</title>
<path fill="none" stroke="midnightblue" d="M764.223,-17.129C776.406,-18.5028 789.217,-19.9473 801.543,-21.3372"/>
<polygon fill="midnightblue" stroke="midnightblue" points="801.43,-24.8466 811.76,-22.4892 802.215,-17.8907 801.43,-24.8466"/>
</g>
</g>
</svg>
