<?xml version="1.0" encoding="UTF-8" standalone="no"?>
<!DOCTYPE svg PUBLIC "-//W3C//DTD SVG 1.1//EN"
 "http://www.w3.org/Graphics/SVG/1.1/DTD/svg11.dtd">
<!-- Generated by graphviz version 2.38.0 (20140413.2041)
 -->
<!-- Title: TMC2208Stepper::DRV_STATUS Pages: 1 -->
<svg width="813pt" height="156pt"
 viewBox="0.00 0.00 813.00 156.41" xmlns="http://www.w3.org/2000/svg" xmlns:xlink="http://www.w3.org/1999/xlink">
<g id="graph0" class="graph" transform="scale(1 1) rotate(0) translate(4 152.405)">
<title>TMC2208Stepper::DRV_STATUS</title>
<polygon fill="white" stroke="none" points="-4,4 -4,-152.405 809,-152.405 809,4 -4,4"/>
<!-- Node1 -->
<g id="node1" class="node"><title>Node1</title>
<g id="a_node1"><a xlink:title=" ">
<polygon fill="#bfbfbf" stroke="black" points="0,-41.4052 0,-71.4052 118,-71.4052 118,-41.4052 0,-41.4052"/>
<text text-anchor="start" x="8" y="-59.4052" font-family="Helvetica,sans-Serif" font-size="10.00">TMC2208Stepper::DRV</text>
<text text-anchor="middle" x="59" y="-48.4052" font-family="Helvetica,sans-Serif" font-size="10.00">_STATUS</text>
</a>
</g>
</g>
<!-- Node2 -->
<g id="node2" class="node"><title>Node2</title>
<g id="a_node2"><a xlink:href="class_t_m_c2208_stepper.html#a2fae2050849c3ab7968012def8ea1cc5" target="_top" xlink:title=" ">
<polygon fill="white" stroke="black" points="154,-46.9052 154,-65.9052 270,-65.9052 270,-46.9052 154,-46.9052"/>
<text text-anchor="middle" x="212" y="-53.9052" font-family="Helvetica,sans-Serif" font-size="10.00">TMC2208Stepper::read</text>
</a>
</g>
</g>
<!-- Node1&#45;&gt;Node2 -->
<g id="edge1" class="edge"><title>Node1&#45;&gt;Node2</title>
<path fill="none" stroke="midnightblue" d="M118.381,-56.4052C126.641,-56.4052 135.19,-56.4052 143.603,-56.4052"/>
<polygon fill="midnightblue" stroke="midnightblue" points="143.769,-59.9053 153.769,-56.4052 143.769,-52.9053 143.769,-59.9053"/>
</g>
<!-- Node3 -->
<g id="node3" class="node"><title>Node3</title>
<g id="a_node3"><a xlink:href="class_t_m_c2208_stepper.html#a3e1f6a10aa1e3e41dc2594dbe1ea8a1d" target="_top" xlink:title=" ">
<polygon fill="white" stroke="black" points="306,-103.905 306,-122.905 472,-122.905 472,-103.905 306,-103.905"/>
<text text-anchor="middle" x="389" y="-110.905" font-family="Helvetica,sans-Serif" font-size="10.00">TMC2208Stepper::_sendDatagram</text>
</a>
</g>
</g>
<!-- Node2&#45;&gt;Node3 -->
<g id="edge2" class="edge"><title>Node2&#45;&gt;Node3</title>
<path fill="none" stroke="midnightblue" d="M233.7,-65.9833C252.317,-74.3262 280.568,-86.3205 306,-94.4052 314.008,-96.9508 322.555,-99.3114 330.996,-101.442"/>
<polygon fill="midnightblue" stroke="midnightblue" points="330.272,-104.868 340.816,-103.834 331.929,-98.0666 330.272,-104.868"/>
</g>
<!-- Node8 -->
<g id="node8" class="node"><title>Node8</title>
<g id="a_node8"><a xlink:href="class_s_switch.html#a6ff09d0850d551571dc333fb74ff8628" target="_top" xlink:title=" ">
<polygon fill="white" stroke="black" points="347.5,-65.9052 347.5,-84.9052 430.5,-84.9052 430.5,-65.9052 347.5,-65.9052"/>
<text text-anchor="middle" x="389" y="-72.9052" font-family="Helvetica,sans-Serif" font-size="10.00">SSwitch::active</text>
</a>
</g>
</g>
<!-- Node2&#45;&gt;Node8 -->
<g id="edge8" class="edge"><title>Node2&#45;&gt;Node8</title>
<path fill="none" stroke="midnightblue" d="M270.302,-62.6265C291.975,-64.9796 316.465,-67.6385 337.472,-69.9193"/>
<polygon fill="midnightblue" stroke="midnightblue" points="337.158,-73.4056 347.477,-71.0055 337.913,-66.4465 337.158,-73.4056"/>
</g>
<!-- Node9 -->
<g id="node9" class="node"><title>Node9</title>
<g id="a_node9"><a xlink:href="class_t_m_c2208_stepper.html#a409c19fa6b052a370a317d061bf9af4e" target="_top" xlink:title=" ">
<polygon fill="white" stroke="black" points="321,-27.9052 321,-46.9052 457,-46.9052 457,-27.9052 321,-27.9052"/>
<text text-anchor="middle" x="389" y="-34.9052" font-family="Helvetica,sans-Serif" font-size="10.00">TMC2208Stepper::calcCRC</text>
</a>
</g>
</g>
<!-- Node2&#45;&gt;Node9 -->
<g id="edge9" class="edge"><title>Node2&#45;&gt;Node9</title>
<path fill="none" stroke="midnightblue" d="M270.302,-50.1839C283.17,-48.7867 297.032,-47.2817 310.567,-45.8121"/>
<polygon fill="midnightblue" stroke="midnightblue" points="311.269,-49.2566 320.833,-44.6976 310.514,-42.2975 311.269,-49.2566"/>
</g>
<!-- Node4 -->
<g id="node4" class="node"><title>Node4</title>
<g id="a_node4"><a xlink:href="class_t_m_c2208_stepper.html#a4ec5d2b2f5a31259c7aba1f3208d63b8" target="_top" xlink:title=" ">
<polygon fill="white" stroke="black" points="522.5,-128.905 522.5,-147.905 638.5,-147.905 638.5,-128.905 522.5,-128.905"/>
<text text-anchor="middle" x="580.5" y="-135.905" font-family="Helvetica,sans-Serif" font-size="10.00">TMC2208Stepper::ms2</text>
</a>
</g>
</g>
<!-- Node3&#45;&gt;Node4 -->
<g id="edge3" class="edge"><title>Node3&#45;&gt;Node4</title>
<path fill="none" stroke="midnightblue" d="M462.182,-122.928C478.64,-125.099 496.062,-127.397 512.301,-129.54"/>
<polygon fill="midnightblue" stroke="midnightblue" points="511.868,-133.013 522.24,-130.851 512.784,-126.073 511.868,-133.013"/>
</g>
<!-- Node6 -->
<g id="node6" class="node"><title>Node6</title>
<g id="a_node6"><a xlink:href="class_t_m_c2208_stepper.html#ae561da4ec7c40830e97bf4dc8cf700fb" target="_top" xlink:title=" ">
<polygon fill="white" stroke="black" points="508,-90.9052 508,-109.905 653,-109.905 653,-90.9052 508,-90.9052"/>
<text text-anchor="middle" x="580.5" y="-97.9052" font-family="Helvetica,sans-Serif" font-size="10.00">TMC2208Stepper::serial_read</text>
</a>
</g>
</g>
<!-- Node3&#45;&gt;Node6 -->
<g id="edge6" class="edge"><title>Node3&#45;&gt;Node6</title>
<path fill="none" stroke="midnightblue" d="M472.015,-107.779C480.478,-107.198 489.078,-106.608 497.54,-106.028"/>
<polygon fill="midnightblue" stroke="midnightblue" points="498.038,-109.502 507.775,-105.326 497.559,-102.518 498.038,-109.502"/>
</g>
<!-- Node7 -->
<g id="node7" class="node"><title>Node7</title>
<g id="a_node7"><a xlink:href="class_t_m_c2208_stepper.html#a7dd83313385079099b0622957786a979" target="_top" xlink:title=" ">
<polygon fill="white" stroke="black" points="520,-41.4052 520,-71.4052 641,-71.4052 641,-41.4052 520,-41.4052"/>
<text text-anchor="start" x="528" y="-59.4052" font-family="Helvetica,sans-Serif" font-size="10.00">TMC2208Stepper::serial</text>
<text text-anchor="middle" x="580.5" y="-48.4052" font-family="Helvetica,sans-Serif" font-size="10.00">_write</text>
</a>
</g>
</g>
<!-- Node3&#45;&gt;Node7 -->
<g id="edge7" class="edge"><title>Node3&#45;&gt;Node7</title>
<path fill="none" stroke="midnightblue" d="M435.793,-103.808C447.658,-101.045 460.367,-97.8399 472,-94.4052 488.315,-89.5878 491.971,-87.1015 508,-81.4052 514.017,-79.2668 520.325,-77.0401 526.595,-74.8355"/>
<polygon fill="midnightblue" stroke="midnightblue" points="528.095,-78.0185 536.372,-71.4052 525.778,-71.4133 528.095,-78.0185"/>
</g>
<!-- Node5 -->
<g id="node5" class="node"><title>Node5</title>
<g id="a_node5"><a xlink:href="class_t_m_c2208_stepper.html#a5441dd87d0bcea4ffc309cb012166a57" target="_top" xlink:title=" ">
<polygon fill="white" stroke="black" points="689,-58.9052 689,-77.9052 805,-77.9052 805,-58.9052 689,-58.9052"/>
<text text-anchor="middle" x="747" y="-65.9052" font-family="Helvetica,sans-Serif" font-size="10.00">TMC2208Stepper::IOIN</text>
</a>
</g>
</g>
<!-- Node4&#45;&gt;Node5 -->
<g id="edge4" class="edge"><title>Node4&#45;&gt;Node5</title>
<path fill="none" stroke="midnightblue" d="M624.395,-128.814C633.954,-126.18 643.937,-123.032 653,-119.405 677.717,-109.514 704.177,-94.529 722.529,-83.3584"/>
<polygon fill="midnightblue" stroke="midnightblue" points="724.423,-86.3019 731.088,-78.0661 720.742,-80.348 724.423,-86.3019"/>
</g>
<!-- Node5&#45;&gt;Node2 -->
<g id="edge5" class="edge"><title>Node5&#45;&gt;Node2</title>
<path fill="none" stroke="midnightblue" d="M726.963,-58.8176C708.546,-50.0326 679.593,-37.4965 653,-31.4052 502.566,3.05335 457.437,11.3399 306,-18.4052 282.751,-22.9717 257.989,-33.3919 239.866,-42.1675"/>
<polygon fill="midnightblue" stroke="midnightblue" points="237.917,-39.2285 230.532,-46.826 241.043,-45.4917 237.917,-39.2285"/>
</g>
</g>
</svg>
