<?xml version="1.0" encoding="UTF-8" standalone="no"?>
<!DOCTYPE svg PUBLIC "-//W3C//DTD SVG 1.1//EN"
 "http://www.w3.org/Graphics/SVG/1.1/DTD/svg11.dtd">
<!-- Generated by graphviz version 2.38.0 (20140413.2041)
 -->
<!-- Title: TMC2208Stepper::write Pages: 1 -->
<!--zoomable 811 -->
<svg id="main" version="1.1" xmlns="http://www.w3.org/2000/svg" xmlns:xlink="http://www.w3.org/1999/xlink" xml:space="preserve" onload="init(evt)">
<style type="text/css"><![CDATA[
.edge:hover path { stroke: red; }
.edge:hover polygon { stroke: red; fill: red; }
]]></style>
<script type="text/javascript"><![CDATA[
var edges = document.getElementsByTagName('g');
if (edges && edges.length) {
  for (var i=0;i<edges.length;i++) {
    if (edges[i].id.substr(0,4)=='edge') {
      edges[i].setAttribute('class','edge');
    }
  }
}
]]></script>
        <defs>
                <circle id="rim" cx="0" cy="0" r="7"/>
                <circle id="rim2" cx="0" cy="0" r="3.5"/>
                <g id="zoomPlus">
                        <use xlink:href="#rim" fill="#404040">
                                <set attributeName="fill" to="#808080" begin="zoomplus.mouseover" end="zoomplus.mouseout"/>
                        </use>
                        <path d="M-4,0h8M0,-4v8" fill="none" stroke="white" stroke-width="1.5" pointer-events="none"/>
                </g>
                <g id="zoomMin">
                        <use xlink:href="#rim" fill="#404040">
                                <set attributeName="fill" to="#808080" begin="zoomminus.mouseover" end="zoomminus.mouseout"/>
                        </use>
                        <path d="M-4,0h8" fill="none" stroke="white" stroke-width="1.5" pointer-events="none"/>
                </g>
                <g id="dirArrow">
                        <path fill="none" stroke="white" stroke-width="1.5" d="M0,-3.0v7 M-2.5,-0.5L0,-3.0L2.5,-0.5"/>
                </g>
               <g id="resetDef">
                       <use xlink:href="#rim2" fill="#404040">
                               <set attributeName="fill" to="#808080" begin="reset.mouseover" end="reset.mouseout"/>
                       </use>
               </g>
        </defs>

<script type="text/javascript">
var viewWidth = 338;
var viewHeight = 811;
var sectionId = 'dynsection-129';
</script>
<script xlink:href="svgpan.js"/>
<svg id="graph" class="graph">
<g id="viewport">
<title>TMC2208Stepper::write</title>
<polygon fill="white" stroke="none" points="-4,4 -4,-807 334,-807 334,4 -4,4"/>
<!-- Node1 -->
<g id="node1" class="node"><title>Node1</title>
<g id="a_node1"><a xlink:title=" ">
<polygon fill="#bfbfbf" stroke="black" points="212,-380.5 212,-399.5 330,-399.5 330,-380.5 212,-380.5"/>
<text text-anchor="middle" x="271" y="-387.5" font-family="Helvetica,sans-Serif" font-size="10.00">TMC2208Stepper::write</text>
</a>
</g>
</g>
<!-- Node2 -->
<g id="node2" class="node"><title>Node2</title>
<g id="a_node2"><a xlink:href="class_t_m_c2208_stepper.html#ac7c979e2083f3a2b35bcaa0f4fd45cae" target="_top" xlink:title=" ">
<polygon fill="white" stroke="black" points="12,-783.5 12,-802.5 164,-802.5 164,-783.5 12,-783.5"/>
<text text-anchor="middle" x="88" y="-790.5" font-family="Helvetica,sans-Serif" font-size="10.00">TMC2208Stepper::CHOPCONF</text>
</a>
</g>
</g>
<!-- Node1&#45;&gt;Node2 -->
<g id="edge1" class="edge"><title>Node1&#45;&gt;Node2</title>
<path fill="none" stroke="midnightblue" d="M267.876,-410.008C259.896,-481.367 229.411,-721.911 176,-774 172.126,-777.778 167.685,-780.878 162.905,-783.415"/>
<polygon fill="midnightblue" stroke="midnightblue" points="271.392,-410.046 268.999,-399.725 264.434,-409.285 271.392,-410.046"/>
</g>
<!-- Node3 -->
<g id="node3" class="node"><title>Node3</title>
<g id="a_node3"><a xlink:href="class_t_m_c2209_stepper.html#add1136accc0b089a157c95fdf8e1e685" target="_top" xlink:title=" ">
<polygon fill="white" stroke="black" points="12,-745.5 12,-764.5 164,-764.5 164,-745.5 12,-745.5"/>
<text text-anchor="middle" x="88" y="-752.5" font-family="Helvetica,sans-Serif" font-size="10.00">TMC2209Stepper::COOLCONF</text>
</a>
</g>
</g>
<!-- Node1&#45;&gt;Node3 -->
<g id="edge2" class="edge"><title>Node1&#45;&gt;Node3</title>
<path fill="none" stroke="midnightblue" d="M267.34,-409.74C257.998,-476.131 224.61,-689.774 176,-736 172.079,-739.729 167.604,-742.793 162.799,-745.305"/>
<polygon fill="midnightblue" stroke="midnightblue" points="270.817,-410.142 268.718,-399.757 263.883,-409.184 270.817,-410.142"/>
</g>
<!-- Node4 -->
<g id="node4" class="node"><title>Node4</title>
<g id="a_node4"><a xlink:href="class_t_m_c2208_stepper.html#a97f0d743b9f5cf956637deb2e06d0145" target="_top" xlink:title=" ">
<polygon fill="white" stroke="black" points="0,-707.5 0,-726.5 176,-726.5 176,-707.5 0,-707.5"/>
<text text-anchor="middle" x="88" y="-714.5" font-family="Helvetica,sans-Serif" font-size="10.00">TMC2208Stepper::FACTORY_CONF</text>
</a>
</g>
</g>
<!-- Node1&#45;&gt;Node4 -->
<g id="edge3" class="edge"><title>Node1&#45;&gt;Node4</title>
<path fill="none" stroke="midnightblue" d="M270.344,-409.591C270.17,-464.138 261.767,-618.929 176,-698 171.908,-701.773 167.246,-704.86 162.256,-707.38"/>
<polygon fill="midnightblue" stroke="midnightblue" points="273.844,-409.515 270.282,-399.537 266.844,-409.558 273.844,-409.515"/>
</g>
<!-- Node5 -->
<g id="node5" class="node"><title>Node5</title>
<g id="a_node5"><a xlink:href="class_t_m_c2208_stepper.html#ad920d81bde73173f5974a62a85b719e6" target="_top" xlink:title=" ">
<polygon fill="white" stroke="black" points="23.5,-669.5 23.5,-688.5 152.5,-688.5 152.5,-669.5 23.5,-669.5"/>
<text text-anchor="middle" x="88" y="-676.5" font-family="Helvetica,sans-Serif" font-size="10.00">TMC2208Stepper::fclktrim</text>
</a>
</g>
</g>
<!-- Node1&#45;&gt;Node5 -->
<g id="edge4" class="edge"><title>Node1&#45;&gt;Node5</title>
<path fill="none" stroke="midnightblue" d="M269.36,-409.819C266.616,-459.928 252.145,-592.486 176,-660 169.291,-665.949 161.156,-670.177 152.586,-673.16"/>
<polygon fill="midnightblue" stroke="midnightblue" points="272.863,-409.826 269.812,-399.68 265.87,-409.514 272.863,-409.826"/>
</g>
<!-- Node6 -->
<g id="node6" class="node"><title>Node6</title>
<g id="a_node6"><a xlink:href="class_t_m_c2208_stepper.html#a57d97713abf9d4bde3d60975c8eddff5" target="_top" xlink:title=" ">
<polygon fill="white" stroke="black" points="19,-631.5 19,-650.5 157,-650.5 157,-631.5 19,-631.5"/>
<text text-anchor="middle" x="88" y="-638.5" font-family="Helvetica,sans-Serif" font-size="10.00">TMC2208Stepper::freewheel</text>
</a>
</g>
</g>
<!-- Node1&#45;&gt;Node6 -->
<g id="edge5" class="edge"><title>Node1&#45;&gt;Node6</title>
<path fill="none" stroke="midnightblue" d="M268.093,-409.749C262.639,-454.821 242.775,-565.707 176,-622 170.444,-626.683 163.996,-630.288 157.171,-633.051"/>
<polygon fill="midnightblue" stroke="midnightblue" points="271.575,-410.104 269.189,-399.782 264.617,-409.339 271.575,-410.104"/>
</g>
<!-- Node7 -->
<g id="node7" class="node"><title>Node7</title>
<g id="a_node7"><a xlink:href="class_t_m_c2208_stepper.html#a20d275e1dba5fe4ab75fc405b2f46281" target="_top" xlink:title=" ">
<polygon fill="white" stroke="black" points="22,-593.5 22,-612.5 154,-612.5 154,-593.5 22,-593.5"/>
<text text-anchor="middle" x="88" y="-600.5" font-family="Helvetica,sans-Serif" font-size="10.00">TMC2208Stepper::GCONF</text>
</a>
</g>
</g>
<!-- Node1&#45;&gt;Node7 -->
<g id="edge6" class="edge"><title>Node1&#45;&gt;Node7</title>
<path fill="none" stroke="midnightblue" d="M266.438,-409.431C258.136,-448.906 233.65,-538.579 176,-584 169.564,-589.071 162.064,-592.857 154.216,-595.672"/>
<polygon fill="midnightblue" stroke="midnightblue" points="269.895,-409.992 268.403,-399.502 263.028,-408.633 269.895,-409.992"/>
</g>
<!-- Node8 -->
<g id="node8" class="node"><title>Node8</title>
<g id="a_node8"><a xlink:href="class_t_m_c2208_stepper.html#a755b2adec0990d6bfcf2f5f1daf9d692" target="_top" xlink:title=" ">
<polygon fill="white" stroke="black" points="12.5,-555.5 12.5,-574.5 163.5,-574.5 163.5,-555.5 12.5,-555.5"/>
<text text-anchor="middle" x="88" y="-562.5" font-family="Helvetica,sans-Serif" font-size="10.00">TMC2208Stepper::OTP_PROG</text>
</a>
</g>
</g>
<!-- Node1&#45;&gt;Node8 -->
<g id="edge7" class="edge"><title>Node1&#45;&gt;Node8</title>
<path fill="none" stroke="midnightblue" d="M263.977,-409.485C252.566,-442.988 224.494,-511.251 176,-546 170.596,-549.872 164.553,-552.98 158.238,-555.47"/>
<polygon fill="midnightblue" stroke="midnightblue" points="267.443,-410.146 267.214,-399.554 260.787,-407.977 267.443,-410.146"/>
</g>
<!-- Node9 -->
<g id="node9" class="node"><title>Node9</title>
<g id="a_node9"><a xlink:href="class_t_m_c2208_stepper.html#ae51fb40f4fba4aecb8f0763adddb8296" target="_top" xlink:title=" ">
<polygon fill="white" stroke="black" points="27,-517.5 27,-536.5 149,-536.5 149,-517.5 27,-517.5"/>
<text text-anchor="middle" x="88" y="-524.5" font-family="Helvetica,sans-Serif" font-size="10.00">TMC2208Stepper::ottrim</text>
</a>
</g>
</g>
<!-- Node1&#45;&gt;Node9 -->
<g id="edge8" class="edge"><title>Node1&#45;&gt;Node9</title>
<path fill="none" stroke="midnightblue" d="M260.436,-408.83C245.943,-435.347 215.833,-483.216 176,-508 167.861,-513.064 158.562,-516.789 149.141,-519.527"/>
<polygon fill="midnightblue" stroke="midnightblue" points="263.628,-410.281 265.213,-399.805 257.441,-407.006 263.628,-410.281"/>
</g>
<!-- Node10 -->
<g id="node10" class="node"><title>Node10</title>
<g id="a_node10"><a xlink:href="class_t_m_c2208_stepper.html#a89a72c922d6c93ea811048401dcf2be0" target="_top" xlink:title=" ">
<polygon fill="white" stroke="black" points="29,-468 29,-498 147,-498 147,-468 29,-468"/>
<text text-anchor="start" x="37" y="-486" font-family="Helvetica,sans-Serif" font-size="10.00">TMC2208Stepper::pwm</text>
<text text-anchor="middle" x="88" y="-475" font-family="Helvetica,sans-Serif" font-size="10.00">_autograd</text>
</a>
</g>
</g>
<!-- Node1&#45;&gt;Node10 -->
<g id="edge9" class="edge"><title>Node1&#45;&gt;Node10</title>
<path fill="none" stroke="midnightblue" d="M251.624,-406.679C233.575,-422.252 204.651,-445.118 176,-459 166.976,-463.372 157.026,-467.059 147.178,-470.129"/>
<polygon fill="midnightblue" stroke="midnightblue" points="254.368,-408.926 259.562,-399.692 249.743,-403.672 254.368,-408.926"/>
</g>
<!-- Node11 -->
<g id="node11" class="node"><title>Node11</title>
<g id="a_node11"><a xlink:href="class_t_m_c2208_stepper.html#a8f8ab7ad3cddd1aac505dd326ad5ee27" target="_top" xlink:title=" ">
<polygon fill="white" stroke="black" points="29,-419 29,-449 147,-449 147,-419 29,-419"/>
<text text-anchor="start" x="37" y="-437" font-family="Helvetica,sans-Serif" font-size="10.00">TMC2208Stepper::pwm</text>
<text text-anchor="middle" x="88" y="-426" font-family="Helvetica,sans-Serif" font-size="10.00">_autoscale</text>
</a>
</g>
</g>
<!-- Node1&#45;&gt;Node11 -->
<g id="edge10" class="edge"><title>Node1&#45;&gt;Node11</title>
<path fill="none" stroke="midnightblue" d="M220.932,-401.928C198.154,-407.465 170.909,-414.088 147.108,-419.874"/>
<polygon fill="midnightblue" stroke="midnightblue" points="221.835,-405.311 230.726,-399.547 220.182,-398.509 221.835,-405.311"/>
</g>
<!-- Node12 -->
<g id="node12" class="node"><title>Node12</title>
<g id="a_node12"><a xlink:href="class_t_m_c2208_stepper.html#a1ec2cc2c0d54fb407165ffc8bc3ccbdf" target="_top" xlink:title=" ">
<polygon fill="white" stroke="black" points="18.5,-380.5 18.5,-399.5 157.5,-399.5 157.5,-380.5 18.5,-380.5"/>
<text text-anchor="middle" x="88" y="-387.5" font-family="Helvetica,sans-Serif" font-size="10.00">TMC2208Stepper::pwm_freq</text>
</a>
</g>
</g>
<!-- Node1&#45;&gt;Node12 -->
<g id="edge11" class="edge"><title>Node1&#45;&gt;Node12</title>
<path fill="none" stroke="midnightblue" d="M201.438,-390C187.078,-390 171.933,-390 157.571,-390"/>
<polygon fill="midnightblue" stroke="midnightblue" points="201.734,-393.5 211.734,-390 201.734,-386.5 201.734,-393.5"/>
</g>
<!-- Node13 -->
<g id="node13" class="node"><title>Node13</title>
<g id="a_node13"><a xlink:href="class_t_m_c2208_stepper.html#aabee9e304eb30077f53220822839f7c1" target="_top" xlink:title=" ">
<polygon fill="white" stroke="black" points="17,-342.5 17,-361.5 159,-361.5 159,-342.5 17,-342.5"/>
<text text-anchor="middle" x="88" y="-349.5" font-family="Helvetica,sans-Serif" font-size="10.00">TMC2208Stepper::pwm_grad</text>
</a>
</g>
</g>
<!-- Node1&#45;&gt;Node13 -->
<g id="edge12" class="edge"><title>Node1&#45;&gt;Node13</title>
<path fill="none" stroke="midnightblue" d="M214.362,-378.319C188.693,-372.93 158.609,-366.614 134.346,-361.52"/>
<polygon fill="midnightblue" stroke="midnightblue" points="213.82,-381.782 224.326,-380.411 215.259,-374.931 213.82,-381.782"/>
</g>
<!-- Node14 -->
<g id="node14" class="node"><title>Node14</title>
<g id="a_node14"><a xlink:href="class_t_m_c2208_stepper.html#a130292409335270115a35839e39ddd1e" target="_top" xlink:title=" ">
<polygon fill="white" stroke="black" points="20,-304.5 20,-323.5 156,-323.5 156,-304.5 20,-304.5"/>
<text text-anchor="middle" x="88" y="-311.5" font-family="Helvetica,sans-Serif" font-size="10.00">TMC2208Stepper::pwm_lim</text>
</a>
</g>
</g>
<!-- Node1&#45;&gt;Node14 -->
<g id="edge13" class="edge"><title>Node1&#45;&gt;Node14</title>
<path fill="none" stroke="midnightblue" d="M249.129,-374.559C230.75,-361.661 202.807,-343.709 176,-333 166.524,-329.215 156.152,-326.118 145.975,-323.607"/>
<polygon fill="midnightblue" stroke="midnightblue" points="247.167,-377.458 257.337,-380.43 251.241,-371.765 247.167,-377.458"/>
</g>
<!-- Node15 -->
<g id="node15" class="node"><title>Node15</title>
<g id="a_node15"><a xlink:href="class_t_m_c2208_stepper.html#a590f9f3dd5c41f135492a88044a4b24f" target="_top" xlink:title=" ">
<polygon fill="white" stroke="black" points="20,-266.5 20,-285.5 156,-285.5 156,-266.5 20,-266.5"/>
<text text-anchor="middle" x="88" y="-273.5" font-family="Helvetica,sans-Serif" font-size="10.00">TMC2208Stepper::pwm_ofs</text>
</a>
</g>
</g>
<!-- Node1&#45;&gt;Node15 -->
<g id="edge14" class="edge"><title>Node1&#45;&gt;Node15</title>
<path fill="none" stroke="midnightblue" d="M257.433,-372.05C241.204,-350.295 210.866,-314.177 176,-295 168.956,-291.126 161.184,-288.041 153.27,-285.586"/>
<polygon fill="midnightblue" stroke="midnightblue" points="254.789,-374.366 263.496,-380.402 260.454,-370.254 254.789,-374.366"/>
</g>
<!-- Node16 -->
<g id="node16" class="node"><title>Node16</title>
<g id="a_node16"><a xlink:href="class_t_m_c2208_stepper.html#a675e8100c482de74a88a47de4894720d" target="_top" xlink:title=" ">
<polygon fill="white" stroke="black" points="19.5,-228.5 19.5,-247.5 156.5,-247.5 156.5,-228.5 19.5,-228.5"/>
<text text-anchor="middle" x="88" y="-235.5" font-family="Helvetica,sans-Serif" font-size="10.00">TMC2208Stepper::pwm_reg</text>
</a>
</g>
</g>
<!-- Node1&#45;&gt;Node16 -->
<g id="edge15" class="edge"><title>Node1&#45;&gt;Node16</title>
<path fill="none" stroke="midnightblue" d="M262.052,-370.922C248.783,-341.551 219.242,-285.658 176,-257 170.072,-253.071 163.465,-249.941 156.615,-247.449"/>
<polygon fill="midnightblue" stroke="midnightblue" points="258.997,-372.673 266.2,-380.444 265.415,-369.878 258.997,-372.673"/>
</g>
<!-- Node17 -->
<g id="node17" class="node"><title>Node17</title>
<g id="a_node17"><a xlink:href="class_t_m_c2208_stepper.html#a65df7ae90b9d77626cad8f4529aab83a" target="_top" xlink:title=" ">
<polygon fill="white" stroke="black" points="13.5,-190.5 13.5,-209.5 162.5,-209.5 162.5,-190.5 13.5,-190.5"/>
<text text-anchor="middle" x="88" y="-197.5" font-family="Helvetica,sans-Serif" font-size="10.00">TMC2208Stepper::PWMCONF</text>
</a>
</g>
</g>
<!-- Node1&#45;&gt;Node17 -->
<g id="edge16" class="edge"><title>Node1&#45;&gt;Node17</title>
<path fill="none" stroke="midnightblue" d="M265.103,-370.65C254.965,-334.751 228.144,-257.953 176,-219 170.922,-215.206 165.239,-212.141 159.275,-209.667"/>
<polygon fill="midnightblue" stroke="midnightblue" points="261.746,-371.644 267.723,-380.391 268.505,-369.825 261.746,-371.644"/>
</g>
<!-- Node18 -->
<g id="node18" class="node"><title>Node18</title>
<g id="a_node18"><a xlink:href="class_t_m_c2208_stepper.html#a8d1b1743b63ef0ab21a82da2acd5c465" target="_top" xlink:title=" ">
<polygon fill="white" stroke="black" points="17,-152.5 17,-171.5 159,-171.5 159,-152.5 17,-152.5"/>
<text text-anchor="middle" x="88" y="-159.5" font-family="Helvetica,sans-Serif" font-size="10.00">TMC2208Stepper::senddelay</text>
</a>
</g>
</g>
<!-- Node1&#45;&gt;Node18 -->
<g id="edge17" class="edge"><title>Node1&#45;&gt;Node18</title>
<path fill="none" stroke="midnightblue" d="M267.116,-370.23C259.919,-328.375 237.132,-230.595 176,-181 170.957,-176.909 165.228,-173.649 159.172,-171.058"/>
<polygon fill="midnightblue" stroke="midnightblue" points="263.684,-370.931 268.72,-380.252 270.596,-369.825 263.684,-370.931"/>
</g>
<!-- Node19 -->
<g id="node19" class="node"><title>Node19</title>
<g id="a_node19"><a xlink:href="class_t_m_c2209_stepper.html#ac02a95cfd0f560a2705136717f50d957" target="_top" xlink:title=" ">
<polygon fill="white" stroke="black" points="19.5,-114.5 19.5,-133.5 156.5,-133.5 156.5,-114.5 19.5,-114.5"/>
<text text-anchor="middle" x="88" y="-121.5" font-family="Helvetica,sans-Serif" font-size="10.00">TMC2209Stepper::SGTHRS</text>
</a>
</g>
</g>
<!-- Node1&#45;&gt;Node19 -->
<g id="edge18" class="edge"><title>Node1&#45;&gt;Node19</title>
<path fill="none" stroke="midnightblue" d="M268.641,-370.287C264.289,-323.225 246.492,-203.723 176,-143 170.378,-138.157 163.805,-134.462 156.836,-131.655"/>
<polygon fill="midnightblue" stroke="midnightblue" points="265.163,-370.695 269.466,-380.377 272.14,-370.125 265.163,-370.695"/>
</g>
<!-- Node20 -->
<g id="node20" class="node"><title>Node20</title>
<g id="a_node20"><a xlink:href="class_t_m_c2208_stepper.html#a62c4c6100151acdbae6de579009b9f0d" target="_top" xlink:title=" ">
<polygon fill="white" stroke="black" points="9.5,-76.5 9.5,-95.5 166.5,-95.5 166.5,-76.5 9.5,-76.5"/>
<text text-anchor="middle" x="88" y="-83.5" font-family="Helvetica,sans-Serif" font-size="10.00">TMC2208Stepper::SLAVECONF</text>
</a>
</g>
</g>
<!-- Node1&#45;&gt;Node20 -->
<g id="edge19" class="edge"><title>Node1&#45;&gt;Node20</title>
<path fill="none" stroke="midnightblue" d="M269.776,-370.151C268.054,-318.149 255.87,-176.998 176,-105 171.751,-101.17 166.913,-98.0502 161.745,-95.5153"/>
<polygon fill="midnightblue" stroke="midnightblue" points="266.282,-370.436 270.012,-380.352 273.28,-370.274 266.282,-370.436"/>
</g>
<!-- Node21 -->
<g id="node21" class="node"><title>Node21</title>
<g id="a_node21"><a xlink:href="class_t_m_c2209_stepper.html#acc61f21e6584dc64bd9bd025fd7bc29a" target="_top" xlink:title=" ">
<polygon fill="white" stroke="black" points="10.5,-38.5 10.5,-57.5 165.5,-57.5 165.5,-38.5 10.5,-38.5"/>
<text text-anchor="middle" x="88" y="-45.5" font-family="Helvetica,sans-Serif" font-size="10.00">TMC2209Stepper::TCOOLTHRS</text>
</a>
</g>
</g>
<!-- Node1&#45;&gt;Node21 -->
<g id="edge20" class="edge"><title>Node1&#45;&gt;Node21</title>
<path fill="none" stroke="midnightblue" d="M270.672,-370.218C271.44,-313.755 265.443,-150.543 176,-67 171.933,-63.2009 167.289,-60.0946 162.311,-57.5613"/>
<polygon fill="midnightblue" stroke="midnightblue" points="267.171,-370.23 270.442,-380.307 274.169,-370.389 267.171,-370.23"/>
</g>
<!-- Node22 -->
<g id="node22" class="node"><title>Node22</title>
<g id="a_node22"><a xlink:href="class_t_m_c2208_stepper.html#a9e9792fafdbbf0681daf613b2a5f507a" target="_top" xlink:title=" ">
<polygon fill="white" stroke="black" points="17,-0.5 17,-19.5 159,-19.5 159,-0.5 17,-0.5"/>
<text text-anchor="middle" x="88" y="-7.5" font-family="Helvetica,sans-Serif" font-size="10.00">TMC2208Stepper::VACTUAL</text>
</a>
</g>
</g>
<!-- Node1&#45;&gt;Node22 -->
<g id="edge21" class="edge"><title>Node1&#45;&gt;Node22</title>
<path fill="none" stroke="midnightblue" d="M267.527,-369.867C258.681,-301.155 226.432,-77.4673 176,-29 171.095,-24.2864 165.307,-20.6318 159.083,-17.8114"/>
<polygon fill="midnightblue" stroke="midnightblue" points="264.102,-370.689 268.826,-380.173 271.047,-369.813 264.102,-370.689"/>
</g>
</g>
</svg>
        <g id="navigator" transform="translate(0 0)" fill="#404254">
                <rect fill="#f2f5e9" fill-opacity="0.5" stroke="#606060" stroke-width=".5" x="0" y="0" width="60" height="60"/>
                <use id="zoomplus" xlink:href="#zoomPlus" x="17" y="9" onmousedown="handleZoom(evt,'in')"/>
                <use id="zoomminus" xlink:href="#zoomMin" x="42" y="9" onmousedown="handleZoom(evt,'out')"/>
                <use id="reset" xlink:href="#resetDef" x="30" y="36" onmousedown="handleReset()"/>
                <g id="arrowUp" xlink:href="#dirArrow" transform="translate(30 24)" onmousedown="handlePan(0,-1)">
                  <use xlink:href="#rim" fill="#404040">
                        <set attributeName="fill" to="#808080" begin="arrowUp.mouseover" end="arrowUp.mouseout"/>
                  </use>
                  <path fill="none" stroke="white" stroke-width="1.5" d="M0,-3.0v7 M-2.5,-0.5L0,-3.0L2.5,-0.5"/>
                </g>
                <g id="arrowRight" xlink:href="#dirArrow" transform="rotate(90) translate(36 -43)" onmousedown="handlePan(1,0)">
                  <use xlink:href="#rim" fill="#404040">
                        <set attributeName="fill" to="#808080" begin="arrowRight.mouseover" end="arrowRight.mouseout"/>
                  </use>
                  <path fill="none" stroke="white" stroke-width="1.5" d="M0,-3.0v7 M-2.5,-0.5L0,-3.0L2.5,-0.5"/>
                </g>
                <g id="arrowDown" xlink:href="#dirArrow" transform="rotate(180) translate(-30 -48)" onmousedown="handlePan(0,1)">
                  <use xlink:href="#rim" fill="#404040">
                        <set attributeName="fill" to="#808080" begin="arrowDown.mouseover" end="arrowDown.mouseout"/>
                  </use>
                  <path fill="none" stroke="white" stroke-width="1.5" d="M0,-3.0v7 M-2.5,-0.5L0,-3.0L2.5,-0.5"/>
                </g>
                <g id="arrowLeft" xlink:href="#dirArrow" transform="rotate(270) translate(-36 17)" onmousedown="handlePan(-1,0)">
                  <use xlink:href="#rim" fill="#404040">
                        <set attributeName="fill" to="#808080" begin="arrowLeft.mouseover" end="arrowLeft.mouseout"/>
                  </use>
                  <path fill="none" stroke="white" stroke-width="1.5" d="M0,-3.0v7 M-2.5,-0.5L0,-3.0L2.5,-0.5"/>
                </g>
        </g>
        <svg viewBox="0 0 15 15" width="100%" height="30px" preserveAspectRatio="xMaxYMin meet">
         <g id="arrow_out" transform="scale(0.3 0.3)">
          <a xlink:href="class_t_m_c2208_stepper_a142b14de8a4dcc6cf76b4a6ede9e1cea_icgraph_org.svg" target="_base">
           <rect id="button" ry="5" rx="5" y="6" x="6" height="38" width="38"
                fill="#f2f5e9" fill-opacity="0.5" stroke="#606060" stroke-width="1.0"/>
           <path id="arrow"
             d="M 11.500037,31.436501 C 11.940474,20.09759 22.043105,11.32322 32.158766,21.979434 L 37.068811,17.246167 C 37.068811,17.246167 37.088388,32 37.088388,32 L 22.160133,31.978069 C 22.160133,31.978069 26.997745,27.140456 26.997745,27.140456 C 18.528582,18.264221 13.291696,25.230495 11.500037,31.436501 z"
             style="fill:#404040;"/>
          </a>
         </g>
        </svg>
</svg>
