<?xml version="1.0" encoding="UTF-8" standalone="no"?>
<!DOCTYPE svg PUBLIC "-//W3C//DTD SVG 1.1//EN"
 "http://www.w3.org/Graphics/SVG/1.1/DTD/svg11.dtd">
<!-- Generated by graphviz version 2.38.0 (20140413.2041)
 -->
<!-- Title: TMC2208Stepper::push Pages: 1 -->
<svg width="1007pt" height="338pt"
 viewBox="0.00 0.00 1007.00 338.00" xmlns="http://www.w3.org/2000/svg" xmlns:xlink="http://www.w3.org/1999/xlink">
<g id="graph0" class="graph" transform="scale(1 1) rotate(0) translate(4 334)">
<title>TMC2208Stepper::push</title>
<polygon fill="white" stroke="none" points="-4,4 -4,-334 1003,-334 1003,4 -4,4"/>
<!-- Node1 -->
<g id="node1" class="node"><title>Node1</title>
<g id="a_node1"><a xlink:title=" ">
<polygon fill="#bfbfbf" stroke="black" points="0,-133.5 0,-152.5 119,-152.5 119,-133.5 0,-133.5"/>
<text text-anchor="middle" x="59.5" y="-140.5" font-family="Helvetica,sans-Serif" font-size="10.00">TMC2208Stepper::push</text>
</a>
</g>
</g>
<!-- Node2 -->
<g id="node2" class="node"><title>Node2</title>
<g id="a_node2"><a xlink:href="class_t_m_c2208_stepper.html#aa11281f54c293f3ff2539b1a583682a9" target="_top" xlink:title=" ">
<polygon fill="white" stroke="black" points="157.5,-266.5 157.5,-285.5 309.5,-285.5 309.5,-266.5 157.5,-266.5"/>
<text text-anchor="middle" x="233.5" y="-273.5" font-family="Helvetica,sans-Serif" font-size="10.00">TMC2208Stepper::CHOPCONF</text>
</a>
</g>
</g>
<!-- Node1&#45;&gt;Node2 -->
<g id="edge1" class="edge"><title>Node1&#45;&gt;Node2</title>
<path fill="none" stroke="midnightblue" d="M65.6474,-152.727C77.9266,-174.937 111.208,-229.573 155,-257 158.403,-259.131 162.029,-261.024 165.783,-262.704"/>
<polygon fill="midnightblue" stroke="midnightblue" points="164.741,-266.054 175.328,-266.458 167.303,-259.54 164.741,-266.054"/>
</g>
<!-- Node11 -->
<g id="node11" class="node"><title>Node11</title>
<g id="a_node11"><a xlink:href="class_t_m_c2208_stepper.html#a549db4f962d4ae698dda33ef9a708e33" target="_top" xlink:title=" ">
<polygon fill="white" stroke="black" points="167.5,-228.5 167.5,-247.5 299.5,-247.5 299.5,-228.5 167.5,-228.5"/>
<text text-anchor="middle" x="233.5" y="-235.5" font-family="Helvetica,sans-Serif" font-size="10.00">TMC2208Stepper::GCONF</text>
</a>
</g>
</g>
<!-- Node1&#45;&gt;Node11 -->
<g id="edge11" class="edge"><title>Node1&#45;&gt;Node11</title>
<path fill="none" stroke="midnightblue" d="M69.4492,-152.527C85.1833,-168.699 119.514,-201.468 155,-219 159.89,-221.416 165.11,-223.538 170.442,-225.4"/>
<polygon fill="midnightblue" stroke="midnightblue" points="169.522,-228.781 180.113,-228.477 171.645,-222.11 169.522,-228.781"/>
</g>
<!-- Node12 -->
<g id="node12" class="node"><title>Node12</title>
<g id="a_node12"><a xlink:href="class_t_m_c_stepper.html#a597bc308bad0d1198b98c48a6ef34fc3" target="_top" xlink:title=" ">
<polygon fill="white" stroke="black" points="167,-190.5 167,-209.5 300,-209.5 300,-190.5 167,-190.5"/>
<text text-anchor="middle" x="233.5" y="-197.5" font-family="Helvetica,sans-Serif" font-size="10.00">TMCStepper::IHOLD_IRUN</text>
</a>
</g>
</g>
<!-- Node1&#45;&gt;Node12 -->
<g id="edge13" class="edge"><title>Node1&#45;&gt;Node12</title>
<path fill="none" stroke="midnightblue" d="M81.9488,-152.642C100.897,-160.913 129.414,-172.765 155,-181 162.688,-183.474 170.893,-185.807 178.982,-187.934"/>
<polygon fill="midnightblue" stroke="midnightblue" points="178.193,-191.345 188.747,-190.423 179.921,-184.562 178.193,-191.345"/>
</g>
<!-- Node13 -->
<g id="node13" class="node"><title>Node13</title>
<g id="a_node13"><a xlink:href="class_t_m_c2208_stepper.html#a7c2e849de2f2933ba9bf8ede8dc53f53" target="_top" xlink:title=" ">
<polygon fill="white" stroke="black" points="159,-152.5 159,-171.5 308,-171.5 308,-152.5 159,-152.5"/>
<text text-anchor="middle" x="233.5" y="-159.5" font-family="Helvetica,sans-Serif" font-size="10.00">TMC2208Stepper::PWMCONF</text>
</a>
</g>
</g>
<!-- Node1&#45;&gt;Node13 -->
<g id="edge14" class="edge"><title>Node1&#45;&gt;Node13</title>
<path fill="none" stroke="midnightblue" d="M119.212,-149.486C128.773,-150.542 138.837,-151.653 148.858,-152.76"/>
<polygon fill="midnightblue" stroke="midnightblue" points="148.52,-156.244 158.844,-153.864 149.289,-149.287 148.52,-156.244"/>
</g>
<!-- Node14 -->
<g id="node14" class="node"><title>Node14</title>
<g id="a_node14"><a xlink:href="class_t_m_c2208_stepper.html#a7a0682fc7f4d103bf3ceee4cabb411bb" target="_top" xlink:title=" ">
<polygon fill="white" stroke="black" points="155,-114.5 155,-133.5 312,-133.5 312,-114.5 155,-114.5"/>
<text text-anchor="middle" x="233.5" y="-121.5" font-family="Helvetica,sans-Serif" font-size="10.00">TMC2208Stepper::SLAVECONF</text>
</a>
</g>
</g>
<!-- Node1&#45;&gt;Node14 -->
<g id="edge16" class="edge"><title>Node1&#45;&gt;Node14</title>
<path fill="none" stroke="midnightblue" d="M119.212,-136.514C127.465,-135.603 136.093,-134.65 144.745,-133.694"/>
<polygon fill="midnightblue" stroke="midnightblue" points="145.336,-137.15 154.891,-132.573 144.567,-130.192 145.336,-137.15"/>
</g>
<!-- Node15 -->
<g id="node15" class="node"><title>Node15</title>
<g id="a_node15"><a xlink:href="class_t_m_c_stepper.html#a66812c883dfbb6dedc046a011b2564be" target="_top" xlink:title=" ">
<polygon fill="white" stroke="black" points="158.5,-76.5 158.5,-95.5 308.5,-95.5 308.5,-76.5 158.5,-76.5"/>
<text text-anchor="middle" x="233.5" y="-83.5" font-family="Helvetica,sans-Serif" font-size="10.00">TMCStepper::TPOWERDOWN</text>
</a>
</g>
</g>
<!-- Node1&#45;&gt;Node15 -->
<g id="edge17" class="edge"><title>Node1&#45;&gt;Node15</title>
<path fill="none" stroke="midnightblue" d="M81.9488,-133.358C100.897,-125.087 129.414,-113.235 155,-105 162.688,-102.526 170.893,-100.193 178.982,-98.0659"/>
<polygon fill="midnightblue" stroke="midnightblue" points="179.921,-101.438 188.747,-95.5773 178.193,-94.6551 179.921,-101.438"/>
</g>
<!-- Node16 -->
<g id="node16" class="node"><title>Node16</title>
<g id="a_node16"><a xlink:href="class_t_m_c_stepper.html#ac59a9305aafc64a63698a34cac404788" target="_top" xlink:title=" ">
<polygon fill="white" stroke="black" points="167.5,-38.5 167.5,-57.5 299.5,-57.5 299.5,-38.5 167.5,-38.5"/>
<text text-anchor="middle" x="233.5" y="-45.5" font-family="Helvetica,sans-Serif" font-size="10.00">TMCStepper::TPWMTHRS</text>
</a>
</g>
</g>
<!-- Node1&#45;&gt;Node16 -->
<g id="edge18" class="edge"><title>Node1&#45;&gt;Node16</title>
<path fill="none" stroke="midnightblue" d="M69.4492,-133.473C85.1833,-117.301 119.514,-84.5317 155,-67 159.89,-64.5839 165.11,-62.4616 170.442,-60.5998"/>
<polygon fill="midnightblue" stroke="midnightblue" points="171.645,-63.89 180.113,-57.5227 169.522,-57.2194 171.645,-63.89"/>
</g>
<!-- Node17 -->
<g id="node17" class="node"><title>Node17</title>
<g id="a_node17"><a xlink:href="class_t_m_c2208_stepper.html#a28b7ebef9a1f4b04d4b3b1e5e83ff76f" target="_top" xlink:title=" ">
<polygon fill="white" stroke="black" points="162.5,-0.5 162.5,-19.5 304.5,-19.5 304.5,-0.5 162.5,-0.5"/>
<text text-anchor="middle" x="233.5" y="-7.5" font-family="Helvetica,sans-Serif" font-size="10.00">TMC2208Stepper::VACTUAL</text>
</a>
</g>
</g>
<!-- Node1&#45;&gt;Node17 -->
<g id="edge19" class="edge"><title>Node1&#45;&gt;Node17</title>
<path fill="none" stroke="midnightblue" d="M65.6474,-133.273C77.9266,-111.063 111.208,-56.4272 155,-29 158.403,-26.8687 162.029,-24.9765 165.783,-23.2965"/>
<polygon fill="midnightblue" stroke="midnightblue" points="167.303,-26.4598 175.328,-19.5424 164.741,-19.9455 167.303,-26.4598"/>
</g>
<!-- Node3 -->
<g id="node3" class="node"><title>Node3</title>
<g id="a_node3"><a xlink:href="class_t_m_c2208_stepper.html#a2fae2050849c3ab7968012def8ea1cc5" target="_top" xlink:title=" ">
<polygon fill="white" stroke="black" points="348,-228.5 348,-247.5 464,-247.5 464,-228.5 348,-228.5"/>
<text text-anchor="middle" x="406" y="-235.5" font-family="Helvetica,sans-Serif" font-size="10.00">TMC2208Stepper::read</text>
</a>
</g>
</g>
<!-- Node2&#45;&gt;Node3 -->
<g id="edge2" class="edge"><title>Node2&#45;&gt;Node3</title>
<path fill="none" stroke="midnightblue" d="M277.524,-266.411C300.226,-261.351 328.273,-255.1 352.274,-249.751"/>
<polygon fill="midnightblue" stroke="midnightblue" points="353.286,-253.112 362.285,-247.52 351.763,-246.279 353.286,-253.112"/>
</g>
<!-- Node4 -->
<g id="node4" class="node"><title>Node4</title>
<g id="a_node4"><a xlink:href="class_t_m_c2208_stepper.html#a3e1f6a10aa1e3e41dc2594dbe1ea8a1d" target="_top" xlink:title=" ">
<polygon fill="white" stroke="black" points="500,-285.5 500,-304.5 666,-304.5 666,-285.5 500,-285.5"/>
<text text-anchor="middle" x="583" y="-292.5" font-family="Helvetica,sans-Serif" font-size="10.00">TMC2208Stepper::_sendDatagram</text>
</a>
</g>
</g>
<!-- Node3&#45;&gt;Node4 -->
<g id="edge3" class="edge"><title>Node3&#45;&gt;Node4</title>
<path fill="none" stroke="midnightblue" d="M427.7,-247.578C446.317,-255.921 474.568,-267.915 500,-276 508.008,-278.546 516.555,-280.906 524.996,-283.037"/>
<polygon fill="midnightblue" stroke="midnightblue" points="524.272,-286.463 534.816,-285.429 525.929,-279.661 524.272,-286.463"/>
</g>
<!-- Node9 -->
<g id="node9" class="node"><title>Node9</title>
<g id="a_node9"><a xlink:href="class_s_switch.html#a6ff09d0850d551571dc333fb74ff8628" target="_top" xlink:title=" ">
<polygon fill="white" stroke="black" points="541.5,-247.5 541.5,-266.5 624.5,-266.5 624.5,-247.5 541.5,-247.5"/>
<text text-anchor="middle" x="583" y="-254.5" font-family="Helvetica,sans-Serif" font-size="10.00">SSwitch::active</text>
</a>
</g>
</g>
<!-- Node3&#45;&gt;Node9 -->
<g id="edge9" class="edge"><title>Node3&#45;&gt;Node9</title>
<path fill="none" stroke="midnightblue" d="M464.302,-244.221C485.975,-246.574 510.465,-249.233 531.472,-251.514"/>
<polygon fill="midnightblue" stroke="midnightblue" points="531.158,-255 541.477,-252.6 531.913,-248.041 531.158,-255"/>
</g>
<!-- Node10 -->
<g id="node10" class="node"><title>Node10</title>
<g id="a_node10"><a xlink:href="class_t_m_c2208_stepper.html#a409c19fa6b052a370a317d061bf9af4e" target="_top" xlink:title=" ">
<polygon fill="white" stroke="black" points="515,-209.5 515,-228.5 651,-228.5 651,-209.5 515,-209.5"/>
<text text-anchor="middle" x="583" y="-216.5" font-family="Helvetica,sans-Serif" font-size="10.00">TMC2208Stepper::calcCRC</text>
</a>
</g>
</g>
<!-- Node3&#45;&gt;Node10 -->
<g id="edge10" class="edge"><title>Node3&#45;&gt;Node10</title>
<path fill="none" stroke="midnightblue" d="M464.302,-231.779C477.17,-230.382 491.032,-228.877 504.567,-227.407"/>
<polygon fill="midnightblue" stroke="midnightblue" points="505.269,-230.851 514.833,-226.292 504.514,-223.892 505.269,-230.851"/>
</g>
<!-- Node5 -->
<g id="node5" class="node"><title>Node5</title>
<g id="a_node5"><a xlink:href="class_t_m_c2208_stepper.html#a4ec5d2b2f5a31259c7aba1f3208d63b8" target="_top" xlink:title=" ">
<polygon fill="white" stroke="black" points="716.5,-310.5 716.5,-329.5 832.5,-329.5 832.5,-310.5 716.5,-310.5"/>
<text text-anchor="middle" x="774.5" y="-317.5" font-family="Helvetica,sans-Serif" font-size="10.00">TMC2208Stepper::ms2</text>
</a>
</g>
</g>
<!-- Node4&#45;&gt;Node5 -->
<g id="edge4" class="edge"><title>Node4&#45;&gt;Node5</title>
<path fill="none" stroke="midnightblue" d="M656.182,-304.523C672.64,-306.694 690.062,-308.992 706.301,-311.135"/>
<polygon fill="midnightblue" stroke="midnightblue" points="705.868,-314.608 716.24,-312.446 706.784,-307.668 705.868,-314.608"/>
</g>
<!-- Node7 -->
<g id="node7" class="node"><title>Node7</title>
<g id="a_node7"><a xlink:href="class_t_m_c2208_stepper.html#ae561da4ec7c40830e97bf4dc8cf700fb" target="_top" xlink:title=" ">
<polygon fill="white" stroke="black" points="702,-272.5 702,-291.5 847,-291.5 847,-272.5 702,-272.5"/>
<text text-anchor="middle" x="774.5" y="-279.5" font-family="Helvetica,sans-Serif" font-size="10.00">TMC2208Stepper::serial_read</text>
</a>
</g>
</g>
<!-- Node4&#45;&gt;Node7 -->
<g id="edge7" class="edge"><title>Node4&#45;&gt;Node7</title>
<path fill="none" stroke="midnightblue" d="M666.015,-289.374C674.478,-288.793 683.078,-288.203 691.54,-287.623"/>
<polygon fill="midnightblue" stroke="midnightblue" points="692.038,-291.097 701.775,-286.92 691.559,-284.113 692.038,-291.097"/>
</g>
<!-- Node8 -->
<g id="node8" class="node"><title>Node8</title>
<g id="a_node8"><a xlink:href="class_t_m_c2208_stepper.html#a7dd83313385079099b0622957786a979" target="_top" xlink:title=" ">
<polygon fill="white" stroke="black" points="714,-223 714,-253 835,-253 835,-223 714,-223"/>
<text text-anchor="start" x="722" y="-241" font-family="Helvetica,sans-Serif" font-size="10.00">TMC2208Stepper::serial</text>
<text text-anchor="middle" x="774.5" y="-230" font-family="Helvetica,sans-Serif" font-size="10.00">_write</text>
</a>
</g>
</g>
<!-- Node4&#45;&gt;Node8 -->
<g id="edge8" class="edge"><title>Node4&#45;&gt;Node8</title>
<path fill="none" stroke="midnightblue" d="M629.793,-285.402C641.658,-282.64 654.367,-279.435 666,-276 682.315,-271.183 685.971,-268.696 702,-263 708.017,-260.862 714.325,-258.635 720.595,-256.43"/>
<polygon fill="midnightblue" stroke="midnightblue" points="722.095,-259.613 730.372,-253 719.778,-253.008 722.095,-259.613"/>
</g>
<!-- Node6 -->
<g id="node6" class="node"><title>Node6</title>
<g id="a_node6"><a xlink:href="class_t_m_c2208_stepper.html#a5441dd87d0bcea4ffc309cb012166a57" target="_top" xlink:title=" ">
<polygon fill="white" stroke="black" points="883,-240.5 883,-259.5 999,-259.5 999,-240.5 883,-240.5"/>
<text text-anchor="middle" x="941" y="-247.5" font-family="Helvetica,sans-Serif" font-size="10.00">TMC2208Stepper::IOIN</text>
</a>
</g>
</g>
<!-- Node5&#45;&gt;Node6 -->
<g id="edge5" class="edge"><title>Node5&#45;&gt;Node6</title>
<path fill="none" stroke="midnightblue" d="M818.395,-310.408C827.954,-307.775 837.937,-304.627 847,-301 871.717,-291.109 898.177,-276.124 916.529,-264.953"/>
<polygon fill="midnightblue" stroke="midnightblue" points="918.423,-267.897 925.088,-259.661 914.742,-261.943 918.423,-267.897"/>
</g>
<!-- Node6&#45;&gt;Node3 -->
<g id="edge6" class="edge"><title>Node6&#45;&gt;Node3</title>
<path fill="none" stroke="midnightblue" d="M920.215,-240.385C901.743,-231.886 873.17,-219.942 847,-214 696.483,-179.825 651.454,-170.252 500,-200 476.751,-204.567 451.989,-214.987 433.866,-223.762"/>
<polygon fill="midnightblue" stroke="midnightblue" points="431.917,-220.823 424.532,-228.421 435.043,-227.087 431.917,-220.823"/>
</g>
<!-- Node11&#45;&gt;Node3 -->
<g id="edge12" class="edge"><title>Node11&#45;&gt;Node3</title>
<path fill="none" stroke="midnightblue" d="M299.932,-238C312.258,-238 325.169,-238 337.555,-238"/>
<polygon fill="midnightblue" stroke="midnightblue" points="337.811,-241.5 347.811,-238 337.811,-234.5 337.811,-241.5"/>
</g>
<!-- Node13&#45;&gt;Node3 -->
<g id="edge15" class="edge"><title>Node13&#45;&gt;Node3</title>
<path fill="none" stroke="midnightblue" d="M283.611,-171.604C293.2,-174.155 303.05,-177.267 312,-181 338.285,-191.963 365.783,-209.717 383.997,-222.499"/>
<polygon fill="midnightblue" stroke="midnightblue" points="381.976,-225.356 392.147,-228.323 386.046,-219.661 381.976,-225.356"/>
</g>
</g>
</svg>
