<?xml version="1.0" encoding="UTF-8" standalone="no"?>
<!DOCTYPE svg PUBLIC "-//W3C//DTD SVG 1.1//EN"
 "http://www.w3.org/Graphics/SVG/1.1/DTD/svg11.dtd">
<!-- Generated by graphviz version 2.38.0 (20140413.2041)
 -->
<!-- Title: TMC2208Stepper::SLAVECONF Pages: 1 -->
<svg width="320pt" height="66pt"
 viewBox="0.00 0.00 320.00 66.00" xmlns="http://www.w3.org/2000/svg" xmlns:xlink="http://www.w3.org/1999/xlink">
<g id="graph0" class="graph" transform="scale(1 1) rotate(0) translate(4 62)">
<title>TMC2208Stepper::SLAVECONF</title>
<polygon fill="white" stroke="none" points="-4,4 -4,-62 316,-62 316,4 -4,4"/>
<!-- Node1 -->
<g id="node1" class="node"><title>Node1</title>
<g id="a_node1"><a xlink:title=" ">
<polygon fill="#bfbfbf" stroke="black" points="155,-19.5 155,-38.5 312,-38.5 312,-19.5 155,-19.5"/>
<text text-anchor="middle" x="233.5" y="-26.5" font-family="Helvetica,sans-Serif" font-size="10.00">TMC2208Stepper::SLAVECONF</text>
</a>
</g>
</g>
<!-- Node2 -->
<g id="node2" class="node"><title>Node2</title>
<g id="a_node2"><a xlink:href="class_t_m_c2208_stepper.html#a8eb0d71fbfeeb24c9092328c44fab7e5" target="_top" xlink:title=" ">
<polygon fill="white" stroke="black" points="0,-38.5 0,-57.5 119,-57.5 119,-38.5 0,-38.5"/>
<text text-anchor="middle" x="59.5" y="-45.5" font-family="Helvetica,sans-Serif" font-size="10.00">TMC2208Stepper::push</text>
</a>
</g>
</g>
<!-- Node1&#45;&gt;Node2 -->
<g id="edge1" class="edge"><title>Node1&#45;&gt;Node2</title>
<path fill="none" stroke="midnightblue" d="M144.632,-38.7064C135.959,-39.6644 127.312,-40.6196 119.043,-41.533"/>
<polygon fill="midnightblue" stroke="midnightblue" points="145.248,-42.1597 154.803,-37.5828 144.479,-35.202 145.248,-42.1597"/>
</g>
<!-- Node3 -->
<g id="node3" class="node"><title>Node3</title>
<g id="a_node3"><a xlink:href="class_t_m_c2209_stepper.html#a180f4b9a78e526592d946ec12f71982e" target="_top" xlink:title=" ">
<polygon fill="white" stroke="black" points="0,-0.5 0,-19.5 119,-19.5 119,-0.5 0,-0.5"/>
<text text-anchor="middle" x="59.5" y="-7.5" font-family="Helvetica,sans-Serif" font-size="10.00">TMC2209Stepper::push</text>
</a>
</g>
</g>
<!-- Node1&#45;&gt;Node3 -->
<g id="edge2" class="edge"><title>Node1&#45;&gt;Node3</title>
<path fill="none" stroke="midnightblue" d="M144.632,-19.2936C135.959,-18.3356 127.312,-17.3804 119.043,-16.467"/>
<polygon fill="midnightblue" stroke="midnightblue" points="144.479,-22.798 154.803,-20.4172 145.248,-15.8403 144.479,-22.798"/>
</g>
</g>
</svg>
