<?xml version="1.0" encoding="UTF-8" standalone="no"?>
<!DOCTYPE svg PUBLIC "-//W3C//DTD SVG 1.1//EN"
 "http://www.w3.org/Graphics/SVG/1.1/DTD/svg11.dtd">
<!-- Generated by graphviz version 2.38.0 (20140413.2041)
 -->
<!-- Title: TMC2208Stepper::PWM_AUTO Pages: 1 -->
<svg width="316pt" height="88pt"
 viewBox="0.00 0.00 316.00 88.00" xmlns="http://www.w3.org/2000/svg" xmlns:xlink="http://www.w3.org/1999/xlink">
<g id="graph0" class="graph" transform="scale(1 1) rotate(0) translate(4 84)">
<title>TMC2208Stepper::PWM_AUTO</title>
<polygon fill="white" stroke="none" points="-4,4 -4,-84 312,-84 312,4 -4,4"/>
<!-- Node1 -->
<g id="node1" class="node"><title>Node1</title>
<g id="a_node1"><a xlink:title=" ">
<polygon fill="#bfbfbf" stroke="black" points="154,-30 154,-49 308,-49 308,-30 154,-30"/>
<text text-anchor="middle" x="231" y="-37" font-family="Helvetica,sans-Serif" font-size="10.00">TMC2208Stepper::PWM_AUTO</text>
</a>
</g>
</g>
<!-- Node2 -->
<g id="node2" class="node"><title>Node2</title>
<g id="a_node2"><a xlink:href="class_t_m_c2208_stepper.html#a2940a4fc578d24624d835ac1664aeef3" target="_top" xlink:title=" ">
<polygon fill="white" stroke="black" points="0,-49.5 0,-79.5 118,-79.5 118,-49.5 0,-49.5"/>
<text text-anchor="start" x="8" y="-67.5" font-family="Helvetica,sans-Serif" font-size="10.00">TMC2208Stepper::pwm</text>
<text text-anchor="middle" x="59" y="-56.5" font-family="Helvetica,sans-Serif" font-size="10.00">_grad_auto</text>
</a>
</g>
</g>
<!-- Node1&#45;&gt;Node2 -->
<g id="edge1" class="edge"><title>Node1&#45;&gt;Node2</title>
<path fill="none" stroke="midnightblue" d="M155.342,-50.4791C142.887,-52.3108 130.131,-54.1867 118.165,-55.9463"/>
<polygon fill="midnightblue" stroke="midnightblue" points="155.861,-53.9405 165.245,-49.0227 154.842,-47.015 155.861,-53.9405"/>
</g>
<!-- Node3 -->
<g id="node3" class="node"><title>Node3</title>
<g id="a_node3"><a xlink:href="class_t_m_c2208_stepper.html#af24b684f8072b9e5b064f093d266257e" target="_top" xlink:title=" ">
<polygon fill="white" stroke="black" points="0,-0.5 0,-30.5 118,-30.5 118,-0.5 0,-0.5"/>
<text text-anchor="start" x="8" y="-18.5" font-family="Helvetica,sans-Serif" font-size="10.00">TMC2208Stepper::pwm</text>
<text text-anchor="middle" x="59" y="-7.5" font-family="Helvetica,sans-Serif" font-size="10.00">_ofs_auto</text>
</a>
</g>
</g>
<!-- Node1&#45;&gt;Node3 -->
<g id="edge2" class="edge"><title>Node1&#45;&gt;Node3</title>
<path fill="none" stroke="midnightblue" d="M152.291,-28.5293C140.798,-26.9067 129.126,-25.2589 118.124,-23.7057"/>
<polygon fill="midnightblue" stroke="midnightblue" points="151.932,-32.0133 162.323,-29.9456 152.911,-25.082 151.932,-32.0133"/>
</g>
</g>
</svg>
