<?xml version="1.0" encoding="UTF-8" standalone="no"?>
<!DOCTYPE svg PUBLIC "-//W3C//DTD SVG 1.1//EN"
 "http://www.w3.org/Graphics/SVG/1.1/DTD/svg11.dtd">
<!-- Generated by graphviz version 2.38.0 (20140413.2041)
 -->
<!-- Title: TMC2208Stepper::mres Pages: 1 -->
<svg width="1157pt" height="156pt"
 viewBox="0.00 0.00 1157.00 156.41" xmlns="http://www.w3.org/2000/svg" xmlns:xlink="http://www.w3.org/1999/xlink">
<g id="graph0" class="graph" transform="scale(1 1) rotate(0) translate(4 152.405)">
<title>TMC2208Stepper::mres</title>
<polygon fill="white" stroke="none" points="-4,4 -4,-152.405 1153,-152.405 1153,4 -4,4"/>
<!-- Node1 -->
<g id="node1" class="node"><title>Node1</title>
<g id="a_node1"><a xlink:title=" ">
<polygon fill="#bfbfbf" stroke="black" points="0,-46.9052 0,-65.9052 119,-65.9052 119,-46.9052 0,-46.9052"/>
<text text-anchor="middle" x="59.5" y="-53.9052" font-family="Helvetica,sans-Serif" font-size="10.00">TMC2208Stepper::mres</text>
</a>
</g>
</g>
<!-- Node2 -->
<g id="node2" class="node"><title>Node2</title>
<g id="a_node2"><a xlink:href="class_t_m_c2208_stepper.html#a445b61c23afadb9bd48c3f4d9ef9125e" target="_top" xlink:title=" ">
<polygon fill="white" stroke="black" points="155,-46.9052 155,-65.9052 274,-65.9052 274,-46.9052 155,-46.9052"/>
<text text-anchor="middle" x="214.5" y="-53.9052" font-family="Helvetica,sans-Serif" font-size="10.00">TMC2208Stepper::mres</text>
</a>
</g>
</g>
<!-- Node1&#45;&gt;Node2 -->
<g id="edge1" class="edge"><title>Node1&#45;&gt;Node2</title>
<path fill="none" stroke="midnightblue" d="M119.216,-56.4052C127.544,-56.4052 136.169,-56.4052 144.667,-56.4052"/>
<polygon fill="midnightblue" stroke="midnightblue" points="144.941,-59.9053 154.941,-56.4052 144.941,-52.9053 144.941,-59.9053"/>
</g>
<!-- Node3 -->
<g id="node3" class="node"><title>Node3</title>
<g id="a_node3"><a xlink:href="class_t_m_c2208_stepper.html#aa11281f54c293f3ff2539b1a583682a9" target="_top" xlink:title=" ">
<polygon fill="white" stroke="black" points="310,-46.9052 310,-65.9052 462,-65.9052 462,-46.9052 310,-46.9052"/>
<text text-anchor="middle" x="386" y="-53.9052" font-family="Helvetica,sans-Serif" font-size="10.00">TMC2208Stepper::CHOPCONF</text>
</a>
</g>
</g>
<!-- Node2&#45;&gt;Node3 -->
<g id="edge2" class="edge"><title>Node2&#45;&gt;Node3</title>
<path fill="none" stroke="midnightblue" d="M274.307,-56.4052C282.554,-56.4052 291.164,-56.4052 299.78,-56.4052"/>
<polygon fill="midnightblue" stroke="midnightblue" points="299.876,-59.9053 309.876,-56.4052 299.876,-52.9053 299.876,-59.9053"/>
</g>
<!-- Node4 -->
<g id="node4" class="node"><title>Node4</title>
<g id="a_node4"><a xlink:href="class_t_m_c2208_stepper.html#a2fae2050849c3ab7968012def8ea1cc5" target="_top" xlink:title=" ">
<polygon fill="white" stroke="black" points="498,-46.9052 498,-65.9052 614,-65.9052 614,-46.9052 498,-46.9052"/>
<text text-anchor="middle" x="556" y="-53.9052" font-family="Helvetica,sans-Serif" font-size="10.00">TMC2208Stepper::read</text>
</a>
</g>
</g>
<!-- Node3&#45;&gt;Node4 -->
<g id="edge3" class="edge"><title>Node3&#45;&gt;Node4</title>
<path fill="none" stroke="midnightblue" d="M462.155,-56.4052C470.664,-56.4052 479.296,-56.4052 487.696,-56.4052"/>
<polygon fill="midnightblue" stroke="midnightblue" points="487.802,-59.9053 497.802,-56.4052 487.802,-52.9053 487.802,-59.9053"/>
</g>
<!-- Node5 -->
<g id="node5" class="node"><title>Node5</title>
<g id="a_node5"><a xlink:href="class_t_m_c2208_stepper.html#a3e1f6a10aa1e3e41dc2594dbe1ea8a1d" target="_top" xlink:title=" ">
<polygon fill="white" stroke="black" points="650,-103.905 650,-122.905 816,-122.905 816,-103.905 650,-103.905"/>
<text text-anchor="middle" x="733" y="-110.905" font-family="Helvetica,sans-Serif" font-size="10.00">TMC2208Stepper::_sendDatagram</text>
</a>
</g>
</g>
<!-- Node4&#45;&gt;Node5 -->
<g id="edge4" class="edge"><title>Node4&#45;&gt;Node5</title>
<path fill="none" stroke="midnightblue" d="M577.7,-65.9833C596.317,-74.3262 624.568,-86.3205 650,-94.4052 658.008,-96.9508 666.555,-99.3114 674.996,-101.442"/>
<polygon fill="midnightblue" stroke="midnightblue" points="674.272,-104.868 684.816,-103.834 675.929,-98.0666 674.272,-104.868"/>
</g>
<!-- Node10 -->
<g id="node10" class="node"><title>Node10</title>
<g id="a_node10"><a xlink:href="class_s_switch.html#a6ff09d0850d551571dc333fb74ff8628" target="_top" xlink:title=" ">
<polygon fill="white" stroke="black" points="691.5,-65.9052 691.5,-84.9052 774.5,-84.9052 774.5,-65.9052 691.5,-65.9052"/>
<text text-anchor="middle" x="733" y="-72.9052" font-family="Helvetica,sans-Serif" font-size="10.00">SSwitch::active</text>
</a>
</g>
</g>
<!-- Node4&#45;&gt;Node10 -->
<g id="edge10" class="edge"><title>Node4&#45;&gt;Node10</title>
<path fill="none" stroke="midnightblue" d="M614.302,-62.6265C635.975,-64.9796 660.465,-67.6385 681.472,-69.9193"/>
<polygon fill="midnightblue" stroke="midnightblue" points="681.158,-73.4056 691.477,-71.0055 681.913,-66.4465 681.158,-73.4056"/>
</g>
<!-- Node11 -->
<g id="node11" class="node"><title>Node11</title>
<g id="a_node11"><a xlink:href="class_t_m_c2208_stepper.html#a409c19fa6b052a370a317d061bf9af4e" target="_top" xlink:title=" ">
<polygon fill="white" stroke="black" points="665,-27.9052 665,-46.9052 801,-46.9052 801,-27.9052 665,-27.9052"/>
<text text-anchor="middle" x="733" y="-34.9052" font-family="Helvetica,sans-Serif" font-size="10.00">TMC2208Stepper::calcCRC</text>
</a>
</g>
</g>
<!-- Node4&#45;&gt;Node11 -->
<g id="edge11" class="edge"><title>Node4&#45;&gt;Node11</title>
<path fill="none" stroke="midnightblue" d="M614.302,-50.1839C627.17,-48.7867 641.032,-47.2817 654.567,-45.8121"/>
<polygon fill="midnightblue" stroke="midnightblue" points="655.269,-49.2566 664.833,-44.6976 654.514,-42.2975 655.269,-49.2566"/>
</g>
<!-- Node6 -->
<g id="node6" class="node"><title>Node6</title>
<g id="a_node6"><a xlink:href="class_t_m_c2208_stepper.html#a4ec5d2b2f5a31259c7aba1f3208d63b8" target="_top" xlink:title=" ">
<polygon fill="white" stroke="black" points="866.5,-128.905 866.5,-147.905 982.5,-147.905 982.5,-128.905 866.5,-128.905"/>
<text text-anchor="middle" x="924.5" y="-135.905" font-family="Helvetica,sans-Serif" font-size="10.00">TMC2208Stepper::ms2</text>
</a>
</g>
</g>
<!-- Node5&#45;&gt;Node6 -->
<g id="edge5" class="edge"><title>Node5&#45;&gt;Node6</title>
<path fill="none" stroke="midnightblue" d="M806.182,-122.928C822.64,-125.099 840.062,-127.397 856.301,-129.54"/>
<polygon fill="midnightblue" stroke="midnightblue" points="855.868,-133.013 866.24,-130.851 856.784,-126.073 855.868,-133.013"/>
</g>
<!-- Node8 -->
<g id="node8" class="node"><title>Node8</title>
<g id="a_node8"><a xlink:href="class_t_m_c2208_stepper.html#ae561da4ec7c40830e97bf4dc8cf700fb" target="_top" xlink:title=" ">
<polygon fill="white" stroke="black" points="852,-90.9052 852,-109.905 997,-109.905 997,-90.9052 852,-90.9052"/>
<text text-anchor="middle" x="924.5" y="-97.9052" font-family="Helvetica,sans-Serif" font-size="10.00">TMC2208Stepper::serial_read</text>
</a>
</g>
</g>
<!-- Node5&#45;&gt;Node8 -->
<g id="edge8" class="edge"><title>Node5&#45;&gt;Node8</title>
<path fill="none" stroke="midnightblue" d="M816.015,-107.779C824.478,-107.198 833.078,-106.608 841.54,-106.028"/>
<polygon fill="midnightblue" stroke="midnightblue" points="842.038,-109.502 851.775,-105.326 841.559,-102.518 842.038,-109.502"/>
</g>
<!-- Node9 -->
<g id="node9" class="node"><title>Node9</title>
<g id="a_node9"><a xlink:href="class_t_m_c2208_stepper.html#a7dd83313385079099b0622957786a979" target="_top" xlink:title=" ">
<polygon fill="white" stroke="black" points="864,-41.4052 864,-71.4052 985,-71.4052 985,-41.4052 864,-41.4052"/>
<text text-anchor="start" x="872" y="-59.4052" font-family="Helvetica,sans-Serif" font-size="10.00">TMC2208Stepper::serial</text>
<text text-anchor="middle" x="924.5" y="-48.4052" font-family="Helvetica,sans-Serif" font-size="10.00">_write</text>
</a>
</g>
</g>
<!-- Node5&#45;&gt;Node9 -->
<g id="edge9" class="edge"><title>Node5&#45;&gt;Node9</title>
<path fill="none" stroke="midnightblue" d="M779.793,-103.808C791.658,-101.045 804.367,-97.8399 816,-94.4052 832.315,-89.5878 835.971,-87.1015 852,-81.4052 858.017,-79.2668 864.325,-77.0401 870.595,-74.8355"/>
<polygon fill="midnightblue" stroke="midnightblue" points="872.095,-78.0185 880.372,-71.4052 869.778,-71.4133 872.095,-78.0185"/>
</g>
<!-- Node7 -->
<g id="node7" class="node"><title>Node7</title>
<g id="a_node7"><a xlink:href="class_t_m_c2208_stepper.html#a5441dd87d0bcea4ffc309cb012166a57" target="_top" xlink:title=" ">
<polygon fill="white" stroke="black" points="1033,-58.9052 1033,-77.9052 1149,-77.9052 1149,-58.9052 1033,-58.9052"/>
<text text-anchor="middle" x="1091" y="-65.9052" font-family="Helvetica,sans-Serif" font-size="10.00">TMC2208Stepper::IOIN</text>
</a>
</g>
</g>
<!-- Node6&#45;&gt;Node7 -->
<g id="edge6" class="edge"><title>Node6&#45;&gt;Node7</title>
<path fill="none" stroke="midnightblue" d="M968.395,-128.814C977.954,-126.18 987.937,-123.032 997,-119.405 1021.72,-109.514 1048.18,-94.529 1066.53,-83.3584"/>
<polygon fill="midnightblue" stroke="midnightblue" points="1068.42,-86.3019 1075.09,-78.0661 1064.74,-80.348 1068.42,-86.3019"/>
</g>
<!-- Node7&#45;&gt;Node4 -->
<g id="edge7" class="edge"><title>Node7&#45;&gt;Node4</title>
<path fill="none" stroke="midnightblue" d="M1070.96,-58.8176C1052.55,-50.0326 1023.59,-37.4965 997,-31.4052 846.566,3.05335 801.437,11.3399 650,-18.4052 626.751,-22.9717 601.989,-33.3919 583.866,-42.1675"/>
<polygon fill="midnightblue" stroke="midnightblue" points="581.917,-39.2285 574.532,-46.826 585.043,-45.4917 581.917,-39.2285"/>
</g>
</g>
</svg>
