<?xml version="1.0" encoding="UTF-8" standalone="no"?>
<!DOCTYPE svg PUBLIC "-//W3C//DTD SVG 1.1//EN"
 "http://www.w3.org/Graphics/SVG/1.1/DTD/svg11.dtd">
<!-- Generated by graphviz version 2.38.0 (20140413.2041)
 -->
<!-- Title: TMC2130Stepper::push Pages: 1 -->
<svg width="811pt" height="484pt"
 viewBox="0.00 0.00 811.00 484.00" xmlns="http://www.w3.org/2000/svg" xmlns:xlink="http://www.w3.org/1999/xlink">
<g id="graph0" class="graph" transform="scale(1 1) rotate(0) translate(4 480)">
<title>TMC2130Stepper::push</title>
<polygon fill="white" stroke="none" points="-4,4 -4,-480 807,-480 807,4 -4,4"/>
<!-- Node1 -->
<g id="node1" class="node"><title>Node1</title>
<g id="a_node1"><a xlink:title=" ">
<polygon fill="#bfbfbf" stroke="black" points="0,-228.5 0,-247.5 119,-247.5 119,-228.5 0,-228.5"/>
<text text-anchor="middle" x="59.5" y="-235.5" font-family="Helvetica,sans-Serif" font-size="10.00">TMC2130Stepper::push</text>
</a>
</g>
</g>
<!-- Node2 -->
<g id="node2" class="node"><title>Node2</title>
<g id="a_node2"><a xlink:href="class_t_m_c2130_stepper.html#a67541b27d97ce45f175e9f6e4a2d0bff" target="_top" xlink:title=" ">
<polygon fill="white" stroke="black" points="156.5,-456.5 156.5,-475.5 308.5,-475.5 308.5,-456.5 156.5,-456.5"/>
<text text-anchor="middle" x="232.5" y="-463.5" font-family="Helvetica,sans-Serif" font-size="10.00">TMC2130Stepper::CHOPCONF</text>
</a>
</g>
</g>
<!-- Node1&#45;&gt;Node2 -->
<g id="edge1" class="edge"><title>Node1&#45;&gt;Node2</title>
<path fill="none" stroke="midnightblue" d="M61.8609,-247.68C67.0758,-281.001 88.9252,-391.931 155,-447 157.024,-448.687 159.175,-450.227 161.425,-451.634"/>
<polygon fill="midnightblue" stroke="midnightblue" points="160.04,-454.86 170.519,-456.422 163.301,-448.666 160.04,-454.86"/>
</g>
<!-- Node7 -->
<g id="node7" class="node"><title>Node7</title>
<g id="a_node7"><a xlink:href="class_t_m_c2130_stepper.html#abc48be984238d94bb3b72ed3aa26f028" target="_top" xlink:title=" ">
<polygon fill="white" stroke="black" points="156.5,-418.5 156.5,-437.5 308.5,-437.5 308.5,-418.5 156.5,-418.5"/>
<text text-anchor="middle" x="232.5" y="-425.5" font-family="Helvetica,sans-Serif" font-size="10.00">TMC2130Stepper::COOLCONF</text>
</a>
</g>
</g>
<!-- Node1&#45;&gt;Node7 -->
<g id="edge7" class="edge"><title>Node1&#45;&gt;Node7</title>
<path fill="none" stroke="midnightblue" d="M62.8601,-247.538C70.585,-276.678 97.9593,-365.214 155,-409 157.341,-410.797 159.83,-412.426 162.426,-413.902"/>
<polygon fill="midnightblue" stroke="midnightblue" points="161.078,-417.139 171.603,-418.358 164.136,-410.842 161.078,-417.139"/>
</g>
<!-- Node8 -->
<g id="node8" class="node"><title>Node8</title>
<g id="a_node8"><a xlink:href="class_t_m_c2130_stepper.html#a1a90b2919efe61dd825552c2fbeca993" target="_top" xlink:title=" ">
<polygon fill="white" stroke="black" points="165,-380.5 165,-399.5 300,-399.5 300,-380.5 165,-380.5"/>
<text text-anchor="middle" x="232.5" y="-387.5" font-family="Helvetica,sans-Serif" font-size="10.00">TMC2130Stepper::DCCTRL</text>
</a>
</g>
</g>
<!-- Node1&#45;&gt;Node8 -->
<g id="edge8" class="edge"><title>Node1&#45;&gt;Node8</title>
<path fill="none" stroke="midnightblue" d="M64.5442,-247.839C75.2838,-272.684 107.018,-338.297 155,-371 157.915,-372.987 161.019,-374.766 164.245,-376.36"/>
<polygon fill="midnightblue" stroke="midnightblue" points="163.028,-379.647 173.598,-380.377 165.791,-373.215 163.028,-379.647"/>
</g>
<!-- Node9 -->
<g id="node9" class="node"><title>Node9</title>
<g id="a_node9"><a xlink:href="class_t_m_c2130_stepper.html#ae9ccc393519579143c2afb67da9d02a3" target="_top" xlink:title=" ">
<polygon fill="white" stroke="black" points="155,-342.5 155,-361.5 310,-361.5 310,-342.5 155,-342.5"/>
<text text-anchor="middle" x="232.5" y="-349.5" font-family="Helvetica,sans-Serif" font-size="10.00">TMC2130Stepper::ENCM_CTRL</text>
</a>
</g>
</g>
<!-- Node1&#45;&gt;Node9 -->
<g id="edge10" class="edge"><title>Node1&#45;&gt;Node9</title>
<path fill="none" stroke="midnightblue" d="M67.1031,-247.504C81.0126,-266.772 115.334,-310.513 155,-333 158.923,-335.224 163.104,-337.19 167.411,-338.928"/>
<polygon fill="midnightblue" stroke="midnightblue" points="166.395,-342.283 176.99,-342.38 168.768,-335.697 166.395,-342.283"/>
</g>
<!-- Node10 -->
<g id="node10" class="node"><title>Node10</title>
<g id="a_node10"><a xlink:href="class_t_m_c2130_stepper.html#aee84a9abfc84b387c6ae5658f90bf684" target="_top" xlink:title=" ">
<polygon fill="white" stroke="black" points="166.5,-304.5 166.5,-323.5 298.5,-323.5 298.5,-304.5 166.5,-304.5"/>
<text text-anchor="middle" x="232.5" y="-311.5" font-family="Helvetica,sans-Serif" font-size="10.00">TMC2130Stepper::GCONF</text>
</a>
</g>
</g>
<!-- Node1&#45;&gt;Node10 -->
<g id="edge11" class="edge"><title>Node1&#45;&gt;Node10</title>
<path fill="none" stroke="midnightblue" d="M73.5931,-247.651C91.2406,-260.236 124.028,-282.157 155,-295 160.89,-297.442 167.17,-299.625 173.503,-301.562"/>
<polygon fill="midnightblue" stroke="midnightblue" points="172.873,-305.022 183.45,-304.405 174.797,-298.291 172.873,-305.022"/>
</g>
<!-- Node11 -->
<g id="node11" class="node"><title>Node11</title>
<g id="a_node11"><a xlink:href="class_t_m_c_stepper.html#a597bc308bad0d1198b98c48a6ef34fc3" target="_top" xlink:title=" ">
<polygon fill="white" stroke="black" points="166,-266.5 166,-285.5 299,-285.5 299,-266.5 166,-266.5"/>
<text text-anchor="middle" x="232.5" y="-273.5" font-family="Helvetica,sans-Serif" font-size="10.00">TMCStepper::IHOLD_IRUN</text>
</a>
</g>
</g>
<!-- Node1&#45;&gt;Node11 -->
<g id="edge13" class="edge"><title>Node1&#45;&gt;Node11</title>
<path fill="none" stroke="midnightblue" d="M103.651,-247.589C126.419,-252.649 154.548,-258.9 178.619,-264.249"/>
<polygon fill="midnightblue" stroke="midnightblue" points="178.139,-267.727 188.66,-266.48 179.657,-260.894 178.139,-267.727"/>
</g>
<!-- Node12 -->
<g id="node12" class="node"><title>Node12</title>
<g id="a_node12"><a xlink:href="class_t_m_c2130_stepper.html#a357d105f7350a08dfad82c05a39042eb" target="_top" xlink:title=" ">
<polygon fill="white" stroke="black" points="158,-228.5 158,-247.5 307,-247.5 307,-228.5 158,-228.5"/>
<text text-anchor="middle" x="232.5" y="-235.5" font-family="Helvetica,sans-Serif" font-size="10.00">TMC2130Stepper::PWMCONF</text>
</a>
</g>
</g>
<!-- Node1&#45;&gt;Node12 -->
<g id="edge14" class="edge"><title>Node1&#45;&gt;Node12</title>
<path fill="none" stroke="midnightblue" d="M119.348,-238C128.43,-238 137.957,-238 147.46,-238"/>
<polygon fill="midnightblue" stroke="midnightblue" points="147.74,-241.5 157.74,-238 147.74,-234.5 147.74,-241.5"/>
</g>
<!-- Node13 -->
<g id="node13" class="node"><title>Node13</title>
<g id="a_node13"><a xlink:href="class_t_m_c2130_stepper.html#a5db9c2e01d8c1994a5c58d0bf0b1d9b1" target="_top" xlink:title=" ">
<polygon fill="white" stroke="black" points="155,-190.5 155,-209.5 310,-209.5 310,-190.5 155,-190.5"/>
<text text-anchor="middle" x="232.5" y="-197.5" font-family="Helvetica,sans-Serif" font-size="10.00">TMC2130Stepper::TCOOLTHRS</text>
</a>
</g>
</g>
<!-- Node1&#45;&gt;Node13 -->
<g id="edge15" class="edge"><title>Node1&#45;&gt;Node13</title>
<path fill="none" stroke="midnightblue" d="M103.651,-228.411C126.419,-223.351 154.548,-217.1 178.619,-211.751"/>
<polygon fill="midnightblue" stroke="midnightblue" points="179.657,-215.106 188.66,-209.52 178.139,-208.273 179.657,-215.106"/>
</g>
<!-- Node14 -->
<g id="node14" class="node"><title>Node14</title>
<g id="a_node14"><a xlink:href="class_t_m_c2130_stepper.html#a8e7d22e8bc39e89b4a02ad1460e4cf25" target="_top" xlink:title=" ">
<polygon fill="white" stroke="black" points="169.5,-152.5 169.5,-171.5 295.5,-171.5 295.5,-152.5 169.5,-152.5"/>
<text text-anchor="middle" x="232.5" y="-159.5" font-family="Helvetica,sans-Serif" font-size="10.00">TMC2130Stepper::THIGH</text>
</a>
</g>
</g>
<!-- Node1&#45;&gt;Node14 -->
<g id="edge16" class="edge"><title>Node1&#45;&gt;Node14</title>
<path fill="none" stroke="midnightblue" d="M73.5931,-228.349C91.2406,-215.764 124.028,-193.843 155,-181 160.89,-178.558 167.17,-176.375 173.503,-174.438"/>
<polygon fill="midnightblue" stroke="midnightblue" points="174.797,-177.709 183.45,-171.595 172.873,-170.978 174.797,-177.709"/>
</g>
<!-- Node15 -->
<g id="node15" class="node"><title>Node15</title>
<g id="a_node15"><a xlink:href="class_t_m_c_stepper.html#a66812c883dfbb6dedc046a011b2564be" target="_top" xlink:title=" ">
<polygon fill="white" stroke="black" points="157.5,-114.5 157.5,-133.5 307.5,-133.5 307.5,-114.5 157.5,-114.5"/>
<text text-anchor="middle" x="232.5" y="-121.5" font-family="Helvetica,sans-Serif" font-size="10.00">TMCStepper::TPOWERDOWN</text>
</a>
</g>
</g>
<!-- Node1&#45;&gt;Node15 -->
<g id="edge17" class="edge"><title>Node1&#45;&gt;Node15</title>
<path fill="none" stroke="midnightblue" d="M67.1031,-228.496C81.0126,-209.228 115.334,-165.487 155,-143 158.923,-140.776 163.104,-138.81 167.411,-137.072"/>
<polygon fill="midnightblue" stroke="midnightblue" points="168.768,-140.303 176.99,-133.62 166.395,-133.717 168.768,-140.303"/>
</g>
<!-- Node16 -->
<g id="node16" class="node"><title>Node16</title>
<g id="a_node16"><a xlink:href="class_t_m_c_stepper.html#ac59a9305aafc64a63698a34cac404788" target="_top" xlink:title=" ">
<polygon fill="white" stroke="black" points="166.5,-76.5 166.5,-95.5 298.5,-95.5 298.5,-76.5 166.5,-76.5"/>
<text text-anchor="middle" x="232.5" y="-83.5" font-family="Helvetica,sans-Serif" font-size="10.00">TMCStepper::TPWMTHRS</text>
</a>
</g>
</g>
<!-- Node1&#45;&gt;Node16 -->
<g id="edge18" class="edge"><title>Node1&#45;&gt;Node16</title>
<path fill="none" stroke="midnightblue" d="M64.5442,-228.161C75.2838,-203.316 107.018,-137.703 155,-105 157.915,-103.013 161.019,-101.234 164.245,-99.6399"/>
<polygon fill="midnightblue" stroke="midnightblue" points="165.791,-102.785 173.598,-95.623 163.028,-96.3531 165.791,-102.785"/>
</g>
<!-- Node17 -->
<g id="node17" class="node"><title>Node17</title>
<g id="a_node17"><a xlink:href="class_t_m_c2130_stepper.html#a4389f7f07c57d2267351b781c6031fb4" target="_top" xlink:title=" ">
<polygon fill="white" stroke="black" points="165,-38.5 165,-57.5 300,-57.5 300,-38.5 165,-38.5"/>
<text text-anchor="middle" x="232.5" y="-45.5" font-family="Helvetica,sans-Serif" font-size="10.00">TMC2130Stepper::VDCMIN</text>
</a>
</g>
</g>
<!-- Node1&#45;&gt;Node17 -->
<g id="edge19" class="edge"><title>Node1&#45;&gt;Node17</title>
<path fill="none" stroke="midnightblue" d="M62.8601,-228.462C70.585,-199.322 97.9593,-110.786 155,-67 157.341,-65.2032 159.83,-63.5744 162.426,-62.0978"/>
<polygon fill="midnightblue" stroke="midnightblue" points="164.136,-65.1583 171.603,-57.6421 161.078,-58.8613 164.136,-65.1583"/>
</g>
<!-- Node18 -->
<g id="node18" class="node"><title>Node18</title>
<g id="a_node18"><a xlink:href="class_t_m_c2130_stepper.html#af486cd4712be021c735fc3bcb8eee9f5" target="_top" xlink:title=" ">
<polygon fill="white" stroke="black" points="164,-0.5 164,-19.5 301,-19.5 301,-0.5 164,-0.5"/>
<text text-anchor="middle" x="232.5" y="-7.5" font-family="Helvetica,sans-Serif" font-size="10.00">TMC2130Stepper::XDIRECT</text>
</a>
</g>
</g>
<!-- Node1&#45;&gt;Node18 -->
<g id="edge20" class="edge"><title>Node1&#45;&gt;Node18</title>
<path fill="none" stroke="midnightblue" d="M61.8609,-228.32C67.0758,-194.999 88.9252,-84.0689 155,-29 157.024,-27.3134 159.175,-25.7731 161.425,-24.3665"/>
<polygon fill="midnightblue" stroke="midnightblue" points="163.301,-27.334 170.519,-19.5779 160.04,-21.1401 163.301,-27.334"/>
</g>
<!-- Node3 -->
<g id="node3" class="node"><title>Node3</title>
<g id="a_node3"><a xlink:href="class_t_m_c2130_stepper.html#aed0175bff6e80ebc14e0d2606283cbe0" target="_top" xlink:title=" ">
<polygon fill="white" stroke="black" points="346,-342.5 346,-361.5 462,-361.5 462,-342.5 346,-342.5"/>
<text text-anchor="middle" x="404" y="-349.5" font-family="Helvetica,sans-Serif" font-size="10.00">TMC2130Stepper::read</text>
</a>
</g>
</g>
<!-- Node2&#45;&gt;Node3 -->
<g id="edge2" class="edge"><title>Node2&#45;&gt;Node3</title>
<path fill="none" stroke="midnightblue" d="M288.038,-456.429C295.682,-453.965 303.23,-450.874 310,-447 344.356,-427.341 374.418,-391.386 390.521,-369.793"/>
<polygon fill="midnightblue" stroke="midnightblue" points="393.494,-371.655 396.539,-361.507 387.831,-367.541 393.494,-371.655"/>
</g>
<!-- Node4 -->
<g id="node4" class="node"><title>Node4</title>
<g id="a_node4"><a xlink:href="class_t_m_c2130_stepper.html#aed8aa4583943e649dbf3bb1c1da90d63" target="_top" xlink:title=" ">
<polygon fill="white" stroke="black" points="498,-380.5 498,-399.5 650,-399.5 650,-380.5 498,-380.5"/>
<text text-anchor="middle" x="574" y="-387.5" font-family="Helvetica,sans-Serif" font-size="10.00">TMC2130Stepper::switchCSpin</text>
</a>
</g>
</g>
<!-- Node3&#45;&gt;Node4 -->
<g id="edge3" class="edge"><title>Node3&#45;&gt;Node4</title>
<path fill="none" stroke="midnightblue" d="M447.393,-361.589C469.763,-366.649 497.398,-372.9 521.047,-378.249"/>
<polygon fill="midnightblue" stroke="midnightblue" points="520.386,-381.687 530.911,-380.48 521.93,-374.86 520.386,-381.687"/>
</g>
<!-- Node5 -->
<g id="node5" class="node"><title>Node5</title>
<g id="a_node5"><a xlink:href="class_s_w___s_p_i_class.html#af260fdc0af3f1312b106483161e559c3" target="_top" xlink:title=" ">
<polygon fill="white" stroke="black" points="686,-323.5 686,-342.5 803,-342.5 803,-323.5 686,-323.5"/>
<text text-anchor="middle" x="744.5" y="-330.5" font-family="Helvetica,sans-Serif" font-size="10.00">SW_SPIClass::transfer</text>
</a>
</g>
</g>
<!-- Node3&#45;&gt;Node5 -->
<g id="edge4" class="edge"><title>Node3&#45;&gt;Node5</title>
<path fill="none" stroke="midnightblue" d="M462.039,-348.798C521.027,-345.487 613.113,-340.319 675.765,-336.802"/>
<polygon fill="midnightblue" stroke="midnightblue" points="676.156,-340.286 685.944,-336.231 675.763,-333.297 676.156,-340.286"/>
</g>
<!-- Node6 -->
<g id="node6" class="node"><title>Node6</title>
<g id="a_node6"><a xlink:href="class_s_w___s_p_i_class.html#a1b7600aa1d9571c103718c5d3e376675" target="_top" xlink:title=" ">
<polygon fill="white" stroke="black" points="510,-304.5 510,-323.5 638,-323.5 638,-304.5 510,-304.5"/>
<text text-anchor="middle" x="574" y="-311.5" font-family="Helvetica,sans-Serif" font-size="10.00">SW_SPIClass::transfer16</text>
</a>
</g>
</g>
<!-- Node3&#45;&gt;Node6 -->
<g id="edge5" class="edge"><title>Node3&#45;&gt;Node6</title>
<path fill="none" stroke="midnightblue" d="M447.393,-342.411C469.763,-337.351 497.398,-331.1 521.047,-325.751"/>
<polygon fill="midnightblue" stroke="midnightblue" points="521.93,-329.14 530.911,-323.52 520.386,-322.313 521.93,-329.14"/>
</g>
<!-- Node6&#45;&gt;Node5 -->
<g id="edge6" class="edge"><title>Node6&#45;&gt;Node5</title>
<path fill="none" stroke="midnightblue" d="M638.223,-321.129C650.406,-322.503 663.217,-323.947 675.543,-325.337"/>
<polygon fill="midnightblue" stroke="midnightblue" points="675.43,-328.847 685.76,-326.489 676.215,-321.891 675.43,-328.847"/>
</g>
<!-- Node8&#45;&gt;Node3 -->
<g id="edge9" class="edge"><title>Node8&#45;&gt;Node3</title>
<path fill="none" stroke="midnightblue" d="M276.272,-380.411C298.841,-375.351 326.723,-369.1 350.583,-363.751"/>
<polygon fill="midnightblue" stroke="midnightblue" points="351.543,-367.123 360.536,-361.52 350.012,-360.292 351.543,-367.123"/>
</g>
<!-- Node10&#45;&gt;Node3 -->
<g id="edge12" class="edge"><title>Node10&#45;&gt;Node3</title>
<path fill="none" stroke="midnightblue" d="M276.272,-323.589C298.841,-328.649 326.723,-334.9 350.583,-340.249"/>
<polygon fill="midnightblue" stroke="midnightblue" points="350.012,-343.708 360.536,-342.48 351.543,-336.877 350.012,-343.708"/>
</g>
<!-- Node18&#45;&gt;Node3 -->
<g id="edge21" class="edge"><title>Node18&#45;&gt;Node3</title>
<path fill="none" stroke="midnightblue" d="M296.563,-19.6406C301.481,-22.1261 306.059,-25.2014 310,-29 398.052,-113.861 404.265,-276.233 403.622,-332.348"/>
<polygon fill="midnightblue" stroke="midnightblue" points="400.122,-332.303 403.416,-342.373 407.121,-332.447 400.122,-332.303"/>
</g>
</g>
</svg>
