<?xml version="1.0" encoding="UTF-8" standalone="no"?>
<!DOCTYPE svg PUBLIC "-//W3C//DTD SVG 1.1//EN"
 "http://www.w3.org/Graphics/SVG/1.1/DTD/svg11.dtd">
<!-- Generated by graphviz version 2.38.0 (20140413.2041)
 -->
<!-- Title: TMC2660Stepper::sg_result Pages: 1 -->
<svg width="650pt" height="85pt"
 viewBox="0.00 0.00 650.00 85.00" xmlns="http://www.w3.org/2000/svg" xmlns:xlink="http://www.w3.org/1999/xlink">
<g id="graph0" class="graph" transform="scale(1 1) rotate(0) translate(4 81)">
<title>TMC2660Stepper::sg_result</title>
<polygon fill="white" stroke="none" points="-4,4 -4,-81 646,-81 646,4 -4,4"/>
<!-- Node1 -->
<g id="node1" class="node"><title>Node1</title>
<g id="a_node1"><a xlink:title=" ">
<polygon fill="#bfbfbf" stroke="black" points="0,-33 0,-63 108,-63 108,-33 0,-33"/>
<text text-anchor="start" x="8" y="-51" font-family="Helvetica,sans-Serif" font-size="10.00">TMC2660Stepper::sg</text>
<text text-anchor="middle" x="54" y="-40" font-family="Helvetica,sans-Serif" font-size="10.00">_result</text>
</a>
</g>
</g>
<!-- Node2 -->
<g id="node2" class="node"><title>Node2</title>
<g id="a_node2"><a xlink:href="class_t_m_c2660_stepper.html#a124bab76346c3c6c17f812e8c4ad7a5c" target="_top" xlink:title=" ">
<polygon fill="white" stroke="black" points="144,-19.5 144,-38.5 299,-38.5 299,-19.5 144,-19.5"/>
<text text-anchor="middle" x="221.5" y="-26.5" font-family="Helvetica,sans-Serif" font-size="10.00">TMC2660Stepper::DRVSTATUS</text>
</a>
</g>
</g>
<!-- Node1&#45;&gt;Node2 -->
<g id="edge1" class="edge"><title>Node1&#45;&gt;Node2</title>
<path fill="none" stroke="midnightblue" d="M108.276,-41.8837C116.426,-40.948 125.015,-39.962 133.664,-38.9691"/>
<polygon fill="midnightblue" stroke="midnightblue" points="134.286,-42.4208 143.821,-37.803 133.487,-35.4665 134.286,-42.4208"/>
</g>
<!-- Node3 -->
<g id="node3" class="node"><title>Node3</title>
<g id="a_node3"><a xlink:href="class_t_m_c2660_stepper.html#a4fa131ecb1e0e0436abff079c44eee5b" target="_top" xlink:title=" ">
<polygon fill="white" stroke="black" points="335,-57.5 335,-76.5 454,-76.5 454,-57.5 335,-57.5"/>
<text text-anchor="middle" x="394.5" y="-64.5" font-family="Helvetica,sans-Serif" font-size="10.00">TMC2660Stepper::rdsel</text>
</a>
</g>
</g>
<!-- Node1&#45;&gt;Node3 -->
<g id="edge6" class="edge"><title>Node1&#45;&gt;Node3</title>
<path fill="none" stroke="midnightblue" d="M108.263,-50.9897C166.76,-54.2731 260.876,-59.5558 324.866,-63.1476"/>
<polygon fill="midnightblue" stroke="midnightblue" points="324.687,-66.643 334.868,-63.709 325.08,-59.654 324.687,-66.643"/>
</g>
<!-- Node2&#45;&gt;Node3 -->
<g id="edge2" class="edge"><title>Node2&#45;&gt;Node3</title>
<path fill="none" stroke="midnightblue" d="M265.651,-38.589C288.419,-43.6487 316.548,-49.8996 340.619,-55.2488"/>
<polygon fill="midnightblue" stroke="midnightblue" points="340.139,-58.7272 350.66,-57.4799 341.657,-51.8939 340.139,-58.7272"/>
</g>
<!-- Node4 -->
<g id="node4" class="node"><title>Node4</title>
<g id="a_node4"><a xlink:href="class_t_m_c2660_stepper.html#aba43e2af829abee9e029bdd43bde5f61" target="_top" xlink:title=" ">
<polygon fill="white" stroke="black" points="336.5,-19.5 336.5,-38.5 452.5,-38.5 452.5,-19.5 336.5,-19.5"/>
<text text-anchor="middle" x="394.5" y="-26.5" font-family="Helvetica,sans-Serif" font-size="10.00">TMC2660Stepper::read</text>
</a>
</g>
</g>
<!-- Node2&#45;&gt;Node4 -->
<g id="edge3" class="edge"><title>Node2&#45;&gt;Node4</title>
<path fill="none" stroke="midnightblue" d="M299.496,-29C308.416,-29 317.461,-29 326.237,-29"/>
<polygon fill="midnightblue" stroke="midnightblue" points="326.392,-32.5001 336.392,-29 326.392,-25.5001 326.392,-32.5001"/>
</g>
<!-- Node5 -->
<g id="node5" class="node"><title>Node5</title>
<g id="a_node5"><a xlink:href="class_t_m_c2660_stepper.html#a63505ee4078e1f060a2ccecc30f228bd" target="_top" xlink:title=" ">
<polygon fill="white" stroke="black" points="490,-38.5 490,-57.5 642,-57.5 642,-38.5 490,-38.5"/>
<text text-anchor="middle" x="566" y="-45.5" font-family="Helvetica,sans-Serif" font-size="10.00">TMC2660Stepper::switchCSpin</text>
</a>
</g>
</g>
<!-- Node4&#45;&gt;Node5 -->
<g id="edge4" class="edge"><title>Node4&#45;&gt;Node5</title>
<path fill="none" stroke="midnightblue" d="M452.885,-35.4325C461.631,-36.4129 470.812,-37.4421 479.997,-38.4717"/>
<polygon fill="midnightblue" stroke="midnightblue" points="479.618,-41.951 489.945,-39.5868 480.398,-34.9945 479.618,-41.951"/>
</g>
<!-- Node6 -->
<g id="node6" class="node"><title>Node6</title>
<g id="a_node6"><a xlink:href="class_s_w___s_p_i_class.html#af260fdc0af3f1312b106483161e559c3" target="_top" xlink:title=" ">
<polygon fill="white" stroke="black" points="507.5,-0.5 507.5,-19.5 624.5,-19.5 624.5,-0.5 507.5,-0.5"/>
<text text-anchor="middle" x="566" y="-7.5" font-family="Helvetica,sans-Serif" font-size="10.00">SW_SPIClass::transfer</text>
</a>
</g>
</g>
<!-- Node4&#45;&gt;Node6 -->
<g id="edge5" class="edge"><title>Node4&#45;&gt;Node6</title>
<path fill="none" stroke="midnightblue" d="M452.885,-22.5675C467.165,-20.9667 482.606,-19.2359 497.33,-17.5854"/>
<polygon fill="midnightblue" stroke="midnightblue" points="497.838,-21.0505 507.386,-16.4582 497.058,-14.0941 497.838,-21.0505"/>
</g>
</g>
</svg>
