<?xml version="1.0" encoding="UTF-8" standalone="no"?>
<!DOCTYPE svg PUBLIC "-//W3C//DTD SVG 1.1//EN"
 "http://www.w3.org/Graphics/SVG/1.1/DTD/svg11.dtd">
<!-- Generated by graphviz version 2.38.0 (20140413.2041)
 -->
<!-- Title: TMC2130Stepper::COOLCONF Pages: 1 -->
<svg width="474pt" height="218pt"
 viewBox="0.00 0.00 474.00 218.00" xmlns="http://www.w3.org/2000/svg" xmlns:xlink="http://www.w3.org/1999/xlink">
<g id="graph0" class="graph" transform="scale(1 1) rotate(0) translate(4 214)">
<title>TMC2130Stepper::COOLCONF</title>
<polygon fill="white" stroke="none" points="-4,4 -4,-214 470,-214 470,4 -4,4"/>
<!-- Node1 -->
<g id="node1" class="node"><title>Node1</title>
<g id="a_node1"><a xlink:title=" ">
<polygon fill="#bfbfbf" stroke="black" points="314,-95.5 314,-114.5 466,-114.5 466,-95.5 314,-95.5"/>
<text text-anchor="middle" x="390" y="-102.5" font-family="Helvetica,sans-Serif" font-size="10.00">TMC2130Stepper::COOLCONF</text>
</a>
</g>
</g>
<!-- Node2 -->
<g id="node2" class="node"><title>Node2</title>
<g id="a_node2"><a xlink:href="class_t_m_c2130_stepper.html#a2d19f2ad93b00b75ffdcdd73275d2f03" target="_top" xlink:title=" ">
<polygon fill="white" stroke="black" points="157,-190.5 157,-209.5 278,-209.5 278,-190.5 157,-190.5"/>
<text text-anchor="middle" x="217.5" y="-197.5" font-family="Helvetica,sans-Serif" font-size="10.00">TMC2130Stepper::begin</text>
</a>
</g>
</g>
<!-- Node1&#45;&gt;Node2 -->
<g id="edge1" class="edge"><title>Node1&#45;&gt;Node2</title>
<path fill="none" stroke="midnightblue" d="M369.424,-121.035C348.058,-137.887 312.3,-164.23 278,-181 270.596,-184.62 262.344,-187.765 254.401,-190.398"/>
<polygon fill="midnightblue" stroke="midnightblue" points="371.771,-123.639 377.395,-114.66 367.399,-118.173 371.771,-123.639"/>
</g>
<!-- Node3 -->
<g id="node3" class="node"><title>Node3</title>
<g id="a_node3"><a xlink:href="class_t_m_c2160_stepper.html#a7ee48b042245ef5b3968b82029d1404c" target="_top" xlink:title=" ">
<polygon fill="white" stroke="black" points="157,-152.5 157,-171.5 278,-171.5 278,-152.5 157,-152.5"/>
<text text-anchor="middle" x="217.5" y="-159.5" font-family="Helvetica,sans-Serif" font-size="10.00">TMC2160Stepper::begin</text>
</a>
</g>
</g>
<!-- Node1&#45;&gt;Node3 -->
<g id="edge2" class="edge"><title>Node1&#45;&gt;Node3</title>
<path fill="none" stroke="midnightblue" d="M351.946,-117.9C330.401,-125.347 302.708,-134.827 278,-143 268.529,-146.133 258.18,-149.468 248.809,-152.455"/>
<polygon fill="midnightblue" stroke="midnightblue" points="353.379,-121.108 361.683,-114.528 351.089,-114.493 353.379,-121.108"/>
</g>
<!-- Node5 -->
<g id="node5" class="node"><title>Node5</title>
<g id="a_node5"><a xlink:href="class_t_m_c2130_stepper.html#ac62d32ad08be0a34b411bdd5a8489246" target="_top" xlink:title=" ">
<polygon fill="white" stroke="black" points="158,-114.5 158,-133.5 277,-133.5 277,-114.5 158,-114.5"/>
<text text-anchor="middle" x="217.5" y="-121.5" font-family="Helvetica,sans-Serif" font-size="10.00">TMC2130Stepper::push</text>
</a>
</g>
</g>
<!-- Node1&#45;&gt;Node5 -->
<g id="edge4" class="edge"><title>Node1&#45;&gt;Node5</title>
<path fill="none" stroke="midnightblue" d="M303.653,-114.511C294.719,-115.506 285.786,-116.502 277.247,-117.453"/>
<polygon fill="midnightblue" stroke="midnightblue" points="304.169,-117.975 313.72,-113.389 303.394,-111.018 304.169,-117.975"/>
</g>
<!-- Node6 -->
<g id="node6" class="node"><title>Node6</title>
<g id="a_node6"><a xlink:href="class_t_m_c2160_stepper.html#ae8035a0cb8151d5227d8528e540e637d" target="_top" xlink:title=" ">
<polygon fill="white" stroke="black" points="158,-76.5 158,-95.5 277,-95.5 277,-76.5 158,-76.5"/>
<text text-anchor="middle" x="217.5" y="-83.5" font-family="Helvetica,sans-Serif" font-size="10.00">TMC2160Stepper::push</text>
</a>
</g>
</g>
<!-- Node1&#45;&gt;Node6 -->
<g id="edge5" class="edge"><title>Node1&#45;&gt;Node6</title>
<path fill="none" stroke="midnightblue" d="M303.653,-95.4892C294.719,-94.4936 285.786,-93.4982 277.247,-92.5466"/>
<polygon fill="midnightblue" stroke="midnightblue" points="303.394,-98.9819 313.72,-96.611 304.169,-92.0249 303.394,-98.9819"/>
</g>
<!-- Node7 -->
<g id="node7" class="node"><title>Node7</title>
<g id="a_node7"><a xlink:href="class_t_m_c5130_stepper.html#a55e61f5181d74f26c9d35c54e4436d7a" target="_top" xlink:title=" ">
<polygon fill="white" stroke="black" points="158,-38.5 158,-57.5 277,-57.5 277,-38.5 158,-38.5"/>
<text text-anchor="middle" x="217.5" y="-45.5" font-family="Helvetica,sans-Serif" font-size="10.00">TMC5130Stepper::push</text>
</a>
</g>
</g>
<!-- Node1&#45;&gt;Node7 -->
<g id="edge6" class="edge"><title>Node1&#45;&gt;Node7</title>
<path fill="none" stroke="midnightblue" d="M351.946,-92.1002C330.401,-84.6534 302.708,-75.1732 278,-67 268.529,-63.8669 258.18,-60.5318 248.809,-57.5446"/>
<polygon fill="midnightblue" stroke="midnightblue" points="351.089,-95.5071 361.683,-95.472 353.379,-88.8924 351.089,-95.5071"/>
</g>
<!-- Node8 -->
<g id="node8" class="node"><title>Node8</title>
<g id="a_node8"><a xlink:href="class_t_m_c5160_stepper.html#a5a12974304588f9d01898d91ba854b87" target="_top" xlink:title=" ">
<polygon fill="white" stroke="black" points="158,-0.5 158,-19.5 277,-19.5 277,-0.5 158,-0.5"/>
<text text-anchor="middle" x="217.5" y="-7.5" font-family="Helvetica,sans-Serif" font-size="10.00">TMC5160Stepper::push</text>
</a>
</g>
</g>
<!-- Node1&#45;&gt;Node8 -->
<g id="edge7" class="edge"><title>Node1&#45;&gt;Node8</title>
<path fill="none" stroke="midnightblue" d="M369.424,-88.9651C348.058,-72.1133 312.3,-45.7695 278,-29 270.596,-25.3803 262.344,-22.2352 254.401,-19.602"/>
<polygon fill="midnightblue" stroke="midnightblue" points="367.399,-91.8273 377.395,-95.3402 371.771,-86.3607 367.399,-91.8273"/>
</g>
<!-- Node4 -->
<g id="node4" class="node"><title>Node4</title>
<g id="a_node4"><a xlink:href="class_t_m_c5130_stepper.html#a897212f81817cdaee4536d642badc149" target="_top" xlink:title=" ">
<polygon fill="white" stroke="black" points="0,-152.5 0,-171.5 121,-171.5 121,-152.5 0,-152.5"/>
<text text-anchor="middle" x="60.5" y="-159.5" font-family="Helvetica,sans-Serif" font-size="10.00">TMC5130Stepper::begin</text>
</a>
</g>
</g>
<!-- Node3&#45;&gt;Node4 -->
<g id="edge3" class="edge"><title>Node3&#45;&gt;Node4</title>
<path fill="none" stroke="midnightblue" d="M146.339,-162C137.878,-162 129.3,-162 121.012,-162"/>
<polygon fill="midnightblue" stroke="midnightblue" points="146.573,-165.5 156.573,-162 146.573,-158.5 146.573,-165.5"/>
</g>
</g>
</svg>
