<?xml version="1.0" encoding="UTF-8" standalone="no"?>
<!DOCTYPE svg PUBLIC "-//W3C//DTD SVG 1.1//EN"
 "http://www.w3.org/Graphics/SVG/1.1/DTD/svg11.dtd">
<!-- Generated by graphviz version 2.38.0 (20140413.2041)
 -->
<!-- Title: TMC2208Stepper::serial_write Pages: 1 -->
<svg width="921pt" height="1431pt"
 viewBox="0.00 0.00 921.00 1431.00" xmlns="http://www.w3.org/2000/svg" xmlns:xlink="http://www.w3.org/1999/xlink">
<g id="graph0" class="graph" transform="scale(1 1) rotate(0) translate(4 1427)">
<title>TMC2208Stepper::serial_write</title>
<polygon fill="white" stroke="none" points="-4,4 -4,-1427 917,-1427 917,4 -4,4"/>
<!-- Node1 -->
<g id="node1" class="node"><title>Node1</title>
<g id="a_node1"><a xlink:title=" ">
<polygon fill="#bfbfbf" stroke="black" points="792,-531 792,-561 913,-561 913,-531 792,-531"/>
<text text-anchor="start" x="800" y="-549" font-family="Helvetica,sans-Serif" font-size="10.00">TMC2208Stepper::serial</text>
<text text-anchor="middle" x="852.5" y="-538" font-family="Helvetica,sans-Serif" font-size="10.00">_write</text>
</a>
</g>
</g>
<!-- Node2 -->
<g id="node2" class="node"><title>Node2</title>
<g id="a_node2"><a xlink:href="class_t_m_c2208_stepper.html#a3e1f6a10aa1e3e41dc2594dbe1ea8a1d" target="_top" xlink:title=" ">
<polygon fill="white" stroke="black" points="590,-650.5 590,-669.5 756,-669.5 756,-650.5 590,-650.5"/>
<text text-anchor="middle" x="673" y="-657.5" font-family="Helvetica,sans-Serif" font-size="10.00">TMC2208Stepper::_sendDatagram</text>
</a>
</g>
</g>
<!-- Node1&#45;&gt;Node2 -->
<g id="edge1" class="edge"><title>Node1&#45;&gt;Node2</title>
<path fill="none" stroke="midnightblue" d="M819.125,-566.793C780.438,-591.64 717.363,-632.15 688.839,-650.47"/>
<polygon fill="midnightblue" stroke="midnightblue" points="821.407,-569.487 827.929,-561.138 817.624,-563.597 821.407,-569.487"/>
</g>
<!-- Node97 -->
<g id="node29" class="node"><title>Node97</title>
<g id="a_node29"><a xlink:href="class_t_m_c2208_stepper.html#a142b14de8a4dcc6cf76b4a6ede9e1cea" target="_top" xlink:title=" ">
<polygon fill="white" stroke="black" points="614,-422.5 614,-441.5 732,-441.5 732,-422.5 614,-422.5"/>
<text text-anchor="middle" x="673" y="-429.5" font-family="Helvetica,sans-Serif" font-size="10.00">TMC2208Stepper::write</text>
</a>
</g>
</g>
<!-- Node1&#45;&gt;Node97 -->
<g id="edge32" class="edge"><title>Node1&#45;&gt;Node97</title>
<path fill="none" stroke="midnightblue" d="M819.125,-525.207C780.438,-500.36 717.363,-459.85 688.839,-441.53"/>
<polygon fill="midnightblue" stroke="midnightblue" points="817.624,-528.403 827.929,-530.862 821.407,-522.513 817.624,-528.403"/>
</g>
<!-- Node3 -->
<g id="node3" class="node"><title>Node3</title>
<g id="a_node3"><a xlink:href="class_t_m_c2208_stepper.html#a2fae2050849c3ab7968012def8ea1cc5" target="_top" xlink:title=" ">
<polygon fill="white" stroke="black" points="408,-821.5 408,-840.5 524,-840.5 524,-821.5 408,-821.5"/>
<text text-anchor="middle" x="466" y="-828.5" font-family="Helvetica,sans-Serif" font-size="10.00">TMC2208Stepper::read</text>
</a>
</g>
</g>
<!-- Node2&#45;&gt;Node3 -->
<g id="edge2" class="edge"><title>Node2&#45;&gt;Node3</title>
<path fill="none" stroke="midnightblue" d="M662.847,-679.075C646.1,-711.806 607.284,-778.382 554,-812 544.978,-817.692 534.499,-821.696 524.004,-824.508"/>
<polygon fill="midnightblue" stroke="midnightblue" points="666.18,-680.234 667.5,-669.722 659.912,-677.116 666.18,-680.234"/>
</g>
<!-- Node4 -->
<g id="node4" class="node"><title>Node4</title>
<g id="a_node4"><a xlink:href="class_t_m_c2208_stepper.html#aa11281f54c293f3ff2539b1a583682a9" target="_top" xlink:title=" ">
<polygon fill="white" stroke="black" points="178,-1175.5 178,-1194.5 330,-1194.5 330,-1175.5 178,-1175.5"/>
<text text-anchor="middle" x="254" y="-1182.5" font-family="Helvetica,sans-Serif" font-size="10.00">TMC2208Stepper::CHOPCONF</text>
</a>
</g>
</g>
<!-- Node3&#45;&gt;Node4 -->
<g id="edge3" class="edge"><title>Node3&#45;&gt;Node4</title>
<path fill="none" stroke="midnightblue" d="M455.086,-849.869C434.732,-888.362 386.405,-978.518 342,-1052 313.459,-1099.23 276.413,-1153.84 261.571,-1175.47"/>
<polygon fill="midnightblue" stroke="midnightblue" points="458.28,-851.314 459.849,-840.836 452.089,-848.048 458.28,-851.314"/>
</g>
<!-- Node28 -->
<g id="node17" class="node"><title>Node28</title>
<g id="a_node17"><a xlink:href="class_t_m_c2208_stepper.html#a2b4643106d473dd0081ec60a3f9b8fdf" target="_top" xlink:title=" ">
<polygon fill="white" stroke="black" points="195,-936 195,-966 313,-966 313,-936 195,-936"/>
<text text-anchor="start" x="203" y="-954" font-family="Helvetica,sans-Serif" font-size="10.00">TMC2208Stepper::DRV</text>
<text text-anchor="middle" x="254" y="-943" font-family="Helvetica,sans-Serif" font-size="10.00">_STATUS</text>
</a>
</g>
</g>
<!-- Node3&#45;&gt;Node28 -->
<g id="edge16" class="edge"><title>Node3&#45;&gt;Node28</title>
<path fill="none" stroke="midnightblue" d="M447.99,-847.588C425.498,-868.662 383.806,-904.831 342,-926 333.027,-930.544 323.103,-934.378 313.264,-937.574"/>
<polygon fill="midnightblue" stroke="midnightblue" points="450.541,-849.992 455.373,-840.562 445.716,-844.921 450.541,-849.992"/>
</g>
<!-- Node29 -->
<g id="node18" class="node"><title>Node29</title>
<g id="a_node18"><a xlink:href="class_t_m_c2208_stepper.html#a64c51922eb2029e4bbcd4f8a51b6a6ae" target="_top" xlink:title=" ">
<polygon fill="white" stroke="red" points="166,-897.5 166,-916.5 342,-916.5 342,-897.5 166,-897.5"/>
<text text-anchor="middle" x="254" y="-904.5" font-family="Helvetica,sans-Serif" font-size="10.00">TMC2208Stepper::FACTORY_CONF</text>
</a>
</g>
</g>
<!-- Node3&#45;&gt;Node29 -->
<g id="edge17" class="edge"><title>Node3&#45;&gt;Node29</title>
<path fill="none" stroke="midnightblue" d="M438.576,-845.31C414.126,-858.048 376.463,-876.407 342,-888 331.01,-891.697 318.992,-894.858 307.492,-897.481"/>
<polygon fill="midnightblue" stroke="midnightblue" points="440.363,-848.325 447.575,-840.564 437.097,-842.133 440.363,-848.325"/>
</g>
<!-- Node32 -->
<g id="node19" class="node"><title>Node32</title>
<g id="a_node19"><a xlink:href="class_t_m_c2208_stepper.html#a549db4f962d4ae698dda33ef9a708e33" target="_top" xlink:title=" ">
<polygon fill="white" stroke="red" points="188,-985.5 188,-1004.5 320,-1004.5 320,-985.5 188,-985.5"/>
<text text-anchor="middle" x="254" y="-992.5" font-family="Helvetica,sans-Serif" font-size="10.00">TMC2208Stepper::GCONF</text>
</a>
</g>
</g>
<!-- Node3&#45;&gt;Node32 -->
<g id="edge18" class="edge"><title>Node3&#45;&gt;Node32</title>
<path fill="none" stroke="midnightblue" d="M454.672,-849.456C436.278,-880.527 394.771,-943.013 342,-975 334.843,-979.338 326.835,-982.736 318.652,-985.397"/>
<polygon fill="midnightblue" stroke="midnightblue" points="457.845,-850.96 459.817,-840.55 451.784,-847.458 457.845,-850.96"/>
</g>
<!-- Node49 -->
<g id="node20" class="node"><title>Node49</title>
<g id="a_node20"><a xlink:href="class_t_m_c2208_stepper.html#a54eeb50855c3d7dd9e7078a5dc0ebdfc" target="_top" xlink:title=" ">
<polygon fill="white" stroke="black" points="191.5,-859.5 191.5,-878.5 316.5,-878.5 316.5,-859.5 191.5,-859.5"/>
<text text-anchor="middle" x="254" y="-866.5" font-family="Helvetica,sans-Serif" font-size="10.00">TMC2208Stepper::IFCNT</text>
</a>
</g>
</g>
<!-- Node3&#45;&gt;Node49 -->
<g id="edge21" class="edge"><title>Node3&#45;&gt;Node49</title>
<path fill="none" stroke="midnightblue" d="M402.293,-842.347C372.163,-847.799 336.454,-854.261 307.742,-859.456"/>
<polygon fill="midnightblue" stroke="midnightblue" points="403.062,-845.765 412.279,-840.54 401.816,-838.877 403.062,-845.765"/>
</g>
<!-- Node50 -->
<g id="node21" class="node"><title>Node50</title>
<g id="a_node21"><a xlink:href="class_t_m_c2208_stepper.html#a5441dd87d0bcea4ffc309cb012166a57" target="_top" xlink:title=" ">
<polygon fill="white" stroke="red" points="196,-821.5 196,-840.5 312,-840.5 312,-821.5 196,-821.5"/>
<text text-anchor="middle" x="254" y="-828.5" font-family="Helvetica,sans-Serif" font-size="10.00">TMC2208Stepper::IOIN</text>
</a>
</g>
</g>
<!-- Node3&#45;&gt;Node50 -->
<g id="edge22" class="edge"><title>Node3&#45;&gt;Node50</title>
<path fill="none" stroke="midnightblue" d="M397.549,-831C370,-831 338.479,-831 312.095,-831"/>
<polygon fill="midnightblue" stroke="midnightblue" points="397.894,-834.5 407.894,-831 397.894,-827.5 397.894,-834.5"/>
</g>
<!-- Node60 -->
<g id="node22" class="node"><title>Node60</title>
<g id="a_node22"><a xlink:href="class_t_m_c2209_stepper.html#aeab582b2f23d4e58f63aec80163b3838" target="_top" xlink:title=" ">
<polygon fill="white" stroke="red" points="196,-783.5 196,-802.5 312,-802.5 312,-783.5 196,-783.5"/>
<text text-anchor="middle" x="254" y="-790.5" font-family="Helvetica,sans-Serif" font-size="10.00">TMC2209Stepper::IOIN</text>
</a>
</g>
</g>
<!-- Node3&#45;&gt;Node60 -->
<g id="edge23" class="edge"><title>Node3&#45;&gt;Node60</title>
<path fill="none" stroke="midnightblue" d="M402.293,-819.653C372.163,-814.201 336.454,-807.739 307.742,-802.544"/>
<polygon fill="midnightblue" stroke="midnightblue" points="401.816,-823.123 412.279,-821.46 403.062,-816.235 401.816,-823.123"/>
</g>
<!-- Node70 -->
<g id="node23" class="node"><title>Node70</title>
<g id="a_node23"><a xlink:href="class_t_m_c2224_stepper.html#aa5fa836e15992bc49e0297ef2126f725" target="_top" xlink:title=" ">
<polygon fill="white" stroke="red" points="196,-745.5 196,-764.5 312,-764.5 312,-745.5 196,-745.5"/>
<text text-anchor="middle" x="254" y="-752.5" font-family="Helvetica,sans-Serif" font-size="10.00">TMC2224Stepper::IOIN</text>
</a>
</g>
</g>
<!-- Node3&#45;&gt;Node70 -->
<g id="edge24" class="edge"><title>Node3&#45;&gt;Node70</title>
<path fill="none" stroke="midnightblue" d="M398.261,-820.788C391.192,-818.44 384.295,-815.552 378,-812 357.738,-800.567 362.262,-785.433 342,-774 332.844,-768.834 322.414,-765.072 312.032,-762.332"/>
<polygon fill="midnightblue" stroke="midnightblue" points="397.385,-824.179 407.968,-823.668 399.376,-817.468 397.385,-824.179"/>
</g>
<!-- Node80 -->
<g id="node24" class="node"><title>Node80</title>
<g id="a_node24"><a xlink:href="class_t_m_c2208_stepper.html#a0727482b76d6cd679021f4d1677e5b3a" target="_top" xlink:title=" ">
<polygon fill="white" stroke="black" points="179.5,-707.5 179.5,-726.5 328.5,-726.5 328.5,-707.5 179.5,-707.5"/>
<text text-anchor="middle" x="254" y="-714.5" font-family="Helvetica,sans-Serif" font-size="10.00">TMC2208Stepper::OTP_READ</text>
</a>
</g>
</g>
<!-- Node3&#45;&gt;Node80 -->
<g id="edge25" class="edge"><title>Node3&#45;&gt;Node80</title>
<path fill="none" stroke="midnightblue" d="M397.89,-823.037C390.724,-820.293 383.907,-816.696 378,-812 348.744,-788.74 371.256,-759.26 342,-736 337.159,-732.151 331.707,-729.042 325.953,-726.534"/>
<polygon fill="midnightblue" stroke="midnightblue" points="397.233,-826.504 407.825,-826.276 399.402,-819.849 397.233,-826.504"/>
</g>
<!-- Node81 -->
<g id="node25" class="node"><title>Node81</title>
<g id="a_node25"><a xlink:href="class_t_m_c2208_stepper.html#a3cad83843fc7cc00cbbff7d620690501" target="_top" xlink:title=" ">
<polygon fill="white" stroke="red" points="177,-669.5 177,-688.5 331,-688.5 331,-669.5 177,-669.5"/>
<text text-anchor="middle" x="254" y="-676.5" font-family="Helvetica,sans-Serif" font-size="10.00">TMC2208Stepper::PWM_AUTO</text>
</a>
</g>
</g>
<!-- Node3&#45;&gt;Node81 -->
<g id="edge26" class="edge"><title>Node3&#45;&gt;Node81</title>
<path fill="none" stroke="midnightblue" d="M398.327,-824.245C390.868,-821.319 383.86,-817.351 378,-812 338.762,-776.174 381.238,-733.826 342,-698 337.89,-694.247 333.215,-691.174 328.216,-688.664"/>
<polygon fill="midnightblue" stroke="midnightblue" points="397.372,-827.616 407.965,-827.419 399.562,-820.967 397.372,-827.616"/>
</g>
<!-- Node84 -->
<g id="node26" class="node"><title>Node84</title>
<g id="a_node26"><a xlink:href="class_t_m_c2208_stepper.html#adc81db53cf0291216352b13e5425e67b" target="_top" xlink:title=" ">
<polygon fill="white" stroke="red" points="193,-620 193,-650 315,-650 315,-620 193,-620"/>
<text text-anchor="start" x="201" y="-638" font-family="Helvetica,sans-Serif" font-size="10.00">TMC2208Stepper::PWM</text>
<text text-anchor="middle" x="254" y="-627" font-family="Helvetica,sans-Serif" font-size="10.00">_SCALE</text>
</a>
</g>
</g>
<!-- Node3&#45;&gt;Node84 -->
<g id="edge27" class="edge"><title>Node3&#45;&gt;Node84</title>
<path fill="none" stroke="midnightblue" d="M398.248,-824.773C390.737,-821.769 383.738,-817.638 378,-812 328.481,-763.342 389.917,-710.237 342,-660 334.733,-652.381 325.31,-647.037 315.358,-643.3"/>
<polygon fill="midnightblue" stroke="midnightblue" points="397.386,-828.174 407.979,-828.003 399.591,-821.531 397.386,-828.174"/>
</g>
<!-- Node87 -->
<g id="node27" class="node"><title>Node87</title>
<g id="a_node27"><a xlink:href="class_t_m_c2208_stepper.html#a7c2e849de2f2933ba9bf8ede8dc53f53" target="_top" xlink:title=" ">
<polygon fill="white" stroke="red" points="179.5,-1023.5 179.5,-1042.5 328.5,-1042.5 328.5,-1023.5 179.5,-1023.5"/>
<text text-anchor="middle" x="254" y="-1030.5" font-family="Helvetica,sans-Serif" font-size="10.00">TMC2208Stepper::PWMCONF</text>
</a>
</g>
</g>
<!-- Node3&#45;&gt;Node87 -->
<g id="edge28" class="edge"><title>Node3&#45;&gt;Node87</title>
<path fill="none" stroke="midnightblue" d="M457.822,-850.249C442.665,-888.085 403.638,-972.101 342,-1014 336.374,-1017.82 330.112,-1020.9 323.599,-1023.36"/>
<polygon fill="midnightblue" stroke="midnightblue" points="461.104,-851.464 461.463,-840.875 454.579,-848.929 461.104,-851.464"/>
</g>
<!-- Node96 -->
<g id="node28" class="node"><title>Node96</title>
<g id="a_node28"><a xlink:href="class_t_m_c2209_stepper.html#ac1d2ec19eb65fd2f14d8d02cc1e7b02e" target="_top" xlink:title=" ">
<polygon fill="white" stroke="black" points="198,-571 198,-601 310,-601 310,-571 198,-571"/>
<text text-anchor="start" x="206" y="-589" font-family="Helvetica,sans-Serif" font-size="10.00">TMC2209Stepper::SG</text>
<text text-anchor="middle" x="254" y="-578" font-family="Helvetica,sans-Serif" font-size="10.00">_RESULT</text>
</a>
</g>
</g>
<!-- Node3&#45;&gt;Node96 -->
<g id="edge31" class="edge"><title>Node3&#45;&gt;Node96</title>
<path fill="none" stroke="midnightblue" d="M397.942,-825.075C390.481,-822.022 383.577,-817.797 378,-812 314.775,-746.283 403.422,-677.404 342,-610 333.663,-600.851 322.186,-595.063 310.302,-591.433"/>
<polygon fill="midnightblue" stroke="midnightblue" points="397.039,-828.464 407.633,-828.346 399.277,-821.832 397.039,-828.464"/>
</g>
<!-- Node5 -->
<g id="node5" class="node"><title>Node5</title>
<g id="a_node5"><a xlink:href="class_t_m_c2208_stepper.html#a5b614f72c27fa1b7ff1c08fe07b17582" target="_top" xlink:title=" ">
<polygon fill="white" stroke="red" points="3,-1175.5 3,-1194.5 127,-1194.5 127,-1175.5 3,-1175.5"/>
<text text-anchor="middle" x="65" y="-1182.5" font-family="Helvetica,sans-Serif" font-size="10.00">TMC2208Stepper::dedge</text>
</a>
</g>
</g>
<!-- Node4&#45;&gt;Node5 -->
<g id="edge4" class="edge"><title>Node4&#45;&gt;Node5</title>
<path fill="none" stroke="midnightblue" d="M167.4,-1185C153.784,-1185 139.943,-1185 127.044,-1185"/>
<polygon fill="midnightblue" stroke="midnightblue" points="167.748,-1188.5 177.748,-1185 167.748,-1181.5 167.748,-1188.5"/>
</g>
<!-- Node7 -->
<g id="node6" class="node"><title>Node7</title>
<g id="a_node6"><a xlink:href="class_t_m_c2208_stepper.html#a810f59828ccf8b0f55c7274b21ea0255" target="_top" xlink:title=" ">
<polygon fill="white" stroke="red" points="2,-1137.5 2,-1156.5 128,-1156.5 128,-1137.5 2,-1137.5"/>
<text text-anchor="middle" x="65" y="-1144.5" font-family="Helvetica,sans-Serif" font-size="10.00">TMC2208Stepper::diss2g</text>
</a>
</g>
</g>
<!-- Node4&#45;&gt;Node7 -->
<g id="edge5" class="edge"><title>Node4&#45;&gt;Node7</title>
<path fill="none" stroke="midnightblue" d="M195.869,-1173.39C169.273,-1167.99 138.027,-1161.64 112.849,-1156.52"/>
<polygon fill="midnightblue" stroke="midnightblue" points="195.315,-1176.85 205.812,-1175.41 196.709,-1169.99 195.315,-1176.85"/>
</g>
<!-- Node9 -->
<g id="node7" class="node"><title>Node9</title>
<g id="a_node7"><a xlink:href="class_t_m_c2208_stepper.html#afc70b23b3486ae3ea3a3dfa804441148" target="_top" xlink:title=" ">
<polygon fill="white" stroke="red" points="0,-1099.5 0,-1118.5 130,-1118.5 130,-1099.5 0,-1099.5"/>
<text text-anchor="middle" x="65" y="-1106.5" font-family="Helvetica,sans-Serif" font-size="10.00">TMC2208Stepper::diss2vs</text>
</a>
</g>
</g>
<!-- Node4&#45;&gt;Node9 -->
<g id="edge6" class="edge"><title>Node4&#45;&gt;Node9</title>
<path fill="none" stroke="midnightblue" d="M225.515,-1170.86C200.907,-1158.54 163.625,-1140.71 130,-1128 120.893,-1124.56 110.871,-1121.33 101.516,-1118.55"/>
<polygon fill="midnightblue" stroke="midnightblue" points="224.103,-1174.07 234.607,-1175.45 227.257,-1167.82 224.103,-1174.07"/>
</g>
<!-- Node11 -->
<g id="node8" class="node"><title>Node11</title>
<g id="a_node8"><a xlink:href="class_t_m_c2208_stepper.html#a2f36996a01d99a96f40d179931eb606a" target="_top" xlink:title=" ">
<polygon fill="white" stroke="red" points="5.5,-1061.5 5.5,-1080.5 124.5,-1080.5 124.5,-1061.5 5.5,-1061.5"/>
<text text-anchor="middle" x="65" y="-1068.5" font-family="Helvetica,sans-Serif" font-size="10.00">TMC2208Stepper::hend</text>
</a>
</g>
</g>
<!-- Node4&#45;&gt;Node11 -->
<g id="edge7" class="edge"><title>Node4&#45;&gt;Node11</title>
<path fill="none" stroke="midnightblue" d="M235.961,-1168.47C213.438,-1147.46 171.712,-1111.35 130,-1090 122.675,-1086.25 114.49,-1083.12 106.486,-1080.55"/>
<polygon fill="midnightblue" stroke="midnightblue" points="233.688,-1171.14 243.355,-1175.47 238.502,-1166.05 233.688,-1171.14"/>
</g>
<!-- Node13 -->
<g id="node9" class="node"><title>Node13</title>
<g id="a_node9"><a xlink:href="class_t_m_c2208_stepper.html#ae86e87a3b5882ac40c6f21348c6793ed" target="_top" xlink:title=" ">
<polygon fill="white" stroke="red" points="6.5,-1403.5 6.5,-1422.5 123.5,-1422.5 123.5,-1403.5 6.5,-1403.5"/>
<text text-anchor="middle" x="65" y="-1410.5" font-family="Helvetica,sans-Serif" font-size="10.00">TMC2208Stepper::hstrt</text>
</a>
</g>
</g>
<!-- Node4&#45;&gt;Node13 -->
<g id="edge8" class="edge"><title>Node4&#45;&gt;Node13</title>
<path fill="none" stroke="midnightblue" d="M247.09,-1204.24C233.44,-1245.43 195.758,-1342.57 130,-1394 125.07,-1397.86 119.372,-1400.93 113.45,-1403.38"/>
<polygon fill="midnightblue" stroke="midnightblue" points="250.457,-1205.2 250.176,-1194.61 243.791,-1203.06 250.457,-1205.2"/>
</g>
<!-- Node15 -->
<g id="node10" class="node"><title>Node15</title>
<g id="a_node10"><a xlink:href="class_t_m_c2208_stepper.html#a787cbae9adfab6f79a873310c472e7cd" target="_top" xlink:title=" ">
<polygon fill="white" stroke="red" points="4.5,-1365.5 4.5,-1384.5 125.5,-1384.5 125.5,-1365.5 4.5,-1365.5"/>
<text text-anchor="middle" x="65" y="-1372.5" font-family="Helvetica,sans-Serif" font-size="10.00">TMC2208Stepper::intpol</text>
</a>
</g>
</g>
<!-- Node4&#45;&gt;Node15 -->
<g id="edge9" class="edge"><title>Node4&#45;&gt;Node15</title>
<path fill="none" stroke="midnightblue" d="M244.523,-1204.07C227.821,-1239.44 187.244,-1315.31 130,-1356 124.521,-1359.89 118.239,-1363 111.8,-1365.47"/>
<polygon fill="midnightblue" stroke="midnightblue" points="247.764,-1205.4 248.765,-1194.85 241.405,-1202.47 247.764,-1205.4"/>
</g>
<!-- Node17 -->
<g id="node11" class="node"><title>Node17</title>
<g id="a_node11"><a xlink:href="class_t_m_c2208_stepper.html#a445b61c23afadb9bd48c3f4d9ef9125e" target="_top" xlink:title=" ">
<polygon fill="white" stroke="red" points="5.5,-1327.5 5.5,-1346.5 124.5,-1346.5 124.5,-1327.5 5.5,-1327.5"/>
<text text-anchor="middle" x="65" y="-1334.5" font-family="Helvetica,sans-Serif" font-size="10.00">TMC2208Stepper::mres</text>
</a>
</g>
</g>
<!-- Node4&#45;&gt;Node17 -->
<g id="edge10" class="edge"><title>Node4&#45;&gt;Node17</title>
<path fill="none" stroke="midnightblue" d="M241.003,-1203.31C221.264,-1231.99 179.185,-1287.4 130,-1318 123.8,-1321.86 116.775,-1324.97 109.708,-1327.46"/>
<polygon fill="midnightblue" stroke="midnightblue" points="244.131,-1204.93 246.818,-1194.68 238.327,-1201.01 244.131,-1204.93"/>
</g>
<!-- Node19 -->
<g id="node12" class="node"><title>Node19</title>
<g id="a_node12"><a xlink:href="class_t_m_c2208_stepper.html#a8eb0d71fbfeeb24c9092328c44fab7e5" target="_top" xlink:title=" ">
<polygon fill="white" stroke="black" points="5.5,-1023.5 5.5,-1042.5 124.5,-1042.5 124.5,-1023.5 5.5,-1023.5"/>
<text text-anchor="middle" x="65" y="-1030.5" font-family="Helvetica,sans-Serif" font-size="10.00">TMC2208Stepper::push</text>
</a>
</g>
</g>
<!-- Node4&#45;&gt;Node19 -->
<g id="edge11" class="edge"><title>Node4&#45;&gt;Node19</title>
<path fill="none" stroke="midnightblue" d="M241.003,-1166.69C221.264,-1138.01 179.185,-1082.6 130,-1052 123.8,-1048.14 116.775,-1045.03 109.708,-1042.54"/>
<polygon fill="midnightblue" stroke="midnightblue" points="238.327,-1168.99 246.818,-1175.32 244.131,-1165.07 238.327,-1168.99"/>
</g>
<!-- Node20 -->
<g id="node13" class="node"><title>Node20</title>
<g id="a_node13"><a xlink:href="class_t_m_c2209_stepper.html#a180f4b9a78e526592d946ec12f71982e" target="_top" xlink:title=" ">
<polygon fill="white" stroke="black" points="5.5,-985.5 5.5,-1004.5 124.5,-1004.5 124.5,-985.5 5.5,-985.5"/>
<text text-anchor="middle" x="65" y="-992.5" font-family="Helvetica,sans-Serif" font-size="10.00">TMC2209Stepper::push</text>
</a>
</g>
</g>
<!-- Node4&#45;&gt;Node20 -->
<g id="edge12" class="edge"><title>Node4&#45;&gt;Node20</title>
<path fill="none" stroke="midnightblue" d="M241.879,-1166.55C217.604,-1126.83 159.677,-1035.09 130,-1014 124.521,-1010.11 118.239,-1007 111.8,-1004.53"/>
<polygon fill="midnightblue" stroke="midnightblue" points="239.104,-1168.73 247.287,-1175.46 245.087,-1165.09 239.104,-1168.73"/>
</g>
<!-- Node21 -->
<g id="node14" class="node"><title>Node21</title>
<g id="a_node14"><a xlink:href="class_t_m_c2208_stepper.html#a84a5b9684c546c5f4549f375048512be" target="_top" xlink:title=" ">
<polygon fill="white" stroke="red" points="11,-1289.5 11,-1308.5 119,-1308.5 119,-1289.5 11,-1289.5"/>
<text text-anchor="middle" x="65" y="-1296.5" font-family="Helvetica,sans-Serif" font-size="10.00">TMC2208Stepper::tbl</text>
</a>
</g>
</g>
<!-- Node4&#45;&gt;Node21 -->
<g id="edge13" class="edge"><title>Node4&#45;&gt;Node21</title>
<path fill="none" stroke="midnightblue" d="M235.961,-1201.53C213.438,-1222.54 171.712,-1258.65 130,-1280 122.675,-1283.75 114.49,-1286.88 106.486,-1289.45"/>
<polygon fill="midnightblue" stroke="midnightblue" points="238.502,-1203.95 243.355,-1194.53 233.688,-1198.86 238.502,-1203.95"/>
</g>
<!-- Node23 -->
<g id="node15" class="node"><title>Node23</title>
<g id="a_node15"><a xlink:href="class_t_m_c2208_stepper.html#aad3790e8c9040b5b4770ee65ed06b1ed" target="_top" xlink:title=" ">
<polygon fill="white" stroke="red" points="10,-1251.5 10,-1270.5 120,-1270.5 120,-1251.5 10,-1251.5"/>
<text text-anchor="middle" x="65" y="-1258.5" font-family="Helvetica,sans-Serif" font-size="10.00">TMC2208Stepper::toff</text>
</a>
</g>
</g>
<!-- Node4&#45;&gt;Node23 -->
<g id="edge14" class="edge"><title>Node4&#45;&gt;Node23</title>
<path fill="none" stroke="midnightblue" d="M225.515,-1199.14C200.907,-1211.46 163.625,-1229.29 130,-1242 120.893,-1245.44 110.871,-1248.67 101.516,-1251.45"/>
<polygon fill="midnightblue" stroke="midnightblue" points="227.257,-1202.18 234.607,-1194.55 224.103,-1195.93 227.257,-1202.18"/>
</g>
<!-- Node26 -->
<g id="node16" class="node"><title>Node26</title>
<g id="a_node16"><a xlink:href="class_t_m_c2208_stepper.html#aca88bb5ae86daeca56094bf2f8bdea5d" target="_top" xlink:title=" ">
<polygon fill="white" stroke="red" points="1,-1213.5 1,-1232.5 129,-1232.5 129,-1213.5 1,-1213.5"/>
<text text-anchor="middle" x="65" y="-1220.5" font-family="Helvetica,sans-Serif" font-size="10.00">TMC2208Stepper::vsense</text>
</a>
</g>
</g>
<!-- Node4&#45;&gt;Node26 -->
<g id="edge15" class="edge"><title>Node4&#45;&gt;Node26</title>
<path fill="none" stroke="midnightblue" d="M195.869,-1196.61C169.273,-1202.01 138.027,-1208.36 112.849,-1213.48"/>
<polygon fill="midnightblue" stroke="midnightblue" points="196.709,-1200.01 205.812,-1194.59 195.315,-1193.15 196.709,-1200.01"/>
</g>
<!-- Node32&#45;&gt;Node19 -->
<g id="edge19" class="edge"><title>Node32&#45;&gt;Node19</title>
<path fill="none" stroke="midnightblue" d="M195.869,-1006.61C169.273,-1012.01 138.027,-1018.36 112.849,-1023.48"/>
<polygon fill="midnightblue" stroke="midnightblue" points="196.709,-1010.01 205.812,-1004.59 195.315,-1003.15 196.709,-1010.01"/>
</g>
<!-- Node32&#45;&gt;Node20 -->
<g id="edge20" class="edge"><title>Node32&#45;&gt;Node20</title>
<path fill="none" stroke="midnightblue" d="M177.599,-995C159.965,-995 141.438,-995 124.657,-995"/>
<polygon fill="midnightblue" stroke="midnightblue" points="177.859,-998.5 187.859,-995 177.859,-991.5 177.859,-998.5"/>
</g>
<!-- Node87&#45;&gt;Node19 -->
<g id="edge29" class="edge"><title>Node87&#45;&gt;Node19</title>
<path fill="none" stroke="midnightblue" d="M169.036,-1033C154.018,-1033 138.668,-1033 124.558,-1033"/>
<polygon fill="midnightblue" stroke="midnightblue" points="169.361,-1036.5 179.361,-1033 169.361,-1029.5 169.361,-1036.5"/>
</g>
<!-- Node87&#45;&gt;Node20 -->
<g id="edge30" class="edge"><title>Node87&#45;&gt;Node20</title>
<path fill="none" stroke="midnightblue" d="M195.869,-1021.39C169.273,-1015.99 138.027,-1009.64 112.849,-1004.52"/>
<polygon fill="midnightblue" stroke="midnightblue" points="195.315,-1024.85 205.812,-1023.41 196.709,-1017.99 195.315,-1024.85"/>
</g>
<!-- Node98 -->
<g id="node30" class="node"><title>Node98</title>
<g id="a_node30"><a xlink:href="class_t_m_c2208_stepper.html#ac7c979e2083f3a2b35bcaa0f4fd45cae" target="_top" xlink:title=" ">
<polygon fill="white" stroke="black" points="390,-669.5 390,-688.5 542,-688.5 542,-669.5 390,-669.5"/>
<text text-anchor="middle" x="466" y="-676.5" font-family="Helvetica,sans-Serif" font-size="10.00">TMC2208Stepper::CHOPCONF</text>
</a>
</g>
</g>
<!-- Node97&#45;&gt;Node98 -->
<g id="edge33" class="edge"><title>Node97&#45;&gt;Node98</title>
<path fill="none" stroke="midnightblue" d="M667.84,-451.523C657.282,-496.057 625.084,-605.499 554,-660 548.97,-663.857 543.319,-666.966 537.376,-669.467"/>
<polygon fill="midnightblue" stroke="midnightblue" points="671.276,-452.198 670.069,-441.672 664.448,-450.653 671.276,-452.198"/>
</g>
<!-- Node99 -->
<g id="node31" class="node"><title>Node99</title>
<g id="a_node31"><a xlink:href="class_t_m_c2209_stepper.html#add1136accc0b089a157c95fdf8e1e685" target="_top" xlink:title=" ">
<polygon fill="white" stroke="black" points="390,-631.5 390,-650.5 542,-650.5 542,-631.5 390,-631.5"/>
<text text-anchor="middle" x="466" y="-638.5" font-family="Helvetica,sans-Serif" font-size="10.00">TMC2209Stepper::COOLCONF</text>
</a>
</g>
</g>
<!-- Node97&#45;&gt;Node99 -->
<g id="edge34" class="edge"><title>Node97&#45;&gt;Node99</title>
<path fill="none" stroke="midnightblue" d="M665.755,-451.415C652.163,-490.392 616.037,-578.175 554,-622 548.57,-625.836 542.51,-628.919 536.184,-631.394"/>
<polygon fill="midnightblue" stroke="midnightblue" points="669.121,-452.387 668.994,-441.793 662.487,-450.154 669.121,-452.387"/>
</g>
<!-- Node100 -->
<g id="node32" class="node"><title>Node100</title>
<g id="a_node32"><a xlink:href="class_t_m_c2208_stepper.html#a97f0d743b9f5cf956637deb2e06d0145" target="_top" xlink:title=" ">
<polygon fill="white" stroke="black" points="378,-593.5 378,-612.5 554,-612.5 554,-593.5 378,-593.5"/>
<text text-anchor="middle" x="466" y="-600.5" font-family="Helvetica,sans-Serif" font-size="10.00">TMC2208Stepper::FACTORY_CONF</text>
</a>
</g>
</g>
<!-- Node97&#45;&gt;Node100 -->
<g id="edge35" class="edge"><title>Node97&#45;&gt;Node100</title>
<path fill="none" stroke="midnightblue" d="M662.847,-451.075C646.1,-483.806 607.284,-550.382 554,-584 547.855,-587.877 541.033,-590.971 533.991,-593.439"/>
<polygon fill="midnightblue" stroke="midnightblue" points="666.18,-452.234 667.5,-441.722 659.912,-449.116 666.18,-452.234"/>
</g>
<!-- Node101 -->
<g id="node33" class="node"><title>Node101</title>
<g id="a_node33"><a xlink:href="class_t_m_c2208_stepper.html#ad920d81bde73173f5974a62a85b719e6" target="_top" xlink:title=" ">
<polygon fill="white" stroke="black" points="401.5,-555.5 401.5,-574.5 530.5,-574.5 530.5,-555.5 401.5,-555.5"/>
<text text-anchor="middle" x="466" y="-562.5" font-family="Helvetica,sans-Serif" font-size="10.00">TMC2208Stepper::fclktrim</text>
</a>
</g>
</g>
<!-- Node97&#45;&gt;Node101 -->
<g id="edge36" class="edge"><title>Node97&#45;&gt;Node101</title>
<path fill="none" stroke="midnightblue" d="M658.861,-449.862C639.087,-475.373 599.151,-521.825 554,-546 546.776,-549.868 538.815,-552.948 530.73,-555.402"/>
<polygon fill="midnightblue" stroke="midnightblue" points="661.735,-451.865 664.99,-441.783 656.158,-447.634 661.735,-451.865"/>
</g>
<!-- Node102 -->
<g id="node34" class="node"><title>Node102</title>
<g id="a_node34"><a xlink:href="class_t_m_c2208_stepper.html#a57d97713abf9d4bde3d60975c8eddff5" target="_top" xlink:title=" ">
<polygon fill="white" stroke="black" points="397,-517.5 397,-536.5 535,-536.5 535,-517.5 397,-517.5"/>
<text text-anchor="middle" x="466" y="-524.5" font-family="Helvetica,sans-Serif" font-size="10.00">TMC2208Stepper::freewheel</text>
</a>
</g>
</g>
<!-- Node97&#45;&gt;Node102 -->
<g id="edge37" class="edge"><title>Node97&#45;&gt;Node102</title>
<path fill="none" stroke="midnightblue" d="M652.34,-447.833C629.868,-465.147 591.35,-492.49 554,-508 544.719,-511.854 534.543,-514.976 524.524,-517.489"/>
<polygon fill="midnightblue" stroke="midnightblue" points="654.687,-450.441 660.401,-441.519 650.37,-444.93 654.687,-450.441"/>
</g>
<!-- Node103 -->
<g id="node35" class="node"><title>Node103</title>
<g id="a_node35"><a xlink:href="class_t_m_c2208_stepper.html#a20d275e1dba5fe4ab75fc405b2f46281" target="_top" xlink:title=" ">
<polygon fill="white" stroke="black" points="400,-479.5 400,-498.5 532,-498.5 532,-479.5 400,-479.5"/>
<text text-anchor="middle" x="466" y="-486.5" font-family="Helvetica,sans-Serif" font-size="10.00">TMC2208Stepper::GCONF</text>
</a>
</g>
</g>
<!-- Node97&#45;&gt;Node103 -->
<g id="edge38" class="edge"><title>Node97&#45;&gt;Node103</title>
<path fill="none" stroke="midnightblue" d="M635.285,-444.833C612.134,-452.674 581.515,-462.584 554,-470 541.312,-473.42 527.458,-476.664 514.611,-479.471"/>
<polygon fill="midnightblue" stroke="midnightblue" points="636.706,-448.047 645.038,-441.504 634.444,-441.422 636.706,-448.047"/>
</g>
<!-- Node104 -->
<g id="node36" class="node"><title>Node104</title>
<g id="a_node36"><a xlink:href="class_t_m_c2208_stepper.html#a755b2adec0990d6bfcf2f5f1daf9d692" target="_top" xlink:title=" ">
<polygon fill="white" stroke="black" points="390.5,-441.5 390.5,-460.5 541.5,-460.5 541.5,-441.5 390.5,-441.5"/>
<text text-anchor="middle" x="466" y="-448.5" font-family="Helvetica,sans-Serif" font-size="10.00">TMC2208Stepper::OTP_PROG</text>
</a>
</g>
</g>
<!-- Node97&#45;&gt;Node104 -->
<g id="edge39" class="edge"><title>Node97&#45;&gt;Node104</title>
<path fill="none" stroke="midnightblue" d="M603.629,-438.337C583.801,-440.175 562.05,-442.19 541.848,-444.063"/>
<polygon fill="midnightblue" stroke="midnightblue" points="604.169,-441.802 613.804,-437.394 603.523,-434.832 604.169,-441.802"/>
</g>
<!-- Node105 -->
<g id="node37" class="node"><title>Node105</title>
<g id="a_node37"><a xlink:href="class_t_m_c2208_stepper.html#ae51fb40f4fba4aecb8f0763adddb8296" target="_top" xlink:title=" ">
<polygon fill="white" stroke="black" points="405,-403.5 405,-422.5 527,-422.5 527,-403.5 405,-403.5"/>
<text text-anchor="middle" x="466" y="-410.5" font-family="Helvetica,sans-Serif" font-size="10.00">TMC2208Stepper::ottrim</text>
</a>
</g>
</g>
<!-- Node97&#45;&gt;Node105 -->
<g id="edge40" class="edge"><title>Node97&#45;&gt;Node105</title>
<path fill="none" stroke="midnightblue" d="M603.749,-425.674C578.963,-423.377 551.158,-420.8 527.126,-418.573"/>
<polygon fill="midnightblue" stroke="midnightblue" points="603.523,-429.168 613.804,-426.606 604.169,-422.198 603.523,-429.168"/>
</g>
<!-- Node106 -->
<g id="node38" class="node"><title>Node106</title>
<g id="a_node38"><a xlink:href="class_t_m_c2208_stepper.html#a89a72c922d6c93ea811048401dcf2be0" target="_top" xlink:title=" ">
<polygon fill="white" stroke="black" points="407,-354 407,-384 525,-384 525,-354 407,-354"/>
<text text-anchor="start" x="415" y="-372" font-family="Helvetica,sans-Serif" font-size="10.00">TMC2208Stepper::pwm</text>
<text text-anchor="middle" x="466" y="-361" font-family="Helvetica,sans-Serif" font-size="10.00">_autograd</text>
</a>
</g>
</g>
<!-- Node97&#45;&gt;Node106 -->
<g id="edge41" class="edge"><title>Node97&#45;&gt;Node106</title>
<path fill="none" stroke="midnightblue" d="M633.259,-419.182C610.278,-411.664 580.543,-402.085 554,-394 543.176,-390.703 531.559,-387.283 520.45,-384.07"/>
<polygon fill="midnightblue" stroke="midnightblue" points="632.392,-422.581 642.985,-422.373 634.574,-415.93 632.392,-422.581"/>
</g>
<!-- Node107 -->
<g id="node39" class="node"><title>Node107</title>
<g id="a_node39"><a xlink:href="class_t_m_c2208_stepper.html#a8f8ab7ad3cddd1aac505dd326ad5ee27" target="_top" xlink:title=" ">
<polygon fill="white" stroke="black" points="407,-305 407,-335 525,-335 525,-305 407,-305"/>
<text text-anchor="start" x="415" y="-323" font-family="Helvetica,sans-Serif" font-size="10.00">TMC2208Stepper::pwm</text>
<text text-anchor="middle" x="466" y="-312" font-family="Helvetica,sans-Serif" font-size="10.00">_autoscale</text>
</a>
</g>
</g>
<!-- Node97&#45;&gt;Node107 -->
<g id="edge42" class="edge"><title>Node97&#45;&gt;Node107</title>
<path fill="none" stroke="midnightblue" d="M654.306,-415.43C632.371,-395.729 593.082,-363.119 554,-344 544.992,-339.593 535.051,-335.89 525.206,-332.814"/>
<polygon fill="midnightblue" stroke="midnightblue" points="652.081,-418.137 661.827,-422.293 656.799,-412.967 652.081,-418.137"/>
</g>
<!-- Node108 -->
<g id="node40" class="node"><title>Node108</title>
<g id="a_node40"><a xlink:href="class_t_m_c2208_stepper.html#a1ec2cc2c0d54fb407165ffc8bc3ccbdf" target="_top" xlink:title=" ">
<polygon fill="white" stroke="black" points="396.5,-266.5 396.5,-285.5 535.5,-285.5 535.5,-266.5 396.5,-266.5"/>
<text text-anchor="middle" x="466" y="-273.5" font-family="Helvetica,sans-Serif" font-size="10.00">TMC2208Stepper::pwm_freq</text>
</a>
</g>
</g>
<!-- Node97&#45;&gt;Node108 -->
<g id="edge43" class="edge"><title>Node97&#45;&gt;Node108</title>
<path fill="none" stroke="midnightblue" d="M661.34,-413.129C643.329,-383.085 603.909,-324.74 554,-295 547.492,-291.122 540.288,-288.033 532.893,-285.572"/>
<polygon fill="midnightblue" stroke="midnightblue" points="658.545,-415.283 666.612,-422.151 664.588,-411.751 658.545,-415.283"/>
</g>
<!-- Node109 -->
<g id="node41" class="node"><title>Node109</title>
<g id="a_node41"><a xlink:href="class_t_m_c2208_stepper.html#aabee9e304eb30077f53220822839f7c1" target="_top" xlink:title=" ">
<polygon fill="white" stroke="black" points="395,-228.5 395,-247.5 537,-247.5 537,-228.5 395,-228.5"/>
<text text-anchor="middle" x="466" y="-235.5" font-family="Helvetica,sans-Serif" font-size="10.00">TMC2208Stepper::pwm_grad</text>
</a>
</g>
</g>
<!-- Node97&#45;&gt;Node109 -->
<g id="edge44" class="edge"><title>Node97&#45;&gt;Node109</title>
<path fill="none" stroke="midnightblue" d="M664.699,-412.61C649.852,-375.974 612.503,-296.705 554,-257 548.371,-253.18 542.108,-250.112 535.593,-247.65"/>
<polygon fill="midnightblue" stroke="midnightblue" points="661.526,-414.104 668.437,-422.134 668.042,-411.547 661.526,-414.104"/>
</g>
<!-- Node110 -->
<g id="node42" class="node"><title>Node110</title>
<g id="a_node42"><a xlink:href="class_t_m_c2208_stepper.html#a130292409335270115a35839e39ddd1e" target="_top" xlink:title=" ">
<polygon fill="white" stroke="black" points="398,-190.5 398,-209.5 534,-209.5 534,-190.5 398,-190.5"/>
<text text-anchor="middle" x="466" y="-197.5" font-family="Helvetica,sans-Serif" font-size="10.00">TMC2208Stepper::pwm_lim</text>
</a>
</g>
</g>
<!-- Node97&#45;&gt;Node110 -->
<g id="edge45" class="edge"><title>Node97&#45;&gt;Node110</title>
<path fill="none" stroke="midnightblue" d="M667.126,-412.622C655.42,-370.281 621.547,-269.287 554,-219 548.048,-214.569 541.269,-211.131 534.183,-208.47"/>
<polygon fill="midnightblue" stroke="midnightblue" points="663.797,-413.721 669.742,-422.49 670.563,-411.927 663.797,-413.721"/>
</g>
<!-- Node111 -->
<g id="node43" class="node"><title>Node111</title>
<g id="a_node43"><a xlink:href="class_t_m_c2208_stepper.html#a590f9f3dd5c41f135492a88044a4b24f" target="_top" xlink:title=" ">
<polygon fill="white" stroke="black" points="398,-152.5 398,-171.5 534,-171.5 534,-152.5 398,-152.5"/>
<text text-anchor="middle" x="466" y="-159.5" font-family="Helvetica,sans-Serif" font-size="10.00">TMC2208Stepper::pwm_ofs</text>
</a>
</g>
</g>
<!-- Node97&#45;&gt;Node111 -->
<g id="edge46" class="edge"><title>Node97&#45;&gt;Node111</title>
<path fill="none" stroke="midnightblue" d="M668.836,-412.49C660.037,-364.872 630.677,-242.145 554,-181 548.077,-176.277 541.234,-172.666 534.041,-169.914"/>
<polygon fill="midnightblue" stroke="midnightblue" points="665.402,-413.174 670.569,-422.423 672.298,-411.971 665.402,-413.174"/>
</g>
<!-- Node112 -->
<g id="node44" class="node"><title>Node112</title>
<g id="a_node44"><a xlink:href="class_t_m_c2208_stepper.html#a675e8100c482de74a88a47de4894720d" target="_top" xlink:title=" ">
<polygon fill="white" stroke="black" points="397.5,-114.5 397.5,-133.5 534.5,-133.5 534.5,-114.5 397.5,-114.5"/>
<text text-anchor="middle" x="466" y="-121.5" font-family="Helvetica,sans-Serif" font-size="10.00">TMC2208Stepper::pwm_reg</text>
</a>
</g>
</g>
<!-- Node97&#45;&gt;Node112 -->
<g id="edge47" class="edge"><title>Node97&#45;&gt;Node112</title>
<path fill="none" stroke="midnightblue" d="M670.149,-412.445C664.09,-359.996 639.989,-215.293 554,-143 548.32,-138.225 541.711,-134.572 534.722,-131.789"/>
<polygon fill="midnightblue" stroke="midnightblue" points="666.673,-412.86 671.208,-422.435 673.634,-412.122 666.673,-412.86"/>
</g>
<!-- Node113 -->
<g id="node45" class="node"><title>Node113</title>
<g id="a_node45"><a xlink:href="class_t_m_c2208_stepper.html#a65df7ae90b9d77626cad8f4529aab83a" target="_top" xlink:title=" ">
<polygon fill="white" stroke="black" points="391.5,-76.5 391.5,-95.5 540.5,-95.5 540.5,-76.5 391.5,-76.5"/>
<text text-anchor="middle" x="466" y="-83.5" font-family="Helvetica,sans-Serif" font-size="10.00">TMC2208Stepper::PWMCONF</text>
</a>
</g>
</g>
<!-- Node97&#45;&gt;Node113 -->
<g id="edge48" class="edge"><title>Node97&#45;&gt;Node113</title>
<path fill="none" stroke="midnightblue" d="M671.173,-412.238C667.66,-355.116 649.321,-188.561 554,-105 549.699,-101.229 544.823,-98.1515 539.629,-95.6454"/>
<polygon fill="midnightblue" stroke="midnightblue" points="667.688,-412.62 671.708,-422.422 674.678,-412.253 667.688,-412.62"/>
</g>
<!-- Node114 -->
<g id="node46" class="node"><title>Node114</title>
<g id="a_node46"><a xlink:href="class_t_m_c2208_stepper.html#a8d1b1743b63ef0ab21a82da2acd5c465" target="_top" xlink:title=" ">
<polygon fill="white" stroke="black" points="395,-38.5 395,-57.5 537,-57.5 537,-38.5 395,-38.5"/>
<text text-anchor="middle" x="466" y="-45.5" font-family="Helvetica,sans-Serif" font-size="10.00">TMC2208Stepper::senddelay</text>
</a>
</g>
</g>
<!-- Node97&#45;&gt;Node114 -->
<g id="edge49" class="edge"><title>Node97&#45;&gt;Node114</title>
<path fill="none" stroke="midnightblue" d="M672.015,-412.04C670.912,-350.477 658.744,-161.983 554,-67 549.075,-62.5343 543.351,-59.0328 537.233,-56.2974"/>
<polygon fill="midnightblue" stroke="midnightblue" points="668.517,-412.336 672.112,-422.303 675.517,-412.27 668.517,-412.336"/>
</g>
<!-- Node115 -->
<g id="node47" class="node"><title>Node115</title>
<g id="a_node47"><a xlink:href="class_t_m_c2209_stepper.html#ac02a95cfd0f560a2705136717f50d957" target="_top" xlink:title=" ">
<polygon fill="white" stroke="black" points="397.5,-0.5 397.5,-19.5 534.5,-19.5 534.5,-0.5 397.5,-0.5"/>
<text text-anchor="middle" x="466" y="-7.5" font-family="Helvetica,sans-Serif" font-size="10.00">TMC2209Stepper::SGTHRS</text>
</a>
</g>
</g>
<!-- Node97&#45;&gt;Node115 -->
<g id="edge50" class="edge"><title>Node97&#45;&gt;Node115</title>
<path fill="none" stroke="midnightblue" d="M672.717,-412.174C673.929,-346.732 668.428,-135.705 554,-29 548.46,-23.8336 541.853,-19.9488 534.791,-17.0444"/>
<polygon fill="midnightblue" stroke="midnightblue" points="669.214,-412.244 672.448,-422.334 676.212,-412.43 669.214,-412.244"/>
</g>
<!-- Node116 -->
<g id="node48" class="node"><title>Node116</title>
<g id="a_node48"><a xlink:href="class_t_m_c2208_stepper.html#a62c4c6100151acdbae6de579009b9f0d" target="_top" xlink:title=" ">
<polygon fill="white" stroke="black" points="387.5,-783.5 387.5,-802.5 544.5,-802.5 544.5,-783.5 387.5,-783.5"/>
<text text-anchor="middle" x="466" y="-790.5" font-family="Helvetica,sans-Serif" font-size="10.00">TMC2208Stepper::SLAVECONF</text>
</a>
</g>
</g>
<!-- Node97&#45;&gt;Node116 -->
<g id="edge51" class="edge"><title>Node97&#45;&gt;Node116</title>
<path fill="none" stroke="midnightblue" d="M663.6,-451.308C647.88,-487.871 613.484,-569.926 590,-641 570.788,-699.147 598.357,-731.779 554,-774 550.081,-777.731 545.607,-780.796 540.803,-783.309"/>
<polygon fill="midnightblue" stroke="midnightblue" points="666.927,-452.433 667.681,-441.865 660.502,-449.656 666.927,-452.433"/>
</g>
<!-- Node117 -->
<g id="node49" class="node"><title>Node117</title>
<g id="a_node49"><a xlink:href="class_t_m_c2209_stepper.html#acc61f21e6584dc64bd9bd025fd7bc29a" target="_top" xlink:title=" ">
<polygon fill="white" stroke="black" points="388.5,-745.5 388.5,-764.5 543.5,-764.5 543.5,-745.5 388.5,-745.5"/>
<text text-anchor="middle" x="466" y="-752.5" font-family="Helvetica,sans-Serif" font-size="10.00">TMC2209Stepper::TCOOLTHRS</text>
</a>
</g>
</g>
<!-- Node97&#45;&gt;Node117 -->
<g id="edge52" class="edge"><title>Node97&#45;&gt;Node117</title>
<path fill="none" stroke="midnightblue" d="M664.453,-451.017C649.913,-487.704 617.06,-570.829 590,-641 573.754,-683.128 588.189,-706.507 554,-736 549.552,-739.837 544.507,-742.954 539.141,-745.48"/>
<polygon fill="midnightblue" stroke="midnightblue" points="667.768,-452.153 668.2,-441.567 661.261,-449.573 667.768,-452.153"/>
</g>
<!-- Node118 -->
<g id="node50" class="node"><title>Node118</title>
<g id="a_node50"><a xlink:href="class_t_m_c2208_stepper.html#a9e9792fafdbbf0681daf613b2a5f507a" target="_top" xlink:title=" ">
<polygon fill="white" stroke="black" points="395,-707.5 395,-726.5 537,-726.5 537,-707.5 395,-707.5"/>
<text text-anchor="middle" x="466" y="-714.5" font-family="Helvetica,sans-Serif" font-size="10.00">TMC2208Stepper::VACTUAL</text>
</a>
</g>
</g>
<!-- Node97&#45;&gt;Node118 -->
<g id="edge53" class="edge"><title>Node97&#45;&gt;Node118</title>
<path fill="none" stroke="midnightblue" d="M664.671,-451.136C642.239,-509.298 574.778,-681.054 554,-698 548.968,-702.104 543.245,-705.372 537.194,-707.97"/>
<polygon fill="midnightblue" stroke="midnightblue" points="667.992,-452.251 668.314,-441.661 661.458,-449.739 667.992,-452.251"/>
</g>
</g>
</svg>
