<?xml version="1.0" encoding="UTF-8" standalone="no"?>
<!DOCTYPE svg PUBLIC "-//W3C//DTD SVG 1.1//EN"
 "http://www.w3.org/Graphics/SVG/1.1/DTD/svg11.dtd">
<!-- Generated by graphviz version 2.38.0 (20140413.2041)
 -->
<!-- Title: TMCStepper::reset Pages: 1 -->
<svg width="381pt" height="28pt"
 viewBox="0.00 0.00 381.00 28.00" xmlns="http://www.w3.org/2000/svg" xmlns:xlink="http://www.w3.org/1999/xlink">
<g id="graph0" class="graph" transform="scale(1 1) rotate(0) translate(4 24)">
<title>TMCStepper::reset</title>
<polygon fill="white" stroke="none" points="-4,4 -4,-24 377,-24 377,4 -4,4"/>
<!-- Node1 -->
<g id="node1" class="node"><title>Node1</title>
<g id="a_node1"><a xlink:title=" ">
<polygon fill="#bfbfbf" stroke="black" points="0,-0.5 0,-19.5 98,-19.5 98,-0.5 0,-0.5"/>
<text text-anchor="middle" x="49" y="-7.5" font-family="Helvetica,sans-Serif" font-size="10.00">TMCStepper::reset</text>
</a>
</g>
</g>
<!-- Node2 -->
<g id="node2" class="node"><title>Node2</title>
<g id="a_node2"><a xlink:href="class_t_m_c_stepper.html#ac7874c4b56bd1b3acce522c1e7d7dfed" target="_top" xlink:title=" ">
<polygon fill="white" stroke="black" points="134,-0.5 134,-19.5 242,-19.5 242,-0.5 134,-0.5"/>
<text text-anchor="middle" x="188" y="-7.5" font-family="Helvetica,sans-Serif" font-size="10.00">TMCStepper::GSTAT</text>
</a>
</g>
</g>
<!-- Node1&#45;&gt;Node2 -->
<g id="edge1" class="edge"><title>Node1&#45;&gt;Node2</title>
<path fill="none" stroke="midnightblue" d="M98.3011,-10C106.407,-10 114.927,-10 123.349,-10"/>
<polygon fill="midnightblue" stroke="midnightblue" points="123.539,-13.5001 133.539,-10 123.539,-6.5001 123.539,-13.5001"/>
</g>
<!-- Node3 -->
<g id="node3" class="node"><title>Node3</title>
<g id="a_node3"><a xlink:href="class_t_m_c_stepper.html#a55984b797e1b4d3fd9e253277b19b8bd" target="_top" xlink:title=" ">
<polygon fill="white" stroke="black" points="278,-0.5 278,-19.5 373,-19.5 373,-0.5 278,-0.5"/>
<text text-anchor="middle" x="325.5" y="-7.5" font-family="Helvetica,sans-Serif" font-size="10.00">TMCStepper::read</text>
</a>
</g>
</g>
<!-- Node2&#45;&gt;Node3 -->
<g id="edge2" class="edge"><title>Node2&#45;&gt;Node3</title>
<path fill="none" stroke="midnightblue" d="M242.164,-10C250.493,-10 259.13,-10 267.539,-10"/>
<polygon fill="midnightblue" stroke="midnightblue" points="267.648,-13.5001 277.648,-10 267.648,-6.5001 267.648,-13.5001"/>
</g>
</g>
</svg>
