<?xml version="1.0" encoding="UTF-8" standalone="no"?>
<!DOCTYPE svg PUBLIC "-//W3C//DTD SVG 1.1//EN"
 "http://www.w3.org/Graphics/SVG/1.1/DTD/svg11.dtd">
<!-- Generated by graphviz version 2.38.0 (20140413.2041)
 -->
<!-- Title: SW_SPIClass::transfer Pages: 1 -->
<!--zoomable 1738 -->
<svg id="main" version="1.1" xmlns="http://www.w3.org/2000/svg" xmlns:xlink="http://www.w3.org/1999/xlink" xml:space="preserve" onload="init(evt)">
<style type="text/css"><![CDATA[
.edge:hover path { stroke: red; }
.edge:hover polygon { stroke: red; fill: red; }
]]></style>
<script type="text/javascript"><![CDATA[
var edges = document.getElementsByTagName('g');
if (edges && edges.length) {
  for (var i=0;i<edges.length;i++) {
    if (edges[i].id.substr(0,4)=='edge') {
      edges[i].setAttribute('class','edge');
    }
  }
}
]]></script>
        <defs>
                <circle id="rim" cx="0" cy="0" r="7"/>
                <circle id="rim2" cx="0" cy="0" r="3.5"/>
                <g id="zoomPlus">
                        <use xlink:href="#rim" fill="#404040">
                                <set attributeName="fill" to="#808080" begin="zoomplus.mouseover" end="zoomplus.mouseout"/>
                        </use>
                        <path d="M-4,0h8M0,-4v8" fill="none" stroke="white" stroke-width="1.5" pointer-events="none"/>
                </g>
                <g id="zoomMin">
                        <use xlink:href="#rim" fill="#404040">
                                <set attributeName="fill" to="#808080" begin="zoomminus.mouseover" end="zoomminus.mouseout"/>
                        </use>
                        <path d="M-4,0h8" fill="none" stroke="white" stroke-width="1.5" pointer-events="none"/>
                </g>
                <g id="dirArrow">
                        <path fill="none" stroke="white" stroke-width="1.5" d="M0,-3.0v7 M-2.5,-0.5L0,-3.0L2.5,-0.5"/>
                </g>
               <g id="resetDef">
                       <use xlink:href="#rim2" fill="#404040">
                               <set attributeName="fill" to="#808080" begin="reset.mouseover" end="reset.mouseout"/>
                       </use>
               </g>
        </defs>

<script type="text/javascript">
var viewWidth = 684;
var viewHeight = 1738;
var sectionId = 'dynsection-1';
</script>
<script xlink:href="svgpan.js"/>
<svg id="graph" class="graph">
<g id="viewport">
<title>SW_SPIClass::transfer</title>
<polygon fill="white" stroke="none" points="-4,4 -4,-1734 680,-1734 680,4 -4,4"/>
<!-- Node1 -->
<g id="node1" class="node"><title>Node1</title>
<g id="a_node1"><a xlink:title=" ">
<polygon fill="#bfbfbf" stroke="black" points="559,-1124.5 559,-1143.5 676,-1143.5 676,-1124.5 559,-1124.5"/>
<text text-anchor="middle" x="617.5" y="-1131.5" font-family="Helvetica,sans-Serif" font-size="10.00">SW_SPIClass::transfer</text>
</a>
</g>
</g>
<!-- Node2 -->
<g id="node2" class="node"><title>Node2</title>
<g id="a_node2"><a xlink:href="class_t_m_c2130_stepper.html#aed0175bff6e80ebc14e0d2606283cbe0" target="_top" xlink:title=" ">
<polygon fill="white" stroke="black" points="223.5,-1162.5 223.5,-1181.5 339.5,-1181.5 339.5,-1162.5 223.5,-1162.5"/>
<text text-anchor="middle" x="281.5" y="-1169.5" font-family="Helvetica,sans-Serif" font-size="10.00">TMC2130Stepper::read</text>
</a>
</g>
</g>
<!-- Node1&#45;&gt;Node2 -->
<g id="edge1" class="edge"><title>Node1&#45;&gt;Node2</title>
<path fill="none" stroke="midnightblue" d="M565.093,-1145.61C551.466,-1148.37 536.725,-1151.07 523,-1153 460.579,-1161.77 388.431,-1166.8 339.566,-1169.45"/>
<polygon fill="midnightblue" stroke="midnightblue" points="566.181,-1148.96 575.262,-1143.51 564.759,-1142.11 566.181,-1148.96"/>
</g>
<!-- Node143 -->
<g id="node29" class="node"><title>Node143</title>
<g id="a_node29"><a xlink:href="class_t_m_c2660_stepper.html#aba43e2af829abee9e029bdd43bde5f61" target="_top" xlink:title=" ">
<polygon fill="white" stroke="black" points="401,-1200.5 401,-1219.5 517,-1219.5 517,-1200.5 401,-1200.5"/>
<text text-anchor="middle" x="459" y="-1207.5" font-family="Helvetica,sans-Serif" font-size="10.00">TMC2660Stepper::read</text>
</a>
</g>
</g>
<!-- Node1&#45;&gt;Node143 -->
<g id="edge28" class="edge"><title>Node1&#45;&gt;Node143</title>
<path fill="none" stroke="midnightblue" d="M592.284,-1148.73C573.697,-1159.73 547.2,-1174.73 523,-1186 511.647,-1191.29 498.778,-1196.35 487.644,-1200.45"/>
<polygon fill="midnightblue" stroke="midnightblue" points="594.187,-1151.67 600.979,-1143.54 590.599,-1145.66 594.187,-1151.67"/>
</g>
<!-- Node148 -->
<g id="node31" class="node"><title>Node148</title>
<g id="a_node31"><a xlink:href="class_s_w___s_p_i_class.html#a1b7600aa1d9571c103718c5d3e376675" target="_top" xlink:title=" ">
<polygon fill="white" stroke="black" points="395,-1124.5 395,-1143.5 523,-1143.5 523,-1124.5 395,-1124.5"/>
<text text-anchor="middle" x="459" y="-1131.5" font-family="Helvetica,sans-Serif" font-size="10.00">SW_SPIClass::transfer16</text>
</a>
</g>
</g>
<!-- Node1&#45;&gt;Node148 -->
<g id="edge30" class="edge"><title>Node1&#45;&gt;Node148</title>
<path fill="none" stroke="midnightblue" d="M548.493,-1134C540.063,-1134 531.471,-1134 523.118,-1134"/>
<polygon fill="midnightblue" stroke="midnightblue" points="548.67,-1137.5 558.67,-1134 548.67,-1130.5 548.67,-1137.5"/>
</g>
<!-- Node149 -->
<g id="node32" class="node"><title>Node149</title>
<g id="a_node32"><a xlink:href="class_t_m_c2130_stepper.html#a1f26f0ea072d38c0afd20f27563ebb64" target="_top" xlink:title=" ">
<polygon fill="white" stroke="red" points="222.5,-342.5 222.5,-361.5 340.5,-361.5 340.5,-342.5 222.5,-342.5"/>
<text text-anchor="middle" x="281.5" y="-349.5" font-family="Helvetica,sans-Serif" font-size="10.00">TMC2130Stepper::write</text>
</a>
</g>
</g>
<!-- Node1&#45;&gt;Node149 -->
<g id="edge50" class="edge"><title>Node1&#45;&gt;Node149</title>
<path fill="none" stroke="midnightblue" d="M557.997,-1122.4C496.182,-1109.61 406.084,-1089.23 395,-1077 293.622,-965.174 283.531,-439.024 282.592,-361.54"/>
<polygon fill="midnightblue" stroke="midnightblue" points="557.539,-1125.88 568.039,-1124.46 558.948,-1119.02 557.539,-1125.88"/>
</g>
<!-- Node198 -->
<g id="node50" class="node"><title>Node198</title>
<g id="a_node50"><a xlink:href="class_t_m_c2660_stepper.html#a4ab9b5cf6da0c345ecc50e877b54ada2" target="_top" xlink:title=" ">
<polygon fill="white" stroke="red" points="400,-1048.5 400,-1067.5 518,-1067.5 518,-1048.5 400,-1048.5"/>
<text text-anchor="middle" x="459" y="-1055.5" font-family="Helvetica,sans-Serif" font-size="10.00">TMC2660Stepper::write</text>
</a>
</g>
</g>
<!-- Node1&#45;&gt;Node198 -->
<g id="edge51" class="edge"><title>Node1&#45;&gt;Node198</title>
<path fill="none" stroke="midnightblue" d="M592.284,-1119.27C573.697,-1108.27 547.2,-1093.27 523,-1082 511.647,-1076.71 498.778,-1071.65 487.644,-1067.55"/>
<polygon fill="midnightblue" stroke="midnightblue" points="590.599,-1122.34 600.979,-1124.46 594.187,-1116.33 590.599,-1122.34"/>
</g>
<!-- Node3 -->
<g id="node3" class="node"><title>Node3</title>
<g id="a_node3"><a xlink:href="class_t_m_c2130_stepper.html#a67541b27d97ce45f175e9f6e4a2d0bff" target="_top" xlink:title=" ">
<polygon fill="white" stroke="red" points="8,-1029.5 8,-1048.5 160,-1048.5 160,-1029.5 8,-1029.5"/>
<text text-anchor="middle" x="84" y="-1036.5" font-family="Helvetica,sans-Serif" font-size="10.00">TMC2130Stepper::CHOPCONF</text>
</a>
</g>
</g>
<!-- Node2&#45;&gt;Node3 -->
<g id="edge2" class="edge"><title>Node2&#45;&gt;Node3</title>
<path fill="none" stroke="midnightblue" d="M267.893,-1153.85C249.161,-1128.32 211.479,-1082.24 168,-1058 161.028,-1054.11 153.304,-1051.02 145.455,-1048.56"/>
<polygon fill="midnightblue" stroke="midnightblue" points="265.242,-1156.16 273.913,-1162.24 270.93,-1152.08 265.242,-1156.16"/>
</g>
<!-- Node46 -->
<g id="node4" class="node"><title>Node46</title>
<g id="a_node4"><a xlink:href="class_t_m_c2130_stepper.html#a1a90b2919efe61dd825552c2fbeca993" target="_top" xlink:title=" ">
<polygon fill="white" stroke="red" points="16.5,-991.5 16.5,-1010.5 151.5,-1010.5 151.5,-991.5 16.5,-991.5"/>
<text text-anchor="middle" x="84" y="-998.5" font-family="Helvetica,sans-Serif" font-size="10.00">TMC2130Stepper::DCCTRL</text>
</a>
</g>
</g>
<!-- Node2&#45;&gt;Node46 -->
<g id="edge3" class="edge"><title>Node2&#45;&gt;Node46</title>
<path fill="none" stroke="midnightblue" d="M271.984,-1152.98C256.34,-1120.34 219.812,-1053.9 168,-1020 162.062,-1016.12 155.433,-1013.02 148.581,-1010.55"/>
<polygon fill="midnightblue" stroke="midnightblue" points="268.931,-1154.72 276.323,-1162.31 275.278,-1151.77 268.931,-1154.72"/>
</g>
<!-- Node49 -->
<g id="node5" class="node"><title>Node49</title>
<g id="a_node5"><a xlink:href="class_t_m_c2130_stepper.html#a8d6feb6e1ed123a0b1008d80b6d53287" target="_top" xlink:title=" ">
<polygon fill="white" stroke="black" points="25,-942 25,-972 143,-972 143,-942 25,-942"/>
<text text-anchor="start" x="33" y="-960" font-family="Helvetica,sans-Serif" font-size="10.00">TMC2130Stepper::DRV</text>
<text text-anchor="middle" x="84" y="-949" font-family="Helvetica,sans-Serif" font-size="10.00">_STATUS</text>
</a>
</g>
</g>
<!-- Node2&#45;&gt;Node49 -->
<g id="edge4" class="edge"><title>Node2&#45;&gt;Node49</title>
<path fill="none" stroke="midnightblue" d="M274.36,-1152.49C261.241,-1114.01 226.784,-1028.04 168,-982 160.654,-976.247 151.998,-971.814 143.097,-968.4"/>
<polygon fill="midnightblue" stroke="midnightblue" points="271.176,-1154.01 277.625,-1162.42 277.825,-1151.83 271.176,-1154.01"/>
</g>
<!-- Node50 -->
<g id="node6" class="node"><title>Node50</title>
<g id="a_node6"><a xlink:href="class_t_m_c5130_stepper.html#a2dfc06fb1bfb9610b94257c822d803f4" target="_top" xlink:title=" ">
<polygon fill="white" stroke="black" points="25,-893 25,-923 143,-923 143,-893 25,-893"/>
<text text-anchor="start" x="33" y="-911" font-family="Helvetica,sans-Serif" font-size="10.00">TMC5130Stepper::ENC</text>
<text text-anchor="middle" x="84" y="-900" font-family="Helvetica,sans-Serif" font-size="10.00">_LATCH</text>
</a>
</g>
</g>
<!-- Node2&#45;&gt;Node50 -->
<g id="edge5" class="edge"><title>Node2&#45;&gt;Node50</title>
<path fill="none" stroke="midnightblue" d="M276.946,-1152.12C267.686,-1106.21 238.465,-992.196 168,-932 160.815,-925.862 152.139,-921.291 143.142,-917.889"/>
<polygon fill="midnightblue" stroke="midnightblue" points="273.523,-1152.85 278.841,-1162.01 280.398,-1151.53 273.523,-1152.85"/>
</g>
<!-- Node51 -->
<g id="node7" class="node"><title>Node51</title>
<g id="a_node7"><a xlink:href="class_t_m_c5130_stepper.html#aa51b7320a8feccf48756dbd81638be43" target="_top" xlink:title=" ">
<polygon fill="white" stroke="black" points="25,-844 25,-874 143,-874 143,-844 25,-844"/>
<text text-anchor="start" x="33" y="-862" font-family="Helvetica,sans-Serif" font-size="10.00">TMC5130Stepper::ENC</text>
<text text-anchor="middle" x="84" y="-851" font-family="Helvetica,sans-Serif" font-size="10.00">_STATUS</text>
</a>
</g>
</g>
<!-- Node2&#45;&gt;Node51 -->
<g id="edge6" class="edge"><title>Node2&#45;&gt;Node51</title>
<path fill="none" stroke="midnightblue" d="M278.704,-1152.09C272.912,-1099.9 250.021,-957.972 168,-883 160.914,-876.523 152.184,-871.785 143.074,-868.32"/>
<polygon fill="midnightblue" stroke="midnightblue" points="275.25,-1152.73 279.743,-1162.33 282.215,-1152.03 275.25,-1152.73"/>
</g>
<!-- Node52 -->
<g id="node8" class="node"><title>Node52</title>
<g id="a_node8"><a xlink:href="class_t_m_c5160_stepper.html#a3a64ce4aeeda0a8c3fbe07baed1c5317" target="_top" xlink:title=" ">
<polygon fill="white" stroke="black" points="25,-795 25,-825 143,-825 143,-795 25,-795"/>
<text text-anchor="start" x="33" y="-813" font-family="Helvetica,sans-Serif" font-size="10.00">TMC5160Stepper::ENC</text>
<text text-anchor="middle" x="84" y="-802" font-family="Helvetica,sans-Serif" font-size="10.00">_STATUS</text>
</a>
</g>
</g>
<!-- Node2&#45;&gt;Node52 -->
<g id="edge7" class="edge"><title>Node2&#45;&gt;Node52</title>
<path fill="none" stroke="midnightblue" d="M279.98,-1151.92C277.361,-1093.83 261.66,-924.002 168,-834 161.078,-827.348 152.429,-822.522 143.35,-819.025"/>
<polygon fill="midnightblue" stroke="midnightblue" points="276.496,-1152.41 280.357,-1162.28 283.491,-1152.16 276.496,-1152.41"/>
</g>
<!-- Node53 -->
<g id="node9" class="node"><title>Node53</title>
<g id="a_node9"><a xlink:href="class_t_m_c5130_stepper.html#a3c7840e9435d4332fc6a7742deeefa9f" target="_top" xlink:title=" ">
<polygon fill="white" stroke="red" points="10.5,-756.5 10.5,-775.5 157.5,-775.5 157.5,-756.5 10.5,-756.5"/>
<text text-anchor="middle" x="84" y="-763.5" font-family="Helvetica,sans-Serif" font-size="10.00">TMC5130Stepper::ENCMODE</text>
</a>
</g>
</g>
<!-- Node2&#45;&gt;Node53 -->
<g id="edge8" class="edge"><title>Node2&#45;&gt;Node53</title>
<path fill="none" stroke="midnightblue" d="M281.207,-1152.2C282.33,-1088.59 276.743,-887.626 168,-785 164.022,-781.246 159.46,-778.18 154.567,-775.682"/>
<polygon fill="midnightblue" stroke="midnightblue" points="277.703,-1152.34 280.943,-1162.42 284.7,-1152.52 277.703,-1152.34"/>
</g>
<!-- Node54 -->
<g id="node10" class="node"><title>Node54</title>
<g id="a_node10"><a xlink:href="class_t_m_c2130_stepper.html#aee84a9abfc84b387c6ae5658f90bf684" target="_top" xlink:title=" ">
<polygon fill="white" stroke="red" points="18,-718.5 18,-737.5 150,-737.5 150,-718.5 18,-718.5"/>
<text text-anchor="middle" x="84" y="-725.5" font-family="Helvetica,sans-Serif" font-size="10.00">TMC2130Stepper::GCONF</text>
</a>
</g>
</g>
<!-- Node2&#45;&gt;Node54 -->
<g id="edge9" class="edge"><title>Node2&#45;&gt;Node54</title>
<path fill="none" stroke="midnightblue" d="M277.994,-1152.32C267.96,-1076.6 228.284,-805.284 168,-747 162.899,-742.068 156.793,-738.318 150.237,-735.479"/>
<polygon fill="midnightblue" stroke="midnightblue" points="274.542,-1152.92 279.304,-1162.39 281.484,-1152.02 274.542,-1152.92"/>
</g>
<!-- Node93 -->
<g id="node11" class="node"><title>Node93</title>
<g id="a_node11"><a xlink:href="class_t_m_c5130_stepper.html#a2d2a5babc82b261952616363464fcd47" target="_top" xlink:title=" ">
<polygon fill="white" stroke="black" points="21.5,-680.5 21.5,-699.5 146.5,-699.5 146.5,-680.5 21.5,-680.5"/>
<text text-anchor="middle" x="84" y="-687.5" font-family="Helvetica,sans-Serif" font-size="10.00">TMC5130Stepper::IFCNT</text>
</a>
</g>
</g>
<!-- Node2&#45;&gt;Node93 -->
<g id="edge10" class="edge"><title>Node2&#45;&gt;Node93</title>
<path fill="none" stroke="midnightblue" d="M278.43,-1152.14C269.673,-1071.95 233.1,-773.238 168,-709 162.002,-703.082 154.561,-698.857 146.616,-695.865"/>
<polygon fill="midnightblue" stroke="midnightblue" points="274.976,-1152.76 279.52,-1162.33 281.937,-1152.02 274.976,-1152.76"/>
</g>
<!-- Node94 -->
<g id="node12" class="node"><title>Node94</title>
<g id="a_node12"><a xlink:href="class_t_m_c2130_stepper.html#adde2041047c82600f5e01f52118f92a0" target="_top" xlink:title=" ">
<polygon fill="white" stroke="red" points="26,-1710.5 26,-1729.5 142,-1729.5 142,-1710.5 26,-1710.5"/>
<text text-anchor="middle" x="84" y="-1717.5" font-family="Helvetica,sans-Serif" font-size="10.00">TMC2130Stepper::IOIN</text>
</a>
</g>
</g>
<!-- Node2&#45;&gt;Node94 -->
<g id="edge11" class="edge"><title>Node2&#45;&gt;Node94</title>
<path fill="none" stroke="midnightblue" d="M213.972,-1182.35C210.255,-1184.73 206.872,-1187.58 204,-1191 130.901,-1277.98 241.896,-1614.7 168,-1701 161.27,-1708.86 152.014,-1713.84 142.118,-1716.93"/>
<polygon fill="midnightblue" stroke="midnightblue" points="215.878,-1185.3 223.166,-1177.61 212.673,-1179.08 215.878,-1185.3"/>
</g>
<!-- Node102 -->
<g id="node13" class="node"><title>Node102</title>
<g id="a_node13"><a xlink:href="class_t_m_c2160_stepper.html#a3d1beb78c3356e99799915df3b424e60" target="_top" xlink:title=" ">
<polygon fill="white" stroke="red" points="26,-1672.5 26,-1691.5 142,-1691.5 142,-1672.5 26,-1672.5"/>
<text text-anchor="middle" x="84" y="-1679.5" font-family="Helvetica,sans-Serif" font-size="10.00">TMC2160Stepper::IOIN</text>
</a>
</g>
</g>
<!-- Node2&#45;&gt;Node102 -->
<g id="edge12" class="edge"><title>Node2&#45;&gt;Node102</title>
<path fill="none" stroke="midnightblue" d="M213.994,-1182.36C210.272,-1184.74 206.882,-1187.59 204,-1191 136.093,-1271.34 236.644,-1583.29 168,-1663 161.248,-1670.84 151.982,-1675.81 142.083,-1678.9"/>
<polygon fill="midnightblue" stroke="midnightblue" points="215.901,-1185.32 223.196,-1177.64 212.702,-1179.09 215.901,-1185.32"/>
</g>
<!-- Node110 -->
<g id="node14" class="node"><title>Node110</title>
<g id="a_node14"><a xlink:href="class_t_m_c5130_stepper.html#a74e9e262a8da77925d246916b431161d" target="_top" xlink:title=" ">
<polygon fill="white" stroke="red" points="26,-1634.5 26,-1653.5 142,-1653.5 142,-1634.5 26,-1634.5"/>
<text text-anchor="middle" x="84" y="-1641.5" font-family="Helvetica,sans-Serif" font-size="10.00">TMC5130Stepper::IOIN</text>
</a>
</g>
</g>
<!-- Node2&#45;&gt;Node110 -->
<g id="edge13" class="edge"><title>Node2&#45;&gt;Node110</title>
<path fill="none" stroke="midnightblue" d="M214.02,-1182.39C210.292,-1184.76 206.893,-1187.6 204,-1191 141.282,-1264.7 231.394,-1551.88 168,-1625 161.222,-1632.82 151.944,-1637.78 142.042,-1640.87"/>
<polygon fill="midnightblue" stroke="midnightblue" points="215.927,-1185.34 223.232,-1177.67 212.736,-1179.11 215.927,-1185.34"/>
</g>
<!-- Node122 -->
<g id="node15" class="node"><title>Node122</title>
<g id="a_node15"><a xlink:href="class_t_m_c2130_stepper.html#ab5b7c77b1826da5c2e40a420880da513" target="_top" xlink:title=" ">
<polygon fill="white" stroke="black" points="23,-1585 23,-1615 145,-1615 145,-1585 23,-1585"/>
<text text-anchor="start" x="31" y="-1603" font-family="Helvetica,sans-Serif" font-size="10.00">TMC2130Stepper::LOST</text>
<text text-anchor="middle" x="84" y="-1592" font-family="Helvetica,sans-Serif" font-size="10.00">_STEPS</text>
</a>
</g>
</g>
<!-- Node2&#45;&gt;Node122 -->
<g id="edge14" class="edge"><title>Node2&#45;&gt;Node122</title>
<path fill="none" stroke="midnightblue" d="M214.061,-1182.42C210.324,-1184.78 206.912,-1187.62 204,-1191 148.106,-1255.97 222.282,-1508.67 168,-1575 161.995,-1582.34 153.919,-1587.58 145.155,-1591.31"/>
<polygon fill="midnightblue" stroke="midnightblue" points="215.971,-1185.38 223.29,-1177.72 212.792,-1179.14 215.971,-1185.38"/>
</g>
<!-- Node123 -->
<g id="node16" class="node"><title>Node123</title>
<g id="a_node16"><a xlink:href="class_t_m_c2160_stepper.html#a6e35363428a742e1e14cf225e683fa4c" target="_top" xlink:title=" ">
<polygon fill="white" stroke="black" points="0,-1546.5 0,-1565.5 168,-1565.5 168,-1546.5 0,-1546.5"/>
<text text-anchor="middle" x="84" y="-1553.5" font-family="Helvetica,sans-Serif" font-size="10.00">TMC2160Stepper::OFFSET_READ</text>
</a>
</g>
</g>
<!-- Node2&#45;&gt;Node123 -->
<g id="edge15" class="edge"><title>Node2&#45;&gt;Node123</title>
<path fill="none" stroke="midnightblue" d="M214.1,-1182.46C210.354,-1184.81 206.929,-1187.63 204,-1191 102.576,-1307.69 270.493,-1421.25 168,-1537 164.668,-1540.76 160.757,-1543.86 156.48,-1546.41"/>
<polygon fill="midnightblue" stroke="midnightblue" points="216.011,-1185.41 223.345,-1177.77 212.844,-1179.17 216.011,-1185.41"/>
</g>
<!-- Node124 -->
<g id="node17" class="node"><title>Node124</title>
<g id="a_node17"><a xlink:href="class_t_m_c5160_stepper.html#a7e8ae217437e9ca5ab353cb7a9d30b82" target="_top" xlink:title=" ">
<polygon fill="white" stroke="red" points="7,-1508.5 7,-1527.5 161,-1527.5 161,-1508.5 7,-1508.5"/>
<text text-anchor="middle" x="84" y="-1515.5" font-family="Helvetica,sans-Serif" font-size="10.00">TMC5160Stepper::PWM_AUTO</text>
</a>
</g>
</g>
<!-- Node2&#45;&gt;Node124 -->
<g id="edge16" class="edge"><title>Node2&#45;&gt;Node124</title>
<path fill="none" stroke="midnightblue" d="M214.463,-1182.3C210.582,-1184.69 207.032,-1187.56 204,-1191 112.931,-1294.45 260.017,-1396.4 168,-1499 164.644,-1502.74 160.716,-1505.82 156.426,-1508.36"/>
<polygon fill="midnightblue" stroke="midnightblue" points="216.037,-1185.43 223.413,-1177.82 212.904,-1179.17 216.037,-1185.43"/>
</g>
<!-- Node127 -->
<g id="node18" class="node"><title>Node127</title>
<g id="a_node18"><a xlink:href="class_t_m_c2130_stepper.html#ad207fa693692567d117d4b02c217a4e9" target="_top" xlink:title=" ">
<polygon fill="white" stroke="black" points="23,-1459 23,-1489 145,-1489 145,-1459 23,-1459"/>
<text text-anchor="start" x="31" y="-1477" font-family="Helvetica,sans-Serif" font-size="10.00">TMC2130Stepper::PWM</text>
<text text-anchor="middle" x="84" y="-1466" font-family="Helvetica,sans-Serif" font-size="10.00">_SCALE</text>
</a>
</g>
</g>
<!-- Node2&#45;&gt;Node127 -->
<g id="edge17" class="edge"><title>Node2&#45;&gt;Node127</title>
<path fill="none" stroke="midnightblue" d="M214.037,-1182.69C210.335,-1185 206.935,-1187.74 204,-1191 126.261,-1277.39 244.081,-1362.15 168,-1450 161.912,-1457.03 153.904,-1462.06 145.264,-1465.65"/>
<polygon fill="midnightblue" stroke="midnightblue" points="215.805,-1185.72 223.147,-1178.08 212.644,-1179.48 215.805,-1185.72"/>
</g>
<!-- Node128 -->
<g id="node19" class="node"><title>Node128</title>
<g id="a_node19"><a xlink:href="class_t_m_c2160_stepper.html#a105381369f3d6267e907ff4ea0b31aac" target="_top" xlink:title=" ">
<polygon fill="white" stroke="red" points="23,-1410 23,-1440 145,-1440 145,-1410 23,-1410"/>
<text text-anchor="start" x="31" y="-1428" font-family="Helvetica,sans-Serif" font-size="10.00">TMC2160Stepper::PWM</text>
<text text-anchor="middle" x="84" y="-1417" font-family="Helvetica,sans-Serif" font-size="10.00">_SCALE</text>
</a>
</g>
</g>
<!-- Node2&#45;&gt;Node128 -->
<g id="edge18" class="edge"><title>Node2&#45;&gt;Node128</title>
<path fill="none" stroke="midnightblue" d="M214.157,-1182.8C210.427,-1185.08 206.987,-1187.79 204,-1191 139.822,-1260.03 230.463,-1329.41 168,-1400 161.817,-1406.99 153.76,-1412.06 145.1,-1415.73"/>
<polygon fill="midnightblue" stroke="midnightblue" points="215.929,-1185.83 223.317,-1178.24 212.806,-1179.57 215.929,-1185.83"/>
</g>
<!-- Node131 -->
<g id="node20" class="node"><title>Node131</title>
<g id="a_node20"><a xlink:href="class_t_m_c5130_stepper.html#a1acd1a115fcf4dc050b3b0948cff9dc4" target="_top" xlink:title=" ">
<polygon fill="white" stroke="black" points="6.5,-1371.5 6.5,-1390.5 161.5,-1390.5 161.5,-1371.5 6.5,-1371.5"/>
<text text-anchor="middle" x="84" y="-1378.5" font-family="Helvetica,sans-Serif" font-size="10.00">TMC5130Stepper::RAMP_STAT</text>
</a>
</g>
</g>
<!-- Node2&#45;&gt;Node131 -->
<g id="edge19" class="edge"><title>Node2&#45;&gt;Node131</title>
<path fill="none" stroke="midnightblue" d="M214.095,-1183.05C210.407,-1185.27 206.993,-1187.9 204,-1191 150.078,-1246.9 222.434,-1306.6 168,-1362 164.27,-1365.8 159.948,-1368.9 155.274,-1371.43"/>
<polygon fill="midnightblue" stroke="midnightblue" points="215.72,-1186.15 223.123,-1178.57 212.609,-1179.88 215.72,-1186.15"/>
</g>
<!-- Node132 -->
<g id="node21" class="node"><title>Node132</title>
<g id="a_node21"><a xlink:href="class_t_m_c5130_stepper.html#a020e6ae2a6abce1a92338345aab2ae7c" target="_top" xlink:title=" ">
<polygon fill="white" stroke="red" points="6.5,-1333.5 6.5,-1352.5 161.5,-1352.5 161.5,-1333.5 6.5,-1333.5"/>
<text text-anchor="middle" x="84" y="-1340.5" font-family="Helvetica,sans-Serif" font-size="10.00">TMC5130Stepper::RAMPMODE</text>
</a>
</g>
</g>
<!-- Node2&#45;&gt;Node132 -->
<g id="edge20" class="edge"><title>Node2&#45;&gt;Node132</title>
<path fill="none" stroke="midnightblue" d="M214.295,-1183.25C210.56,-1185.42 207.08,-1187.98 204,-1191 160.248,-1233.85 212.145,-1281.56 168,-1324 164.057,-1327.79 159.52,-1330.88 154.643,-1333.4"/>
<polygon fill="midnightblue" stroke="midnightblue" points="215.921,-1186.35 223.406,-1178.85 212.879,-1180.05 215.921,-1186.35"/>
</g>
<!-- Node134 -->
<g id="node22" class="node"><title>Node134</title>
<g id="a_node22"><a xlink:href="class_t_m_c5130_stepper.html#af78bc5ec6076b4e7ac8006488b069413" target="_top" xlink:title=" ">
<polygon fill="white" stroke="red" points="9.5,-1295.5 9.5,-1314.5 158.5,-1314.5 158.5,-1295.5 9.5,-1295.5"/>
<text text-anchor="middle" x="84" y="-1302.5" font-family="Helvetica,sans-Serif" font-size="10.00">TMC5130Stepper::SW_MODE</text>
</a>
</g>
</g>
<!-- Node2&#45;&gt;Node134 -->
<g id="edge21" class="edge"><title>Node2&#45;&gt;Node134</title>
<path fill="none" stroke="midnightblue" d="M214.112,-1183.89C210.489,-1185.91 207.078,-1188.27 204,-1191 170.234,-1220.98 202.041,-1256.34 168,-1286 163.654,-1289.79 158.705,-1292.86 153.439,-1295.35"/>
<polygon fill="midnightblue" stroke="midnightblue" points="215.911,-1186.91 223.486,-1179.5 212.945,-1180.57 215.911,-1186.91"/>
</g>
<!-- Node135 -->
<g id="node23" class="node"><title>Node135</title>
<g id="a_node23"><a xlink:href="class_t_m_c5130_stepper.html#acd29f5c1f0f47342dd2d942c9c5252c1" target="_top" xlink:title=" ">
<polygon fill="white" stroke="black" points="13,-1257.5 13,-1276.5 155,-1276.5 155,-1257.5 13,-1257.5"/>
<text text-anchor="middle" x="84" y="-1264.5" font-family="Helvetica,sans-Serif" font-size="10.00">TMC5130Stepper::VACTUAL</text>
</a>
</g>
</g>
<!-- Node2&#45;&gt;Node135 -->
<g id="edge22" class="edge"><title>Node2&#45;&gt;Node135</title>
<path fill="none" stroke="midnightblue" d="M213.797,-1185.1C210.359,-1186.83 207.065,-1188.79 204,-1191 179.709,-1208.54 192.451,-1230.68 168,-1248 162.572,-1251.84 156.487,-1254.93 150.145,-1257.39"/>
<polygon fill="midnightblue" stroke="midnightblue" points="215.396,-1188.22 223.177,-1181.03 212.61,-1181.8 215.396,-1188.22"/>
</g>
<!-- Node136 -->
<g id="node24" class="node"><title>Node136</title>
<g id="a_node24"><a xlink:href="class_t_m_c5130_stepper.html#a432764a59619856079ecfb56ee426f2d" target="_top" xlink:title=" ">
<polygon fill="white" stroke="black" points="20,-1219.5 20,-1238.5 148,-1238.5 148,-1219.5 20,-1219.5"/>
<text text-anchor="middle" x="84" y="-1226.5" font-family="Helvetica,sans-Serif" font-size="10.00">TMC5130Stepper::X_ENC</text>
</a>
</g>
</g>
<!-- Node2&#45;&gt;Node136 -->
<g id="edge23" class="edge"><title>Node2&#45;&gt;Node136</title>
<path fill="none" stroke="midnightblue" d="M224.193,-1184.32C217.313,-1186.31 210.443,-1188.54 204,-1191 187.097,-1197.45 184.962,-1203.71 168,-1210 158.022,-1213.7 147.09,-1216.83 136.532,-1219.4"/>
<polygon fill="midnightblue" stroke="midnightblue" points="225.511,-1187.59 234.232,-1181.58 223.662,-1180.84 225.511,-1187.59"/>
</g>
<!-- Node137 -->
<g id="node25" class="node"><title>Node137</title>
<g id="a_node25"><a xlink:href="class_t_m_c5130_stepper.html#a7ddd27bea8034e6aec78ab2cf83cedd4" target="_top" xlink:title=" ">
<polygon fill="white" stroke="red" points="14,-1181.5 14,-1200.5 154,-1200.5 154,-1181.5 14,-1181.5"/>
<text text-anchor="middle" x="84" y="-1188.5" font-family="Helvetica,sans-Serif" font-size="10.00">TMC5130Stepper::XACTUAL</text>
</a>
</g>
</g>
<!-- Node2&#45;&gt;Node137 -->
<g id="edge24" class="edge"><title>Node2&#45;&gt;Node137</title>
<path fill="none" stroke="midnightblue" d="M213.332,-1178.53C194.261,-1180.38 173.463,-1182.4 154.27,-1184.27"/>
<polygon fill="midnightblue" stroke="midnightblue" points="213.813,-1182 223.428,-1177.55 213.136,-1175.03 213.813,-1182"/>
</g>
<!-- Node138 -->
<g id="node26" class="node"><title>Node138</title>
<g id="a_node26"><a xlink:href="class_t_m_c2130_stepper.html#af486cd4712be021c735fc3bcb8eee9f5" target="_top" xlink:title=" ">
<polygon fill="white" stroke="red" points="15.5,-1143.5 15.5,-1162.5 152.5,-1162.5 152.5,-1143.5 15.5,-1143.5"/>
<text text-anchor="middle" x="84" y="-1150.5" font-family="Helvetica,sans-Serif" font-size="10.00">TMC2130Stepper::XDIRECT</text>
</a>
</g>
</g>
<!-- Node2&#45;&gt;Node138 -->
<g id="edge25" class="edge"><title>Node2&#45;&gt;Node138</title>
<path fill="none" stroke="midnightblue" d="M213.335,-1165.47C193.677,-1163.56 172.184,-1161.47 152.506,-1159.56"/>
<polygon fill="midnightblue" stroke="midnightblue" points="213.136,-1168.97 223.428,-1166.45 213.813,-1162 213.136,-1168.97"/>
</g>
<!-- Node141 -->
<g id="node27" class="node"><title>Node141</title>
<g id="a_node27"><a xlink:href="class_t_m_c5130_stepper.html#aa027fe70ea5dc43b7bb0ac4452b4cbc3" target="_top" xlink:title=" ">
<polygon fill="white" stroke="black" points="17,-1105.5 17,-1124.5 151,-1124.5 151,-1105.5 17,-1105.5"/>
<text text-anchor="middle" x="84" y="-1112.5" font-family="Helvetica,sans-Serif" font-size="10.00">TMC5130Stepper::XLATCH</text>
</a>
</g>
</g>
<!-- Node2&#45;&gt;Node141 -->
<g id="edge26" class="edge"><title>Node2&#45;&gt;Node141</title>
<path fill="none" stroke="midnightblue" d="M245.224,-1159.07C223.196,-1151.24 194.15,-1141.39 168,-1134 155.908,-1130.58 142.696,-1127.34 130.44,-1124.53"/>
<polygon fill="midnightblue" stroke="midnightblue" points="244.22,-1162.42 254.815,-1162.5 246.58,-1155.83 244.22,-1162.42"/>
</g>
<!-- Node142 -->
<g id="node28" class="node"><title>Node142</title>
<g id="a_node28"><a xlink:href="class_t_m_c5130_stepper.html#ae33c13bf7dc95cd8a8a4d8e1c444f9e5" target="_top" xlink:title=" ">
<polygon fill="white" stroke="red" points="13.5,-1067.5 13.5,-1086.5 154.5,-1086.5 154.5,-1067.5 13.5,-1067.5"/>
<text text-anchor="middle" x="84" y="-1074.5" font-family="Helvetica,sans-Serif" font-size="10.00">TMC5130Stepper::XTARGET</text>
</a>
</g>
</g>
<!-- Node2&#45;&gt;Node142 -->
<g id="edge27" class="edge"><title>Node2&#45;&gt;Node142</title>
<path fill="none" stroke="midnightblue" d="M261.575,-1155.96C240.2,-1138.66 203.725,-1111.51 168,-1096 159.186,-1092.17 149.497,-1089.07 139.946,-1086.56"/>
<polygon fill="midnightblue" stroke="midnightblue" points="259.564,-1158.84 269.508,-1162.5 264.014,-1153.44 259.564,-1158.84"/>
</g>
<!-- Node144 -->
<g id="node30" class="node"><title>Node144</title>
<g id="a_node30"><a xlink:href="class_t_m_c2660_stepper.html#a124bab76346c3c6c17f812e8c4ad7a5c" target="_top" xlink:title=" ">
<polygon fill="white" stroke="red" points="204,-1200.5 204,-1219.5 359,-1219.5 359,-1200.5 204,-1200.5"/>
<text text-anchor="middle" x="281.5" y="-1207.5" font-family="Helvetica,sans-Serif" font-size="10.00">TMC2660Stepper::DRVSTATUS</text>
</a>
</g>
</g>
<!-- Node143&#45;&gt;Node144 -->
<g id="edge29" class="edge"><title>Node143&#45;&gt;Node144</title>
<path fill="none" stroke="midnightblue" d="M390.465,-1210C380.244,-1210 369.636,-1210 359.238,-1210"/>
<polygon fill="midnightblue" stroke="midnightblue" points="390.535,-1213.5 400.535,-1210 390.535,-1206.5 390.535,-1213.5"/>
</g>
<!-- Node148&#45;&gt;Node2 -->
<g id="edge31" class="edge"><title>Node148&#45;&gt;Node2</title>
<path fill="none" stroke="midnightblue" d="M403.722,-1145.75C378.906,-1151.13 349.889,-1157.41 326.468,-1162.48"/>
<polygon fill="midnightblue" stroke="midnightblue" points="404.681,-1149.13 413.714,-1143.59 403.2,-1142.28 404.681,-1149.13"/>
</g>
<!-- Node148&#45;&gt;Node149 -->
<g id="edge32" class="edge"><title>Node148&#45;&gt;Node149</title>
<path fill="none" stroke="midnightblue" d="M405.366,-1119.35C401.468,-1116.73 397.925,-1113.64 395,-1110 296.124,-986.996 283.892,-440.951 282.631,-361.624"/>
<polygon fill="midnightblue" stroke="midnightblue" points="403.925,-1122.55 414.363,-1124.37 407.336,-1116.44 403.925,-1122.55"/>
</g>
<!-- Node150 -->
<g id="node33" class="node"><title>Node150</title>
<g id="a_node33"><a xlink:href="class_t_m_c5130_stepper.html#a76052c6b0797d7f5707167f9dc38c070" target="_top" xlink:title=" ">
<polygon fill="white" stroke="black" points="29,-266.5 29,-285.5 139,-285.5 139,-266.5 29,-266.5"/>
<text text-anchor="middle" x="84" y="-273.5" font-family="Helvetica,sans-Serif" font-size="10.00">TMC5130Stepper::A1</text>
</a>
</g>
</g>
<!-- Node149&#45;&gt;Node150 -->
<g id="edge33" class="edge"><title>Node149&#45;&gt;Node150</title>
<path fill="none" stroke="midnightblue" d="M255.874,-337.307C233.59,-324.557 199.529,-306.402 168,-295 157.713,-291.28 146.438,-288.123 135.606,-285.514"/>
<polygon fill="midnightblue" stroke="midnightblue" points="254.255,-340.415 264.661,-342.405 257.768,-334.36 254.255,-340.415"/>
</g>
<!-- Node151 -->
<g id="node34" class="node"><title>Node151</title>
<g id="a_node34"><a xlink:href="class_t_m_c5130_stepper.html#a967f67e12de5fc725f34d1f07e751146" target="_top" xlink:title=" ">
<polygon fill="white" stroke="black" points="21.5,-228.5 21.5,-247.5 146.5,-247.5 146.5,-228.5 21.5,-228.5"/>
<text text-anchor="middle" x="84" y="-235.5" font-family="Helvetica,sans-Serif" font-size="10.00">TMC5130Stepper::AMAX</text>
</a>
</g>
</g>
<!-- Node149&#45;&gt;Node151 -->
<g id="edge34" class="edge"><title>Node149&#45;&gt;Node151</title>
<path fill="none" stroke="midnightblue" d="M265.445,-335.045C245.378,-313.533 207.748,-276.849 168,-257 160.197,-253.103 151.582,-249.994 142.944,-247.515"/>
<polygon fill="midnightblue" stroke="midnightblue" points="262.913,-337.462 272.244,-342.48 268.079,-332.738 262.913,-337.462"/>
</g>
<!-- Node152 -->
<g id="node35" class="node"><title>Node152</title>
<g id="a_node35"><a xlink:href="class_t_m_c2130_stepper.html#a8f881532eca7813597a1292ed060d18c" target="_top" xlink:title=" ">
<polygon fill="white" stroke="black" points="8,-190.5 8,-209.5 160,-209.5 160,-190.5 8,-190.5"/>
<text text-anchor="middle" x="84" y="-197.5" font-family="Helvetica,sans-Serif" font-size="10.00">TMC2130Stepper::CHOPCONF</text>
</a>
</g>
</g>
<!-- Node149&#45;&gt;Node152 -->
<g id="edge35" class="edge"><title>Node149&#45;&gt;Node152</title>
<path fill="none" stroke="midnightblue" d="M270.389,-333.734C253.291,-304.643 215.81,-248.107 168,-219 161.687,-215.156 154.673,-212.089 147.474,-209.642"/>
<polygon fill="midnightblue" stroke="midnightblue" points="267.384,-335.531 275.392,-342.469 273.459,-332.052 267.384,-335.531"/>
</g>
<!-- Node153 -->
<g id="node36" class="node"><title>Node153</title>
<g id="a_node36"><a xlink:href="class_t_m_c2130_stepper.html#a11e7ca8148bc856a18af9fa0394a647d" target="_top" xlink:title=" ">
<polygon fill="white" stroke="black" points="21.5,-152.5 21.5,-171.5 146.5,-171.5 146.5,-152.5 21.5,-152.5"/>
<text text-anchor="middle" x="84" y="-159.5" font-family="Helvetica,sans-Serif" font-size="10.00">TMC2130Stepper::coil_A</text>
</a>
</g>
</g>
<!-- Node149&#45;&gt;Node153 -->
<g id="edge36" class="edge"><title>Node149&#45;&gt;Node153</title>
<path fill="none" stroke="midnightblue" d="M273.457,-332.648C259.348,-296.746 224.079,-219.942 168,-181 161.565,-176.531 154.236,-173.098 146.661,-170.464"/>
<polygon fill="midnightblue" stroke="midnightblue" points="270.335,-334.284 277.156,-342.39 276.879,-331.799 270.335,-334.284"/>
</g>
<!-- Node154 -->
<g id="node37" class="node"><title>Node154</title>
<g id="a_node37"><a xlink:href="class_t_m_c2130_stepper.html#a40464704d8da6ad1998cb0c1ea564cce" target="_top" xlink:title=" ">
<polygon fill="white" stroke="black" points="21.5,-114.5 21.5,-133.5 146.5,-133.5 146.5,-114.5 21.5,-114.5"/>
<text text-anchor="middle" x="84" y="-121.5" font-family="Helvetica,sans-Serif" font-size="10.00">TMC2130Stepper::coil_B</text>
</a>
</g>
</g>
<!-- Node149&#45;&gt;Node154 -->
<g id="edge37" class="edge"><title>Node149&#45;&gt;Node154</title>
<path fill="none" stroke="midnightblue" d="M275.834,-332.469C264.797,-290.708 232.995,-192.514 168,-143 161.65,-138.163 154.286,-134.521 146.618,-131.785"/>
<polygon fill="midnightblue" stroke="midnightblue" points="272.46,-333.401 278.304,-342.238 279.246,-331.685 272.46,-333.401"/>
</g>
<!-- Node155 -->
<g id="node38" class="node"><title>Node155</title>
<g id="a_node38"><a xlink:href="class_t_m_c2130_stepper.html#afc1072e86397d2646fd4fb7b30e41ab8" target="_top" xlink:title=" ">
<polygon fill="white" stroke="black" points="8,-76.5 8,-95.5 160,-95.5 160,-76.5 8,-76.5"/>
<text text-anchor="middle" x="84" y="-83.5" font-family="Helvetica,sans-Serif" font-size="10.00">TMC2130Stepper::COOLCONF</text>
</a>
</g>
</g>
<!-- Node149&#45;&gt;Node155 -->
<g id="edge38" class="edge"><title>Node149&#45;&gt;Node155</title>
<path fill="none" stroke="midnightblue" d="M277.535,-332.244C269.373,-285.088 242.043,-165.395 168,-105 163.303,-101.169 157.982,-98.078 152.357,-95.5879"/>
<polygon fill="midnightblue" stroke="midnightblue" points="274.12,-333.046 279.179,-342.355 281.029,-331.923 274.12,-333.046"/>
</g>
<!-- Node156 -->
<g id="node39" class="node"><title>Node156</title>
<g id="a_node39"><a xlink:href="class_t_m_c5130_stepper.html#abc7865021874083213e60aa77b7201d6" target="_top" xlink:title=" ">
<polygon fill="white" stroke="black" points="29,-38.5 29,-57.5 139,-57.5 139,-38.5 29,-38.5"/>
<text text-anchor="middle" x="84" y="-45.5" font-family="Helvetica,sans-Serif" font-size="10.00">TMC5130Stepper::D1</text>
</a>
</g>
</g>
<!-- Node149&#45;&gt;Node156 -->
<g id="edge39" class="edge"><title>Node149&#45;&gt;Node156</title>
<path fill="none" stroke="midnightblue" d="M278.844,-332.102C273.394,-279.979 251.264,-138.559 168,-67 159.816,-59.9665 149.55,-55.3993 139.056,-52.4638"/>
<polygon fill="midnightblue" stroke="midnightblue" points="275.385,-332.702 279.813,-342.327 282.354,-332.041 275.385,-332.702"/>
</g>
<!-- Node157 -->
<g id="node40" class="node"><title>Node157</title>
<g id="a_node40"><a xlink:href="class_t_m_c2130_stepper.html#a55ea165bcc2fc0da6395340f17e47611" target="_top" xlink:title=" ">
<polygon fill="white" stroke="black" points="22,-0.5 22,-19.5 146,-19.5 146,-0.5 22,-0.5"/>
<text text-anchor="middle" x="84" y="-7.5" font-family="Helvetica,sans-Serif" font-size="10.00">TMC2130Stepper::dc_sg</text>
</a>
</g>
</g>
<!-- Node149&#45;&gt;Node157 -->
<g id="edge40" class="edge"><title>Node149&#45;&gt;Node157</title>
<path fill="none" stroke="midnightblue" d="M279.889,-332.166C277.019,-275.564 260.701,-112.016 168,-29 161.723,-23.3788 154.127,-19.3189 146.109,-16.4036"/>
<polygon fill="midnightblue" stroke="midnightblue" points="276.397,-332.435 280.311,-342.281 283.391,-332.143 276.397,-332.435"/>
</g>
<!-- Node158 -->
<g id="node41" class="node"><title>Node158</title>
<g id="a_node41"><a xlink:href="class_t_m_c2130_stepper.html#a5b90d46cecffc6511b6bb95943b30bdb" target="_top" xlink:title=" ">
<polygon fill="white" stroke="black" points="18,-642.5 18,-661.5 150,-661.5 150,-642.5 18,-642.5"/>
<text text-anchor="middle" x="84" y="-649.5" font-family="Helvetica,sans-Serif" font-size="10.00">TMC2130Stepper::dc_time</text>
</a>
</g>
</g>
<!-- Node149&#45;&gt;Node158 -->
<g id="edge41" class="edge"><title>Node149&#45;&gt;Node158</title>
<path fill="none" stroke="midnightblue" d="M278.749,-371.626C273.069,-423.035 250.425,-562.509 168,-633 162.72,-637.516 156.581,-641.014 150.076,-643.715"/>
<polygon fill="midnightblue" stroke="midnightblue" points="282.245,-371.841 279.765,-361.541 275.28,-371.14 282.245,-371.841"/>
</g>
<!-- Node159 -->
<g id="node42" class="node"><title>Node159</title>
<g id="a_node42"><a xlink:href="class_t_m_c2130_stepper.html#ae9a34eefa766c1c5f8bda09acb1e61c1" target="_top" xlink:title=" ">
<polygon fill="white" stroke="black" points="16.5,-604.5 16.5,-623.5 151.5,-623.5 151.5,-604.5 16.5,-604.5"/>
<text text-anchor="middle" x="84" y="-611.5" font-family="Helvetica,sans-Serif" font-size="10.00">TMC2130Stepper::DCCTRL</text>
</a>
</g>
</g>
<!-- Node149&#45;&gt;Node159 -->
<g id="edge42" class="edge"><title>Node149&#45;&gt;Node159</title>
<path fill="none" stroke="midnightblue" d="M277.373,-371.761C268.91,-418.388 241.069,-535.776 168,-595 163.062,-599.002 157.441,-602.196 151.506,-604.741"/>
<polygon fill="midnightblue" stroke="midnightblue" points="280.85,-372.19 279.086,-361.743 273.951,-371.011 280.85,-372.19"/>
</g>
<!-- Node160 -->
<g id="node43" class="node"><title>Node160</title>
<g id="a_node43"><a xlink:href="class_t_m_c5130_stepper.html#a6fc018f81c10dd3307d55b31d070b816" target="_top" xlink:title=" ">
<polygon fill="white" stroke="black" points="21.5,-566.5 21.5,-585.5 146.5,-585.5 146.5,-566.5 21.5,-566.5"/>
<text text-anchor="middle" x="84" y="-573.5" font-family="Helvetica,sans-Serif" font-size="10.00">TMC5130Stepper::DMAX</text>
</a>
</g>
</g>
<!-- Node149&#45;&gt;Node160 -->
<g id="edge43" class="edge"><title>Node149&#45;&gt;Node160</title>
<path fill="none" stroke="midnightblue" d="M275.645,-371.427C264.315,-412.55 232.093,-508.582 168,-557 161.631,-561.812 154.255,-565.439 146.582,-568.167"/>
<polygon fill="midnightblue" stroke="midnightblue" points="279.076,-372.141 278.243,-361.579 272.308,-370.356 279.076,-372.141"/>
</g>
<!-- Node161 -->
<g id="node44" class="node"><title>Node161</title>
<g id="a_node44"><a xlink:href="class_t_m_c2160_stepper.html#a6aec416cc563c9a195929bfd36e1707a" target="_top" xlink:title=" ">
<polygon fill="white" stroke="black" points="9,-528.5 9,-547.5 159,-547.5 159,-528.5 9,-528.5"/>
<text text-anchor="middle" x="84" y="-535.5" font-family="Helvetica,sans-Serif" font-size="10.00">TMC2160Stepper::DRV_CONF</text>
</a>
</g>
</g>
<!-- Node149&#45;&gt;Node161 -->
<g id="edge44" class="edge"><title>Node149&#45;&gt;Node161</title>
<path fill="none" stroke="midnightblue" d="M273.047,-371.227C258.463,-406.198 222.724,-480.092 168,-518 161.786,-522.305 154.754,-525.688 147.476,-528.346"/>
<polygon fill="midnightblue" stroke="midnightblue" points="276.392,-372.29 276.891,-361.707 269.901,-369.669 276.392,-372.29"/>
</g>
<!-- Node162 -->
<g id="node45" class="node"><title>Node162</title>
<g id="a_node45"><a xlink:href="class_t_m_c5130_stepper.html#a4e170413a630ba0037569cb2cb96351c" target="_top" xlink:title=" ">
<polygon fill="white" stroke="black" points="25,-479 25,-509 143,-509 143,-479 25,-479"/>
<text text-anchor="start" x="33" y="-497" font-family="Helvetica,sans-Serif" font-size="10.00">TMC5130Stepper::ENC</text>
<text text-anchor="middle" x="84" y="-486" font-family="Helvetica,sans-Serif" font-size="10.00">_CONST</text>
</a>
</g>
</g>
<!-- Node149&#45;&gt;Node162 -->
<g id="edge45" class="edge"><title>Node149&#45;&gt;Node162</title>
<path fill="none" stroke="midnightblue" d="M267.774,-370.239C248.896,-395.961 211.038,-442.685 168,-469 160.425,-473.632 151.933,-477.456 143.349,-480.6"/>
<polygon fill="midnightblue" stroke="midnightblue" points="270.852,-371.953 273.844,-361.79 265.167,-367.869 270.852,-371.953"/>
</g>
<!-- Node163 -->
<g id="node46" class="node"><title>Node163</title>
<g id="a_node46"><a xlink:href="class_t_m_c5160_stepper.html#a42b5bd196fdbb78044b669342384ec28" target="_top" xlink:title=" ">
<polygon fill="white" stroke="black" points="25,-430 25,-460 143,-460 143,-430 25,-430"/>
<text text-anchor="start" x="33" y="-448" font-family="Helvetica,sans-Serif" font-size="10.00">TMC5160Stepper::ENC</text>
<text text-anchor="middle" x="84" y="-437" font-family="Helvetica,sans-Serif" font-size="10.00">_DEVIATION</text>
</a>
</g>
</g>
<!-- Node149&#45;&gt;Node163 -->
<g id="edge46" class="edge"><title>Node149&#45;&gt;Node163</title>
<path fill="none" stroke="midnightblue" d="M258.966,-367.272C236.955,-382.329 201.361,-405.177 168,-420 159.748,-423.666 150.805,-426.987 141.948,-429.924"/>
<polygon fill="midnightblue" stroke="midnightblue" points="261.022,-370.105 267.249,-361.533 257.036,-364.351 261.022,-370.105"/>
</g>
<!-- Node164 -->
<g id="node47" class="node"><title>Node164</title>
<g id="a_node47"><a xlink:href="class_t_m_c5160_stepper.html#a5b60cb0c1913fc270311011223782363" target="_top" xlink:title=" ">
<polygon fill="white" stroke="black" points="25,-381 25,-411 143,-411 143,-381 25,-381"/>
<text text-anchor="start" x="33" y="-399" font-family="Helvetica,sans-Serif" font-size="10.00">TMC5160Stepper::ENC</text>
<text text-anchor="middle" x="84" y="-388" font-family="Helvetica,sans-Serif" font-size="10.00">_STATUS</text>
</a>
</g>
</g>
<!-- Node149&#45;&gt;Node164 -->
<g id="edge47" class="edge"><title>Node149&#45;&gt;Node164</title>
<path fill="none" stroke="midnightblue" d="M227.987,-363.819C201.847,-369.702 170.17,-376.831 143.282,-382.883"/>
<polygon fill="midnightblue" stroke="midnightblue" points="229.092,-367.158 238.079,-361.547 227.555,-360.329 229.092,-367.158"/>
</g>
<!-- Node165 -->
<g id="node48" class="node"><title>Node165</title>
<g id="a_node48"><a xlink:href="class_t_m_c2130_stepper.html#af193f7a3cecbeff29d0db36a2c8b3094" target="_top" xlink:title=" ">
<polygon fill="white" stroke="black" points="6.5,-342.5 6.5,-361.5 161.5,-361.5 161.5,-342.5 6.5,-342.5"/>
<text text-anchor="middle" x="84" y="-349.5" font-family="Helvetica,sans-Serif" font-size="10.00">TMC2130Stepper::ENCM_CTRL</text>
</a>
</g>
</g>
<!-- Node149&#45;&gt;Node165 -->
<g id="edge48" class="edge"><title>Node149&#45;&gt;Node165</title>
<path fill="none" stroke="midnightblue" d="M212.37,-352C196.021,-352 178.452,-352 161.742,-352"/>
<polygon fill="midnightblue" stroke="midnightblue" points="212.373,-355.5 222.373,-352 212.373,-348.5 212.373,-355.5"/>
</g>
<!-- Node166 -->
<g id="node49" class="node"><title>Node166</title>
<g id="a_node49"><a xlink:href="class_t_m_c5130_stepper.html#aef59e4f446323c23418fe05051993e6f" target="_top" xlink:title=" ">
<polygon fill="white" stroke="black" points="10.5,-304.5 10.5,-323.5 157.5,-323.5 157.5,-304.5 10.5,-304.5"/>
<text text-anchor="middle" x="84" y="-311.5" font-family="Helvetica,sans-Serif" font-size="10.00">TMC5130Stepper::ENCMODE</text>
</a>
</g>
</g>
<!-- Node149&#45;&gt;Node166 -->
<g id="edge49" class="edge"><title>Node149&#45;&gt;Node166</title>
<path fill="none" stroke="midnightblue" d="M221.39,-340.511C193.496,-335.089 160.598,-328.694 134.101,-323.544"/>
<polygon fill="midnightblue" stroke="midnightblue" points="220.935,-343.988 231.419,-342.46 222.271,-337.116 220.935,-343.988"/>
</g>
</g>
</svg>
        <g id="navigator" transform="translate(0 0)" fill="#404254">
                <rect fill="#f2f5e9" fill-opacity="0.5" stroke="#606060" stroke-width=".5" x="0" y="0" width="60" height="60"/>
                <use id="zoomplus" xlink:href="#zoomPlus" x="17" y="9" onmousedown="handleZoom(evt,'in')"/>
                <use id="zoomminus" xlink:href="#zoomMin" x="42" y="9" onmousedown="handleZoom(evt,'out')"/>
                <use id="reset" xlink:href="#resetDef" x="30" y="36" onmousedown="handleReset()"/>
                <g id="arrowUp" xlink:href="#dirArrow" transform="translate(30 24)" onmousedown="handlePan(0,-1)">
                  <use xlink:href="#rim" fill="#404040">
                        <set attributeName="fill" to="#808080" begin="arrowUp.mouseover" end="arrowUp.mouseout"/>
                  </use>
                  <path fill="none" stroke="white" stroke-width="1.5" d="M0,-3.0v7 M-2.5,-0.5L0,-3.0L2.5,-0.5"/>
                </g>
                <g id="arrowRight" xlink:href="#dirArrow" transform="rotate(90) translate(36 -43)" onmousedown="handlePan(1,0)">
                  <use xlink:href="#rim" fill="#404040">
                        <set attributeName="fill" to="#808080" begin="arrowRight.mouseover" end="arrowRight.mouseout"/>
                  </use>
                  <path fill="none" stroke="white" stroke-width="1.5" d="M0,-3.0v7 M-2.5,-0.5L0,-3.0L2.5,-0.5"/>
                </g>
                <g id="arrowDown" xlink:href="#dirArrow" transform="rotate(180) translate(-30 -48)" onmousedown="handlePan(0,1)">
                  <use xlink:href="#rim" fill="#404040">
                        <set attributeName="fill" to="#808080" begin="arrowDown.mouseover" end="arrowDown.mouseout"/>
                  </use>
                  <path fill="none" stroke="white" stroke-width="1.5" d="M0,-3.0v7 M-2.5,-0.5L0,-3.0L2.5,-0.5"/>
                </g>
                <g id="arrowLeft" xlink:href="#dirArrow" transform="rotate(270) translate(-36 17)" onmousedown="handlePan(-1,0)">
                  <use xlink:href="#rim" fill="#404040">
                        <set attributeName="fill" to="#808080" begin="arrowLeft.mouseover" end="arrowLeft.mouseout"/>
                  </use>
                  <path fill="none" stroke="white" stroke-width="1.5" d="M0,-3.0v7 M-2.5,-0.5L0,-3.0L2.5,-0.5"/>
                </g>
        </g>
        <svg viewBox="0 0 15 15" width="100%" height="30px" preserveAspectRatio="xMaxYMin meet">
         <g id="arrow_out" transform="scale(0.3 0.3)">
          <a xlink:href="class_s_w___s_p_i_class_af260fdc0af3f1312b106483161e559c3_icgraph_org.svg" target="_base">
           <rect id="button" ry="5" rx="5" y="6" x="6" height="38" width="38"
                fill="#f2f5e9" fill-opacity="0.5" stroke="#606060" stroke-width="1.0"/>
           <path id="arrow"
             d="M 11.500037,31.436501 C 11.940474,20.09759 22.043105,11.32322 32.158766,21.979434 L 37.068811,17.246167 C 37.068811,17.246167 37.088388,32 37.088388,32 L 22.160133,31.978069 C 22.160133,31.978069 26.997745,27.140456 26.997745,27.140456 C 18.528582,18.264221 13.291696,25.230495 11.500037,31.436501 z"
             style="fill:#404040;"/>
          </a>
         </g>
        </svg>
</svg>
