<?xml version="1.0" encoding="UTF-8" standalone="no"?>
<!DOCTYPE svg PUBLIC "-//W3C//DTD SVG 1.1//EN"
 "http://www.w3.org/Graphics/SVG/1.1/DTD/svg11.dtd">
<!-- Generated by graphviz version 2.38.0 (20140413.2041)
 -->
<!-- Title: TMC2208Stepper::isEnabled Pages: 1 -->
<svg width="1020pt" height="142pt"
 viewBox="0.00 0.00 1020.00 142.00" xmlns="http://www.w3.org/2000/svg" xmlns:xlink="http://www.w3.org/1999/xlink">
<g id="graph0" class="graph" transform="scale(1 1) rotate(0) translate(4 138)">
<title>TMC2208Stepper::isEnabled</title>
<polygon fill="white" stroke="none" points="-4,4 -4,-138 1016,-138 1016,4 -4,4"/>
<!-- Node1 -->
<g id="node1" class="node"><title>Node1</title>
<g id="a_node1"><a xlink:title=" ">
<polygon fill="#bfbfbf" stroke="black" points="0,-76.5 0,-95.5 140,-95.5 140,-76.5 0,-76.5"/>
<text text-anchor="middle" x="70" y="-83.5" font-family="Helvetica,sans-Serif" font-size="10.00">TMC2208Stepper::isEnabled</text>
</a>
</g>
</g>
<!-- Node2 -->
<g id="node2" class="node"><title>Node2</title>
<g id="a_node2"><a xlink:href="class_t_m_c2208_stepper.html#acc1f92ce007231215fc4266fb4b99a62" target="_top" xlink:title=" ">
<polygon fill="white" stroke="black" points="176,-95.5 176,-114.5 289,-114.5 289,-95.5 176,-95.5"/>
<text text-anchor="middle" x="232.5" y="-102.5" font-family="Helvetica,sans-Serif" font-size="10.00">TMC2208Stepper::enn</text>
</a>
</g>
</g>
<!-- Node1&#45;&gt;Node2 -->
<g id="edge1" class="edge"><title>Node1&#45;&gt;Node2</title>
<path fill="none" stroke="midnightblue" d="M140.464,-94.2232C148.897,-95.2214 157.491,-96.2388 165.865,-97.2301"/>
<polygon fill="midnightblue" stroke="midnightblue" points="165.603,-100.723 175.945,-98.4234 166.426,-93.772 165.603,-100.723"/>
</g>
<!-- Node11 -->
<g id="node11" class="node"><title>Node11</title>
<g id="a_node11"><a xlink:href="class_t_m_c2208_stepper.html#aad3790e8c9040b5b4770ee65ed06b1ed" target="_top" xlink:title=" ">
<polygon fill="white" stroke="black" points="177.5,-57.5 177.5,-76.5 287.5,-76.5 287.5,-57.5 177.5,-57.5"/>
<text text-anchor="middle" x="232.5" y="-64.5" font-family="Helvetica,sans-Serif" font-size="10.00">TMC2208Stepper::toff</text>
</a>
</g>
</g>
<!-- Node1&#45;&gt;Node11 -->
<g id="edge11" class="edge"><title>Node1&#45;&gt;Node11</title>
<path fill="none" stroke="midnightblue" d="M140.464,-77.7768C149.355,-76.7244 158.425,-75.6506 167.228,-74.6086"/>
<polygon fill="midnightblue" stroke="midnightblue" points="167.893,-78.0544 177.412,-73.4029 167.07,-71.1029 167.893,-78.0544"/>
</g>
<!-- Node3 -->
<g id="node3" class="node"><title>Node3</title>
<g id="a_node3"><a xlink:href="class_t_m_c2208_stepper.html#a5441dd87d0bcea4ffc309cb012166a57" target="_top" xlink:title=" ">
<polygon fill="white" stroke="black" points="343,-95.5 343,-114.5 459,-114.5 459,-95.5 343,-95.5"/>
<text text-anchor="middle" x="401" y="-102.5" font-family="Helvetica,sans-Serif" font-size="10.00">TMC2208Stepper::IOIN</text>
</a>
</g>
</g>
<!-- Node2&#45;&gt;Node3 -->
<g id="edge2" class="edge"><title>Node2&#45;&gt;Node3</title>
<path fill="none" stroke="midnightblue" d="M289.405,-105C303.241,-105 318.21,-105 332.533,-105"/>
<polygon fill="midnightblue" stroke="midnightblue" points="332.822,-108.5 342.822,-105 332.822,-101.5 332.822,-108.5"/>
</g>
<!-- Node4 -->
<g id="node4" class="node"><title>Node4</title>
<g id="a_node4"><a xlink:href="class_t_m_c2208_stepper.html#a2fae2050849c3ab7968012def8ea1cc5" target="_top" xlink:title=" ">
<polygon fill="white" stroke="black" points="513,-57.5 513,-76.5 629,-76.5 629,-57.5 513,-57.5"/>
<text text-anchor="middle" x="571" y="-64.5" font-family="Helvetica,sans-Serif" font-size="10.00">TMC2208Stepper::read</text>
</a>
</g>
</g>
<!-- Node3&#45;&gt;Node4 -->
<g id="edge3" class="edge"><title>Node3&#45;&gt;Node4</title>
<path fill="none" stroke="midnightblue" d="M444.393,-95.411C466.763,-90.3513 494.398,-84.1004 518.047,-78.7512"/>
<polygon fill="midnightblue" stroke="midnightblue" points="518.93,-82.1401 527.911,-76.5201 517.386,-75.3125 518.93,-82.1401"/>
</g>
<!-- Node5 -->
<g id="node5" class="node"><title>Node5</title>
<g id="a_node5"><a xlink:href="class_t_m_c2208_stepper.html#a3e1f6a10aa1e3e41dc2594dbe1ea8a1d" target="_top" xlink:title=" ">
<polygon fill="white" stroke="black" points="665,-76.5 665,-95.5 831,-95.5 831,-76.5 665,-76.5"/>
<text text-anchor="middle" x="748" y="-83.5" font-family="Helvetica,sans-Serif" font-size="10.00">TMC2208Stepper::_sendDatagram</text>
</a>
</g>
</g>
<!-- Node4&#45;&gt;Node5 -->
<g id="edge4" class="edge"><title>Node4&#45;&gt;Node5</title>
<path fill="none" stroke="midnightblue" d="M629.302,-73.2213C637.469,-74.1081 646.037,-75.0383 654.668,-75.9754"/>
<polygon fill="midnightblue" stroke="midnightblue" points="654.489,-79.4764 664.808,-77.0763 655.245,-72.5173 654.489,-79.4764"/>
</g>
<!-- Node9 -->
<g id="node9" class="node"><title>Node9</title>
<g id="a_node9"><a xlink:href="class_s_switch.html#a6ff09d0850d551571dc333fb74ff8628" target="_top" xlink:title=" ">
<polygon fill="white" stroke="black" points="706.5,-38.5 706.5,-57.5 789.5,-57.5 789.5,-38.5 706.5,-38.5"/>
<text text-anchor="middle" x="748" y="-45.5" font-family="Helvetica,sans-Serif" font-size="10.00">SSwitch::active</text>
</a>
</g>
</g>
<!-- Node4&#45;&gt;Node9 -->
<g id="edge9" class="edge"><title>Node4&#45;&gt;Node9</title>
<path fill="none" stroke="midnightblue" d="M629.302,-60.7787C650.975,-58.4256 675.465,-55.7666 696.472,-53.4859"/>
<polygon fill="midnightblue" stroke="midnightblue" points="696.913,-56.9587 706.477,-52.3996 696.158,-49.9995 696.913,-56.9587"/>
</g>
<!-- Node10 -->
<g id="node10" class="node"><title>Node10</title>
<g id="a_node10"><a xlink:href="class_t_m_c2208_stepper.html#a409c19fa6b052a370a317d061bf9af4e" target="_top" xlink:title=" ">
<polygon fill="white" stroke="black" points="680,-0.5 680,-19.5 816,-19.5 816,-0.5 680,-0.5"/>
<text text-anchor="middle" x="748" y="-7.5" font-family="Helvetica,sans-Serif" font-size="10.00">TMC2208Stepper::calcCRC</text>
</a>
</g>
</g>
<!-- Node4&#45;&gt;Node10 -->
<g id="edge10" class="edge"><title>Node4&#45;&gt;Node10</title>
<path fill="none" stroke="midnightblue" d="M592.7,-57.4219C611.317,-49.0789 639.568,-37.0846 665,-29 673.008,-26.4544 681.555,-24.0937 689.996,-21.9634"/>
<polygon fill="midnightblue" stroke="midnightblue" points="690.929,-25.3385 699.816,-19.5712 689.272,-18.5374 690.929,-25.3385"/>
</g>
<!-- Node6 -->
<g id="node6" class="node"><title>Node6</title>
<g id="a_node6"><a xlink:href="class_t_m_c2208_stepper.html#a4ec5d2b2f5a31259c7aba1f3208d63b8" target="_top" xlink:title=" ">
<polygon fill="white" stroke="black" points="881.5,-114.5 881.5,-133.5 997.5,-133.5 997.5,-114.5 881.5,-114.5"/>
<text text-anchor="middle" x="939.5" y="-121.5" font-family="Helvetica,sans-Serif" font-size="10.00">TMC2208Stepper::ms2</text>
</a>
</g>
</g>
<!-- Node5&#45;&gt;Node6 -->
<g id="edge5" class="edge"><title>Node5&#45;&gt;Node6</title>
<path fill="none" stroke="midnightblue" d="M796.819,-95.589C822.389,-100.716 854.059,-107.067 880.968,-112.463"/>
<polygon fill="midnightblue" stroke="midnightblue" points="880.532,-115.945 891.025,-114.48 881.908,-109.082 880.532,-115.945"/>
</g>
<!-- Node7 -->
<g id="node7" class="node"><title>Node7</title>
<g id="a_node7"><a xlink:href="class_t_m_c2208_stepper.html#ae561da4ec7c40830e97bf4dc8cf700fb" target="_top" xlink:title=" ">
<polygon fill="white" stroke="black" points="867,-76.5 867,-95.5 1012,-95.5 1012,-76.5 867,-76.5"/>
<text text-anchor="middle" x="939.5" y="-83.5" font-family="Helvetica,sans-Serif" font-size="10.00">TMC2208Stepper::serial_read</text>
</a>
</g>
</g>
<!-- Node5&#45;&gt;Node7 -->
<g id="edge7" class="edge"><title>Node5&#45;&gt;Node7</title>
<path fill="none" stroke="midnightblue" d="M831.015,-86C839.478,-86 848.078,-86 856.54,-86"/>
<polygon fill="midnightblue" stroke="midnightblue" points="856.775,-89.5001 866.775,-86 856.775,-82.5001 856.775,-89.5001"/>
</g>
<!-- Node8 -->
<g id="node8" class="node"><title>Node8</title>
<g id="a_node8"><a xlink:href="class_t_m_c2208_stepper.html#a7dd83313385079099b0622957786a979" target="_top" xlink:title=" ">
<polygon fill="white" stroke="black" points="879,-27 879,-57 1000,-57 1000,-27 879,-27"/>
<text text-anchor="start" x="887" y="-45" font-family="Helvetica,sans-Serif" font-size="10.00">TMC2208Stepper::serial</text>
<text text-anchor="middle" x="939.5" y="-34" font-family="Helvetica,sans-Serif" font-size="10.00">_write</text>
</a>
</g>
</g>
<!-- Node5&#45;&gt;Node8 -->
<g id="edge8" class="edge"><title>Node5&#45;&gt;Node8</title>
<path fill="none" stroke="midnightblue" d="M790.296,-76.4382C803.32,-73.4208 817.762,-70.0731 831,-67 843.224,-64.1624 856.229,-61.1405 868.816,-58.2142"/>
<polygon fill="midnightblue" stroke="midnightblue" points="869.85,-61.5672 878.798,-55.8933 868.265,-54.7491 869.85,-61.5672"/>
</g>
<!-- Node6&#45;&gt;Node3 -->
<g id="edge6" class="edge"><title>Node6&#45;&gt;Node3</title>
<path fill="none" stroke="midnightblue" d="M881.434,-121.979C781.685,-118.446 576.109,-111.166 469.476,-107.39"/>
<polygon fill="midnightblue" stroke="midnightblue" points="469.278,-103.881 459.161,-107.024 469.031,-110.876 469.278,-103.881"/>
</g>
<!-- Node12 -->
<g id="node12" class="node"><title>Node12</title>
<g id="a_node12"><a xlink:href="class_t_m_c2208_stepper.html#aa11281f54c293f3ff2539b1a583682a9" target="_top" xlink:title=" ">
<polygon fill="white" stroke="black" points="325,-57.5 325,-76.5 477,-76.5 477,-57.5 325,-57.5"/>
<text text-anchor="middle" x="401" y="-64.5" font-family="Helvetica,sans-Serif" font-size="10.00">TMC2208Stepper::CHOPCONF</text>
</a>
</g>
</g>
<!-- Node11&#45;&gt;Node12 -->
<g id="edge12" class="edge"><title>Node11&#45;&gt;Node12</title>
<path fill="none" stroke="midnightblue" d="M287.558,-67C296.274,-67 305.48,-67 314.719,-67"/>
<polygon fill="midnightblue" stroke="midnightblue" points="314.735,-70.5001 324.735,-67 314.735,-63.5001 314.735,-70.5001"/>
</g>
<!-- Node12&#45;&gt;Node4 -->
<g id="edge13" class="edge"><title>Node12&#45;&gt;Node4</title>
<path fill="none" stroke="midnightblue" d="M477.155,-67C485.664,-67 494.296,-67 502.696,-67"/>
<polygon fill="midnightblue" stroke="midnightblue" points="502.802,-70.5001 512.802,-67 502.802,-63.5001 502.802,-70.5001"/>
</g>
</g>
</svg>
