<?xml version="1.0" encoding="UTF-8" standalone="no"?>
<!DOCTYPE svg PUBLIC "-//W3C//DTD SVG 1.1//EN"
 "http://www.w3.org/Graphics/SVG/1.1/DTD/svg11.dtd">
<!-- Generated by graphviz version 2.38.0 (20140413.2041)
 -->
<!-- Title: TMC2208Stepper::pdn_disable Pages: 1 -->
<svg width="278pt" height="78pt"
 viewBox="0.00 0.00 278.00 77.50" xmlns="http://www.w3.org/2000/svg" xmlns:xlink="http://www.w3.org/1999/xlink">
<g id="graph0" class="graph" transform="scale(1 1) rotate(0) translate(4 73.5)">
<title>TMC2208Stepper::pdn_disable</title>
<polygon fill="white" stroke="none" points="-4,4 -4,-73.5 274,-73.5 274,4 -4,4"/>
<!-- Node1 -->
<g id="node1" class="node"><title>Node1</title>
<g id="a_node1"><a xlink:title=" ">
<polygon fill="#bfbfbf" stroke="black" points="157,-22.5 157,-52.5 270,-52.5 270,-22.5 157,-22.5"/>
<text text-anchor="start" x="165" y="-40.5" font-family="Helvetica,sans-Serif" font-size="10.00">TMC2208Stepper::pdn</text>
<text text-anchor="middle" x="213.5" y="-29.5" font-family="Helvetica,sans-Serif" font-size="10.00">_disable</text>
</a>
</g>
</g>
<!-- Node2 -->
<g id="node2" class="node"><title>Node2</title>
<g id="a_node2"><a xlink:href="class_t_m_c2208_stepper.html#a974fa83e3bab04cd9f9a7b2d31ebd18e" target="_top" xlink:title=" ">
<polygon fill="white" stroke="black" points="0,-50 0,-69 121,-69 121,-50 0,-50"/>
<text text-anchor="middle" x="60.5" y="-57" font-family="Helvetica,sans-Serif" font-size="10.00">TMC2208Stepper::begin</text>
</a>
</g>
</g>
<!-- Node1&#45;&gt;Node2 -->
<g id="edge1" class="edge"><title>Node1&#45;&gt;Node2</title>
<path fill="none" stroke="midnightblue" d="M146.789,-47.0738C138.255,-48.3172 129.551,-49.5853 121.123,-50.8132"/>
<polygon fill="midnightblue" stroke="midnightblue" points="147.311,-50.5347 156.702,-45.6295 146.302,-43.6079 147.311,-50.5347"/>
</g>
<!-- Node3 -->
<g id="node3" class="node"><title>Node3</title>
<g id="a_node3"><a xlink:href="class_t_m_c2208_stepper.html#acc565fdcd70fa33a60a078cb5527afc8" target="_top" xlink:title=" ">
<polygon fill="white" stroke="black" points="4,-0.5 4,-30.5 117,-30.5 117,-0.5 4,-0.5"/>
<text text-anchor="start" x="12" y="-18.5" font-family="Helvetica,sans-Serif" font-size="10.00">TMC2208Stepper::pdn</text>
<text text-anchor="middle" x="60.5" y="-7.5" font-family="Helvetica,sans-Serif" font-size="10.00">_disable</text>
</a>
</g>
</g>
<!-- Node1&#45;&gt;Node3 -->
<g id="edge2" class="edge"><title>Node1&#45;&gt;Node3</title>
<path fill="none" stroke="midnightblue" d="M146.559,-27.8927C136.721,-26.4594 126.663,-24.994 117.068,-23.5961"/>
<polygon fill="midnightblue" stroke="midnightblue" points="146.302,-31.3921 156.702,-29.3705 147.311,-24.4653 146.302,-31.3921"/>
</g>
</g>
</svg>
