<?xml version="1.0" encoding="UTF-8" standalone="no"?>
<!DOCTYPE svg PUBLIC "-//W3C//DTD SVG 1.1//EN"
 "http://www.w3.org/Graphics/SVG/1.1/DTD/svg11.dtd">
<!-- Generated by graphviz version 2.38.0 (20140413.2041)
 -->
<!-- Title: TMC2660Stepper::push Pages: 1 -->
<svg width="469pt" height="218pt"
 viewBox="0.00 0.00 469.00 218.00" xmlns="http://www.w3.org/2000/svg" xmlns:xlink="http://www.w3.org/1999/xlink">
<g id="graph0" class="graph" transform="scale(1 1) rotate(0) translate(4 214)">
<title>TMC2660Stepper::push</title>
<polygon fill="white" stroke="none" points="-4,4 -4,-214 465,-214 465,4 -4,4"/>
<!-- Node1 -->
<g id="node1" class="node"><title>Node1</title>
<g id="a_node1"><a xlink:title=" ">
<polygon fill="#bfbfbf" stroke="black" points="0,-95.5 0,-114.5 119,-114.5 119,-95.5 0,-95.5"/>
<text text-anchor="middle" x="59.5" y="-102.5" font-family="Helvetica,sans-Serif" font-size="10.00">TMC2660Stepper::push</text>
</a>
</g>
</g>
<!-- Node2 -->
<g id="node2" class="node"><title>Node2</title>
<g id="a_node2"><a xlink:href="class_t_m_c2660_stepper.html#ad584d93cbf798731dcecee465b8b1de6" target="_top" xlink:title=" ">
<polygon fill="white" stroke="black" points="155,-190.5 155,-209.5 307,-209.5 307,-190.5 155,-190.5"/>
<text text-anchor="middle" x="231" y="-197.5" font-family="Helvetica,sans-Serif" font-size="10.00">TMC2660Stepper::CHOPCONF</text>
</a>
</g>
</g>
<!-- Node1&#45;&gt;Node2 -->
<g id="edge1" class="edge"><title>Node1&#45;&gt;Node2</title>
<path fill="none" stroke="midnightblue" d="M69.7166,-114.757C85.5849,-130.974 119.77,-163.426 155,-181 159.688,-183.338 164.688,-185.405 169.796,-187.229"/>
<polygon fill="midnightblue" stroke="midnightblue" points="169.108,-190.685 179.7,-190.444 171.269,-184.027 169.108,-190.685"/>
</g>
<!-- Node3 -->
<g id="node3" class="node"><title>Node3</title>
<g id="a_node3"><a xlink:href="class_t_m_c2660_stepper.html#a832e8094055d7b70e95ee49a0ef8e742" target="_top" xlink:title=" ">
<polygon fill="white" stroke="black" points="158.5,-152.5 158.5,-171.5 303.5,-171.5 303.5,-152.5 158.5,-152.5"/>
<text text-anchor="middle" x="231" y="-159.5" font-family="Helvetica,sans-Serif" font-size="10.00">TMC2660Stepper::DRVCONF</text>
</a>
</g>
</g>
<!-- Node1&#45;&gt;Node3 -->
<g id="edge2" class="edge"><title>Node1&#45;&gt;Node3</title>
<path fill="none" stroke="midnightblue" d="M81.9645,-114.593C100.923,-122.833 129.446,-134.667 155,-143 162.453,-145.43 170.405,-147.74 178.242,-149.858"/>
<polygon fill="midnightblue" stroke="midnightblue" points="177.5,-153.281 188.061,-152.432 179.276,-146.51 177.5,-153.281"/>
</g>
<!-- Node4 -->
<g id="node4" class="node"><title>Node4</title>
<g id="a_node4"><a xlink:href="class_t_m_c2660_stepper.html#a45ae40bd2b9b997b9cfedb13403e2387" target="_top" xlink:title=" ">
<polygon fill="white" stroke="black" points="160,-114.5 160,-133.5 302,-133.5 302,-114.5 160,-114.5"/>
<text text-anchor="middle" x="231" y="-121.5" font-family="Helvetica,sans-Serif" font-size="10.00">TMC2660Stepper::DRVCTRL</text>
</a>
</g>
</g>
<!-- Node1&#45;&gt;Node4 -->
<g id="edge3" class="edge"><title>Node1&#45;&gt;Node4</title>
<path fill="none" stroke="midnightblue" d="M119.307,-111.592C129.132,-112.693 139.471,-113.852 149.723,-115.001"/>
<polygon fill="midnightblue" stroke="midnightblue" points="149.596,-118.509 159.923,-116.145 150.375,-111.553 149.596,-118.509"/>
</g>
<!-- Node5 -->
<g id="node5" class="node"><title>Node5</title>
<g id="a_node5"><a xlink:href="class_t_m_c2660_stepper.html#aa20df51be5967e40cc23132a1d461275" target="_top" xlink:title=" ">
<polygon fill="white" stroke="black" points="343,-95.5 343,-114.5 461,-114.5 461,-95.5 343,-95.5"/>
<text text-anchor="middle" x="402" y="-102.5" font-family="Helvetica,sans-Serif" font-size="10.00">TMC2660Stepper::sdoff</text>
</a>
</g>
</g>
<!-- Node1&#45;&gt;Node5 -->
<g id="edge5" class="edge"><title>Node1&#45;&gt;Node5</title>
<path fill="none" stroke="midnightblue" d="M119.034,-105C178.383,-105 270.159,-105 332.771,-105"/>
<polygon fill="midnightblue" stroke="midnightblue" points="332.946,-108.5 342.946,-105 332.946,-101.5 332.946,-108.5"/>
</g>
<!-- Node6 -->
<g id="node6" class="node"><title>Node6</title>
<g id="a_node6"><a xlink:href="class_t_m_c2660_stepper.html#ab4d49251f5e0d438a07ae46d293aa58c" target="_top" xlink:title=" ">
<polygon fill="white" stroke="black" points="155,-38.5 155,-57.5 307,-57.5 307,-38.5 155,-38.5"/>
<text text-anchor="middle" x="231" y="-45.5" font-family="Helvetica,sans-Serif" font-size="10.00">TMC2660Stepper::SGCSCONF</text>
</a>
</g>
</g>
<!-- Node1&#45;&gt;Node6 -->
<g id="edge6" class="edge"><title>Node1&#45;&gt;Node6</title>
<path fill="none" stroke="midnightblue" d="M87.3197,-95.4238C106.201,-88.7337 132.093,-79.6634 155,-72 166.331,-68.2093 178.667,-64.2096 190.001,-60.5854"/>
<polygon fill="midnightblue" stroke="midnightblue" points="191.186,-63.8812 199.652,-57.5119 189.062,-57.2113 191.186,-63.8812"/>
</g>
<!-- Node7 -->
<g id="node7" class="node"><title>Node7</title>
<g id="a_node7"><a xlink:href="class_t_m_c2660_stepper.html#a896275632be88c8a407946df264f94cf" target="_top" xlink:title=" ">
<polygon fill="white" stroke="black" points="158.5,-0.5 158.5,-19.5 303.5,-19.5 303.5,-0.5 158.5,-0.5"/>
<text text-anchor="middle" x="231" y="-7.5" font-family="Helvetica,sans-Serif" font-size="10.00">TMC2660Stepper::SMARTEN</text>
</a>
</g>
</g>
<!-- Node1&#45;&gt;Node7 -->
<g id="edge7" class="edge"><title>Node1&#45;&gt;Node7</title>
<path fill="none" stroke="midnightblue" d="M69.7166,-95.2429C85.5849,-79.026 119.77,-46.5741 155,-29 159.688,-26.6616 164.688,-24.5948 169.796,-22.7709"/>
<polygon fill="midnightblue" stroke="midnightblue" points="171.269,-25.9726 179.7,-19.5557 169.108,-19.3146 171.269,-25.9726"/>
</g>
<!-- Node4&#45;&gt;Node5 -->
<g id="edge4" class="edge"><title>Node4&#45;&gt;Node5</title>
<path fill="none" stroke="midnightblue" d="M302.203,-116.107C312.337,-114.968 322.754,-113.797 332.848,-112.662"/>
<polygon fill="midnightblue" stroke="midnightblue" points="333.265,-116.137 342.811,-111.542 332.483,-109.181 333.265,-116.137"/>
</g>
</g>
</svg>
