<?xml version="1.0" encoding="UTF-8" standalone="no"?>
<!DOCTYPE svg PUBLIC "-//W3C//DTD SVG 1.1//EN"
 "http://www.w3.org/Graphics/SVG/1.1/DTD/svg11.dtd">
<!-- Generated by graphviz version 2.38.0 (20140413.2041)
 -->
<!-- Title: TMC5160Stepper::faststandstill Pages: 1 -->
<svg width="1009pt" height="104pt"
 viewBox="0.00 0.00 1009.00 104.00" xmlns="http://www.w3.org/2000/svg" xmlns:xlink="http://www.w3.org/1999/xlink">
<g id="graph0" class="graph" transform="scale(1 1) rotate(0) translate(4 100)">
<title>TMC5160Stepper::faststandstill</title>
<polygon fill="white" stroke="none" points="-4,4 -4,-100 1005,-100 1005,4 -4,4"/>
<!-- Node1 -->
<g id="node1" class="node"><title>Node1</title>
<g id="a_node1"><a xlink:title=" ">
<polygon fill="#bfbfbf" stroke="black" points="0,-38.5 0,-57.5 152,-57.5 152,-38.5 0,-38.5"/>
<text text-anchor="middle" x="76" y="-45.5" font-family="Helvetica,sans-Serif" font-size="10.00">TMC5160Stepper::faststandstill</text>
</a>
</g>
</g>
<!-- Node2 -->
<g id="node2" class="node"><title>Node2</title>
<g id="a_node2"><a xlink:href="class_t_m_c5160_stepper.html#a6ec8fb09e247dab3a40e0d11699cafa4" target="_top" xlink:title=" ">
<polygon fill="white" stroke="black" points="188,-38.5 188,-57.5 340,-57.5 340,-38.5 188,-38.5"/>
<text text-anchor="middle" x="264" y="-45.5" font-family="Helvetica,sans-Serif" font-size="10.00">TMC5160Stepper::faststandstill</text>
</a>
</g>
</g>
<!-- Node1&#45;&gt;Node2 -->
<g id="edge1" class="edge"><title>Node1&#45;&gt;Node2</title>
<path fill="none" stroke="midnightblue" d="M152.117,-48C160.596,-48 169.281,-48 177.875,-48"/>
<polygon fill="midnightblue" stroke="midnightblue" points="177.905,-51.5001 187.905,-48 177.905,-44.5001 177.905,-51.5001"/>
</g>
<!-- Node3 -->
<g id="node3" class="node"><title>Node3</title>
<g id="a_node3"><a xlink:href="class_t_m_c2130_stepper.html#aee84a9abfc84b387c6ae5658f90bf684" target="_top" xlink:title=" ">
<polygon fill="white" stroke="black" points="376,-38.5 376,-57.5 508,-57.5 508,-38.5 376,-38.5"/>
<text text-anchor="middle" x="442" y="-45.5" font-family="Helvetica,sans-Serif" font-size="10.00">TMC2130Stepper::GCONF</text>
</a>
</g>
</g>
<!-- Node2&#45;&gt;Node3 -->
<g id="edge2" class="edge"><title>Node2&#45;&gt;Node3</title>
<path fill="none" stroke="midnightblue" d="M340.15,-48C348.586,-48 357.183,-48 365.621,-48"/>
<polygon fill="midnightblue" stroke="midnightblue" points="365.815,-51.5001 375.815,-48 365.815,-44.5001 365.815,-51.5001"/>
</g>
<!-- Node4 -->
<g id="node4" class="node"><title>Node4</title>
<g id="a_node4"><a xlink:href="class_t_m_c2130_stepper.html#aed0175bff6e80ebc14e0d2606283cbe0" target="_top" xlink:title=" ">
<polygon fill="white" stroke="black" points="544,-38.5 544,-57.5 660,-57.5 660,-38.5 544,-38.5"/>
<text text-anchor="middle" x="602" y="-45.5" font-family="Helvetica,sans-Serif" font-size="10.00">TMC2130Stepper::read</text>
</a>
</g>
</g>
<!-- Node3&#45;&gt;Node4 -->
<g id="edge3" class="edge"><title>Node3&#45;&gt;Node4</title>
<path fill="none" stroke="midnightblue" d="M508.177,-48C516.517,-48 525.069,-48 533.445,-48"/>
<polygon fill="midnightblue" stroke="midnightblue" points="533.55,-51.5001 543.55,-48 533.55,-44.5001 533.55,-51.5001"/>
</g>
<!-- Node5 -->
<g id="node5" class="node"><title>Node5</title>
<g id="a_node5"><a xlink:href="class_t_m_c2130_stepper.html#aed8aa4583943e649dbf3bb1c1da90d63" target="_top" xlink:title=" ">
<polygon fill="white" stroke="black" points="696,-76.5 696,-95.5 848,-95.5 848,-76.5 696,-76.5"/>
<text text-anchor="middle" x="772" y="-83.5" font-family="Helvetica,sans-Serif" font-size="10.00">TMC2130Stepper::switchCSpin</text>
</a>
</g>
</g>
<!-- Node4&#45;&gt;Node5 -->
<g id="edge4" class="edge"><title>Node4&#45;&gt;Node5</title>
<path fill="none" stroke="midnightblue" d="M645.393,-57.589C667.763,-62.6487 695.398,-68.8996 719.047,-74.2488"/>
<polygon fill="midnightblue" stroke="midnightblue" points="718.386,-77.6875 728.911,-76.4799 719.93,-70.8599 718.386,-77.6875"/>
</g>
<!-- Node6 -->
<g id="node6" class="node"><title>Node6</title>
<g id="a_node6"><a xlink:href="class_s_w___s_p_i_class.html#af260fdc0af3f1312b106483161e559c3" target="_top" xlink:title=" ">
<polygon fill="white" stroke="black" points="884,-19.5 884,-38.5 1001,-38.5 1001,-19.5 884,-19.5"/>
<text text-anchor="middle" x="942.5" y="-26.5" font-family="Helvetica,sans-Serif" font-size="10.00">SW_SPIClass::transfer</text>
</a>
</g>
</g>
<!-- Node4&#45;&gt;Node6 -->
<g id="edge5" class="edge"><title>Node4&#45;&gt;Node6</title>
<path fill="none" stroke="midnightblue" d="M660.039,-44.7984C719.027,-41.4874 811.113,-36.3186 873.765,-32.802"/>
<polygon fill="midnightblue" stroke="midnightblue" points="874.156,-36.2856 883.944,-32.2306 873.763,-29.2966 874.156,-36.2856"/>
</g>
<!-- Node7 -->
<g id="node7" class="node"><title>Node7</title>
<g id="a_node7"><a xlink:href="class_s_w___s_p_i_class.html#a1b7600aa1d9571c103718c5d3e376675" target="_top" xlink:title=" ">
<polygon fill="white" stroke="black" points="708,-0.5 708,-19.5 836,-19.5 836,-0.5 708,-0.5"/>
<text text-anchor="middle" x="772" y="-7.5" font-family="Helvetica,sans-Serif" font-size="10.00">SW_SPIClass::transfer16</text>
</a>
</g>
</g>
<!-- Node4&#45;&gt;Node7 -->
<g id="edge6" class="edge"><title>Node4&#45;&gt;Node7</title>
<path fill="none" stroke="midnightblue" d="M645.393,-38.411C667.763,-33.3513 695.398,-27.1004 719.047,-21.7512"/>
<polygon fill="midnightblue" stroke="midnightblue" points="719.93,-25.1401 728.911,-19.5201 718.386,-18.3125 719.93,-25.1401"/>
</g>
<!-- Node7&#45;&gt;Node6 -->
<g id="edge7" class="edge"><title>Node7&#45;&gt;Node6</title>
<path fill="none" stroke="midnightblue" d="M836.223,-17.129C848.406,-18.5028 861.217,-19.9473 873.543,-21.3372"/>
<polygon fill="midnightblue" stroke="midnightblue" points="873.43,-24.8466 883.76,-22.4892 874.215,-17.8907 873.43,-24.8466"/>
</g>
</g>
</svg>
