<?xml version="1.0" encoding="UTF-8" standalone="no"?>
<!DOCTYPE svg PUBLIC "-//W3C//DTD SVG 1.1//EN"
 "http://www.w3.org/Graphics/SVG/1.1/DTD/svg11.dtd">
<!-- Generated by graphviz version 2.38.0 (20140413.2041)
 -->
<!-- Title: TMC2660Stepper::dedge Pages: 1 -->
<svg width="446pt" height="47pt"
 viewBox="0.00 0.00 446.00 47.00" xmlns="http://www.w3.org/2000/svg" xmlns:xlink="http://www.w3.org/1999/xlink">
<g id="graph0" class="graph" transform="scale(1 1) rotate(0) translate(4 43)">
<title>TMC2660Stepper::dedge</title>
<polygon fill="white" stroke="none" points="-4,4 -4,-43 442,-43 442,4 -4,4"/>
<!-- Node1 -->
<g id="node1" class="node"><title>Node1</title>
<g id="a_node1"><a xlink:title=" ">
<polygon fill="#bfbfbf" stroke="black" points="0,-0.5 0,-19.5 124,-19.5 124,-0.5 0,-0.5"/>
<text text-anchor="middle" x="62" y="-7.5" font-family="Helvetica,sans-Serif" font-size="10.00">TMC2660Stepper::dedge</text>
</a>
</g>
</g>
<!-- Node2 -->
<g id="node2" class="node"><title>Node2</title>
<g id="a_node2"><a xlink:href="class_t_m_c2660_stepper.html#a42f53be2a3773280e12cf9499dd02265" target="_top" xlink:title=" ">
<polygon fill="white" stroke="black" points="160,-19.5 160,-38.5 284,-38.5 284,-19.5 160,-19.5"/>
<text text-anchor="middle" x="222" y="-26.5" font-family="Helvetica,sans-Serif" font-size="10.00">TMC2660Stepper::dedge</text>
</a>
</g>
</g>
<!-- Node1&#45;&gt;Node2 -->
<g id="edge1" class="edge"><title>Node1&#45;&gt;Node2</title>
<path fill="none" stroke="midnightblue" d="M124.087,-17.3459C132.513,-18.3592 141.226,-19.4069 149.815,-20.4397"/>
<polygon fill="midnightblue" stroke="midnightblue" points="149.469,-23.9233 159.815,-21.6423 150.304,-16.9733 149.469,-23.9233"/>
</g>
<!-- Node3 -->
<g id="node3" class="node"><title>Node3</title>
<g id="a_node3"><a xlink:href="class_t_m_c2660_stepper.html#aa20df51be5967e40cc23132a1d461275" target="_top" xlink:title=" ">
<polygon fill="white" stroke="black" points="320,-0.5 320,-19.5 438,-19.5 438,-0.5 320,-0.5"/>
<text text-anchor="middle" x="379" y="-7.5" font-family="Helvetica,sans-Serif" font-size="10.00">TMC2660Stepper::sdoff</text>
</a>
</g>
</g>
<!-- Node1&#45;&gt;Node3 -->
<g id="edge3" class="edge"><title>Node1&#45;&gt;Node3</title>
<path fill="none" stroke="midnightblue" d="M124.109,-10C177.417,-10 254.663,-10 309.932,-10"/>
<polygon fill="midnightblue" stroke="midnightblue" points="309.986,-13.5001 319.986,-10 309.986,-6.5001 309.986,-13.5001"/>
</g>
<!-- Node2&#45;&gt;Node3 -->
<g id="edge2" class="edge"><title>Node2&#45;&gt;Node3</title>
<path fill="none" stroke="midnightblue" d="M284.26,-21.4907C292.714,-20.4544 301.438,-19.385 310.005,-18.3349"/>
<polygon fill="midnightblue" stroke="midnightblue" points="310.464,-21.805 319.963,-17.1142 309.612,-14.857 310.464,-21.805"/>
</g>
</g>
</svg>
