<?xml version="1.0" encoding="UTF-8" standalone="no"?>
<!DOCTYPE svg PUBLIC "-//W3C//DTD SVG 1.1//EN"
 "http://www.w3.org/Graphics/SVG/1.1/DTD/svg11.dtd">
<!-- Generated by graphviz version 2.38.0 (20140413.2041)
 -->
<!-- Title: TMC2208Stepper::pwm_autoscale Pages: 1 -->
<svg width="998pt" height="156pt"
 viewBox="0.00 0.00 998.00 156.41" xmlns="http://www.w3.org/2000/svg" xmlns:xlink="http://www.w3.org/1999/xlink">
<g id="graph0" class="graph" transform="scale(1 1) rotate(0) translate(4 152.405)">
<title>TMC2208Stepper::pwm_autoscale</title>
<polygon fill="white" stroke="none" points="-4,4 -4,-152.405 994,-152.405 994,4 -4,4"/>
<!-- Node1 -->
<g id="node1" class="node"><title>Node1</title>
<g id="a_node1"><a xlink:title=" ">
<polygon fill="#bfbfbf" stroke="black" points="0,-41.4052 0,-71.4052 118,-71.4052 118,-41.4052 0,-41.4052"/>
<text text-anchor="start" x="8" y="-59.4052" font-family="Helvetica,sans-Serif" font-size="10.00">TMC2208Stepper::pwm</text>
<text text-anchor="middle" x="59" y="-48.4052" font-family="Helvetica,sans-Serif" font-size="10.00">_autoscale</text>
</a>
</g>
</g>
<!-- Node2 -->
<g id="node2" class="node"><title>Node2</title>
<g id="a_node2"><a xlink:href="class_t_m_c2208_stepper.html#a7c2e849de2f2933ba9bf8ede8dc53f53" target="_top" xlink:title=" ">
<polygon fill="white" stroke="black" points="154,-46.9052 154,-65.9052 303,-65.9052 303,-46.9052 154,-46.9052"/>
<text text-anchor="middle" x="228.5" y="-53.9052" font-family="Helvetica,sans-Serif" font-size="10.00">TMC2208Stepper::PWMCONF</text>
</a>
</g>
</g>
<!-- Node1&#45;&gt;Node2 -->
<g id="edge1" class="edge"><title>Node1&#45;&gt;Node2</title>
<path fill="none" stroke="midnightblue" d="M118.113,-56.4052C126.399,-56.4052 135.055,-56.4052 143.711,-56.4052"/>
<polygon fill="midnightblue" stroke="midnightblue" points="143.851,-59.9053 153.851,-56.4052 143.851,-52.9053 143.851,-59.9053"/>
</g>
<!-- Node3 -->
<g id="node3" class="node"><title>Node3</title>
<g id="a_node3"><a xlink:href="class_t_m_c2208_stepper.html#a2fae2050849c3ab7968012def8ea1cc5" target="_top" xlink:title=" ">
<polygon fill="white" stroke="black" points="339,-46.9052 339,-65.9052 455,-65.9052 455,-46.9052 339,-46.9052"/>
<text text-anchor="middle" x="397" y="-53.9052" font-family="Helvetica,sans-Serif" font-size="10.00">TMC2208Stepper::read</text>
</a>
</g>
</g>
<!-- Node2&#45;&gt;Node3 -->
<g id="edge2" class="edge"><title>Node2&#45;&gt;Node3</title>
<path fill="none" stroke="midnightblue" d="M303.014,-56.4052C311.561,-56.4052 320.246,-56.4052 328.704,-56.4052"/>
<polygon fill="midnightblue" stroke="midnightblue" points="328.882,-59.9053 338.882,-56.4052 328.882,-52.9053 328.882,-59.9053"/>
</g>
<!-- Node4 -->
<g id="node4" class="node"><title>Node4</title>
<g id="a_node4"><a xlink:href="class_t_m_c2208_stepper.html#a3e1f6a10aa1e3e41dc2594dbe1ea8a1d" target="_top" xlink:title=" ">
<polygon fill="white" stroke="black" points="491,-103.905 491,-122.905 657,-122.905 657,-103.905 491,-103.905"/>
<text text-anchor="middle" x="574" y="-110.905" font-family="Helvetica,sans-Serif" font-size="10.00">TMC2208Stepper::_sendDatagram</text>
</a>
</g>
</g>
<!-- Node3&#45;&gt;Node4 -->
<g id="edge3" class="edge"><title>Node3&#45;&gt;Node4</title>
<path fill="none" stroke="midnightblue" d="M418.7,-65.9833C437.317,-74.3262 465.568,-86.3205 491,-94.4052 499.008,-96.9508 507.555,-99.3114 515.996,-101.442"/>
<polygon fill="midnightblue" stroke="midnightblue" points="515.272,-104.868 525.816,-103.834 516.929,-98.0666 515.272,-104.868"/>
</g>
<!-- Node9 -->
<g id="node9" class="node"><title>Node9</title>
<g id="a_node9"><a xlink:href="class_s_switch.html#a6ff09d0850d551571dc333fb74ff8628" target="_top" xlink:title=" ">
<polygon fill="white" stroke="black" points="532.5,-65.9052 532.5,-84.9052 615.5,-84.9052 615.5,-65.9052 532.5,-65.9052"/>
<text text-anchor="middle" x="574" y="-72.9052" font-family="Helvetica,sans-Serif" font-size="10.00">SSwitch::active</text>
</a>
</g>
</g>
<!-- Node3&#45;&gt;Node9 -->
<g id="edge9" class="edge"><title>Node3&#45;&gt;Node9</title>
<path fill="none" stroke="midnightblue" d="M455.302,-62.6265C476.975,-64.9796 501.465,-67.6385 522.472,-69.9193"/>
<polygon fill="midnightblue" stroke="midnightblue" points="522.158,-73.4056 532.477,-71.0055 522.913,-66.4465 522.158,-73.4056"/>
</g>
<!-- Node10 -->
<g id="node10" class="node"><title>Node10</title>
<g id="a_node10"><a xlink:href="class_t_m_c2208_stepper.html#a409c19fa6b052a370a317d061bf9af4e" target="_top" xlink:title=" ">
<polygon fill="white" stroke="black" points="506,-27.9052 506,-46.9052 642,-46.9052 642,-27.9052 506,-27.9052"/>
<text text-anchor="middle" x="574" y="-34.9052" font-family="Helvetica,sans-Serif" font-size="10.00">TMC2208Stepper::calcCRC</text>
</a>
</g>
</g>
<!-- Node3&#45;&gt;Node10 -->
<g id="edge10" class="edge"><title>Node3&#45;&gt;Node10</title>
<path fill="none" stroke="midnightblue" d="M455.302,-50.1839C468.17,-48.7867 482.032,-47.2817 495.567,-45.8121"/>
<polygon fill="midnightblue" stroke="midnightblue" points="496.269,-49.2566 505.833,-44.6976 495.514,-42.2975 496.269,-49.2566"/>
</g>
<!-- Node5 -->
<g id="node5" class="node"><title>Node5</title>
<g id="a_node5"><a xlink:href="class_t_m_c2208_stepper.html#a4ec5d2b2f5a31259c7aba1f3208d63b8" target="_top" xlink:title=" ">
<polygon fill="white" stroke="black" points="707.5,-128.905 707.5,-147.905 823.5,-147.905 823.5,-128.905 707.5,-128.905"/>
<text text-anchor="middle" x="765.5" y="-135.905" font-family="Helvetica,sans-Serif" font-size="10.00">TMC2208Stepper::ms2</text>
</a>
</g>
</g>
<!-- Node4&#45;&gt;Node5 -->
<g id="edge4" class="edge"><title>Node4&#45;&gt;Node5</title>
<path fill="none" stroke="midnightblue" d="M647.182,-122.928C663.64,-125.099 681.062,-127.397 697.301,-129.54"/>
<polygon fill="midnightblue" stroke="midnightblue" points="696.868,-133.013 707.24,-130.851 697.784,-126.073 696.868,-133.013"/>
</g>
<!-- Node7 -->
<g id="node7" class="node"><title>Node7</title>
<g id="a_node7"><a xlink:href="class_t_m_c2208_stepper.html#ae561da4ec7c40830e97bf4dc8cf700fb" target="_top" xlink:title=" ">
<polygon fill="white" stroke="black" points="693,-90.9052 693,-109.905 838,-109.905 838,-90.9052 693,-90.9052"/>
<text text-anchor="middle" x="765.5" y="-97.9052" font-family="Helvetica,sans-Serif" font-size="10.00">TMC2208Stepper::serial_read</text>
</a>
</g>
</g>
<!-- Node4&#45;&gt;Node7 -->
<g id="edge7" class="edge"><title>Node4&#45;&gt;Node7</title>
<path fill="none" stroke="midnightblue" d="M657.015,-107.779C665.478,-107.198 674.078,-106.608 682.54,-106.028"/>
<polygon fill="midnightblue" stroke="midnightblue" points="683.038,-109.502 692.775,-105.326 682.559,-102.518 683.038,-109.502"/>
</g>
<!-- Node8 -->
<g id="node8" class="node"><title>Node8</title>
<g id="a_node8"><a xlink:href="class_t_m_c2208_stepper.html#a7dd83313385079099b0622957786a979" target="_top" xlink:title=" ">
<polygon fill="white" stroke="black" points="705,-41.4052 705,-71.4052 826,-71.4052 826,-41.4052 705,-41.4052"/>
<text text-anchor="start" x="713" y="-59.4052" font-family="Helvetica,sans-Serif" font-size="10.00">TMC2208Stepper::serial</text>
<text text-anchor="middle" x="765.5" y="-48.4052" font-family="Helvetica,sans-Serif" font-size="10.00">_write</text>
</a>
</g>
</g>
<!-- Node4&#45;&gt;Node8 -->
<g id="edge8" class="edge"><title>Node4&#45;&gt;Node8</title>
<path fill="none" stroke="midnightblue" d="M620.793,-103.808C632.658,-101.045 645.367,-97.8399 657,-94.4052 673.315,-89.5878 676.971,-87.1015 693,-81.4052 699.017,-79.2668 705.325,-77.0401 711.595,-74.8355"/>
<polygon fill="midnightblue" stroke="midnightblue" points="713.095,-78.0185 721.372,-71.4052 710.778,-71.4133 713.095,-78.0185"/>
</g>
<!-- Node6 -->
<g id="node6" class="node"><title>Node6</title>
<g id="a_node6"><a xlink:href="class_t_m_c2208_stepper.html#a5441dd87d0bcea4ffc309cb012166a57" target="_top" xlink:title=" ">
<polygon fill="white" stroke="black" points="874,-58.9052 874,-77.9052 990,-77.9052 990,-58.9052 874,-58.9052"/>
<text text-anchor="middle" x="932" y="-65.9052" font-family="Helvetica,sans-Serif" font-size="10.00">TMC2208Stepper::IOIN</text>
</a>
</g>
</g>
<!-- Node5&#45;&gt;Node6 -->
<g id="edge5" class="edge"><title>Node5&#45;&gt;Node6</title>
<path fill="none" stroke="midnightblue" d="M809.395,-128.814C818.954,-126.18 828.937,-123.032 838,-119.405 862.717,-109.514 889.177,-94.529 907.529,-83.3584"/>
<polygon fill="midnightblue" stroke="midnightblue" points="909.423,-86.3019 916.088,-78.0661 905.742,-80.348 909.423,-86.3019"/>
</g>
<!-- Node6&#45;&gt;Node3 -->
<g id="edge6" class="edge"><title>Node6&#45;&gt;Node3</title>
<path fill="none" stroke="midnightblue" d="M911.963,-58.8176C893.546,-50.0326 864.593,-37.4965 838,-31.4052 687.566,3.05335 642.437,11.3399 491,-18.4052 467.751,-22.9717 442.989,-33.3919 424.866,-42.1675"/>
<polygon fill="midnightblue" stroke="midnightblue" points="422.917,-39.2285 415.532,-46.826 426.043,-45.4917 422.917,-39.2285"/>
</g>
</g>
</svg>
