<?xml version="1.0" encoding="UTF-8" standalone="no"?>
<!DOCTYPE svg PUBLIC "-//W3C//DTD SVG 1.1//EN"
 "http://www.w3.org/Graphics/SVG/1.1/DTD/svg11.dtd">
<!-- Generated by graphviz version 2.38.0 (20140413.2041)
 -->
<!-- Title: TMCStepper::rms_current Pages: 1 -->
<svg width="300pt" height="78pt"
 viewBox="0.00 0.00 300.00 77.50" xmlns="http://www.w3.org/2000/svg" xmlns:xlink="http://www.w3.org/1999/xlink">
<g id="graph0" class="graph" transform="scale(1 1) rotate(0) translate(4 73.5)">
<title>TMCStepper::rms_current</title>
<polygon fill="white" stroke="none" points="-4,4 -4,-73.5 296,-73.5 296,4 -4,4"/>
<!-- Node1 -->
<g id="node1" class="node"><title>Node1</title>
<g id="a_node1"><a xlink:title=" ">
<polygon fill="#bfbfbf" stroke="black" points="164,-28 164,-47 292,-47 292,-28 164,-28"/>
<text text-anchor="middle" x="228" y="-35" font-family="Helvetica,sans-Serif" font-size="10.00">TMCStepper::rms_current</text>
</a>
</g>
</g>
<!-- Node2 -->
<g id="node2" class="node"><title>Node2</title>
<g id="a_node2"><a xlink:href="class_t_m_c_stepper.html#ab42a120cb3172ce493b88f02e0233f9a" target="_top" xlink:title=" ">
<polygon fill="white" stroke="black" points="0,-50 0,-69 128,-69 128,-50 0,-50"/>
<text text-anchor="middle" x="64" y="-57" font-family="Helvetica,sans-Serif" font-size="10.00">TMCStepper::rms_current</text>
</a>
</g>
</g>
<!-- Node1&#45;&gt;Node2 -->
<g id="edge1" class="edge"><title>Node1&#45;&gt;Node2</title>
<path fill="none" stroke="midnightblue" d="M153.906,-47.4263C145.324,-48.5918 136.622,-49.7735 128.192,-50.9184"/>
<polygon fill="midnightblue" stroke="midnightblue" points="154.465,-50.8827 163.903,-46.0688 153.523,-43.9464 154.465,-50.8827"/>
</g>
<!-- Node3 -->
<g id="node3" class="node"><title>Node3</title>
<g id="a_node3"><a xlink:href="class_t_m_c5130_stepper.html#a6f20aa4a690a1ad2bdb845d11cc5e60f" target="_top" xlink:title=" ">
<polygon fill="white" stroke="black" points="7,-0.5 7,-30.5 121,-30.5 121,-0.5 7,-0.5"/>
<text text-anchor="start" x="15" y="-18.5" font-family="Helvetica,sans-Serif" font-size="10.00">TMC5130Stepper::rms</text>
<text text-anchor="middle" x="64" y="-7.5" font-family="Helvetica,sans-Serif" font-size="10.00">_current</text>
</a>
</g>
</g>
<!-- Node1&#45;&gt;Node3 -->
<g id="edge2" class="edge"><title>Node1&#45;&gt;Node3</title>
<path fill="none" stroke="midnightblue" d="M153.868,-27.5685C142.856,-26.073 131.648,-24.5509 121.068,-23.1142"/>
<polygon fill="midnightblue" stroke="midnightblue" points="153.523,-31.0536 163.903,-28.9312 154.465,-24.1173 153.523,-31.0536"/>
</g>
</g>
</svg>
