<?xml version="1.0" encoding="UTF-8" standalone="no"?>
<!DOCTYPE svg PUBLIC "-//W3C//DTD SVG 1.1//EN"
 "http://www.w3.org/Graphics/SVG/1.1/DTD/svg11.dtd">
<!-- Generated by graphviz version 2.38.0 (20140413.2041)
 -->
<!-- Title: TMC5130Stepper::push Pages: 1 -->
<!--zoomable 1192 -->
<svg id="main" version="1.1" xmlns="http://www.w3.org/2000/svg" xmlns:xlink="http://www.w3.org/1999/xlink" xml:space="preserve" onload="init(evt)">
<style type="text/css"><![CDATA[
.edge:hover path { stroke: red; }
.edge:hover polygon { stroke: red; fill: red; }
]]></style>
<script type="text/javascript"><![CDATA[
var edges = document.getElementsByTagName('g');
if (edges && edges.length) {
  for (var i=0;i<edges.length;i++) {
    if (edges[i].id.substr(0,4)=='edge') {
      edges[i].setAttribute('class','edge');
    }
  }
}
]]></script>
        <defs>
                <circle id="rim" cx="0" cy="0" r="7"/>
                <circle id="rim2" cx="0" cy="0" r="3.5"/>
                <g id="zoomPlus">
                        <use xlink:href="#rim" fill="#404040">
                                <set attributeName="fill" to="#808080" begin="zoomplus.mouseover" end="zoomplus.mouseout"/>
                        </use>
                        <path d="M-4,0h8M0,-4v8" fill="none" stroke="white" stroke-width="1.5" pointer-events="none"/>
                </g>
                <g id="zoomMin">
                        <use xlink:href="#rim" fill="#404040">
                                <set attributeName="fill" to="#808080" begin="zoomminus.mouseover" end="zoomminus.mouseout"/>
                        </use>
                        <path d="M-4,0h8" fill="none" stroke="white" stroke-width="1.5" pointer-events="none"/>
                </g>
                <g id="dirArrow">
                        <path fill="none" stroke="white" stroke-width="1.5" d="M0,-3.0v7 M-2.5,-0.5L0,-3.0L2.5,-0.5"/>
                </g>
               <g id="resetDef">
                       <use xlink:href="#rim2" fill="#404040">
                               <set attributeName="fill" to="#808080" begin="reset.mouseover" end="reset.mouseout"/>
                       </use>
               </g>
        </defs>

<script type="text/javascript">
var viewWidth = 814;
var viewHeight = 1192;
var sectionId = 'dynsection-71';
</script>
<script xlink:href="svgpan.js"/>
<svg id="graph" class="graph">
<g id="viewport">
<title>TMC5130Stepper::push</title>
<polygon fill="white" stroke="none" points="-4,4 -4,-1188 810,-1188 810,4 -4,4"/>
<!-- Node1 -->
<g id="node1" class="node"><title>Node1</title>
<g id="a_node1"><a xlink:title=" ">
<polygon fill="#bfbfbf" stroke="black" points="0,-582.5 0,-601.5 119,-601.5 119,-582.5 0,-582.5"/>
<text text-anchor="middle" x="59.5" y="-589.5" font-family="Helvetica,sans-Serif" font-size="10.00">TMC5130Stepper::push</text>
</a>
</g>
</g>
<!-- Node2 -->
<g id="node2" class="node"><title>Node2</title>
<g id="a_node2"><a xlink:href="class_t_m_c5130_stepper.html#a6476b50719166c3d820991d266025dee" target="_top" xlink:title=" ">
<polygon fill="white" stroke="black" points="179,-1164.5 179,-1183.5 289,-1183.5 289,-1164.5 179,-1164.5"/>
<text text-anchor="middle" x="234" y="-1171.5" font-family="Helvetica,sans-Serif" font-size="10.00">TMC5130Stepper::A1</text>
</a>
</g>
</g>
<!-- Node1&#45;&gt;Node2 -->
<g id="edge1" class="edge"><title>Node1&#45;&gt;Node2</title>
<path fill="none" stroke="midnightblue" d="M60.7243,-601.878C62.4723,-670.012 76.0358,-1070.08 155,-1155 159.074,-1159.38 163.974,-1162.83 169.309,-1165.53"/>
<polygon fill="midnightblue" stroke="midnightblue" points="168.052,-1168.8 178.63,-1169.41 170.741,-1162.33 168.052,-1168.8"/>
</g>
<!-- Node3 -->
<g id="node3" class="node"><title>Node3</title>
<g id="a_node3"><a xlink:href="class_t_m_c5130_stepper.html#a1d199eabd1b7da86c2518603c10bf8d9" target="_top" xlink:title=" ">
<polygon fill="white" stroke="black" points="171.5,-1126.5 171.5,-1145.5 296.5,-1145.5 296.5,-1126.5 171.5,-1126.5"/>
<text text-anchor="middle" x="234" y="-1133.5" font-family="Helvetica,sans-Serif" font-size="10.00">TMC5130Stepper::AMAX</text>
</a>
</g>
</g>
<!-- Node1&#45;&gt;Node3 -->
<g id="edge2" class="edge"><title>Node1&#45;&gt;Node3</title>
<path fill="none" stroke="midnightblue" d="M60.8446,-601.629C63.3571,-666.388 80.9065,-1038.26 155,-1117 157.292,-1119.44 159.84,-1121.58 162.576,-1123.47"/>
<polygon fill="midnightblue" stroke="midnightblue" points="160.852,-1126.52 171.278,-1128.4 164.303,-1120.43 160.852,-1126.52"/>
</g>
<!-- Node4 -->
<g id="node4" class="node"><title>Node4</title>
<g id="a_node4"><a xlink:href="class_t_m_c2130_stepper.html#a67541b27d97ce45f175e9f6e4a2d0bff" target="_top" xlink:title=" ">
<polygon fill="white" stroke="black" points="158,-1088.5 158,-1107.5 310,-1107.5 310,-1088.5 158,-1088.5"/>
<text text-anchor="middle" x="234" y="-1095.5" font-family="Helvetica,sans-Serif" font-size="10.00">TMC2130Stepper::CHOPCONF</text>
</a>
</g>
</g>
<!-- Node1&#45;&gt;Node4 -->
<g id="edge3" class="edge"><title>Node1&#45;&gt;Node4</title>
<path fill="none" stroke="midnightblue" d="M60.9958,-601.726C64.3664,-664.005 85.8967,-1006.55 155,-1079 156.257,-1080.32 157.588,-1081.55 158.983,-1082.7"/>
<polygon fill="midnightblue" stroke="midnightblue" points="157.341,-1085.82 167.598,-1088.47 161.235,-1080 157.341,-1085.82"/>
</g>
<!-- Node9 -->
<g id="node9" class="node"><title>Node9</title>
<g id="a_node9"><a xlink:href="class_t_m_c2130_stepper.html#abc48be984238d94bb3b72ed3aa26f028" target="_top" xlink:title=" ">
<polygon fill="white" stroke="black" points="158,-1050.5 158,-1069.5 310,-1069.5 310,-1050.5 158,-1050.5"/>
<text text-anchor="middle" x="234" y="-1057.5" font-family="Helvetica,sans-Serif" font-size="10.00">TMC2130Stepper::COOLCONF</text>
</a>
</g>
</g>
<!-- Node1&#45;&gt;Node9 -->
<g id="edge9" class="edge"><title>Node1&#45;&gt;Node9</title>
<path fill="none" stroke="midnightblue" d="M61.1679,-601.731C65.4409,-661.154 90.8357,-974.782 155,-1041 156.267,-1042.31 157.608,-1043.53 159.011,-1044.68"/>
<polygon fill="midnightblue" stroke="midnightblue" points="157.394,-1047.8 167.664,-1050.41 161.259,-1041.97 157.394,-1047.8"/>
</g>
<!-- Node10 -->
<g id="node10" class="node"><title>Node10</title>
<g id="a_node10"><a xlink:href="class_t_m_c5130_stepper.html#aaa7d6b05f9e6fc1bcb4d3b59de16f509" target="_top" xlink:title=" ">
<polygon fill="white" stroke="black" points="179,-1012.5 179,-1031.5 289,-1031.5 289,-1012.5 179,-1012.5"/>
<text text-anchor="middle" x="234" y="-1019.5" font-family="Helvetica,sans-Serif" font-size="10.00">TMC5130Stepper::D1</text>
</a>
</g>
</g>
<!-- Node1&#45;&gt;Node10 -->
<g id="edge10" class="edge"><title>Node1&#45;&gt;Node10</title>
<path fill="none" stroke="midnightblue" d="M61.3616,-601.634C66.579,-657.838 95.7205,-942.949 155,-1003 159.203,-1007.26 164.189,-1010.62 169.577,-1013.27"/>
<polygon fill="midnightblue" stroke="midnightblue" points="168.377,-1016.56 178.959,-1017.09 171.016,-1010.08 168.377,-1016.56"/>
</g>
<!-- Node11 -->
<g id="node11" class="node"><title>Node11</title>
<g id="a_node11"><a xlink:href="class_t_m_c2130_stepper.html#a1a90b2919efe61dd825552c2fbeca993" target="_top" xlink:title=" ">
<polygon fill="white" stroke="black" points="166.5,-974.5 166.5,-993.5 301.5,-993.5 301.5,-974.5 166.5,-974.5"/>
<text text-anchor="middle" x="234" y="-981.5" font-family="Helvetica,sans-Serif" font-size="10.00">TMC2130Stepper::DCCTRL</text>
</a>
</g>
</g>
<!-- Node1&#45;&gt;Node11 -->
<g id="edge11" class="edge"><title>Node1&#45;&gt;Node11</title>
<path fill="none" stroke="midnightblue" d="M61.6186,-601.776C67.9213,-655.174 100.666,-911.163 155,-965 156.448,-966.435 157.985,-967.768 159.596,-969.005"/>
<polygon fill="midnightblue" stroke="midnightblue" points="157.877,-972.059 168.202,-974.435 161.613,-966.139 157.877,-972.059"/>
</g>
<!-- Node12 -->
<g id="node12" class="node"><title>Node12</title>
<g id="a_node12"><a xlink:href="class_t_m_c5130_stepper.html#a4ba4cbc9e54f1f43255ebeca609a3d7c" target="_top" xlink:title=" ">
<polygon fill="white" stroke="black" points="171.5,-936.5 171.5,-955.5 296.5,-955.5 296.5,-936.5 171.5,-936.5"/>
<text text-anchor="middle" x="234" y="-943.5" font-family="Helvetica,sans-Serif" font-size="10.00">TMC5130Stepper::DMAX</text>
</a>
</g>
</g>
<!-- Node1&#45;&gt;Node12 -->
<g id="edge13" class="edge"><title>Node1&#45;&gt;Node12</title>
<path fill="none" stroke="midnightblue" d="M60.0052,-601.69C58.2964,-646.191 57.3595,-832.814 155,-927 157.284,-929.203 159.778,-931.164 162.428,-932.91"/>
<polygon fill="midnightblue" stroke="midnightblue" points="160.895,-936.06 171.349,-937.78 164.249,-929.916 160.895,-936.06"/>
</g>
<!-- Node13 -->
<g id="node13" class="node"><title>Node13</title>
<g id="a_node13"><a xlink:href="class_t_m_c2160_stepper.html#adce396d6676a252e87507a30ba44c693" target="_top" xlink:title=" ">
<polygon fill="white" stroke="black" points="159,-898.5 159,-917.5 309,-917.5 309,-898.5 159,-898.5"/>
<text text-anchor="middle" x="234" y="-905.5" font-family="Helvetica,sans-Serif" font-size="10.00">TMC2160Stepper::DRV_CONF</text>
</a>
</g>
</g>
<!-- Node1&#45;&gt;Node13 -->
<g id="edge14" class="edge"><title>Node1&#45;&gt;Node13</title>
<path fill="none" stroke="midnightblue" d="M60.4093,-601.707C60.5772,-643.147 66.978,-806.861 155,-889 156.529,-890.426 158.146,-891.751 159.836,-892.98"/>
<polygon fill="midnightblue" stroke="midnightblue" points="158.447,-896.229 168.823,-898.37 162.047,-890.225 158.447,-896.229"/>
</g>
<!-- Node14 -->
<g id="node14" class="node"><title>Node14</title>
<g id="a_node14"><a xlink:href="class_t_m_c5130_stepper.html#a5cf838fb4ec111c06714f666e8e1807b" target="_top" xlink:title=" ">
<polygon fill="white" stroke="black" points="175,-849 175,-879 293,-879 293,-849 175,-849"/>
<text text-anchor="start" x="183" y="-867" font-family="Helvetica,sans-Serif" font-size="10.00">TMC5130Stepper::ENC</text>
<text text-anchor="middle" x="234" y="-856" font-family="Helvetica,sans-Serif" font-size="10.00">_CONST</text>
</a>
</g>
</g>
<!-- Node1&#45;&gt;Node14 -->
<g id="edge15" class="edge"><title>Node1&#45;&gt;Node14</title>
<path fill="none" stroke="midnightblue" d="M61.2745,-601.657C64.7304,-638.262 81.964,-769.891 155,-839 158.284,-842.108 161.956,-844.829 165.868,-847.212"/>
<polygon fill="midnightblue" stroke="midnightblue" points="164.283,-850.333 174.76,-851.908 167.552,-844.143 164.283,-850.333"/>
</g>
<!-- Node15 -->
<g id="node15" class="node"><title>Node15</title>
<g id="a_node15"><a xlink:href="class_t_m_c2130_stepper.html#ae9ccc393519579143c2afb67da9d02a3" target="_top" xlink:title=" ">
<polygon fill="white" stroke="black" points="156.5,-810.5 156.5,-829.5 311.5,-829.5 311.5,-810.5 156.5,-810.5"/>
<text text-anchor="middle" x="234" y="-817.5" font-family="Helvetica,sans-Serif" font-size="10.00">TMC2130Stepper::ENCM_CTRL</text>
</a>
</g>
</g>
<!-- Node1&#45;&gt;Node15 -->
<g id="edge16" class="edge"><title>Node1&#45;&gt;Node15</title>
<path fill="none" stroke="midnightblue" d="M61.8519,-601.691C67.0371,-635.047 88.8014,-746.08 155,-801 157.018,-802.674 159.161,-804.205 161.399,-805.604"/>
<polygon fill="midnightblue" stroke="midnightblue" points="159.964,-808.805 170.442,-810.375 163.231,-802.613 159.964,-808.805"/>
</g>
<!-- Node16 -->
<g id="node16" class="node"><title>Node16</title>
<g id="a_node16"><a xlink:href="class_t_m_c5130_stepper.html#a3c7840e9435d4332fc6a7742deeefa9f" target="_top" xlink:title=" ">
<polygon fill="white" stroke="black" points="160.5,-772.5 160.5,-791.5 307.5,-791.5 307.5,-772.5 160.5,-772.5"/>
<text text-anchor="middle" x="234" y="-779.5" font-family="Helvetica,sans-Serif" font-size="10.00">TMC5130Stepper::ENCMODE</text>
</a>
</g>
</g>
<!-- Node1&#45;&gt;Node16 -->
<g id="edge17" class="edge"><title>Node1&#45;&gt;Node16</title>
<path fill="none" stroke="midnightblue" d="M62.8514,-601.549C70.5511,-630.722 97.8608,-719.343 155,-763 157.468,-764.885 160.097,-766.587 162.84,-768.121"/>
<polygon fill="midnightblue" stroke="midnightblue" points="161.404,-771.314 171.935,-772.478 164.428,-765.001 161.404,-771.314"/>
</g>
<!-- Node17 -->
<g id="node17" class="node"><title>Node17</title>
<g id="a_node17"><a xlink:href="class_t_m_c2130_stepper.html#aee84a9abfc84b387c6ae5658f90bf684" target="_top" xlink:title=" ">
<polygon fill="white" stroke="black" points="168,-734.5 168,-753.5 300,-753.5 300,-734.5 168,-734.5"/>
<text text-anchor="middle" x="234" y="-741.5" font-family="Helvetica,sans-Serif" font-size="10.00">TMC2130Stepper::GCONF</text>
</a>
</g>
</g>
<!-- Node1&#45;&gt;Node17 -->
<g id="edge19" class="edge"><title>Node1&#45;&gt;Node17</title>
<path fill="none" stroke="midnightblue" d="M64.5355,-601.852C75.2545,-626.727 106.944,-692.405 155,-725 158.064,-727.078 161.332,-728.93 164.728,-730.579"/>
<polygon fill="midnightblue" stroke="midnightblue" points="163.394,-733.815 173.968,-734.49 166.123,-727.369 163.394,-733.815"/>
</g>
<!-- Node18 -->
<g id="node18" class="node"><title>Node18</title>
<g id="a_node18"><a xlink:href="class_t_m_c_stepper.html#a597bc308bad0d1198b98c48a6ef34fc3" target="_top" xlink:title=" ">
<polygon fill="white" stroke="black" points="167.5,-696.5 167.5,-715.5 300.5,-715.5 300.5,-696.5 167.5,-696.5"/>
<text text-anchor="middle" x="234" y="-703.5" font-family="Helvetica,sans-Serif" font-size="10.00">TMCStepper::IHOLD_IRUN</text>
</a>
</g>
</g>
<!-- Node1&#45;&gt;Node18 -->
<g id="edge21" class="edge"><title>Node1&#45;&gt;Node18</title>
<path fill="none" stroke="midnightblue" d="M67.0948,-601.518C80.9889,-620.814 115.284,-664.602 155,-687 159.001,-689.256 163.264,-691.246 167.655,-693.001"/>
<polygon fill="midnightblue" stroke="midnightblue" points="166.828,-696.422 177.423,-696.481 169.177,-689.828 166.828,-696.422"/>
</g>
<!-- Node19 -->
<g id="node19" class="node"><title>Node19</title>
<g id="a_node19"><a xlink:href="class_t_m_c2160_stepper.html#ae59c6240979e95e7b05074e20f3600de" target="_top" xlink:title=" ">
<polygon fill="white" stroke="black" points="159.5,-658.5 159.5,-677.5 308.5,-677.5 308.5,-658.5 159.5,-658.5"/>
<text text-anchor="middle" x="234" y="-665.5" font-family="Helvetica,sans-Serif" font-size="10.00">TMC2160Stepper::PWMCONF</text>
</a>
</g>
</g>
<!-- Node1&#45;&gt;Node19 -->
<g id="edge22" class="edge"><title>Node1&#45;&gt;Node19</title>
<path fill="none" stroke="midnightblue" d="M73.5844,-601.672C91.2224,-614.281 123.999,-636.226 155,-649 161.147,-651.533 167.712,-653.782 174.325,-655.764"/>
<polygon fill="midnightblue" stroke="midnightblue" points="173.432,-659.149 184.006,-658.48 175.323,-652.409 173.432,-659.149"/>
</g>
<!-- Node20 -->
<g id="node20" class="node"><title>Node20</title>
<g id="a_node20"><a xlink:href="class_t_m_c5130_stepper.html#a020e6ae2a6abce1a92338345aab2ae7c" target="_top" xlink:title=" ">
<polygon fill="white" stroke="black" points="156.5,-620.5 156.5,-639.5 311.5,-639.5 311.5,-620.5 156.5,-620.5"/>
<text text-anchor="middle" x="234" y="-627.5" font-family="Helvetica,sans-Serif" font-size="10.00">TMC5130Stepper::RAMPMODE</text>
</a>
</g>
</g>
<!-- Node1&#45;&gt;Node20 -->
<g id="edge23" class="edge"><title>Node1&#45;&gt;Node20</title>
<path fill="none" stroke="midnightblue" d="M104.029,-601.589C127.1,-606.671 155.627,-612.955 179.981,-618.32"/>
<polygon fill="midnightblue" stroke="midnightblue" points="179.265,-621.747 189.784,-620.48 180.771,-614.911 179.265,-621.747"/>
</g>
<!-- Node21 -->
<g id="node21" class="node"><title>Node21</title>
<g id="a_node21"><a xlink:href="class_t_m_c5130_stepper.html#acebb43936d46f78195486c79dc2cf75e" target="_top" xlink:title=" ">
<polygon fill="white" stroke="black" points="155.5,-582.5 155.5,-601.5 312.5,-601.5 312.5,-582.5 155.5,-582.5"/>
<text text-anchor="middle" x="234" y="-589.5" font-family="Helvetica,sans-Serif" font-size="10.00">TMC5130Stepper::SLAVECONF</text>
</a>
</g>
</g>
<!-- Node1&#45;&gt;Node21 -->
<g id="edge25" class="edge"><title>Node1&#45;&gt;Node21</title>
<path fill="none" stroke="midnightblue" d="M119.382,-592C127.73,-592 136.46,-592 145.21,-592"/>
<polygon fill="midnightblue" stroke="midnightblue" points="145.471,-595.5 155.471,-592 145.471,-588.5 145.471,-595.5"/>
</g>
<!-- Node22 -->
<g id="node22" class="node"><title>Node22</title>
<g id="a_node22"><a xlink:href="class_t_m_c5130_stepper.html#af78bc5ec6076b4e7ac8006488b069413" target="_top" xlink:title=" ">
<polygon fill="white" stroke="black" points="159.5,-544.5 159.5,-563.5 308.5,-563.5 308.5,-544.5 159.5,-544.5"/>
<text text-anchor="middle" x="234" y="-551.5" font-family="Helvetica,sans-Serif" font-size="10.00">TMC5130Stepper::SW_MODE</text>
</a>
</g>
</g>
<!-- Node1&#45;&gt;Node22 -->
<g id="edge26" class="edge"><title>Node1&#45;&gt;Node22</title>
<path fill="none" stroke="midnightblue" d="M104.029,-582.411C127.1,-577.329 155.627,-571.045 179.981,-565.68"/>
<polygon fill="midnightblue" stroke="midnightblue" points="180.771,-569.089 189.784,-563.52 179.265,-562.253 180.771,-569.089"/>
</g>
<!-- Node23 -->
<g id="node23" class="node"><title>Node23</title>
<g id="a_node23"><a xlink:href="class_t_m_c2130_stepper.html#a5db9c2e01d8c1994a5c58d0bf0b1d9b1" target="_top" xlink:title=" ">
<polygon fill="white" stroke="black" points="156.5,-506.5 156.5,-525.5 311.5,-525.5 311.5,-506.5 156.5,-506.5"/>
<text text-anchor="middle" x="234" y="-513.5" font-family="Helvetica,sans-Serif" font-size="10.00">TMC2130Stepper::TCOOLTHRS</text>
</a>
</g>
</g>
<!-- Node1&#45;&gt;Node23 -->
<g id="edge28" class="edge"><title>Node1&#45;&gt;Node23</title>
<path fill="none" stroke="midnightblue" d="M73.5844,-582.328C91.2224,-569.719 123.999,-547.774 155,-535 161.147,-532.467 167.712,-530.218 174.325,-528.236"/>
<polygon fill="midnightblue" stroke="midnightblue" points="175.323,-531.591 184.006,-525.52 173.432,-524.851 175.323,-531.591"/>
</g>
<!-- Node24 -->
<g id="node24" class="node"><title>Node24</title>
<g id="a_node24"><a xlink:href="class_t_m_c2130_stepper.html#a8e7d22e8bc39e89b4a02ad1460e4cf25" target="_top" xlink:title=" ">
<polygon fill="white" stroke="black" points="171,-468.5 171,-487.5 297,-487.5 297,-468.5 171,-468.5"/>
<text text-anchor="middle" x="234" y="-475.5" font-family="Helvetica,sans-Serif" font-size="10.00">TMC2130Stepper::THIGH</text>
</a>
</g>
</g>
<!-- Node1&#45;&gt;Node24 -->
<g id="edge29" class="edge"><title>Node1&#45;&gt;Node24</title>
<path fill="none" stroke="midnightblue" d="M67.0948,-582.482C80.9889,-563.186 115.284,-519.398 155,-497 159.001,-494.744 163.264,-492.754 167.655,-490.999"/>
<polygon fill="midnightblue" stroke="midnightblue" points="169.177,-494.172 177.423,-487.519 166.828,-487.578 169.177,-494.172"/>
</g>
<!-- Node25 -->
<g id="node25" class="node"><title>Node25</title>
<g id="a_node25"><a xlink:href="class_t_m_c5130_stepper.html#af8d19dd1bae46451e78573843d52cd36" target="_top" xlink:title=" ">
<polygon fill="white" stroke="black" points="175,-419 175,-449 293,-449 293,-419 175,-419"/>
<text text-anchor="start" x="183" y="-437" font-family="Helvetica,sans-Serif" font-size="10.00">TMC5130Stepper::TMC</text>
<text text-anchor="middle" x="234" y="-426" font-family="Helvetica,sans-Serif" font-size="10.00">_OUTPUT</text>
</a>
</g>
</g>
<!-- Node1&#45;&gt;Node25 -->
<g id="edge30" class="edge"><title>Node1&#45;&gt;Node25</title>
<path fill="none" stroke="midnightblue" d="M64.6773,-582.35C75.7291,-557.947 108.135,-493.285 155,-459 158.264,-456.612 161.765,-454.447 165.41,-452.483"/>
<polygon fill="midnightblue" stroke="midnightblue" points="167.222,-455.496 174.717,-448.007 164.188,-449.187 167.222,-455.496"/>
</g>
<!-- Node26 -->
<g id="node26" class="node"><title>Node26</title>
<g id="a_node26"><a xlink:href="class_t_m_c_stepper.html#a66812c883dfbb6dedc046a011b2564be" target="_top" xlink:title=" ">
<polygon fill="white" stroke="black" points="159,-380.5 159,-399.5 309,-399.5 309,-380.5 159,-380.5"/>
<text text-anchor="middle" x="234" y="-387.5" font-family="Helvetica,sans-Serif" font-size="10.00">TMCStepper::TPOWERDOWN</text>
</a>
</g>
</g>
<!-- Node1&#45;&gt;Node26 -->
<g id="edge31" class="edge"><title>Node1&#45;&gt;Node26</title>
<path fill="none" stroke="midnightblue" d="M62.5776,-582.314C69.6346,-551.843 95.6279,-457.177 155,-410 157.907,-407.69 161.051,-405.644 164.351,-403.832"/>
<polygon fill="midnightblue" stroke="midnightblue" points="165.846,-406.996 173.395,-399.562 162.858,-400.666 165.846,-406.996"/>
</g>
<!-- Node27 -->
<g id="node27" class="node"><title>Node27</title>
<g id="a_node27"><a xlink:href="class_t_m_c_stepper.html#ac59a9305aafc64a63698a34cac404788" target="_top" xlink:title=" ">
<polygon fill="white" stroke="black" points="168,-342.5 168,-361.5 300,-361.5 300,-342.5 168,-342.5"/>
<text text-anchor="middle" x="234" y="-349.5" font-family="Helvetica,sans-Serif" font-size="10.00">TMCStepper::TPWMTHRS</text>
</a>
</g>
</g>
<!-- Node1&#45;&gt;Node27 -->
<g id="edge32" class="edge"><title>Node1&#45;&gt;Node27</title>
<path fill="none" stroke="midnightblue" d="M61.6008,-582.251C66.0483,-547.627 85.9082,-429.53 155,-371 157.001,-369.305 159.128,-367.757 161.354,-366.343"/>
<polygon fill="midnightblue" stroke="midnightblue" points="163.192,-369.329 170.36,-361.527 159.891,-363.156 163.192,-369.329"/>
</g>
<!-- Node28 -->
<g id="node28" class="node"><title>Node28</title>
<g id="a_node28"><a xlink:href="class_t_m_c5130_stepper.html#a3da5ddefeaea5e017d8e608e43269e1e" target="_top" xlink:title=" ">
<polygon fill="white" stroke="black" points="157.5,-304.5 157.5,-323.5 310.5,-323.5 310.5,-304.5 157.5,-304.5"/>
<text text-anchor="middle" x="234" y="-311.5" font-family="Helvetica,sans-Serif" font-size="10.00">TMC5130Stepper::TZEROWAIT</text>
</a>
</g>
</g>
<!-- Node1&#45;&gt;Node28 -->
<g id="edge33" class="edge"><title>Node1&#45;&gt;Node28</title>
<path fill="none" stroke="midnightblue" d="M60.9103,-582.5C63.0783,-544.667 76.3485,-403.378 155,-333 156.73,-331.452 158.565,-330.025 160.484,-328.71"/>
<polygon fill="midnightblue" stroke="midnightblue" points="162.426,-331.631 169.372,-323.631 158.953,-325.553 162.426,-331.631"/>
</g>
<!-- Node29 -->
<g id="node29" class="node"><title>Node29</title>
<g id="a_node29"><a xlink:href="class_t_m_c5130_stepper.html#ac24024aff92555221df26b8d30ccbe09" target="_top" xlink:title=" ">
<polygon fill="white" stroke="black" points="179,-266.5 179,-285.5 289,-285.5 289,-266.5 179,-266.5"/>
<text text-anchor="middle" x="234" y="-273.5" font-family="Helvetica,sans-Serif" font-size="10.00">TMC5130Stepper::V1</text>
</a>
</g>
</g>
<!-- Node1&#45;&gt;Node29 -->
<g id="edge34" class="edge"><title>Node1&#45;&gt;Node29</title>
<path fill="none" stroke="midnightblue" d="M60.4093,-582.293C60.5772,-540.853 66.978,-377.139 155,-295 159.308,-290.979 164.321,-287.769 169.689,-285.21"/>
<polygon fill="midnightblue" stroke="midnightblue" points="171.007,-288.452 178.994,-281.491 168.409,-281.952 171.007,-288.452"/>
</g>
<!-- Node30 -->
<g id="node30" class="node"><title>Node30</title>
<g id="a_node30"><a xlink:href="class_t_m_c2130_stepper.html#a4389f7f07c57d2267351b781c6031fb4" target="_top" xlink:title=" ">
<polygon fill="white" stroke="black" points="166.5,-228.5 166.5,-247.5 301.5,-247.5 301.5,-228.5 166.5,-228.5"/>
<text text-anchor="middle" x="234" y="-235.5" font-family="Helvetica,sans-Serif" font-size="10.00">TMC2130Stepper::VDCMIN</text>
</a>
</g>
</g>
<!-- Node1&#45;&gt;Node30 -->
<g id="edge35" class="edge"><title>Node1&#45;&gt;Node30</title>
<path fill="none" stroke="midnightblue" d="M60.0052,-582.31C58.2964,-537.809 57.3595,-351.186 155,-257 156.467,-255.585 158.021,-254.269 159.647,-253.047"/>
<polygon fill="midnightblue" stroke="midnightblue" points="161.656,-255.92 168.312,-247.677 157.968,-249.97 161.656,-255.92"/>
</g>
<!-- Node31 -->
<g id="node31" class="node"><title>Node31</title>
<g id="a_node31"><a xlink:href="class_t_m_c5130_stepper.html#aaa76fdd1c6e8e7f6bb886e0b0031a500" target="_top" xlink:title=" ">
<polygon fill="white" stroke="black" points="171.5,-190.5 171.5,-209.5 296.5,-209.5 296.5,-190.5 171.5,-190.5"/>
<text text-anchor="middle" x="234" y="-197.5" font-family="Helvetica,sans-Serif" font-size="10.00">TMC5130Stepper::VMAX</text>
</a>
</g>
</g>
<!-- Node1&#45;&gt;Node31 -->
<g id="edge36" class="edge"><title>Node1&#45;&gt;Node31</title>
<path fill="none" stroke="midnightblue" d="M61.6186,-582.224C67.9213,-528.826 100.666,-272.837 155,-219 157.254,-216.767 159.724,-214.78 162.353,-213.015"/>
<polygon fill="midnightblue" stroke="midnightblue" points="164.178,-216.005 171.226,-208.095 160.784,-209.883 164.178,-216.005"/>
</g>
<!-- Node32 -->
<g id="node32" class="node"><title>Node32</title>
<g id="a_node32"><a xlink:href="class_t_m_c5130_stepper.html#a93bf8f37da496535e8c7313096051de7" target="_top" xlink:title=" ">
<polygon fill="white" stroke="black" points="166.5,-152.5 166.5,-171.5 301.5,-171.5 301.5,-152.5 166.5,-152.5"/>
<text text-anchor="middle" x="234" y="-159.5" font-family="Helvetica,sans-Serif" font-size="10.00">TMC5130Stepper::VSTART</text>
</a>
</g>
</g>
<!-- Node1&#45;&gt;Node32 -->
<g id="edge37" class="edge"><title>Node1&#45;&gt;Node32</title>
<path fill="none" stroke="midnightblue" d="M61.3616,-582.366C66.579,-526.162 95.7205,-241.051 155,-181 156.279,-179.704 157.631,-178.491 159.044,-177.356"/>
<polygon fill="midnightblue" stroke="midnightblue" points="161.287,-180.071 167.74,-171.669 157.455,-174.213 161.287,-180.071"/>
</g>
<!-- Node33 -->
<g id="node33" class="node"><title>Node33</title>
<g id="a_node33"><a xlink:href="class_t_m_c5130_stepper.html#a7afed936cd9b037d460dc30433d89911" target="_top" xlink:title=" ">
<polygon fill="white" stroke="black" points="168.5,-114.5 168.5,-133.5 299.5,-133.5 299.5,-114.5 168.5,-114.5"/>
<text text-anchor="middle" x="234" y="-121.5" font-family="Helvetica,sans-Serif" font-size="10.00">TMC5130Stepper::VSTOP</text>
</a>
</g>
</g>
<!-- Node1&#45;&gt;Node33 -->
<g id="edge38" class="edge"><title>Node1&#45;&gt;Node33</title>
<path fill="none" stroke="midnightblue" d="M61.1679,-582.269C65.4409,-522.846 90.8357,-209.218 155,-143 156.455,-141.499 158.007,-140.108 159.64,-138.82"/>
<polygon fill="midnightblue" stroke="midnightblue" points="161.874,-141.546 168.404,-133.202 158.096,-135.653 161.874,-141.546"/>
</g>
<!-- Node34 -->
<g id="node34" class="node"><title>Node34</title>
<g id="a_node34"><a xlink:href="class_t_m_c5130_stepper.html#a694840324312e15515f3215c83565645" target="_top" xlink:title=" ">
<polygon fill="white" stroke="black" points="155,-76.5 155,-95.5 313,-95.5 313,-76.5 155,-76.5"/>
<text text-anchor="middle" x="234" y="-83.5" font-family="Helvetica,sans-Serif" font-size="10.00">TMC5130Stepper::X_COMPARE</text>
</a>
</g>
</g>
<!-- Node1&#45;&gt;Node34 -->
<g id="edge39" class="edge"><title>Node1&#45;&gt;Node34</title>
<path fill="none" stroke="midnightblue" d="M60.9958,-582.274C64.3664,-519.995 85.8967,-177.45 155,-105 156.257,-103.683 157.588,-102.45 158.983,-101.297"/>
<polygon fill="midnightblue" stroke="midnightblue" points="161.235,-104.002 167.598,-95.5308 157.341,-98.185 161.235,-104.002"/>
</g>
<!-- Node35 -->
<g id="node35" class="node"><title>Node35</title>
<g id="a_node35"><a xlink:href="class_t_m_c5130_stepper.html#a7ddd27bea8034e6aec78ab2cf83cedd4" target="_top" xlink:title=" ">
<polygon fill="white" stroke="black" points="164,-38.5 164,-57.5 304,-57.5 304,-38.5 164,-38.5"/>
<text text-anchor="middle" x="234" y="-45.5" font-family="Helvetica,sans-Serif" font-size="10.00">TMC5130Stepper::XACTUAL</text>
</a>
</g>
</g>
<!-- Node1&#45;&gt;Node35 -->
<g id="edge40" class="edge"><title>Node1&#45;&gt;Node35</title>
<path fill="none" stroke="midnightblue" d="M60.8446,-582.371C63.3571,-517.612 80.9065,-145.745 155,-67 156.215,-65.709 157.501,-64.4993 158.85,-63.3662"/>
<polygon fill="midnightblue" stroke="midnightblue" points="160.893,-66.2093 167.176,-57.6784 156.944,-60.4292 160.893,-66.2093"/>
</g>
<!-- Node36 -->
<g id="node36" class="node"><title>Node36</title>
<g id="a_node36"><a xlink:href="class_t_m_c2130_stepper.html#af486cd4712be021c735fc3bcb8eee9f5" target="_top" xlink:title=" ">
<polygon fill="white" stroke="black" points="165.5,-0.5 165.5,-19.5 302.5,-19.5 302.5,-0.5 165.5,-0.5"/>
<text text-anchor="middle" x="234" y="-7.5" font-family="Helvetica,sans-Serif" font-size="10.00">TMC2130Stepper::XDIRECT</text>
</a>
</g>
</g>
<!-- Node1&#45;&gt;Node36 -->
<g id="edge42" class="edge"><title>Node1&#45;&gt;Node36</title>
<path fill="none" stroke="midnightblue" d="M60.7243,-582.122C62.4723,-513.988 76.0358,-113.919 155,-29 156.207,-27.7018 157.487,-26.4858 158.829,-25.3468"/>
<polygon fill="midnightblue" stroke="midnightblue" points="160.876,-28.187 167.127,-19.6328 156.906,-22.4217 160.876,-28.187"/>
</g>
<!-- Node5 -->
<g id="node5" class="node"><title>Node5</title>
<g id="a_node5"><a xlink:href="class_t_m_c2130_stepper.html#aed0175bff6e80ebc14e0d2606283cbe0" target="_top" xlink:title=" ">
<polygon fill="white" stroke="black" points="349,-677.5 349,-696.5 465,-696.5 465,-677.5 349,-677.5"/>
<text text-anchor="middle" x="407" y="-684.5" font-family="Helvetica,sans-Serif" font-size="10.00">TMC2130Stepper::read</text>
</a>
</g>
</g>
<!-- Node4&#45;&gt;Node5 -->
<g id="edge4" class="edge"><title>Node4&#45;&gt;Node5</title>
<path fill="none" stroke="midnightblue" d="M299.861,-1088.5C304.693,-1085.98 309.168,-1082.86 313,-1079 366.716,-1024.96 396.361,-778.977 404,-706.901"/>
<polygon fill="midnightblue" stroke="midnightblue" points="407.524,-706.851 405.072,-696.544 400.561,-706.13 407.524,-706.851"/>
</g>
<!-- Node6 -->
<g id="node6" class="node"><title>Node6</title>
<g id="a_node6"><a xlink:href="class_t_m_c2130_stepper.html#aed8aa4583943e649dbf3bb1c1da90d63" target="_top" xlink:title=" ">
<polygon fill="white" stroke="black" points="501,-715.5 501,-734.5 653,-734.5 653,-715.5 501,-715.5"/>
<text text-anchor="middle" x="577" y="-722.5" font-family="Helvetica,sans-Serif" font-size="10.00">TMC2130Stepper::switchCSpin</text>
</a>
</g>
</g>
<!-- Node5&#45;&gt;Node6 -->
<g id="edge5" class="edge"><title>Node5&#45;&gt;Node6</title>
<path fill="none" stroke="midnightblue" d="M450.393,-696.589C472.763,-701.649 500.398,-707.9 524.047,-713.249"/>
<polygon fill="midnightblue" stroke="midnightblue" points="523.386,-716.687 533.911,-715.48 524.93,-709.86 523.386,-716.687"/>
</g>
<!-- Node7 -->
<g id="node7" class="node"><title>Node7</title>
<g id="a_node7"><a xlink:href="class_s_w___s_p_i_class.html#af260fdc0af3f1312b106483161e559c3" target="_top" xlink:title=" ">
<polygon fill="white" stroke="black" points="689,-658.5 689,-677.5 806,-677.5 806,-658.5 689,-658.5"/>
<text text-anchor="middle" x="747.5" y="-665.5" font-family="Helvetica,sans-Serif" font-size="10.00">SW_SPIClass::transfer</text>
</a>
</g>
</g>
<!-- Node5&#45;&gt;Node7 -->
<g id="edge6" class="edge"><title>Node5&#45;&gt;Node7</title>
<path fill="none" stroke="midnightblue" d="M465.039,-683.798C524.027,-680.487 616.113,-675.319 678.765,-671.802"/>
<polygon fill="midnightblue" stroke="midnightblue" points="679.156,-675.286 688.944,-671.231 678.763,-668.297 679.156,-675.286"/>
</g>
<!-- Node8 -->
<g id="node8" class="node"><title>Node8</title>
<g id="a_node8"><a xlink:href="class_s_w___s_p_i_class.html#a1b7600aa1d9571c103718c5d3e376675" target="_top" xlink:title=" ">
<polygon fill="white" stroke="black" points="513,-639.5 513,-658.5 641,-658.5 641,-639.5 513,-639.5"/>
<text text-anchor="middle" x="577" y="-646.5" font-family="Helvetica,sans-Serif" font-size="10.00">SW_SPIClass::transfer16</text>
</a>
</g>
</g>
<!-- Node5&#45;&gt;Node8 -->
<g id="edge7" class="edge"><title>Node5&#45;&gt;Node8</title>
<path fill="none" stroke="midnightblue" d="M450.393,-677.411C472.763,-672.351 500.398,-666.1 524.047,-660.751"/>
<polygon fill="midnightblue" stroke="midnightblue" points="524.93,-664.14 533.911,-658.52 523.386,-657.313 524.93,-664.14"/>
</g>
<!-- Node8&#45;&gt;Node7 -->
<g id="edge8" class="edge"><title>Node8&#45;&gt;Node7</title>
<path fill="none" stroke="midnightblue" d="M641.223,-656.129C653.406,-657.503 666.217,-658.947 678.543,-660.337"/>
<polygon fill="midnightblue" stroke="midnightblue" points="678.43,-663.847 688.76,-661.489 679.215,-656.891 678.43,-663.847"/>
</g>
<!-- Node11&#45;&gt;Node5 -->
<g id="edge12" class="edge"><title>Node11&#45;&gt;Node5</title>
<path fill="none" stroke="midnightblue" d="M298.738,-974.49C303.934,-971.984 308.793,-968.868 313,-965 389.986,-894.216 403.301,-757.943 405.558,-706.927"/>
<polygon fill="midnightblue" stroke="midnightblue" points="409.067,-706.742 405.909,-696.629 402.071,-706.504 409.067,-706.742"/>
</g>
<!-- Node16&#45;&gt;Node5 -->
<g id="edge18" class="edge"><title>Node16&#45;&gt;Node5</title>
<path fill="none" stroke="midnightblue" d="M288.164,-772.44C296.701,-769.953 305.265,-766.852 313,-763 343.43,-747.846 372.819,-721.17 390.152,-703.794"/>
<polygon fill="midnightblue" stroke="midnightblue" points="392.751,-706.142 397.228,-696.539 387.74,-701.254 392.751,-706.142"/>
</g>
<!-- Node17&#45;&gt;Node5 -->
<g id="edge20" class="edge"><title>Node17&#45;&gt;Node5</title>
<path fill="none" stroke="midnightblue" d="M279.05,-734.483C290.218,-731.739 302.128,-728.524 313,-725 334.419,-718.058 357.885,-708.454 375.887,-700.639"/>
<polygon fill="midnightblue" stroke="midnightblue" points="377.533,-703.738 385.278,-696.509 374.715,-697.33 377.533,-703.738"/>
</g>
<!-- Node20&#45;&gt;Node5 -->
<g id="edge24" class="edge"><title>Node20&#45;&gt;Node5</title>
<path fill="none" stroke="midnightblue" d="M279.05,-639.517C290.218,-642.261 302.128,-645.476 313,-649 334.419,-655.942 357.885,-665.546 375.887,-673.361"/>
<polygon fill="midnightblue" stroke="midnightblue" points="374.715,-676.67 385.278,-677.491 377.533,-670.262 374.715,-676.67"/>
</g>
<!-- Node22&#45;&gt;Node5 -->
<g id="edge27" class="edge"><title>Node22&#45;&gt;Node5</title>
<path fill="none" stroke="midnightblue" d="M292.975,-563.601C300.012,-566.054 306.87,-569.134 313,-573 351.335,-597.179 381.208,-642.611 395.932,-668.215"/>
<polygon fill="midnightblue" stroke="midnightblue" points="393.053,-670.238 400.979,-677.268 399.167,-666.829 393.053,-670.238"/>
</g>
<!-- Node35&#45;&gt;Node5 -->
<g id="edge41" class="edge"><title>Node35&#45;&gt;Node5</title>
<path fill="none" stroke="midnightblue" d="M300.946,-57.566C305.419,-60.0897 309.521,-63.1931 313,-67 395.901,-157.723 404.911,-570.824 405.884,-666.964"/>
<polygon fill="midnightblue" stroke="midnightblue" points="402.385,-667.103 405.967,-677.074 409.384,-667.046 402.385,-667.103"/>
</g>
<!-- Node36&#45;&gt;Node5 -->
<g id="edge43" class="edge"><title>Node36&#45;&gt;Node5</title>
<path fill="none" stroke="midnightblue" d="M300.981,-19.5337C305.447,-22.0645 309.537,-25.1784 313,-29 400.926,-126.046 406.043,-568.397 406.075,-667.333"/>
<polygon fill="midnightblue" stroke="midnightblue" points="402.575,-667.421 406.06,-677.426 409.575,-667.432 402.575,-667.421"/>
</g>
</g>
</svg>
        <g id="navigator" transform="translate(0 0)" fill="#404254">
                <rect fill="#f2f5e9" fill-opacity="0.5" stroke="#606060" stroke-width=".5" x="0" y="0" width="60" height="60"/>
                <use id="zoomplus" xlink:href="#zoomPlus" x="17" y="9" onmousedown="handleZoom(evt,'in')"/>
                <use id="zoomminus" xlink:href="#zoomMin" x="42" y="9" onmousedown="handleZoom(evt,'out')"/>
                <use id="reset" xlink:href="#resetDef" x="30" y="36" onmousedown="handleReset()"/>
                <g id="arrowUp" xlink:href="#dirArrow" transform="translate(30 24)" onmousedown="handlePan(0,-1)">
                  <use xlink:href="#rim" fill="#404040">
                        <set attributeName="fill" to="#808080" begin="arrowUp.mouseover" end="arrowUp.mouseout"/>
                  </use>
                  <path fill="none" stroke="white" stroke-width="1.5" d="M0,-3.0v7 M-2.5,-0.5L0,-3.0L2.5,-0.5"/>
                </g>
                <g id="arrowRight" xlink:href="#dirArrow" transform="rotate(90) translate(36 -43)" onmousedown="handlePan(1,0)">
                  <use xlink:href="#rim" fill="#404040">
                        <set attributeName="fill" to="#808080" begin="arrowRight.mouseover" end="arrowRight.mouseout"/>
                  </use>
                  <path fill="none" stroke="white" stroke-width="1.5" d="M0,-3.0v7 M-2.5,-0.5L0,-3.0L2.5,-0.5"/>
                </g>
                <g id="arrowDown" xlink:href="#dirArrow" transform="rotate(180) translate(-30 -48)" onmousedown="handlePan(0,1)">
                  <use xlink:href="#rim" fill="#404040">
                        <set attributeName="fill" to="#808080" begin="arrowDown.mouseover" end="arrowDown.mouseout"/>
                  </use>
                  <path fill="none" stroke="white" stroke-width="1.5" d="M0,-3.0v7 M-2.5,-0.5L0,-3.0L2.5,-0.5"/>
                </g>
                <g id="arrowLeft" xlink:href="#dirArrow" transform="rotate(270) translate(-36 17)" onmousedown="handlePan(-1,0)">
                  <use xlink:href="#rim" fill="#404040">
                        <set attributeName="fill" to="#808080" begin="arrowLeft.mouseover" end="arrowLeft.mouseout"/>
                  </use>
                  <path fill="none" stroke="white" stroke-width="1.5" d="M0,-3.0v7 M-2.5,-0.5L0,-3.0L2.5,-0.5"/>
                </g>
        </g>
        <svg viewBox="0 0 15 15" width="100%" height="30px" preserveAspectRatio="xMaxYMin meet">
         <g id="arrow_out" transform="scale(0.3 0.3)">
          <a xlink:href="class_t_m_c5130_stepper_a55e61f5181d74f26c9d35c54e4436d7a_cgraph_org.svg" target="_base">
           <rect id="button" ry="5" rx="5" y="6" x="6" height="38" width="38"
                fill="#f2f5e9" fill-opacity="0.5" stroke="#606060" stroke-width="1.0"/>
           <path id="arrow"
             d="M 11.500037,31.436501 C 11.940474,20.09759 22.043105,11.32322 32.158766,21.979434 L 37.068811,17.246167 C 37.068811,17.246167 37.088388,32 37.088388,32 L 22.160133,31.978069 C 22.160133,31.978069 26.997745,27.140456 26.997745,27.140456 C 18.528582,18.264221 13.291696,25.230495 11.500037,31.436501 z"
             style="fill:#404040;"/>
          </a>
         </g>
        </svg>
</svg>
