<?xml version="1.0" encoding="UTF-8" standalone="no"?>
<!DOCTYPE svg PUBLIC "-//W3C//DTD SVG 1.1//EN"
 "http://www.w3.org/Graphics/SVG/1.1/DTD/svg11.dtd">
<!-- Generated by graphviz version 2.38.0 (20140413.2041)
 -->
<!-- Title: TMC2209Stepper::push Pages: 1 -->
<svg width="1007pt" height="376pt"
 viewBox="0.00 0.00 1007.00 376.00" xmlns="http://www.w3.org/2000/svg" xmlns:xlink="http://www.w3.org/1999/xlink">
<g id="graph0" class="graph" transform="scale(1 1) rotate(0) translate(4 372)">
<title>TMC2209Stepper::push</title>
<polygon fill="white" stroke="none" points="-4,4 -4,-372 1003,-372 1003,4 -4,4"/>
<!-- Node1 -->
<g id="node1" class="node"><title>Node1</title>
<g id="a_node1"><a xlink:title=" ">
<polygon fill="#bfbfbf" stroke="black" points="0,-152.5 0,-171.5 119,-171.5 119,-152.5 0,-152.5"/>
<text text-anchor="middle" x="59.5" y="-159.5" font-family="Helvetica,sans-Serif" font-size="10.00">TMC2209Stepper::push</text>
</a>
</g>
</g>
<!-- Node2 -->
<g id="node2" class="node"><title>Node2</title>
<g id="a_node2"><a xlink:href="class_t_m_c2208_stepper.html#aa11281f54c293f3ff2539b1a583682a9" target="_top" xlink:title=" ">
<polygon fill="white" stroke="black" points="157.5,-304.5 157.5,-323.5 309.5,-323.5 309.5,-304.5 157.5,-304.5"/>
<text text-anchor="middle" x="233.5" y="-311.5" font-family="Helvetica,sans-Serif" font-size="10.00">TMC2208Stepper::CHOPCONF</text>
</a>
</g>
</g>
<!-- Node1&#45;&gt;Node2 -->
<g id="edge1" class="edge"><title>Node1&#45;&gt;Node2</title>
<path fill="none" stroke="midnightblue" d="M64.5384,-171.847C75.2642,-196.713 106.968,-262.37 155,-295 157.954,-297.007 161.1,-298.802 164.367,-300.409"/>
<polygon fill="midnightblue" stroke="midnightblue" points="163.273,-303.747 173.844,-304.452 166.02,-297.309 163.273,-303.747"/>
</g>
<!-- Node11 -->
<g id="node11" class="node"><title>Node11</title>
<g id="a_node11"><a xlink:href="class_t_m_c2208_stepper.html#a549db4f962d4ae698dda33ef9a708e33" target="_top" xlink:title=" ">
<polygon fill="white" stroke="black" points="167.5,-266.5 167.5,-285.5 299.5,-285.5 299.5,-266.5 167.5,-266.5"/>
<text text-anchor="middle" x="233.5" y="-273.5" font-family="Helvetica,sans-Serif" font-size="10.00">TMC2208Stepper::GCONF</text>
</a>
</g>
</g>
<!-- Node1&#45;&gt;Node11 -->
<g id="edge11" class="edge"><title>Node1&#45;&gt;Node11</title>
<path fill="none" stroke="midnightblue" d="M67.0976,-171.513C80.9967,-190.8 115.301,-234.573 155,-257 158.975,-259.245 163.21,-261.228 167.574,-262.977"/>
<polygon fill="midnightblue" stroke="midnightblue" points="166.684,-266.376 177.279,-266.447 169.041,-259.785 166.684,-266.376"/>
</g>
<!-- Node12 -->
<g id="node12" class="node"><title>Node12</title>
<g id="a_node12"><a xlink:href="class_t_m_c_stepper.html#a597bc308bad0d1198b98c48a6ef34fc3" target="_top" xlink:title=" ">
<polygon fill="white" stroke="black" points="167,-228.5 167,-247.5 300,-247.5 300,-228.5 167,-228.5"/>
<text text-anchor="middle" x="233.5" y="-235.5" font-family="Helvetica,sans-Serif" font-size="10.00">TMCStepper::IHOLD_IRUN</text>
</a>
</g>
</g>
<!-- Node1&#45;&gt;Node12 -->
<g id="edge13" class="edge"><title>Node1&#45;&gt;Node12</title>
<path fill="none" stroke="midnightblue" d="M73.5873,-171.665C91.2284,-184.266 124.009,-206.203 155,-219 160.966,-221.463 167.328,-223.66 173.744,-225.604"/>
<polygon fill="midnightblue" stroke="midnightblue" points="173.245,-229.101 183.821,-228.455 175.151,-222.365 173.245,-229.101"/>
</g>
<!-- Node13 -->
<g id="node13" class="node"><title>Node13</title>
<g id="a_node13"><a xlink:href="class_t_m_c2208_stepper.html#a7c2e849de2f2933ba9bf8ede8dc53f53" target="_top" xlink:title=" ">
<polygon fill="white" stroke="black" points="159,-190.5 159,-209.5 308,-209.5 308,-190.5 159,-190.5"/>
<text text-anchor="middle" x="233.5" y="-197.5" font-family="Helvetica,sans-Serif" font-size="10.00">TMC2208Stepper::PWMCONF</text>
</a>
</g>
</g>
<!-- Node1&#45;&gt;Node13 -->
<g id="edge14" class="edge"><title>Node1&#45;&gt;Node13</title>
<path fill="none" stroke="midnightblue" d="M103.903,-171.589C126.907,-176.671 155.351,-182.955 179.634,-188.32"/>
<polygon fill="midnightblue" stroke="midnightblue" points="178.89,-191.74 189.409,-190.48 180.4,-184.905 178.89,-191.74"/>
</g>
<!-- Node14 -->
<g id="node14" class="node"><title>Node14</title>
<g id="a_node14"><a xlink:href="class_t_m_c2208_stepper.html#a7a0682fc7f4d103bf3ceee4cabb411bb" target="_top" xlink:title=" ">
<polygon fill="white" stroke="black" points="155,-152.5 155,-171.5 312,-171.5 312,-152.5 155,-152.5"/>
<text text-anchor="middle" x="233.5" y="-159.5" font-family="Helvetica,sans-Serif" font-size="10.00">TMC2208Stepper::SLAVECONF</text>
</a>
</g>
</g>
<!-- Node1&#45;&gt;Node14 -->
<g id="edge16" class="edge"><title>Node1&#45;&gt;Node14</title>
<path fill="none" stroke="midnightblue" d="M119.212,-162C127.465,-162 136.093,-162 144.745,-162"/>
<polygon fill="midnightblue" stroke="midnightblue" points="144.891,-165.5 154.891,-162 144.891,-158.5 144.891,-165.5"/>
</g>
<!-- Node15 -->
<g id="node15" class="node"><title>Node15</title>
<g id="a_node15"><a xlink:href="class_t_m_c2209_stepper.html#a5a1335a60d938c7d1fcb7408c28f8650" target="_top" xlink:title=" ">
<polygon fill="white" stroke="black" points="156,-114.5 156,-133.5 311,-133.5 311,-114.5 156,-114.5"/>
<text text-anchor="middle" x="233.5" y="-121.5" font-family="Helvetica,sans-Serif" font-size="10.00">TMC2209Stepper::TCOOLTHRS</text>
</a>
</g>
</g>
<!-- Node1&#45;&gt;Node15 -->
<g id="edge17" class="edge"><title>Node1&#45;&gt;Node15</title>
<path fill="none" stroke="midnightblue" d="M103.903,-152.411C126.907,-147.329 155.351,-141.045 179.634,-135.68"/>
<polygon fill="midnightblue" stroke="midnightblue" points="180.4,-139.095 189.409,-133.52 178.89,-132.26 180.4,-139.095"/>
</g>
<!-- Node16 -->
<g id="node16" class="node"><title>Node16</title>
<g id="a_node16"><a xlink:href="class_t_m_c_stepper.html#a66812c883dfbb6dedc046a011b2564be" target="_top" xlink:title=" ">
<polygon fill="white" stroke="black" points="158.5,-76.5 158.5,-95.5 308.5,-95.5 308.5,-76.5 158.5,-76.5"/>
<text text-anchor="middle" x="233.5" y="-83.5" font-family="Helvetica,sans-Serif" font-size="10.00">TMCStepper::TPOWERDOWN</text>
</a>
</g>
</g>
<!-- Node1&#45;&gt;Node16 -->
<g id="edge18" class="edge"><title>Node1&#45;&gt;Node16</title>
<path fill="none" stroke="midnightblue" d="M73.5873,-152.335C91.2284,-139.734 124.009,-117.797 155,-105 160.966,-102.537 167.328,-100.34 173.744,-98.3958"/>
<polygon fill="midnightblue" stroke="midnightblue" points="175.151,-101.635 183.821,-95.545 173.245,-94.8995 175.151,-101.635"/>
</g>
<!-- Node17 -->
<g id="node17" class="node"><title>Node17</title>
<g id="a_node17"><a xlink:href="class_t_m_c_stepper.html#ac59a9305aafc64a63698a34cac404788" target="_top" xlink:title=" ">
<polygon fill="white" stroke="black" points="167.5,-38.5 167.5,-57.5 299.5,-57.5 299.5,-38.5 167.5,-38.5"/>
<text text-anchor="middle" x="233.5" y="-45.5" font-family="Helvetica,sans-Serif" font-size="10.00">TMCStepper::TPWMTHRS</text>
</a>
</g>
</g>
<!-- Node1&#45;&gt;Node17 -->
<g id="edge19" class="edge"><title>Node1&#45;&gt;Node17</title>
<path fill="none" stroke="midnightblue" d="M67.0976,-152.487C80.9967,-133.2 115.301,-89.4271 155,-67 158.975,-64.7546 163.21,-62.7724 167.574,-61.023"/>
<polygon fill="midnightblue" stroke="midnightblue" points="169.041,-64.2154 177.279,-57.5529 166.684,-57.6241 169.041,-64.2154"/>
</g>
<!-- Node18 -->
<g id="node18" class="node"><title>Node18</title>
<g id="a_node18"><a xlink:href="class_t_m_c2208_stepper.html#a28b7ebef9a1f4b04d4b3b1e5e83ff76f" target="_top" xlink:title=" ">
<polygon fill="white" stroke="black" points="162.5,-0.5 162.5,-19.5 304.5,-19.5 304.5,-0.5 162.5,-0.5"/>
<text text-anchor="middle" x="233.5" y="-7.5" font-family="Helvetica,sans-Serif" font-size="10.00">TMC2208Stepper::VACTUAL</text>
</a>
</g>
</g>
<!-- Node1&#45;&gt;Node18 -->
<g id="edge20" class="edge"><title>Node1&#45;&gt;Node18</title>
<path fill="none" stroke="midnightblue" d="M64.5384,-152.153C75.2642,-127.287 106.968,-61.6302 155,-29 157.954,-26.993 161.1,-25.1975 164.367,-23.5914"/>
<polygon fill="midnightblue" stroke="midnightblue" points="166.02,-26.6914 173.844,-19.5476 163.273,-20.2531 166.02,-26.6914"/>
</g>
<!-- Node3 -->
<g id="node3" class="node"><title>Node3</title>
<g id="a_node3"><a xlink:href="class_t_m_c2208_stepper.html#a2fae2050849c3ab7968012def8ea1cc5" target="_top" xlink:title=" ">
<polygon fill="white" stroke="black" points="348,-266.5 348,-285.5 464,-285.5 464,-266.5 348,-266.5"/>
<text text-anchor="middle" x="406" y="-273.5" font-family="Helvetica,sans-Serif" font-size="10.00">TMC2208Stepper::read</text>
</a>
</g>
</g>
<!-- Node2&#45;&gt;Node3 -->
<g id="edge2" class="edge"><title>Node2&#45;&gt;Node3</title>
<path fill="none" stroke="midnightblue" d="M277.524,-304.411C300.226,-299.351 328.273,-293.1 352.274,-287.751"/>
<polygon fill="midnightblue" stroke="midnightblue" points="353.286,-291.112 362.285,-285.52 351.763,-284.279 353.286,-291.112"/>
</g>
<!-- Node4 -->
<g id="node4" class="node"><title>Node4</title>
<g id="a_node4"><a xlink:href="class_t_m_c2208_stepper.html#a3e1f6a10aa1e3e41dc2594dbe1ea8a1d" target="_top" xlink:title=" ">
<polygon fill="white" stroke="black" points="500,-323.5 500,-342.5 666,-342.5 666,-323.5 500,-323.5"/>
<text text-anchor="middle" x="583" y="-330.5" font-family="Helvetica,sans-Serif" font-size="10.00">TMC2208Stepper::_sendDatagram</text>
</a>
</g>
</g>
<!-- Node3&#45;&gt;Node4 -->
<g id="edge3" class="edge"><title>Node3&#45;&gt;Node4</title>
<path fill="none" stroke="midnightblue" d="M427.7,-285.578C446.317,-293.921 474.568,-305.915 500,-314 508.008,-316.546 516.555,-318.906 524.996,-321.037"/>
<polygon fill="midnightblue" stroke="midnightblue" points="524.272,-324.463 534.816,-323.429 525.929,-317.661 524.272,-324.463"/>
</g>
<!-- Node9 -->
<g id="node9" class="node"><title>Node9</title>
<g id="a_node9"><a xlink:href="class_s_switch.html#a6ff09d0850d551571dc333fb74ff8628" target="_top" xlink:title=" ">
<polygon fill="white" stroke="black" points="541.5,-285.5 541.5,-304.5 624.5,-304.5 624.5,-285.5 541.5,-285.5"/>
<text text-anchor="middle" x="583" y="-292.5" font-family="Helvetica,sans-Serif" font-size="10.00">SSwitch::active</text>
</a>
</g>
</g>
<!-- Node3&#45;&gt;Node9 -->
<g id="edge9" class="edge"><title>Node3&#45;&gt;Node9</title>
<path fill="none" stroke="midnightblue" d="M464.302,-282.221C485.975,-284.574 510.465,-287.233 531.472,-289.514"/>
<polygon fill="midnightblue" stroke="midnightblue" points="531.158,-293 541.477,-290.6 531.913,-286.041 531.158,-293"/>
</g>
<!-- Node10 -->
<g id="node10" class="node"><title>Node10</title>
<g id="a_node10"><a xlink:href="class_t_m_c2208_stepper.html#a409c19fa6b052a370a317d061bf9af4e" target="_top" xlink:title=" ">
<polygon fill="white" stroke="black" points="515,-247.5 515,-266.5 651,-266.5 651,-247.5 515,-247.5"/>
<text text-anchor="middle" x="583" y="-254.5" font-family="Helvetica,sans-Serif" font-size="10.00">TMC2208Stepper::calcCRC</text>
</a>
</g>
</g>
<!-- Node3&#45;&gt;Node10 -->
<g id="edge10" class="edge"><title>Node3&#45;&gt;Node10</title>
<path fill="none" stroke="midnightblue" d="M464.302,-269.779C477.17,-268.382 491.032,-266.877 504.567,-265.407"/>
<polygon fill="midnightblue" stroke="midnightblue" points="505.269,-268.851 514.833,-264.292 504.514,-261.892 505.269,-268.851"/>
</g>
<!-- Node5 -->
<g id="node5" class="node"><title>Node5</title>
<g id="a_node5"><a xlink:href="class_t_m_c2208_stepper.html#a4ec5d2b2f5a31259c7aba1f3208d63b8" target="_top" xlink:title=" ">
<polygon fill="white" stroke="black" points="716.5,-348.5 716.5,-367.5 832.5,-367.5 832.5,-348.5 716.5,-348.5"/>
<text text-anchor="middle" x="774.5" y="-355.5" font-family="Helvetica,sans-Serif" font-size="10.00">TMC2208Stepper::ms2</text>
</a>
</g>
</g>
<!-- Node4&#45;&gt;Node5 -->
<g id="edge4" class="edge"><title>Node4&#45;&gt;Node5</title>
<path fill="none" stroke="midnightblue" d="M656.182,-342.523C672.64,-344.694 690.062,-346.992 706.301,-349.135"/>
<polygon fill="midnightblue" stroke="midnightblue" points="705.868,-352.608 716.24,-350.446 706.784,-345.668 705.868,-352.608"/>
</g>
<!-- Node7 -->
<g id="node7" class="node"><title>Node7</title>
<g id="a_node7"><a xlink:href="class_t_m_c2208_stepper.html#ae561da4ec7c40830e97bf4dc8cf700fb" target="_top" xlink:title=" ">
<polygon fill="white" stroke="black" points="702,-310.5 702,-329.5 847,-329.5 847,-310.5 702,-310.5"/>
<text text-anchor="middle" x="774.5" y="-317.5" font-family="Helvetica,sans-Serif" font-size="10.00">TMC2208Stepper::serial_read</text>
</a>
</g>
</g>
<!-- Node4&#45;&gt;Node7 -->
<g id="edge7" class="edge"><title>Node4&#45;&gt;Node7</title>
<path fill="none" stroke="midnightblue" d="M666.015,-327.374C674.478,-326.793 683.078,-326.203 691.54,-325.623"/>
<polygon fill="midnightblue" stroke="midnightblue" points="692.038,-329.097 701.775,-324.92 691.559,-322.113 692.038,-329.097"/>
</g>
<!-- Node8 -->
<g id="node8" class="node"><title>Node8</title>
<g id="a_node8"><a xlink:href="class_t_m_c2208_stepper.html#a7dd83313385079099b0622957786a979" target="_top" xlink:title=" ">
<polygon fill="white" stroke="black" points="714,-261 714,-291 835,-291 835,-261 714,-261"/>
<text text-anchor="start" x="722" y="-279" font-family="Helvetica,sans-Serif" font-size="10.00">TMC2208Stepper::serial</text>
<text text-anchor="middle" x="774.5" y="-268" font-family="Helvetica,sans-Serif" font-size="10.00">_write</text>
</a>
</g>
</g>
<!-- Node4&#45;&gt;Node8 -->
<g id="edge8" class="edge"><title>Node4&#45;&gt;Node8</title>
<path fill="none" stroke="midnightblue" d="M629.793,-323.402C641.658,-320.64 654.367,-317.435 666,-314 682.315,-309.183 685.971,-306.696 702,-301 708.017,-298.862 714.325,-296.635 720.595,-294.43"/>
<polygon fill="midnightblue" stroke="midnightblue" points="722.095,-297.613 730.372,-291 719.778,-291.008 722.095,-297.613"/>
</g>
<!-- Node6 -->
<g id="node6" class="node"><title>Node6</title>
<g id="a_node6"><a xlink:href="class_t_m_c2208_stepper.html#a5441dd87d0bcea4ffc309cb012166a57" target="_top" xlink:title=" ">
<polygon fill="white" stroke="black" points="883,-278.5 883,-297.5 999,-297.5 999,-278.5 883,-278.5"/>
<text text-anchor="middle" x="941" y="-285.5" font-family="Helvetica,sans-Serif" font-size="10.00">TMC2208Stepper::IOIN</text>
</a>
</g>
</g>
<!-- Node5&#45;&gt;Node6 -->
<g id="edge5" class="edge"><title>Node5&#45;&gt;Node6</title>
<path fill="none" stroke="midnightblue" d="M818.395,-348.408C827.954,-345.775 837.937,-342.627 847,-339 871.717,-329.109 898.177,-314.124 916.529,-302.953"/>
<polygon fill="midnightblue" stroke="midnightblue" points="918.423,-305.897 925.088,-297.661 914.742,-299.943 918.423,-305.897"/>
</g>
<!-- Node6&#45;&gt;Node3 -->
<g id="edge6" class="edge"><title>Node6&#45;&gt;Node3</title>
<path fill="none" stroke="midnightblue" d="M920.215,-278.385C901.743,-269.886 873.17,-257.942 847,-252 696.483,-217.825 651.454,-208.252 500,-238 476.751,-242.567 451.989,-252.987 433.866,-261.762"/>
<polygon fill="midnightblue" stroke="midnightblue" points="431.917,-258.823 424.532,-266.421 435.043,-265.087 431.917,-258.823"/>
</g>
<!-- Node11&#45;&gt;Node3 -->
<g id="edge12" class="edge"><title>Node11&#45;&gt;Node3</title>
<path fill="none" stroke="midnightblue" d="M299.932,-276C312.258,-276 325.169,-276 337.555,-276"/>
<polygon fill="midnightblue" stroke="midnightblue" points="337.811,-279.5 347.811,-276 337.811,-272.5 337.811,-279.5"/>
</g>
<!-- Node13&#45;&gt;Node3 -->
<g id="edge15" class="edge"><title>Node13&#45;&gt;Node3</title>
<path fill="none" stroke="midnightblue" d="M283.611,-209.604C293.2,-212.155 303.05,-215.267 312,-219 338.285,-229.963 365.783,-247.717 383.997,-260.499"/>
<polygon fill="midnightblue" stroke="midnightblue" points="381.976,-263.356 392.147,-266.323 386.046,-257.661 381.976,-263.356"/>
</g>
</g>
</svg>
