<?xml version="1.0" encoding="UTF-8" standalone="no"?>
<!DOCTYPE svg PUBLIC "-//W3C//DTD SVG 1.1//EN"
 "http://www.w3.org/Graphics/SVG/1.1/DTD/svg11.dtd">
<!-- Generated by graphviz version 2.38.0 (20140413.2041)
 -->
<!-- Title: TMC2208Stepper::VACTUAL Pages: 1 -->
<svg width="476pt" height="116pt"
 viewBox="0.00 0.00 476.00 115.50" xmlns="http://www.w3.org/2000/svg" xmlns:xlink="http://www.w3.org/1999/xlink">
<g id="graph0" class="graph" transform="scale(1 1) rotate(0) translate(4 111.5)">
<title>TMC2208Stepper::VACTUAL</title>
<polygon fill="white" stroke="none" points="-4,4 -4,-111.5 472,-111.5 472,4 -4,4"/>
<!-- Node1 -->
<g id="node1" class="node"><title>Node1</title>
<g id="a_node1"><a xlink:title=" ">
<polygon fill="#bfbfbf" stroke="black" points="0,-50 0,-69 142,-69 142,-50 0,-50"/>
<text text-anchor="middle" x="71" y="-57" font-family="Helvetica,sans-Serif" font-size="10.00">TMC2208Stepper::VACTUAL</text>
</a>
</g>
</g>
<!-- Node2 -->
<g id="node2" class="node"><title>Node2</title>
<g id="a_node2"><a xlink:href="class_t_m_c2208_stepper.html#a142b14de8a4dcc6cf76b4a6ede9e1cea" target="_top" xlink:title=" ">
<polygon fill="white" stroke="black" points="178,-50 178,-69 296,-69 296,-50 178,-50"/>
<text text-anchor="middle" x="237" y="-57" font-family="Helvetica,sans-Serif" font-size="10.00">TMC2208Stepper::write</text>
</a>
</g>
</g>
<!-- Node1&#45;&gt;Node2 -->
<g id="edge1" class="edge"><title>Node1&#45;&gt;Node2</title>
<path fill="none" stroke="midnightblue" d="M142.026,-59.5C150.506,-59.5 159.16,-59.5 167.615,-59.5"/>
<polygon fill="midnightblue" stroke="midnightblue" points="167.806,-63.0001 177.806,-59.5 167.805,-56.0001 167.806,-63.0001"/>
</g>
<!-- Node3 -->
<g id="node3" class="node"><title>Node3</title>
<g id="a_node3"><a xlink:href="class_s_switch.html#a6ff09d0850d551571dc333fb74ff8628" target="_top" xlink:title=" ">
<polygon fill="white" stroke="black" points="358.5,-88 358.5,-107 441.5,-107 441.5,-88 358.5,-88"/>
<text text-anchor="middle" x="400" y="-95" font-family="Helvetica,sans-Serif" font-size="10.00">SSwitch::active</text>
</a>
</g>
</g>
<!-- Node2&#45;&gt;Node3 -->
<g id="edge2" class="edge"><title>Node2&#45;&gt;Node3</title>
<path fill="none" stroke="midnightblue" d="M278.627,-69.089C299.968,-74.1261 326.312,-80.3438 348.908,-85.6771"/>
<polygon fill="midnightblue" stroke="midnightblue" points="348.128,-89.0891 358.665,-87.9799 349.736,-82.2763 348.128,-89.0891"/>
</g>
<!-- Node4 -->
<g id="node4" class="node"><title>Node4</title>
<g id="a_node4"><a xlink:href="class_t_m_c2208_stepper.html#a409c19fa6b052a370a317d061bf9af4e" target="_top" xlink:title=" ">
<polygon fill="white" stroke="black" points="332,-50 332,-69 468,-69 468,-50 332,-50"/>
<text text-anchor="middle" x="400" y="-57" font-family="Helvetica,sans-Serif" font-size="10.00">TMC2208Stepper::calcCRC</text>
</a>
</g>
</g>
<!-- Node2&#45;&gt;Node4 -->
<g id="edge3" class="edge"><title>Node2&#45;&gt;Node4</title>
<path fill="none" stroke="midnightblue" d="M296.125,-59.5C304.476,-59.5 313.176,-59.5 321.825,-59.5"/>
<polygon fill="midnightblue" stroke="midnightblue" points="321.931,-63.0001 331.931,-59.5 321.931,-56.0001 321.931,-63.0001"/>
</g>
<!-- Node5 -->
<g id="node5" class="node"><title>Node5</title>
<g id="a_node5"><a xlink:href="class_t_m_c2208_stepper.html#a7dd83313385079099b0622957786a979" target="_top" xlink:title=" ">
<polygon fill="white" stroke="black" points="339.5,-0.5 339.5,-30.5 460.5,-30.5 460.5,-0.5 339.5,-0.5"/>
<text text-anchor="start" x="347.5" y="-18.5" font-family="Helvetica,sans-Serif" font-size="10.00">TMC2208Stepper::serial</text>
<text text-anchor="middle" x="400" y="-7.5" font-family="Helvetica,sans-Serif" font-size="10.00">_write</text>
</a>
</g>
</g>
<!-- Node2&#45;&gt;Node5 -->
<g id="edge4" class="edge"><title>Node2&#45;&gt;Node5</title>
<path fill="none" stroke="midnightblue" d="M272.935,-49.9527C290.819,-45.0651 313.176,-38.9549 334.077,-33.2429"/>
<polygon fill="midnightblue" stroke="midnightblue" points="335.151,-36.5779 343.874,-30.5654 333.305,-29.8255 335.151,-36.5779"/>
</g>
</g>
</svg>
