<?xml version="1.0" encoding="UTF-8" standalone="no"?>
<!DOCTYPE svg PUBLIC "-//W3C//DTD SVG 1.1//EN"
 "http://www.w3.org/Graphics/SVG/1.1/DTD/svg11.dtd">
<!-- Generated by graphviz version 2.38.0 (20140413.2041)
 -->
<!-- Title: TMCStepper::write Pages: 1 -->
<svg width="291pt" height="142pt"
 viewBox="0.00 0.00 291.00 142.00" xmlns="http://www.w3.org/2000/svg" xmlns:xlink="http://www.w3.org/1999/xlink">
<g id="graph0" class="graph" transform="scale(1 1) rotate(0) translate(4 138)">
<title>TMCStepper::write</title>
<polygon fill="white" stroke="none" points="-4,4 -4,-138 287,-138 287,4 -4,4"/>
<!-- Node1 -->
<g id="node1" class="node"><title>Node1</title>
<g id="a_node1"><a xlink:title=" ">
<polygon fill="#bfbfbf" stroke="black" points="186,-57.5 186,-76.5 283,-76.5 283,-57.5 186,-57.5"/>
<text text-anchor="middle" x="234.5" y="-64.5" font-family="Helvetica,sans-Serif" font-size="10.00">TMCStepper::write</text>
</a>
</g>
</g>
<!-- Node2 -->
<g id="node2" class="node"><title>Node2</title>
<g id="a_node2"><a xlink:href="class_t_m_c_stepper.html#af834b7aecb144c7d5c3ba1494eb447a8" target="_top" xlink:title=" ">
<polygon fill="white" stroke="black" points="21,-114.5 21,-133.5 129,-133.5 129,-114.5 21,-114.5"/>
<text text-anchor="middle" x="75" y="-121.5" font-family="Helvetica,sans-Serif" font-size="10.00">TMCStepper::GSTAT</text>
</a>
</g>
</g>
<!-- Node1&#45;&gt;Node2 -->
<g id="edge1" class="edge"><title>Node1&#45;&gt;Node2</title>
<path fill="none" stroke="midnightblue" d="M205.679,-81.1502C189.677,-88.9088 169.03,-98.2853 150,-105 139.993,-108.531 129.014,-111.71 118.648,-114.413"/>
<polygon fill="midnightblue" stroke="midnightblue" points="207.561,-84.1247 214.986,-76.5667 204.468,-77.8449 207.561,-84.1247"/>
</g>
<!-- Node3 -->
<g id="node3" class="node"><title>Node3</title>
<g id="a_node3"><a xlink:href="class_t_m_c_stepper.html#a223e13cdebad6387c22df3fe918090ac" target="_top" xlink:title=" ">
<polygon fill="white" stroke="black" points="8.5,-76.5 8.5,-95.5 141.5,-95.5 141.5,-76.5 8.5,-76.5"/>
<text text-anchor="middle" x="75" y="-83.5" font-family="Helvetica,sans-Serif" font-size="10.00">TMCStepper::IHOLD_IRUN</text>
</a>
</g>
</g>
<!-- Node1&#45;&gt;Node3 -->
<g id="edge2" class="edge"><title>Node1&#45;&gt;Node3</title>
<path fill="none" stroke="midnightblue" d="M175.787,-73.9622C164.648,-75.3059 152.904,-76.7227 141.538,-78.0938"/>
<polygon fill="midnightblue" stroke="midnightblue" points="176.309,-77.4247 185.817,-72.7522 175.47,-70.4751 176.309,-77.4247"/>
</g>
<!-- Node4 -->
<g id="node4" class="node"><title>Node4</title>
<g id="a_node4"><a xlink:href="class_t_m_c_stepper.html#a3c46d790163af9e4ccbb662916563938" target="_top" xlink:title=" ">
<polygon fill="white" stroke="black" points="0,-38.5 0,-57.5 150,-57.5 150,-38.5 0,-38.5"/>
<text text-anchor="middle" x="75" y="-45.5" font-family="Helvetica,sans-Serif" font-size="10.00">TMCStepper::TPOWERDOWN</text>
</a>
</g>
</g>
<!-- Node1&#45;&gt;Node4 -->
<g id="edge3" class="edge"><title>Node1&#45;&gt;Node4</title>
<path fill="none" stroke="midnightblue" d="M175.858,-60.0463C167.532,-59.0419 158.866,-57.9965 150.271,-56.9597"/>
<polygon fill="midnightblue" stroke="midnightblue" points="175.47,-63.5249 185.817,-61.2478 176.309,-56.5753 175.47,-63.5249"/>
</g>
<!-- Node5 -->
<g id="node5" class="node"><title>Node5</title>
<g id="a_node5"><a xlink:href="class_t_m_c_stepper.html#a4e609d7f77d9e6db6423b02b98ed5358" target="_top" xlink:title=" ">
<polygon fill="white" stroke="black" points="9,-0.5 9,-19.5 141,-19.5 141,-0.5 9,-0.5"/>
<text text-anchor="middle" x="75" y="-7.5" font-family="Helvetica,sans-Serif" font-size="10.00">TMCStepper::TPWMTHRS</text>
</a>
</g>
</g>
<!-- Node1&#45;&gt;Node5 -->
<g id="edge4" class="edge"><title>Node1&#45;&gt;Node5</title>
<path fill="none" stroke="midnightblue" d="M205.679,-52.8498C189.677,-45.0912 169.03,-35.7147 150,-29 139.993,-25.4693 129.014,-22.2898 118.648,-19.5868"/>
<polygon fill="midnightblue" stroke="midnightblue" points="204.468,-56.1551 214.986,-57.4333 207.561,-49.8753 204.468,-56.1551"/>
</g>
</g>
</svg>
