<?xml version="1.0" encoding="UTF-8" standalone="no"?>
<!DOCTYPE svg PUBLIC "-//W3C//DTD SVG 1.1//EN"
 "http://www.w3.org/Graphics/SVG/1.1/DTD/svg11.dtd">
<!-- Generated by graphviz version 2.38.0 (20140413.2041)
 -->
<!-- Title: TMC2130Stepper::diag1_index Pages: 1 -->
<svg width="947pt" height="104pt"
 viewBox="0.00 0.00 947.00 104.00" xmlns="http://www.w3.org/2000/svg" xmlns:xlink="http://www.w3.org/1999/xlink">
<g id="graph0" class="graph" transform="scale(1 1) rotate(0) translate(4 100)">
<title>TMC2130Stepper::diag1_index</title>
<polygon fill="white" stroke="none" points="-4,4 -4,-100 943,-100 943,4 -4,4"/>
<!-- Node1 -->
<g id="node1" class="node"><title>Node1</title>
<g id="a_node1"><a xlink:title=" ">
<polygon fill="#bfbfbf" stroke="black" points="0,-33 0,-63 121,-63 121,-33 0,-33"/>
<text text-anchor="start" x="8" y="-51" font-family="Helvetica,sans-Serif" font-size="10.00">TMC2130Stepper::diag1</text>
<text text-anchor="middle" x="60.5" y="-40" font-family="Helvetica,sans-Serif" font-size="10.00">_index</text>
</a>
</g>
</g>
<!-- Node2 -->
<g id="node2" class="node"><title>Node2</title>
<g id="a_node2"><a xlink:href="class_t_m_c2130_stepper.html#aa205878aee0dc80a3f8597c68ec0da61" target="_top" xlink:title=" ">
<polygon fill="white" stroke="black" points="157,-33 157,-63 278,-63 278,-33 157,-33"/>
<text text-anchor="start" x="165" y="-51" font-family="Helvetica,sans-Serif" font-size="10.00">TMC2130Stepper::diag1</text>
<text text-anchor="middle" x="217.5" y="-40" font-family="Helvetica,sans-Serif" font-size="10.00">_index</text>
</a>
</g>
</g>
<!-- Node1&#45;&gt;Node2 -->
<g id="edge1" class="edge"><title>Node1&#45;&gt;Node2</title>
<path fill="none" stroke="midnightblue" d="M121.427,-48C129.724,-48 138.305,-48 146.762,-48"/>
<polygon fill="midnightblue" stroke="midnightblue" points="146.988,-51.5001 156.988,-48 146.988,-44.5001 146.988,-51.5001"/>
</g>
<!-- Node3 -->
<g id="node3" class="node"><title>Node3</title>
<g id="a_node3"><a xlink:href="class_t_m_c2130_stepper.html#aee84a9abfc84b387c6ae5658f90bf684" target="_top" xlink:title=" ">
<polygon fill="white" stroke="black" points="314,-38.5 314,-57.5 446,-57.5 446,-38.5 314,-38.5"/>
<text text-anchor="middle" x="380" y="-45.5" font-family="Helvetica,sans-Serif" font-size="10.00">TMC2130Stepper::GCONF</text>
</a>
</g>
</g>
<!-- Node2&#45;&gt;Node3 -->
<g id="edge2" class="edge"><title>Node2&#45;&gt;Node3</title>
<path fill="none" stroke="midnightblue" d="M278.264,-48C286.501,-48 295.047,-48 303.522,-48"/>
<polygon fill="midnightblue" stroke="midnightblue" points="303.798,-51.5001 313.798,-48 303.798,-44.5001 303.798,-51.5001"/>
</g>
<!-- Node4 -->
<g id="node4" class="node"><title>Node4</title>
<g id="a_node4"><a xlink:href="class_t_m_c2130_stepper.html#aed0175bff6e80ebc14e0d2606283cbe0" target="_top" xlink:title=" ">
<polygon fill="white" stroke="black" points="482,-38.5 482,-57.5 598,-57.5 598,-38.5 482,-38.5"/>
<text text-anchor="middle" x="540" y="-45.5" font-family="Helvetica,sans-Serif" font-size="10.00">TMC2130Stepper::read</text>
</a>
</g>
</g>
<!-- Node3&#45;&gt;Node4 -->
<g id="edge3" class="edge"><title>Node3&#45;&gt;Node4</title>
<path fill="none" stroke="midnightblue" d="M446.177,-48C454.517,-48 463.069,-48 471.445,-48"/>
<polygon fill="midnightblue" stroke="midnightblue" points="471.55,-51.5001 481.55,-48 471.55,-44.5001 471.55,-51.5001"/>
</g>
<!-- Node5 -->
<g id="node5" class="node"><title>Node5</title>
<g id="a_node5"><a xlink:href="class_t_m_c2130_stepper.html#aed8aa4583943e649dbf3bb1c1da90d63" target="_top" xlink:title=" ">
<polygon fill="white" stroke="black" points="634,-76.5 634,-95.5 786,-95.5 786,-76.5 634,-76.5"/>
<text text-anchor="middle" x="710" y="-83.5" font-family="Helvetica,sans-Serif" font-size="10.00">TMC2130Stepper::switchCSpin</text>
</a>
</g>
</g>
<!-- Node4&#45;&gt;Node5 -->
<g id="edge4" class="edge"><title>Node4&#45;&gt;Node5</title>
<path fill="none" stroke="midnightblue" d="M583.393,-57.589C605.763,-62.6487 633.398,-68.8996 657.047,-74.2488"/>
<polygon fill="midnightblue" stroke="midnightblue" points="656.386,-77.6875 666.911,-76.4799 657.93,-70.8599 656.386,-77.6875"/>
</g>
<!-- Node6 -->
<g id="node6" class="node"><title>Node6</title>
<g id="a_node6"><a xlink:href="class_s_w___s_p_i_class.html#af260fdc0af3f1312b106483161e559c3" target="_top" xlink:title=" ">
<polygon fill="white" stroke="black" points="822,-19.5 822,-38.5 939,-38.5 939,-19.5 822,-19.5"/>
<text text-anchor="middle" x="880.5" y="-26.5" font-family="Helvetica,sans-Serif" font-size="10.00">SW_SPIClass::transfer</text>
</a>
</g>
</g>
<!-- Node4&#45;&gt;Node6 -->
<g id="edge5" class="edge"><title>Node4&#45;&gt;Node6</title>
<path fill="none" stroke="midnightblue" d="M598.039,-44.7984C657.027,-41.4874 749.113,-36.3186 811.765,-32.802"/>
<polygon fill="midnightblue" stroke="midnightblue" points="812.156,-36.2856 821.944,-32.2306 811.763,-29.2966 812.156,-36.2856"/>
</g>
<!-- Node7 -->
<g id="node7" class="node"><title>Node7</title>
<g id="a_node7"><a xlink:href="class_s_w___s_p_i_class.html#a1b7600aa1d9571c103718c5d3e376675" target="_top" xlink:title=" ">
<polygon fill="white" stroke="black" points="646,-0.5 646,-19.5 774,-19.5 774,-0.5 646,-0.5"/>
<text text-anchor="middle" x="710" y="-7.5" font-family="Helvetica,sans-Serif" font-size="10.00">SW_SPIClass::transfer16</text>
</a>
</g>
</g>
<!-- Node4&#45;&gt;Node7 -->
<g id="edge6" class="edge"><title>Node4&#45;&gt;Node7</title>
<path fill="none" stroke="midnightblue" d="M583.393,-38.411C605.763,-33.3513 633.398,-27.1004 657.047,-21.7512"/>
<polygon fill="midnightblue" stroke="midnightblue" points="657.93,-25.1401 666.911,-19.5201 656.386,-18.3125 657.93,-25.1401"/>
</g>
<!-- Node7&#45;&gt;Node6 -->
<g id="edge7" class="edge"><title>Node7&#45;&gt;Node6</title>
<path fill="none" stroke="midnightblue" d="M774.223,-17.129C786.406,-18.5028 799.217,-19.9473 811.543,-21.3372"/>
<polygon fill="midnightblue" stroke="midnightblue" points="811.43,-24.8466 821.76,-22.4892 812.215,-17.8907 811.43,-24.8466"/>
</g>
</g>
</svg>
