<?xml version="1.0" encoding="UTF-8" standalone="no"?>
<!DOCTYPE svg PUBLIC "-//W3C//DTD SVG 1.1//EN"
 "http://www.w3.org/Graphics/SVG/1.1/DTD/svg11.dtd">
<!-- Generated by graphviz version 2.38.0 (20140413.2041)
 -->
<!-- Title: TMC2130Stepper::GCONF Pages: 1 -->
<svg width="633pt" height="104pt"
 viewBox="0.00 0.00 633.00 104.00" xmlns="http://www.w3.org/2000/svg" xmlns:xlink="http://www.w3.org/1999/xlink">
<g id="graph0" class="graph" transform="scale(1 1) rotate(0) translate(4 100)">
<title>TMC2130Stepper::GCONF</title>
<polygon fill="white" stroke="none" points="-4,4 -4,-100 629,-100 629,4 -4,4"/>
<!-- Node1 -->
<g id="node1" class="node"><title>Node1</title>
<g id="a_node1"><a xlink:title=" ">
<polygon fill="#bfbfbf" stroke="black" points="0,-38.5 0,-57.5 132,-57.5 132,-38.5 0,-38.5"/>
<text text-anchor="middle" x="66" y="-45.5" font-family="Helvetica,sans-Serif" font-size="10.00">TMC2130Stepper::GCONF</text>
</a>
</g>
</g>
<!-- Node2 -->
<g id="node2" class="node"><title>Node2</title>
<g id="a_node2"><a xlink:href="class_t_m_c2130_stepper.html#aed0175bff6e80ebc14e0d2606283cbe0" target="_top" xlink:title=" ">
<polygon fill="white" stroke="black" points="168,-38.5 168,-57.5 284,-57.5 284,-38.5 168,-38.5"/>
<text text-anchor="middle" x="226" y="-45.5" font-family="Helvetica,sans-Serif" font-size="10.00">TMC2130Stepper::read</text>
</a>
</g>
</g>
<!-- Node1&#45;&gt;Node2 -->
<g id="edge1" class="edge"><title>Node1&#45;&gt;Node2</title>
<path fill="none" stroke="midnightblue" d="M132.177,-48C140.517,-48 149.069,-48 157.445,-48"/>
<polygon fill="midnightblue" stroke="midnightblue" points="157.55,-51.5001 167.55,-48 157.55,-44.5001 157.55,-51.5001"/>
</g>
<!-- Node3 -->
<g id="node3" class="node"><title>Node3</title>
<g id="a_node3"><a xlink:href="class_t_m_c2130_stepper.html#aed8aa4583943e649dbf3bb1c1da90d63" target="_top" xlink:title=" ">
<polygon fill="white" stroke="black" points="320,-76.5 320,-95.5 472,-95.5 472,-76.5 320,-76.5"/>
<text text-anchor="middle" x="396" y="-83.5" font-family="Helvetica,sans-Serif" font-size="10.00">TMC2130Stepper::switchCSpin</text>
</a>
</g>
</g>
<!-- Node2&#45;&gt;Node3 -->
<g id="edge2" class="edge"><title>Node2&#45;&gt;Node3</title>
<path fill="none" stroke="midnightblue" d="M269.393,-57.589C291.763,-62.6487 319.398,-68.8996 343.047,-74.2488"/>
<polygon fill="midnightblue" stroke="midnightblue" points="342.386,-77.6875 352.911,-76.4799 343.93,-70.8599 342.386,-77.6875"/>
</g>
<!-- Node4 -->
<g id="node4" class="node"><title>Node4</title>
<g id="a_node4"><a xlink:href="class_s_w___s_p_i_class.html#af260fdc0af3f1312b106483161e559c3" target="_top" xlink:title=" ">
<polygon fill="white" stroke="black" points="508,-19.5 508,-38.5 625,-38.5 625,-19.5 508,-19.5"/>
<text text-anchor="middle" x="566.5" y="-26.5" font-family="Helvetica,sans-Serif" font-size="10.00">SW_SPIClass::transfer</text>
</a>
</g>
</g>
<!-- Node2&#45;&gt;Node4 -->
<g id="edge3" class="edge"><title>Node2&#45;&gt;Node4</title>
<path fill="none" stroke="midnightblue" d="M284.039,-44.7984C343.027,-41.4874 435.113,-36.3186 497.765,-32.802"/>
<polygon fill="midnightblue" stroke="midnightblue" points="498.156,-36.2856 507.944,-32.2306 497.763,-29.2966 498.156,-36.2856"/>
</g>
<!-- Node5 -->
<g id="node5" class="node"><title>Node5</title>
<g id="a_node5"><a xlink:href="class_s_w___s_p_i_class.html#a1b7600aa1d9571c103718c5d3e376675" target="_top" xlink:title=" ">
<polygon fill="white" stroke="black" points="332,-0.5 332,-19.5 460,-19.5 460,-0.5 332,-0.5"/>
<text text-anchor="middle" x="396" y="-7.5" font-family="Helvetica,sans-Serif" font-size="10.00">SW_SPIClass::transfer16</text>
</a>
</g>
</g>
<!-- Node2&#45;&gt;Node5 -->
<g id="edge4" class="edge"><title>Node2&#45;&gt;Node5</title>
<path fill="none" stroke="midnightblue" d="M269.393,-38.411C291.763,-33.3513 319.398,-27.1004 343.047,-21.7512"/>
<polygon fill="midnightblue" stroke="midnightblue" points="343.93,-25.1401 352.911,-19.5201 342.386,-18.3125 343.93,-25.1401"/>
</g>
<!-- Node5&#45;&gt;Node4 -->
<g id="edge5" class="edge"><title>Node5&#45;&gt;Node4</title>
<path fill="none" stroke="midnightblue" d="M460.223,-17.129C472.406,-18.5028 485.217,-19.9473 497.543,-21.3372"/>
<polygon fill="midnightblue" stroke="midnightblue" points="497.43,-24.8466 507.76,-22.4892 498.215,-17.8907 497.43,-24.8466"/>
</g>
</g>
</svg>
