<?xml version="1.0" encoding="UTF-8" standalone="no"?>
<!DOCTYPE svg PUBLIC "-//W3C//DTD SVG 1.1//EN"
 "http://www.w3.org/Graphics/SVG/1.1/DTD/svg11.dtd">
<!-- Generated by graphviz version 2.38.0 (20140413.2041)
 -->
<!-- Title: TMC2130Stepper::version Pages: 1 -->
<svg width="781pt" height="104pt"
 viewBox="0.00 0.00 781.00 104.00" xmlns="http://www.w3.org/2000/svg" xmlns:xlink="http://www.w3.org/1999/xlink">
<g id="graph0" class="graph" transform="scale(1 1) rotate(0) translate(4 100)">
<title>TMC2130Stepper::version</title>
<polygon fill="white" stroke="none" points="-4,4 -4,-100 777,-100 777,4 -4,4"/>
<!-- Node1 -->
<g id="node1" class="node"><title>Node1</title>
<g id="a_node1"><a xlink:title=" ">
<polygon fill="#bfbfbf" stroke="black" points="0,-38.5 0,-57.5 128,-57.5 128,-38.5 0,-38.5"/>
<text text-anchor="middle" x="64" y="-45.5" font-family="Helvetica,sans-Serif" font-size="10.00">TMC2130Stepper::version</text>
</a>
</g>
</g>
<!-- Node2 -->
<g id="node2" class="node"><title>Node2</title>
<g id="a_node2"><a xlink:href="class_t_m_c2130_stepper.html#adde2041047c82600f5e01f52118f92a0" target="_top" xlink:title=" ">
<polygon fill="white" stroke="black" points="164,-38.5 164,-57.5 280,-57.5 280,-38.5 164,-38.5"/>
<text text-anchor="middle" x="222" y="-45.5" font-family="Helvetica,sans-Serif" font-size="10.00">TMC2130Stepper::IOIN</text>
</a>
</g>
</g>
<!-- Node1&#45;&gt;Node2 -->
<g id="edge1" class="edge"><title>Node1&#45;&gt;Node2</title>
<path fill="none" stroke="midnightblue" d="M128.002,-48C136.418,-48 145.077,-48 153.565,-48"/>
<polygon fill="midnightblue" stroke="midnightblue" points="153.808,-51.5001 163.808,-48 153.808,-44.5001 153.808,-51.5001"/>
</g>
<!-- Node3 -->
<g id="node3" class="node"><title>Node3</title>
<g id="a_node3"><a xlink:href="class_t_m_c2130_stepper.html#aed0175bff6e80ebc14e0d2606283cbe0" target="_top" xlink:title=" ">
<polygon fill="white" stroke="black" points="316,-38.5 316,-57.5 432,-57.5 432,-38.5 316,-38.5"/>
<text text-anchor="middle" x="374" y="-45.5" font-family="Helvetica,sans-Serif" font-size="10.00">TMC2130Stepper::read</text>
</a>
</g>
</g>
<!-- Node2&#45;&gt;Node3 -->
<g id="edge2" class="edge"><title>Node2&#45;&gt;Node3</title>
<path fill="none" stroke="midnightblue" d="M280.136,-48C288.377,-48 296.923,-48 305.344,-48"/>
<polygon fill="midnightblue" stroke="midnightblue" points="305.526,-51.5001 315.525,-48 305.525,-44.5001 305.526,-51.5001"/>
</g>
<!-- Node4 -->
<g id="node4" class="node"><title>Node4</title>
<g id="a_node4"><a xlink:href="class_t_m_c2130_stepper.html#aed8aa4583943e649dbf3bb1c1da90d63" target="_top" xlink:title=" ">
<polygon fill="white" stroke="black" points="468,-76.5 468,-95.5 620,-95.5 620,-76.5 468,-76.5"/>
<text text-anchor="middle" x="544" y="-83.5" font-family="Helvetica,sans-Serif" font-size="10.00">TMC2130Stepper::switchCSpin</text>
</a>
</g>
</g>
<!-- Node3&#45;&gt;Node4 -->
<g id="edge3" class="edge"><title>Node3&#45;&gt;Node4</title>
<path fill="none" stroke="midnightblue" d="M417.393,-57.589C439.763,-62.6487 467.398,-68.8996 491.047,-74.2488"/>
<polygon fill="midnightblue" stroke="midnightblue" points="490.386,-77.6875 500.911,-76.4799 491.93,-70.8599 490.386,-77.6875"/>
</g>
<!-- Node5 -->
<g id="node5" class="node"><title>Node5</title>
<g id="a_node5"><a xlink:href="class_s_w___s_p_i_class.html#af260fdc0af3f1312b106483161e559c3" target="_top" xlink:title=" ">
<polygon fill="white" stroke="black" points="656,-19.5 656,-38.5 773,-38.5 773,-19.5 656,-19.5"/>
<text text-anchor="middle" x="714.5" y="-26.5" font-family="Helvetica,sans-Serif" font-size="10.00">SW_SPIClass::transfer</text>
</a>
</g>
</g>
<!-- Node3&#45;&gt;Node5 -->
<g id="edge4" class="edge"><title>Node3&#45;&gt;Node5</title>
<path fill="none" stroke="midnightblue" d="M432.039,-44.7984C491.027,-41.4874 583.113,-36.3186 645.765,-32.802"/>
<polygon fill="midnightblue" stroke="midnightblue" points="646.156,-36.2856 655.944,-32.2306 645.763,-29.2966 646.156,-36.2856"/>
</g>
<!-- Node6 -->
<g id="node6" class="node"><title>Node6</title>
<g id="a_node6"><a xlink:href="class_s_w___s_p_i_class.html#a1b7600aa1d9571c103718c5d3e376675" target="_top" xlink:title=" ">
<polygon fill="white" stroke="black" points="480,-0.5 480,-19.5 608,-19.5 608,-0.5 480,-0.5"/>
<text text-anchor="middle" x="544" y="-7.5" font-family="Helvetica,sans-Serif" font-size="10.00">SW_SPIClass::transfer16</text>
</a>
</g>
</g>
<!-- Node3&#45;&gt;Node6 -->
<g id="edge5" class="edge"><title>Node3&#45;&gt;Node6</title>
<path fill="none" stroke="midnightblue" d="M417.393,-38.411C439.763,-33.3513 467.398,-27.1004 491.047,-21.7512"/>
<polygon fill="midnightblue" stroke="midnightblue" points="491.93,-25.1401 500.911,-19.5201 490.386,-18.3125 491.93,-25.1401"/>
</g>
<!-- Node6&#45;&gt;Node5 -->
<g id="edge6" class="edge"><title>Node6&#45;&gt;Node5</title>
<path fill="none" stroke="midnightblue" d="M608.223,-17.129C620.406,-18.5028 633.217,-19.9473 645.543,-21.3372"/>
<polygon fill="midnightblue" stroke="midnightblue" points="645.43,-24.8466 655.76,-22.4892 646.215,-17.8907 645.43,-24.8466"/>
</g>
</g>
</svg>
