<?xml version="1.0" encoding="UTF-8" standalone="no"?>
<!DOCTYPE svg PUBLIC "-//W3C//DTD SVG 1.1//EN"
 "http://www.w3.org/Graphics/SVG/1.1/DTD/svg11.dtd">
<!-- Generated by graphviz version 2.38.0 (20140413.2041)
 -->
<!-- Title: TMC2660Stepper::vsense Pages: 1 -->
<svg width="452pt" height="122pt"
 viewBox="0.00 0.00 452.00 121.50" xmlns="http://www.w3.org/2000/svg" xmlns:xlink="http://www.w3.org/1999/xlink">
<g id="graph0" class="graph" transform="scale(1 1) rotate(0) translate(4 117.5)">
<title>TMC2660Stepper::vsense</title>
<polygon fill="white" stroke="none" points="-4,4 -4,-117.5 448,-117.5 448,4 -4,4"/>
<!-- Node1 -->
<g id="node1" class="node"><title>Node1</title>
<g id="a_node1"><a xlink:title=" ">
<polygon fill="#bfbfbf" stroke="black" points="316,-44.5 316,-63.5 444,-63.5 444,-44.5 316,-44.5"/>
<text text-anchor="middle" x="380" y="-51.5" font-family="Helvetica,sans-Serif" font-size="10.00">TMC2660Stepper::vsense</text>
</a>
</g>
</g>
<!-- Node2 -->
<g id="node2" class="node"><title>Node2</title>
<g id="a_node2"><a xlink:href="class_t_m_c2660_stepper.html#a625480799004d350a27a24bbb066e4e9" target="_top" xlink:title=" ">
<polygon fill="white" stroke="black" points="150,-88.5 150,-107.5 280,-107.5 280,-88.5 150,-88.5"/>
<text text-anchor="middle" x="215" y="-95.5" font-family="Helvetica,sans-Serif" font-size="10.00">TMC2660Stepper::cs2rms</text>
</a>
</g>
</g>
<!-- Node1&#45;&gt;Node2 -->
<g id="edge1" class="edge"><title>Node1&#45;&gt;Node2</title>
<path fill="none" stroke="midnightblue" d="M333.972,-66.1547C307.889,-73.1955 275.528,-81.9312 251.3,-88.4713"/>
<polygon fill="midnightblue" stroke="midnightblue" points="334.889,-69.5326 343.631,-63.5473 333.065,-62.7745 334.889,-69.5326"/>
</g>
<!-- Node4 -->
<g id="node4" class="node"><title>Node4</title>
<g id="a_node4"><a xlink:href="class_t_m_c2660_stepper.html#a95bdde91a19aeb7bb5ee09e6df8ca065" target="_top" xlink:title=" ">
<polygon fill="white" stroke="black" points="158,-39 158,-69 272,-69 272,-39 158,-39"/>
<text text-anchor="start" x="166" y="-57" font-family="Helvetica,sans-Serif" font-size="10.00">TMC2660Stepper::rms</text>
<text text-anchor="middle" x="215" y="-46" font-family="Helvetica,sans-Serif" font-size="10.00">_current</text>
</a>
</g>
</g>
<!-- Node1&#45;&gt;Node4 -->
<g id="edge3" class="edge"><title>Node1&#45;&gt;Node4</title>
<path fill="none" stroke="midnightblue" d="M305.729,-54C294.475,-54 283.01,-54 272.203,-54"/>
<polygon fill="midnightblue" stroke="midnightblue" points="305.98,-57.5001 315.98,-54 305.98,-50.5001 305.98,-57.5001"/>
</g>
<!-- Node5 -->
<g id="node5" class="node"><title>Node5</title>
<g id="a_node5"><a xlink:href="class_t_m_c2660_stepper.html#a8de8bc7d0e08e4ee4476276f599edf47" target="_top" xlink:title=" ">
<polygon fill="white" stroke="black" points="151,-0.5 151,-19.5 279,-19.5 279,-0.5 151,-0.5"/>
<text text-anchor="middle" x="215" y="-7.5" font-family="Helvetica,sans-Serif" font-size="10.00">TMC2660Stepper::vsense</text>
</a>
</g>
</g>
<!-- Node1&#45;&gt;Node5 -->
<g id="edge4" class="edge"><title>Node1&#45;&gt;Node5</title>
<path fill="none" stroke="midnightblue" d="M333.972,-41.8453C307.889,-34.8045 275.528,-26.0688 251.3,-19.5287"/>
<polygon fill="midnightblue" stroke="midnightblue" points="333.065,-45.2255 343.631,-44.4527 334.889,-38.4674 333.065,-45.2255"/>
</g>
<!-- Node3 -->
<g id="node3" class="node"><title>Node3</title>
<g id="a_node3"><a xlink:href="class_t_m_c2660_stepper.html#a5a4a17c80ceb1bc88be8588b1c34fb77" target="_top" xlink:title=" ">
<polygon fill="white" stroke="black" points="0,-83 0,-113 114,-113 114,-83 0,-83"/>
<text text-anchor="start" x="8" y="-101" font-family="Helvetica,sans-Serif" font-size="10.00">TMC2660Stepper::rms</text>
<text text-anchor="middle" x="57" y="-90" font-family="Helvetica,sans-Serif" font-size="10.00">_current</text>
</a>
</g>
</g>
<!-- Node2&#45;&gt;Node3 -->
<g id="edge2" class="edge"><title>Node2&#45;&gt;Node3</title>
<path fill="none" stroke="midnightblue" d="M139.379,-98C130.916,-98 122.4,-98 114.23,-98"/>
<polygon fill="midnightblue" stroke="midnightblue" points="139.648,-101.5 149.648,-98 139.648,-94.5001 139.648,-101.5"/>
</g>
</g>
</svg>
