<?xml version="1.0" encoding="UTF-8" standalone="no"?>
<!DOCTYPE svg PUBLIC "-//W3C//DTD SVG 1.1//EN"
 "http://www.w3.org/Graphics/SVG/1.1/DTD/svg11.dtd">
<!-- Generated by graphviz version 2.38.0 (20140413.2041)
 -->
<!-- Title: TMC2208Stepper::FACTORY_CONF Pages: 1 -->
<svg width="871pt" height="156pt"
 viewBox="0.00 0.00 871.00 156.41" xmlns="http://www.w3.org/2000/svg" xmlns:xlink="http://www.w3.org/1999/xlink">
<g id="graph0" class="graph" transform="scale(1 1) rotate(0) translate(4 152.405)">
<title>TMC2208Stepper::FACTORY_CONF</title>
<polygon fill="white" stroke="none" points="-4,4 -4,-152.405 867,-152.405 867,4 -4,4"/>
<!-- Node1 -->
<g id="node1" class="node"><title>Node1</title>
<g id="a_node1"><a xlink:title=" ">
<polygon fill="#bfbfbf" stroke="black" points="0,-46.9052 0,-65.9052 176,-65.9052 176,-46.9052 0,-46.9052"/>
<text text-anchor="middle" x="88" y="-53.9052" font-family="Helvetica,sans-Serif" font-size="10.00">TMC2208Stepper::FACTORY_CONF</text>
</a>
</g>
</g>
<!-- Node2 -->
<g id="node2" class="node"><title>Node2</title>
<g id="a_node2"><a xlink:href="class_t_m_c2208_stepper.html#a2fae2050849c3ab7968012def8ea1cc5" target="_top" xlink:title=" ">
<polygon fill="white" stroke="black" points="212,-46.9052 212,-65.9052 328,-65.9052 328,-46.9052 212,-46.9052"/>
<text text-anchor="middle" x="270" y="-53.9052" font-family="Helvetica,sans-Serif" font-size="10.00">TMC2208Stepper::read</text>
</a>
</g>
</g>
<!-- Node1&#45;&gt;Node2 -->
<g id="edge1" class="edge"><title>Node1&#45;&gt;Node2</title>
<path fill="none" stroke="midnightblue" d="M176.1,-56.4052C184.713,-56.4052 193.361,-56.4052 201.729,-56.4052"/>
<polygon fill="midnightblue" stroke="midnightblue" points="201.775,-59.9053 211.775,-56.4052 201.775,-52.9053 201.775,-59.9053"/>
</g>
<!-- Node3 -->
<g id="node3" class="node"><title>Node3</title>
<g id="a_node3"><a xlink:href="class_t_m_c2208_stepper.html#a3e1f6a10aa1e3e41dc2594dbe1ea8a1d" target="_top" xlink:title=" ">
<polygon fill="white" stroke="black" points="364,-103.905 364,-122.905 530,-122.905 530,-103.905 364,-103.905"/>
<text text-anchor="middle" x="447" y="-110.905" font-family="Helvetica,sans-Serif" font-size="10.00">TMC2208Stepper::_sendDatagram</text>
</a>
</g>
</g>
<!-- Node2&#45;&gt;Node3 -->
<g id="edge2" class="edge"><title>Node2&#45;&gt;Node3</title>
<path fill="none" stroke="midnightblue" d="M291.7,-65.9833C310.317,-74.3262 338.568,-86.3205 364,-94.4052 372.008,-96.9508 380.555,-99.3114 388.996,-101.442"/>
<polygon fill="midnightblue" stroke="midnightblue" points="388.272,-104.868 398.816,-103.834 389.929,-98.0666 388.272,-104.868"/>
</g>
<!-- Node8 -->
<g id="node8" class="node"><title>Node8</title>
<g id="a_node8"><a xlink:href="class_s_switch.html#a6ff09d0850d551571dc333fb74ff8628" target="_top" xlink:title=" ">
<polygon fill="white" stroke="black" points="405.5,-65.9052 405.5,-84.9052 488.5,-84.9052 488.5,-65.9052 405.5,-65.9052"/>
<text text-anchor="middle" x="447" y="-72.9052" font-family="Helvetica,sans-Serif" font-size="10.00">SSwitch::active</text>
</a>
</g>
</g>
<!-- Node2&#45;&gt;Node8 -->
<g id="edge8" class="edge"><title>Node2&#45;&gt;Node8</title>
<path fill="none" stroke="midnightblue" d="M328.302,-62.6265C349.975,-64.9796 374.465,-67.6385 395.472,-69.9193"/>
<polygon fill="midnightblue" stroke="midnightblue" points="395.158,-73.4056 405.477,-71.0055 395.913,-66.4465 395.158,-73.4056"/>
</g>
<!-- Node9 -->
<g id="node9" class="node"><title>Node9</title>
<g id="a_node9"><a xlink:href="class_t_m_c2208_stepper.html#a409c19fa6b052a370a317d061bf9af4e" target="_top" xlink:title=" ">
<polygon fill="white" stroke="black" points="379,-27.9052 379,-46.9052 515,-46.9052 515,-27.9052 379,-27.9052"/>
<text text-anchor="middle" x="447" y="-34.9052" font-family="Helvetica,sans-Serif" font-size="10.00">TMC2208Stepper::calcCRC</text>
</a>
</g>
</g>
<!-- Node2&#45;&gt;Node9 -->
<g id="edge9" class="edge"><title>Node2&#45;&gt;Node9</title>
<path fill="none" stroke="midnightblue" d="M328.302,-50.1839C341.17,-48.7867 355.032,-47.2817 368.567,-45.8121"/>
<polygon fill="midnightblue" stroke="midnightblue" points="369.269,-49.2566 378.833,-44.6976 368.514,-42.2975 369.269,-49.2566"/>
</g>
<!-- Node4 -->
<g id="node4" class="node"><title>Node4</title>
<g id="a_node4"><a xlink:href="class_t_m_c2208_stepper.html#a4ec5d2b2f5a31259c7aba1f3208d63b8" target="_top" xlink:title=" ">
<polygon fill="white" stroke="black" points="580.5,-128.905 580.5,-147.905 696.5,-147.905 696.5,-128.905 580.5,-128.905"/>
<text text-anchor="middle" x="638.5" y="-135.905" font-family="Helvetica,sans-Serif" font-size="10.00">TMC2208Stepper::ms2</text>
</a>
</g>
</g>
<!-- Node3&#45;&gt;Node4 -->
<g id="edge3" class="edge"><title>Node3&#45;&gt;Node4</title>
<path fill="none" stroke="midnightblue" d="M520.182,-122.928C536.64,-125.099 554.062,-127.397 570.301,-129.54"/>
<polygon fill="midnightblue" stroke="midnightblue" points="569.868,-133.013 580.24,-130.851 570.784,-126.073 569.868,-133.013"/>
</g>
<!-- Node6 -->
<g id="node6" class="node"><title>Node6</title>
<g id="a_node6"><a xlink:href="class_t_m_c2208_stepper.html#ae561da4ec7c40830e97bf4dc8cf700fb" target="_top" xlink:title=" ">
<polygon fill="white" stroke="black" points="566,-90.9052 566,-109.905 711,-109.905 711,-90.9052 566,-90.9052"/>
<text text-anchor="middle" x="638.5" y="-97.9052" font-family="Helvetica,sans-Serif" font-size="10.00">TMC2208Stepper::serial_read</text>
</a>
</g>
</g>
<!-- Node3&#45;&gt;Node6 -->
<g id="edge6" class="edge"><title>Node3&#45;&gt;Node6</title>
<path fill="none" stroke="midnightblue" d="M530.015,-107.779C538.478,-107.198 547.078,-106.608 555.54,-106.028"/>
<polygon fill="midnightblue" stroke="midnightblue" points="556.038,-109.502 565.775,-105.326 555.559,-102.518 556.038,-109.502"/>
</g>
<!-- Node7 -->
<g id="node7" class="node"><title>Node7</title>
<g id="a_node7"><a xlink:href="class_t_m_c2208_stepper.html#a7dd83313385079099b0622957786a979" target="_top" xlink:title=" ">
<polygon fill="white" stroke="black" points="578,-41.4052 578,-71.4052 699,-71.4052 699,-41.4052 578,-41.4052"/>
<text text-anchor="start" x="586" y="-59.4052" font-family="Helvetica,sans-Serif" font-size="10.00">TMC2208Stepper::serial</text>
<text text-anchor="middle" x="638.5" y="-48.4052" font-family="Helvetica,sans-Serif" font-size="10.00">_write</text>
</a>
</g>
</g>
<!-- Node3&#45;&gt;Node7 -->
<g id="edge7" class="edge"><title>Node3&#45;&gt;Node7</title>
<path fill="none" stroke="midnightblue" d="M493.793,-103.808C505.658,-101.045 518.367,-97.8399 530,-94.4052 546.315,-89.5878 549.971,-87.1015 566,-81.4052 572.017,-79.2668 578.325,-77.0401 584.595,-74.8355"/>
<polygon fill="midnightblue" stroke="midnightblue" points="586.095,-78.0185 594.372,-71.4052 583.778,-71.4133 586.095,-78.0185"/>
</g>
<!-- Node5 -->
<g id="node5" class="node"><title>Node5</title>
<g id="a_node5"><a xlink:href="class_t_m_c2208_stepper.html#a5441dd87d0bcea4ffc309cb012166a57" target="_top" xlink:title=" ">
<polygon fill="white" stroke="black" points="747,-58.9052 747,-77.9052 863,-77.9052 863,-58.9052 747,-58.9052"/>
<text text-anchor="middle" x="805" y="-65.9052" font-family="Helvetica,sans-Serif" font-size="10.00">TMC2208Stepper::IOIN</text>
</a>
</g>
</g>
<!-- Node4&#45;&gt;Node5 -->
<g id="edge4" class="edge"><title>Node4&#45;&gt;Node5</title>
<path fill="none" stroke="midnightblue" d="M682.395,-128.814C691.954,-126.18 701.937,-123.032 711,-119.405 735.717,-109.514 762.177,-94.529 780.529,-83.3584"/>
<polygon fill="midnightblue" stroke="midnightblue" points="782.423,-86.3019 789.088,-78.0661 778.742,-80.348 782.423,-86.3019"/>
</g>
<!-- Node5&#45;&gt;Node2 -->
<g id="edge5" class="edge"><title>Node5&#45;&gt;Node2</title>
<path fill="none" stroke="midnightblue" d="M784.963,-58.8176C766.546,-50.0326 737.593,-37.4965 711,-31.4052 560.566,3.05335 515.437,11.3399 364,-18.4052 340.751,-22.9717 315.989,-33.3919 297.866,-42.1675"/>
<polygon fill="midnightblue" stroke="midnightblue" points="295.917,-39.2285 288.532,-46.826 299.043,-45.4917 295.917,-39.2285"/>
</g>
</g>
</svg>
