<?xml version="1.0" encoding="UTF-8" standalone="no"?>
<!DOCTYPE svg PUBLIC "-//W3C//DTD SVG 1.1//EN"
 "http://www.w3.org/Graphics/SVG/1.1/DTD/svg11.dtd">
<!-- Generated by graphviz version 2.38.0 (20140413.2041)
 -->
<!-- Title: TMC2208Stepper::multistep_filt Pages: 1 -->
<svg width="1015pt" height="156pt"
 viewBox="0.00 0.00 1015.00 156.41" xmlns="http://www.w3.org/2000/svg" xmlns:xlink="http://www.w3.org/1999/xlink">
<g id="graph0" class="graph" transform="scale(1 1) rotate(0) translate(4 152.405)">
<title>TMC2208Stepper::multistep_filt</title>
<polygon fill="white" stroke="none" points="-4,4 -4,-152.405 1011,-152.405 1011,4 -4,4"/>
<!-- Node1 -->
<g id="node1" class="node"><title>Node1</title>
<g id="a_node1"><a xlink:title=" ">
<polygon fill="#bfbfbf" stroke="black" points="0,-46.9052 0,-65.9052 152,-65.9052 152,-46.9052 0,-46.9052"/>
<text text-anchor="middle" x="76" y="-53.9052" font-family="Helvetica,sans-Serif" font-size="10.00">TMC2208Stepper::multistep_filt</text>
</a>
</g>
</g>
<!-- Node2 -->
<g id="node2" class="node"><title>Node2</title>
<g id="a_node2"><a xlink:href="class_t_m_c2208_stepper.html#a549db4f962d4ae698dda33ef9a708e33" target="_top" xlink:title=" ">
<polygon fill="white" stroke="black" points="188,-46.9052 188,-65.9052 320,-65.9052 320,-46.9052 188,-46.9052"/>
<text text-anchor="middle" x="254" y="-53.9052" font-family="Helvetica,sans-Serif" font-size="10.00">TMC2208Stepper::GCONF</text>
</a>
</g>
</g>
<!-- Node1&#45;&gt;Node2 -->
<g id="edge1" class="edge"><title>Node1&#45;&gt;Node2</title>
<path fill="none" stroke="midnightblue" d="M152.15,-56.4052C160.586,-56.4052 169.183,-56.4052 177.621,-56.4052"/>
<polygon fill="midnightblue" stroke="midnightblue" points="177.815,-59.9053 187.815,-56.4052 177.815,-52.9053 177.815,-59.9053"/>
</g>
<!-- Node3 -->
<g id="node3" class="node"><title>Node3</title>
<g id="a_node3"><a xlink:href="class_t_m_c2208_stepper.html#a2fae2050849c3ab7968012def8ea1cc5" target="_top" xlink:title=" ">
<polygon fill="white" stroke="black" points="356,-46.9052 356,-65.9052 472,-65.9052 472,-46.9052 356,-46.9052"/>
<text text-anchor="middle" x="414" y="-53.9052" font-family="Helvetica,sans-Serif" font-size="10.00">TMC2208Stepper::read</text>
</a>
</g>
</g>
<!-- Node2&#45;&gt;Node3 -->
<g id="edge2" class="edge"><title>Node2&#45;&gt;Node3</title>
<path fill="none" stroke="midnightblue" d="M320.177,-56.4052C328.517,-56.4052 337.069,-56.4052 345.445,-56.4052"/>
<polygon fill="midnightblue" stroke="midnightblue" points="345.55,-59.9053 355.55,-56.4052 345.55,-52.9053 345.55,-59.9053"/>
</g>
<!-- Node4 -->
<g id="node4" class="node"><title>Node4</title>
<g id="a_node4"><a xlink:href="class_t_m_c2208_stepper.html#a3e1f6a10aa1e3e41dc2594dbe1ea8a1d" target="_top" xlink:title=" ">
<polygon fill="white" stroke="black" points="508,-103.905 508,-122.905 674,-122.905 674,-103.905 508,-103.905"/>
<text text-anchor="middle" x="591" y="-110.905" font-family="Helvetica,sans-Serif" font-size="10.00">TMC2208Stepper::_sendDatagram</text>
</a>
</g>
</g>
<!-- Node3&#45;&gt;Node4 -->
<g id="edge3" class="edge"><title>Node3&#45;&gt;Node4</title>
<path fill="none" stroke="midnightblue" d="M435.7,-65.9833C454.317,-74.3262 482.568,-86.3205 508,-94.4052 516.008,-96.9508 524.555,-99.3114 532.996,-101.442"/>
<polygon fill="midnightblue" stroke="midnightblue" points="532.272,-104.868 542.816,-103.834 533.929,-98.0666 532.272,-104.868"/>
</g>
<!-- Node9 -->
<g id="node9" class="node"><title>Node9</title>
<g id="a_node9"><a xlink:href="class_s_switch.html#a6ff09d0850d551571dc333fb74ff8628" target="_top" xlink:title=" ">
<polygon fill="white" stroke="black" points="549.5,-65.9052 549.5,-84.9052 632.5,-84.9052 632.5,-65.9052 549.5,-65.9052"/>
<text text-anchor="middle" x="591" y="-72.9052" font-family="Helvetica,sans-Serif" font-size="10.00">SSwitch::active</text>
</a>
</g>
</g>
<!-- Node3&#45;&gt;Node9 -->
<g id="edge9" class="edge"><title>Node3&#45;&gt;Node9</title>
<path fill="none" stroke="midnightblue" d="M472.302,-62.6265C493.975,-64.9796 518.465,-67.6385 539.472,-69.9193"/>
<polygon fill="midnightblue" stroke="midnightblue" points="539.158,-73.4056 549.477,-71.0055 539.913,-66.4465 539.158,-73.4056"/>
</g>
<!-- Node10 -->
<g id="node10" class="node"><title>Node10</title>
<g id="a_node10"><a xlink:href="class_t_m_c2208_stepper.html#a409c19fa6b052a370a317d061bf9af4e" target="_top" xlink:title=" ">
<polygon fill="white" stroke="black" points="523,-27.9052 523,-46.9052 659,-46.9052 659,-27.9052 523,-27.9052"/>
<text text-anchor="middle" x="591" y="-34.9052" font-family="Helvetica,sans-Serif" font-size="10.00">TMC2208Stepper::calcCRC</text>
</a>
</g>
</g>
<!-- Node3&#45;&gt;Node10 -->
<g id="edge10" class="edge"><title>Node3&#45;&gt;Node10</title>
<path fill="none" stroke="midnightblue" d="M472.302,-50.1839C485.17,-48.7867 499.032,-47.2817 512.567,-45.8121"/>
<polygon fill="midnightblue" stroke="midnightblue" points="513.269,-49.2566 522.833,-44.6976 512.514,-42.2975 513.269,-49.2566"/>
</g>
<!-- Node5 -->
<g id="node5" class="node"><title>Node5</title>
<g id="a_node5"><a xlink:href="class_t_m_c2208_stepper.html#a4ec5d2b2f5a31259c7aba1f3208d63b8" target="_top" xlink:title=" ">
<polygon fill="white" stroke="black" points="724.5,-128.905 724.5,-147.905 840.5,-147.905 840.5,-128.905 724.5,-128.905"/>
<text text-anchor="middle" x="782.5" y="-135.905" font-family="Helvetica,sans-Serif" font-size="10.00">TMC2208Stepper::ms2</text>
</a>
</g>
</g>
<!-- Node4&#45;&gt;Node5 -->
<g id="edge4" class="edge"><title>Node4&#45;&gt;Node5</title>
<path fill="none" stroke="midnightblue" d="M664.182,-122.928C680.64,-125.099 698.062,-127.397 714.301,-129.54"/>
<polygon fill="midnightblue" stroke="midnightblue" points="713.868,-133.013 724.24,-130.851 714.784,-126.073 713.868,-133.013"/>
</g>
<!-- Node7 -->
<g id="node7" class="node"><title>Node7</title>
<g id="a_node7"><a xlink:href="class_t_m_c2208_stepper.html#ae561da4ec7c40830e97bf4dc8cf700fb" target="_top" xlink:title=" ">
<polygon fill="white" stroke="black" points="710,-90.9052 710,-109.905 855,-109.905 855,-90.9052 710,-90.9052"/>
<text text-anchor="middle" x="782.5" y="-97.9052" font-family="Helvetica,sans-Serif" font-size="10.00">TMC2208Stepper::serial_read</text>
</a>
</g>
</g>
<!-- Node4&#45;&gt;Node7 -->
<g id="edge7" class="edge"><title>Node4&#45;&gt;Node7</title>
<path fill="none" stroke="midnightblue" d="M674.015,-107.779C682.478,-107.198 691.078,-106.608 699.54,-106.028"/>
<polygon fill="midnightblue" stroke="midnightblue" points="700.038,-109.502 709.775,-105.326 699.559,-102.518 700.038,-109.502"/>
</g>
<!-- Node8 -->
<g id="node8" class="node"><title>Node8</title>
<g id="a_node8"><a xlink:href="class_t_m_c2208_stepper.html#a7dd83313385079099b0622957786a979" target="_top" xlink:title=" ">
<polygon fill="white" stroke="black" points="722,-41.4052 722,-71.4052 843,-71.4052 843,-41.4052 722,-41.4052"/>
<text text-anchor="start" x="730" y="-59.4052" font-family="Helvetica,sans-Serif" font-size="10.00">TMC2208Stepper::serial</text>
<text text-anchor="middle" x="782.5" y="-48.4052" font-family="Helvetica,sans-Serif" font-size="10.00">_write</text>
</a>
</g>
</g>
<!-- Node4&#45;&gt;Node8 -->
<g id="edge8" class="edge"><title>Node4&#45;&gt;Node8</title>
<path fill="none" stroke="midnightblue" d="M637.793,-103.808C649.658,-101.045 662.367,-97.8399 674,-94.4052 690.315,-89.5878 693.971,-87.1015 710,-81.4052 716.017,-79.2668 722.325,-77.0401 728.595,-74.8355"/>
<polygon fill="midnightblue" stroke="midnightblue" points="730.095,-78.0185 738.372,-71.4052 727.778,-71.4133 730.095,-78.0185"/>
</g>
<!-- Node6 -->
<g id="node6" class="node"><title>Node6</title>
<g id="a_node6"><a xlink:href="class_t_m_c2208_stepper.html#a5441dd87d0bcea4ffc309cb012166a57" target="_top" xlink:title=" ">
<polygon fill="white" stroke="black" points="891,-58.9052 891,-77.9052 1007,-77.9052 1007,-58.9052 891,-58.9052"/>
<text text-anchor="middle" x="949" y="-65.9052" font-family="Helvetica,sans-Serif" font-size="10.00">TMC2208Stepper::IOIN</text>
</a>
</g>
</g>
<!-- Node5&#45;&gt;Node6 -->
<g id="edge5" class="edge"><title>Node5&#45;&gt;Node6</title>
<path fill="none" stroke="midnightblue" d="M826.395,-128.814C835.954,-126.18 845.937,-123.032 855,-119.405 879.717,-109.514 906.177,-94.529 924.529,-83.3584"/>
<polygon fill="midnightblue" stroke="midnightblue" points="926.423,-86.3019 933.088,-78.0661 922.742,-80.348 926.423,-86.3019"/>
</g>
<!-- Node6&#45;&gt;Node3 -->
<g id="edge6" class="edge"><title>Node6&#45;&gt;Node3</title>
<path fill="none" stroke="midnightblue" d="M928.963,-58.8176C910.546,-50.0326 881.593,-37.4965 855,-31.4052 704.566,3.05335 659.437,11.3399 508,-18.4052 484.751,-22.9717 459.989,-33.3919 441.866,-42.1675"/>
<polygon fill="midnightblue" stroke="midnightblue" points="439.917,-39.2285 432.532,-46.826 443.043,-45.4917 439.917,-39.2285"/>
</g>
</g>
</svg>
