<?xml version="1.0" encoding="UTF-8" standalone="no"?>
<!DOCTYPE svg PUBLIC "-//W3C//DTD SVG 1.1//EN"
 "http://www.w3.org/Graphics/SVG/1.1/DTD/svg11.dtd">
<!-- Generated by graphviz version 2.38.0 (20140413.2041)
 -->
<!-- Title: TMC2130Stepper::diag1_stall Pages: 1 -->
<!--zoomable 104 -->
<svg id="main" version="1.1" xmlns="http://www.w3.org/2000/svg" xmlns:xlink="http://www.w3.org/1999/xlink" xml:space="preserve" onload="init(evt)">
<style type="text/css"><![CDATA[
.edge:hover path { stroke: red; }
.edge:hover polygon { stroke: red; fill: red; }
]]></style>
<script type="text/javascript"><![CDATA[
var edges = document.getElementsByTagName('g');
if (edges && edges.length) {
  for (var i=0;i<edges.length;i++) {
    if (edges[i].id.substr(0,4)=='edge') {
      edges[i].setAttribute('class','edge');
    }
  }
}
]]></script>
        <defs>
                <circle id="rim" cx="0" cy="0" r="7"/>
                <circle id="rim2" cx="0" cy="0" r="3.5"/>
                <g id="zoomPlus">
                        <use xlink:href="#rim" fill="#404040">
                                <set attributeName="fill" to="#808080" begin="zoomplus.mouseover" end="zoomplus.mouseout"/>
                        </use>
                        <path d="M-4,0h8M0,-4v8" fill="none" stroke="white" stroke-width="1.5" pointer-events="none"/>
                </g>
                <g id="zoomMin">
                        <use xlink:href="#rim" fill="#404040">
                                <set attributeName="fill" to="#808080" begin="zoomminus.mouseover" end="zoomminus.mouseout"/>
                        </use>
                        <path d="M-4,0h8" fill="none" stroke="white" stroke-width="1.5" pointer-events="none"/>
                </g>
                <g id="dirArrow">
                        <path fill="none" stroke="white" stroke-width="1.5" d="M0,-3.0v7 M-2.5,-0.5L0,-3.0L2.5,-0.5"/>
                </g>
               <g id="resetDef">
                       <use xlink:href="#rim2" fill="#404040">
                               <set attributeName="fill" to="#808080" begin="reset.mouseover" end="reset.mouseout"/>
                       </use>
               </g>
        </defs>

<script type="text/javascript">
var viewWidth = 790;
var viewHeight = 104;
var sectionId = 'dynsection-52';
</script>
<script xlink:href="svgpan.js"/>
<svg id="graph" class="graph">
<g id="viewport">
<title>TMC2130Stepper::diag1_stall</title>
<polygon fill="white" stroke="none" points="-4,4 -4,-100 786,-100 786,4 -4,4"/>
<!-- Node1 -->
<g id="node1" class="node"><title>Node1</title>
<g id="a_node1"><a xlink:title=" ">
<polygon fill="#bfbfbf" stroke="black" points="0,-33 0,-63 121,-63 121,-33 0,-33"/>
<text text-anchor="start" x="8" y="-51" font-family="Helvetica,sans-Serif" font-size="10.00">TMC2130Stepper::diag1</text>
<text text-anchor="middle" x="60.5" y="-40" font-family="Helvetica,sans-Serif" font-size="10.00">_stall</text>
</a>
</g>
</g>
<!-- Node2 -->
<g id="node2" class="node"><title>Node2</title>
<g id="a_node2"><a xlink:href="class_t_m_c2130_stepper.html#aee84a9abfc84b387c6ae5658f90bf684" target="_top" xlink:title=" ">
<polygon fill="white" stroke="black" points="157,-38.5 157,-57.5 289,-57.5 289,-38.5 157,-38.5"/>
<text text-anchor="middle" x="223" y="-45.5" font-family="Helvetica,sans-Serif" font-size="10.00">TMC2130Stepper::GCONF</text>
</a>
</g>
</g>
<!-- Node1&#45;&gt;Node2 -->
<g id="edge1" class="edge"><title>Node1&#45;&gt;Node2</title>
<path fill="none" stroke="midnightblue" d="M121.264,-48C129.501,-48 138.047,-48 146.522,-48"/>
<polygon fill="midnightblue" stroke="midnightblue" points="146.798,-51.5001 156.798,-48 146.798,-44.5001 146.798,-51.5001"/>
</g>
<!-- Node3 -->
<g id="node3" class="node"><title>Node3</title>
<g id="a_node3"><a xlink:href="class_t_m_c2130_stepper.html#aed0175bff6e80ebc14e0d2606283cbe0" target="_top" xlink:title=" ">
<polygon fill="white" stroke="black" points="325,-38.5 325,-57.5 441,-57.5 441,-38.5 325,-38.5"/>
<text text-anchor="middle" x="383" y="-45.5" font-family="Helvetica,sans-Serif" font-size="10.00">TMC2130Stepper::read</text>
</a>
</g>
</g>
<!-- Node2&#45;&gt;Node3 -->
<g id="edge2" class="edge"><title>Node2&#45;&gt;Node3</title>
<path fill="none" stroke="midnightblue" d="M289.177,-48C297.517,-48 306.069,-48 314.445,-48"/>
<polygon fill="midnightblue" stroke="midnightblue" points="314.55,-51.5001 324.55,-48 314.55,-44.5001 314.55,-51.5001"/>
</g>
<!-- Node4 -->
<g id="node4" class="node"><title>Node4</title>
<g id="a_node4"><a xlink:href="class_t_m_c2130_stepper.html#aed8aa4583943e649dbf3bb1c1da90d63" target="_top" xlink:title=" ">
<polygon fill="white" stroke="black" points="477,-76.5 477,-95.5 629,-95.5 629,-76.5 477,-76.5"/>
<text text-anchor="middle" x="553" y="-83.5" font-family="Helvetica,sans-Serif" font-size="10.00">TMC2130Stepper::switchCSpin</text>
</a>
</g>
</g>
<!-- Node3&#45;&gt;Node4 -->
<g id="edge3" class="edge"><title>Node3&#45;&gt;Node4</title>
<path fill="none" stroke="midnightblue" d="M426.393,-57.589C448.763,-62.6487 476.398,-68.8996 500.047,-74.2488"/>
<polygon fill="midnightblue" stroke="midnightblue" points="499.386,-77.6875 509.911,-76.4799 500.93,-70.8599 499.386,-77.6875"/>
</g>
<!-- Node5 -->
<g id="node5" class="node"><title>Node5</title>
<g id="a_node5"><a xlink:href="class_s_w___s_p_i_class.html#af260fdc0af3f1312b106483161e559c3" target="_top" xlink:title=" ">
<polygon fill="white" stroke="black" points="665,-19.5 665,-38.5 782,-38.5 782,-19.5 665,-19.5"/>
<text text-anchor="middle" x="723.5" y="-26.5" font-family="Helvetica,sans-Serif" font-size="10.00">SW_SPIClass::transfer</text>
</a>
</g>
</g>
<!-- Node3&#45;&gt;Node5 -->
<g id="edge4" class="edge"><title>Node3&#45;&gt;Node5</title>
<path fill="none" stroke="midnightblue" d="M441.039,-44.7984C500.027,-41.4874 592.113,-36.3186 654.765,-32.802"/>
<polygon fill="midnightblue" stroke="midnightblue" points="655.156,-36.2856 664.944,-32.2306 654.763,-29.2966 655.156,-36.2856"/>
</g>
<!-- Node6 -->
<g id="node6" class="node"><title>Node6</title>
<g id="a_node6"><a xlink:href="class_s_w___s_p_i_class.html#a1b7600aa1d9571c103718c5d3e376675" target="_top" xlink:title=" ">
<polygon fill="white" stroke="black" points="489,-0.5 489,-19.5 617,-19.5 617,-0.5 489,-0.5"/>
<text text-anchor="middle" x="553" y="-7.5" font-family="Helvetica,sans-Serif" font-size="10.00">SW_SPIClass::transfer16</text>
</a>
</g>
</g>
<!-- Node3&#45;&gt;Node6 -->
<g id="edge5" class="edge"><title>Node3&#45;&gt;Node6</title>
<path fill="none" stroke="midnightblue" d="M426.393,-38.411C448.763,-33.3513 476.398,-27.1004 500.047,-21.7512"/>
<polygon fill="midnightblue" stroke="midnightblue" points="500.93,-25.1401 509.911,-19.5201 499.386,-18.3125 500.93,-25.1401"/>
</g>
<!-- Node6&#45;&gt;Node5 -->
<g id="edge6" class="edge"><title>Node6&#45;&gt;Node5</title>
<path fill="none" stroke="midnightblue" d="M617.223,-17.129C629.406,-18.5028 642.217,-19.9473 654.543,-21.3372"/>
<polygon fill="midnightblue" stroke="midnightblue" points="654.43,-24.8466 664.76,-22.4892 655.215,-17.8907 654.43,-24.8466"/>
</g>
</g>
</svg>
        <g id="navigator" transform="translate(0 0)" fill="#404254">
                <rect fill="#f2f5e9" fill-opacity="0.5" stroke="#606060" stroke-width=".5" x="0" y="0" width="60" height="60"/>
                <use id="zoomplus" xlink:href="#zoomPlus" x="17" y="9" onmousedown="handleZoom(evt,'in')"/>
                <use id="zoomminus" xlink:href="#zoomMin" x="42" y="9" onmousedown="handleZoom(evt,'out')"/>
                <use id="reset" xlink:href="#resetDef" x="30" y="36" onmousedown="handleReset()"/>
                <g id="arrowUp" xlink:href="#dirArrow" transform="translate(30 24)" onmousedown="handlePan(0,-1)">
                  <use xlink:href="#rim" fill="#404040">
                        <set attributeName="fill" to="#808080" begin="arrowUp.mouseover" end="arrowUp.mouseout"/>
                  </use>
                  <path fill="none" stroke="white" stroke-width="1.5" d="M0,-3.0v7 M-2.5,-0.5L0,-3.0L2.5,-0.5"/>
                </g>
                <g id="arrowRight" xlink:href="#dirArrow" transform="rotate(90) translate(36 -43)" onmousedown="handlePan(1,0)">
                  <use xlink:href="#rim" fill="#404040">
                        <set attributeName="fill" to="#808080" begin="arrowRight.mouseover" end="arrowRight.mouseout"/>
                  </use>
                  <path fill="none" stroke="white" stroke-width="1.5" d="M0,-3.0v7 M-2.5,-0.5L0,-3.0L2.5,-0.5"/>
                </g>
                <g id="arrowDown" xlink:href="#dirArrow" transform="rotate(180) translate(-30 -48)" onmousedown="handlePan(0,1)">
                  <use xlink:href="#rim" fill="#404040">
                        <set attributeName="fill" to="#808080" begin="arrowDown.mouseover" end="arrowDown.mouseout"/>
                  </use>
                  <path fill="none" stroke="white" stroke-width="1.5" d="M0,-3.0v7 M-2.5,-0.5L0,-3.0L2.5,-0.5"/>
                </g>
                <g id="arrowLeft" xlink:href="#dirArrow" transform="rotate(270) translate(-36 17)" onmousedown="handlePan(-1,0)">
                  <use xlink:href="#rim" fill="#404040">
                        <set attributeName="fill" to="#808080" begin="arrowLeft.mouseover" end="arrowLeft.mouseout"/>
                  </use>
                  <path fill="none" stroke="white" stroke-width="1.5" d="M0,-3.0v7 M-2.5,-0.5L0,-3.0L2.5,-0.5"/>
                </g>
        </g>
        <svg viewBox="0 0 15 15" width="100%" height="30px" preserveAspectRatio="xMaxYMin meet">
         <g id="arrow_out" transform="scale(0.3 0.3)">
          <a xlink:href="class_t_m_c2130_stepper_aeb1f85a7e07cfdc5f6487a34f8b49fab_cgraph_org.svg" target="_base">
           <rect id="button" ry="5" rx="5" y="6" x="6" height="38" width="38"
                fill="#f2f5e9" fill-opacity="0.5" stroke="#606060" stroke-width="1.0"/>
           <path id="arrow"
             d="M 11.500037,31.436501 C 11.940474,20.09759 22.043105,11.32322 32.158766,21.979434 L 37.068811,17.246167 C 37.068811,17.246167 37.088388,32 37.088388,32 L 22.160133,31.978069 C 22.160133,31.978069 26.997745,27.140456 26.997745,27.140456 C 18.528582,18.264221 13.291696,25.230495 11.500037,31.436501 z"
             style="fill:#404040;"/>
          </a>
         </g>
        </svg>
</svg>
