<?xml version="1.0" encoding="UTF-8" standalone="no"?>
<!DOCTYPE svg PUBLIC "-//W3C//DTD SVG 1.1//EN"
 "http://www.w3.org/Graphics/SVG/1.1/DTD/svg11.dtd">
<!-- Generated by graphviz version 2.38.0 (20140413.2041)
 -->
<!-- Title: TMC5130Stepper::VSTOP Pages: 1 -->
<svg width="825pt" height="99pt"
 viewBox="0.00 0.00 825.00 99.19" xmlns="http://www.w3.org/2000/svg" xmlns:xlink="http://www.w3.org/1999/xlink">
<g id="graph0" class="graph" transform="scale(1 1) rotate(0) translate(4 95.1887)">
<title>TMC5130Stepper::VSTOP</title>
<polygon fill="white" stroke="none" points="-4,4 -4,-95.1887 821,-95.1887 821,4 -4,4"/>
<!-- Node1 -->
<g id="node1" class="node"><title>Node1</title>
<g id="a_node1"><a xlink:title=" ">
<polygon fill="#bfbfbf" stroke="black" points="0,-33.5616 0,-52.5616 131,-52.5616 131,-33.5616 0,-33.5616"/>
<text text-anchor="middle" x="65.5" y="-40.5616" font-family="Helvetica,sans-Serif" font-size="10.00">TMC5130Stepper::VSTOP</text>
</a>
</g>
</g>
<!-- Node2 -->
<g id="node2" class="node"><title>Node2</title>
<g id="a_node2"><a xlink:href="class_t_m_c5130_stepper.html#a020e6ae2a6abce1a92338345aab2ae7c" target="_top" xlink:title=" ">
<polygon fill="white" stroke="black" points="167,-14.5616 167,-33.5616 322,-33.5616 322,-14.5616 167,-14.5616"/>
<text text-anchor="middle" x="244.5" y="-21.5616" font-family="Helvetica,sans-Serif" font-size="10.00">TMC5130Stepper::RAMPMODE</text>
</a>
</g>
</g>
<!-- Node1&#45;&gt;Node2 -->
<g id="edge1" class="edge"><title>Node1&#45;&gt;Node2</title>
<path fill="none" stroke="midnightblue" d="M131.152,-36.1215C139.457,-35.23 148.064,-34.3061 156.651,-33.3843"/>
<polygon fill="midnightblue" stroke="midnightblue" points="157.133,-36.8528 166.702,-32.3054 156.386,-29.8928 157.133,-36.8528"/>
</g>
<!-- Node7 -->
<g id="node7" class="node"><title>Node7</title>
<g id="a_node7"><a xlink:href="class_t_m_c2130_stepper.html#a1f26f0ea072d38c0afd20f27563ebb64" target="_top" xlink:title=" ">
<polygon fill="white" stroke="black" points="358,-52.5616 358,-71.5616 476,-71.5616 476,-52.5616 358,-52.5616"/>
<text text-anchor="middle" x="417" y="-59.5616" font-family="Helvetica,sans-Serif" font-size="10.00">TMC2130Stepper::write</text>
</a>
</g>
</g>
<!-- Node1&#45;&gt;Node7 -->
<g id="edge7" class="edge"><title>Node1&#45;&gt;Node7</title>
<path fill="none" stroke="midnightblue" d="M131.011,-46.5686C192.574,-49.9154 284.988,-54.9393 347.761,-58.3518"/>
<polygon fill="midnightblue" stroke="midnightblue" points="347.783,-61.8581 357.958,-58.9062 348.163,-54.8685 347.783,-61.8581"/>
</g>
<!-- Node3 -->
<g id="node3" class="node"><title>Node3</title>
<g id="a_node3"><a xlink:href="class_t_m_c2130_stepper.html#aed0175bff6e80ebc14e0d2606283cbe0" target="_top" xlink:title=" ">
<polygon fill="white" stroke="black" points="359,-14.5616 359,-33.5616 475,-33.5616 475,-14.5616 359,-14.5616"/>
<text text-anchor="middle" x="417" y="-21.5616" font-family="Helvetica,sans-Serif" font-size="10.00">TMC2130Stepper::read</text>
</a>
</g>
</g>
<!-- Node2&#45;&gt;Node3 -->
<g id="edge2" class="edge"><title>Node2&#45;&gt;Node3</title>
<path fill="none" stroke="midnightblue" d="M322.271,-24.0616C331.101,-24.0616 340.055,-24.0616 348.746,-24.0616"/>
<polygon fill="midnightblue" stroke="midnightblue" points="348.806,-27.5617 358.806,-24.0616 348.806,-20.5617 348.806,-27.5617"/>
</g>
<!-- Node4 -->
<g id="node4" class="node"><title>Node4</title>
<g id="a_node4"><a xlink:href="class_t_m_c2130_stepper.html#aed8aa4583943e649dbf3bb1c1da90d63" target="_top" xlink:title=" ">
<polygon fill="white" stroke="black" points="512,-52.5616 512,-71.5616 664,-71.5616 664,-52.5616 512,-52.5616"/>
<text text-anchor="middle" x="588" y="-59.5616" font-family="Helvetica,sans-Serif" font-size="10.00">TMC2130Stepper::switchCSpin</text>
</a>
</g>
</g>
<!-- Node3&#45;&gt;Node4 -->
<g id="edge3" class="edge"><title>Node3&#45;&gt;Node4</title>
<path fill="none" stroke="midnightblue" d="M460.646,-33.6506C483.148,-38.7103 510.948,-44.9612 534.738,-50.3103"/>
<polygon fill="midnightblue" stroke="midnightblue" points="534.137,-53.7624 544.661,-52.5415 535.672,-46.933 534.137,-53.7624"/>
</g>
<!-- Node5 -->
<g id="node5" class="node"><title>Node5</title>
<g id="a_node5"><a xlink:href="class_s_w___s_p_i_class.html#af260fdc0af3f1312b106483161e559c3" target="_top" xlink:title=" ">
<polygon fill="white" stroke="black" points="700,-14.5616 700,-33.5616 817,-33.5616 817,-14.5616 700,-14.5616"/>
<text text-anchor="middle" x="758.5" y="-21.5616" font-family="Helvetica,sans-Serif" font-size="10.00">SW_SPIClass::transfer</text>
</a>
</g>
</g>
<!-- Node3&#45;&gt;Node5 -->
<g id="edge4" class="edge"><title>Node3&#45;&gt;Node5</title>
<path fill="none" stroke="midnightblue" d="M456.154,-14.5518C473.134,-10.7868 493.445,-6.91802 512,-5.06157 579.22,1.66393 596.784,1.69882 664,-5.06157 678.998,-6.57001 695.148,-9.40685 709.735,-12.4371"/>
<polygon fill="midnightblue" stroke="midnightblue" points="709.039,-15.8672 719.552,-14.5519 710.513,-9.02422 709.039,-15.8672"/>
</g>
<!-- Node6 -->
<g id="node6" class="node"><title>Node6</title>
<g id="a_node6"><a xlink:href="class_s_w___s_p_i_class.html#a1b7600aa1d9571c103718c5d3e376675" target="_top" xlink:title=" ">
<polygon fill="white" stroke="black" points="524,-14.5616 524,-33.5616 652,-33.5616 652,-14.5616 524,-14.5616"/>
<text text-anchor="middle" x="588" y="-21.5616" font-family="Helvetica,sans-Serif" font-size="10.00">SW_SPIClass::transfer16</text>
</a>
</g>
</g>
<!-- Node3&#45;&gt;Node6 -->
<g id="edge5" class="edge"><title>Node3&#45;&gt;Node6</title>
<path fill="none" stroke="midnightblue" d="M475.216,-24.0616C487.532,-24.0616 500.714,-24.0616 513.551,-24.0616"/>
<polygon fill="midnightblue" stroke="midnightblue" points="513.748,-27.5617 523.748,-24.0616 513.748,-20.5617 513.748,-27.5617"/>
</g>
<!-- Node6&#45;&gt;Node5 -->
<g id="edge6" class="edge"><title>Node6&#45;&gt;Node5</title>
<path fill="none" stroke="midnightblue" d="M652.223,-24.0616C664.406,-24.0616 677.217,-24.0616 689.543,-24.0616"/>
<polygon fill="midnightblue" stroke="midnightblue" points="689.76,-27.5617 699.76,-24.0616 689.76,-20.5617 689.76,-27.5617"/>
</g>
<!-- Node7&#45;&gt;Node4 -->
<g id="edge8" class="edge"><title>Node7&#45;&gt;Node4</title>
<path fill="none" stroke="midnightblue" d="M476.16,-62.0616C484.395,-62.0616 493.001,-62.0616 501.62,-62.0616"/>
<polygon fill="midnightblue" stroke="midnightblue" points="501.721,-65.5617 511.721,-62.0616 501.721,-58.5617 501.721,-65.5617"/>
</g>
<!-- Node7&#45;&gt;Node5 -->
<g id="edge9" class="edge"><title>Node7&#45;&gt;Node5</title>
<path fill="none" stroke="midnightblue" d="M450.543,-71.6021C498.305,-84.044 589.767,-101.905 664,-81.0616 692.313,-73.1118 720.548,-53.9577 738.462,-40.0422"/>
<polygon fill="midnightblue" stroke="midnightblue" points="740.761,-42.6849 746.382,-33.7039 736.388,-37.2196 740.761,-42.6849"/>
</g>
<!-- Node7&#45;&gt;Node6 -->
<g id="edge10" class="edge"><title>Node7&#45;&gt;Node6</title>
<path fill="none" stroke="midnightblue" d="M460.646,-52.4726C483.148,-47.4129 510.948,-41.162 534.738,-35.8128"/>
<polygon fill="midnightblue" stroke="midnightblue" points="535.672,-39.1902 544.661,-33.5816 534.137,-32.3607 535.672,-39.1902"/>
</g>
</g>
</svg>
