<?xml version="1.0" encoding="UTF-8" standalone="no"?>
<!DOCTYPE svg PUBLIC "-//W3C//DTD SVG 1.1//EN"
 "http://www.w3.org/Graphics/SVG/1.1/DTD/svg11.dtd">
<!-- Generated by graphviz version 2.38.0 (20140413.2041)
 -->
<!-- Title: TMC2208Stepper::version Pages: 1 -->
<svg width="823pt" height="140pt"
 viewBox="0.00 0.00 823.00 139.53" xmlns="http://www.w3.org/2000/svg" xmlns:xlink="http://www.w3.org/1999/xlink">
<g id="graph0" class="graph" transform="scale(1 1) rotate(0) translate(4 135.532)">
<title>TMC2208Stepper::version</title>
<polygon fill="white" stroke="none" points="-4,4 -4,-135.532 819,-135.532 819,4 -4,4"/>
<!-- Node1 -->
<g id="node1" class="node"><title>Node1</title>
<g id="a_node1"><a xlink:title=" ">
<polygon fill="#bfbfbf" stroke="black" points="0,-4.03223 0,-23.0322 128,-23.0322 128,-4.03223 0,-4.03223"/>
<text text-anchor="middle" x="64" y="-11.0322" font-family="Helvetica,sans-Serif" font-size="10.00">TMC2208Stepper::version</text>
</a>
</g>
</g>
<!-- Node2 -->
<g id="node2" class="node"><title>Node2</title>
<g id="a_node2"><a xlink:href="class_t_m_c2208_stepper.html#a5441dd87d0bcea4ffc309cb012166a57" target="_top" xlink:title=" ">
<polygon fill="white" stroke="black" points="164,-4.03223 164,-23.0322 280,-23.0322 280,-4.03223 164,-4.03223"/>
<text text-anchor="middle" x="222" y="-11.0322" font-family="Helvetica,sans-Serif" font-size="10.00">TMC2208Stepper::IOIN</text>
</a>
</g>
</g>
<!-- Node1&#45;&gt;Node2 -->
<g id="edge1" class="edge"><title>Node1&#45;&gt;Node2</title>
<path fill="none" stroke="midnightblue" d="M128.002,-13.5322C136.418,-13.5322 145.077,-13.5322 153.565,-13.5322"/>
<polygon fill="midnightblue" stroke="midnightblue" points="153.808,-17.0323 163.808,-13.5322 153.808,-10.0323 153.808,-17.0323"/>
</g>
<!-- Node3 -->
<g id="node3" class="node"><title>Node3</title>
<g id="a_node3"><a xlink:href="class_t_m_c2208_stepper.html#a2fae2050849c3ab7968012def8ea1cc5" target="_top" xlink:title=" ">
<polygon fill="white" stroke="black" points="316,-33.0322 316,-52.0322 432,-52.0322 432,-33.0322 316,-33.0322"/>
<text text-anchor="middle" x="374" y="-40.0322" font-family="Helvetica,sans-Serif" font-size="10.00">TMC2208Stepper::read</text>
</a>
</g>
</g>
<!-- Node2&#45;&gt;Node3 -->
<g id="edge2" class="edge"><title>Node2&#45;&gt;Node3</title>
<path fill="none" stroke="midnightblue" d="M272.531,-23.1083C285.784,-25.6705 300.241,-28.4655 313.952,-31.1163"/>
<polygon fill="midnightblue" stroke="midnightblue" points="313.294,-34.5538 323.776,-33.0157 314.623,-27.681 313.294,-34.5538"/>
</g>
<!-- Node4 -->
<g id="node4" class="node"><title>Node4</title>
<g id="a_node4"><a xlink:href="class_t_m_c2208_stepper.html#a3e1f6a10aa1e3e41dc2594dbe1ea8a1d" target="_top" xlink:title=" ">
<polygon fill="white" stroke="black" points="468,-90.0322 468,-109.032 634,-109.032 634,-90.0322 468,-90.0322"/>
<text text-anchor="middle" x="551" y="-97.0322" font-family="Helvetica,sans-Serif" font-size="10.00">TMC2208Stepper::_sendDatagram</text>
</a>
</g>
</g>
<!-- Node3&#45;&gt;Node4 -->
<g id="edge3" class="edge"><title>Node3&#45;&gt;Node4</title>
<path fill="none" stroke="midnightblue" d="M395.7,-52.1104C414.317,-60.4533 442.568,-72.4476 468,-80.5322 476.008,-83.0779 484.555,-85.4385 492.996,-87.5688"/>
<polygon fill="midnightblue" stroke="midnightblue" points="492.272,-90.9948 502.816,-89.9611 493.929,-84.1937 492.272,-90.9948"/>
</g>
<!-- Node8 -->
<g id="node8" class="node"><title>Node8</title>
<g id="a_node8"><a xlink:href="class_s_switch.html#a6ff09d0850d551571dc333fb74ff8628" target="_top" xlink:title=" ">
<polygon fill="white" stroke="black" points="509.5,-52.0322 509.5,-71.0322 592.5,-71.0322 592.5,-52.0322 509.5,-52.0322"/>
<text text-anchor="middle" x="551" y="-59.0322" font-family="Helvetica,sans-Serif" font-size="10.00">SSwitch::active</text>
</a>
</g>
</g>
<!-- Node3&#45;&gt;Node8 -->
<g id="edge8" class="edge"><title>Node3&#45;&gt;Node8</title>
<path fill="none" stroke="midnightblue" d="M432.302,-48.7535C453.975,-51.1066 478.465,-53.7656 499.472,-56.0463"/>
<polygon fill="midnightblue" stroke="midnightblue" points="499.158,-59.5327 509.477,-57.1326 499.913,-52.5736 499.158,-59.5327"/>
</g>
<!-- Node9 -->
<g id="node9" class="node"><title>Node9</title>
<g id="a_node9"><a xlink:href="class_t_m_c2208_stepper.html#a409c19fa6b052a370a317d061bf9af4e" target="_top" xlink:title=" ">
<polygon fill="white" stroke="black" points="483,-14.0322 483,-33.0322 619,-33.0322 619,-14.0322 483,-14.0322"/>
<text text-anchor="middle" x="551" y="-21.0322" font-family="Helvetica,sans-Serif" font-size="10.00">TMC2208Stepper::calcCRC</text>
</a>
</g>
</g>
<!-- Node3&#45;&gt;Node9 -->
<g id="edge9" class="edge"><title>Node3&#45;&gt;Node9</title>
<path fill="none" stroke="midnightblue" d="M432.302,-36.3109C445.17,-34.9138 459.032,-33.4088 472.567,-31.9392"/>
<polygon fill="midnightblue" stroke="midnightblue" points="473.269,-35.3836 482.833,-30.8246 472.514,-28.4245 473.269,-35.3836"/>
</g>
<!-- Node5 -->
<g id="node5" class="node"><title>Node5</title>
<g id="a_node5"><a xlink:href="class_t_m_c2208_stepper.html#a4ec5d2b2f5a31259c7aba1f3208d63b8" target="_top" xlink:title=" ">
<polygon fill="white" stroke="black" points="684.5,-11.0322 684.5,-30.0322 800.5,-30.0322 800.5,-11.0322 684.5,-11.0322"/>
<text text-anchor="middle" x="742.5" y="-18.0322" font-family="Helvetica,sans-Serif" font-size="10.00">TMC2208Stepper::ms2</text>
</a>
</g>
</g>
<!-- Node4&#45;&gt;Node5 -->
<g id="edge4" class="edge"><title>Node4&#45;&gt;Node5</title>
<path fill="none" stroke="midnightblue" d="M608.242,-89.9247C617.083,-87.4489 625.952,-84.3643 634,-80.5322 652.301,-71.8185 652.624,-62.9698 670,-52.5322 681.591,-45.5698 694.963,-39.1888 706.984,-33.9877"/>
<polygon fill="midnightblue" stroke="midnightblue" points="708.414,-37.1834 716.276,-30.081 705.701,-30.7305 708.414,-37.1834"/>
</g>
<!-- Node6 -->
<g id="node6" class="node"><title>Node6</title>
<g id="a_node6"><a xlink:href="class_t_m_c2208_stepper.html#ae561da4ec7c40830e97bf4dc8cf700fb" target="_top" xlink:title=" ">
<polygon fill="white" stroke="black" points="670,-112.032 670,-131.032 815,-131.032 815,-112.032 670,-112.032"/>
<text text-anchor="middle" x="742.5" y="-119.032" font-family="Helvetica,sans-Serif" font-size="10.00">TMC2208Stepper::serial_read</text>
</a>
</g>
</g>
<!-- Node4&#45;&gt;Node6 -->
<g id="edge6" class="edge"><title>Node4&#45;&gt;Node6</title>
<path fill="none" stroke="midnightblue" d="M634.015,-109.054C642.571,-110.047 651.268,-111.057 659.819,-112.05"/>
<polygon fill="midnightblue" stroke="midnightblue" points="659.438,-115.529 669.775,-113.205 660.245,-108.575 659.438,-115.529"/>
</g>
<!-- Node7 -->
<g id="node7" class="node"><title>Node7</title>
<g id="a_node7"><a xlink:href="class_t_m_c2208_stepper.html#a7dd83313385079099b0622957786a979" target="_top" xlink:title=" ">
<polygon fill="white" stroke="black" points="682,-62.5322 682,-92.5322 803,-92.5322 803,-62.5322 682,-62.5322"/>
<text text-anchor="start" x="690" y="-80.5322" font-family="Helvetica,sans-Serif" font-size="10.00">TMC2208Stepper::serial</text>
<text text-anchor="middle" x="742.5" y="-69.5322" font-family="Helvetica,sans-Serif" font-size="10.00">_write</text>
</a>
</g>
</g>
<!-- Node4&#45;&gt;Node7 -->
<g id="edge7" class="edge"><title>Node4&#45;&gt;Node7</title>
<path fill="none" stroke="midnightblue" d="M634.015,-90.0107C646.597,-88.55 659.484,-87.0539 671.767,-85.6279"/>
<polygon fill="midnightblue" stroke="midnightblue" points="672.392,-89.0789 681.922,-84.4489 671.585,-82.1256 672.392,-89.0789"/>
</g>
<!-- Node5&#45;&gt;Node2 -->
<g id="edge5" class="edge"><title>Node5&#45;&gt;Node2</title>
<path fill="none" stroke="midnightblue" d="M688.088,-10.9924C670.881,-8.34632 651.688,-5.84135 634,-4.53223 513.185,4.40943 371.893,-2.4631 290.393,-8.10973"/>
<polygon fill="midnightblue" stroke="midnightblue" points="289.998,-4.62883 280.27,-8.82619 290.492,-11.6114 289.998,-4.62883"/>
</g>
</g>
</svg>
