<?xml version="1.0" encoding="UTF-8" standalone="no"?>
<!DOCTYPE svg PUBLIC "-//W3C//DTD SVG 1.1//EN"
 "http://www.w3.org/Graphics/SVG/1.1/DTD/svg11.dtd">
<!-- Generated by graphviz version 2.38.0 (20140413.2041)
 -->
<!-- Title: TMC2208Stepper::begin Pages: 1 -->
<!--zoomable 156 -->
<svg id="main" version="1.1" xmlns="http://www.w3.org/2000/svg" xmlns:xlink="http://www.w3.org/1999/xlink" xml:space="preserve" onload="init(evt)">
<style type="text/css"><![CDATA[
.edge:hover path { stroke: red; }
.edge:hover polygon { stroke: red; fill: red; }
]]></style>
<script type="text/javascript"><![CDATA[
var edges = document.getElementsByTagName('g');
if (edges && edges.length) {
  for (var i=0;i<edges.length;i++) {
    if (edges[i].id.substr(0,4)=='edge') {
      edges[i].setAttribute('class','edge');
    }
  }
}
]]></script>
        <defs>
                <circle id="rim" cx="0" cy="0" r="7"/>
                <circle id="rim2" cx="0" cy="0" r="3.5"/>
                <g id="zoomPlus">
                        <use xlink:href="#rim" fill="#404040">
                                <set attributeName="fill" to="#808080" begin="zoomplus.mouseover" end="zoomplus.mouseout"/>
                        </use>
                        <path d="M-4,0h8M0,-4v8" fill="none" stroke="white" stroke-width="1.5" pointer-events="none"/>
                </g>
                <g id="zoomMin">
                        <use xlink:href="#rim" fill="#404040">
                                <set attributeName="fill" to="#808080" begin="zoomminus.mouseover" end="zoomminus.mouseout"/>
                        </use>
                        <path d="M-4,0h8" fill="none" stroke="white" stroke-width="1.5" pointer-events="none"/>
                </g>
                <g id="dirArrow">
                        <path fill="none" stroke="white" stroke-width="1.5" d="M0,-3.0v7 M-2.5,-0.5L0,-3.0L2.5,-0.5"/>
                </g>
               <g id="resetDef">
                       <use xlink:href="#rim2" fill="#404040">
                               <set attributeName="fill" to="#808080" begin="reset.mouseover" end="reset.mouseout"/>
                       </use>
               </g>
        </defs>

<script type="text/javascript">
var viewWidth = 1166;
var viewHeight = 156;
var sectionId = 'dynsection-5';
</script>
<script xlink:href="svgpan.js"/>
<svg id="graph" class="graph">
<g id="viewport">
<title>TMC2208Stepper::begin</title>
<polygon fill="white" stroke="none" points="-4,4 -4,-152.405 1162,-152.405 1162,4 -4,4"/>
<!-- Node1 -->
<g id="node1" class="node"><title>Node1</title>
<g id="a_node1"><a xlink:title=" ">
<polygon fill="#bfbfbf" stroke="black" points="0,-71.9052 0,-90.9052 121,-90.9052 121,-71.9052 0,-71.9052"/>
<text text-anchor="middle" x="60.5" y="-78.9052" font-family="Helvetica,sans-Serif" font-size="10.00">TMC2208Stepper::begin</text>
</a>
</g>
</g>
<!-- Node2 -->
<g id="node2" class="node"><title>Node2</title>
<g id="a_node2"><a xlink:href="class_t_m_c2208_stepper.html#a6621972ab7af79ca78579f692048a205" target="_top" xlink:title=" ">
<polygon fill="white" stroke="black" points="157,-115.905 157,-134.905 303,-134.905 303,-115.905 157,-115.905"/>
<text text-anchor="middle" x="230" y="-122.905" font-family="Helvetica,sans-Serif" font-size="10.00">TMC2208Stepper::beginSerial</text>
</a>
</g>
</g>
<!-- Node1&#45;&gt;Node2 -->
<g id="edge1" class="edge"><title>Node1&#45;&gt;Node2</title>
<path fill="none" stroke="midnightblue" d="M97.845,-90.9525C122.758,-97.4967 156.015,-106.233 182.806,-113.271"/>
<polygon fill="midnightblue" stroke="midnightblue" points="182.165,-116.721 192.726,-115.876 183.943,-109.951 182.165,-116.721"/>
</g>
<!-- Node3 -->
<g id="node3" class="node"><title>Node3</title>
<g id="a_node3"><a xlink:href="class_t_m_c2208_stepper.html#a02994cba6b9ac73b61799cf7af0fd588" target="_top" xlink:title=" ">
<polygon fill="white" stroke="black" points="167.5,-66.4052 167.5,-96.4052 292.5,-96.4052 292.5,-66.4052 167.5,-66.4052"/>
<text text-anchor="start" x="175.5" y="-84.4052" font-family="Helvetica,sans-Serif" font-size="10.00">TMC2208Stepper::mstep</text>
<text text-anchor="middle" x="230" y="-73.4052" font-family="Helvetica,sans-Serif" font-size="10.00">_reg_select</text>
</a>
</g>
</g>
<!-- Node1&#45;&gt;Node3 -->
<g id="edge2" class="edge"><title>Node1&#45;&gt;Node3</title>
<path fill="none" stroke="midnightblue" d="M121.026,-81.4052C132.78,-81.4052 145.23,-81.4052 157.337,-81.4052"/>
<polygon fill="midnightblue" stroke="midnightblue" points="157.402,-84.9053 167.402,-81.4052 157.402,-77.9053 157.402,-84.9053"/>
</g>
<!-- Node13 -->
<g id="node13" class="node"><title>Node13</title>
<g id="a_node13"><a xlink:href="class_t_m_c2208_stepper.html#a9de4a150926f2875903be27063f00973" target="_top" xlink:title=" ">
<polygon fill="white" stroke="black" points="173.5,-17.4052 173.5,-47.4052 286.5,-47.4052 286.5,-17.4052 173.5,-17.4052"/>
<text text-anchor="start" x="181.5" y="-35.4052" font-family="Helvetica,sans-Serif" font-size="10.00">TMC2208Stepper::pdn</text>
<text text-anchor="middle" x="230" y="-24.4052" font-family="Helvetica,sans-Serif" font-size="10.00">_disable</text>
</a>
</g>
</g>
<!-- Node1&#45;&gt;Node13 -->
<g id="edge13" class="edge"><title>Node1&#45;&gt;Node13</title>
<path fill="none" stroke="midnightblue" d="M94.1933,-71.8411C115.122,-65.7189 142.928,-57.5844 167.849,-50.2941"/>
<polygon fill="midnightblue" stroke="midnightblue" points="168.983,-53.6091 177.598,-47.4421 167.018,-46.8907 168.983,-53.6091"/>
</g>
<!-- Node4 -->
<g id="node4" class="node"><title>Node4</title>
<g id="a_node4"><a xlink:href="class_t_m_c2208_stepper.html#a549db4f962d4ae698dda33ef9a708e33" target="_top" xlink:title=" ">
<polygon fill="white" stroke="black" points="339,-46.9052 339,-65.9052 471,-65.9052 471,-46.9052 339,-46.9052"/>
<text text-anchor="middle" x="405" y="-53.9052" font-family="Helvetica,sans-Serif" font-size="10.00">TMC2208Stepper::GCONF</text>
</a>
</g>
</g>
<!-- Node3&#45;&gt;Node4 -->
<g id="edge3" class="edge"><title>Node3&#45;&gt;Node4</title>
<path fill="none" stroke="midnightblue" d="M292.968,-72.4502C304.633,-70.7645 316.947,-68.9851 328.96,-67.2491"/>
<polygon fill="midnightblue" stroke="midnightblue" points="329.563,-70.6983 338.96,-65.804 328.562,-63.7703 329.563,-70.6983"/>
</g>
<!-- Node5 -->
<g id="node5" class="node"><title>Node5</title>
<g id="a_node5"><a xlink:href="class_t_m_c2208_stepper.html#a2fae2050849c3ab7968012def8ea1cc5" target="_top" xlink:title=" ">
<polygon fill="white" stroke="black" points="507,-46.9052 507,-65.9052 623,-65.9052 623,-46.9052 507,-46.9052"/>
<text text-anchor="middle" x="565" y="-53.9052" font-family="Helvetica,sans-Serif" font-size="10.00">TMC2208Stepper::read</text>
</a>
</g>
</g>
<!-- Node4&#45;&gt;Node5 -->
<g id="edge4" class="edge"><title>Node4&#45;&gt;Node5</title>
<path fill="none" stroke="midnightblue" d="M471.177,-56.4052C479.517,-56.4052 488.069,-56.4052 496.445,-56.4052"/>
<polygon fill="midnightblue" stroke="midnightblue" points="496.55,-59.9053 506.55,-56.4052 496.55,-52.9053 496.55,-59.9053"/>
</g>
<!-- Node6 -->
<g id="node6" class="node"><title>Node6</title>
<g id="a_node6"><a xlink:href="class_t_m_c2208_stepper.html#a3e1f6a10aa1e3e41dc2594dbe1ea8a1d" target="_top" xlink:title=" ">
<polygon fill="white" stroke="black" points="659,-103.905 659,-122.905 825,-122.905 825,-103.905 659,-103.905"/>
<text text-anchor="middle" x="742" y="-110.905" font-family="Helvetica,sans-Serif" font-size="10.00">TMC2208Stepper::_sendDatagram</text>
</a>
</g>
</g>
<!-- Node5&#45;&gt;Node6 -->
<g id="edge5" class="edge"><title>Node5&#45;&gt;Node6</title>
<path fill="none" stroke="midnightblue" d="M586.7,-65.9833C605.317,-74.3262 633.568,-86.3205 659,-94.4052 667.008,-96.9508 675.555,-99.3114 683.996,-101.442"/>
<polygon fill="midnightblue" stroke="midnightblue" points="683.272,-104.868 693.816,-103.834 684.929,-98.0666 683.272,-104.868"/>
</g>
<!-- Node11 -->
<g id="node11" class="node"><title>Node11</title>
<g id="a_node11"><a xlink:href="class_s_switch.html#a6ff09d0850d551571dc333fb74ff8628" target="_top" xlink:title=" ">
<polygon fill="white" stroke="black" points="700.5,-65.9052 700.5,-84.9052 783.5,-84.9052 783.5,-65.9052 700.5,-65.9052"/>
<text text-anchor="middle" x="742" y="-72.9052" font-family="Helvetica,sans-Serif" font-size="10.00">SSwitch::active</text>
</a>
</g>
</g>
<!-- Node5&#45;&gt;Node11 -->
<g id="edge11" class="edge"><title>Node5&#45;&gt;Node11</title>
<path fill="none" stroke="midnightblue" d="M623.302,-62.6265C644.975,-64.9796 669.465,-67.6385 690.472,-69.9193"/>
<polygon fill="midnightblue" stroke="midnightblue" points="690.158,-73.4056 700.477,-71.0055 690.913,-66.4465 690.158,-73.4056"/>
</g>
<!-- Node12 -->
<g id="node12" class="node"><title>Node12</title>
<g id="a_node12"><a xlink:href="class_t_m_c2208_stepper.html#a409c19fa6b052a370a317d061bf9af4e" target="_top" xlink:title=" ">
<polygon fill="white" stroke="black" points="674,-27.9052 674,-46.9052 810,-46.9052 810,-27.9052 674,-27.9052"/>
<text text-anchor="middle" x="742" y="-34.9052" font-family="Helvetica,sans-Serif" font-size="10.00">TMC2208Stepper::calcCRC</text>
</a>
</g>
</g>
<!-- Node5&#45;&gt;Node12 -->
<g id="edge12" class="edge"><title>Node5&#45;&gt;Node12</title>
<path fill="none" stroke="midnightblue" d="M623.302,-50.1839C636.17,-48.7867 650.032,-47.2817 663.567,-45.8121"/>
<polygon fill="midnightblue" stroke="midnightblue" points="664.269,-49.2566 673.833,-44.6976 663.514,-42.2975 664.269,-49.2566"/>
</g>
<!-- Node7 -->
<g id="node7" class="node"><title>Node7</title>
<g id="a_node7"><a xlink:href="class_t_m_c2208_stepper.html#a4ec5d2b2f5a31259c7aba1f3208d63b8" target="_top" xlink:title=" ">
<polygon fill="white" stroke="black" points="875.5,-128.905 875.5,-147.905 991.5,-147.905 991.5,-128.905 875.5,-128.905"/>
<text text-anchor="middle" x="933.5" y="-135.905" font-family="Helvetica,sans-Serif" font-size="10.00">TMC2208Stepper::ms2</text>
</a>
</g>
</g>
<!-- Node6&#45;&gt;Node7 -->
<g id="edge6" class="edge"><title>Node6&#45;&gt;Node7</title>
<path fill="none" stroke="midnightblue" d="M815.182,-122.928C831.64,-125.099 849.062,-127.397 865.301,-129.54"/>
<polygon fill="midnightblue" stroke="midnightblue" points="864.868,-133.013 875.24,-130.851 865.784,-126.073 864.868,-133.013"/>
</g>
<!-- Node9 -->
<g id="node9" class="node"><title>Node9</title>
<g id="a_node9"><a xlink:href="class_t_m_c2208_stepper.html#ae561da4ec7c40830e97bf4dc8cf700fb" target="_top" xlink:title=" ">
<polygon fill="white" stroke="black" points="861,-90.9052 861,-109.905 1006,-109.905 1006,-90.9052 861,-90.9052"/>
<text text-anchor="middle" x="933.5" y="-97.9052" font-family="Helvetica,sans-Serif" font-size="10.00">TMC2208Stepper::serial_read</text>
</a>
</g>
</g>
<!-- Node6&#45;&gt;Node9 -->
<g id="edge9" class="edge"><title>Node6&#45;&gt;Node9</title>
<path fill="none" stroke="midnightblue" d="M825.015,-107.779C833.478,-107.198 842.078,-106.608 850.54,-106.028"/>
<polygon fill="midnightblue" stroke="midnightblue" points="851.038,-109.502 860.775,-105.326 850.559,-102.518 851.038,-109.502"/>
</g>
<!-- Node10 -->
<g id="node10" class="node"><title>Node10</title>
<g id="a_node10"><a xlink:href="class_t_m_c2208_stepper.html#a7dd83313385079099b0622957786a979" target="_top" xlink:title=" ">
<polygon fill="white" stroke="black" points="873,-41.4052 873,-71.4052 994,-71.4052 994,-41.4052 873,-41.4052"/>
<text text-anchor="start" x="881" y="-59.4052" font-family="Helvetica,sans-Serif" font-size="10.00">TMC2208Stepper::serial</text>
<text text-anchor="middle" x="933.5" y="-48.4052" font-family="Helvetica,sans-Serif" font-size="10.00">_write</text>
</a>
</g>
</g>
<!-- Node6&#45;&gt;Node10 -->
<g id="edge10" class="edge"><title>Node6&#45;&gt;Node10</title>
<path fill="none" stroke="midnightblue" d="M788.793,-103.808C800.658,-101.045 813.367,-97.8399 825,-94.4052 841.315,-89.5878 844.971,-87.1015 861,-81.4052 867.017,-79.2668 873.325,-77.0401 879.595,-74.8355"/>
<polygon fill="midnightblue" stroke="midnightblue" points="881.095,-78.0185 889.372,-71.4052 878.778,-71.4133 881.095,-78.0185"/>
</g>
<!-- Node8 -->
<g id="node8" class="node"><title>Node8</title>
<g id="a_node8"><a xlink:href="class_t_m_c2208_stepper.html#a5441dd87d0bcea4ffc309cb012166a57" target="_top" xlink:title=" ">
<polygon fill="white" stroke="black" points="1042,-58.9052 1042,-77.9052 1158,-77.9052 1158,-58.9052 1042,-58.9052"/>
<text text-anchor="middle" x="1100" y="-65.9052" font-family="Helvetica,sans-Serif" font-size="10.00">TMC2208Stepper::IOIN</text>
</a>
</g>
</g>
<!-- Node7&#45;&gt;Node8 -->
<g id="edge7" class="edge"><title>Node7&#45;&gt;Node8</title>
<path fill="none" stroke="midnightblue" d="M977.395,-128.814C986.954,-126.18 996.937,-123.032 1006,-119.405 1030.72,-109.514 1057.18,-94.529 1075.53,-83.3584"/>
<polygon fill="midnightblue" stroke="midnightblue" points="1077.42,-86.3019 1084.09,-78.0661 1073.74,-80.348 1077.42,-86.3019"/>
</g>
<!-- Node8&#45;&gt;Node5 -->
<g id="edge8" class="edge"><title>Node8&#45;&gt;Node5</title>
<path fill="none" stroke="midnightblue" d="M1079.96,-58.8176C1061.55,-50.0326 1032.59,-37.4965 1006,-31.4052 855.566,3.05335 810.437,11.3399 659,-18.4052 635.751,-22.9717 610.989,-33.3919 592.866,-42.1675"/>
<polygon fill="midnightblue" stroke="midnightblue" points="590.917,-39.2285 583.532,-46.826 594.043,-45.4917 590.917,-39.2285"/>
</g>
<!-- Node13&#45;&gt;Node4 -->
<g id="edge14" class="edge"><title>Node13&#45;&gt;Node4</title>
<path fill="none" stroke="midnightblue" d="M286.691,-40.131C300.044,-41.9835 314.524,-43.9923 328.605,-45.9457"/>
<polygon fill="midnightblue" stroke="midnightblue" points="328.38,-49.4479 338.766,-47.3553 329.341,-42.5143 328.38,-49.4479"/>
</g>
</g>
</svg>
        <g id="navigator" transform="translate(0 0)" fill="#404254">
                <rect fill="#f2f5e9" fill-opacity="0.5" stroke="#606060" stroke-width=".5" x="0" y="0" width="60" height="60"/>
                <use id="zoomplus" xlink:href="#zoomPlus" x="17" y="9" onmousedown="handleZoom(evt,'in')"/>
                <use id="zoomminus" xlink:href="#zoomMin" x="42" y="9" onmousedown="handleZoom(evt,'out')"/>
                <use id="reset" xlink:href="#resetDef" x="30" y="36" onmousedown="handleReset()"/>
                <g id="arrowUp" xlink:href="#dirArrow" transform="translate(30 24)" onmousedown="handlePan(0,-1)">
                  <use xlink:href="#rim" fill="#404040">
                        <set attributeName="fill" to="#808080" begin="arrowUp.mouseover" end="arrowUp.mouseout"/>
                  </use>
                  <path fill="none" stroke="white" stroke-width="1.5" d="M0,-3.0v7 M-2.5,-0.5L0,-3.0L2.5,-0.5"/>
                </g>
                <g id="arrowRight" xlink:href="#dirArrow" transform="rotate(90) translate(36 -43)" onmousedown="handlePan(1,0)">
                  <use xlink:href="#rim" fill="#404040">
                        <set attributeName="fill" to="#808080" begin="arrowRight.mouseover" end="arrowRight.mouseout"/>
                  </use>
                  <path fill="none" stroke="white" stroke-width="1.5" d="M0,-3.0v7 M-2.5,-0.5L0,-3.0L2.5,-0.5"/>
                </g>
                <g id="arrowDown" xlink:href="#dirArrow" transform="rotate(180) translate(-30 -48)" onmousedown="handlePan(0,1)">
                  <use xlink:href="#rim" fill="#404040">
                        <set attributeName="fill" to="#808080" begin="arrowDown.mouseover" end="arrowDown.mouseout"/>
                  </use>
                  <path fill="none" stroke="white" stroke-width="1.5" d="M0,-3.0v7 M-2.5,-0.5L0,-3.0L2.5,-0.5"/>
                </g>
                <g id="arrowLeft" xlink:href="#dirArrow" transform="rotate(270) translate(-36 17)" onmousedown="handlePan(-1,0)">
                  <use xlink:href="#rim" fill="#404040">
                        <set attributeName="fill" to="#808080" begin="arrowLeft.mouseover" end="arrowLeft.mouseout"/>
                  </use>
                  <path fill="none" stroke="white" stroke-width="1.5" d="M0,-3.0v7 M-2.5,-0.5L0,-3.0L2.5,-0.5"/>
                </g>
        </g>
        <svg viewBox="0 0 15 15" width="100%" height="30px" preserveAspectRatio="xMaxYMin meet">
         <g id="arrow_out" transform="scale(0.3 0.3)">
          <a xlink:href="class_t_m_c2208_stepper_a974fa83e3bab04cd9f9a7b2d31ebd18e_cgraph_org.svg" target="_base">
           <rect id="button" ry="5" rx="5" y="6" x="6" height="38" width="38"
                fill="#f2f5e9" fill-opacity="0.5" stroke="#606060" stroke-width="1.0"/>
           <path id="arrow"
             d="M 11.500037,31.436501 C 11.940474,20.09759 22.043105,11.32322 32.158766,21.979434 L 37.068811,17.246167 C 37.068811,17.246167 37.088388,32 37.088388,32 L 22.160133,31.978069 C 22.160133,31.978069 26.997745,27.140456 26.997745,27.140456 C 18.528582,18.264221 13.291696,25.230495 11.500037,31.436501 z"
             style="fill:#404040;"/>
          </a>
         </g>
        </svg>
</svg>
