<?xml version="1.0" encoding="UTF-8" standalone="no"?>
<!DOCTYPE svg PUBLIC "-//W3C//DTD SVG 1.1//EN"
 "http://www.w3.org/Graphics/SVG/1.1/DTD/svg11.dtd">
<!-- Generated by graphviz version 2.38.0 (20140413.2041)
 -->
<!-- Title: SW_SPIClass::init Pages: 1 -->
<svg width="420pt" height="66pt"
 viewBox="0.00 0.00 420.00 66.00" xmlns="http://www.w3.org/2000/svg" xmlns:xlink="http://www.w3.org/1999/xlink">
<g id="graph0" class="graph" transform="scale(1 1) rotate(0) translate(4 62)">
<title>SW_SPIClass::init</title>
<polygon fill="white" stroke="none" points="-4,4 -4,-62 416,-62 416,4 -4,4"/>
<!-- Node1 -->
<g id="node1" class="node"><title>Node1</title>
<g id="a_node1"><a xlink:title=" ">
<polygon fill="#bfbfbf" stroke="black" points="314,-19.5 314,-38.5 412,-38.5 412,-19.5 314,-19.5"/>
<text text-anchor="middle" x="363" y="-26.5" font-family="Helvetica,sans-Serif" font-size="10.00">SW_SPIClass::init</text>
</a>
</g>
</g>
<!-- Node2 -->
<g id="node2" class="node"><title>Node2</title>
<g id="a_node2"><a xlink:href="class_t_m_c2130_stepper.html#a2d19f2ad93b00b75ffdcdd73275d2f03" target="_top" xlink:title=" ">
<polygon fill="white" stroke="black" points="157,-38.5 157,-57.5 278,-57.5 278,-38.5 157,-38.5"/>
<text text-anchor="middle" x="217.5" y="-45.5" font-family="Helvetica,sans-Serif" font-size="10.00">TMC2130Stepper::begin</text>
</a>
</g>
</g>
<!-- Node1&#45;&gt;Node2 -->
<g id="edge1" class="edge"><title>Node1&#45;&gt;Node2</title>
<path fill="none" stroke="midnightblue" d="M303.668,-36.7234C295.215,-37.8426 286.504,-38.9959 278.028,-40.1182"/>
<polygon fill="midnightblue" stroke="midnightblue" points="304.363,-40.162 313.817,-35.3796 303.444,-33.2225 304.363,-40.162"/>
</g>
<!-- Node3 -->
<g id="node3" class="node"><title>Node3</title>
<g id="a_node3"><a xlink:href="class_t_m_c2160_stepper.html#a7ee48b042245ef5b3968b82029d1404c" target="_top" xlink:title=" ">
<polygon fill="white" stroke="black" points="157,-0.5 157,-19.5 278,-19.5 278,-0.5 157,-0.5"/>
<text text-anchor="middle" x="217.5" y="-7.5" font-family="Helvetica,sans-Serif" font-size="10.00">TMC2160Stepper::begin</text>
</a>
</g>
</g>
<!-- Node1&#45;&gt;Node3 -->
<g id="edge2" class="edge"><title>Node1&#45;&gt;Node3</title>
<path fill="none" stroke="midnightblue" d="M303.668,-21.2766C295.215,-20.1574 286.504,-19.0041 278.028,-17.8818"/>
<polygon fill="midnightblue" stroke="midnightblue" points="303.444,-24.7775 313.817,-22.6204 304.363,-17.838 303.444,-24.7775"/>
</g>
<!-- Node4 -->
<g id="node4" class="node"><title>Node4</title>
<g id="a_node4"><a xlink:href="class_t_m_c5130_stepper.html#a897212f81817cdaee4536d642badc149" target="_top" xlink:title=" ">
<polygon fill="white" stroke="black" points="0,-0.5 0,-19.5 121,-19.5 121,-0.5 0,-0.5"/>
<text text-anchor="middle" x="60.5" y="-7.5" font-family="Helvetica,sans-Serif" font-size="10.00">TMC5130Stepper::begin</text>
</a>
</g>
</g>
<!-- Node3&#45;&gt;Node4 -->
<g id="edge3" class="edge"><title>Node3&#45;&gt;Node4</title>
<path fill="none" stroke="midnightblue" d="M146.339,-10C137.878,-10 129.3,-10 121.012,-10"/>
<polygon fill="midnightblue" stroke="midnightblue" points="146.573,-13.5001 156.573,-10 146.573,-6.5001 146.573,-13.5001"/>
</g>
</g>
</svg>
