<?xml version="1.0" encoding="UTF-8" standalone="no"?>
<!DOCTYPE svg PUBLIC "-//W3C//DTD SVG 1.1//EN"
 "http://www.w3.org/Graphics/SVG/1.1/DTD/svg11.dtd">
<!-- Generated by graphviz version 2.38.0 (20140413.2041)
 -->
<!-- Title: TMCStepper::uv_cp Pages: 1 -->
<svg width="384pt" height="28pt"
 viewBox="0.00 0.00 384.00 28.00" xmlns="http://www.w3.org/2000/svg" xmlns:xlink="http://www.w3.org/1999/xlink">
<g id="graph0" class="graph" transform="scale(1 1) rotate(0) translate(4 24)">
<title>TMCStepper::uv_cp</title>
<polygon fill="white" stroke="none" points="-4,4 -4,-24 380,-24 380,4 -4,4"/>
<!-- Node1 -->
<g id="node1" class="node"><title>Node1</title>
<g id="a_node1"><a xlink:title=" ">
<polygon fill="#bfbfbf" stroke="black" points="0,-0.5 0,-19.5 101,-19.5 101,-0.5 0,-0.5"/>
<text text-anchor="middle" x="50.5" y="-7.5" font-family="Helvetica,sans-Serif" font-size="10.00">TMCStepper::uv_cp</text>
</a>
</g>
</g>
<!-- Node2 -->
<g id="node2" class="node"><title>Node2</title>
<g id="a_node2"><a xlink:href="class_t_m_c_stepper.html#ac7874c4b56bd1b3acce522c1e7d7dfed" target="_top" xlink:title=" ">
<polygon fill="white" stroke="black" points="137,-0.5 137,-19.5 245,-19.5 245,-0.5 137,-0.5"/>
<text text-anchor="middle" x="191" y="-7.5" font-family="Helvetica,sans-Serif" font-size="10.00">TMCStepper::GSTAT</text>
</a>
</g>
</g>
<!-- Node1&#45;&gt;Node2 -->
<g id="edge1" class="edge"><title>Node1&#45;&gt;Node2</title>
<path fill="none" stroke="midnightblue" d="M101.11,-10C109.479,-10 118.264,-10 126.92,-10"/>
<polygon fill="midnightblue" stroke="midnightblue" points="126.989,-13.5001 136.989,-10 126.989,-6.5001 126.989,-13.5001"/>
</g>
<!-- Node3 -->
<g id="node3" class="node"><title>Node3</title>
<g id="a_node3"><a xlink:href="class_t_m_c_stepper.html#a55984b797e1b4d3fd9e253277b19b8bd" target="_top" xlink:title=" ">
<polygon fill="white" stroke="black" points="281,-0.5 281,-19.5 376,-19.5 376,-0.5 281,-0.5"/>
<text text-anchor="middle" x="328.5" y="-7.5" font-family="Helvetica,sans-Serif" font-size="10.00">TMCStepper::read</text>
</a>
</g>
</g>
<!-- Node2&#45;&gt;Node3 -->
<g id="edge2" class="edge"><title>Node2&#45;&gt;Node3</title>
<path fill="none" stroke="midnightblue" d="M245.164,-10C253.493,-10 262.13,-10 270.539,-10"/>
<polygon fill="midnightblue" stroke="midnightblue" points="270.648,-13.5001 280.648,-10 270.648,-6.5001 270.648,-13.5001"/>
</g>
</g>
</svg>
