<?xml version="1.0" encoding="UTF-8" standalone="no"?>
<!DOCTYPE svg PUBLIC "-//W3C//DTD SVG 1.1//EN"
 "http://www.w3.org/Graphics/SVG/1.1/DTD/svg11.dtd">
<!-- Generated by graphviz version 2.38.0 (20140413.2041)
 -->
<!-- Title: TMC2208Stepper::FACTORY_CONF Pages: 1 -->
<svg width="349pt" height="66pt"
 viewBox="0.00 0.00 349.00 66.00" xmlns="http://www.w3.org/2000/svg" xmlns:xlink="http://www.w3.org/1999/xlink">
<g id="graph0" class="graph" transform="scale(1 1) rotate(0) translate(4 62)">
<title>TMC2208Stepper::FACTORY_CONF</title>
<polygon fill="white" stroke="none" points="-4,4 -4,-62 345,-62 345,4 -4,4"/>
<!-- Node1 -->
<g id="node1" class="node"><title>Node1</title>
<g id="a_node1"><a xlink:title=" ">
<polygon fill="#bfbfbf" stroke="black" points="165,-19.5 165,-38.5 341,-38.5 341,-19.5 165,-19.5"/>
<text text-anchor="middle" x="253" y="-26.5" font-family="Helvetica,sans-Serif" font-size="10.00">TMC2208Stepper::FACTORY_CONF</text>
</a>
</g>
</g>
<!-- Node2 -->
<g id="node2" class="node"><title>Node2</title>
<g id="a_node2"><a xlink:href="class_t_m_c2208_stepper.html#a2576f25049dff1a3102da1ea5b4eb7fc" target="_top" xlink:title=" ">
<polygon fill="white" stroke="black" points="0,-38.5 0,-57.5 129,-57.5 129,-38.5 0,-38.5"/>
<text text-anchor="middle" x="64.5" y="-45.5" font-family="Helvetica,sans-Serif" font-size="10.00">TMC2208Stepper::fclktrim</text>
</a>
</g>
</g>
<!-- Node1&#45;&gt;Node2 -->
<g id="edge1" class="edge"><title>Node1&#45;&gt;Node2</title>
<path fill="none" stroke="midnightblue" d="M154.584,-38.9244C145.922,-39.8069 137.308,-40.6844 129.042,-41.5265"/>
<polygon fill="midnightblue" stroke="midnightblue" points="155.163,-42.3837 164.757,-37.8881 154.453,-35.4197 155.163,-42.3837"/>
</g>
<!-- Node3 -->
<g id="node3" class="node"><title>Node3</title>
<g id="a_node3"><a xlink:href="class_t_m_c2208_stepper.html#a1d354657666fa70cd13004cb70bc9fcf" target="_top" xlink:title=" ">
<polygon fill="white" stroke="black" points="3.5,-0.5 3.5,-19.5 125.5,-19.5 125.5,-0.5 3.5,-0.5"/>
<text text-anchor="middle" x="64.5" y="-7.5" font-family="Helvetica,sans-Serif" font-size="10.00">TMC2208Stepper::ottrim</text>
</a>
</g>
</g>
<!-- Node1&#45;&gt;Node3 -->
<g id="edge2" class="edge"><title>Node1&#45;&gt;Node3</title>
<path fill="none" stroke="midnightblue" d="M154.789,-19.0964C144.824,-18.0813 134.92,-17.0723 125.532,-16.1159"/>
<polygon fill="midnightblue" stroke="midnightblue" points="154.453,-22.5803 164.757,-20.1119 155.163,-15.6163 154.453,-22.5803"/>
</g>
</g>
</svg>
