<?xml version="1.0" encoding="UTF-8" standalone="no"?>
<!DOCTYPE svg PUBLIC "-//W3C//DTD SVG 1.1//EN"
 "http://www.w3.org/Graphics/SVG/1.1/DTD/svg11.dtd">
<!-- Generated by graphviz version 2.38.0 (20140413.2041)
 -->
<!-- Title: TMC2208Stepper::FACTORY_CONF Pages: 1 -->
<svg width="510pt" height="116pt"
 viewBox="0.00 0.00 510.00 115.50" xmlns="http://www.w3.org/2000/svg" xmlns:xlink="http://www.w3.org/1999/xlink">
<g id="graph0" class="graph" transform="scale(1 1) rotate(0) translate(4 111.5)">
<title>TMC2208Stepper::FACTORY_CONF</title>
<polygon fill="white" stroke="none" points="-4,4 -4,-111.5 506,-111.5 506,4 -4,4"/>
<!-- Node1 -->
<g id="node1" class="node"><title>Node1</title>
<g id="a_node1"><a xlink:title=" ">
<polygon fill="#bfbfbf" stroke="black" points="0,-50 0,-69 176,-69 176,-50 0,-50"/>
<text text-anchor="middle" x="88" y="-57" font-family="Helvetica,sans-Serif" font-size="10.00">TMC2208Stepper::FACTORY_CONF</text>
</a>
</g>
</g>
<!-- Node2 -->
<g id="node2" class="node"><title>Node2</title>
<g id="a_node2"><a xlink:href="class_t_m_c2208_stepper.html#a142b14de8a4dcc6cf76b4a6ede9e1cea" target="_top" xlink:title=" ">
<polygon fill="white" stroke="black" points="212,-50 212,-69 330,-69 330,-50 212,-50"/>
<text text-anchor="middle" x="271" y="-57" font-family="Helvetica,sans-Serif" font-size="10.00">TMC2208Stepper::write</text>
</a>
</g>
</g>
<!-- Node1&#45;&gt;Node2 -->
<g id="edge1" class="edge"><title>Node1&#45;&gt;Node2</title>
<path fill="none" stroke="midnightblue" d="M176.054,-59.5C184.682,-59.5 193.351,-59.5 201.748,-59.5"/>
<polygon fill="midnightblue" stroke="midnightblue" points="201.835,-63.0001 211.835,-59.5 201.835,-56.0001 201.835,-63.0001"/>
</g>
<!-- Node3 -->
<g id="node3" class="node"><title>Node3</title>
<g id="a_node3"><a xlink:href="class_s_switch.html#a6ff09d0850d551571dc333fb74ff8628" target="_top" xlink:title=" ">
<polygon fill="white" stroke="black" points="392.5,-88 392.5,-107 475.5,-107 475.5,-88 392.5,-88"/>
<text text-anchor="middle" x="434" y="-95" font-family="Helvetica,sans-Serif" font-size="10.00">SSwitch::active</text>
</a>
</g>
</g>
<!-- Node2&#45;&gt;Node3 -->
<g id="edge2" class="edge"><title>Node2&#45;&gt;Node3</title>
<path fill="none" stroke="midnightblue" d="M312.627,-69.089C333.968,-74.1261 360.312,-80.3438 382.908,-85.6771"/>
<polygon fill="midnightblue" stroke="midnightblue" points="382.128,-89.0891 392.665,-87.9799 383.736,-82.2763 382.128,-89.0891"/>
</g>
<!-- Node4 -->
<g id="node4" class="node"><title>Node4</title>
<g id="a_node4"><a xlink:href="class_t_m_c2208_stepper.html#a409c19fa6b052a370a317d061bf9af4e" target="_top" xlink:title=" ">
<polygon fill="white" stroke="black" points="366,-50 366,-69 502,-69 502,-50 366,-50"/>
<text text-anchor="middle" x="434" y="-57" font-family="Helvetica,sans-Serif" font-size="10.00">TMC2208Stepper::calcCRC</text>
</a>
</g>
</g>
<!-- Node2&#45;&gt;Node4 -->
<g id="edge3" class="edge"><title>Node2&#45;&gt;Node4</title>
<path fill="none" stroke="midnightblue" d="M330.125,-59.5C338.476,-59.5 347.176,-59.5 355.825,-59.5"/>
<polygon fill="midnightblue" stroke="midnightblue" points="355.931,-63.0001 365.931,-59.5 355.931,-56.0001 355.931,-63.0001"/>
</g>
<!-- Node5 -->
<g id="node5" class="node"><title>Node5</title>
<g id="a_node5"><a xlink:href="class_t_m_c2208_stepper.html#a7dd83313385079099b0622957786a979" target="_top" xlink:title=" ">
<polygon fill="white" stroke="black" points="373.5,-0.5 373.5,-30.5 494.5,-30.5 494.5,-0.5 373.5,-0.5"/>
<text text-anchor="start" x="381.5" y="-18.5" font-family="Helvetica,sans-Serif" font-size="10.00">TMC2208Stepper::serial</text>
<text text-anchor="middle" x="434" y="-7.5" font-family="Helvetica,sans-Serif" font-size="10.00">_write</text>
</a>
</g>
</g>
<!-- Node2&#45;&gt;Node5 -->
<g id="edge4" class="edge"><title>Node2&#45;&gt;Node5</title>
<path fill="none" stroke="midnightblue" d="M306.935,-49.9527C324.819,-45.0651 347.176,-38.9549 368.077,-33.2429"/>
<polygon fill="midnightblue" stroke="midnightblue" points="369.151,-36.5779 377.874,-30.5654 367.305,-29.8255 369.151,-36.5779"/>
</g>
</g>
</svg>
