<?xml version="1.0" encoding="UTF-8" standalone="no"?>
<!DOCTYPE svg PUBLIC "-//W3C//DTD SVG 1.1//EN"
 "http://www.w3.org/Graphics/SVG/1.1/DTD/svg11.dtd">
<!-- Generated by graphviz version 2.38.0 (20140413.2041)
 -->
<!-- Title: TMC2130Stepper::write Pages: 1 -->
<svg width="467pt" height="104pt"
 viewBox="0.00 0.00 467.00 104.00" xmlns="http://www.w3.org/2000/svg" xmlns:xlink="http://www.w3.org/1999/xlink">
<g id="graph0" class="graph" transform="scale(1 1) rotate(0) translate(4 100)">
<title>TMC2130Stepper::write</title>
<polygon fill="white" stroke="none" points="-4,4 -4,-100 463,-100 463,4 -4,4"/>
<!-- Node1 -->
<g id="node1" class="node"><title>Node1</title>
<g id="a_node1"><a xlink:title=" ">
<polygon fill="#bfbfbf" stroke="black" points="0,-38.5 0,-57.5 118,-57.5 118,-38.5 0,-38.5"/>
<text text-anchor="middle" x="59" y="-45.5" font-family="Helvetica,sans-Serif" font-size="10.00">TMC2130Stepper::write</text>
</a>
</g>
</g>
<!-- Node2 -->
<g id="node2" class="node"><title>Node2</title>
<g id="a_node2"><a xlink:href="class_t_m_c2130_stepper.html#aed8aa4583943e649dbf3bb1c1da90d63" target="_top" xlink:title=" ">
<polygon fill="white" stroke="black" points="154,-76.5 154,-95.5 306,-95.5 306,-76.5 154,-76.5"/>
<text text-anchor="middle" x="230" y="-83.5" font-family="Helvetica,sans-Serif" font-size="10.00">TMC2130Stepper::switchCSpin</text>
</a>
</g>
</g>
<!-- Node1&#45;&gt;Node2 -->
<g id="edge1" class="edge"><title>Node1&#45;&gt;Node2</title>
<path fill="none" stroke="midnightblue" d="M102.646,-57.589C125.148,-62.6487 152.948,-68.8996 176.738,-74.2488"/>
<polygon fill="midnightblue" stroke="midnightblue" points="176.137,-77.7009 186.661,-76.4799 177.672,-70.8714 176.137,-77.7009"/>
</g>
<!-- Node3 -->
<g id="node3" class="node"><title>Node3</title>
<g id="a_node3"><a xlink:href="class_s_w___s_p_i_class.html#af260fdc0af3f1312b106483161e559c3" target="_top" xlink:title=" ">
<polygon fill="white" stroke="black" points="342,-19.5 342,-38.5 459,-38.5 459,-19.5 342,-19.5"/>
<text text-anchor="middle" x="400.5" y="-26.5" font-family="Helvetica,sans-Serif" font-size="10.00">SW_SPIClass::transfer</text>
</a>
</g>
</g>
<!-- Node1&#45;&gt;Node3 -->
<g id="edge2" class="edge"><title>Node1&#45;&gt;Node3</title>
<path fill="none" stroke="midnightblue" d="M118.362,-44.7338C177.626,-41.4171 269.321,-36.2854 331.755,-32.7913"/>
<polygon fill="midnightblue" stroke="midnightblue" points="332.111,-36.277 341.899,-32.2236 331.719,-29.2879 332.111,-36.277"/>
</g>
<!-- Node4 -->
<g id="node4" class="node"><title>Node4</title>
<g id="a_node4"><a xlink:href="class_s_w___s_p_i_class.html#a1b7600aa1d9571c103718c5d3e376675" target="_top" xlink:title=" ">
<polygon fill="white" stroke="black" points="166,-0.5 166,-19.5 294,-19.5 294,-0.5 166,-0.5"/>
<text text-anchor="middle" x="230" y="-7.5" font-family="Helvetica,sans-Serif" font-size="10.00">SW_SPIClass::transfer16</text>
</a>
</g>
</g>
<!-- Node1&#45;&gt;Node4 -->
<g id="edge3" class="edge"><title>Node1&#45;&gt;Node4</title>
<path fill="none" stroke="midnightblue" d="M102.646,-38.411C125.148,-33.3513 152.948,-27.1004 176.738,-21.7512"/>
<polygon fill="midnightblue" stroke="midnightblue" points="177.672,-25.1286 186.661,-19.5201 176.137,-18.2991 177.672,-25.1286"/>
</g>
<!-- Node4&#45;&gt;Node3 -->
<g id="edge4" class="edge"><title>Node4&#45;&gt;Node3</title>
<path fill="none" stroke="midnightblue" d="M294.223,-17.129C306.406,-18.5028 319.217,-19.9473 331.543,-21.3372"/>
<polygon fill="midnightblue" stroke="midnightblue" points="331.43,-24.8466 341.76,-22.4892 332.215,-17.8907 331.43,-24.8466"/>
</g>
</g>
</svg>
