<?xml version="1.0" encoding="UTF-8" standalone="no"?>
<!DOCTYPE svg PUBLIC "-//W3C//DTD SVG 1.1//EN"
 "http://www.w3.org/Graphics/SVG/1.1/DTD/svg11.dtd">
<!-- Generated by graphviz version 2.38.0 (20140413.2041)
 -->
<!-- Title: TMCStepper::rms_current Pages: 1 -->
<svg width="424pt" height="66pt"
 viewBox="0.00 0.00 424.00 66.00" xmlns="http://www.w3.org/2000/svg" xmlns:xlink="http://www.w3.org/1999/xlink">
<g id="graph0" class="graph" transform="scale(1 1) rotate(0) translate(4 62)">
<title>TMCStepper::rms_current</title>
<polygon fill="white" stroke="none" points="-4,4 -4,-62 420,-62 420,4 -4,4"/>
<!-- Node1 -->
<g id="node1" class="node"><title>Node1</title>
<g id="a_node1"><a xlink:title=" ">
<polygon fill="#bfbfbf" stroke="black" points="0,-19.5 0,-38.5 128,-38.5 128,-19.5 0,-19.5"/>
<text text-anchor="middle" x="64" y="-26.5" font-family="Helvetica,sans-Serif" font-size="10.00">TMCStepper::rms_current</text>
</a>
</g>
</g>
<!-- Node2 -->
<g id="node2" class="node"><title>Node2</title>
<g id="a_node2"><a xlink:href="class_t_m_c_stepper.html#ae6829e76ae67523a4cb60553dd70fece" target="_top" xlink:title=" ">
<polygon fill="white" stroke="black" points="164,-38.5 164,-57.5 273,-57.5 273,-38.5 164,-38.5"/>
<text text-anchor="middle" x="218.5" y="-45.5" font-family="Helvetica,sans-Serif" font-size="10.00">TMCStepper::cs2rms</text>
</a>
</g>
</g>
<!-- Node1&#45;&gt;Node2 -->
<g id="edge1" class="edge"><title>Node1&#45;&gt;Node2</title>
<path fill="none" stroke="midnightblue" d="M128.349,-36.8926C136.727,-37.9364 145.318,-39.0069 153.704,-40.0516"/>
<polygon fill="midnightblue" stroke="midnightblue" points="153.445,-43.5464 163.801,-41.3097 154.311,-36.6001 153.445,-43.5464"/>
</g>
<!-- Node4 -->
<g id="node4" class="node"><title>Node4</title>
<g id="a_node4"><a xlink:href="class_t_m_c_stepper.html#a89f965f7d005e189ef27951f37e699f2" target="_top" xlink:title=" ">
<polygon fill="white" stroke="black" points="172.5,-0.5 172.5,-19.5 264.5,-19.5 264.5,-0.5 172.5,-0.5"/>
<text text-anchor="middle" x="218.5" y="-7.5" font-family="Helvetica,sans-Serif" font-size="10.00">TMCStepper::irun</text>
</a>
</g>
</g>
<!-- Node1&#45;&gt;Node4 -->
<g id="edge3" class="edge"><title>Node1&#45;&gt;Node4</title>
<path fill="none" stroke="midnightblue" d="M128.349,-21.1074C139.512,-19.7166 151.054,-18.2785 161.982,-16.917"/>
<polygon fill="midnightblue" stroke="midnightblue" points="162.748,-20.3487 172.238,-15.6392 161.882,-13.4024 162.748,-20.3487"/>
</g>
<!-- Node3 -->
<g id="node3" class="node"><title>Node3</title>
<g id="a_node3"><a xlink:href="class_t_m_c_stepper.html#ab4366bc26a0f6a4bb1c6c33da5919238" target="_top" xlink:title=" ">
<polygon fill="white" stroke="black" points="309,-38.5 309,-57.5 416,-57.5 416,-38.5 309,-38.5"/>
<text text-anchor="middle" x="362.5" y="-45.5" font-family="Helvetica,sans-Serif" font-size="10.00">TMCStepper::vsense</text>
</a>
</g>
</g>
<!-- Node2&#45;&gt;Node3 -->
<g id="edge2" class="edge"><title>Node2&#45;&gt;Node3</title>
<path fill="none" stroke="midnightblue" d="M273.184,-48C281.448,-48 290.045,-48 298.489,-48"/>
<polygon fill="midnightblue" stroke="midnightblue" points="298.681,-51.5001 308.681,-48 298.681,-44.5001 298.681,-51.5001"/>
</g>
</g>
</svg>
