<?xml version="1.0" encoding="UTF-8" standalone="no"?>
<!DOCTYPE svg PUBLIC "-//W3C//DTD SVG 1.1//EN"
 "http://www.w3.org/Graphics/SVG/1.1/DTD/svg11.dtd">
<!-- Generated by graphviz version 2.38.0 (20140413.2041)
 -->
<!-- Title: TMCStepper::TPWMTHRS Pages: 1 -->
<svg width="295pt" height="218pt"
 viewBox="0.00 0.00 295.00 218.00" xmlns="http://www.w3.org/2000/svg" xmlns:xlink="http://www.w3.org/1999/xlink">
<g id="graph0" class="graph" transform="scale(1 1) rotate(0) translate(4 214)">
<title>TMCStepper::TPWMTHRS</title>
<polygon fill="white" stroke="none" points="-4,4 -4,-214 291,-214 291,4 -4,4"/>
<!-- Node1 -->
<g id="node1" class="node"><title>Node1</title>
<g id="a_node1"><a xlink:title=" ">
<polygon fill="#bfbfbf" stroke="black" points="155,-95.5 155,-114.5 287,-114.5 287,-95.5 155,-95.5"/>
<text text-anchor="middle" x="221" y="-102.5" font-family="Helvetica,sans-Serif" font-size="10.00">TMCStepper::TPWMTHRS</text>
</a>
</g>
</g>
<!-- Node2 -->
<g id="node2" class="node"><title>Node2</title>
<g id="a_node2"><a xlink:href="class_t_m_c2130_stepper.html#ac62d32ad08be0a34b411bdd5a8489246" target="_top" xlink:title=" ">
<polygon fill="white" stroke="black" points="0,-190.5 0,-209.5 119,-209.5 119,-190.5 0,-190.5"/>
<text text-anchor="middle" x="59.5" y="-197.5" font-family="Helvetica,sans-Serif" font-size="10.00">TMC2130Stepper::push</text>
</a>
</g>
</g>
<!-- Node1&#45;&gt;Node2 -->
<g id="edge1" class="edge"><title>Node1&#45;&gt;Node2</title>
<path fill="none" stroke="midnightblue" d="M201.914,-121.574C182.617,-138.513 150.544,-164.595 119,-181 111.895,-184.695 103.931,-187.856 96.2229,-190.478"/>
<polygon fill="midnightblue" stroke="midnightblue" points="204.468,-123.985 209.598,-114.715 199.806,-118.763 204.468,-123.985"/>
</g>
<!-- Node3 -->
<g id="node3" class="node"><title>Node3</title>
<g id="a_node3"><a xlink:href="class_t_m_c2160_stepper.html#ae8035a0cb8151d5227d8528e540e637d" target="_top" xlink:title=" ">
<polygon fill="white" stroke="black" points="0,-152.5 0,-171.5 119,-171.5 119,-152.5 0,-152.5"/>
<text text-anchor="middle" x="59.5" y="-159.5" font-family="Helvetica,sans-Serif" font-size="10.00">TMC2160Stepper::push</text>
</a>
</g>
</g>
<!-- Node1&#45;&gt;Node3 -->
<g id="edge2" class="edge"><title>Node1&#45;&gt;Node3</title>
<path fill="none" stroke="midnightblue" d="M186.228,-118.148C166.671,-125.651 141.537,-135.105 119,-143 109.829,-146.213 99.7861,-149.542 90.6499,-152.499"/>
<polygon fill="midnightblue" stroke="midnightblue" points="187.55,-121.39 195.624,-114.529 185.034,-114.858 187.55,-121.39"/>
</g>
<!-- Node4 -->
<g id="node4" class="node"><title>Node4</title>
<g id="a_node4"><a xlink:href="class_t_m_c5130_stepper.html#a55e61f5181d74f26c9d35c54e4436d7a" target="_top" xlink:title=" ">
<polygon fill="white" stroke="black" points="0,-114.5 0,-133.5 119,-133.5 119,-114.5 0,-114.5"/>
<text text-anchor="middle" x="59.5" y="-121.5" font-family="Helvetica,sans-Serif" font-size="10.00">TMC5130Stepper::push</text>
</a>
</g>
</g>
<!-- Node1&#45;&gt;Node4 -->
<g id="edge3" class="edge"><title>Node1&#45;&gt;Node4</title>
<path fill="none" stroke="midnightblue" d="M144.641,-113.977C136.055,-115 127.401,-116.031 119.079,-117.022"/>
<polygon fill="midnightblue" stroke="midnightblue" points="145.149,-117.441 154.665,-112.783 144.321,-110.49 145.149,-117.441"/>
</g>
<!-- Node5 -->
<g id="node5" class="node"><title>Node5</title>
<g id="a_node5"><a xlink:href="class_t_m_c5160_stepper.html#a5a12974304588f9d01898d91ba854b87" target="_top" xlink:title=" ">
<polygon fill="white" stroke="black" points="0,-76.5 0,-95.5 119,-95.5 119,-76.5 0,-76.5"/>
<text text-anchor="middle" x="59.5" y="-83.5" font-family="Helvetica,sans-Serif" font-size="10.00">TMC5160Stepper::push</text>
</a>
</g>
</g>
<!-- Node1&#45;&gt;Node5 -->
<g id="edge4" class="edge"><title>Node1&#45;&gt;Node5</title>
<path fill="none" stroke="midnightblue" d="M144.641,-96.0231C136.055,-95.0003 127.401,-93.9694 119.079,-92.9781"/>
<polygon fill="midnightblue" stroke="midnightblue" points="144.321,-99.5096 154.665,-97.2172 145.149,-92.5588 144.321,-99.5096"/>
</g>
<!-- Node6 -->
<g id="node6" class="node"><title>Node6</title>
<g id="a_node6"><a xlink:href="class_t_m_c2208_stepper.html#a8eb0d71fbfeeb24c9092328c44fab7e5" target="_top" xlink:title=" ">
<polygon fill="white" stroke="black" points="0,-38.5 0,-57.5 119,-57.5 119,-38.5 0,-38.5"/>
<text text-anchor="middle" x="59.5" y="-45.5" font-family="Helvetica,sans-Serif" font-size="10.00">TMC2208Stepper::push</text>
</a>
</g>
</g>
<!-- Node1&#45;&gt;Node6 -->
<g id="edge5" class="edge"><title>Node1&#45;&gt;Node6</title>
<path fill="none" stroke="midnightblue" d="M186.228,-91.8517C166.671,-84.3487 141.537,-74.895 119,-67 109.829,-63.7873 99.7861,-60.4579 90.6499,-57.5006"/>
<polygon fill="midnightblue" stroke="midnightblue" points="185.034,-95.1423 195.624,-95.4706 187.55,-88.6101 185.034,-95.1423"/>
</g>
<!-- Node7 -->
<g id="node7" class="node"><title>Node7</title>
<g id="a_node7"><a xlink:href="class_t_m_c2209_stepper.html#a180f4b9a78e526592d946ec12f71982e" target="_top" xlink:title=" ">
<polygon fill="white" stroke="black" points="0,-0.5 0,-19.5 119,-19.5 119,-0.5 0,-0.5"/>
<text text-anchor="middle" x="59.5" y="-7.5" font-family="Helvetica,sans-Serif" font-size="10.00">TMC2209Stepper::push</text>
</a>
</g>
</g>
<!-- Node1&#45;&gt;Node7 -->
<g id="edge6" class="edge"><title>Node1&#45;&gt;Node7</title>
<path fill="none" stroke="midnightblue" d="M201.914,-88.4263C182.617,-71.4874 150.544,-45.4048 119,-29 111.895,-25.3048 103.931,-22.144 96.2229,-19.5216"/>
<polygon fill="midnightblue" stroke="midnightblue" points="199.806,-91.237 209.598,-95.2846 204.468,-86.0146 199.806,-91.237"/>
</g>
</g>
</svg>
