<?xml version="1.0" encoding="UTF-8" standalone="no"?>
<!DOCTYPE svg PUBLIC "-//W3C//DTD SVG 1.1//EN"
 "http://www.w3.org/Graphics/SVG/1.1/DTD/svg11.dtd">
<!-- Generated by graphviz version 2.38.0 (20140413.2041)
 -->
<!-- Title: TMC2130Stepper::diss2g Pages: 1 -->
<svg width="977pt" height="104pt"
 viewBox="0.00 0.00 977.00 104.00" xmlns="http://www.w3.org/2000/svg" xmlns:xlink="http://www.w3.org/1999/xlink">
<g id="graph0" class="graph" transform="scale(1 1) rotate(0) translate(4 100)">
<title>TMC2130Stepper::diss2g</title>
<polygon fill="white" stroke="none" points="-4,4 -4,-100 973,-100 973,4 -4,4"/>
<!-- Node1 -->
<g id="node1" class="node"><title>Node1</title>
<g id="a_node1"><a xlink:title=" ">
<polygon fill="#bfbfbf" stroke="black" points="0,-38.5 0,-57.5 126,-57.5 126,-38.5 0,-38.5"/>
<text text-anchor="middle" x="63" y="-45.5" font-family="Helvetica,sans-Serif" font-size="10.00">TMC2130Stepper::diss2g</text>
</a>
</g>
</g>
<!-- Node2 -->
<g id="node2" class="node"><title>Node2</title>
<g id="a_node2"><a xlink:href="class_t_m_c2130_stepper.html#a5929db451598d6a16f8e82b37fbf738f" target="_top" xlink:title=" ">
<polygon fill="white" stroke="black" points="162,-38.5 162,-57.5 288,-57.5 288,-38.5 162,-38.5"/>
<text text-anchor="middle" x="225" y="-45.5" font-family="Helvetica,sans-Serif" font-size="10.00">TMC2130Stepper::diss2g</text>
</a>
</g>
</g>
<!-- Node1&#45;&gt;Node2 -->
<g id="edge1" class="edge"><title>Node1&#45;&gt;Node2</title>
<path fill="none" stroke="midnightblue" d="M126.318,-48C134.615,-48 143.179,-48 151.628,-48"/>
<polygon fill="midnightblue" stroke="midnightblue" points="151.852,-51.5001 161.852,-48 151.852,-44.5001 151.852,-51.5001"/>
</g>
<!-- Node3 -->
<g id="node3" class="node"><title>Node3</title>
<g id="a_node3"><a xlink:href="class_t_m_c2130_stepper.html#a67541b27d97ce45f175e9f6e4a2d0bff" target="_top" xlink:title=" ">
<polygon fill="white" stroke="black" points="324,-38.5 324,-57.5 476,-57.5 476,-38.5 324,-38.5"/>
<text text-anchor="middle" x="400" y="-45.5" font-family="Helvetica,sans-Serif" font-size="10.00">TMC2130Stepper::CHOPCONF</text>
</a>
</g>
</g>
<!-- Node2&#45;&gt;Node3 -->
<g id="edge2" class="edge"><title>Node2&#45;&gt;Node3</title>
<path fill="none" stroke="midnightblue" d="M288.457,-48C296.735,-48 305.332,-48 313.911,-48"/>
<polygon fill="midnightblue" stroke="midnightblue" points="313.953,-51.5001 323.953,-48 313.953,-44.5001 313.953,-51.5001"/>
</g>
<!-- Node4 -->
<g id="node4" class="node"><title>Node4</title>
<g id="a_node4"><a xlink:href="class_t_m_c2130_stepper.html#aed0175bff6e80ebc14e0d2606283cbe0" target="_top" xlink:title=" ">
<polygon fill="white" stroke="black" points="512,-38.5 512,-57.5 628,-57.5 628,-38.5 512,-38.5"/>
<text text-anchor="middle" x="570" y="-45.5" font-family="Helvetica,sans-Serif" font-size="10.00">TMC2130Stepper::read</text>
</a>
</g>
</g>
<!-- Node3&#45;&gt;Node4 -->
<g id="edge3" class="edge"><title>Node3&#45;&gt;Node4</title>
<path fill="none" stroke="midnightblue" d="M476.155,-48C484.664,-48 493.296,-48 501.696,-48"/>
<polygon fill="midnightblue" stroke="midnightblue" points="501.802,-51.5001 511.802,-48 501.802,-44.5001 501.802,-51.5001"/>
</g>
<!-- Node5 -->
<g id="node5" class="node"><title>Node5</title>
<g id="a_node5"><a xlink:href="class_t_m_c2130_stepper.html#aed8aa4583943e649dbf3bb1c1da90d63" target="_top" xlink:title=" ">
<polygon fill="white" stroke="black" points="664,-76.5 664,-95.5 816,-95.5 816,-76.5 664,-76.5"/>
<text text-anchor="middle" x="740" y="-83.5" font-family="Helvetica,sans-Serif" font-size="10.00">TMC2130Stepper::switchCSpin</text>
</a>
</g>
</g>
<!-- Node4&#45;&gt;Node5 -->
<g id="edge4" class="edge"><title>Node4&#45;&gt;Node5</title>
<path fill="none" stroke="midnightblue" d="M613.393,-57.589C635.763,-62.6487 663.398,-68.8996 687.047,-74.2488"/>
<polygon fill="midnightblue" stroke="midnightblue" points="686.386,-77.6875 696.911,-76.4799 687.93,-70.8599 686.386,-77.6875"/>
</g>
<!-- Node6 -->
<g id="node6" class="node"><title>Node6</title>
<g id="a_node6"><a xlink:href="class_s_w___s_p_i_class.html#af260fdc0af3f1312b106483161e559c3" target="_top" xlink:title=" ">
<polygon fill="white" stroke="black" points="852,-19.5 852,-38.5 969,-38.5 969,-19.5 852,-19.5"/>
<text text-anchor="middle" x="910.5" y="-26.5" font-family="Helvetica,sans-Serif" font-size="10.00">SW_SPIClass::transfer</text>
</a>
</g>
</g>
<!-- Node4&#45;&gt;Node6 -->
<g id="edge5" class="edge"><title>Node4&#45;&gt;Node6</title>
<path fill="none" stroke="midnightblue" d="M628.039,-44.7984C687.027,-41.4874 779.113,-36.3186 841.765,-32.802"/>
<polygon fill="midnightblue" stroke="midnightblue" points="842.156,-36.2856 851.944,-32.2306 841.763,-29.2966 842.156,-36.2856"/>
</g>
<!-- Node7 -->
<g id="node7" class="node"><title>Node7</title>
<g id="a_node7"><a xlink:href="class_s_w___s_p_i_class.html#a1b7600aa1d9571c103718c5d3e376675" target="_top" xlink:title=" ">
<polygon fill="white" stroke="black" points="676,-0.5 676,-19.5 804,-19.5 804,-0.5 676,-0.5"/>
<text text-anchor="middle" x="740" y="-7.5" font-family="Helvetica,sans-Serif" font-size="10.00">SW_SPIClass::transfer16</text>
</a>
</g>
</g>
<!-- Node4&#45;&gt;Node7 -->
<g id="edge6" class="edge"><title>Node4&#45;&gt;Node7</title>
<path fill="none" stroke="midnightblue" d="M613.393,-38.411C635.763,-33.3513 663.398,-27.1004 687.047,-21.7512"/>
<polygon fill="midnightblue" stroke="midnightblue" points="687.93,-25.1401 696.911,-19.5201 686.386,-18.3125 687.93,-25.1401"/>
</g>
<!-- Node7&#45;&gt;Node6 -->
<g id="edge7" class="edge"><title>Node7&#45;&gt;Node6</title>
<path fill="none" stroke="midnightblue" d="M804.223,-17.129C816.406,-18.5028 829.217,-19.9473 841.543,-21.3372"/>
<polygon fill="midnightblue" stroke="midnightblue" points="841.43,-24.8466 851.76,-22.4892 842.215,-17.8907 841.43,-24.8466"/>
</g>
</g>
</svg>
