<?xml version="1.0" encoding="UTF-8" standalone="no"?>
<!DOCTYPE svg PUBLIC "-//W3C//DTD SVG 1.1//EN"
 "http://www.w3.org/Graphics/SVG/1.1/DTD/svg11.dtd">
<!-- Generated by graphviz version 2.38.0 (20140413.2041)
 -->
<!-- Title: TMC2208Stepper::GCONF Pages: 1 -->
<svg width="827pt" height="156pt"
 viewBox="0.00 0.00 827.00 156.41" xmlns="http://www.w3.org/2000/svg" xmlns:xlink="http://www.w3.org/1999/xlink">
<g id="graph0" class="graph" transform="scale(1 1) rotate(0) translate(4 152.405)">
<title>TMC2208Stepper::GCONF</title>
<polygon fill="white" stroke="none" points="-4,4 -4,-152.405 823,-152.405 823,4 -4,4"/>
<!-- Node1 -->
<g id="node1" class="node"><title>Node1</title>
<g id="a_node1"><a xlink:title=" ">
<polygon fill="#bfbfbf" stroke="black" points="0,-46.9052 0,-65.9052 132,-65.9052 132,-46.9052 0,-46.9052"/>
<text text-anchor="middle" x="66" y="-53.9052" font-family="Helvetica,sans-Serif" font-size="10.00">TMC2208Stepper::GCONF</text>
</a>
</g>
</g>
<!-- Node2 -->
<g id="node2" class="node"><title>Node2</title>
<g id="a_node2"><a xlink:href="class_t_m_c2208_stepper.html#a2fae2050849c3ab7968012def8ea1cc5" target="_top" xlink:title=" ">
<polygon fill="white" stroke="black" points="168,-46.9052 168,-65.9052 284,-65.9052 284,-46.9052 168,-46.9052"/>
<text text-anchor="middle" x="226" y="-53.9052" font-family="Helvetica,sans-Serif" font-size="10.00">TMC2208Stepper::read</text>
</a>
</g>
</g>
<!-- Node1&#45;&gt;Node2 -->
<g id="edge1" class="edge"><title>Node1&#45;&gt;Node2</title>
<path fill="none" stroke="midnightblue" d="M132.177,-56.4052C140.517,-56.4052 149.069,-56.4052 157.445,-56.4052"/>
<polygon fill="midnightblue" stroke="midnightblue" points="157.55,-59.9053 167.55,-56.4052 157.55,-52.9053 157.55,-59.9053"/>
</g>
<!-- Node3 -->
<g id="node3" class="node"><title>Node3</title>
<g id="a_node3"><a xlink:href="class_t_m_c2208_stepper.html#a3e1f6a10aa1e3e41dc2594dbe1ea8a1d" target="_top" xlink:title=" ">
<polygon fill="white" stroke="black" points="320,-103.905 320,-122.905 486,-122.905 486,-103.905 320,-103.905"/>
<text text-anchor="middle" x="403" y="-110.905" font-family="Helvetica,sans-Serif" font-size="10.00">TMC2208Stepper::_sendDatagram</text>
</a>
</g>
</g>
<!-- Node2&#45;&gt;Node3 -->
<g id="edge2" class="edge"><title>Node2&#45;&gt;Node3</title>
<path fill="none" stroke="midnightblue" d="M247.7,-65.9833C266.317,-74.3262 294.568,-86.3205 320,-94.4052 328.008,-96.9508 336.555,-99.3114 344.996,-101.442"/>
<polygon fill="midnightblue" stroke="midnightblue" points="344.272,-104.868 354.816,-103.834 345.929,-98.0666 344.272,-104.868"/>
</g>
<!-- Node8 -->
<g id="node8" class="node"><title>Node8</title>
<g id="a_node8"><a xlink:href="class_s_switch.html#a6ff09d0850d551571dc333fb74ff8628" target="_top" xlink:title=" ">
<polygon fill="white" stroke="black" points="361.5,-65.9052 361.5,-84.9052 444.5,-84.9052 444.5,-65.9052 361.5,-65.9052"/>
<text text-anchor="middle" x="403" y="-72.9052" font-family="Helvetica,sans-Serif" font-size="10.00">SSwitch::active</text>
</a>
</g>
</g>
<!-- Node2&#45;&gt;Node8 -->
<g id="edge8" class="edge"><title>Node2&#45;&gt;Node8</title>
<path fill="none" stroke="midnightblue" d="M284.302,-62.6265C305.975,-64.9796 330.465,-67.6385 351.472,-69.9193"/>
<polygon fill="midnightblue" stroke="midnightblue" points="351.158,-73.4056 361.477,-71.0055 351.913,-66.4465 351.158,-73.4056"/>
</g>
<!-- Node9 -->
<g id="node9" class="node"><title>Node9</title>
<g id="a_node9"><a xlink:href="class_t_m_c2208_stepper.html#a409c19fa6b052a370a317d061bf9af4e" target="_top" xlink:title=" ">
<polygon fill="white" stroke="black" points="335,-27.9052 335,-46.9052 471,-46.9052 471,-27.9052 335,-27.9052"/>
<text text-anchor="middle" x="403" y="-34.9052" font-family="Helvetica,sans-Serif" font-size="10.00">TMC2208Stepper::calcCRC</text>
</a>
</g>
</g>
<!-- Node2&#45;&gt;Node9 -->
<g id="edge9" class="edge"><title>Node2&#45;&gt;Node9</title>
<path fill="none" stroke="midnightblue" d="M284.302,-50.1839C297.17,-48.7867 311.032,-47.2817 324.567,-45.8121"/>
<polygon fill="midnightblue" stroke="midnightblue" points="325.269,-49.2566 334.833,-44.6976 324.514,-42.2975 325.269,-49.2566"/>
</g>
<!-- Node4 -->
<g id="node4" class="node"><title>Node4</title>
<g id="a_node4"><a xlink:href="class_t_m_c2208_stepper.html#a4ec5d2b2f5a31259c7aba1f3208d63b8" target="_top" xlink:title=" ">
<polygon fill="white" stroke="black" points="536.5,-128.905 536.5,-147.905 652.5,-147.905 652.5,-128.905 536.5,-128.905"/>
<text text-anchor="middle" x="594.5" y="-135.905" font-family="Helvetica,sans-Serif" font-size="10.00">TMC2208Stepper::ms2</text>
</a>
</g>
</g>
<!-- Node3&#45;&gt;Node4 -->
<g id="edge3" class="edge"><title>Node3&#45;&gt;Node4</title>
<path fill="none" stroke="midnightblue" d="M476.182,-122.928C492.64,-125.099 510.062,-127.397 526.301,-129.54"/>
<polygon fill="midnightblue" stroke="midnightblue" points="525.868,-133.013 536.24,-130.851 526.784,-126.073 525.868,-133.013"/>
</g>
<!-- Node6 -->
<g id="node6" class="node"><title>Node6</title>
<g id="a_node6"><a xlink:href="class_t_m_c2208_stepper.html#ae561da4ec7c40830e97bf4dc8cf700fb" target="_top" xlink:title=" ">
<polygon fill="white" stroke="black" points="522,-90.9052 522,-109.905 667,-109.905 667,-90.9052 522,-90.9052"/>
<text text-anchor="middle" x="594.5" y="-97.9052" font-family="Helvetica,sans-Serif" font-size="10.00">TMC2208Stepper::serial_read</text>
</a>
</g>
</g>
<!-- Node3&#45;&gt;Node6 -->
<g id="edge6" class="edge"><title>Node3&#45;&gt;Node6</title>
<path fill="none" stroke="midnightblue" d="M486.015,-107.779C494.478,-107.198 503.078,-106.608 511.54,-106.028"/>
<polygon fill="midnightblue" stroke="midnightblue" points="512.038,-109.502 521.775,-105.326 511.559,-102.518 512.038,-109.502"/>
</g>
<!-- Node7 -->
<g id="node7" class="node"><title>Node7</title>
<g id="a_node7"><a xlink:href="class_t_m_c2208_stepper.html#a7dd83313385079099b0622957786a979" target="_top" xlink:title=" ">
<polygon fill="white" stroke="black" points="534,-41.4052 534,-71.4052 655,-71.4052 655,-41.4052 534,-41.4052"/>
<text text-anchor="start" x="542" y="-59.4052" font-family="Helvetica,sans-Serif" font-size="10.00">TMC2208Stepper::serial</text>
<text text-anchor="middle" x="594.5" y="-48.4052" font-family="Helvetica,sans-Serif" font-size="10.00">_write</text>
</a>
</g>
</g>
<!-- Node3&#45;&gt;Node7 -->
<g id="edge7" class="edge"><title>Node3&#45;&gt;Node7</title>
<path fill="none" stroke="midnightblue" d="M449.793,-103.808C461.658,-101.045 474.367,-97.8399 486,-94.4052 502.315,-89.5878 505.971,-87.1015 522,-81.4052 528.017,-79.2668 534.325,-77.0401 540.595,-74.8355"/>
<polygon fill="midnightblue" stroke="midnightblue" points="542.095,-78.0185 550.372,-71.4052 539.778,-71.4133 542.095,-78.0185"/>
</g>
<!-- Node5 -->
<g id="node5" class="node"><title>Node5</title>
<g id="a_node5"><a xlink:href="class_t_m_c2208_stepper.html#a5441dd87d0bcea4ffc309cb012166a57" target="_top" xlink:title=" ">
<polygon fill="white" stroke="black" points="703,-58.9052 703,-77.9052 819,-77.9052 819,-58.9052 703,-58.9052"/>
<text text-anchor="middle" x="761" y="-65.9052" font-family="Helvetica,sans-Serif" font-size="10.00">TMC2208Stepper::IOIN</text>
</a>
</g>
</g>
<!-- Node4&#45;&gt;Node5 -->
<g id="edge4" class="edge"><title>Node4&#45;&gt;Node5</title>
<path fill="none" stroke="midnightblue" d="M638.395,-128.814C647.954,-126.18 657.937,-123.032 667,-119.405 691.717,-109.514 718.177,-94.529 736.529,-83.3584"/>
<polygon fill="midnightblue" stroke="midnightblue" points="738.423,-86.3019 745.088,-78.0661 734.742,-80.348 738.423,-86.3019"/>
</g>
<!-- Node5&#45;&gt;Node2 -->
<g id="edge5" class="edge"><title>Node5&#45;&gt;Node2</title>
<path fill="none" stroke="midnightblue" d="M740.963,-58.8176C722.546,-50.0326 693.593,-37.4965 667,-31.4052 516.566,3.05335 471.437,11.3399 320,-18.4052 296.751,-22.9717 271.989,-33.3919 253.866,-42.1675"/>
<polygon fill="midnightblue" stroke="midnightblue" points="251.917,-39.2285 244.532,-46.826 255.043,-45.4917 251.917,-39.2285"/>
</g>
</g>
</svg>
