<?xml version="1.0" encoding="UTF-8" standalone="no"?>
<!DOCTYPE svg PUBLIC "-//W3C//DTD SVG 1.1//EN"
 "http://www.w3.org/Graphics/SVG/1.1/DTD/svg11.dtd">
<!-- Generated by graphviz version 2.38.0 (20140413.2041)
 -->
<!-- Title: TMC2130Stepper::GCONF Pages: 1 -->
<!--zoomable 1137 -->
<svg id="main" version="1.1" xmlns="http://www.w3.org/2000/svg" xmlns:xlink="http://www.w3.org/1999/xlink" xml:space="preserve" onload="init(evt)">
<style type="text/css"><![CDATA[
.edge:hover path { stroke: red; }
.edge:hover polygon { stroke: red; fill: red; }
]]></style>
<script type="text/javascript"><![CDATA[
var edges = document.getElementsByTagName('g');
if (edges && edges.length) {
  for (var i=0;i<edges.length;i++) {
    if (edges[i].id.substr(0,4)=='edge') {
      edges[i].setAttribute('class','edge');
    }
  }
}
]]></script>
        <defs>
                <circle id="rim" cx="0" cy="0" r="7"/>
                <circle id="rim2" cx="0" cy="0" r="3.5"/>
                <g id="zoomPlus">
                        <use xlink:href="#rim" fill="#404040">
                                <set attributeName="fill" to="#808080" begin="zoomplus.mouseover" end="zoomplus.mouseout"/>
                        </use>
                        <path d="M-4,0h8M0,-4v8" fill="none" stroke="white" stroke-width="1.5" pointer-events="none"/>
                </g>
                <g id="zoomMin">
                        <use xlink:href="#rim" fill="#404040">
                                <set attributeName="fill" to="#808080" begin="zoomminus.mouseover" end="zoomminus.mouseout"/>
                        </use>
                        <path d="M-4,0h8" fill="none" stroke="white" stroke-width="1.5" pointer-events="none"/>
                </g>
                <g id="dirArrow">
                        <path fill="none" stroke="white" stroke-width="1.5" d="M0,-3.0v7 M-2.5,-0.5L0,-3.0L2.5,-0.5"/>
                </g>
               <g id="resetDef">
                       <use xlink:href="#rim2" fill="#404040">
                               <set attributeName="fill" to="#808080" begin="reset.mouseover" end="reset.mouseout"/>
                       </use>
               </g>
        </defs>

<script type="text/javascript">
var viewWidth = 516;
var viewHeight = 1137;
var sectionId = 'dynsection-82';
</script>
<script xlink:href="svgpan.js"/>
<svg id="graph" class="graph">
<g id="viewport">
<title>TMC2130Stepper::GCONF</title>
<polygon fill="white" stroke="none" points="-4,4 -4,-1132.5 512,-1132.5 512,4 -4,4"/>
<!-- Node1 -->
<g id="node1" class="node"><title>Node1</title>
<g id="a_node1"><a xlink:title=" ">
<polygon fill="#bfbfbf" stroke="black" points="376,-532 376,-551 508,-551 508,-532 376,-532"/>
<text text-anchor="middle" x="442" y="-539" font-family="Helvetica,sans-Serif" font-size="10.00">TMC2130Stepper::GCONF</text>
</a>
</g>
</g>
<!-- Node2 -->
<g id="node2" class="node"><title>Node2</title>
<g id="a_node2"><a xlink:href="class_t_m_c2130_stepper.html#a2d19f2ad93b00b75ffdcdd73275d2f03" target="_top" xlink:title=" ">
<polygon fill="white" stroke="black" points="203.5,-1109 203.5,-1128 324.5,-1128 324.5,-1109 203.5,-1109"/>
<text text-anchor="middle" x="264" y="-1116" font-family="Helvetica,sans-Serif" font-size="10.00">TMC2130Stepper::begin</text>
</a>
</g>
</g>
<!-- Node1&#45;&gt;Node2 -->
<g id="edge1" class="edge"><title>Node1&#45;&gt;Node2</title>
<path fill="none" stroke="midnightblue" d="M440.196,-561.488C436.168,-651.559 415.288,-1018.82 340,-1099.5 335.693,-1104.12 330.439,-1107.68 324.732,-1110.42"/>
<polygon fill="midnightblue" stroke="midnightblue" points="443.702,-561.429 440.632,-551.289 436.708,-561.13 443.702,-561.429"/>
</g>
<!-- Node3 -->
<g id="node3" class="node"><title>Node3</title>
<g id="a_node3"><a xlink:href="class_t_m_c2160_stepper.html#a7ee48b042245ef5b3968b82029d1404c" target="_top" xlink:title=" ">
<polygon fill="white" stroke="black" points="203.5,-1071 203.5,-1090 324.5,-1090 324.5,-1071 203.5,-1071"/>
<text text-anchor="middle" x="264" y="-1078" font-family="Helvetica,sans-Serif" font-size="10.00">TMC2160Stepper::begin</text>
</a>
</g>
</g>
<!-- Node1&#45;&gt;Node3 -->
<g id="edge2" class="edge"><title>Node1&#45;&gt;Node3</title>
<path fill="none" stroke="midnightblue" d="M439.926,-561.204C434.851,-646.983 410.514,-986.902 340,-1061.5 335.663,-1066.09 330.391,-1069.63 324.673,-1072.36"/>
<polygon fill="midnightblue" stroke="midnightblue" points="443.43,-561.22 440.506,-551.036 436.442,-560.821 443.43,-561.22"/>
</g>
<!-- Node5 -->
<g id="node5" class="node"><title>Node5</title>
<g id="a_node5"><a xlink:href="class_t_m_c2130_stepper.html#a153974233601ccb4de7f5a6ae1a7f7b4" target="_top" xlink:title=" ">
<polygon fill="white" stroke="black" points="203.5,-1021.5 203.5,-1051.5 324.5,-1051.5 324.5,-1021.5 203.5,-1021.5"/>
<text text-anchor="start" x="211.5" y="-1039.5" font-family="Helvetica,sans-Serif" font-size="10.00">TMC2130Stepper::diag0</text>
<text text-anchor="middle" x="264" y="-1028.5" font-family="Helvetica,sans-Serif" font-size="10.00">_error</text>
</a>
</g>
</g>
<!-- Node1&#45;&gt;Node5 -->
<g id="edge4" class="edge"><title>Node1&#45;&gt;Node5</title>
<path fill="none" stroke="midnightblue" d="M439.344,-561.527C432.271,-642.419 402.085,-943.98 340,-1012.5 335.686,-1017.26 330.427,-1021.08 324.717,-1024.15"/>
<polygon fill="midnightblue" stroke="midnightblue" points="442.858,-561.509 440.221,-551.247 435.884,-560.914 442.858,-561.509"/>
</g>
<!-- Node7 -->
<g id="node7" class="node"><title>Node7</title>
<g id="a_node7"><a xlink:href="class_t_m_c2130_stepper.html#af1a14a5e85e37ff2887e5031126bc2bf" target="_top" xlink:title=" ">
<polygon fill="white" stroke="black" points="203.5,-972.5 203.5,-1002.5 324.5,-1002.5 324.5,-972.5 203.5,-972.5"/>
<text text-anchor="start" x="211.5" y="-990.5" font-family="Helvetica,sans-Serif" font-size="10.00">TMC2130Stepper::diag0</text>
<text text-anchor="middle" x="264" y="-979.5" font-family="Helvetica,sans-Serif" font-size="10.00">_int_pushpull</text>
</a>
</g>
</g>
<!-- Node1&#45;&gt;Node7 -->
<g id="edge6" class="edge"><title>Node1&#45;&gt;Node7</title>
<path fill="none" stroke="midnightblue" d="M438.796,-561.288C430.073,-636.275 395.696,-901.778 340,-962.5 335.64,-967.254 330.352,-971.105 324.625,-974.224"/>
<polygon fill="midnightblue" stroke="midnightblue" points="442.28,-561.632 439.936,-551.299 435.325,-560.838 442.28,-561.632"/>
</g>
<!-- Node9 -->
<g id="node9" class="node"><title>Node9</title>
<g id="a_node9"><a xlink:href="class_t_m_c2130_stepper.html#a774e7d003b2e993fdaef68e2869df70d" target="_top" xlink:title=" ">
<polygon fill="white" stroke="black" points="191,-934 191,-953 337,-953 337,-934 191,-934"/>
<text text-anchor="middle" x="264" y="-941" font-family="Helvetica,sans-Serif" font-size="10.00">TMC2130Stepper::diag0_otpw</text>
</a>
</g>
</g>
<!-- Node1&#45;&gt;Node9 -->
<g id="edge8" class="edge"><title>Node1&#45;&gt;Node9</title>
<path fill="none" stroke="midnightblue" d="M438.426,-561.412C428.854,-632.435 393.111,-871.903 340,-924.5 336.182,-928.281 331.727,-931.344 326.926,-933.821"/>
<polygon fill="midnightblue" stroke="midnightblue" points="441.938,-561.55 439.78,-551.177 434.998,-560.632 441.938,-561.55"/>
</g>
<!-- Node11 -->
<g id="node11" class="node"><title>Node11</title>
<g id="a_node11"><a xlink:href="class_t_m_c2130_stepper.html#adcf9d8f775af84a8435562457dbce200" target="_top" xlink:title=" ">
<polygon fill="white" stroke="black" points="203.5,-884.5 203.5,-914.5 324.5,-914.5 324.5,-884.5 203.5,-884.5"/>
<text text-anchor="start" x="211.5" y="-902.5" font-family="Helvetica,sans-Serif" font-size="10.00">TMC2130Stepper::diag0</text>
<text text-anchor="middle" x="264" y="-891.5" font-family="Helvetica,sans-Serif" font-size="10.00">_stall</text>
</a>
</g>
</g>
<!-- Node1&#45;&gt;Node11 -->
<g id="edge10" class="edge"><title>Node1&#45;&gt;Node11</title>
<path fill="none" stroke="midnightblue" d="M441.032,-561.169C440.035,-618.113 429.244,-784.812 340,-875.5 335.589,-879.982 330.342,-883.629 324.701,-886.595"/>
<polygon fill="midnightblue" stroke="midnightblue" points="444.533,-561.054 441.122,-551.023 437.534,-560.992 444.533,-561.054"/>
</g>
<!-- Node13 -->
<g id="node13" class="node"><title>Node13</title>
<g id="a_node13"><a xlink:href="class_t_m_c2130_stepper.html#aa205878aee0dc80a3f8597c68ec0da61" target="_top" xlink:title=" ">
<polygon fill="white" stroke="black" points="203.5,-835.5 203.5,-865.5 324.5,-865.5 324.5,-835.5 203.5,-835.5"/>
<text text-anchor="start" x="211.5" y="-853.5" font-family="Helvetica,sans-Serif" font-size="10.00">TMC2130Stepper::diag1</text>
<text text-anchor="middle" x="264" y="-842.5" font-family="Helvetica,sans-Serif" font-size="10.00">_index</text>
</a>
</g>
</g>
<!-- Node1&#45;&gt;Node13 -->
<g id="edge12" class="edge"><title>Node1&#45;&gt;Node13</title>
<path fill="none" stroke="midnightblue" d="M439.752,-561.188C435.458,-612.225 416.955,-750.064 340,-825.5 335.491,-829.92 330.181,-833.558 324.504,-836.554"/>
<polygon fill="midnightblue" stroke="midnightblue" points="443.246,-561.396 440.501,-551.163 436.266,-560.874 443.246,-561.396"/>
</g>
<!-- Node15 -->
<g id="node15" class="node"><title>Node15</title>
<g id="a_node15"><a xlink:href="class_t_m_c2130_stepper.html#a2883d78d45f39dbcb9f1860d946aadcb" target="_top" xlink:title=" ">
<polygon fill="white" stroke="black" points="203.5,-786.5 203.5,-816.5 324.5,-816.5 324.5,-786.5 203.5,-786.5"/>
<text text-anchor="start" x="211.5" y="-804.5" font-family="Helvetica,sans-Serif" font-size="10.00">TMC2130Stepper::diag1</text>
<text text-anchor="middle" x="264" y="-793.5" font-family="Helvetica,sans-Serif" font-size="10.00">_onstate</text>
</a>
</g>
</g>
<!-- Node1&#45;&gt;Node15 -->
<g id="edge14" class="edge"><title>Node1&#45;&gt;Node15</title>
<path fill="none" stroke="midnightblue" d="M438.065,-561.322C430.387,-606.177 405.565,-716.233 340,-776.5 335.453,-780.68 330.187,-784.162 324.595,-787.064"/>
<polygon fill="midnightblue" stroke="midnightblue" points="441.566,-561.595 439.696,-551.166 434.654,-560.485 441.566,-561.595"/>
</g>
<!-- Node17 -->
<g id="node17" class="node"><title>Node17</title>
<g id="a_node17"><a xlink:href="class_t_m_c2130_stepper.html#a3c8c8441f841b724234d450331c7d252" target="_top" xlink:title=" ">
<polygon fill="white" stroke="black" points="203.5,-737.5 203.5,-767.5 324.5,-767.5 324.5,-737.5 203.5,-737.5"/>
<text text-anchor="start" x="211.5" y="-755.5" font-family="Helvetica,sans-Serif" font-size="10.00">TMC2130Stepper::diag1</text>
<text text-anchor="middle" x="264" y="-744.5" font-family="Helvetica,sans-Serif" font-size="10.00">_pushpull</text>
</a>
</g>
</g>
<!-- Node1&#45;&gt;Node17 -->
<g id="edge16" class="edge"><title>Node1&#45;&gt;Node17</title>
<path fill="none" stroke="midnightblue" d="M435.687,-560.967C424.424,-598.622 394.597,-681.743 340,-727.5 335.372,-731.379 330.118,-734.663 324.592,-737.442"/>
<polygon fill="midnightblue" stroke="midnightblue" points="439.089,-561.803 438.486,-551.225 432.361,-559.87 439.089,-561.803"/>
</g>
<!-- Node19 -->
<g id="node19" class="node"><title>Node19</title>
<g id="a_node19"><a xlink:href="class_t_m_c2130_stepper.html#aeb1f85a7e07cfdc5f6487a34f8b49fab" target="_top" xlink:title=" ">
<polygon fill="white" stroke="black" points="203.5,-688.5 203.5,-718.5 324.5,-718.5 324.5,-688.5 203.5,-688.5"/>
<text text-anchor="start" x="211.5" y="-706.5" font-family="Helvetica,sans-Serif" font-size="10.00">TMC2130Stepper::diag1</text>
<text text-anchor="middle" x="264" y="-695.5" font-family="Helvetica,sans-Serif" font-size="10.00">_stall</text>
</a>
</g>
</g>
<!-- Node1&#45;&gt;Node19 -->
<g id="edge18" class="edge"><title>Node1&#45;&gt;Node19</title>
<path fill="none" stroke="midnightblue" d="M432.029,-560.197C417.012,-589.572 384.043,-646.48 340,-678.5 334.671,-682.374 328.704,-685.674 322.525,-688.48"/>
<polygon fill="midnightblue" stroke="midnightblue" points="435.263,-561.553 436.581,-551.04 428.995,-558.437 435.263,-561.553"/>
</g>
<!-- Node21 -->
<g id="node21" class="node"><title>Node21</title>
<g id="a_node21"><a xlink:href="class_t_m_c2130_stepper.html#a62f28edaaea8847449e53d164514db39" target="_top" xlink:title=" ">
<polygon fill="white" stroke="black" points="203.5,-639.5 203.5,-669.5 324.5,-669.5 324.5,-639.5 203.5,-639.5"/>
<text text-anchor="start" x="211.5" y="-657.5" font-family="Helvetica,sans-Serif" font-size="10.00">TMC2130Stepper::diag1</text>
<text text-anchor="middle" x="264" y="-646.5" font-family="Helvetica,sans-Serif" font-size="10.00">_steps_skipped</text>
</a>
</g>
</g>
<!-- Node1&#45;&gt;Node21 -->
<g id="edge20" class="edge"><title>Node1&#45;&gt;Node21</title>
<path fill="none" stroke="midnightblue" d="M425.426,-558.674C406.818,-578.272 373.922,-610.112 340,-629.5 333.446,-633.246 326.247,-636.536 318.981,-639.394"/>
<polygon fill="midnightblue" stroke="midnightblue" points="428.231,-560.798 432.488,-551.095 423.11,-556.025 428.231,-560.798"/>
</g>
<!-- Node23 -->
<g id="node23" class="node"><title>Node23</title>
<g id="a_node23"><a xlink:href="class_t_m_c2130_stepper.html#a6dc182cb867bbeaf8ce2476e74d90679" target="_top" xlink:title=" ">
<polygon fill="white" stroke="black" points="188.5,-601 188.5,-620 339.5,-620 339.5,-601 188.5,-601"/>
<text text-anchor="middle" x="264" y="-608" font-family="Helvetica,sans-Serif" font-size="10.00">TMC2130Stepper::direct_mode</text>
</a>
</g>
</g>
<!-- Node1&#45;&gt;Node23 -->
<g id="edge22" class="edge"><title>Node1&#45;&gt;Node23</title>
<path fill="none" stroke="midnightblue" d="M415.094,-555.774C395.039,-566.401 366.334,-580.703 340,-590.5 329.264,-594.494 317.389,-598.04 306.315,-600.996"/>
<polygon fill="midnightblue" stroke="midnightblue" points="416.77,-558.847 423.927,-551.034 413.46,-552.679 416.77,-558.847"/>
</g>
<!-- Node25 -->
<g id="node25" class="node"><title>Node25</title>
<g id="a_node25"><a xlink:href="class_t_m_c2130_stepper.html#abf1aaf21b2ed62c07626fa3fd69577a5" target="_top" xlink:title=" ">
<polygon fill="white" stroke="black" points="210,-551.5 210,-581.5 318,-581.5 318,-551.5 210,-551.5"/>
<text text-anchor="start" x="218" y="-569.5" font-family="Helvetica,sans-Serif" font-size="10.00">TMC2130Stepper::en</text>
<text text-anchor="middle" x="264" y="-558.5" font-family="Helvetica,sans-Serif" font-size="10.00">_pwm_mode</text>
</a>
</g>
</g>
<!-- Node1&#45;&gt;Node25 -->
<g id="edge24" class="edge"><title>Node1&#45;&gt;Node25</title>
<path fill="none" stroke="midnightblue" d="M366.053,-552.146C349.979,-554.429 333.311,-556.797 318.259,-558.935"/>
<polygon fill="midnightblue" stroke="midnightblue" points="366.556,-555.61 375.964,-550.738 365.571,-548.679 366.556,-555.61"/>
</g>
<!-- Node27 -->
<g id="node27" class="node"><title>Node27</title>
<g id="a_node27"><a xlink:href="class_t_m_c2130_stepper.html#aaa69ce5d7eb9d4969611bdffb6c93069" target="_top" xlink:title=" ">
<polygon fill="white" stroke="black" points="207.5,-502.5 207.5,-532.5 320.5,-532.5 320.5,-502.5 207.5,-502.5"/>
<text text-anchor="start" x="215.5" y="-520.5" font-family="Helvetica,sans-Serif" font-size="10.00">TMC2130Stepper::enc</text>
<text text-anchor="middle" x="264" y="-509.5" font-family="Helvetica,sans-Serif" font-size="10.00">_commutation</text>
</a>
</g>
</g>
<!-- Node1&#45;&gt;Node27 -->
<g id="edge26" class="edge"><title>Node1&#45;&gt;Node27</title>
<path fill="none" stroke="midnightblue" d="M366.029,-531.277C350.763,-529.195 334.962,-527.04 320.52,-525.071"/>
<polygon fill="midnightblue" stroke="midnightblue" points="365.583,-534.748 375.964,-532.631 366.529,-527.812 365.583,-534.748"/>
</g>
<!-- Node29 -->
<g id="node29" class="node"><title>Node29</title>
<g id="a_node29"><a xlink:href="class_t_m_c5160_stepper.html#a6ec8fb09e247dab3a40e0d11699cafa4" target="_top" xlink:title=" ">
<polygon fill="white" stroke="black" points="188,-464 188,-483 340,-483 340,-464 188,-464"/>
<text text-anchor="middle" x="264" y="-471" font-family="Helvetica,sans-Serif" font-size="10.00">TMC5160Stepper::faststandstill</text>
</a>
</g>
</g>
<!-- Node1&#45;&gt;Node29 -->
<g id="edge28" class="edge"><title>Node1&#45;&gt;Node29</title>
<path fill="none" stroke="midnightblue" d="M415.128,-527.132C395.092,-516.455 366.395,-502.132 340,-492.5 330.158,-488.908 319.351,-485.742 309.08,-483.074"/>
<polygon fill="midnightblue" stroke="midnightblue" points="413.49,-530.225 423.952,-531.896 416.816,-524.065 413.49,-530.225"/>
</g>
<!-- Node31 -->
<g id="node31" class="node"><title>Node31</title>
<g id="a_node31"><a xlink:href="class_t_m_c2130_stepper.html#a40770c63dc47cd08a9e087b30a2712b0" target="_top" xlink:title=" ">
<polygon fill="white" stroke="black" points="200,-414.5 200,-444.5 328,-444.5 328,-414.5 200,-414.5"/>
<text text-anchor="start" x="208" y="-432.5" font-family="Helvetica,sans-Serif" font-size="10.00">TMC2130Stepper::I_scale</text>
<text text-anchor="middle" x="264" y="-421.5" font-family="Helvetica,sans-Serif" font-size="10.00">_analog</text>
</a>
</g>
</g>
<!-- Node1&#45;&gt;Node31 -->
<g id="edge30" class="edge"><title>Node1&#45;&gt;Node31</title>
<path fill="none" stroke="midnightblue" d="M425.094,-524.229C406.399,-504.839 373.634,-473.598 340,-454.5 333.436,-450.773 326.23,-447.493 318.962,-444.641"/>
<polygon fill="midnightblue" stroke="midnightblue" points="422.791,-526.887 432.207,-531.743 427.875,-522.075 422.791,-526.887"/>
</g>
<!-- Node32 -->
<g id="node32" class="node"><title>Node32</title>
<g id="a_node32"><a xlink:href="class_t_m_c2130_stepper.html#a4343d6016d6abe9c7f972c3575b11ddd" target="_top" xlink:title=" ">
<polygon fill="white" stroke="black" points="199.5,-365.5 199.5,-395.5 328.5,-395.5 328.5,-365.5 199.5,-365.5"/>
<text text-anchor="start" x="207.5" y="-383.5" font-family="Helvetica,sans-Serif" font-size="10.00">TMC2130Stepper::internal</text>
<text text-anchor="middle" x="264" y="-372.5" font-family="Helvetica,sans-Serif" font-size="10.00">_Rsense</text>
</a>
</g>
</g>
<!-- Node1&#45;&gt;Node32 -->
<g id="edge31" class="edge"><title>Node1&#45;&gt;Node32</title>
<path fill="none" stroke="midnightblue" d="M432.074,-522.741C417.119,-493.279 384.235,-436.254 340,-404.5 335.224,-401.072 329.937,-398.118 324.445,-395.576"/>
<polygon fill="midnightblue" stroke="midnightblue" points="429.042,-524.506 436.606,-531.925 435.32,-521.409 429.042,-524.506"/>
</g>
<!-- Node33 -->
<g id="node33" class="node"><title>Node33</title>
<g id="a_node33"><a xlink:href="class_t_m_c5160_stepper.html#a42490d462eafe865233ab4524662dfe3" target="_top" xlink:title=" ">
<polygon fill="white" stroke="black" points="188,-327 188,-346 340,-346 340,-327 188,-327"/>
<text text-anchor="middle" x="264" y="-334" font-family="Helvetica,sans-Serif" font-size="10.00">TMC5160Stepper::multistep_filt</text>
</a>
</g>
</g>
<!-- Node1&#45;&gt;Node33 -->
<g id="edge32" class="edge"><title>Node1&#45;&gt;Node33</title>
<path fill="none" stroke="midnightblue" d="M435.978,-521.672C425.224,-483.387 396.244,-399.217 340,-355.5 335.015,-351.626 329.333,-348.534 323.377,-346.067"/>
<polygon fill="midnightblue" stroke="midnightblue" points="432.666,-522.834 438.639,-531.585 439.427,-521.02 432.666,-522.834"/>
</g>
<!-- Node35 -->
<g id="node35" class="node"><title>Node35</title>
<g id="a_node35"><a xlink:href="class_t_m_c2130_stepper.html#ac62d32ad08be0a34b411bdd5a8489246" target="_top" xlink:title=" ">
<polygon fill="white" stroke="black" points="204.5,-289 204.5,-308 323.5,-308 323.5,-289 204.5,-289"/>
<text text-anchor="middle" x="264" y="-296" font-family="Helvetica,sans-Serif" font-size="10.00">TMC2130Stepper::push</text>
</a>
</g>
</g>
<!-- Node1&#45;&gt;Node35 -->
<g id="edge34" class="edge"><title>Node1&#45;&gt;Node35</title>
<path fill="none" stroke="midnightblue" d="M437.958,-521.654C430.157,-477.799 405.261,-372.207 340,-317.5 335.162,-313.444 329.572,-310.237 323.67,-307.704"/>
<polygon fill="midnightblue" stroke="midnightblue" points="434.524,-522.341 439.621,-531.628 441.428,-521.189 434.524,-522.341"/>
</g>
<!-- Node36 -->
<g id="node36" class="node"><title>Node36</title>
<g id="a_node36"><a xlink:href="class_t_m_c2160_stepper.html#ae8035a0cb8151d5227d8528e540e637d" target="_top" xlink:title=" ">
<polygon fill="white" stroke="black" points="204.5,-251 204.5,-270 323.5,-270 323.5,-251 204.5,-251"/>
<text text-anchor="middle" x="264" y="-258" font-family="Helvetica,sans-Serif" font-size="10.00">TMC2160Stepper::push</text>
</a>
</g>
</g>
<!-- Node1&#45;&gt;Node36 -->
<g id="edge35" class="edge"><title>Node1&#45;&gt;Node36</title>
<path fill="none" stroke="midnightblue" d="M439.411,-521.726C434.389,-472.846 414.454,-345.527 340,-279.5 335.176,-275.222 329.525,-271.881 323.525,-269.274"/>
<polygon fill="midnightblue" stroke="midnightblue" points="435.946,-522.262 440.352,-531.897 442.916,-521.617 435.946,-522.262"/>
</g>
<!-- Node37 -->
<g id="node37" class="node"><title>Node37</title>
<g id="a_node37"><a xlink:href="class_t_m_c5130_stepper.html#a55e61f5181d74f26c9d35c54e4436d7a" target="_top" xlink:title=" ">
<polygon fill="white" stroke="black" points="204.5,-213 204.5,-232 323.5,-232 323.5,-213 204.5,-213"/>
<text text-anchor="middle" x="264" y="-220" font-family="Helvetica,sans-Serif" font-size="10.00">TMC5130Stepper::push</text>
</a>
</g>
</g>
<!-- Node1&#45;&gt;Node37 -->
<g id="edge36" class="edge"><title>Node1&#45;&gt;Node37</title>
<path fill="none" stroke="midnightblue" d="M440.516,-521.818C438.092,-468.323 423.767,-319.081 340,-241.5 335.27,-237.119 329.677,-233.713 323.71,-231.07"/>
<polygon fill="midnightblue" stroke="midnightblue" points="437.024,-522.113 440.88,-531.981 444.02,-521.862 437.024,-522.113"/>
</g>
<!-- Node38 -->
<g id="node38" class="node"><title>Node38</title>
<g id="a_node38"><a xlink:href="class_t_m_c5160_stepper.html#a5a12974304588f9d01898d91ba854b87" target="_top" xlink:title=" ">
<polygon fill="white" stroke="black" points="204.5,-175 204.5,-194 323.5,-194 323.5,-175 204.5,-175"/>
<text text-anchor="middle" x="264" y="-182" font-family="Helvetica,sans-Serif" font-size="10.00">TMC5160Stepper::push</text>
</a>
</g>
</g>
<!-- Node1&#45;&gt;Node38 -->
<g id="edge37" class="edge"><title>Node1&#45;&gt;Node38</title>
<path fill="none" stroke="midnightblue" d="M441.382,-521.692C441.368,-463.691 433.052,-292.7 340,-203.5 335.346,-199.038 329.8,-195.582 323.861,-192.91"/>
<polygon fill="midnightblue" stroke="midnightblue" points="437.882,-521.699 441.297,-531.729 444.882,-521.759 437.882,-521.699"/>
</g>
<!-- Node39 -->
<g id="node39" class="node"><title>Node39</title>
<g id="a_node39"><a xlink:href="class_t_m_c5160_stepper.html#a5433717e0c2024befd1e3e493b8ce2b7" target="_top" xlink:title=" ">
<polygon fill="white" stroke="black" points="192.5,-137 192.5,-156 335.5,-156 335.5,-137 192.5,-137"/>
<text text-anchor="middle" x="264" y="-144" font-family="Helvetica,sans-Serif" font-size="10.00">TMC5160Stepper::recalibrate</text>
</a>
</g>
</g>
<!-- Node1&#45;&gt;Node39 -->
<g id="edge38" class="edge"><title>Node1&#45;&gt;Node39</title>
<path fill="none" stroke="midnightblue" d="M438.372,-521.948C428.616,-452.21 392.323,-217.079 340,-165.5 336.078,-161.634 331.489,-158.519 326.546,-156.013"/>
<polygon fill="midnightblue" stroke="midnightblue" points="434.924,-522.567 439.753,-531.997 441.859,-521.614 434.924,-522.567"/>
</g>
<!-- Node41 -->
<g id="node41" class="node"><title>Node41</title>
<g id="a_node41"><a xlink:href="class_t_m_c2130_stepper.html#ac28cec0948c577e4988a1649248d1632" target="_top" xlink:title=" ">
<polygon fill="white" stroke="black" points="204.5,-99 204.5,-118 323.5,-118 323.5,-99 204.5,-99"/>
<text text-anchor="middle" x="264" y="-106" font-family="Helvetica,sans-Serif" font-size="10.00">TMC2130Stepper::shaft</text>
</a>
</g>
</g>
<!-- Node1&#45;&gt;Node41 -->
<g id="edge40" class="edge"><title>Node1&#45;&gt;Node41</title>
<path fill="none" stroke="midnightblue" d="M438.831,-521.451C430.337,-446.617 396.977,-184.982 340,-127.5 335.367,-122.826 329.759,-119.244 323.72,-116.509"/>
<polygon fill="midnightblue" stroke="midnightblue" points="435.397,-522.245 439.98,-531.798 442.354,-521.472 435.397,-522.245"/>
</g>
<!-- Node43 -->
<g id="node43" class="node"><title>Node43</title>
<g id="a_node43"><a xlink:href="class_t_m_c2130_stepper.html#af40e77e1513860e1d600885b2de27fa7" target="_top" xlink:title=" ">
<polygon fill="white" stroke="black" points="203.5,-49.5 203.5,-79.5 324.5,-79.5 324.5,-49.5 203.5,-49.5"/>
<text text-anchor="start" x="211.5" y="-67.5" font-family="Helvetica,sans-Serif" font-size="10.00">TMC2130Stepper::small</text>
<text text-anchor="middle" x="264" y="-56.5" font-family="Helvetica,sans-Serif" font-size="10.00">_hysteresis</text>
</a>
</g>
</g>
<!-- Node1&#45;&gt;Node43 -->
<g id="edge42" class="edge"><title>Node1&#45;&gt;Node43</title>
<path fill="none" stroke="midnightblue" d="M439.155,-521.789C431.451,-443.468 399.45,-155.34 340,-89.5 335.677,-84.7122 330.413,-80.8397 324.7,-77.7079"/>
<polygon fill="midnightblue" stroke="midnightblue" points="435.674,-522.152 440.116,-531.771 442.641,-521.481 435.674,-522.152"/>
</g>
<!-- Node45 -->
<g id="node45" class="node"><title>Node45</title>
<g id="a_node45"><a xlink:href="class_t_m_c2130_stepper.html#a263a877ca5e91f01727c3bf7c998c76f" target="_top" xlink:title=" ">
<polygon fill="white" stroke="black" points="206,-0.5 206,-30.5 322,-30.5 322,-0.5 206,-0.5"/>
<text text-anchor="start" x="214" y="-18.5" font-family="Helvetica,sans-Serif" font-size="10.00">TMC2130Stepper::stop</text>
<text text-anchor="middle" x="264" y="-7.5" font-family="Helvetica,sans-Serif" font-size="10.00">_enable</text>
</a>
</g>
</g>
<!-- Node1&#45;&gt;Node45 -->
<g id="edge44" class="edge"><title>Node1&#45;&gt;Node45</title>
<path fill="none" stroke="midnightblue" d="M439.654,-521.785C433.562,-438.102 405.95,-113.221 340,-39.5 335.078,-33.9979 328.895,-29.7491 322.203,-26.4697"/>
<polygon fill="midnightblue" stroke="midnightblue" points="436.176,-522.213 440.373,-531.941 443.158,-521.719 436.176,-522.213"/>
</g>
<!-- Node4 -->
<g id="node4" class="node"><title>Node4</title>
<g id="a_node4"><a xlink:href="class_t_m_c5130_stepper.html#a897212f81817cdaee4536d642badc149" target="_top" xlink:title=" ">
<polygon fill="white" stroke="black" points="15.5,-1071 15.5,-1090 136.5,-1090 136.5,-1071 15.5,-1071"/>
<text text-anchor="middle" x="76" y="-1078" font-family="Helvetica,sans-Serif" font-size="10.00">TMC5130Stepper::begin</text>
</a>
</g>
</g>
<!-- Node3&#45;&gt;Node4 -->
<g id="edge3" class="edge"><title>Node3&#45;&gt;Node4</title>
<path fill="none" stroke="midnightblue" d="M193.192,-1080.5C174.569,-1080.5 154.62,-1080.5 136.601,-1080.5"/>
<polygon fill="midnightblue" stroke="midnightblue" points="193.381,-1084 203.381,-1080.5 193.381,-1077 193.381,-1084"/>
</g>
<!-- Node6 -->
<g id="node6" class="node"><title>Node6</title>
<g id="a_node6"><a xlink:href="class_t_m_c2130_stepper.html#a4616f715e8465b5667cf767673de35ca" target="_top" xlink:title=" ">
<polygon fill="white" stroke="black" points="15.5,-1021.5 15.5,-1051.5 136.5,-1051.5 136.5,-1021.5 15.5,-1021.5"/>
<text text-anchor="start" x="23.5" y="-1039.5" font-family="Helvetica,sans-Serif" font-size="10.00">TMC2130Stepper::diag0</text>
<text text-anchor="middle" x="76" y="-1028.5" font-family="Helvetica,sans-Serif" font-size="10.00">_error</text>
</a>
</g>
</g>
<!-- Node5&#45;&gt;Node6 -->
<g id="edge5" class="edge"><title>Node5&#45;&gt;Node6</title>
<path fill="none" stroke="midnightblue" d="M193.192,-1036.5C174.569,-1036.5 154.62,-1036.5 136.601,-1036.5"/>
<polygon fill="midnightblue" stroke="midnightblue" points="193.381,-1040 203.381,-1036.5 193.381,-1033 193.381,-1040"/>
</g>
<!-- Node8 -->
<g id="node8" class="node"><title>Node8</title>
<g id="a_node8"><a xlink:href="class_t_m_c2130_stepper.html#a825aa5bc2c13920e7d966e892de20a48" target="_top" xlink:title=" ">
<polygon fill="white" stroke="black" points="15.5,-972.5 15.5,-1002.5 136.5,-1002.5 136.5,-972.5 15.5,-972.5"/>
<text text-anchor="start" x="23.5" y="-990.5" font-family="Helvetica,sans-Serif" font-size="10.00">TMC2130Stepper::diag0</text>
<text text-anchor="middle" x="76" y="-979.5" font-family="Helvetica,sans-Serif" font-size="10.00">_int_pushpull</text>
</a>
</g>
</g>
<!-- Node7&#45;&gt;Node8 -->
<g id="edge7" class="edge"><title>Node7&#45;&gt;Node8</title>
<path fill="none" stroke="midnightblue" d="M193.192,-987.5C174.569,-987.5 154.62,-987.5 136.601,-987.5"/>
<polygon fill="midnightblue" stroke="midnightblue" points="193.381,-991 203.381,-987.5 193.381,-984 193.381,-991"/>
</g>
<!-- Node10 -->
<g id="node10" class="node"><title>Node10</title>
<g id="a_node10"><a xlink:href="class_t_m_c2130_stepper.html#acae28cdb6b8b75d8804b2f8fef807604" target="_top" xlink:title=" ">
<polygon fill="white" stroke="black" points="3,-934 3,-953 149,-953 149,-934 3,-934"/>
<text text-anchor="middle" x="76" y="-941" font-family="Helvetica,sans-Serif" font-size="10.00">TMC2130Stepper::diag0_otpw</text>
</a>
</g>
</g>
<!-- Node9&#45;&gt;Node10 -->
<g id="edge9" class="edge"><title>Node9&#45;&gt;Node10</title>
<path fill="none" stroke="midnightblue" d="M180.786,-943.5C170.24,-943.5 159.507,-943.5 149.138,-943.5"/>
<polygon fill="midnightblue" stroke="midnightblue" points="180.821,-947 190.821,-943.5 180.821,-940 180.821,-947"/>
</g>
<!-- Node12 -->
<g id="node12" class="node"><title>Node12</title>
<g id="a_node12"><a xlink:href="class_t_m_c2130_stepper.html#a3ac84ec227aff10e9101292c0b8600e9" target="_top" xlink:title=" ">
<polygon fill="white" stroke="black" points="15.5,-884.5 15.5,-914.5 136.5,-914.5 136.5,-884.5 15.5,-884.5"/>
<text text-anchor="start" x="23.5" y="-902.5" font-family="Helvetica,sans-Serif" font-size="10.00">TMC2130Stepper::diag0</text>
<text text-anchor="middle" x="76" y="-891.5" font-family="Helvetica,sans-Serif" font-size="10.00">_stall</text>
</a>
</g>
</g>
<!-- Node11&#45;&gt;Node12 -->
<g id="edge11" class="edge"><title>Node11&#45;&gt;Node12</title>
<path fill="none" stroke="midnightblue" d="M193.192,-899.5C174.569,-899.5 154.62,-899.5 136.601,-899.5"/>
<polygon fill="midnightblue" stroke="midnightblue" points="193.381,-903 203.381,-899.5 193.381,-896 193.381,-903"/>
</g>
<!-- Node14 -->
<g id="node14" class="node"><title>Node14</title>
<g id="a_node14"><a xlink:href="class_t_m_c2130_stepper.html#aeec208c80ccd25daba744913b4e26611" target="_top" xlink:title=" ">
<polygon fill="white" stroke="black" points="15.5,-835.5 15.5,-865.5 136.5,-865.5 136.5,-835.5 15.5,-835.5"/>
<text text-anchor="start" x="23.5" y="-853.5" font-family="Helvetica,sans-Serif" font-size="10.00">TMC2130Stepper::diag1</text>
<text text-anchor="middle" x="76" y="-842.5" font-family="Helvetica,sans-Serif" font-size="10.00">_index</text>
</a>
</g>
</g>
<!-- Node13&#45;&gt;Node14 -->
<g id="edge13" class="edge"><title>Node13&#45;&gt;Node14</title>
<path fill="none" stroke="midnightblue" d="M193.192,-850.5C174.569,-850.5 154.62,-850.5 136.601,-850.5"/>
<polygon fill="midnightblue" stroke="midnightblue" points="193.381,-854 203.381,-850.5 193.381,-847 193.381,-854"/>
</g>
<!-- Node16 -->
<g id="node16" class="node"><title>Node16</title>
<g id="a_node16"><a xlink:href="class_t_m_c2130_stepper.html#a5d294893ec45127473595a3820162e4d" target="_top" xlink:title=" ">
<polygon fill="white" stroke="black" points="15.5,-786.5 15.5,-816.5 136.5,-816.5 136.5,-786.5 15.5,-786.5"/>
<text text-anchor="start" x="23.5" y="-804.5" font-family="Helvetica,sans-Serif" font-size="10.00">TMC2130Stepper::diag1</text>
<text text-anchor="middle" x="76" y="-793.5" font-family="Helvetica,sans-Serif" font-size="10.00">_onstate</text>
</a>
</g>
</g>
<!-- Node15&#45;&gt;Node16 -->
<g id="edge15" class="edge"><title>Node15&#45;&gt;Node16</title>
<path fill="none" stroke="midnightblue" d="M193.192,-801.5C174.569,-801.5 154.62,-801.5 136.601,-801.5"/>
<polygon fill="midnightblue" stroke="midnightblue" points="193.381,-805 203.381,-801.5 193.381,-798 193.381,-805"/>
</g>
<!-- Node18 -->
<g id="node18" class="node"><title>Node18</title>
<g id="a_node18"><a xlink:href="class_t_m_c5130_stepper.html#afb1d63c66d512cf49b4ce4028c32f205" target="_top" xlink:title=" ">
<polygon fill="white" stroke="black" points="15.5,-737.5 15.5,-767.5 136.5,-767.5 136.5,-737.5 15.5,-737.5"/>
<text text-anchor="start" x="23.5" y="-755.5" font-family="Helvetica,sans-Serif" font-size="10.00">TMC5130Stepper::diag1</text>
<text text-anchor="middle" x="76" y="-744.5" font-family="Helvetica,sans-Serif" font-size="10.00">_poscomp_pushpull</text>
</a>
</g>
</g>
<!-- Node17&#45;&gt;Node18 -->
<g id="edge17" class="edge"><title>Node17&#45;&gt;Node18</title>
<path fill="none" stroke="midnightblue" d="M193.192,-752.5C174.569,-752.5 154.62,-752.5 136.601,-752.5"/>
<polygon fill="midnightblue" stroke="midnightblue" points="193.381,-756 203.381,-752.5 193.381,-749 193.381,-756"/>
</g>
<!-- Node20 -->
<g id="node20" class="node"><title>Node20</title>
<g id="a_node20"><a xlink:href="class_t_m_c2130_stepper.html#a2056f306488aad38a299518c2bd46b09" target="_top" xlink:title=" ">
<polygon fill="white" stroke="black" points="15.5,-688.5 15.5,-718.5 136.5,-718.5 136.5,-688.5 15.5,-688.5"/>
<text text-anchor="start" x="23.5" y="-706.5" font-family="Helvetica,sans-Serif" font-size="10.00">TMC2130Stepper::diag1</text>
<text text-anchor="middle" x="76" y="-695.5" font-family="Helvetica,sans-Serif" font-size="10.00">_stall</text>
</a>
</g>
</g>
<!-- Node19&#45;&gt;Node20 -->
<g id="edge19" class="edge"><title>Node19&#45;&gt;Node20</title>
<path fill="none" stroke="midnightblue" d="M193.192,-703.5C174.569,-703.5 154.62,-703.5 136.601,-703.5"/>
<polygon fill="midnightblue" stroke="midnightblue" points="193.381,-707 203.381,-703.5 193.381,-700 193.381,-707"/>
</g>
<!-- Node22 -->
<g id="node22" class="node"><title>Node22</title>
<g id="a_node22"><a xlink:href="class_t_m_c2130_stepper.html#a893a368e9ce57fcbf6b04213311bb37d" target="_top" xlink:title=" ">
<polygon fill="white" stroke="black" points="15.5,-639.5 15.5,-669.5 136.5,-669.5 136.5,-639.5 15.5,-639.5"/>
<text text-anchor="start" x="23.5" y="-657.5" font-family="Helvetica,sans-Serif" font-size="10.00">TMC2130Stepper::diag1</text>
<text text-anchor="middle" x="76" y="-646.5" font-family="Helvetica,sans-Serif" font-size="10.00">_steps_skipped</text>
</a>
</g>
</g>
<!-- Node21&#45;&gt;Node22 -->
<g id="edge21" class="edge"><title>Node21&#45;&gt;Node22</title>
<path fill="none" stroke="midnightblue" d="M193.192,-654.5C174.569,-654.5 154.62,-654.5 136.601,-654.5"/>
<polygon fill="midnightblue" stroke="midnightblue" points="193.381,-658 203.381,-654.5 193.381,-651 193.381,-658"/>
</g>
<!-- Node24 -->
<g id="node24" class="node"><title>Node24</title>
<g id="a_node24"><a xlink:href="class_t_m_c2130_stepper.html#a08e25b67a178fc87d0417b186800e77d" target="_top" xlink:title=" ">
<polygon fill="white" stroke="black" points="0.5,-601 0.5,-620 151.5,-620 151.5,-601 0.5,-601"/>
<text text-anchor="middle" x="76" y="-608" font-family="Helvetica,sans-Serif" font-size="10.00">TMC2130Stepper::direct_mode</text>
</a>
</g>
</g>
<!-- Node23&#45;&gt;Node24 -->
<g id="edge23" class="edge"><title>Node23&#45;&gt;Node24</title>
<path fill="none" stroke="midnightblue" d="M178.39,-610.5C169.452,-610.5 160.41,-610.5 151.598,-610.5"/>
<polygon fill="midnightblue" stroke="midnightblue" points="178.418,-614 188.418,-610.5 178.418,-607 178.418,-614"/>
</g>
<!-- Node26 -->
<g id="node26" class="node"><title>Node26</title>
<g id="a_node26"><a xlink:href="class_t_m_c2130_stepper.html#a17e8a34b64f168f44e8eebe43b53b494" target="_top" xlink:title=" ">
<polygon fill="white" stroke="black" points="22,-551.5 22,-581.5 130,-581.5 130,-551.5 22,-551.5"/>
<text text-anchor="start" x="30" y="-569.5" font-family="Helvetica,sans-Serif" font-size="10.00">TMC2130Stepper::en</text>
<text text-anchor="middle" x="76" y="-558.5" font-family="Helvetica,sans-Serif" font-size="10.00">_pwm_mode</text>
</a>
</g>
</g>
<!-- Node25&#45;&gt;Node26 -->
<g id="edge25" class="edge"><title>Node25&#45;&gt;Node26</title>
<path fill="none" stroke="midnightblue" d="M199.551,-566.5C177.02,-566.5 151.906,-566.5 130.308,-566.5"/>
<polygon fill="midnightblue" stroke="midnightblue" points="199.7,-570 209.7,-566.5 199.7,-563 199.7,-570"/>
</g>
<!-- Node28 -->
<g id="node28" class="node"><title>Node28</title>
<g id="a_node28"><a xlink:href="class_t_m_c2130_stepper.html#a80c7503e30ce9b7b4d4ad059fb31bf06" target="_top" xlink:title=" ">
<polygon fill="white" stroke="black" points="19.5,-502.5 19.5,-532.5 132.5,-532.5 132.5,-502.5 19.5,-502.5"/>
<text text-anchor="start" x="27.5" y="-520.5" font-family="Helvetica,sans-Serif" font-size="10.00">TMC2130Stepper::enc</text>
<text text-anchor="middle" x="76" y="-509.5" font-family="Helvetica,sans-Serif" font-size="10.00">_commutation</text>
</a>
</g>
</g>
<!-- Node27&#45;&gt;Node28 -->
<g id="edge27" class="edge"><title>Node27&#45;&gt;Node28</title>
<path fill="none" stroke="midnightblue" d="M197.257,-517.5C176.12,-517.5 152.923,-517.5 132.589,-517.5"/>
<polygon fill="midnightblue" stroke="midnightblue" points="197.446,-521 207.446,-517.5 197.446,-514 197.446,-521"/>
</g>
<!-- Node30 -->
<g id="node30" class="node"><title>Node30</title>
<g id="a_node30"><a xlink:href="class_t_m_c5160_stepper.html#a038203f86691a33fc81d2feeea25b721" target="_top" xlink:title=" ">
<polygon fill="white" stroke="black" points="0,-464 0,-483 152,-483 152,-464 0,-464"/>
<text text-anchor="middle" x="76" y="-471" font-family="Helvetica,sans-Serif" font-size="10.00">TMC5160Stepper::faststandstill</text>
</a>
</g>
</g>
<!-- Node29&#45;&gt;Node30 -->
<g id="edge29" class="edge"><title>Node29&#45;&gt;Node30</title>
<path fill="none" stroke="midnightblue" d="M177.853,-473.5C169.258,-473.5 160.574,-473.5 152.095,-473.5"/>
<polygon fill="midnightblue" stroke="midnightblue" points="177.883,-477 187.883,-473.5 177.883,-470 177.883,-477"/>
</g>
<!-- Node34 -->
<g id="node34" class="node"><title>Node34</title>
<g id="a_node34"><a xlink:href="class_t_m_c5160_stepper.html#a960f4efeb065c45450dd1b80e066bf47" target="_top" xlink:title=" ">
<polygon fill="white" stroke="black" points="0,-327 0,-346 152,-346 152,-327 0,-327"/>
<text text-anchor="middle" x="76" y="-334" font-family="Helvetica,sans-Serif" font-size="10.00">TMC5160Stepper::multistep_filt</text>
</a>
</g>
</g>
<!-- Node33&#45;&gt;Node34 -->
<g id="edge33" class="edge"><title>Node33&#45;&gt;Node34</title>
<path fill="none" stroke="midnightblue" d="M177.853,-336.5C169.258,-336.5 160.574,-336.5 152.095,-336.5"/>
<polygon fill="midnightblue" stroke="midnightblue" points="177.883,-340 187.883,-336.5 177.883,-333 177.883,-340"/>
</g>
<!-- Node40 -->
<g id="node40" class="node"><title>Node40</title>
<g id="a_node40"><a xlink:href="class_t_m_c5160_stepper.html#a5e505262db75bfd00b8942040c711bc3" target="_top" xlink:title=" ">
<polygon fill="white" stroke="black" points="4.5,-137 4.5,-156 147.5,-156 147.5,-137 4.5,-137"/>
<text text-anchor="middle" x="76" y="-144" font-family="Helvetica,sans-Serif" font-size="10.00">TMC5160Stepper::recalibrate</text>
</a>
</g>
</g>
<!-- Node39&#45;&gt;Node40 -->
<g id="edge39" class="edge"><title>Node39&#45;&gt;Node40</title>
<path fill="none" stroke="midnightblue" d="M182.324,-146.5C170.742,-146.5 158.901,-146.5 147.536,-146.5"/>
<polygon fill="midnightblue" stroke="midnightblue" points="182.416,-150 192.416,-146.5 182.416,-143 182.416,-150"/>
</g>
<!-- Node42 -->
<g id="node42" class="node"><title>Node42</title>
<g id="a_node42"><a xlink:href="class_t_m_c2130_stepper.html#a755989aaf2d67373e5cbd3683288068b" target="_top" xlink:title=" ">
<polygon fill="white" stroke="black" points="16.5,-99 16.5,-118 135.5,-118 135.5,-99 16.5,-99"/>
<text text-anchor="middle" x="76" y="-106" font-family="Helvetica,sans-Serif" font-size="10.00">TMC2130Stepper::shaft</text>
</a>
</g>
</g>
<!-- Node41&#45;&gt;Node42 -->
<g id="edge41" class="edge"><title>Node41&#45;&gt;Node42</title>
<path fill="none" stroke="midnightblue" d="M194.192,-108.5C174.947,-108.5 154.217,-108.5 135.621,-108.5"/>
<polygon fill="midnightblue" stroke="midnightblue" points="194.404,-112 204.404,-108.5 194.404,-105 194.404,-112"/>
</g>
<!-- Node44 -->
<g id="node44" class="node"><title>Node44</title>
<g id="a_node44"><a xlink:href="class_t_m_c2130_stepper.html#a7b3d8f453305bef01a19276df3cff4c6" target="_top" xlink:title=" ">
<polygon fill="white" stroke="black" points="15.5,-49.5 15.5,-79.5 136.5,-79.5 136.5,-49.5 15.5,-49.5"/>
<text text-anchor="start" x="23.5" y="-67.5" font-family="Helvetica,sans-Serif" font-size="10.00">TMC2130Stepper::small</text>
<text text-anchor="middle" x="76" y="-56.5" font-family="Helvetica,sans-Serif" font-size="10.00">_hysteresis</text>
</a>
</g>
</g>
<!-- Node43&#45;&gt;Node44 -->
<g id="edge43" class="edge"><title>Node43&#45;&gt;Node44</title>
<path fill="none" stroke="midnightblue" d="M193.192,-64.5C174.569,-64.5 154.62,-64.5 136.601,-64.5"/>
<polygon fill="midnightblue" stroke="midnightblue" points="193.381,-68.0001 203.381,-64.5 193.381,-61.0001 193.381,-68.0001"/>
</g>
<!-- Node46 -->
<g id="node46" class="node"><title>Node46</title>
<g id="a_node46"><a xlink:href="class_t_m_c2130_stepper.html#a327666bfa8751a4dfc623f1087b9f5b8" target="_top" xlink:title=" ">
<polygon fill="white" stroke="black" points="18,-0.5 18,-30.5 134,-30.5 134,-0.5 18,-0.5"/>
<text text-anchor="start" x="26" y="-18.5" font-family="Helvetica,sans-Serif" font-size="10.00">TMC2130Stepper::stop</text>
<text text-anchor="middle" x="76" y="-7.5" font-family="Helvetica,sans-Serif" font-size="10.00">_enable</text>
</a>
</g>
</g>
<!-- Node45&#45;&gt;Node46 -->
<g id="edge45" class="edge"><title>Node45&#45;&gt;Node46</title>
<path fill="none" stroke="midnightblue" d="M195.875,-15.5C175.7,-15.5 153.759,-15.5 134.283,-15.5"/>
<polygon fill="midnightblue" stroke="midnightblue" points="195.93,-19.0001 205.93,-15.5 195.93,-12.0001 195.93,-19.0001"/>
</g>
</g>
</svg>
        <g id="navigator" transform="translate(0 0)" fill="#404254">
                <rect fill="#f2f5e9" fill-opacity="0.5" stroke="#606060" stroke-width=".5" x="0" y="0" width="60" height="60"/>
                <use id="zoomplus" xlink:href="#zoomPlus" x="17" y="9" onmousedown="handleZoom(evt,'in')"/>
                <use id="zoomminus" xlink:href="#zoomMin" x="42" y="9" onmousedown="handleZoom(evt,'out')"/>
                <use id="reset" xlink:href="#resetDef" x="30" y="36" onmousedown="handleReset()"/>
                <g id="arrowUp" xlink:href="#dirArrow" transform="translate(30 24)" onmousedown="handlePan(0,-1)">
                  <use xlink:href="#rim" fill="#404040">
                        <set attributeName="fill" to="#808080" begin="arrowUp.mouseover" end="arrowUp.mouseout"/>
                  </use>
                  <path fill="none" stroke="white" stroke-width="1.5" d="M0,-3.0v7 M-2.5,-0.5L0,-3.0L2.5,-0.5"/>
                </g>
                <g id="arrowRight" xlink:href="#dirArrow" transform="rotate(90) translate(36 -43)" onmousedown="handlePan(1,0)">
                  <use xlink:href="#rim" fill="#404040">
                        <set attributeName="fill" to="#808080" begin="arrowRight.mouseover" end="arrowRight.mouseout"/>
                  </use>
                  <path fill="none" stroke="white" stroke-width="1.5" d="M0,-3.0v7 M-2.5,-0.5L0,-3.0L2.5,-0.5"/>
                </g>
                <g id="arrowDown" xlink:href="#dirArrow" transform="rotate(180) translate(-30 -48)" onmousedown="handlePan(0,1)">
                  <use xlink:href="#rim" fill="#404040">
                        <set attributeName="fill" to="#808080" begin="arrowDown.mouseover" end="arrowDown.mouseout"/>
                  </use>
                  <path fill="none" stroke="white" stroke-width="1.5" d="M0,-3.0v7 M-2.5,-0.5L0,-3.0L2.5,-0.5"/>
                </g>
                <g id="arrowLeft" xlink:href="#dirArrow" transform="rotate(270) translate(-36 17)" onmousedown="handlePan(-1,0)">
                  <use xlink:href="#rim" fill="#404040">
                        <set attributeName="fill" to="#808080" begin="arrowLeft.mouseover" end="arrowLeft.mouseout"/>
                  </use>
                  <path fill="none" stroke="white" stroke-width="1.5" d="M0,-3.0v7 M-2.5,-0.5L0,-3.0L2.5,-0.5"/>
                </g>
        </g>
        <svg viewBox="0 0 15 15" width="100%" height="30px" preserveAspectRatio="xMaxYMin meet">
         <g id="arrow_out" transform="scale(0.3 0.3)">
          <a xlink:href="class_t_m_c2130_stepper_aee84a9abfc84b387c6ae5658f90bf684_icgraph_org.svg" target="_base">
           <rect id="button" ry="5" rx="5" y="6" x="6" height="38" width="38"
                fill="#f2f5e9" fill-opacity="0.5" stroke="#606060" stroke-width="1.0"/>
           <path id="arrow"
             d="M 11.500037,31.436501 C 11.940474,20.09759 22.043105,11.32322 32.158766,21.979434 L 37.068811,17.246167 C 37.068811,17.246167 37.088388,32 37.088388,32 L 22.160133,31.978069 C 22.160133,31.978069 26.997745,27.140456 26.997745,27.140456 C 18.528582,18.264221 13.291696,25.230495 11.500037,31.436501 z"
             style="fill:#404040;"/>
          </a>
         </g>
        </svg>
</svg>
