<?xml version="1.0" encoding="UTF-8" standalone="no"?>
<!DOCTYPE svg PUBLIC "-//W3C//DTD SVG 1.1//EN"
 "http://www.w3.org/Graphics/SVG/1.1/DTD/svg11.dtd">
<!-- Generated by graphviz version 2.38.0 (20140413.2041)
 -->
<!-- Title: TMC2208Stepper::enn Pages: 1 -->
<svg width="808pt" height="140pt"
 viewBox="0.00 0.00 808.00 139.53" xmlns="http://www.w3.org/2000/svg" xmlns:xlink="http://www.w3.org/1999/xlink">
<g id="graph0" class="graph" transform="scale(1 1) rotate(0) translate(4 135.532)">
<title>TMC2208Stepper::enn</title>
<polygon fill="white" stroke="none" points="-4,4 -4,-135.532 804,-135.532 804,4 -4,4"/>
<!-- Node1 -->
<g id="node1" class="node"><title>Node1</title>
<g id="a_node1"><a xlink:title=" ">
<polygon fill="#bfbfbf" stroke="black" points="0,-4.03223 0,-23.0322 113,-23.0322 113,-4.03223 0,-4.03223"/>
<text text-anchor="middle" x="56.5" y="-11.0322" font-family="Helvetica,sans-Serif" font-size="10.00">TMC2208Stepper::enn</text>
</a>
</g>
</g>
<!-- Node2 -->
<g id="node2" class="node"><title>Node2</title>
<g id="a_node2"><a xlink:href="class_t_m_c2208_stepper.html#a5441dd87d0bcea4ffc309cb012166a57" target="_top" xlink:title=" ">
<polygon fill="white" stroke="black" points="149,-4.03223 149,-23.0322 265,-23.0322 265,-4.03223 149,-4.03223"/>
<text text-anchor="middle" x="207" y="-11.0322" font-family="Helvetica,sans-Serif" font-size="10.00">TMC2208Stepper::IOIN</text>
</a>
</g>
</g>
<!-- Node1&#45;&gt;Node2 -->
<g id="edge1" class="edge"><title>Node1&#45;&gt;Node2</title>
<path fill="none" stroke="midnightblue" d="M113.218,-13.5322C121.618,-13.5322 130.356,-13.5322 138.963,-13.5322"/>
<polygon fill="midnightblue" stroke="midnightblue" points="138.979,-17.0323 148.979,-13.5322 138.979,-10.0323 138.979,-17.0323"/>
</g>
<!-- Node3 -->
<g id="node3" class="node"><title>Node3</title>
<g id="a_node3"><a xlink:href="class_t_m_c2208_stepper.html#a2fae2050849c3ab7968012def8ea1cc5" target="_top" xlink:title=" ">
<polygon fill="white" stroke="black" points="301,-33.0322 301,-52.0322 417,-52.0322 417,-33.0322 301,-33.0322"/>
<text text-anchor="middle" x="359" y="-40.0322" font-family="Helvetica,sans-Serif" font-size="10.00">TMC2208Stepper::read</text>
</a>
</g>
</g>
<!-- Node2&#45;&gt;Node3 -->
<g id="edge2" class="edge"><title>Node2&#45;&gt;Node3</title>
<path fill="none" stroke="midnightblue" d="M257.531,-23.1083C270.784,-25.6705 285.241,-28.4655 298.952,-31.1163"/>
<polygon fill="midnightblue" stroke="midnightblue" points="298.294,-34.5538 308.776,-33.0157 299.623,-27.681 298.294,-34.5538"/>
</g>
<!-- Node4 -->
<g id="node4" class="node"><title>Node4</title>
<g id="a_node4"><a xlink:href="class_t_m_c2208_stepper.html#a3e1f6a10aa1e3e41dc2594dbe1ea8a1d" target="_top" xlink:title=" ">
<polygon fill="white" stroke="black" points="453,-90.0322 453,-109.032 619,-109.032 619,-90.0322 453,-90.0322"/>
<text text-anchor="middle" x="536" y="-97.0322" font-family="Helvetica,sans-Serif" font-size="10.00">TMC2208Stepper::_sendDatagram</text>
</a>
</g>
</g>
<!-- Node3&#45;&gt;Node4 -->
<g id="edge3" class="edge"><title>Node3&#45;&gt;Node4</title>
<path fill="none" stroke="midnightblue" d="M380.7,-52.1104C399.317,-60.4533 427.568,-72.4476 453,-80.5322 461.008,-83.0779 469.555,-85.4385 477.996,-87.5688"/>
<polygon fill="midnightblue" stroke="midnightblue" points="477.272,-90.9948 487.816,-89.9611 478.929,-84.1937 477.272,-90.9948"/>
</g>
<!-- Node8 -->
<g id="node8" class="node"><title>Node8</title>
<g id="a_node8"><a xlink:href="class_s_switch.html#a6ff09d0850d551571dc333fb74ff8628" target="_top" xlink:title=" ">
<polygon fill="white" stroke="black" points="494.5,-52.0322 494.5,-71.0322 577.5,-71.0322 577.5,-52.0322 494.5,-52.0322"/>
<text text-anchor="middle" x="536" y="-59.0322" font-family="Helvetica,sans-Serif" font-size="10.00">SSwitch::active</text>
</a>
</g>
</g>
<!-- Node3&#45;&gt;Node8 -->
<g id="edge8" class="edge"><title>Node3&#45;&gt;Node8</title>
<path fill="none" stroke="midnightblue" d="M417.302,-48.7535C438.975,-51.1066 463.465,-53.7656 484.472,-56.0463"/>
<polygon fill="midnightblue" stroke="midnightblue" points="484.158,-59.5327 494.477,-57.1326 484.913,-52.5736 484.158,-59.5327"/>
</g>
<!-- Node9 -->
<g id="node9" class="node"><title>Node9</title>
<g id="a_node9"><a xlink:href="class_t_m_c2208_stepper.html#a409c19fa6b052a370a317d061bf9af4e" target="_top" xlink:title=" ">
<polygon fill="white" stroke="black" points="468,-14.0322 468,-33.0322 604,-33.0322 604,-14.0322 468,-14.0322"/>
<text text-anchor="middle" x="536" y="-21.0322" font-family="Helvetica,sans-Serif" font-size="10.00">TMC2208Stepper::calcCRC</text>
</a>
</g>
</g>
<!-- Node3&#45;&gt;Node9 -->
<g id="edge9" class="edge"><title>Node3&#45;&gt;Node9</title>
<path fill="none" stroke="midnightblue" d="M417.302,-36.3109C430.17,-34.9138 444.032,-33.4088 457.567,-31.9392"/>
<polygon fill="midnightblue" stroke="midnightblue" points="458.269,-35.3836 467.833,-30.8246 457.514,-28.4245 458.269,-35.3836"/>
</g>
<!-- Node5 -->
<g id="node5" class="node"><title>Node5</title>
<g id="a_node5"><a xlink:href="class_t_m_c2208_stepper.html#a4ec5d2b2f5a31259c7aba1f3208d63b8" target="_top" xlink:title=" ">
<polygon fill="white" stroke="black" points="669.5,-11.0322 669.5,-30.0322 785.5,-30.0322 785.5,-11.0322 669.5,-11.0322"/>
<text text-anchor="middle" x="727.5" y="-18.0322" font-family="Helvetica,sans-Serif" font-size="10.00">TMC2208Stepper::ms2</text>
</a>
</g>
</g>
<!-- Node4&#45;&gt;Node5 -->
<g id="edge4" class="edge"><title>Node4&#45;&gt;Node5</title>
<path fill="none" stroke="midnightblue" d="M593.242,-89.9247C602.083,-87.4489 610.952,-84.3643 619,-80.5322 637.301,-71.8185 637.624,-62.9698 655,-52.5322 666.591,-45.5698 679.963,-39.1888 691.984,-33.9877"/>
<polygon fill="midnightblue" stroke="midnightblue" points="693.414,-37.1834 701.276,-30.081 690.701,-30.7305 693.414,-37.1834"/>
</g>
<!-- Node6 -->
<g id="node6" class="node"><title>Node6</title>
<g id="a_node6"><a xlink:href="class_t_m_c2208_stepper.html#ae561da4ec7c40830e97bf4dc8cf700fb" target="_top" xlink:title=" ">
<polygon fill="white" stroke="black" points="655,-112.032 655,-131.032 800,-131.032 800,-112.032 655,-112.032"/>
<text text-anchor="middle" x="727.5" y="-119.032" font-family="Helvetica,sans-Serif" font-size="10.00">TMC2208Stepper::serial_read</text>
</a>
</g>
</g>
<!-- Node4&#45;&gt;Node6 -->
<g id="edge6" class="edge"><title>Node4&#45;&gt;Node6</title>
<path fill="none" stroke="midnightblue" d="M619.015,-109.054C627.571,-110.047 636.268,-111.057 644.819,-112.05"/>
<polygon fill="midnightblue" stroke="midnightblue" points="644.438,-115.529 654.775,-113.205 645.245,-108.575 644.438,-115.529"/>
</g>
<!-- Node7 -->
<g id="node7" class="node"><title>Node7</title>
<g id="a_node7"><a xlink:href="class_t_m_c2208_stepper.html#a7dd83313385079099b0622957786a979" target="_top" xlink:title=" ">
<polygon fill="white" stroke="black" points="667,-62.5322 667,-92.5322 788,-92.5322 788,-62.5322 667,-62.5322"/>
<text text-anchor="start" x="675" y="-80.5322" font-family="Helvetica,sans-Serif" font-size="10.00">TMC2208Stepper::serial</text>
<text text-anchor="middle" x="727.5" y="-69.5322" font-family="Helvetica,sans-Serif" font-size="10.00">_write</text>
</a>
</g>
</g>
<!-- Node4&#45;&gt;Node7 -->
<g id="edge7" class="edge"><title>Node4&#45;&gt;Node7</title>
<path fill="none" stroke="midnightblue" d="M619.015,-90.0107C631.597,-88.55 644.484,-87.0539 656.767,-85.6279"/>
<polygon fill="midnightblue" stroke="midnightblue" points="657.392,-89.0789 666.922,-84.4489 656.585,-82.1256 657.392,-89.0789"/>
</g>
<!-- Node5&#45;&gt;Node2 -->
<g id="edge5" class="edge"><title>Node5&#45;&gt;Node2</title>
<path fill="none" stroke="midnightblue" d="M673.088,-10.9924C655.881,-8.34632 636.688,-5.84135 619,-4.53223 498.185,4.40943 356.893,-2.4631 275.393,-8.10973"/>
<polygon fill="midnightblue" stroke="midnightblue" points="274.998,-4.62883 265.27,-8.82619 275.492,-11.6114 274.998,-4.62883"/>
</g>
</g>
</svg>
