<?xml version="1.0" encoding="UTF-8" standalone="no"?>
<!DOCTYPE svg PUBLIC "-//W3C//DTD SVG 1.1//EN"
 "http://www.w3.org/Graphics/SVG/1.1/DTD/svg11.dtd">
<!-- Generated by graphviz version 2.38.0 (20140413.2041)
 -->
<!-- Title: TMC2160Stepper::GLOBAL_SCALER Pages: 1 -->
<svg width="611pt" height="184pt"
 viewBox="0.00 0.00 611.00 184.00" xmlns="http://www.w3.org/2000/svg" xmlns:xlink="http://www.w3.org/1999/xlink">
<g id="graph0" class="graph" transform="scale(1 1) rotate(0) translate(4 180)">
<title>TMC2160Stepper::GLOBAL_SCALER</title>
<polygon fill="white" stroke="none" points="-4,4 -4,-180 607,-180 607,4 -4,4"/>
<!-- Node1 -->
<g id="node1" class="node"><title>Node1</title>
<g id="a_node1"><a xlink:title=" ">
<polygon fill="#bfbfbf" stroke="black" points="466,-63.5 466,-93.5 603,-93.5 603,-63.5 466,-63.5"/>
<text text-anchor="start" x="474" y="-81.5" font-family="Helvetica,sans-Serif" font-size="10.00">TMC2160Stepper::GLOBAL</text>
<text text-anchor="middle" x="534.5" y="-70.5" font-family="Helvetica,sans-Serif" font-size="10.00">_SCALER</text>
</a>
</g>
</g>
<!-- Node2 -->
<g id="node2" class="node"><title>Node2</title>
<g id="a_node2"><a xlink:href="class_t_m_c2160_stepper.html#a6c84af7f87af2c616de8a6a288309ecb" target="_top" xlink:title=" ">
<polygon fill="white" stroke="black" points="300,-126 300,-145 430,-145 430,-126 300,-126"/>
<text text-anchor="middle" x="365" y="-133" font-family="Helvetica,sans-Serif" font-size="10.00">TMC2160Stepper::cs2rms</text>
</a>
</g>
</g>
<!-- Node1&#45;&gt;Node2 -->
<g id="edge1" class="edge"><title>Node1&#45;&gt;Node2</title>
<path fill="none" stroke="midnightblue" d="M484.572,-97.1853C467.399,-103.551 447.921,-110.556 430,-116.5 420.209,-119.747 409.49,-123.033 399.673,-125.938"/>
<polygon fill="midnightblue" stroke="midnightblue" points="486.241,-100.298 494.387,-93.5238 483.795,-93.7396 486.241,-100.298"/>
</g>
<!-- Node6 -->
<g id="node6" class="node"><title>Node6</title>
<g id="a_node6"><a xlink:href="class_t_m_c2160_stepper.html#ae8035a0cb8151d5227d8528e540e637d" target="_top" xlink:title=" ">
<polygon fill="white" stroke="black" points="305.5,-88 305.5,-107 424.5,-107 424.5,-88 305.5,-88"/>
<text text-anchor="middle" x="365" y="-95" font-family="Helvetica,sans-Serif" font-size="10.00">TMC2160Stepper::push</text>
</a>
</g>
</g>
<!-- Node1&#45;&gt;Node6 -->
<g id="edge5" class="edge"><title>Node1&#45;&gt;Node6</title>
<path fill="none" stroke="midnightblue" d="M455.876,-87.3051C445.406,-88.4927 434.807,-89.695 424.74,-90.837"/>
<polygon fill="midnightblue" stroke="midnightblue" points="456.312,-90.7781 465.854,-86.1733 455.523,-83.8228 456.312,-90.7781"/>
</g>
<!-- Node7 -->
<g id="node7" class="node"><title>Node7</title>
<g id="a_node7"><a xlink:href="class_t_m_c5160_stepper.html#a5a12974304588f9d01898d91ba854b87" target="_top" xlink:title=" ">
<polygon fill="white" stroke="black" points="305.5,-50 305.5,-69 424.5,-69 424.5,-50 305.5,-50"/>
<text text-anchor="middle" x="365" y="-57" font-family="Helvetica,sans-Serif" font-size="10.00">TMC5160Stepper::push</text>
</a>
</g>
</g>
<!-- Node1&#45;&gt;Node7 -->
<g id="edge6" class="edge"><title>Node1&#45;&gt;Node7</title>
<path fill="none" stroke="midnightblue" d="M455.876,-69.6949C445.406,-68.5073 434.807,-67.305 424.74,-66.163"/>
<polygon fill="midnightblue" stroke="midnightblue" points="455.523,-73.1772 465.854,-70.8267 456.312,-66.2219 455.523,-73.1772"/>
</g>
<!-- Node8 -->
<g id="node8" class="node"><title>Node8</title>
<g id="a_node8"><a xlink:href="class_t_m_c2160_stepper.html#a90a23ccb351310ef8f74a6a9f7953042" target="_top" xlink:title=" ">
<polygon fill="white" stroke="black" points="308,-0.5 308,-30.5 422,-30.5 422,-0.5 308,-0.5"/>
<text text-anchor="start" x="316" y="-18.5" font-family="Helvetica,sans-Serif" font-size="10.00">TMC2160Stepper::rms</text>
<text text-anchor="middle" x="365" y="-7.5" font-family="Helvetica,sans-Serif" font-size="10.00">_current</text>
</a>
</g>
</g>
<!-- Node1&#45;&gt;Node8 -->
<g id="edge7" class="edge"><title>Node1&#45;&gt;Node8</title>
<path fill="none" stroke="midnightblue" d="M483.785,-59.8013C458.991,-50.4759 429.402,-39.3467 406.083,-30.576"/>
<polygon fill="midnightblue" stroke="midnightblue" points="482.788,-63.1654 493.38,-63.4099 485.252,-56.6135 482.788,-63.1654"/>
</g>
<!-- Node3 -->
<g id="node3" class="node"><title>Node3</title>
<g id="a_node3"><a xlink:href="class_t_m_c2160_stepper.html#a05142aa741a7ebd105a13df39fba9d91" target="_top" xlink:title=" ">
<polygon fill="white" stroke="black" points="150,-120.5 150,-150.5 264,-150.5 264,-120.5 150,-120.5"/>
<text text-anchor="start" x="158" y="-138.5" font-family="Helvetica,sans-Serif" font-size="10.00">TMC2160Stepper::rms</text>
<text text-anchor="middle" x="207" y="-127.5" font-family="Helvetica,sans-Serif" font-size="10.00">_current</text>
</a>
</g>
</g>
<!-- Node2&#45;&gt;Node3 -->
<g id="edge2" class="edge"><title>Node2&#45;&gt;Node3</title>
<path fill="none" stroke="midnightblue" d="M289.379,-135.5C280.916,-135.5 272.4,-135.5 264.23,-135.5"/>
<polygon fill="midnightblue" stroke="midnightblue" points="289.648,-139 299.648,-135.5 289.648,-132 289.648,-139"/>
</g>
<!-- Node4 -->
<g id="node4" class="node"><title>Node4</title>
<g id="a_node4"><a xlink:href="class_t_m_c2160_stepper.html#ae0ad4338d65b9a91e1c1c39ffaff8931" target="_top" xlink:title=" ">
<polygon fill="white" stroke="black" points="0,-145.5 0,-175.5 114,-175.5 114,-145.5 0,-145.5"/>
<text text-anchor="start" x="8" y="-163.5" font-family="Helvetica,sans-Serif" font-size="10.00">TMC2160Stepper::rms</text>
<text text-anchor="middle" x="57" y="-152.5" font-family="Helvetica,sans-Serif" font-size="10.00">_current</text>
</a>
</g>
</g>
<!-- Node3&#45;&gt;Node4 -->
<g id="edge3" class="edge"><title>Node3&#45;&gt;Node4</title>
<path fill="none" stroke="midnightblue" d="M139.72,-146.696C131.204,-148.134 122.551,-149.596 114.218,-151.004"/>
<polygon fill="midnightblue" stroke="midnightblue" points="140.348,-150.14 149.625,-145.023 139.182,-143.237 140.348,-150.14"/>
</g>
<!-- Node5 -->
<g id="node5" class="node"><title>Node5</title>
<g id="a_node5"><a xlink:href="class_t_m_c5160_stepper.html#a0ab41c6b35c37c0948b5ebb1d6aa1ba6" target="_top" xlink:title=" ">
<polygon fill="white" stroke="black" points="0,-96.5 0,-126.5 114,-126.5 114,-96.5 0,-96.5"/>
<text text-anchor="start" x="8" y="-114.5" font-family="Helvetica,sans-Serif" font-size="10.00">TMC5160Stepper::rms</text>
<text text-anchor="middle" x="57" y="-103.5" font-family="Helvetica,sans-Serif" font-size="10.00">_current</text>
</a>
</g>
</g>
<!-- Node3&#45;&gt;Node5 -->
<g id="edge4" class="edge"><title>Node3&#45;&gt;Node5</title>
<path fill="none" stroke="midnightblue" d="M139.72,-124.752C131.204,-123.371 122.551,-121.968 114.218,-120.616"/>
<polygon fill="midnightblue" stroke="midnightblue" points="139.194,-128.212 149.625,-126.358 140.315,-121.302 139.194,-128.212"/>
</g>
</g>
</svg>
