<?xml version="1.0" encoding="UTF-8" standalone="no"?>
<!DOCTYPE svg PUBLIC "-//W3C//DTD SVG 1.1//EN"
 "http://www.w3.org/Graphics/SVG/1.1/DTD/svg11.dtd">
<!-- Generated by graphviz version 2.38.0 (20140413.2041)
 -->
<!-- Title: TMC2130Stepper::dc_time Pages: 1 -->
<svg width="804pt" height="104pt"
 viewBox="0.00 0.00 804.00 104.00" xmlns="http://www.w3.org/2000/svg" xmlns:xlink="http://www.w3.org/1999/xlink">
<g id="graph0" class="graph" transform="scale(1 1) rotate(0) translate(4 100)">
<title>TMC2130Stepper::dc_time</title>
<polygon fill="white" stroke="none" points="-4,4 -4,-100 800,-100 800,4 -4,4"/>
<!-- Node1 -->
<g id="node1" class="node"><title>Node1</title>
<g id="a_node1"><a xlink:title=" ">
<polygon fill="#bfbfbf" stroke="black" points="0,-38.5 0,-57.5 132,-57.5 132,-38.5 0,-38.5"/>
<text text-anchor="middle" x="66" y="-45.5" font-family="Helvetica,sans-Serif" font-size="10.00">TMC2130Stepper::dc_time</text>
</a>
</g>
</g>
<!-- Node2 -->
<g id="node2" class="node"><title>Node2</title>
<g id="a_node2"><a xlink:href="class_t_m_c2130_stepper.html#a1a90b2919efe61dd825552c2fbeca993" target="_top" xlink:title=" ">
<polygon fill="white" stroke="black" points="168,-38.5 168,-57.5 303,-57.5 303,-38.5 168,-38.5"/>
<text text-anchor="middle" x="235.5" y="-45.5" font-family="Helvetica,sans-Serif" font-size="10.00">TMC2130Stepper::DCCTRL</text>
</a>
</g>
</g>
<!-- Node1&#45;&gt;Node2 -->
<g id="edge1" class="edge"><title>Node1&#45;&gt;Node2</title>
<path fill="none" stroke="midnightblue" d="M132.239,-48C140.533,-48 149.082,-48 157.538,-48"/>
<polygon fill="midnightblue" stroke="midnightblue" points="157.783,-51.5001 167.783,-48 157.783,-44.5001 157.783,-51.5001"/>
</g>
<!-- Node3 -->
<g id="node3" class="node"><title>Node3</title>
<g id="a_node3"><a xlink:href="class_t_m_c2130_stepper.html#aed0175bff6e80ebc14e0d2606283cbe0" target="_top" xlink:title=" ">
<polygon fill="white" stroke="black" points="339,-38.5 339,-57.5 455,-57.5 455,-38.5 339,-38.5"/>
<text text-anchor="middle" x="397" y="-45.5" font-family="Helvetica,sans-Serif" font-size="10.00">TMC2130Stepper::read</text>
</a>
</g>
</g>
<!-- Node2&#45;&gt;Node3 -->
<g id="edge2" class="edge"><title>Node2&#45;&gt;Node3</title>
<path fill="none" stroke="midnightblue" d="M303.218,-48C311.593,-48 320.166,-48 328.552,-48"/>
<polygon fill="midnightblue" stroke="midnightblue" points="328.663,-51.5001 338.663,-48 328.663,-44.5001 328.663,-51.5001"/>
</g>
<!-- Node4 -->
<g id="node4" class="node"><title>Node4</title>
<g id="a_node4"><a xlink:href="class_t_m_c2130_stepper.html#aed8aa4583943e649dbf3bb1c1da90d63" target="_top" xlink:title=" ">
<polygon fill="white" stroke="black" points="491,-76.5 491,-95.5 643,-95.5 643,-76.5 491,-76.5"/>
<text text-anchor="middle" x="567" y="-83.5" font-family="Helvetica,sans-Serif" font-size="10.00">TMC2130Stepper::switchCSpin</text>
</a>
</g>
</g>
<!-- Node3&#45;&gt;Node4 -->
<g id="edge3" class="edge"><title>Node3&#45;&gt;Node4</title>
<path fill="none" stroke="midnightblue" d="M440.393,-57.589C462.763,-62.6487 490.398,-68.8996 514.047,-74.2488"/>
<polygon fill="midnightblue" stroke="midnightblue" points="513.386,-77.6875 523.911,-76.4799 514.93,-70.8599 513.386,-77.6875"/>
</g>
<!-- Node5 -->
<g id="node5" class="node"><title>Node5</title>
<g id="a_node5"><a xlink:href="class_s_w___s_p_i_class.html#af260fdc0af3f1312b106483161e559c3" target="_top" xlink:title=" ">
<polygon fill="white" stroke="black" points="679,-19.5 679,-38.5 796,-38.5 796,-19.5 679,-19.5"/>
<text text-anchor="middle" x="737.5" y="-26.5" font-family="Helvetica,sans-Serif" font-size="10.00">SW_SPIClass::transfer</text>
</a>
</g>
</g>
<!-- Node3&#45;&gt;Node5 -->
<g id="edge4" class="edge"><title>Node3&#45;&gt;Node5</title>
<path fill="none" stroke="midnightblue" d="M455.039,-44.7984C514.027,-41.4874 606.113,-36.3186 668.765,-32.802"/>
<polygon fill="midnightblue" stroke="midnightblue" points="669.156,-36.2856 678.944,-32.2306 668.763,-29.2966 669.156,-36.2856"/>
</g>
<!-- Node6 -->
<g id="node6" class="node"><title>Node6</title>
<g id="a_node6"><a xlink:href="class_s_w___s_p_i_class.html#a1b7600aa1d9571c103718c5d3e376675" target="_top" xlink:title=" ">
<polygon fill="white" stroke="black" points="503,-0.5 503,-19.5 631,-19.5 631,-0.5 503,-0.5"/>
<text text-anchor="middle" x="567" y="-7.5" font-family="Helvetica,sans-Serif" font-size="10.00">SW_SPIClass::transfer16</text>
</a>
</g>
</g>
<!-- Node3&#45;&gt;Node6 -->
<g id="edge5" class="edge"><title>Node3&#45;&gt;Node6</title>
<path fill="none" stroke="midnightblue" d="M440.393,-38.411C462.763,-33.3513 490.398,-27.1004 514.047,-21.7512"/>
<polygon fill="midnightblue" stroke="midnightblue" points="514.93,-25.1401 523.911,-19.5201 513.386,-18.3125 514.93,-25.1401"/>
</g>
<!-- Node6&#45;&gt;Node5 -->
<g id="edge6" class="edge"><title>Node6&#45;&gt;Node5</title>
<path fill="none" stroke="midnightblue" d="M631.223,-17.129C643.406,-18.5028 656.217,-19.9473 668.543,-21.3372"/>
<polygon fill="midnightblue" stroke="midnightblue" points="668.43,-24.8466 678.76,-22.4892 669.215,-17.8907 668.43,-24.8466"/>
</g>
</g>
</svg>
