<?xml version="1.0" encoding="UTF-8" standalone="no"?>
<!DOCTYPE svg PUBLIC "-//W3C//DTD SVG 1.1//EN"
 "http://www.w3.org/Graphics/SVG/1.1/DTD/svg11.dtd">
<!-- Generated by graphviz version 2.38.0 (20140413.2041)
 -->
<!-- Title: TMC2224Stepper::IOIN Pages: 1 -->
<svg width="295pt" height="332pt"
 viewBox="0.00 0.00 295.00 332.00" xmlns="http://www.w3.org/2000/svg" xmlns:xlink="http://www.w3.org/1999/xlink">
<g id="graph0" class="graph" transform="scale(1 1) rotate(0) translate(4 328)">
<title>TMC2224Stepper::IOIN</title>
<polygon fill="white" stroke="none" points="-4,4 -4,-328 291,-328 291,4 -4,4"/>
<!-- Node1 -->
<g id="node1" class="node"><title>Node1</title>
<g id="a_node1"><a xlink:title=" ">
<polygon fill="#bfbfbf" stroke="black" points="171,-152.5 171,-171.5 287,-171.5 287,-152.5 171,-152.5"/>
<text text-anchor="middle" x="229" y="-159.5" font-family="Helvetica,sans-Serif" font-size="10.00">TMC2224Stepper::IOIN</text>
</a>
</g>
</g>
<!-- Node2 -->
<g id="node2" class="node"><title>Node2</title>
<g id="a_node2"><a xlink:href="class_t_m_c2224_stepper.html#a4fc16e1cce786917e8fe885f5022d471" target="_top" xlink:title=" ">
<polygon fill="white" stroke="black" points="13.5,-304.5 13.5,-323.5 121.5,-323.5 121.5,-304.5 13.5,-304.5"/>
<text text-anchor="middle" x="67.5" y="-311.5" font-family="Helvetica,sans-Serif" font-size="10.00">TMC2224Stepper::dir</text>
</a>
</g>
</g>
<!-- Node1&#45;&gt;Node2 -->
<g id="edge1" class="edge"><title>Node1&#45;&gt;Node2</title>
<path fill="none" stroke="midnightblue" d="M219.774,-181.175C206.329,-210.218 176.884,-265.134 135,-295 129.525,-298.904 123.264,-302.009 116.821,-304.478"/>
<polygon fill="midnightblue" stroke="midnightblue" points="223.107,-182.297 223.997,-171.74 216.717,-179.437 223.107,-182.297"/>
</g>
<!-- Node3 -->
<g id="node3" class="node"><title>Node3</title>
<g id="a_node3"><a xlink:href="class_t_m_c2224_stepper.html#a2f2a8ebb0cebaf5bef7da211904a5021" target="_top" xlink:title=" ">
<polygon fill="white" stroke="black" points="11,-266.5 11,-285.5 124,-285.5 124,-266.5 11,-266.5"/>
<text text-anchor="middle" x="67.5" y="-273.5" font-family="Helvetica,sans-Serif" font-size="10.00">TMC2224Stepper::enn</text>
</a>
</g>
</g>
<!-- Node1&#45;&gt;Node3 -->
<g id="edge2" class="edge"><title>Node1&#45;&gt;Node3</title>
<path fill="none" stroke="midnightblue" d="M215.158,-179.927C198.881,-201.358 168.835,-236.849 135,-257 128.501,-260.871 121.173,-263.987 113.818,-266.486"/>
<polygon fill="midnightblue" stroke="midnightblue" points="218.121,-181.807 221.262,-171.688 212.496,-177.64 218.121,-181.807"/>
</g>
<!-- Node4 -->
<g id="node4" class="node"><title>Node4</title>
<g id="a_node4"><a xlink:href="class_t_m_c2224_stepper.html#aabae8c85472de339ada22f0f61021546" target="_top" xlink:title=" ">
<polygon fill="white" stroke="black" points="9.5,-228.5 9.5,-247.5 125.5,-247.5 125.5,-228.5 9.5,-228.5"/>
<text text-anchor="middle" x="67.5" y="-235.5" font-family="Helvetica,sans-Serif" font-size="10.00">TMC2224Stepper::ms1</text>
</a>
</g>
</g>
<!-- Node1&#45;&gt;Node4 -->
<g id="edge3" class="edge"><title>Node1&#45;&gt;Node4</title>
<path fill="none" stroke="midnightblue" d="M206.639,-177.42C188.357,-190.035 160.954,-207.593 135,-219 126.646,-222.672 117.391,-225.838 108.506,-228.475"/>
<polygon fill="midnightblue" stroke="midnightblue" points="208.896,-180.112 215.072,-171.504 204.876,-174.382 208.896,-180.112"/>
</g>
<!-- Node5 -->
<g id="node5" class="node"><title>Node5</title>
<g id="a_node5"><a xlink:href="class_t_m_c2224_stepper.html#afdfe66e472e9a9e5889fb7a4d1f8c117" target="_top" xlink:title=" ">
<polygon fill="white" stroke="black" points="9.5,-190.5 9.5,-209.5 125.5,-209.5 125.5,-190.5 9.5,-190.5"/>
<text text-anchor="middle" x="67.5" y="-197.5" font-family="Helvetica,sans-Serif" font-size="10.00">TMC2224Stepper::ms2</text>
</a>
</g>
</g>
<!-- Node1&#45;&gt;Node5 -->
<g id="edge4" class="edge"><title>Node1&#45;&gt;Node5</title>
<path fill="none" stroke="midnightblue" d="M177.766,-173.968C155.414,-179.293 129.462,-185.476 108.459,-190.48"/>
<polygon fill="midnightblue" stroke="midnightblue" points="178.835,-177.311 187.751,-171.589 177.212,-170.502 178.835,-177.311"/>
</g>
<!-- Node6 -->
<g id="node6" class="node"><title>Node6</title>
<g id="a_node6"><a xlink:href="class_t_m_c2224_stepper.html#a82d470cbe0cb44558eb18c724b1ae1a2" target="_top" xlink:title=" ">
<polygon fill="white" stroke="black" points="0,-152.5 0,-171.5 135,-171.5 135,-152.5 0,-152.5"/>
<text text-anchor="middle" x="67.5" y="-159.5" font-family="Helvetica,sans-Serif" font-size="10.00">TMC2224Stepper::pdn_uart</text>
</a>
</g>
</g>
<!-- Node1&#45;&gt;Node6 -->
<g id="edge5" class="edge"><title>Node1&#45;&gt;Node6</title>
<path fill="none" stroke="midnightblue" d="M160.642,-162C152.159,-162 143.484,-162 135.014,-162"/>
<polygon fill="midnightblue" stroke="midnightblue" points="160.867,-165.5 170.867,-162 160.867,-158.5 160.867,-165.5"/>
</g>
<!-- Node7 -->
<g id="node7" class="node"><title>Node7</title>
<g id="a_node7"><a xlink:href="class_t_m_c2224_stepper.html#accf4ed8a7f08c7efb9f16562f6fa756f" target="_top" xlink:title=" ">
<polygon fill="white" stroke="black" points="7,-114.5 7,-133.5 128,-133.5 128,-114.5 7,-114.5"/>
<text text-anchor="middle" x="67.5" y="-121.5" font-family="Helvetica,sans-Serif" font-size="10.00">TMC2224Stepper::sel_a</text>
</a>
</g>
</g>
<!-- Node1&#45;&gt;Node7 -->
<g id="edge6" class="edge"><title>Node1&#45;&gt;Node7</title>
<path fill="none" stroke="midnightblue" d="M177.766,-150.032C155.414,-144.707 129.462,-138.524 108.459,-133.52"/>
<polygon fill="midnightblue" stroke="midnightblue" points="177.212,-153.498 187.751,-152.411 178.835,-146.689 177.212,-153.498"/>
</g>
<!-- Node8 -->
<g id="node8" class="node"><title>Node8</title>
<g id="a_node8"><a xlink:href="class_t_m_c2224_stepper.html#a89b3a941b66bc63fd829bff1e9b93b57" target="_top" xlink:title=" ">
<polygon fill="white" stroke="black" points="4,-76.5 4,-95.5 131,-95.5 131,-76.5 4,-76.5"/>
<text text-anchor="middle" x="67.5" y="-83.5" font-family="Helvetica,sans-Serif" font-size="10.00">TMC2224Stepper::spread</text>
</a>
</g>
</g>
<!-- Node1&#45;&gt;Node8 -->
<g id="edge7" class="edge"><title>Node1&#45;&gt;Node8</title>
<path fill="none" stroke="midnightblue" d="M206.639,-146.58C188.357,-133.965 160.954,-116.407 135,-105 126.646,-101.328 117.391,-98.1623 108.506,-95.5251"/>
<polygon fill="midnightblue" stroke="midnightblue" points="204.876,-149.618 215.072,-152.496 208.896,-143.888 204.876,-149.618"/>
</g>
<!-- Node9 -->
<g id="node9" class="node"><title>Node9</title>
<g id="a_node9"><a xlink:href="class_t_m_c2224_stepper.html#a6c39bd801b74acc912ccad9d56b5ffe0" target="_top" xlink:title=" ">
<polygon fill="white" stroke="black" points="9.5,-38.5 9.5,-57.5 125.5,-57.5 125.5,-38.5 9.5,-38.5"/>
<text text-anchor="middle" x="67.5" y="-45.5" font-family="Helvetica,sans-Serif" font-size="10.00">TMC2224Stepper::step</text>
</a>
</g>
</g>
<!-- Node1&#45;&gt;Node9 -->
<g id="edge8" class="edge"><title>Node1&#45;&gt;Node9</title>
<path fill="none" stroke="midnightblue" d="M215.158,-144.073C198.881,-122.642 168.835,-87.1515 135,-67 128.501,-63.1292 121.173,-60.0129 113.818,-57.5141"/>
<polygon fill="midnightblue" stroke="midnightblue" points="212.496,-146.36 221.262,-152.312 218.121,-142.193 212.496,-146.36"/>
</g>
<!-- Node10 -->
<g id="node10" class="node"><title>Node10</title>
<g id="a_node10"><a xlink:href="class_t_m_c2224_stepper.html#ae35bc910232757fc0070509119355d9b" target="_top" xlink:title=" ">
<polygon fill="white" stroke="black" points="3.5,-0.5 3.5,-19.5 131.5,-19.5 131.5,-0.5 3.5,-0.5"/>
<text text-anchor="middle" x="67.5" y="-7.5" font-family="Helvetica,sans-Serif" font-size="10.00">TMC2224Stepper::version</text>
</a>
</g>
</g>
<!-- Node1&#45;&gt;Node10 -->
<g id="edge9" class="edge"><title>Node1&#45;&gt;Node10</title>
<path fill="none" stroke="midnightblue" d="M219.774,-142.825C206.329,-113.782 176.884,-58.866 135,-29 129.525,-25.0962 123.264,-21.9911 116.821,-19.5222"/>
<polygon fill="midnightblue" stroke="midnightblue" points="216.717,-144.563 223.997,-152.26 223.107,-141.703 216.717,-144.563"/>
</g>
</g>
</svg>
