<?xml version="1.0" encoding="UTF-8" standalone="no"?>
<!DOCTYPE svg PUBLIC "-//W3C//DTD SVG 1.1//EN"
 "http://www.w3.org/Graphics/SVG/1.1/DTD/svg11.dtd">
<!-- Generated by graphviz version 2.38.0 (20140413.2041)
 -->
<!-- Title: TMC2208Stepper::PWM_AUTO Pages: 1 -->
<svg width="849pt" height="156pt"
 viewBox="0.00 0.00 849.00 156.41" xmlns="http://www.w3.org/2000/svg" xmlns:xlink="http://www.w3.org/1999/xlink">
<g id="graph0" class="graph" transform="scale(1 1) rotate(0) translate(4 152.405)">
<title>TMC2208Stepper::PWM_AUTO</title>
<polygon fill="white" stroke="none" points="-4,4 -4,-152.405 845,-152.405 845,4 -4,4"/>
<!-- Node1 -->
<g id="node1" class="node"><title>Node1</title>
<g id="a_node1"><a xlink:title=" ">
<polygon fill="#bfbfbf" stroke="black" points="0,-46.9052 0,-65.9052 154,-65.9052 154,-46.9052 0,-46.9052"/>
<text text-anchor="middle" x="77" y="-53.9052" font-family="Helvetica,sans-Serif" font-size="10.00">TMC2208Stepper::PWM_AUTO</text>
</a>
</g>
</g>
<!-- Node2 -->
<g id="node2" class="node"><title>Node2</title>
<g id="a_node2"><a xlink:href="class_t_m_c2208_stepper.html#a2fae2050849c3ab7968012def8ea1cc5" target="_top" xlink:title=" ">
<polygon fill="white" stroke="black" points="190,-46.9052 190,-65.9052 306,-65.9052 306,-46.9052 190,-46.9052"/>
<text text-anchor="middle" x="248" y="-53.9052" font-family="Helvetica,sans-Serif" font-size="10.00">TMC2208Stepper::read</text>
</a>
</g>
</g>
<!-- Node1&#45;&gt;Node2 -->
<g id="edge1" class="edge"><title>Node1&#45;&gt;Node2</title>
<path fill="none" stroke="midnightblue" d="M154.095,-56.4052C162.629,-56.4052 171.277,-56.4052 179.689,-56.4052"/>
<polygon fill="midnightblue" stroke="midnightblue" points="179.807,-59.9053 189.807,-56.4052 179.807,-52.9053 179.807,-59.9053"/>
</g>
<!-- Node3 -->
<g id="node3" class="node"><title>Node3</title>
<g id="a_node3"><a xlink:href="class_t_m_c2208_stepper.html#a3e1f6a10aa1e3e41dc2594dbe1ea8a1d" target="_top" xlink:title=" ">
<polygon fill="white" stroke="black" points="342,-103.905 342,-122.905 508,-122.905 508,-103.905 342,-103.905"/>
<text text-anchor="middle" x="425" y="-110.905" font-family="Helvetica,sans-Serif" font-size="10.00">TMC2208Stepper::_sendDatagram</text>
</a>
</g>
</g>
<!-- Node2&#45;&gt;Node3 -->
<g id="edge2" class="edge"><title>Node2&#45;&gt;Node3</title>
<path fill="none" stroke="midnightblue" d="M269.7,-65.9833C288.317,-74.3262 316.568,-86.3205 342,-94.4052 350.008,-96.9508 358.555,-99.3114 366.996,-101.442"/>
<polygon fill="midnightblue" stroke="midnightblue" points="366.272,-104.868 376.816,-103.834 367.929,-98.0666 366.272,-104.868"/>
</g>
<!-- Node8 -->
<g id="node8" class="node"><title>Node8</title>
<g id="a_node8"><a xlink:href="class_s_switch.html#a6ff09d0850d551571dc333fb74ff8628" target="_top" xlink:title=" ">
<polygon fill="white" stroke="black" points="383.5,-65.9052 383.5,-84.9052 466.5,-84.9052 466.5,-65.9052 383.5,-65.9052"/>
<text text-anchor="middle" x="425" y="-72.9052" font-family="Helvetica,sans-Serif" font-size="10.00">SSwitch::active</text>
</a>
</g>
</g>
<!-- Node2&#45;&gt;Node8 -->
<g id="edge8" class="edge"><title>Node2&#45;&gt;Node8</title>
<path fill="none" stroke="midnightblue" d="M306.302,-62.6265C327.975,-64.9796 352.465,-67.6385 373.472,-69.9193"/>
<polygon fill="midnightblue" stroke="midnightblue" points="373.158,-73.4056 383.477,-71.0055 373.913,-66.4465 373.158,-73.4056"/>
</g>
<!-- Node9 -->
<g id="node9" class="node"><title>Node9</title>
<g id="a_node9"><a xlink:href="class_t_m_c2208_stepper.html#a409c19fa6b052a370a317d061bf9af4e" target="_top" xlink:title=" ">
<polygon fill="white" stroke="black" points="357,-27.9052 357,-46.9052 493,-46.9052 493,-27.9052 357,-27.9052"/>
<text text-anchor="middle" x="425" y="-34.9052" font-family="Helvetica,sans-Serif" font-size="10.00">TMC2208Stepper::calcCRC</text>
</a>
</g>
</g>
<!-- Node2&#45;&gt;Node9 -->
<g id="edge9" class="edge"><title>Node2&#45;&gt;Node9</title>
<path fill="none" stroke="midnightblue" d="M306.302,-50.1839C319.17,-48.7867 333.032,-47.2817 346.567,-45.8121"/>
<polygon fill="midnightblue" stroke="midnightblue" points="347.269,-49.2566 356.833,-44.6976 346.514,-42.2975 347.269,-49.2566"/>
</g>
<!-- Node4 -->
<g id="node4" class="node"><title>Node4</title>
<g id="a_node4"><a xlink:href="class_t_m_c2208_stepper.html#a4ec5d2b2f5a31259c7aba1f3208d63b8" target="_top" xlink:title=" ">
<polygon fill="white" stroke="black" points="558.5,-128.905 558.5,-147.905 674.5,-147.905 674.5,-128.905 558.5,-128.905"/>
<text text-anchor="middle" x="616.5" y="-135.905" font-family="Helvetica,sans-Serif" font-size="10.00">TMC2208Stepper::ms2</text>
</a>
</g>
</g>
<!-- Node3&#45;&gt;Node4 -->
<g id="edge3" class="edge"><title>Node3&#45;&gt;Node4</title>
<path fill="none" stroke="midnightblue" d="M498.182,-122.928C514.64,-125.099 532.062,-127.397 548.301,-129.54"/>
<polygon fill="midnightblue" stroke="midnightblue" points="547.868,-133.013 558.24,-130.851 548.784,-126.073 547.868,-133.013"/>
</g>
<!-- Node6 -->
<g id="node6" class="node"><title>Node6</title>
<g id="a_node6"><a xlink:href="class_t_m_c2208_stepper.html#ae561da4ec7c40830e97bf4dc8cf700fb" target="_top" xlink:title=" ">
<polygon fill="white" stroke="black" points="544,-90.9052 544,-109.905 689,-109.905 689,-90.9052 544,-90.9052"/>
<text text-anchor="middle" x="616.5" y="-97.9052" font-family="Helvetica,sans-Serif" font-size="10.00">TMC2208Stepper::serial_read</text>
</a>
</g>
</g>
<!-- Node3&#45;&gt;Node6 -->
<g id="edge6" class="edge"><title>Node3&#45;&gt;Node6</title>
<path fill="none" stroke="midnightblue" d="M508.015,-107.779C516.478,-107.198 525.078,-106.608 533.54,-106.028"/>
<polygon fill="midnightblue" stroke="midnightblue" points="534.038,-109.502 543.775,-105.326 533.559,-102.518 534.038,-109.502"/>
</g>
<!-- Node7 -->
<g id="node7" class="node"><title>Node7</title>
<g id="a_node7"><a xlink:href="class_t_m_c2208_stepper.html#a7dd83313385079099b0622957786a979" target="_top" xlink:title=" ">
<polygon fill="white" stroke="black" points="556,-41.4052 556,-71.4052 677,-71.4052 677,-41.4052 556,-41.4052"/>
<text text-anchor="start" x="564" y="-59.4052" font-family="Helvetica,sans-Serif" font-size="10.00">TMC2208Stepper::serial</text>
<text text-anchor="middle" x="616.5" y="-48.4052" font-family="Helvetica,sans-Serif" font-size="10.00">_write</text>
</a>
</g>
</g>
<!-- Node3&#45;&gt;Node7 -->
<g id="edge7" class="edge"><title>Node3&#45;&gt;Node7</title>
<path fill="none" stroke="midnightblue" d="M471.793,-103.808C483.658,-101.045 496.367,-97.8399 508,-94.4052 524.315,-89.5878 527.971,-87.1015 544,-81.4052 550.017,-79.2668 556.325,-77.0401 562.595,-74.8355"/>
<polygon fill="midnightblue" stroke="midnightblue" points="564.095,-78.0185 572.372,-71.4052 561.778,-71.4133 564.095,-78.0185"/>
</g>
<!-- Node5 -->
<g id="node5" class="node"><title>Node5</title>
<g id="a_node5"><a xlink:href="class_t_m_c2208_stepper.html#a5441dd87d0bcea4ffc309cb012166a57" target="_top" xlink:title=" ">
<polygon fill="white" stroke="black" points="725,-58.9052 725,-77.9052 841,-77.9052 841,-58.9052 725,-58.9052"/>
<text text-anchor="middle" x="783" y="-65.9052" font-family="Helvetica,sans-Serif" font-size="10.00">TMC2208Stepper::IOIN</text>
</a>
</g>
</g>
<!-- Node4&#45;&gt;Node5 -->
<g id="edge4" class="edge"><title>Node4&#45;&gt;Node5</title>
<path fill="none" stroke="midnightblue" d="M660.395,-128.814C669.954,-126.18 679.937,-123.032 689,-119.405 713.717,-109.514 740.177,-94.529 758.529,-83.3584"/>
<polygon fill="midnightblue" stroke="midnightblue" points="760.423,-86.3019 767.088,-78.0661 756.742,-80.348 760.423,-86.3019"/>
</g>
<!-- Node5&#45;&gt;Node2 -->
<g id="edge5" class="edge"><title>Node5&#45;&gt;Node2</title>
<path fill="none" stroke="midnightblue" d="M762.963,-58.8176C744.546,-50.0326 715.593,-37.4965 689,-31.4052 538.566,3.05335 493.437,11.3399 342,-18.4052 318.751,-22.9717 293.989,-33.3919 275.866,-42.1675"/>
<polygon fill="midnightblue" stroke="midnightblue" points="273.917,-39.2285 266.532,-46.826 277.043,-45.4917 273.917,-39.2285"/>
</g>
</g>
</svg>
