<?xml version="1.0" encoding="UTF-8" standalone="no"?>
<!DOCTYPE svg PUBLIC "-//W3C//DTD SVG 1.1//EN"
 "http://www.w3.org/Graphics/SVG/1.1/DTD/svg11.dtd">
<!-- Generated by graphviz version 2.38.0 (20140413.2041)
 -->
<!-- Title: TMC2660Stepper::intpol Pages: 1 -->
<svg width="440pt" height="47pt"
 viewBox="0.00 0.00 440.00 47.00" xmlns="http://www.w3.org/2000/svg" xmlns:xlink="http://www.w3.org/1999/xlink">
<g id="graph0" class="graph" transform="scale(1 1) rotate(0) translate(4 43)">
<title>TMC2660Stepper::intpol</title>
<polygon fill="white" stroke="none" points="-4,4 -4,-43 436,-43 436,4 -4,4"/>
<!-- Node1 -->
<g id="node1" class="node"><title>Node1</title>
<g id="a_node1"><a xlink:title=" ">
<polygon fill="#bfbfbf" stroke="black" points="0,-0.5 0,-19.5 121,-19.5 121,-0.5 0,-0.5"/>
<text text-anchor="middle" x="60.5" y="-7.5" font-family="Helvetica,sans-Serif" font-size="10.00">TMC2660Stepper::intpol</text>
</a>
</g>
</g>
<!-- Node2 -->
<g id="node2" class="node"><title>Node2</title>
<g id="a_node2"><a xlink:href="class_t_m_c2660_stepper.html#a75917a3c209b939392c44a2012287820" target="_top" xlink:title=" ">
<polygon fill="white" stroke="black" points="157,-19.5 157,-38.5 278,-38.5 278,-19.5 157,-19.5"/>
<text text-anchor="middle" x="217.5" y="-26.5" font-family="Helvetica,sans-Serif" font-size="10.00">TMC2660Stepper::intpol</text>
</a>
</g>
</g>
<!-- Node1&#45;&gt;Node2 -->
<g id="edge1" class="edge"><title>Node1&#45;&gt;Node2</title>
<path fill="none" stroke="midnightblue" d="M121.427,-17.3459C129.816,-18.3742 138.494,-19.438 147.041,-20.4856"/>
<polygon fill="midnightblue" stroke="midnightblue" points="146.636,-23.9622 156.988,-21.7049 147.488,-17.0142 146.636,-23.9622"/>
</g>
<!-- Node3 -->
<g id="node3" class="node"><title>Node3</title>
<g id="a_node3"><a xlink:href="class_t_m_c2660_stepper.html#aa20df51be5967e40cc23132a1d461275" target="_top" xlink:title=" ">
<polygon fill="white" stroke="black" points="314,-0.5 314,-19.5 432,-19.5 432,-0.5 314,-0.5"/>
<text text-anchor="middle" x="373" y="-7.5" font-family="Helvetica,sans-Serif" font-size="10.00">TMC2660Stepper::sdoff</text>
</a>
</g>
</g>
<!-- Node1&#45;&gt;Node3 -->
<g id="edge3" class="edge"><title>Node1&#45;&gt;Node3</title>
<path fill="none" stroke="midnightblue" d="M121,-10C173.111,-10 248.833,-10 303.465,-10"/>
<polygon fill="midnightblue" stroke="midnightblue" points="303.753,-13.5001 313.753,-10 303.753,-6.5001 303.753,-13.5001"/>
</g>
<!-- Node2&#45;&gt;Node3 -->
<g id="edge2" class="edge"><title>Node2&#45;&gt;Node3</title>
<path fill="none" stroke="midnightblue" d="M278.287,-21.5997C286.697,-20.5587 295.393,-19.4823 303.943,-18.424"/>
<polygon fill="midnightblue" stroke="midnightblue" points="304.394,-21.895 313.888,-17.193 303.534,-14.948 304.394,-21.895"/>
</g>
</g>
</svg>
