<?xml version="1.0" encoding="UTF-8" standalone="no"?>
<!DOCTYPE svg PUBLIC "-//W3C//DTD SVG 1.1//EN"
 "http://www.w3.org/Graphics/SVG/1.1/DTD/svg11.dtd">
<!-- Generated by graphviz version 2.38.0 (20140413.2041)
 -->
<!-- Title: TMC2208Stepper::_sendDatagram Pages: 1 -->
<svg width="831pt" height="136pt"
 viewBox="0.00 0.00 831.00 136.05" xmlns="http://www.w3.org/2000/svg" xmlns:xlink="http://www.w3.org/1999/xlink">
<g id="graph0" class="graph" transform="scale(1 1) rotate(0) translate(4 132.046)">
<title>TMC2208Stepper::_sendDatagram</title>
<polygon fill="white" stroke="none" points="-4,4 -4,-132.046 827,-132.046 827,4 -4,4"/>
<!-- Node1 -->
<g id="node1" class="node"><title>Node1</title>
<g id="a_node1"><a xlink:title=" ">
<polygon fill="#bfbfbf" stroke="black" points="0,-48.5461 0,-67.5461 166,-67.5461 166,-48.5461 0,-48.5461"/>
<text text-anchor="middle" x="83" y="-55.5461" font-family="Helvetica,sans-Serif" font-size="10.00">TMC2208Stepper::_sendDatagram</text>
</a>
</g>
</g>
<!-- Node2 -->
<g id="node2" class="node"><title>Node2</title>
<g id="a_node2"><a xlink:href="class_t_m_c2208_stepper.html#a4ec5d2b2f5a31259c7aba1f3208d63b8" target="_top" xlink:title=" ">
<polygon fill="white" stroke="black" points="216.5,-108.546 216.5,-127.546 332.5,-127.546 332.5,-108.546 216.5,-108.546"/>
<text text-anchor="middle" x="274.5" y="-115.546" font-family="Helvetica,sans-Serif" font-size="10.00">TMC2208Stepper::ms2</text>
</a>
</g>
</g>
<!-- Node1&#45;&gt;Node2 -->
<g id="edge1" class="edge"><title>Node1&#45;&gt;Node2</title>
<path fill="none" stroke="midnightblue" d="M109.599,-67.561C133.379,-76.2514 169.857,-89.2061 202,-99.0461 209.599,-101.372 217.702,-103.684 225.621,-105.852"/>
<polygon fill="midnightblue" stroke="midnightblue" points="224.935,-109.292 235.501,-108.512 226.755,-102.533 224.935,-109.292"/>
</g>
<!-- Node7 -->
<g id="node7" class="node"><title>Node7</title>
<g id="a_node7"><a xlink:href="class_t_m_c2208_stepper.html#ae561da4ec7c40830e97bf4dc8cf700fb" target="_top" xlink:title=" ">
<polygon fill="white" stroke="black" points="202,-70.5461 202,-89.5461 347,-89.5461 347,-70.5461 202,-70.5461"/>
<text text-anchor="middle" x="274.5" y="-77.5461" font-family="Helvetica,sans-Serif" font-size="10.00">TMC2208Stepper::serial_read</text>
</a>
</g>
</g>
<!-- Node1&#45;&gt;Node7 -->
<g id="edge7" class="edge"><title>Node1&#45;&gt;Node7</title>
<path fill="none" stroke="midnightblue" d="M166.015,-67.5676C174.571,-68.5609 183.268,-69.5705 191.819,-70.5634"/>
<polygon fill="midnightblue" stroke="midnightblue" points="191.438,-74.0425 201.775,-71.7191 192.245,-67.0892 191.438,-74.0425"/>
</g>
<!-- Node8 -->
<g id="node8" class="node"><title>Node8</title>
<g id="a_node8"><a xlink:href="class_t_m_c2208_stepper.html#a7dd83313385079099b0622957786a979" target="_top" xlink:title=" ">
<polygon fill="white" stroke="black" points="214,-21.0461 214,-51.0461 335,-51.0461 335,-21.0461 214,-21.0461"/>
<text text-anchor="start" x="222" y="-39.0461" font-family="Helvetica,sans-Serif" font-size="10.00">TMC2208Stepper::serial</text>
<text text-anchor="middle" x="274.5" y="-28.0461" font-family="Helvetica,sans-Serif" font-size="10.00">_write</text>
</a>
</g>
</g>
<!-- Node1&#45;&gt;Node8 -->
<g id="edge8" class="edge"><title>Node1&#45;&gt;Node8</title>
<path fill="none" stroke="midnightblue" d="M166.015,-48.5245C178.597,-47.0638 191.484,-45.5677 203.767,-44.1418"/>
<polygon fill="midnightblue" stroke="midnightblue" points="204.392,-47.5927 213.922,-42.9628 203.585,-40.6394 204.392,-47.5927"/>
</g>
<!-- Node3 -->
<g id="node3" class="node"><title>Node3</title>
<g id="a_node3"><a xlink:href="class_t_m_c2208_stepper.html#a5441dd87d0bcea4ffc309cb012166a57" target="_top" xlink:title=" ">
<polygon fill="white" stroke="black" points="383,-64.5461 383,-83.5461 499,-83.5461 499,-64.5461 383,-64.5461"/>
<text text-anchor="middle" x="441" y="-71.5461" font-family="Helvetica,sans-Serif" font-size="10.00">TMC2208Stepper::IOIN</text>
</a>
</g>
</g>
<!-- Node2&#45;&gt;Node3 -->
<g id="edge2" class="edge"><title>Node2&#45;&gt;Node3</title>
<path fill="none" stroke="midnightblue" d="M311.513,-108.498C322.869,-105.481 335.46,-102.13 347,-99.0461 362.635,-94.8673 379.742,-90.2744 394.973,-86.178"/>
<polygon fill="midnightblue" stroke="midnightblue" points="395.93,-89.5451 404.677,-83.5671 394.111,-82.7855 395.93,-89.5451"/>
</g>
<!-- Node4 -->
<g id="node4" class="node"><title>Node4</title>
<g id="a_node4"><a xlink:href="class_t_m_c2208_stepper.html#a2fae2050849c3ab7968012def8ea1cc5" target="_top" xlink:title=" ">
<polygon fill="white" stroke="black" points="535,-23.5461 535,-42.5461 651,-42.5461 651,-23.5461 535,-23.5461"/>
<text text-anchor="middle" x="593" y="-30.5461" font-family="Helvetica,sans-Serif" font-size="10.00">TMC2208Stepper::read</text>
</a>
</g>
</g>
<!-- Node3&#45;&gt;Node4 -->
<g id="edge3" class="edge"><title>Node3&#45;&gt;Node4</title>
<path fill="none" stroke="midnightblue" d="M476.79,-64.5368C497.824,-58.7876 524.848,-51.4009 547.436,-45.2268"/>
<polygon fill="midnightblue" stroke="midnightblue" points="548.416,-48.5875 557.139,-42.5747 546.57,-41.8352 548.416,-48.5875"/>
</g>
<!-- Node4&#45;&gt;Node1 -->
<g id="edge4" class="edge"><title>Node4&#45;&gt;Node1</title>
<path fill="none" stroke="midnightblue" d="M547.372,-23.5108C474.417,-9.48456 325.38,12.6212 202,-11.0461 169.407,-17.2982 134.354,-32.4431 110.997,-43.864"/>
<polygon fill="midnightblue" stroke="midnightblue" points="109.122,-40.8889 101.745,-48.4939 112.254,-47.1489 109.122,-40.8889"/>
</g>
<!-- Node5 -->
<g id="node5" class="node"><title>Node5</title>
<g id="a_node5"><a xlink:href="class_s_switch.html#a6ff09d0850d551571dc333fb74ff8628" target="_top" xlink:title=" ">
<polygon fill="white" stroke="black" points="713.5,-42.5461 713.5,-61.5461 796.5,-61.5461 796.5,-42.5461 713.5,-42.5461"/>
<text text-anchor="middle" x="755" y="-49.5461" font-family="Helvetica,sans-Serif" font-size="10.00">SSwitch::active</text>
</a>
</g>
</g>
<!-- Node4&#45;&gt;Node5 -->
<g id="edge5" class="edge"><title>Node4&#45;&gt;Node5</title>
<path fill="none" stroke="midnightblue" d="M651.312,-39.8518C668.242,-41.8623 686.651,-44.0483 703.145,-46.007"/>
<polygon fill="midnightblue" stroke="midnightblue" points="702.794,-49.4898 713.137,-47.1936 703.619,-42.5387 702.794,-49.4898"/>
</g>
<!-- Node6 -->
<g id="node6" class="node"><title>Node6</title>
<g id="a_node6"><a xlink:href="class_t_m_c2208_stepper.html#a409c19fa6b052a370a317d061bf9af4e" target="_top" xlink:title=" ">
<polygon fill="white" stroke="black" points="687,-4.54607 687,-23.5461 823,-23.5461 823,-4.54607 687,-4.54607"/>
<text text-anchor="middle" x="755" y="-11.5461" font-family="Helvetica,sans-Serif" font-size="10.00">TMC2208Stepper::calcCRC</text>
</a>
</g>
</g>
<!-- Node4&#45;&gt;Node6 -->
<g id="edge6" class="edge"><title>Node4&#45;&gt;Node6</title>
<path fill="none" stroke="midnightblue" d="M651.312,-26.2403C659.561,-25.2607 668.162,-24.2394 676.72,-23.223"/>
<polygon fill="midnightblue" stroke="midnightblue" points="677.208,-26.6898 686.725,-22.035 676.382,-19.7387 677.208,-26.6898"/>
</g>
</g>
</svg>
