<?xml version="1.0" encoding="UTF-8" standalone="no"?>
<!DOCTYPE svg PUBLIC "-//W3C//DTD SVG 1.1//EN"
 "http://www.w3.org/Graphics/SVG/1.1/DTD/svg11.dtd">
<!-- Generated by graphviz version 2.38.0 (20140413.2041)
 -->
<!-- Title: TMC2208Stepper Pages: 1 -->
<svg width="210pt" height="140pt"
 viewBox="0.00 0.00 210.00 140.00" xmlns="http://www.w3.org/2000/svg" xmlns:xlink="http://www.w3.org/1999/xlink">
<g id="graph0" class="graph" transform="scale(1 1) rotate(0) translate(4 136)">
<title>TMC2208Stepper</title>
<polygon fill="white" stroke="none" points="-4,4 -4,-136 206,-136 206,4 -4,4"/>
<!-- Node1 -->
<g id="node1" class="node"><title>Node1</title>
<g id="a_node1"><a xlink:title=" ">
<polygon fill="#bfbfbf" stroke="black" points="55,-56.5 55,-75.5 147,-75.5 147,-56.5 55,-56.5"/>
<text text-anchor="middle" x="101" y="-63.5" font-family="Helvetica,sans-Serif" font-size="10.00">TMC2208Stepper</text>
</a>
</g>
</g>
<!-- Node3 -->
<g id="node3" class="node"><title>Node3</title>
<g id="a_node3"><a xlink:href="class_t_m_c2209_stepper.html" target="_top" xlink:title=" ">
<polygon fill="white" stroke="black" points="0,-0.5 0,-19.5 92,-19.5 92,-0.5 0,-0.5"/>
<text text-anchor="middle" x="46" y="-7.5" font-family="Helvetica,sans-Serif" font-size="10.00">TMC2209Stepper</text>
</a>
</g>
</g>
<!-- Node1&#45;&gt;Node3 -->
<g id="edge2" class="edge"><title>Node1&#45;&gt;Node3</title>
<path fill="none" stroke="midnightblue" d="M84.7062,-49.0024C74.9594,-39.4329 62.947,-27.6389 54.9131,-19.7511"/>
<polygon fill="midnightblue" stroke="midnightblue" points="82.3301,-51.5746 91.9179,-56.083 87.2343,-46.5796 82.3301,-51.5746"/>
</g>
<!-- Node4 -->
<g id="node4" class="node"><title>Node4</title>
<g id="a_node4"><a xlink:href="class_t_m_c2224_stepper.html" target="_top" xlink:title=" ">
<polygon fill="white" stroke="black" points="110,-0.5 110,-19.5 202,-19.5 202,-0.5 110,-0.5"/>
<text text-anchor="middle" x="156" y="-7.5" font-family="Helvetica,sans-Serif" font-size="10.00">TMC2224Stepper</text>
</a>
</g>
</g>
<!-- Node1&#45;&gt;Node4 -->
<g id="edge3" class="edge"><title>Node1&#45;&gt;Node4</title>
<path fill="none" stroke="midnightblue" d="M117.294,-49.0024C127.041,-39.4329 139.053,-27.6389 147.087,-19.7511"/>
<polygon fill="midnightblue" stroke="midnightblue" points="114.766,-46.5796 110.082,-56.083 119.67,-51.5746 114.766,-46.5796"/>
</g>
<!-- Node2 -->
<g id="node2" class="node"><title>Node2</title>
<g id="a_node2"><a xlink:href="class_t_m_c_stepper.html" target="_top" xlink:title=" ">
<polygon fill="white" stroke="black" points="65.5,-112.5 65.5,-131.5 136.5,-131.5 136.5,-112.5 65.5,-112.5"/>
<text text-anchor="middle" x="101" y="-119.5" font-family="Helvetica,sans-Serif" font-size="10.00">TMCStepper</text>
</a>
</g>
</g>
<!-- Node2&#45;&gt;Node1 -->
<g id="edge1" class="edge"><title>Node2&#45;&gt;Node1</title>
<path fill="none" stroke="midnightblue" d="M101,-101.805C101,-92.9102 101,-82.7798 101,-75.7511"/>
<polygon fill="midnightblue" stroke="midnightblue" points="97.5001,-102.083 101,-112.083 104.5,-102.083 97.5001,-102.083"/>
</g>
</g>
</svg>
