<?xml version="1.0" encoding="UTF-8" standalone="no"?>
<!DOCTYPE svg PUBLIC "-//W3C//DTD SVG 1.1//EN"
 "http://www.w3.org/Graphics/SVG/1.1/DTD/svg11.dtd">
<!-- Generated by graphviz version 2.38.0 (20140413.2041)
 -->
<!-- Title: SW_SPIClass::transfer16 Pages: 1 -->
<svg width="494pt" height="1902pt"
 viewBox="0.00 0.00 494.00 1902.00" xmlns="http://www.w3.org/2000/svg" xmlns:xlink="http://www.w3.org/1999/xlink">
<g id="graph0" class="graph" transform="scale(1 1) rotate(0) translate(4 1898)">
<title>SW_SPIClass::transfer16</title>
<polygon fill="white" stroke="none" points="-4,4 -4,-1898 490,-1898 490,4 -4,4"/>
<!-- Node1 -->
<g id="node1" class="node"><title>Node1</title>
<g id="a_node1"><a xlink:title=" ">
<polygon fill="#bfbfbf" stroke="black" points="358,-893.5 358,-912.5 486,-912.5 486,-893.5 358,-893.5"/>
<text text-anchor="middle" x="422" y="-900.5" font-family="Helvetica,sans-Serif" font-size="10.00">SW_SPIClass::transfer16</text>
</a>
</g>
</g>
<!-- Node2 -->
<g id="node2" class="node"><title>Node2</title>
<g id="a_node2"><a xlink:href="class_t_m_c2130_stepper.html#aed0175bff6e80ebc14e0d2606283cbe0" target="_top" xlink:title=" ">
<polygon fill="white" stroke="black" points="205,-1323.5 205,-1342.5 321,-1342.5 321,-1323.5 205,-1323.5"/>
<text text-anchor="middle" x="263" y="-1330.5" font-family="Helvetica,sans-Serif" font-size="10.00">TMC2130Stepper::read</text>
</a>
</g>
</g>
<!-- Node1&#45;&gt;Node2 -->
<g id="edge1" class="edge"><title>Node1&#45;&gt;Node2</title>
<path fill="none" stroke="midnightblue" d="M413.906,-922.43C386.409,-997.739 287.405,-1268.9 267.5,-1323.41"/>
<polygon fill="midnightblue" stroke="midnightblue" points="417.284,-923.383 417.426,-912.789 410.708,-920.982 417.284,-923.383"/>
</g>
<!-- Node143 -->
<g id="node29" class="node"><title>Node143</title>
<g id="a_node29"><a xlink:href="class_t_m_c2130_stepper.html#a1f26f0ea072d38c0afd20f27563ebb64" target="_top" xlink:title=" ">
<polygon fill="white" stroke="red" points="204,-445.5 204,-464.5 322,-464.5 322,-445.5 204,-445.5"/>
<text text-anchor="middle" x="263" y="-452.5" font-family="Helvetica,sans-Serif" font-size="10.00">TMC2130Stepper::write</text>
</a>
</g>
</g>
<!-- Node1&#45;&gt;Node143 -->
<g id="edge28" class="edge"><title>Node1&#45;&gt;Node143</title>
<path fill="none" stroke="midnightblue" d="M414.26,-883.767C387.216,-806.596 287.088,-520.881 267.38,-464.645"/>
<polygon fill="midnightblue" stroke="midnightblue" points="410.964,-884.947 417.575,-893.226 417.571,-882.631 410.964,-884.947"/>
</g>
<!-- Node3 -->
<g id="node3" class="node"><title>Node3</title>
<g id="a_node3"><a xlink:href="class_t_m_c2130_stepper.html#a67541b27d97ce45f175e9f6e4a2d0bff" target="_top" xlink:title=" ">
<polygon fill="white" stroke="red" points="8,-1874.5 8,-1893.5 160,-1893.5 160,-1874.5 8,-1874.5"/>
<text text-anchor="middle" x="84" y="-1881.5" font-family="Helvetica,sans-Serif" font-size="10.00">TMC2130Stepper::CHOPCONF</text>
</a>
</g>
</g>
<!-- Node2&#45;&gt;Node3 -->
<g id="edge2" class="edge"><title>Node2&#45;&gt;Node3</title>
<path fill="none" stroke="midnightblue" d="M261.331,-1352.91C257.983,-1440.32 240.221,-1789.06 168,-1865 164.434,-1868.75 160.292,-1871.83 155.798,-1874.35"/>
<polygon fill="midnightblue" stroke="midnightblue" points="264.834,-1352.89 261.698,-1342.77 257.838,-1352.63 264.834,-1352.89"/>
</g>
<!-- Node46 -->
<g id="node4" class="node"><title>Node46</title>
<g id="a_node4"><a xlink:href="class_t_m_c2130_stepper.html#a1a90b2919efe61dd825552c2fbeca993" target="_top" xlink:title=" ">
<polygon fill="white" stroke="red" points="16.5,-1836.5 16.5,-1855.5 151.5,-1855.5 151.5,-1836.5 16.5,-1836.5"/>
<text text-anchor="middle" x="84" y="-1843.5" font-family="Helvetica,sans-Serif" font-size="10.00">TMC2130Stepper::DCCTRL</text>
</a>
</g>
</g>
<!-- Node2&#45;&gt;Node46 -->
<g id="edge3" class="edge"><title>Node2&#45;&gt;Node46</title>
<path fill="none" stroke="midnightblue" d="M261.028,-1353.07C256.562,-1436.81 235.26,-1757.2 168,-1827 163.384,-1831.79 157.826,-1835.48 151.8,-1838.32"/>
<polygon fill="midnightblue" stroke="midnightblue" points="264.534,-1353.04 261.549,-1342.88 257.543,-1352.68 264.534,-1353.04"/>
</g>
<!-- Node49 -->
<g id="node5" class="node"><title>Node49</title>
<g id="a_node5"><a xlink:href="class_t_m_c2130_stepper.html#a8d6feb6e1ed123a0b1008d80b6d53287" target="_top" xlink:title=" ">
<polygon fill="white" stroke="black" points="25,-1787 25,-1817 143,-1817 143,-1787 25,-1787"/>
<text text-anchor="start" x="33" y="-1805" font-family="Helvetica,sans-Serif" font-size="10.00">TMC2130Stepper::DRV</text>
<text text-anchor="middle" x="84" y="-1794" font-family="Helvetica,sans-Serif" font-size="10.00">_STATUS</text>
</a>
</g>
</g>
<!-- Node2&#45;&gt;Node49 -->
<g id="edge4" class="edge"><title>Node2&#45;&gt;Node49</title>
<path fill="none" stroke="midnightblue" d="M260.471,-1352.94C254.099,-1430.96 227.179,-1714.32 168,-1778 161.261,-1785.25 152.48,-1790.36 143.158,-1793.95"/>
<polygon fill="midnightblue" stroke="midnightblue" points="263.989,-1352.85 261.291,-1342.61 257.011,-1352.3 263.989,-1352.85"/>
</g>
<!-- Node50 -->
<g id="node6" class="node"><title>Node50</title>
<g id="a_node6"><a xlink:href="class_t_m_c5130_stepper.html#a2dfc06fb1bfb9610b94257c822d803f4" target="_top" xlink:title=" ">
<polygon fill="white" stroke="black" points="25,-1738 25,-1768 143,-1768 143,-1738 25,-1738"/>
<text text-anchor="start" x="33" y="-1756" font-family="Helvetica,sans-Serif" font-size="10.00">TMC5130Stepper::ENC</text>
<text text-anchor="middle" x="84" y="-1745" font-family="Helvetica,sans-Serif" font-size="10.00">_LATCH</text>
</a>
</g>
</g>
<!-- Node2&#45;&gt;Node50 -->
<g id="edge5" class="edge"><title>Node2&#45;&gt;Node50</title>
<path fill="none" stroke="midnightblue" d="M259.948,-1352.58C252.027,-1424.55 221.205,-1673.15 168,-1729 161.171,-1736.17 152.347,-1741.23 143.009,-1744.81"/>
<polygon fill="midnightblue" stroke="midnightblue" points="263.432,-1352.92 261.023,-1342.6 256.472,-1352.17 263.432,-1352.92"/>
</g>
<!-- Node51 -->
<g id="node7" class="node"><title>Node51</title>
<g id="a_node7"><a xlink:href="class_t_m_c5130_stepper.html#aa51b7320a8feccf48756dbd81638be43" target="_top" xlink:title=" ">
<polygon fill="white" stroke="black" points="25,-1689 25,-1719 143,-1719 143,-1689 25,-1689"/>
<text text-anchor="start" x="33" y="-1707" font-family="Helvetica,sans-Serif" font-size="10.00">TMC5130Stepper::ENC</text>
<text text-anchor="middle" x="84" y="-1696" font-family="Helvetica,sans-Serif" font-size="10.00">_STATUS</text>
</a>
</g>
</g>
<!-- Node2&#45;&gt;Node51 -->
<g id="edge6" class="edge"><title>Node2&#45;&gt;Node51</title>
<path fill="none" stroke="midnightblue" d="M259.231,-1352.68C249.539,-1418.87 215.156,-1632.04 168,-1680 161.164,-1686.95 152.449,-1691.92 143.249,-1695.47"/>
<polygon fill="midnightblue" stroke="midnightblue" points="262.703,-1353.12 260.663,-1342.72 255.774,-1352.12 262.703,-1353.12"/>
</g>
<!-- Node52 -->
<g id="node8" class="node"><title>Node52</title>
<g id="a_node8"><a xlink:href="class_t_m_c5160_stepper.html#a3a64ce4aeeda0a8c3fbe07baed1c5317" target="_top" xlink:title=" ">
<polygon fill="white" stroke="black" points="25,-1640 25,-1670 143,-1670 143,-1640 25,-1640"/>
<text text-anchor="start" x="33" y="-1658" font-family="Helvetica,sans-Serif" font-size="10.00">TMC5160Stepper::ENC</text>
<text text-anchor="middle" x="84" y="-1647" font-family="Helvetica,sans-Serif" font-size="10.00">_STATUS</text>
</a>
</g>
</g>
<!-- Node2&#45;&gt;Node52 -->
<g id="edge7" class="edge"><title>Node2&#45;&gt;Node52</title>
<path fill="none" stroke="midnightblue" d="M261.755,-1352.62C260.009,-1405.31 247.825,-1551.28 168,-1630 161.035,-1636.87 152.256,-1641.86 143.033,-1645.49"/>
<polygon fill="midnightblue" stroke="midnightblue" points="265.255,-1352.67 261.994,-1342.59 258.257,-1352.5 265.255,-1352.67"/>
</g>
<!-- Node53 -->
<g id="node9" class="node"><title>Node53</title>
<g id="a_node9"><a xlink:href="class_t_m_c5130_stepper.html#a3c7840e9435d4332fc6a7742deeefa9f" target="_top" xlink:title=" ">
<polygon fill="white" stroke="red" points="10.5,-1601.5 10.5,-1620.5 157.5,-1620.5 157.5,-1601.5 10.5,-1601.5"/>
<text text-anchor="middle" x="84" y="-1608.5" font-family="Helvetica,sans-Serif" font-size="10.00">TMC5130Stepper::ENCMODE</text>
</a>
</g>
</g>
<!-- Node2&#45;&gt;Node53 -->
<g id="edge8" class="edge"><title>Node2&#45;&gt;Node53</title>
<path fill="none" stroke="midnightblue" d="M260.998,-1352.62C257.416,-1401.11 241.165,-1527.33 168,-1592 163.68,-1595.82 158.751,-1598.91 153.497,-1601.42"/>
<polygon fill="midnightblue" stroke="midnightblue" points="264.498,-1352.73 261.638,-1342.53 257.512,-1352.29 264.498,-1352.73"/>
</g>
<!-- Node54 -->
<g id="node10" class="node"><title>Node54</title>
<g id="a_node10"><a xlink:href="class_t_m_c2130_stepper.html#aee84a9abfc84b387c6ae5658f90bf684" target="_top" xlink:title=" ">
<polygon fill="white" stroke="red" points="18,-1563.5 18,-1582.5 150,-1582.5 150,-1563.5 18,-1563.5"/>
<text text-anchor="middle" x="84" y="-1570.5" font-family="Helvetica,sans-Serif" font-size="10.00">TMC2130Stepper::GCONF</text>
</a>
</g>
</g>
<!-- Node2&#45;&gt;Node54 -->
<g id="edge9" class="edge"><title>Node2&#45;&gt;Node54</title>
<path fill="none" stroke="midnightblue" d="M259.577,-1352.94C253.179,-1396.54 231.693,-1500.7 168,-1554 162.785,-1558.36 156.765,-1561.77 150.396,-1564.43"/>
<polygon fill="midnightblue" stroke="midnightblue" points="263.079,-1353.16 260.951,-1342.78 256.142,-1352.22 263.079,-1353.16"/>
</g>
<!-- Node93 -->
<g id="node11" class="node"><title>Node93</title>
<g id="a_node11"><a xlink:href="class_t_m_c5130_stepper.html#a2d2a5babc82b261952616363464fcd47" target="_top" xlink:title=" ">
<polygon fill="white" stroke="black" points="21.5,-1525.5 21.5,-1544.5 146.5,-1544.5 146.5,-1525.5 21.5,-1525.5"/>
<text text-anchor="middle" x="84" y="-1532.5" font-family="Helvetica,sans-Serif" font-size="10.00">TMC5130Stepper::IFCNT</text>
</a>
</g>
</g>
<!-- Node2&#45;&gt;Node93 -->
<g id="edge10" class="edge"><title>Node2&#45;&gt;Node93</title>
<path fill="none" stroke="midnightblue" d="M257.738,-1352.6C248.447,-1390.43 222.673,-1473.51 168,-1516 161.697,-1520.9 154.36,-1524.58 146.706,-1527.33"/>
<polygon fill="midnightblue" stroke="midnightblue" points="261.16,-1353.34 260.019,-1342.8 254.342,-1351.75 261.16,-1353.34"/>
</g>
<!-- Node94 -->
<g id="node12" class="node"><title>Node94</title>
<g id="a_node12"><a xlink:href="class_t_m_c2130_stepper.html#adde2041047c82600f5e01f52118f92a0" target="_top" xlink:title=" ">
<polygon fill="white" stroke="red" points="26,-1487.5 26,-1506.5 142,-1506.5 142,-1487.5 26,-1487.5"/>
<text text-anchor="middle" x="84" y="-1494.5" font-family="Helvetica,sans-Serif" font-size="10.00">TMC2130Stepper::IOIN</text>
</a>
</g>
</g>
<!-- Node2&#45;&gt;Node94 -->
<g id="edge11" class="edge"><title>Node2&#45;&gt;Node94</title>
<path fill="none" stroke="midnightblue" d="M255.189,-1351.98C242.9,-1383.38 213.942,-1445.87 168,-1478 160.368,-1483.34 151.466,-1487.2 142.381,-1489.99"/>
<polygon fill="midnightblue" stroke="midnightblue" points="258.469,-1353.2 258.718,-1342.61 251.918,-1350.73 258.469,-1353.2"/>
</g>
<!-- Node102 -->
<g id="node13" class="node"><title>Node102</title>
<g id="a_node13"><a xlink:href="class_t_m_c2160_stepper.html#a3d1beb78c3356e99799915df3b424e60" target="_top" xlink:title=" ">
<polygon fill="white" stroke="red" points="26,-1449.5 26,-1468.5 142,-1468.5 142,-1449.5 26,-1449.5"/>
<text text-anchor="middle" x="84" y="-1456.5" font-family="Helvetica,sans-Serif" font-size="10.00">TMC2160Stepper::IOIN</text>
</a>
</g>
</g>
<!-- Node2&#45;&gt;Node102 -->
<g id="edge12" class="edge"><title>Node2&#45;&gt;Node102</title>
<path fill="none" stroke="midnightblue" d="M251.066,-1351.42C235.683,-1375.65 205.314,-1417.76 168,-1440 160.127,-1444.69 151.2,-1448.23 142.19,-1450.89"/>
<polygon fill="midnightblue" stroke="midnightblue" points="254.11,-1353.15 256.381,-1342.8 248.152,-1349.48 254.11,-1353.15"/>
</g>
<!-- Node110 -->
<g id="node14" class="node"><title>Node110</title>
<g id="a_node14"><a xlink:href="class_t_m_c5130_stepper.html#a74e9e262a8da77925d246916b431161d" target="_top" xlink:title=" ">
<polygon fill="white" stroke="red" points="26,-1411.5 26,-1430.5 142,-1430.5 142,-1411.5 26,-1411.5"/>
<text text-anchor="middle" x="84" y="-1418.5" font-family="Helvetica,sans-Serif" font-size="10.00">TMC5130Stepper::IOIN</text>
</a>
</g>
</g>
<!-- Node2&#45;&gt;Node110 -->
<g id="edge13" class="edge"><title>Node2&#45;&gt;Node110</title>
<path fill="none" stroke="midnightblue" d="M244.051,-1349.7C226.121,-1365.49 197.109,-1388.68 168,-1402 159.531,-1405.87 150.204,-1408.99 140.954,-1411.49"/>
<polygon fill="midnightblue" stroke="midnightblue" points="246.823,-1351.92 251.914,-1342.63 242.14,-1346.72 246.823,-1351.92"/>
</g>
<!-- Node122 -->
<g id="node15" class="node"><title>Node122</title>
<g id="a_node15"><a xlink:href="class_t_m_c2130_stepper.html#ab5b7c77b1826da5c2e40a420880da513" target="_top" xlink:title=" ">
<polygon fill="white" stroke="black" points="23,-1362 23,-1392 145,-1392 145,-1362 23,-1362"/>
<text text-anchor="start" x="31" y="-1380" font-family="Helvetica,sans-Serif" font-size="10.00">TMC2130Stepper::LOST</text>
<text text-anchor="middle" x="84" y="-1369" font-family="Helvetica,sans-Serif" font-size="10.00">_STEPS</text>
</a>
</g>
</g>
<!-- Node2&#45;&gt;Node122 -->
<g id="edge14" class="edge"><title>Node2&#45;&gt;Node122</title>
<path fill="none" stroke="midnightblue" d="M213.863,-1344.97C192.708,-1350.23 167.637,-1356.46 145.258,-1362.02"/>
<polygon fill="midnightblue" stroke="midnightblue" points="214.733,-1348.36 223.594,-1342.55 213.045,-1341.56 214.733,-1348.36"/>
</g>
<!-- Node123 -->
<g id="node16" class="node"><title>Node123</title>
<g id="a_node16"><a xlink:href="class_t_m_c2160_stepper.html#a6e35363428a742e1e14cf225e683fa4c" target="_top" xlink:title=" ">
<polygon fill="white" stroke="black" points="0,-1323.5 0,-1342.5 168,-1342.5 168,-1323.5 0,-1323.5"/>
<text text-anchor="middle" x="84" y="-1330.5" font-family="Helvetica,sans-Serif" font-size="10.00">TMC2160Stepper::OFFSET_READ</text>
</a>
</g>
</g>
<!-- Node2&#45;&gt;Node123 -->
<g id="edge15" class="edge"><title>Node2&#45;&gt;Node123</title>
<path fill="none" stroke="midnightblue" d="M194.285,-1333C185.753,-1333 176.949,-1333 168.213,-1333"/>
<polygon fill="midnightblue" stroke="midnightblue" points="194.533,-1336.5 204.533,-1333 194.533,-1329.5 194.533,-1336.5"/>
</g>
<!-- Node124 -->
<g id="node17" class="node"><title>Node124</title>
<g id="a_node17"><a xlink:href="class_t_m_c5160_stepper.html#a7e8ae217437e9ca5ab353cb7a9d30b82" target="_top" xlink:title=" ">
<polygon fill="white" stroke="red" points="7,-1285.5 7,-1304.5 161,-1304.5 161,-1285.5 7,-1285.5"/>
<text text-anchor="middle" x="84" y="-1292.5" font-family="Helvetica,sans-Serif" font-size="10.00">TMC5160Stepper::PWM_AUTO</text>
</a>
</g>
</g>
<!-- Node2&#45;&gt;Node124 -->
<g id="edge16" class="edge"><title>Node2&#45;&gt;Node124</title>
<path fill="none" stroke="midnightblue" d="M207.258,-1321.25C182.23,-1315.87 152.965,-1309.59 129.343,-1304.52"/>
<polygon fill="midnightblue" stroke="midnightblue" points="206.824,-1324.73 217.335,-1323.41 208.293,-1317.89 206.824,-1324.73"/>
</g>
<!-- Node127 -->
<g id="node18" class="node"><title>Node127</title>
<g id="a_node18"><a xlink:href="class_t_m_c2130_stepper.html#ad207fa693692567d117d4b02c217a4e9" target="_top" xlink:title=" ">
<polygon fill="white" stroke="black" points="23,-1236 23,-1266 145,-1266 145,-1236 23,-1236"/>
<text text-anchor="start" x="31" y="-1254" font-family="Helvetica,sans-Serif" font-size="10.00">TMC2130Stepper::PWM</text>
<text text-anchor="middle" x="84" y="-1243" font-family="Helvetica,sans-Serif" font-size="10.00">_SCALE</text>
</a>
</g>
</g>
<!-- Node2&#45;&gt;Node127 -->
<g id="edge17" class="edge"><title>Node2&#45;&gt;Node127</title>
<path fill="none" stroke="midnightblue" d="M240.276,-1317.65C221.757,-1305.1 194.072,-1287.61 168,-1276 159.751,-1272.33 150.809,-1269 141.953,-1266.07"/>
<polygon fill="midnightblue" stroke="midnightblue" points="238.36,-1320.58 248.583,-1323.36 242.327,-1314.81 238.36,-1320.58"/>
</g>
<!-- Node128 -->
<g id="node19" class="node"><title>Node128</title>
<g id="a_node19"><a xlink:href="class_t_m_c2160_stepper.html#a105381369f3d6267e907ff4ea0b31aac" target="_top" xlink:title=" ">
<polygon fill="white" stroke="red" points="23,-1187 23,-1217 145,-1217 145,-1187 23,-1187"/>
<text text-anchor="start" x="31" y="-1205" font-family="Helvetica,sans-Serif" font-size="10.00">TMC2160Stepper::PWM</text>
<text text-anchor="middle" x="84" y="-1194" font-family="Helvetica,sans-Serif" font-size="10.00">_SCALE</text>
</a>
</g>
</g>
<!-- Node2&#45;&gt;Node128 -->
<g id="edge18" class="edge"><title>Node2&#45;&gt;Node128</title>
<path fill="none" stroke="midnightblue" d="M250.588,-1314.8C234.84,-1291.16 204.243,-1250.18 168,-1227 161.027,-1222.54 153.219,-1218.84 145.257,-1215.79"/>
<polygon fill="midnightblue" stroke="midnightblue" points="247.849,-1317.01 256.228,-1323.5 253.721,-1313.2 247.849,-1317.01"/>
</g>
<!-- Node131 -->
<g id="node20" class="node"><title>Node131</title>
<g id="a_node20"><a xlink:href="class_t_m_c5130_stepper.html#a1acd1a115fcf4dc050b3b0948cff9dc4" target="_top" xlink:title=" ">
<polygon fill="white" stroke="black" points="6.5,-1148.5 6.5,-1167.5 161.5,-1167.5 161.5,-1148.5 6.5,-1148.5"/>
<text text-anchor="middle" x="84" y="-1155.5" font-family="Helvetica,sans-Serif" font-size="10.00">TMC5130Stepper::RAMP_STAT</text>
</a>
</g>
</g>
<!-- Node2&#45;&gt;Node131 -->
<g id="edge19" class="edge"><title>Node2&#45;&gt;Node131</title>
<path fill="none" stroke="midnightblue" d="M255.696,-1313.27C244.005,-1279.98 215.714,-1212.87 168,-1178 162.016,-1173.63 155.204,-1170.2 148.114,-1167.52"/>
<polygon fill="midnightblue" stroke="midnightblue" points="252.521,-1314.81 259.028,-1323.17 259.155,-1312.57 252.521,-1314.81"/>
</g>
<!-- Node132 -->
<g id="node21" class="node"><title>Node132</title>
<g id="a_node21"><a xlink:href="class_t_m_c5130_stepper.html#a020e6ae2a6abce1a92338345aab2ae7c" target="_top" xlink:title=" ">
<polygon fill="white" stroke="red" points="6.5,-1110.5 6.5,-1129.5 161.5,-1129.5 161.5,-1110.5 6.5,-1110.5"/>
<text text-anchor="middle" x="84" y="-1117.5" font-family="Helvetica,sans-Serif" font-size="10.00">TMC5130Stepper::RAMPMODE</text>
</a>
</g>
</g>
<!-- Node2&#45;&gt;Node132 -->
<g id="edge20" class="edge"><title>Node2&#45;&gt;Node132</title>
<path fill="none" stroke="midnightblue" d="M258.283,-1313.06C249.8,-1273.4 225.155,-1184.5 168,-1139 163.142,-1135.13 157.645,-1132.02 151.848,-1129.53"/>
<polygon fill="midnightblue" stroke="midnightblue" points="254.894,-1313.96 260.3,-1323.08 261.756,-1312.58 254.894,-1313.96"/>
</g>
<!-- Node134 -->
<g id="node22" class="node"><title>Node134</title>
<g id="a_node22"><a xlink:href="class_t_m_c5130_stepper.html#af78bc5ec6076b4e7ac8006488b069413" target="_top" xlink:title=" ">
<polygon fill="white" stroke="red" points="9.5,-1072.5 9.5,-1091.5 158.5,-1091.5 158.5,-1072.5 9.5,-1072.5"/>
<text text-anchor="middle" x="84" y="-1079.5" font-family="Helvetica,sans-Serif" font-size="10.00">TMC5130Stepper::SW_MODE</text>
</a>
</g>
</g>
<!-- Node2&#45;&gt;Node134 -->
<g id="edge21" class="edge"><title>Node2&#45;&gt;Node134</title>
<path fill="none" stroke="midnightblue" d="M260.054,-1313.3C254.517,-1268.32 234.492,-1157.63 168,-1101 163.498,-1097.17 158.377,-1094.07 152.94,-1091.57"/>
<polygon fill="midnightblue" stroke="midnightblue" points="256.577,-1313.69 261.169,-1323.24 263.533,-1312.91 256.577,-1313.69"/>
</g>
<!-- Node135 -->
<g id="node23" class="node"><title>Node135</title>
<g id="a_node23"><a xlink:href="class_t_m_c5130_stepper.html#acd29f5c1f0f47342dd2d942c9c5252c1" target="_top" xlink:title=" ">
<polygon fill="white" stroke="black" points="13,-1034.5 13,-1053.5 155,-1053.5 155,-1034.5 13,-1034.5"/>
<text text-anchor="middle" x="84" y="-1041.5" font-family="Helvetica,sans-Serif" font-size="10.00">TMC5130Stepper::VACTUAL</text>
</a>
</g>
</g>
<!-- Node2&#45;&gt;Node135 -->
<g id="edge22" class="edge"><title>Node2&#45;&gt;Node135</title>
<path fill="none" stroke="midnightblue" d="M261.32,-1313.23C258.481,-1263.22 243.805,-1130.89 168,-1063 163.706,-1059.15 158.793,-1056.04 153.551,-1053.52"/>
<polygon fill="midnightblue" stroke="midnightblue" points="257.83,-1313.52 261.791,-1323.34 264.822,-1313.19 257.83,-1313.52"/>
</g>
<!-- Node136 -->
<g id="node24" class="node"><title>Node136</title>
<g id="a_node24"><a xlink:href="class_t_m_c5130_stepper.html#a432764a59619856079ecfb56ee426f2d" target="_top" xlink:title=" ">
<polygon fill="white" stroke="black" points="20,-996.5 20,-1015.5 148,-1015.5 148,-996.5 20,-996.5"/>
<text text-anchor="middle" x="84" y="-1003.5" font-family="Helvetica,sans-Serif" font-size="10.00">TMC5130Stepper::X_ENC</text>
</a>
</g>
</g>
<!-- Node2&#45;&gt;Node136 -->
<g id="edge23" class="edge"><title>Node2&#45;&gt;Node136</title>
<path fill="none" stroke="midnightblue" d="M262.304,-1313.45C262.023,-1259.02 253.37,-1104.5 168,-1025 162.375,-1019.76 155.61,-1015.87 148.401,-1012.99"/>
<polygon fill="midnightblue" stroke="midnightblue" points="258.804,-1313.47 262.261,-1323.49 265.804,-1313.5 258.804,-1313.47"/>
</g>
<!-- Node137 -->
<g id="node25" class="node"><title>Node137</title>
<g id="a_node25"><a xlink:href="class_t_m_c5130_stepper.html#a7ddd27bea8034e6aec78ab2cf83cedd4" target="_top" xlink:title=" ">
<polygon fill="white" stroke="red" points="14,-958.5 14,-977.5 154,-977.5 154,-958.5 14,-958.5"/>
<text text-anchor="middle" x="84" y="-965.5" font-family="Helvetica,sans-Serif" font-size="10.00">TMC5130Stepper::XACTUAL</text>
</a>
</g>
</g>
<!-- Node2&#45;&gt;Node137 -->
<g id="edge24" class="edge"><title>Node2&#45;&gt;Node137</title>
<path fill="none" stroke="midnightblue" d="M259.322,-1313.28C249.925,-1246.95 216.378,-1033.47 168,-987 163.949,-983.109 159.272,-979.954 154.243,-977.403"/>
<polygon fill="midnightblue" stroke="midnightblue" points="255.865,-1313.83 260.709,-1323.25 262.799,-1312.87 255.865,-1313.83"/>
</g>
<!-- Node138 -->
<g id="node26" class="node"><title>Node138</title>
<g id="a_node26"><a xlink:href="class_t_m_c2130_stepper.html#af486cd4712be021c735fc3bcb8eee9f5" target="_top" xlink:title=" ">
<polygon fill="white" stroke="red" points="15.5,-920.5 15.5,-939.5 152.5,-939.5 152.5,-920.5 15.5,-920.5"/>
<text text-anchor="middle" x="84" y="-927.5" font-family="Helvetica,sans-Serif" font-size="10.00">TMC2130Stepper::XDIRECT</text>
</a>
</g>
</g>
<!-- Node2&#45;&gt;Node138 -->
<g id="edge25" class="edge"><title>Node2&#45;&gt;Node138</title>
<path fill="none" stroke="midnightblue" d="M259.858,-1313.01C251.817,-1241.71 221.149,-1001.36 168,-949 163.577,-944.643 158.371,-941.204 152.759,-938.5"/>
<polygon fill="midnightblue" stroke="midnightblue" points="256.416,-1313.73 260.99,-1323.28 263.374,-1312.96 256.416,-1313.73"/>
</g>
<!-- Node141 -->
<g id="node27" class="node"><title>Node141</title>
<g id="a_node27"><a xlink:href="class_t_m_c5130_stepper.html#aa027fe70ea5dc43b7bb0ac4452b4cbc3" target="_top" xlink:title=" ">
<polygon fill="white" stroke="black" points="17,-882.5 17,-901.5 151,-901.5 151,-882.5 17,-882.5"/>
<text text-anchor="middle" x="84" y="-889.5" font-family="Helvetica,sans-Serif" font-size="10.00">TMC5130Stepper::XLATCH</text>
</a>
</g>
</g>
<!-- Node2&#45;&gt;Node141 -->
<g id="edge26" class="edge"><title>Node2&#45;&gt;Node141</title>
<path fill="none" stroke="midnightblue" d="M260.374,-1313.5C253.723,-1238.44 226.137,-969.479 168,-911 163.206,-906.178 157.455,-902.475 151.245,-899.645"/>
<polygon fill="midnightblue" stroke="midnightblue" points="256.888,-1313.81 261.234,-1323.47 263.862,-1313.21 256.888,-1313.81"/>
</g>
<!-- Node142 -->
<g id="node28" class="node"><title>Node142</title>
<g id="a_node28"><a xlink:href="class_t_m_c5130_stepper.html#ae33c13bf7dc95cd8a8a4d8e1c444f9e5" target="_top" xlink:title=" ">
<polygon fill="white" stroke="red" points="13.5,-844.5 13.5,-863.5 154.5,-863.5 154.5,-844.5 13.5,-844.5"/>
<text text-anchor="middle" x="84" y="-851.5" font-family="Helvetica,sans-Serif" font-size="10.00">TMC5130Stepper::XTARGET</text>
</a>
</g>
</g>
<!-- Node2&#45;&gt;Node142 -->
<g id="edge27" class="edge"><title>Node2&#45;&gt;Node142</title>
<path fill="none" stroke="midnightblue" d="M260.748,-1313.3C255.291,-1233.77 230.973,-937.469 168,-873 164.075,-868.982 159.486,-865.738 154.517,-863.126"/>
<polygon fill="midnightblue" stroke="midnightblue" points="257.264,-1313.67 261.418,-1323.41 264.249,-1313.2 257.264,-1313.67"/>
</g>
<!-- Node144 -->
<g id="node30" class="node"><title>Node144</title>
<g id="a_node30"><a xlink:href="class_t_m_c5130_stepper.html#a76052c6b0797d7f5707167f9dc38c070" target="_top" xlink:title=" ">
<polygon fill="white" stroke="black" points="29,-806.5 29,-825.5 139,-825.5 139,-806.5 29,-806.5"/>
<text text-anchor="middle" x="84" y="-813.5" font-family="Helvetica,sans-Serif" font-size="10.00">TMC5130Stepper::A1</text>
</a>
</g>
</g>
<!-- Node143&#45;&gt;Node144 -->
<g id="edge29" class="edge"><title>Node143&#45;&gt;Node144</title>
<path fill="none" stroke="midnightblue" d="M259.229,-474.905C249.642,-540.941 215.826,-751.196 168,-797 160.1,-804.566 149.832,-809.346 139.225,-812.318"/>
<polygon fill="midnightblue" stroke="midnightblue" points="262.747,-475.03 260.692,-464.636 255.817,-474.043 262.747,-475.03"/>
</g>
<!-- Node145 -->
<g id="node31" class="node"><title>Node145</title>
<g id="a_node31"><a xlink:href="class_t_m_c5130_stepper.html#a967f67e12de5fc725f34d1f07e751146" target="_top" xlink:title=" ">
<polygon fill="white" stroke="black" points="21.5,-768.5 21.5,-787.5 146.5,-787.5 146.5,-768.5 21.5,-768.5"/>
<text text-anchor="middle" x="84" y="-775.5" font-family="Helvetica,sans-Serif" font-size="10.00">TMC5130Stepper::AMAX</text>
</a>
</g>
</g>
<!-- Node143&#45;&gt;Node145 -->
<g id="edge30" class="edge"><title>Node143&#45;&gt;Node145</title>
<path fill="none" stroke="midnightblue" d="M262.207,-475.003C261.62,-529.361 252.135,-680.938 168,-759 161.932,-764.63 154.546,-768.707 146.711,-771.639"/>
<polygon fill="midnightblue" stroke="midnightblue" points="265.707,-474.679 262.219,-464.675 258.707,-474.671 265.707,-474.679"/>
</g>
<!-- Node146 -->
<g id="node32" class="node"><title>Node146</title>
<g id="a_node32"><a xlink:href="class_t_m_c2130_stepper.html#a8f881532eca7813597a1292ed060d18c" target="_top" xlink:title=" ">
<polygon fill="white" stroke="black" points="8,-730.5 8,-749.5 160,-749.5 160,-730.5 8,-730.5"/>
<text text-anchor="middle" x="84" y="-737.5" font-family="Helvetica,sans-Serif" font-size="10.00">TMC2130Stepper::CHOPCONF</text>
</a>
</g>
</g>
<!-- Node143&#45;&gt;Node146 -->
<g id="edge31" class="edge"><title>Node143&#45;&gt;Node146</title>
<path fill="none" stroke="midnightblue" d="M261.2,-474.801C258.081,-524.317 242.803,-654.317 168,-721 163.697,-724.836 158.778,-727.945 153.532,-730.458"/>
<polygon fill="midnightblue" stroke="midnightblue" points="264.711,-474.687 261.74,-464.518 257.72,-474.32 264.711,-474.687"/>
</g>
<!-- Node147 -->
<g id="node33" class="node"><title>Node147</title>
<g id="a_node33"><a xlink:href="class_t_m_c2130_stepper.html#a11e7ca8148bc856a18af9fa0394a647d" target="_top" xlink:title=" ">
<polygon fill="white" stroke="black" points="21.5,-692.5 21.5,-711.5 146.5,-711.5 146.5,-692.5 21.5,-692.5"/>
<text text-anchor="middle" x="84" y="-699.5" font-family="Helvetica,sans-Serif" font-size="10.00">TMC2130Stepper::coil_A</text>
</a>
</g>
</g>
<!-- Node143&#45;&gt;Node147 -->
<g id="edge32" class="edge"><title>Node143&#45;&gt;Node147</title>
<path fill="none" stroke="midnightblue" d="M259.904,-474.654C254.08,-519.05 233.539,-627.528 168,-683 161.794,-688.253 154.424,-692.125 146.676,-694.968"/>
<polygon fill="midnightblue" stroke="midnightblue" points="263.395,-474.939 261.111,-464.594 256.445,-474.106 263.395,-474.939"/>
</g>
<!-- Node148 -->
<g id="node34" class="node"><title>Node148</title>
<g id="a_node34"><a xlink:href="class_t_m_c2130_stepper.html#a40464704d8da6ad1998cb0c1ea564cce" target="_top" xlink:title=" ">
<polygon fill="white" stroke="black" points="21.5,-654.5 21.5,-673.5 146.5,-673.5 146.5,-654.5 21.5,-654.5"/>
<text text-anchor="middle" x="84" y="-661.5" font-family="Helvetica,sans-Serif" font-size="10.00">TMC2130Stepper::coil_B</text>
</a>
</g>
</g>
<!-- Node143&#45;&gt;Node148 -->
<g id="edge33" class="edge"><title>Node143&#45;&gt;Node148</title>
<path fill="none" stroke="midnightblue" d="M258.097,-474.785C249.327,-513.771 224.265,-600.588 168,-645 161.734,-649.946 154.419,-653.65 146.775,-656.418"/>
<polygon fill="midnightblue" stroke="midnightblue" points="261.579,-475.233 260.232,-464.724 254.732,-473.78 261.579,-475.233"/>
</g>
<!-- Node149 -->
<g id="node35" class="node"><title>Node149</title>
<g id="a_node35"><a xlink:href="class_t_m_c2130_stepper.html#afc1072e86397d2646fd4fb7b30e41ab8" target="_top" xlink:title=" ">
<polygon fill="white" stroke="black" points="8,-616.5 8,-635.5 160,-635.5 160,-616.5 8,-616.5"/>
<text text-anchor="middle" x="84" y="-623.5" font-family="Helvetica,sans-Serif" font-size="10.00">TMC2130Stepper::COOLCONF</text>
</a>
</g>
</g>
<!-- Node143&#45;&gt;Node149 -->
<g id="edge34" class="edge"><title>Node143&#45;&gt;Node149</title>
<path fill="none" stroke="midnightblue" d="M255.626,-474.411C243.829,-507.154 215.384,-573.101 168,-607 162.59,-610.87 156.517,-613.967 150.182,-616.443"/>
<polygon fill="midnightblue" stroke="midnightblue" points="259.032,-475.268 258.991,-464.674 252.416,-472.982 259.032,-475.268"/>
</g>
<!-- Node150 -->
<g id="node36" class="node"><title>Node150</title>
<g id="a_node36"><a xlink:href="class_t_m_c5130_stepper.html#abc7865021874083213e60aa77b7201d6" target="_top" xlink:title=" ">
<polygon fill="white" stroke="black" points="29,-578.5 29,-597.5 139,-597.5 139,-578.5 29,-578.5"/>
<text text-anchor="middle" x="84" y="-585.5" font-family="Helvetica,sans-Serif" font-size="10.00">TMC5130Stepper::D1</text>
</a>
</g>
</g>
<!-- Node143&#45;&gt;Node150 -->
<g id="edge35" class="edge"><title>Node143&#45;&gt;Node150</title>
<path fill="none" stroke="midnightblue" d="M252.016,-473.52C237.199,-499.149 206.902,-544.98 168,-569 159.321,-574.359 149.291,-578.209 139.269,-580.975"/>
<polygon fill="midnightblue" stroke="midnightblue" points="255.082,-475.208 256.923,-464.774 248.978,-471.783 255.082,-475.208"/>
</g>
<!-- Node151 -->
<g id="node37" class="node"><title>Node151</title>
<g id="a_node37"><a xlink:href="class_t_m_c2130_stepper.html#a55ea165bcc2fc0da6395340f17e47611" target="_top" xlink:title=" ">
<polygon fill="white" stroke="black" points="22,-540.5 22,-559.5 146,-559.5 146,-540.5 22,-540.5"/>
<text text-anchor="middle" x="84" y="-547.5" font-family="Helvetica,sans-Serif" font-size="10.00">TMC2130Stepper::dc_sg</text>
</a>
</g>
</g>
<!-- Node143&#45;&gt;Node151 -->
<g id="edge36" class="edge"><title>Node143&#45;&gt;Node151</title>
<path fill="none" stroke="midnightblue" d="M245.987,-471.871C228.473,-489.313 198.771,-516.042 168,-531 160.023,-534.878 151.226,-537.981 142.431,-540.461"/>
<polygon fill="midnightblue" stroke="midnightblue" points="248.63,-474.176 253.137,-464.587 243.635,-469.272 248.63,-474.176"/>
</g>
<!-- Node152 -->
<g id="node38" class="node"><title>Node152</title>
<g id="a_node38"><a xlink:href="class_t_m_c2130_stepper.html#a5b90d46cecffc6511b6bb95943b30bdb" target="_top" xlink:title=" ">
<polygon fill="white" stroke="black" points="18,-502.5 18,-521.5 150,-521.5 150,-502.5 18,-502.5"/>
<text text-anchor="middle" x="84" y="-509.5" font-family="Helvetica,sans-Serif" font-size="10.00">TMC2130Stepper::dc_time</text>
</a>
</g>
</g>
<!-- Node143&#45;&gt;Node152 -->
<g id="edge37" class="edge"><title>Node143&#45;&gt;Node152</title>
<path fill="none" stroke="midnightblue" d="M231.836,-468.623C213.615,-476.491 189.778,-486.153 168,-493 156.718,-496.547 144.382,-499.732 132.753,-502.436"/>
<polygon fill="midnightblue" stroke="midnightblue" points="233.314,-471.797 241.072,-464.582 230.507,-465.384 233.314,-471.797"/>
</g>
<!-- Node153 -->
<g id="node39" class="node"><title>Node153</title>
<g id="a_node39"><a xlink:href="class_t_m_c2130_stepper.html#ae9a34eefa766c1c5f8bda09acb1e61c1" target="_top" xlink:title=" ">
<polygon fill="white" stroke="black" points="16.5,-464.5 16.5,-483.5 151.5,-483.5 151.5,-464.5 16.5,-464.5"/>
<text text-anchor="middle" x="84" y="-471.5" font-family="Helvetica,sans-Serif" font-size="10.00">TMC2130Stepper::DCCTRL</text>
</a>
</g>
</g>
<!-- Node143&#45;&gt;Node153 -->
<g id="edge38" class="edge"><title>Node143&#45;&gt;Node153</title>
<path fill="none" stroke="midnightblue" d="M193.253,-462.38C179.585,-463.847 165.254,-465.385 151.657,-466.845"/>
<polygon fill="midnightblue" stroke="midnightblue" points="193.984,-465.821 203.553,-461.274 193.237,-458.861 193.984,-465.821"/>
</g>
<!-- Node154 -->
<g id="node40" class="node"><title>Node154</title>
<g id="a_node40"><a xlink:href="class_t_m_c5130_stepper.html#a6fc018f81c10dd3307d55b31d070b816" target="_top" xlink:title=" ">
<polygon fill="white" stroke="black" points="21.5,-426.5 21.5,-445.5 146.5,-445.5 146.5,-426.5 21.5,-426.5"/>
<text text-anchor="middle" x="84" y="-433.5" font-family="Helvetica,sans-Serif" font-size="10.00">TMC5130Stepper::DMAX</text>
</a>
</g>
</g>
<!-- Node143&#45;&gt;Node154 -->
<g id="edge39" class="edge"><title>Node143&#45;&gt;Node154</title>
<path fill="none" stroke="midnightblue" d="M193.562,-447.654C178.139,-445.998 161.858,-444.25 146.728,-442.626"/>
<polygon fill="midnightblue" stroke="midnightblue" points="193.237,-451.139 203.553,-448.726 193.984,-444.179 193.237,-451.139"/>
</g>
<!-- Node155 -->
<g id="node41" class="node"><title>Node155</title>
<g id="a_node41"><a xlink:href="class_t_m_c2160_stepper.html#a6aec416cc563c9a195929bfd36e1707a" target="_top" xlink:title=" ">
<polygon fill="white" stroke="black" points="9,-388.5 9,-407.5 159,-407.5 159,-388.5 9,-388.5"/>
<text text-anchor="middle" x="84" y="-395.5" font-family="Helvetica,sans-Serif" font-size="10.00">TMC2160Stepper::DRV_CONF</text>
</a>
</g>
</g>
<!-- Node143&#45;&gt;Node155 -->
<g id="edge40" class="edge"><title>Node143&#45;&gt;Node155</title>
<path fill="none" stroke="midnightblue" d="M231.836,-441.377C213.615,-433.509 189.778,-423.847 168,-417 156.718,-413.453 144.382,-410.268 132.753,-407.564"/>
<polygon fill="midnightblue" stroke="midnightblue" points="230.507,-444.616 241.072,-445.418 233.314,-438.203 230.507,-444.616"/>
</g>
<!-- Node156 -->
<g id="node42" class="node"><title>Node156</title>
<g id="a_node42"><a xlink:href="class_t_m_c5130_stepper.html#a4e170413a630ba0037569cb2cb96351c" target="_top" xlink:title=" ">
<polygon fill="white" stroke="black" points="25,-339 25,-369 143,-369 143,-339 25,-339"/>
<text text-anchor="start" x="33" y="-357" font-family="Helvetica,sans-Serif" font-size="10.00">TMC5130Stepper::ENC</text>
<text text-anchor="middle" x="84" y="-346" font-family="Helvetica,sans-Serif" font-size="10.00">_CONST</text>
</a>
</g>
</g>
<!-- Node143&#45;&gt;Node156 -->
<g id="edge41" class="edge"><title>Node143&#45;&gt;Node156</title>
<path fill="none" stroke="midnightblue" d="M245.497,-438.262C227.776,-421.155 198.088,-394.903 168,-379 160.283,-374.921 151.803,-371.407 143.3,-368.412"/>
<polygon fill="midnightblue" stroke="midnightblue" points="243.175,-440.888 252.756,-445.41 248.086,-435.899 243.175,-440.888"/>
</g>
<!-- Node157 -->
<g id="node43" class="node"><title>Node157</title>
<g id="a_node43"><a xlink:href="class_t_m_c5160_stepper.html#a42b5bd196fdbb78044b669342384ec28" target="_top" xlink:title=" ">
<polygon fill="white" stroke="black" points="25,-290 25,-320 143,-320 143,-290 25,-290"/>
<text text-anchor="start" x="33" y="-308" font-family="Helvetica,sans-Serif" font-size="10.00">TMC5160Stepper::ENC</text>
<text text-anchor="middle" x="84" y="-297" font-family="Helvetica,sans-Serif" font-size="10.00">_DEVIATION</text>
</a>
</g>
</g>
<!-- Node143&#45;&gt;Node157 -->
<g id="edge42" class="edge"><title>Node143&#45;&gt;Node157</title>
<path fill="none" stroke="midnightblue" d="M252.853,-436.25C238.537,-408.853 208.258,-358.094 168,-330 160.472,-324.746 151.819,-320.577 143.004,-317.273"/>
<polygon fill="midnightblue" stroke="midnightblue" points="249.748,-437.867 257.393,-445.201 255.991,-434.7 249.748,-437.867"/>
</g>
<!-- Node158 -->
<g id="node44" class="node"><title>Node158</title>
<g id="a_node44"><a xlink:href="class_t_m_c5160_stepper.html#a5b60cb0c1913fc270311011223782363" target="_top" xlink:title=" ">
<polygon fill="white" stroke="black" points="25,-241 25,-271 143,-271 143,-241 25,-241"/>
<text text-anchor="start" x="33" y="-259" font-family="Helvetica,sans-Serif" font-size="10.00">TMC5160Stepper::ENC</text>
<text text-anchor="middle" x="84" y="-248" font-family="Helvetica,sans-Serif" font-size="10.00">_STATUS</text>
</a>
</g>
</g>
<!-- Node143&#45;&gt;Node158 -->
<g id="edge43" class="edge"><title>Node143&#45;&gt;Node158</title>
<path fill="none" stroke="midnightblue" d="M256.913,-435.693C246.457,-399.804 219.126,-322.685 168,-281 160.769,-275.104 152.171,-270.597 143.294,-267.153"/>
<polygon fill="midnightblue" stroke="midnightblue" points="253.568,-436.729 259.624,-445.423 260.311,-434.85 253.568,-436.729"/>
</g>
<!-- Node159 -->
<g id="node45" class="node"><title>Node159</title>
<g id="a_node45"><a xlink:href="class_t_m_c2130_stepper.html#af193f7a3cecbeff29d0db36a2c8b3094" target="_top" xlink:title=" ">
<polygon fill="white" stroke="black" points="6.5,-202.5 6.5,-221.5 161.5,-221.5 161.5,-202.5 6.5,-202.5"/>
<text text-anchor="middle" x="84" y="-209.5" font-family="Helvetica,sans-Serif" font-size="10.00">TMC2130Stepper::ENCM_CTRL</text>
</a>
</g>
</g>
<!-- Node143&#45;&gt;Node159 -->
<g id="edge44" class="edge"><title>Node143&#45;&gt;Node159</title>
<path fill="none" stroke="midnightblue" d="M259.632,-435.218C253.311,-391.511 231.922,-286.297 168,-232 162.916,-227.682 157.055,-224.264 150.847,-221.563"/>
<polygon fill="midnightblue" stroke="midnightblue" points="256.166,-435.711 260.958,-445.16 263.105,-434.785 256.166,-435.711"/>
</g>
<!-- Node160 -->
<g id="node46" class="node"><title>Node160</title>
<g id="a_node46"><a xlink:href="class_t_m_c5130_stepper.html#aef59e4f446323c23418fe05051993e6f" target="_top" xlink:title=" ">
<polygon fill="white" stroke="black" points="10.5,-164.5 10.5,-183.5 157.5,-183.5 157.5,-164.5 10.5,-164.5"/>
<text text-anchor="middle" x="84" y="-171.5" font-family="Helvetica,sans-Serif" font-size="10.00">TMC5130Stepper::ENCMODE</text>
</a>
</g>
</g>
<!-- Node143&#45;&gt;Node160 -->
<g id="edge45" class="edge"><title>Node143&#45;&gt;Node160</title>
<path fill="none" stroke="midnightblue" d="M261.075,-435.157C257.671,-386.12 241.794,-258.467 168,-193 163.687,-189.174 158.762,-186.073 153.512,-183.564"/>
<polygon fill="midnightblue" stroke="midnightblue" points="257.594,-435.586 261.677,-445.362 264.582,-435.174 257.594,-435.586"/>
</g>
<!-- Node161 -->
<g id="node47" class="node"><title>Node161</title>
<g id="a_node47"><a xlink:href="class_t_m_c2160_stepper.html#a905cd46baa5574ef977964787379c30e" target="_top" xlink:title=" ">
<polygon fill="white" stroke="black" points="15,-126.5 15,-145.5 153,-145.5 153,-126.5 15,-126.5"/>
<text text-anchor="middle" x="84" y="-133.5" font-family="Helvetica,sans-Serif" font-size="10.00">TMC2160Stepper::freewheel</text>
</a>
</g>
</g>
<!-- Node143&#45;&gt;Node161 -->
<g id="edge46" class="edge"><title>Node143&#45;&gt;Node161</title>
<path fill="none" stroke="midnightblue" d="M262.115,-435.253C261.294,-381.592 251.27,-231.969 168,-155 163.658,-150.986 158.646,-147.763 153.28,-145.181"/>
<polygon fill="midnightblue" stroke="midnightblue" points="258.616,-435.468 262.172,-445.449 265.616,-435.429 258.616,-435.468"/>
</g>
<!-- Node162 -->
<g id="node48" class="node"><title>Node162</title>
<g id="a_node48"><a xlink:href="class_t_m_c2130_stepper.html#ad7e2c224a86768c38c5167b2bee7de05" target="_top" xlink:title=" ">
<polygon fill="white" stroke="black" points="18,-88.5 18,-107.5 150,-107.5 150,-88.5 18,-88.5"/>
<text text-anchor="middle" x="84" y="-95.5" font-family="Helvetica,sans-Serif" font-size="10.00">TMC2130Stepper::GCONF</text>
</a>
</g>
</g>
<!-- Node143&#45;&gt;Node162 -->
<g id="edge47" class="edge"><title>Node143&#45;&gt;Node162</title>
<path fill="none" stroke="midnightblue" d="M259.195,-435.326C249.498,-370.053 215.375,-162.234 168,-117 162.868,-112.1 156.743,-108.369 150.177,-105.542"/>
<polygon fill="midnightblue" stroke="midnightblue" points="255.768,-436.085 260.675,-445.475 262.695,-435.075 255.768,-436.085"/>
</g>
<!-- Node163 -->
<g id="node49" class="node"><title>Node163</title>
<g id="a_node49"><a xlink:href="class_t_m_c2160_stepper.html#a182c03c51d92c565b15b6e7e459e55ae" target="_top" xlink:title=" ">
<polygon fill="white" stroke="black" points="15.5,-39 15.5,-69 152.5,-69 152.5,-39 15.5,-39"/>
<text text-anchor="start" x="23.5" y="-57" font-family="Helvetica,sans-Serif" font-size="10.00">TMC2160Stepper::GLOBAL</text>
<text text-anchor="middle" x="84" y="-46" font-family="Helvetica,sans-Serif" font-size="10.00">_SCALER</text>
</a>
</g>
</g>
<!-- Node143&#45;&gt;Node163 -->
<g id="edge48" class="edge"><title>Node143&#45;&gt;Node163</title>
<path fill="none" stroke="midnightblue" d="M259.618,-435.085C250.868,-365.099 218.363,-131.818 168,-79 163.638,-74.4256 158.474,-70.6792 152.887,-67.6123"/>
<polygon fill="midnightblue" stroke="midnightblue" points="256.167,-435.696 260.858,-445.195 263.115,-434.844 256.167,-435.696"/>
</g>
<!-- Node164 -->
<g id="node50" class="node"><title>Node164</title>
<g id="a_node50"><a xlink:href="class_t_m_c2130_stepper.html#a2b9ce2adcc443caffeefa9b51bcb5ee8" target="_top" xlink:title=" ">
<polygon fill="white" stroke="black" points="29.5,-0.5 29.5,-19.5 138.5,-19.5 138.5,-0.5 29.5,-0.5"/>
<text text-anchor="middle" x="84" y="-7.5" font-family="Helvetica,sans-Serif" font-size="10.00">TMC2130Stepper::inv</text>
</a>
</g>
</g>
<!-- Node143&#45;&gt;Node164 -->
<g id="edge49" class="edge"><title>Node143&#45;&gt;Node164</title>
<path fill="none" stroke="midnightblue" d="M260.402,-435.317C253.855,-359.555 226.603,-88.0659 168,-29 160.087,-21.0247 149.557,-16.1102 138.662,-13.142"/>
<polygon fill="midnightblue" stroke="midnightblue" points="256.923,-435.711 261.248,-445.382 263.898,-435.124 256.923,-435.711"/>
</g>
</g>
</svg>
