<?xml version="1.0" encoding="UTF-8" standalone="no"?>
<!DOCTYPE svg PUBLIC "-//W3C//DTD SVG 1.1//EN"
 "http://www.w3.org/Graphics/SVG/1.1/DTD/svg11.dtd">
<!-- Generated by graphviz version 2.38.0 (20140413.2041)
 -->
<!-- Title: TMC2208Stepper::OTP_READ Pages: 1 -->
<svg width="844pt" height="156pt"
 viewBox="0.00 0.00 844.00 156.41" xmlns="http://www.w3.org/2000/svg" xmlns:xlink="http://www.w3.org/1999/xlink">
<g id="graph0" class="graph" transform="scale(1 1) rotate(0) translate(4 152.405)">
<title>TMC2208Stepper::OTP_READ</title>
<polygon fill="white" stroke="none" points="-4,4 -4,-152.405 840,-152.405 840,4 -4,4"/>
<!-- Node1 -->
<g id="node1" class="node"><title>Node1</title>
<g id="a_node1"><a xlink:title=" ">
<polygon fill="#bfbfbf" stroke="black" points="0,-46.9052 0,-65.9052 149,-65.9052 149,-46.9052 0,-46.9052"/>
<text text-anchor="middle" x="74.5" y="-53.9052" font-family="Helvetica,sans-Serif" font-size="10.00">TMC2208Stepper::OTP_READ</text>
</a>
</g>
</g>
<!-- Node2 -->
<g id="node2" class="node"><title>Node2</title>
<g id="a_node2"><a xlink:href="class_t_m_c2208_stepper.html#a2fae2050849c3ab7968012def8ea1cc5" target="_top" xlink:title=" ">
<polygon fill="white" stroke="black" points="185,-46.9052 185,-65.9052 301,-65.9052 301,-46.9052 185,-46.9052"/>
<text text-anchor="middle" x="243" y="-53.9052" font-family="Helvetica,sans-Serif" font-size="10.00">TMC2208Stepper::read</text>
</a>
</g>
</g>
<!-- Node1&#45;&gt;Node2 -->
<g id="edge1" class="edge"><title>Node1&#45;&gt;Node2</title>
<path fill="none" stroke="midnightblue" d="M149.014,-56.4052C157.561,-56.4052 166.246,-56.4052 174.704,-56.4052"/>
<polygon fill="midnightblue" stroke="midnightblue" points="174.882,-59.9053 184.882,-56.4052 174.882,-52.9053 174.882,-59.9053"/>
</g>
<!-- Node3 -->
<g id="node3" class="node"><title>Node3</title>
<g id="a_node3"><a xlink:href="class_t_m_c2208_stepper.html#a3e1f6a10aa1e3e41dc2594dbe1ea8a1d" target="_top" xlink:title=" ">
<polygon fill="white" stroke="black" points="337,-103.905 337,-122.905 503,-122.905 503,-103.905 337,-103.905"/>
<text text-anchor="middle" x="420" y="-110.905" font-family="Helvetica,sans-Serif" font-size="10.00">TMC2208Stepper::_sendDatagram</text>
</a>
</g>
</g>
<!-- Node2&#45;&gt;Node3 -->
<g id="edge2" class="edge"><title>Node2&#45;&gt;Node3</title>
<path fill="none" stroke="midnightblue" d="M264.7,-65.9833C283.317,-74.3262 311.568,-86.3205 337,-94.4052 345.008,-96.9508 353.555,-99.3114 361.996,-101.442"/>
<polygon fill="midnightblue" stroke="midnightblue" points="361.272,-104.868 371.816,-103.834 362.929,-98.0666 361.272,-104.868"/>
</g>
<!-- Node8 -->
<g id="node8" class="node"><title>Node8</title>
<g id="a_node8"><a xlink:href="class_s_switch.html#a6ff09d0850d551571dc333fb74ff8628" target="_top" xlink:title=" ">
<polygon fill="white" stroke="black" points="378.5,-65.9052 378.5,-84.9052 461.5,-84.9052 461.5,-65.9052 378.5,-65.9052"/>
<text text-anchor="middle" x="420" y="-72.9052" font-family="Helvetica,sans-Serif" font-size="10.00">SSwitch::active</text>
</a>
</g>
</g>
<!-- Node2&#45;&gt;Node8 -->
<g id="edge8" class="edge"><title>Node2&#45;&gt;Node8</title>
<path fill="none" stroke="midnightblue" d="M301.302,-62.6265C322.975,-64.9796 347.465,-67.6385 368.472,-69.9193"/>
<polygon fill="midnightblue" stroke="midnightblue" points="368.158,-73.4056 378.477,-71.0055 368.913,-66.4465 368.158,-73.4056"/>
</g>
<!-- Node9 -->
<g id="node9" class="node"><title>Node9</title>
<g id="a_node9"><a xlink:href="class_t_m_c2208_stepper.html#a409c19fa6b052a370a317d061bf9af4e" target="_top" xlink:title=" ">
<polygon fill="white" stroke="black" points="352,-27.9052 352,-46.9052 488,-46.9052 488,-27.9052 352,-27.9052"/>
<text text-anchor="middle" x="420" y="-34.9052" font-family="Helvetica,sans-Serif" font-size="10.00">TMC2208Stepper::calcCRC</text>
</a>
</g>
</g>
<!-- Node2&#45;&gt;Node9 -->
<g id="edge9" class="edge"><title>Node2&#45;&gt;Node9</title>
<path fill="none" stroke="midnightblue" d="M301.302,-50.1839C314.17,-48.7867 328.032,-47.2817 341.567,-45.8121"/>
<polygon fill="midnightblue" stroke="midnightblue" points="342.269,-49.2566 351.833,-44.6976 341.514,-42.2975 342.269,-49.2566"/>
</g>
<!-- Node4 -->
<g id="node4" class="node"><title>Node4</title>
<g id="a_node4"><a xlink:href="class_t_m_c2208_stepper.html#a4ec5d2b2f5a31259c7aba1f3208d63b8" target="_top" xlink:title=" ">
<polygon fill="white" stroke="black" points="553.5,-128.905 553.5,-147.905 669.5,-147.905 669.5,-128.905 553.5,-128.905"/>
<text text-anchor="middle" x="611.5" y="-135.905" font-family="Helvetica,sans-Serif" font-size="10.00">TMC2208Stepper::ms2</text>
</a>
</g>
</g>
<!-- Node3&#45;&gt;Node4 -->
<g id="edge3" class="edge"><title>Node3&#45;&gt;Node4</title>
<path fill="none" stroke="midnightblue" d="M493.182,-122.928C509.64,-125.099 527.062,-127.397 543.301,-129.54"/>
<polygon fill="midnightblue" stroke="midnightblue" points="542.868,-133.013 553.24,-130.851 543.784,-126.073 542.868,-133.013"/>
</g>
<!-- Node6 -->
<g id="node6" class="node"><title>Node6</title>
<g id="a_node6"><a xlink:href="class_t_m_c2208_stepper.html#ae561da4ec7c40830e97bf4dc8cf700fb" target="_top" xlink:title=" ">
<polygon fill="white" stroke="black" points="539,-90.9052 539,-109.905 684,-109.905 684,-90.9052 539,-90.9052"/>
<text text-anchor="middle" x="611.5" y="-97.9052" font-family="Helvetica,sans-Serif" font-size="10.00">TMC2208Stepper::serial_read</text>
</a>
</g>
</g>
<!-- Node3&#45;&gt;Node6 -->
<g id="edge6" class="edge"><title>Node3&#45;&gt;Node6</title>
<path fill="none" stroke="midnightblue" d="M503.015,-107.779C511.478,-107.198 520.078,-106.608 528.54,-106.028"/>
<polygon fill="midnightblue" stroke="midnightblue" points="529.038,-109.502 538.775,-105.326 528.559,-102.518 529.038,-109.502"/>
</g>
<!-- Node7 -->
<g id="node7" class="node"><title>Node7</title>
<g id="a_node7"><a xlink:href="class_t_m_c2208_stepper.html#a7dd83313385079099b0622957786a979" target="_top" xlink:title=" ">
<polygon fill="white" stroke="black" points="551,-41.4052 551,-71.4052 672,-71.4052 672,-41.4052 551,-41.4052"/>
<text text-anchor="start" x="559" y="-59.4052" font-family="Helvetica,sans-Serif" font-size="10.00">TMC2208Stepper::serial</text>
<text text-anchor="middle" x="611.5" y="-48.4052" font-family="Helvetica,sans-Serif" font-size="10.00">_write</text>
</a>
</g>
</g>
<!-- Node3&#45;&gt;Node7 -->
<g id="edge7" class="edge"><title>Node3&#45;&gt;Node7</title>
<path fill="none" stroke="midnightblue" d="M466.793,-103.808C478.658,-101.045 491.367,-97.8399 503,-94.4052 519.315,-89.5878 522.971,-87.1015 539,-81.4052 545.017,-79.2668 551.325,-77.0401 557.595,-74.8355"/>
<polygon fill="midnightblue" stroke="midnightblue" points="559.095,-78.0185 567.372,-71.4052 556.778,-71.4133 559.095,-78.0185"/>
</g>
<!-- Node5 -->
<g id="node5" class="node"><title>Node5</title>
<g id="a_node5"><a xlink:href="class_t_m_c2208_stepper.html#a5441dd87d0bcea4ffc309cb012166a57" target="_top" xlink:title=" ">
<polygon fill="white" stroke="black" points="720,-58.9052 720,-77.9052 836,-77.9052 836,-58.9052 720,-58.9052"/>
<text text-anchor="middle" x="778" y="-65.9052" font-family="Helvetica,sans-Serif" font-size="10.00">TMC2208Stepper::IOIN</text>
</a>
</g>
</g>
<!-- Node4&#45;&gt;Node5 -->
<g id="edge4" class="edge"><title>Node4&#45;&gt;Node5</title>
<path fill="none" stroke="midnightblue" d="M655.395,-128.814C664.954,-126.18 674.937,-123.032 684,-119.405 708.717,-109.514 735.177,-94.529 753.529,-83.3584"/>
<polygon fill="midnightblue" stroke="midnightblue" points="755.423,-86.3019 762.088,-78.0661 751.742,-80.348 755.423,-86.3019"/>
</g>
<!-- Node5&#45;&gt;Node2 -->
<g id="edge5" class="edge"><title>Node5&#45;&gt;Node2</title>
<path fill="none" stroke="midnightblue" d="M757.963,-58.8176C739.546,-50.0326 710.593,-37.4965 684,-31.4052 533.566,3.05335 488.437,11.3399 337,-18.4052 313.751,-22.9717 288.989,-33.3919 270.866,-42.1675"/>
<polygon fill="midnightblue" stroke="midnightblue" points="268.917,-39.2285 261.532,-46.826 272.043,-45.4917 268.917,-39.2285"/>
</g>
</g>
</svg>
