<?xml version="1.0" encoding="UTF-8" standalone="no"?>
<!DOCTYPE svg PUBLIC "-//W3C//DTD SVG 1.1//EN"
 "http://www.w3.org/Graphics/SVG/1.1/DTD/svg11.dtd">
<!-- Generated by graphviz version 2.38.0 (20140413.2041)
 -->
<!-- Title: TMC2208Stepper::dedge Pages: 1 -->
<svg width="1167pt" height="156pt"
 viewBox="0.00 0.00 1167.00 156.41" xmlns="http://www.w3.org/2000/svg" xmlns:xlink="http://www.w3.org/1999/xlink">
<g id="graph0" class="graph" transform="scale(1 1) rotate(0) translate(4 152.405)">
<title>TMC2208Stepper::dedge</title>
<polygon fill="white" stroke="none" points="-4,4 -4,-152.405 1163,-152.405 1163,4 -4,4"/>
<!-- Node1 -->
<g id="node1" class="node"><title>Node1</title>
<g id="a_node1"><a xlink:title=" ">
<polygon fill="#bfbfbf" stroke="black" points="0,-46.9052 0,-65.9052 124,-65.9052 124,-46.9052 0,-46.9052"/>
<text text-anchor="middle" x="62" y="-53.9052" font-family="Helvetica,sans-Serif" font-size="10.00">TMC2208Stepper::dedge</text>
</a>
</g>
</g>
<!-- Node2 -->
<g id="node2" class="node"><title>Node2</title>
<g id="a_node2"><a xlink:href="class_t_m_c2208_stepper.html#a5b614f72c27fa1b7ff1c08fe07b17582" target="_top" xlink:title=" ">
<polygon fill="white" stroke="black" points="160,-46.9052 160,-65.9052 284,-65.9052 284,-46.9052 160,-46.9052"/>
<text text-anchor="middle" x="222" y="-53.9052" font-family="Helvetica,sans-Serif" font-size="10.00">TMC2208Stepper::dedge</text>
</a>
</g>
</g>
<!-- Node1&#45;&gt;Node2 -->
<g id="edge1" class="edge"><title>Node1&#45;&gt;Node2</title>
<path fill="none" stroke="midnightblue" d="M124.087,-56.4052C132.513,-56.4052 141.226,-56.4052 149.815,-56.4052"/>
<polygon fill="midnightblue" stroke="midnightblue" points="149.815,-59.9053 159.815,-56.4052 149.815,-52.9053 149.815,-59.9053"/>
</g>
<!-- Node3 -->
<g id="node3" class="node"><title>Node3</title>
<g id="a_node3"><a xlink:href="class_t_m_c2208_stepper.html#aa11281f54c293f3ff2539b1a583682a9" target="_top" xlink:title=" ">
<polygon fill="white" stroke="black" points="320,-46.9052 320,-65.9052 472,-65.9052 472,-46.9052 320,-46.9052"/>
<text text-anchor="middle" x="396" y="-53.9052" font-family="Helvetica,sans-Serif" font-size="10.00">TMC2208Stepper::CHOPCONF</text>
</a>
</g>
</g>
<!-- Node2&#45;&gt;Node3 -->
<g id="edge2" class="edge"><title>Node2&#45;&gt;Node3</title>
<path fill="none" stroke="midnightblue" d="M284.125,-56.4052C292.453,-56.4052 301.122,-56.4052 309.78,-56.4052"/>
<polygon fill="midnightblue" stroke="midnightblue" points="309.918,-59.9053 319.918,-56.4052 309.918,-52.9053 309.918,-59.9053"/>
</g>
<!-- Node4 -->
<g id="node4" class="node"><title>Node4</title>
<g id="a_node4"><a xlink:href="class_t_m_c2208_stepper.html#a2fae2050849c3ab7968012def8ea1cc5" target="_top" xlink:title=" ">
<polygon fill="white" stroke="black" points="508,-46.9052 508,-65.9052 624,-65.9052 624,-46.9052 508,-46.9052"/>
<text text-anchor="middle" x="566" y="-53.9052" font-family="Helvetica,sans-Serif" font-size="10.00">TMC2208Stepper::read</text>
</a>
</g>
</g>
<!-- Node3&#45;&gt;Node4 -->
<g id="edge3" class="edge"><title>Node3&#45;&gt;Node4</title>
<path fill="none" stroke="midnightblue" d="M472.155,-56.4052C480.664,-56.4052 489.296,-56.4052 497.696,-56.4052"/>
<polygon fill="midnightblue" stroke="midnightblue" points="497.802,-59.9053 507.802,-56.4052 497.802,-52.9053 497.802,-59.9053"/>
</g>
<!-- Node5 -->
<g id="node5" class="node"><title>Node5</title>
<g id="a_node5"><a xlink:href="class_t_m_c2208_stepper.html#a3e1f6a10aa1e3e41dc2594dbe1ea8a1d" target="_top" xlink:title=" ">
<polygon fill="white" stroke="black" points="660,-103.905 660,-122.905 826,-122.905 826,-103.905 660,-103.905"/>
<text text-anchor="middle" x="743" y="-110.905" font-family="Helvetica,sans-Serif" font-size="10.00">TMC2208Stepper::_sendDatagram</text>
</a>
</g>
</g>
<!-- Node4&#45;&gt;Node5 -->
<g id="edge4" class="edge"><title>Node4&#45;&gt;Node5</title>
<path fill="none" stroke="midnightblue" d="M587.7,-65.9833C606.317,-74.3262 634.568,-86.3205 660,-94.4052 668.008,-96.9508 676.555,-99.3114 684.996,-101.442"/>
<polygon fill="midnightblue" stroke="midnightblue" points="684.272,-104.868 694.816,-103.834 685.929,-98.0666 684.272,-104.868"/>
</g>
<!-- Node10 -->
<g id="node10" class="node"><title>Node10</title>
<g id="a_node10"><a xlink:href="class_s_switch.html#a6ff09d0850d551571dc333fb74ff8628" target="_top" xlink:title=" ">
<polygon fill="white" stroke="black" points="701.5,-65.9052 701.5,-84.9052 784.5,-84.9052 784.5,-65.9052 701.5,-65.9052"/>
<text text-anchor="middle" x="743" y="-72.9052" font-family="Helvetica,sans-Serif" font-size="10.00">SSwitch::active</text>
</a>
</g>
</g>
<!-- Node4&#45;&gt;Node10 -->
<g id="edge10" class="edge"><title>Node4&#45;&gt;Node10</title>
<path fill="none" stroke="midnightblue" d="M624.302,-62.6265C645.975,-64.9796 670.465,-67.6385 691.472,-69.9193"/>
<polygon fill="midnightblue" stroke="midnightblue" points="691.158,-73.4056 701.477,-71.0055 691.913,-66.4465 691.158,-73.4056"/>
</g>
<!-- Node11 -->
<g id="node11" class="node"><title>Node11</title>
<g id="a_node11"><a xlink:href="class_t_m_c2208_stepper.html#a409c19fa6b052a370a317d061bf9af4e" target="_top" xlink:title=" ">
<polygon fill="white" stroke="black" points="675,-27.9052 675,-46.9052 811,-46.9052 811,-27.9052 675,-27.9052"/>
<text text-anchor="middle" x="743" y="-34.9052" font-family="Helvetica,sans-Serif" font-size="10.00">TMC2208Stepper::calcCRC</text>
</a>
</g>
</g>
<!-- Node4&#45;&gt;Node11 -->
<g id="edge11" class="edge"><title>Node4&#45;&gt;Node11</title>
<path fill="none" stroke="midnightblue" d="M624.302,-50.1839C637.17,-48.7867 651.032,-47.2817 664.567,-45.8121"/>
<polygon fill="midnightblue" stroke="midnightblue" points="665.269,-49.2566 674.833,-44.6976 664.514,-42.2975 665.269,-49.2566"/>
</g>
<!-- Node6 -->
<g id="node6" class="node"><title>Node6</title>
<g id="a_node6"><a xlink:href="class_t_m_c2208_stepper.html#a4ec5d2b2f5a31259c7aba1f3208d63b8" target="_top" xlink:title=" ">
<polygon fill="white" stroke="black" points="876.5,-128.905 876.5,-147.905 992.5,-147.905 992.5,-128.905 876.5,-128.905"/>
<text text-anchor="middle" x="934.5" y="-135.905" font-family="Helvetica,sans-Serif" font-size="10.00">TMC2208Stepper::ms2</text>
</a>
</g>
</g>
<!-- Node5&#45;&gt;Node6 -->
<g id="edge5" class="edge"><title>Node5&#45;&gt;Node6</title>
<path fill="none" stroke="midnightblue" d="M816.182,-122.928C832.64,-125.099 850.062,-127.397 866.301,-129.54"/>
<polygon fill="midnightblue" stroke="midnightblue" points="865.868,-133.013 876.24,-130.851 866.784,-126.073 865.868,-133.013"/>
</g>
<!-- Node8 -->
<g id="node8" class="node"><title>Node8</title>
<g id="a_node8"><a xlink:href="class_t_m_c2208_stepper.html#ae561da4ec7c40830e97bf4dc8cf700fb" target="_top" xlink:title=" ">
<polygon fill="white" stroke="black" points="862,-90.9052 862,-109.905 1007,-109.905 1007,-90.9052 862,-90.9052"/>
<text text-anchor="middle" x="934.5" y="-97.9052" font-family="Helvetica,sans-Serif" font-size="10.00">TMC2208Stepper::serial_read</text>
</a>
</g>
</g>
<!-- Node5&#45;&gt;Node8 -->
<g id="edge8" class="edge"><title>Node5&#45;&gt;Node8</title>
<path fill="none" stroke="midnightblue" d="M826.015,-107.779C834.478,-107.198 843.078,-106.608 851.54,-106.028"/>
<polygon fill="midnightblue" stroke="midnightblue" points="852.038,-109.502 861.775,-105.326 851.559,-102.518 852.038,-109.502"/>
</g>
<!-- Node9 -->
<g id="node9" class="node"><title>Node9</title>
<g id="a_node9"><a xlink:href="class_t_m_c2208_stepper.html#a7dd83313385079099b0622957786a979" target="_top" xlink:title=" ">
<polygon fill="white" stroke="black" points="874,-41.4052 874,-71.4052 995,-71.4052 995,-41.4052 874,-41.4052"/>
<text text-anchor="start" x="882" y="-59.4052" font-family="Helvetica,sans-Serif" font-size="10.00">TMC2208Stepper::serial</text>
<text text-anchor="middle" x="934.5" y="-48.4052" font-family="Helvetica,sans-Serif" font-size="10.00">_write</text>
</a>
</g>
</g>
<!-- Node5&#45;&gt;Node9 -->
<g id="edge9" class="edge"><title>Node5&#45;&gt;Node9</title>
<path fill="none" stroke="midnightblue" d="M789.793,-103.808C801.658,-101.045 814.367,-97.8399 826,-94.4052 842.315,-89.5878 845.971,-87.1015 862,-81.4052 868.017,-79.2668 874.325,-77.0401 880.595,-74.8355"/>
<polygon fill="midnightblue" stroke="midnightblue" points="882.095,-78.0185 890.372,-71.4052 879.778,-71.4133 882.095,-78.0185"/>
</g>
<!-- Node7 -->
<g id="node7" class="node"><title>Node7</title>
<g id="a_node7"><a xlink:href="class_t_m_c2208_stepper.html#a5441dd87d0bcea4ffc309cb012166a57" target="_top" xlink:title=" ">
<polygon fill="white" stroke="black" points="1043,-58.9052 1043,-77.9052 1159,-77.9052 1159,-58.9052 1043,-58.9052"/>
<text text-anchor="middle" x="1101" y="-65.9052" font-family="Helvetica,sans-Serif" font-size="10.00">TMC2208Stepper::IOIN</text>
</a>
</g>
</g>
<!-- Node6&#45;&gt;Node7 -->
<g id="edge6" class="edge"><title>Node6&#45;&gt;Node7</title>
<path fill="none" stroke="midnightblue" d="M978.395,-128.814C987.954,-126.18 997.937,-123.032 1007,-119.405 1031.72,-109.514 1058.18,-94.529 1076.53,-83.3584"/>
<polygon fill="midnightblue" stroke="midnightblue" points="1078.42,-86.3019 1085.09,-78.0661 1074.74,-80.348 1078.42,-86.3019"/>
</g>
<!-- Node7&#45;&gt;Node4 -->
<g id="edge7" class="edge"><title>Node7&#45;&gt;Node4</title>
<path fill="none" stroke="midnightblue" d="M1080.96,-58.8176C1062.55,-50.0326 1033.59,-37.4965 1007,-31.4052 856.566,3.05335 811.437,11.3399 660,-18.4052 636.751,-22.9717 611.989,-33.3919 593.866,-42.1675"/>
<polygon fill="midnightblue" stroke="midnightblue" points="591.917,-39.2285 584.532,-46.826 595.043,-45.4917 591.917,-39.2285"/>
</g>
</g>
</svg>
