<?xml version="1.0" encoding="UTF-8" standalone="no"?>
<!DOCTYPE svg PUBLIC "-//W3C//DTD SVG 1.1//EN"
 "http://www.w3.org/Graphics/SVG/1.1/DTD/svg11.dtd">
<!-- Generated by graphviz version 2.38.0 (20140413.2041)
 -->
<!-- Title: TMC2208Stepper::mstep_reg_select Pages: 1 -->
<svg width="294pt" height="78pt"
 viewBox="0.00 0.00 294.00 77.50" xmlns="http://www.w3.org/2000/svg" xmlns:xlink="http://www.w3.org/1999/xlink">
<g id="graph0" class="graph" transform="scale(1 1) rotate(0) translate(4 73.5)">
<title>TMC2208Stepper::mstep_reg_select</title>
<polygon fill="white" stroke="none" points="-4,4 -4,-73.5 290,-73.5 290,4 -4,4"/>
<!-- Node1 -->
<g id="node1" class="node"><title>Node1</title>
<g id="a_node1"><a xlink:title=" ">
<polygon fill="#bfbfbf" stroke="black" points="161,-22.5 161,-52.5 286,-52.5 286,-22.5 161,-22.5"/>
<text text-anchor="start" x="169" y="-40.5" font-family="Helvetica,sans-Serif" font-size="10.00">TMC2208Stepper::mstep</text>
<text text-anchor="middle" x="223.5" y="-29.5" font-family="Helvetica,sans-Serif" font-size="10.00">_reg_select</text>
</a>
</g>
</g>
<!-- Node2 -->
<g id="node2" class="node"><title>Node2</title>
<g id="a_node2"><a xlink:href="class_t_m_c2208_stepper.html#a974fa83e3bab04cd9f9a7b2d31ebd18e" target="_top" xlink:title=" ">
<polygon fill="white" stroke="black" points="2,-50 2,-69 123,-69 123,-50 2,-50"/>
<text text-anchor="middle" x="62.5" y="-57" font-family="Helvetica,sans-Serif" font-size="10.00">TMC2208Stepper::begin</text>
</a>
</g>
</g>
<!-- Node1&#45;&gt;Node2 -->
<g id="edge1" class="edge"><title>Node1&#45;&gt;Node2</title>
<path fill="none" stroke="midnightblue" d="M150.379,-47.479C141.28,-48.738 132.051,-50.015 123.174,-51.2432"/>
<polygon fill="midnightblue" stroke="midnightblue" points="151.145,-50.9064 160.571,-46.0688 150.186,-43.9725 151.145,-50.9064"/>
</g>
<!-- Node3 -->
<g id="node3" class="node"><title>Node3</title>
<g id="a_node3"><a xlink:href="class_t_m_c2208_stepper.html#afb391fd21b77113e5651ebaa9af1c22e" target="_top" xlink:title=" ">
<polygon fill="white" stroke="black" points="0,-0.5 0,-30.5 125,-30.5 125,-0.5 0,-0.5"/>
<text text-anchor="start" x="8" y="-18.5" font-family="Helvetica,sans-Serif" font-size="10.00">TMC2208Stepper::mstep</text>
<text text-anchor="middle" x="62.5" y="-7.5" font-family="Helvetica,sans-Serif" font-size="10.00">_reg_select</text>
</a>
</g>
</g>
<!-- Node1&#45;&gt;Node3 -->
<g id="edge2" class="edge"><title>Node1&#45;&gt;Node3</title>
<path fill="none" stroke="midnightblue" d="M150.408,-27.525C142.01,-26.363 133.501,-25.1857 125.26,-24.0454"/>
<polygon fill="midnightblue" stroke="midnightblue" points="150.186,-31.0275 160.571,-28.9312 151.145,-24.0936 150.186,-31.0275"/>
</g>
</g>
</svg>
