<?xml version="1.0" encoding="UTF-8" standalone="no"?>
<!DOCTYPE svg PUBLIC "-//W3C//DTD SVG 1.1//EN"
 "http://www.w3.org/Graphics/SVG/1.1/DTD/svg11.dtd">
<!-- Generated by graphviz version 2.38.0 (20140413.2041)
 -->
<!-- Title: TMCStepper::read Pages: 1 -->
<svg width="411pt" height="180pt"
 viewBox="0.00 0.00 411.00 180.00" xmlns="http://www.w3.org/2000/svg" xmlns:xlink="http://www.w3.org/1999/xlink">
<g id="graph0" class="graph" transform="scale(1 1) rotate(0) translate(4 176)">
<title>TMCStepper::read</title>
<polygon fill="white" stroke="none" points="-4,4 -4,-176 407,-176 407,4 -4,4"/>
<!-- Node1 -->
<g id="node1" class="node"><title>Node1</title>
<g id="a_node1"><a xlink:title=" ">
<polygon fill="#bfbfbf" stroke="black" points="308,-57.5 308,-76.5 403,-76.5 403,-57.5 308,-57.5"/>
<text text-anchor="middle" x="355.5" y="-64.5" font-family="Helvetica,sans-Serif" font-size="10.00">TMCStepper::read</text>
</a>
</g>
</g>
<!-- Node2 -->
<g id="node2" class="node"><title>Node2</title>
<g id="a_node2"><a xlink:href="class_t_m_c_stepper.html#ac7874c4b56bd1b3acce522c1e7d7dfed" target="_top" xlink:title=" ">
<polygon fill="white" stroke="black" points="152.5,-114.5 152.5,-133.5 260.5,-133.5 260.5,-114.5 152.5,-114.5"/>
<text text-anchor="middle" x="206.5" y="-121.5" font-family="Helvetica,sans-Serif" font-size="10.00">TMCStepper::GSTAT</text>
</a>
</g>
</g>
<!-- Node1&#45;&gt;Node2 -->
<g id="edge1" class="edge"><title>Node1&#45;&gt;Node2</title>
<path fill="none" stroke="midnightblue" d="M326.627,-81.0668C310.838,-88.7221 290.584,-98.0251 272,-105 262.819,-108.446 252.719,-111.676 243.291,-114.461"/>
<polygon fill="midnightblue" stroke="midnightblue" points="328.393,-84.0987 335.826,-76.5487 325.308,-77.8156 328.393,-84.0987"/>
</g>
<!-- Node6 -->
<g id="node6" class="node"><title>Node6</title>
<g id="a_node6"><a xlink:href="class_t_m_c_stepper.html#a5c93e348deec2455319c4ec819ac83fa" target="_top" xlink:title=" ">
<polygon fill="white" stroke="black" points="151.5,-76.5 151.5,-95.5 261.5,-95.5 261.5,-76.5 151.5,-76.5"/>
<text text-anchor="middle" x="206.5" y="-83.5" font-family="Helvetica,sans-Serif" font-size="10.00">TMCStepper::MSCNT</text>
</a>
</g>
</g>
<!-- Node1&#45;&gt;Node6 -->
<g id="edge5" class="edge"><title>Node1&#45;&gt;Node6</title>
<path fill="none" stroke="midnightblue" d="M297.758,-74.334C285.899,-75.8667 273.426,-77.479 261.663,-78.9993"/>
<polygon fill="midnightblue" stroke="midnightblue" points="298.519,-77.7648 307.988,-73.0117 297.622,-70.8225 298.519,-77.7648"/>
</g>
<!-- Node7 -->
<g id="node7" class="node"><title>Node7</title>
<g id="a_node7"><a xlink:href="class_t_m_c_stepper.html#ac2a244b29e2256064a7ec2e07d694d61" target="_top" xlink:title=" ">
<polygon fill="white" stroke="black" points="141,-38.5 141,-57.5 272,-57.5 272,-38.5 141,-38.5"/>
<text text-anchor="middle" x="206.5" y="-45.5" font-family="Helvetica,sans-Serif" font-size="10.00">TMCStepper::MSCURACT</text>
</a>
</g>
</g>
<!-- Node1&#45;&gt;Node7 -->
<g id="edge6" class="edge"><title>Node1&#45;&gt;Node7</title>
<path fill="none" stroke="midnightblue" d="M297.923,-59.6873C289.518,-58.6009 280.8,-57.4742 272.244,-56.3682"/>
<polygon fill="midnightblue" stroke="midnightblue" points="297.622,-63.1775 307.988,-60.9883 298.519,-56.2352 297.622,-63.1775"/>
</g>
<!-- Node10 -->
<g id="node10" class="node"><title>Node10</title>
<g id="a_node10"><a xlink:href="class_t_m_c_stepper.html#ac3b12d35df63eeb8cfed2ce410ea0050" target="_top" xlink:title=" ">
<polygon fill="white" stroke="black" points="153,-0.5 153,-19.5 260,-19.5 260,-0.5 153,-0.5"/>
<text text-anchor="middle" x="206.5" y="-7.5" font-family="Helvetica,sans-Serif" font-size="10.00">TMCStepper::TSTEP</text>
</a>
</g>
</g>
<!-- Node1&#45;&gt;Node10 -->
<g id="edge9" class="edge"><title>Node1&#45;&gt;Node10</title>
<path fill="none" stroke="midnightblue" d="M326.627,-52.9332C310.838,-45.2779 290.584,-35.9749 272,-29 262.819,-25.5543 252.719,-22.3242 243.291,-19.5392"/>
<polygon fill="midnightblue" stroke="midnightblue" points="325.308,-56.1844 335.826,-57.4513 328.393,-49.9013 325.308,-56.1844"/>
</g>
<!-- Node3 -->
<g id="node3" class="node"><title>Node3</title>
<g id="a_node3"><a xlink:href="class_t_m_c_stepper.html#a547e59743734b01749efd52210a0bd02" target="_top" xlink:title=" ">
<polygon fill="white" stroke="black" points="0,-152.5 0,-171.5 105,-171.5 105,-152.5 0,-152.5"/>
<text text-anchor="middle" x="52.5" y="-159.5" font-family="Helvetica,sans-Serif" font-size="10.00">TMCStepper::drv_err</text>
</a>
</g>
</g>
<!-- Node2&#45;&gt;Node3 -->
<g id="edge2" class="edge"><title>Node2&#45;&gt;Node3</title>
<path fill="none" stroke="midnightblue" d="M157.34,-136.04C136.105,-141.349 111.505,-147.499 91.5802,-152.48"/>
<polygon fill="midnightblue" stroke="midnightblue" points="158.291,-139.41 167.144,-133.589 156.594,-132.619 158.291,-139.41"/>
</g>
<!-- Node4 -->
<g id="node4" class="node"><title>Node4</title>
<g id="a_node4"><a xlink:href="class_t_m_c_stepper.html#ab3cc9688f015f07d65cca651c4c50299" target="_top" xlink:title=" ">
<polygon fill="white" stroke="black" points="3.5,-114.5 3.5,-133.5 101.5,-133.5 101.5,-114.5 3.5,-114.5"/>
<text text-anchor="middle" x="52.5" y="-121.5" font-family="Helvetica,sans-Serif" font-size="10.00">TMCStepper::reset</text>
</a>
</g>
</g>
<!-- Node2&#45;&gt;Node4 -->
<g id="edge3" class="edge"><title>Node2&#45;&gt;Node4</title>
<path fill="none" stroke="midnightblue" d="M142.102,-124C128.538,-124 114.424,-124 101.551,-124"/>
<polygon fill="midnightblue" stroke="midnightblue" points="142.338,-127.5 152.338,-124 142.338,-120.5 142.338,-127.5"/>
</g>
<!-- Node5 -->
<g id="node5" class="node"><title>Node5</title>
<g id="a_node5"><a xlink:href="class_t_m_c_stepper.html#a4d6aef5354024120e47d7d638edcbfe7" target="_top" xlink:title=" ">
<polygon fill="white" stroke="black" points="2,-76.5 2,-95.5 103,-95.5 103,-76.5 2,-76.5"/>
<text text-anchor="middle" x="52.5" y="-83.5" font-family="Helvetica,sans-Serif" font-size="10.00">TMCStepper::uv_cp</text>
</a>
</g>
</g>
<!-- Node2&#45;&gt;Node5 -->
<g id="edge4" class="edge"><title>Node2&#45;&gt;Node5</title>
<path fill="none" stroke="midnightblue" d="M157.34,-111.96C136.105,-106.651 111.505,-100.501 91.5802,-95.5201"/>
<polygon fill="midnightblue" stroke="midnightblue" points="156.594,-115.381 167.144,-114.411 158.291,-108.59 156.594,-115.381"/>
</g>
<!-- Node8 -->
<g id="node8" class="node"><title>Node8</title>
<g id="a_node8"><a xlink:href="class_t_m_c_stepper.html#a58d924967fb53750c162d0e9c4d2020c" target="_top" xlink:title=" ">
<polygon fill="white" stroke="black" points="2,-38.5 2,-57.5 103,-57.5 103,-38.5 2,-38.5"/>
<text text-anchor="middle" x="52.5" y="-45.5" font-family="Helvetica,sans-Serif" font-size="10.00">TMCStepper::cur_a</text>
</a>
</g>
</g>
<!-- Node7&#45;&gt;Node8 -->
<g id="edge7" class="edge"><title>Node7&#45;&gt;Node8</title>
<path fill="none" stroke="midnightblue" d="M130.505,-48C121.173,-48 111.821,-48 103.011,-48"/>
<polygon fill="midnightblue" stroke="midnightblue" points="130.597,-51.5001 140.597,-48 130.597,-44.5001 130.597,-51.5001"/>
</g>
<!-- Node9 -->
<g id="node9" class="node"><title>Node9</title>
<g id="a_node9"><a xlink:href="class_t_m_c_stepper.html#ac7451afd82d3ebac91fe607d4bab65f8" target="_top" xlink:title=" ">
<polygon fill="white" stroke="black" points="2,-0.5 2,-19.5 103,-19.5 103,-0.5 2,-0.5"/>
<text text-anchor="middle" x="52.5" y="-7.5" font-family="Helvetica,sans-Serif" font-size="10.00">TMCStepper::cur_b</text>
</a>
</g>
</g>
<!-- Node7&#45;&gt;Node9 -->
<g id="edge8" class="edge"><title>Node7&#45;&gt;Node9</title>
<path fill="none" stroke="midnightblue" d="M157.34,-35.96C136.105,-30.6512 111.505,-24.5012 91.5802,-19.5201"/>
<polygon fill="midnightblue" stroke="midnightblue" points="156.594,-39.3811 167.144,-38.411 158.291,-32.5901 156.594,-39.3811"/>
</g>
</g>
</svg>
