<?xml version="1.0" encoding="UTF-8" standalone="no"?>
<!DOCTYPE svg PUBLIC "-//W3C//DTD SVG 1.1//EN"
 "http://www.w3.org/Graphics/SVG/1.1/DTD/svg11.dtd">
<!-- Generated by graphviz version 2.38.0 (20140413.2041)
 -->
<!-- Title: TMC5130Stepper::IOIN Pages: 1 -->
<svg width="473pt" height="377pt"
 viewBox="0.00 0.00 473.00 376.50" xmlns="http://www.w3.org/2000/svg" xmlns:xlink="http://www.w3.org/1999/xlink">
<g id="graph0" class="graph" transform="scale(1 1) rotate(0) translate(4 372.5)">
<title>TMC5130Stepper::IOIN</title>
<polygon fill="white" stroke="none" points="-4,4 -4,-372.5 469,-372.5 469,4 -4,4"/>
<!-- Node1 -->
<g id="node1" class="node"><title>Node1</title>
<g id="a_node1"><a xlink:title=" ">
<polygon fill="#bfbfbf" stroke="black" points="349,-152.5 349,-171.5 465,-171.5 465,-152.5 349,-152.5"/>
<text text-anchor="middle" x="407" y="-159.5" font-family="Helvetica,sans-Serif" font-size="10.00">TMC5130Stepper::IOIN</text>
</a>
</g>
</g>
<!-- Node2 -->
<g id="node2" class="node"><title>Node2</title>
<g id="a_node2"><a xlink:href="class_t_m_c5130_stepper.html#a95c4932eec04832c7543b7908555b126" target="_top" xlink:title=" ">
<polygon fill="white" stroke="black" points="185,-338 185,-368 295,-368 295,-338 185,-338"/>
<text text-anchor="start" x="193" y="-356" font-family="Helvetica,sans-Serif" font-size="10.00">TMC5130Stepper::drv</text>
<text text-anchor="middle" x="240" y="-345" font-family="Helvetica,sans-Serif" font-size="10.00">_enn_cfg6</text>
</a>
</g>
</g>
<!-- Node1&#45;&gt;Node2 -->
<g id="edge1" class="edge"><title>Node1&#45;&gt;Node2</title>
<path fill="none" stroke="midnightblue" d="M400.391,-181.336C389.372,-215.958 361.641,-288.673 313,-329 307.725,-333.373 301.623,-336.96 295.246,-339.899"/>
<polygon fill="midnightblue" stroke="midnightblue" points="403.814,-182.11 403.386,-171.524 397.119,-180.066 403.814,-182.11"/>
</g>
<!-- Node4 -->
<g id="node4" class="node"><title>Node4</title>
<g id="a_node4"><a xlink:href="class_t_m_c5130_stepper.html#adc1e0971a9d17880735d30fcb0eac342" target="_top" xlink:title=" ">
<polygon fill="white" stroke="black" points="183.5,-289 183.5,-319 296.5,-319 296.5,-289 183.5,-289"/>
<text text-anchor="start" x="191.5" y="-307" font-family="Helvetica,sans-Serif" font-size="10.00">TMC5130Stepper::enc</text>
<text text-anchor="middle" x="240" y="-296" font-family="Helvetica,sans-Serif" font-size="10.00">_n_dco</text>
</a>
</g>
</g>
<!-- Node1&#45;&gt;Node4 -->
<g id="edge3" class="edge"><title>Node1&#45;&gt;Node4</title>
<path fill="none" stroke="midnightblue" d="M395.998,-180.653C381.189,-206.564 351.037,-253.271 313,-280 308.041,-283.485 302.539,-286.492 296.85,-289.081"/>
<polygon fill="midnightblue" stroke="midnightblue" points="399.105,-182.266 400.907,-171.825 392.988,-178.864 399.105,-182.266"/>
</g>
<!-- Node6 -->
<g id="node6" class="node"><title>Node6</title>
<g id="a_node6"><a xlink:href="class_t_m_c5130_stepper.html#ab6d8e950cf79191cdb634721c4914d7f" target="_top" xlink:title=" ">
<polygon fill="white" stroke="black" points="180.5,-240 180.5,-270 299.5,-270 299.5,-240 180.5,-240"/>
<text text-anchor="start" x="188.5" y="-258" font-family="Helvetica,sans-Serif" font-size="10.00">TMC5130Stepper::enca</text>
<text text-anchor="middle" x="240" y="-247" font-family="Helvetica,sans-Serif" font-size="10.00">_dcin_cfg5</text>
</a>
</g>
</g>
<!-- Node1&#45;&gt;Node6 -->
<g id="edge5" class="edge"><title>Node1&#45;&gt;Node6</title>
<path fill="none" stroke="midnightblue" d="M387.389,-178.61C369.416,-193.945 340.891,-216.479 313,-231 306.689,-234.286 299.837,-237.253 292.953,-239.891"/>
<polygon fill="midnightblue" stroke="midnightblue" points="390.06,-180.927 395.316,-171.727 385.47,-175.641 390.06,-180.927"/>
</g>
<!-- Node7 -->
<g id="node7" class="node"><title>Node7</title>
<g id="a_node7"><a xlink:href="class_t_m_c5130_stepper.html#a95fd198d43839424d08a84f92474095e" target="_top" xlink:title=" ">
<polygon fill="white" stroke="black" points="180.5,-191 180.5,-221 299.5,-221 299.5,-191 180.5,-191"/>
<text text-anchor="start" x="188.5" y="-209" font-family="Helvetica,sans-Serif" font-size="10.00">TMC5130Stepper::encb</text>
<text text-anchor="middle" x="240" y="-198" font-family="Helvetica,sans-Serif" font-size="10.00">_dcen_cfg4</text>
</a>
</g>
</g>
<!-- Node1&#45;&gt;Node7 -->
<g id="edge6" class="edge"><title>Node1&#45;&gt;Node7</title>
<path fill="none" stroke="midnightblue" d="M360.367,-174.169C340.91,-179.357 318.008,-185.465 297.495,-190.935"/>
<polygon fill="midnightblue" stroke="midnightblue" points="361.437,-177.506 370.197,-171.547 359.633,-170.742 361.437,-177.506"/>
</g>
<!-- Node8 -->
<g id="node8" class="node"><title>Node8</title>
<g id="a_node8"><a xlink:href="class_t_m_c5130_stepper.html#a7034d397610ed9525f0311be5d2661ba" target="_top" xlink:title=" ">
<polygon fill="white" stroke="black" points="173,-152.5 173,-171.5 307,-171.5 307,-152.5 173,-152.5"/>
<text text-anchor="middle" x="240" y="-159.5" font-family="Helvetica,sans-Serif" font-size="10.00">TMC5130Stepper::refl_step</text>
</a>
</g>
</g>
<!-- Node1&#45;&gt;Node8 -->
<g id="edge7" class="edge"><title>Node1&#45;&gt;Node8</title>
<path fill="none" stroke="midnightblue" d="M338.542,-162C328.196,-162 317.524,-162 307.206,-162"/>
<polygon fill="midnightblue" stroke="midnightblue" points="338.754,-165.5 348.754,-162 338.754,-158.5 338.754,-165.5"/>
</g>
<!-- Node9 -->
<g id="node9" class="node"><title>Node9</title>
<g id="a_node9"><a xlink:href="class_t_m_c5130_stepper.html#a84477fb2054b59c46e788aa88a4e359f" target="_top" xlink:title=" ">
<polygon fill="white" stroke="black" points="176.5,-114.5 176.5,-133.5 303.5,-133.5 303.5,-114.5 176.5,-114.5"/>
<text text-anchor="middle" x="240" y="-121.5" font-family="Helvetica,sans-Serif" font-size="10.00">TMC5130Stepper::refr_dir</text>
</a>
</g>
</g>
<!-- Node1&#45;&gt;Node9 -->
<g id="edge8" class="edge"><title>Node1&#45;&gt;Node9</title>
<path fill="none" stroke="midnightblue" d="M354.346,-150.104C331.154,-144.763 304.162,-138.546 282.337,-133.52"/>
<polygon fill="midnightblue" stroke="midnightblue" points="353.833,-153.577 364.364,-152.411 355.404,-146.756 353.833,-153.577"/>
</g>
<!-- Node10 -->
<g id="node10" class="node"><title>Node10</title>
<g id="a_node10"><a xlink:href="class_t_m_c5130_stepper.html#af23a49d7fd8c9382619c631bea7cd552" target="_top" xlink:title=" ">
<polygon fill="white" stroke="black" points="171.5,-76.5 171.5,-95.5 308.5,-95.5 308.5,-76.5 171.5,-76.5"/>
<text text-anchor="middle" x="240" y="-83.5" font-family="Helvetica,sans-Serif" font-size="10.00">TMC5130Stepper::sd_mode</text>
</a>
</g>
</g>
<!-- Node1&#45;&gt;Node10 -->
<g id="edge9" class="edge"><title>Node1&#45;&gt;Node10</title>
<path fill="none" stroke="midnightblue" d="M384.947,-146.617C366.702,-133.907 339.188,-116.194 313,-105 304.322,-101.291 294.739,-98.152 285.472,-95.56"/>
<polygon fill="midnightblue" stroke="midnightblue" points="382.93,-149.477 393.113,-152.404 386.978,-143.766 382.93,-149.477"/>
</g>
<!-- Node11 -->
<g id="node11" class="node"><title>Node11</title>
<g id="a_node11"><a xlink:href="class_t_m_c5130_stepper.html#abb1e6c7b8e068a0f0e4b44012c0fab01" target="_top" xlink:title=" ">
<polygon fill="white" stroke="black" points="167,-38.5 167,-57.5 313,-57.5 313,-38.5 167,-38.5"/>
<text text-anchor="middle" x="240" y="-45.5" font-family="Helvetica,sans-Serif" font-size="10.00">TMC5130Stepper::swcomp_in</text>
</a>
</g>
</g>
<!-- Node1&#45;&gt;Node11 -->
<g id="edge10" class="edge"><title>Node1&#45;&gt;Node11</title>
<path fill="none" stroke="midnightblue" d="M393.226,-143.959C377.016,-122.413 347.037,-86.8072 313,-67 306.408,-63.1637 299.029,-60.0865 291.578,-57.6222"/>
<polygon fill="midnightblue" stroke="midnightblue" points="390.566,-146.25 399.301,-152.245 396.211,-142.111 390.566,-146.25"/>
</g>
<!-- Node12 -->
<g id="node12" class="node"><title>Node12</title>
<g id="a_node12"><a xlink:href="class_t_m_c5130_stepper.html#a5b3fbb33c8d97d946b880e6c50dd0f73" target="_top" xlink:title=" ">
<polygon fill="white" stroke="black" points="176,-0.5 176,-19.5 304,-19.5 304,-0.5 176,-0.5"/>
<text text-anchor="middle" x="240" y="-7.5" font-family="Helvetica,sans-Serif" font-size="10.00">TMC5130Stepper::version</text>
</a>
</g>
</g>
<!-- Node1&#45;&gt;Node12 -->
<g id="edge11" class="edge"><title>Node1&#45;&gt;Node12</title>
<path fill="none" stroke="midnightblue" d="M397.848,-142.72C384.502,-113.537 355.185,-58.4395 313,-29 307.487,-25.1528 301.243,-22.0846 294.793,-19.6376"/>
<polygon fill="midnightblue" stroke="midnightblue" points="394.795,-144.47 402.037,-152.203 401.198,-141.642 394.795,-144.47"/>
</g>
<!-- Node3 -->
<g id="node3" class="node"><title>Node3</title>
<g id="a_node3"><a xlink:href="class_t_m_c5160_stepper.html#a3d9e9b0393822023ea55131d68050772" target="_top" xlink:title=" ">
<polygon fill="white" stroke="black" points="0,-343.5 0,-362.5 131,-362.5 131,-343.5 0,-343.5"/>
<text text-anchor="middle" x="65.5" y="-350.5" font-family="Helvetica,sans-Serif" font-size="10.00">TMC5160Stepper::drv_enn</text>
</a>
</g>
</g>
<!-- Node2&#45;&gt;Node3 -->
<g id="edge2" class="edge"><title>Node2&#45;&gt;Node3</title>
<path fill="none" stroke="midnightblue" d="M174.737,-353C160.55,-353 145.512,-353 131.304,-353"/>
<polygon fill="midnightblue" stroke="midnightblue" points="174.893,-356.5 184.893,-353 174.893,-349.5 174.893,-356.5"/>
</g>
<!-- Node5 -->
<g id="node5" class="node"><title>Node5</title>
<g id="a_node5"><a xlink:href="class_t_m_c5160_stepper.html#a9ed1c2641507fdd8a692495c5eb91297" target="_top" xlink:title=" ">
<polygon fill="white" stroke="black" points="9,-289 9,-319 122,-319 122,-289 9,-289"/>
<text text-anchor="start" x="17" y="-307" font-family="Helvetica,sans-Serif" font-size="10.00">TMC5160Stepper::enc</text>
<text text-anchor="middle" x="65.5" y="-296" font-family="Helvetica,sans-Serif" font-size="10.00">_n_dco_cfg6</text>
</a>
</g>
</g>
<!-- Node4&#45;&gt;Node5 -->
<g id="edge4" class="edge"><title>Node4&#45;&gt;Node5</title>
<path fill="none" stroke="midnightblue" d="M173.173,-304C156.368,-304 138.465,-304 122.221,-304"/>
<polygon fill="midnightblue" stroke="midnightblue" points="173.47,-307.5 183.47,-304 173.47,-300.5 173.47,-307.5"/>
</g>
</g>
</svg>
