<?xml version="1.0" encoding="UTF-8" standalone="no"?>
<!DOCTYPE svg PUBLIC "-//W3C//DTD SVG 1.1//EN"
 "http://www.w3.org/Graphics/SVG/1.1/DTD/svg11.dtd">
<!-- Generated by graphviz version 2.38.0 (20140413.2041)
 -->
<!-- Title: TMC2130Stepper::toff Pages: 1 -->
<svg width="451pt" height="142pt"
 viewBox="0.00 0.00 451.00 142.00" xmlns="http://www.w3.org/2000/svg" xmlns:xlink="http://www.w3.org/1999/xlink">
<g id="graph0" class="graph" transform="scale(1 1) rotate(0) translate(4 138)">
<title>TMC2130Stepper::toff</title>
<polygon fill="white" stroke="none" points="-4,4 -4,-138 447,-138 447,4 -4,4"/>
<!-- Node1 -->
<g id="node1" class="node"><title>Node1</title>
<g id="a_node1"><a xlink:title=" ">
<polygon fill="#bfbfbf" stroke="black" points="333,-57.5 333,-76.5 443,-76.5 443,-57.5 333,-57.5"/>
<text text-anchor="middle" x="388" y="-64.5" font-family="Helvetica,sans-Serif" font-size="10.00">TMC2130Stepper::toff</text>
</a>
</g>
</g>
<!-- Node2 -->
<g id="node2" class="node"><title>Node2</title>
<g id="a_node2"><a xlink:href="class_t_m_c2130_stepper.html#a2d19f2ad93b00b75ffdcdd73275d2f03" target="_top" xlink:title=" ">
<polygon fill="white" stroke="black" points="166.5,-114.5 166.5,-133.5 287.5,-133.5 287.5,-114.5 166.5,-114.5"/>
<text text-anchor="middle" x="227" y="-121.5" font-family="Helvetica,sans-Serif" font-size="10.00">TMC2130Stepper::begin</text>
</a>
</g>
</g>
<!-- Node1&#45;&gt;Node2 -->
<g id="edge1" class="edge"><title>Node1&#45;&gt;Node2</title>
<path fill="none" stroke="midnightblue" d="M356.999,-80.8305C339.68,-88.5198 317.359,-97.9329 297,-105 287.14,-108.423 276.322,-111.645 266.236,-114.43"/>
<polygon fill="midnightblue" stroke="midnightblue" points="358.878,-83.8234 366.566,-76.5331 356.01,-77.438 358.878,-83.8234"/>
</g>
<!-- Node3 -->
<g id="node3" class="node"><title>Node3</title>
<g id="a_node3"><a xlink:href="class_t_m_c2160_stepper.html#a7ee48b042245ef5b3968b82029d1404c" target="_top" xlink:title=" ">
<polygon fill="white" stroke="black" points="166.5,-76.5 166.5,-95.5 287.5,-95.5 287.5,-76.5 166.5,-76.5"/>
<text text-anchor="middle" x="227" y="-83.5" font-family="Helvetica,sans-Serif" font-size="10.00">TMC2160Stepper::begin</text>
</a>
</g>
</g>
<!-- Node1&#45;&gt;Node3 -->
<g id="edge2" class="edge"><title>Node1&#45;&gt;Node3</title>
<path fill="none" stroke="midnightblue" d="M322.715,-74.6818C311.164,-76.0622 299.167,-77.4957 287.751,-78.8599"/>
<polygon fill="midnightblue" stroke="midnightblue" points="323.212,-78.1475 332.726,-73.4856 322.381,-71.1969 323.212,-78.1475"/>
</g>
<!-- Node5 -->
<g id="node5" class="node"><title>Node5</title>
<g id="a_node5"><a xlink:href="class_t_m_c2130_stepper.html#aca7a615bce307a631a6118fd95cc9195" target="_top" xlink:title=" ">
<polygon fill="white" stroke="black" points="157,-38.5 157,-57.5 297,-57.5 297,-38.5 157,-38.5"/>
<text text-anchor="middle" x="227" y="-45.5" font-family="Helvetica,sans-Serif" font-size="10.00">TMC2130Stepper::isEnabled</text>
</a>
</g>
</g>
<!-- Node1&#45;&gt;Node5 -->
<g id="edge4" class="edge"><title>Node1&#45;&gt;Node5</title>
<path fill="none" stroke="midnightblue" d="M322.65,-59.3104C314.273,-58.3094 305.663,-57.2805 297.211,-56.2705"/>
<polygon fill="midnightblue" stroke="midnightblue" points="322.381,-62.8031 332.726,-60.5144 323.212,-55.8525 322.381,-62.8031"/>
</g>
<!-- Node6 -->
<g id="node6" class="node"><title>Node6</title>
<g id="a_node6"><a xlink:href="class_t_m_c2130_stepper.html#a5c38cecab1bea081e85481f6ea107d42" target="_top" xlink:title=" ">
<polygon fill="white" stroke="black" points="172,-0.5 172,-19.5 282,-19.5 282,-0.5 172,-0.5"/>
<text text-anchor="middle" x="227" y="-7.5" font-family="Helvetica,sans-Serif" font-size="10.00">TMC2130Stepper::toff</text>
</a>
</g>
</g>
<!-- Node1&#45;&gt;Node6 -->
<g id="edge5" class="edge"><title>Node1&#45;&gt;Node6</title>
<path fill="none" stroke="midnightblue" d="M356.999,-53.1695C339.68,-45.4802 317.359,-36.0671 297,-29 287.14,-25.5774 276.322,-22.3552 266.236,-19.5705"/>
<polygon fill="midnightblue" stroke="midnightblue" points="356.01,-56.562 366.566,-57.4669 358.878,-50.1766 356.01,-56.562"/>
</g>
<!-- Node4 -->
<g id="node4" class="node"><title>Node4</title>
<g id="a_node4"><a xlink:href="class_t_m_c5130_stepper.html#a897212f81817cdaee4536d642badc149" target="_top" xlink:title=" ">
<polygon fill="white" stroke="black" points="0,-76.5 0,-95.5 121,-95.5 121,-76.5 0,-76.5"/>
<text text-anchor="middle" x="60.5" y="-83.5" font-family="Helvetica,sans-Serif" font-size="10.00">TMC5130Stepper::begin</text>
</a>
</g>
</g>
<!-- Node3&#45;&gt;Node4 -->
<g id="edge3" class="edge"><title>Node3&#45;&gt;Node4</title>
<path fill="none" stroke="midnightblue" d="M156.021,-86C144.374,-86 132.39,-86 121.034,-86"/>
<polygon fill="midnightblue" stroke="midnightblue" points="156.146,-89.5001 166.146,-86 156.146,-82.5001 156.146,-89.5001"/>
</g>
</g>
</svg>
