<?xml version="1.0" encoding="UTF-8" standalone="no"?>
<!DOCTYPE svg PUBLIC "-//W3C//DTD SVG 1.1//EN"
 "http://www.w3.org/Graphics/SVG/1.1/DTD/svg11.dtd">
<!-- Generated by graphviz version 2.38.0 (20140413.2041)
 -->
<!-- Title: TMC2208Stepper::ms2 Pages: 1 -->
<svg width="878pt" height="1340pt"
 viewBox="0.00 0.00 878.00 1340.00" xmlns="http://www.w3.org/2000/svg" xmlns:xlink="http://www.w3.org/1999/xlink">
<g id="graph0" class="graph" transform="scale(1 1) rotate(0) translate(4 1336)">
<title>TMC2208Stepper::ms2</title>
<polygon fill="white" stroke="none" points="-4,4 -4,-1336 874,-1336 874,4 -4,4"/>
<!-- Node1 -->
<g id="node1" class="node"><title>Node1</title>
<g id="a_node1"><a xlink:title=" ">
<polygon fill="#bfbfbf" stroke="black" points="754,-305.5 754,-324.5 870,-324.5 870,-305.5 754,-305.5"/>
<text text-anchor="middle" x="812" y="-312.5" font-family="Helvetica,sans-Serif" font-size="10.00">TMC2208Stepper::ms2</text>
</a>
</g>
</g>
<!-- Node2 -->
<g id="node2" class="node"><title>Node2</title>
<g id="a_node2"><a xlink:href="class_t_m_c2208_stepper.html#a3e1f6a10aa1e3e41dc2594dbe1ea8a1d" target="_top" xlink:title=" ">
<polygon fill="white" stroke="black" points="552,-355.5 552,-374.5 718,-374.5 718,-355.5 552,-355.5"/>
<text text-anchor="middle" x="635" y="-362.5" font-family="Helvetica,sans-Serif" font-size="10.00">TMC2208Stepper::_sendDatagram</text>
</a>
</g>
</g>
<!-- Node1&#45;&gt;Node2 -->
<g id="edge1" class="edge"><title>Node1&#45;&gt;Node2</title>
<path fill="none" stroke="midnightblue" d="M767.782,-327.348C737.435,-336.018 697.439,-347.446 669.502,-355.428"/>
<polygon fill="midnightblue" stroke="midnightblue" points="769.018,-330.635 777.672,-324.522 767.095,-323.904 769.018,-330.635"/>
</g>
<!-- Node3 -->
<g id="node3" class="node"><title>Node3</title>
<g id="a_node3"><a xlink:href="class_t_m_c2208_stepper.html#a2fae2050849c3ab7968012def8ea1cc5" target="_top" xlink:title=" ">
<polygon fill="white" stroke="black" points="400,-478.5 400,-497.5 516,-497.5 516,-478.5 400,-478.5"/>
<text text-anchor="middle" x="458" y="-485.5" font-family="Helvetica,sans-Serif" font-size="10.00">TMC2208Stepper::read</text>
</a>
</g>
</g>
<!-- Node2&#45;&gt;Node3 -->
<g id="edge2" class="edge"><title>Node2&#45;&gt;Node3</title>
<path fill="none" stroke="midnightblue" d="M611.741,-380.645C575.008,-406.463 502.767,-457.238 472.668,-478.393"/>
<polygon fill="midnightblue" stroke="midnightblue" points="614.099,-383.265 620.268,-374.652 610.074,-377.538 614.099,-383.265"/>
</g>
<!-- Node4 -->
<g id="node4" class="node"><title>Node4</title>
<g id="a_node4"><a xlink:href="class_t_m_c2208_stepper.html#aa11281f54c293f3ff2539b1a583682a9" target="_top" xlink:title=" ">
<polygon fill="white" stroke="black" points="200,-1027.5 200,-1046.5 352,-1046.5 352,-1027.5 200,-1027.5"/>
<text text-anchor="middle" x="276" y="-1034.5" font-family="Helvetica,sans-Serif" font-size="10.00">TMC2208Stepper::CHOPCONF</text>
</a>
</g>
</g>
<!-- Node3&#45;&gt;Node4 -->
<g id="edge3" class="edge"><title>Node3&#45;&gt;Node4</title>
<path fill="none" stroke="midnightblue" d="M455.844,-507.843C451.521,-571.226 432.833,-773.405 364,-923 344.019,-966.425 305.072,-1008.84 286.847,-1027.33"/>
<polygon fill="midnightblue" stroke="midnightblue" points="459.349,-507.87 456.493,-497.667 452.363,-507.424 459.349,-507.87"/>
</g>
<!-- Node28 -->
<g id="node17" class="node"><title>Node28</title>
<g id="a_node17"><a xlink:href="class_t_m_c2208_stepper.html#a2b4643106d473dd0081ec60a3f9b8fdf" target="_top" xlink:title=" ">
<polygon fill="white" stroke="black" points="217,-495 217,-525 335,-525 335,-495 217,-495"/>
<text text-anchor="start" x="225" y="-513" font-family="Helvetica,sans-Serif" font-size="10.00">TMC2208Stepper::DRV</text>
<text text-anchor="middle" x="276" y="-502" font-family="Helvetica,sans-Serif" font-size="10.00">_STATUS</text>
</a>
</g>
</g>
<!-- Node3&#45;&gt;Node28 -->
<g id="edge16" class="edge"><title>Node3&#45;&gt;Node28</title>
<path fill="none" stroke="midnightblue" d="M389.235,-496.282C371.431,-498.458 352.388,-500.786 335.138,-502.894"/>
<polygon fill="midnightblue" stroke="midnightblue" points="390.05,-499.709 399.552,-495.021 389.201,-492.761 390.05,-499.709"/>
</g>
<!-- Node29 -->
<g id="node18" class="node"><title>Node29</title>
<g id="a_node18"><a xlink:href="class_t_m_c2208_stepper.html#a64c51922eb2029e4bbcd4f8a51b6a6ae" target="_top" xlink:title=" ">
<polygon fill="white" stroke="black" points="188,-456.5 188,-475.5 364,-475.5 364,-456.5 188,-456.5"/>
<text text-anchor="middle" x="276" y="-463.5" font-family="Helvetica,sans-Serif" font-size="10.00">TMC2208Stepper::FACTORY_CONF</text>
</a>
</g>
</g>
<!-- Node3&#45;&gt;Node29 -->
<g id="edge17" class="edge"><title>Node3&#45;&gt;Node29</title>
<path fill="none" stroke="midnightblue" d="M389.385,-479.736C378.137,-478.361 366.392,-476.926 354.914,-475.523"/>
<polygon fill="midnightblue" stroke="midnightblue" points="389.201,-483.239 399.552,-480.979 390.05,-476.291 389.201,-483.239"/>
</g>
<!-- Node32 -->
<g id="node21" class="node"><title>Node32</title>
<g id="a_node21"><a xlink:href="class_t_m_c2208_stepper.html#a549db4f962d4ae698dda33ef9a708e33" target="_top" xlink:title=" ">
<polygon fill="white" stroke="black" points="210,-699.5 210,-718.5 342,-718.5 342,-699.5 210,-699.5"/>
<text text-anchor="middle" x="276" y="-706.5" font-family="Helvetica,sans-Serif" font-size="10.00">TMC2208Stepper::GCONF</text>
</a>
</g>
</g>
<!-- Node3&#45;&gt;Node32 -->
<g id="edge20" class="edge"><title>Node3&#45;&gt;Node32</title>
<path fill="none" stroke="midnightblue" d="M442.605,-505.674C406.437,-550.08 312.668,-665.208 284.875,-699.332"/>
<polygon fill="midnightblue" stroke="midnightblue" points="445.432,-507.745 449.033,-497.781 440.004,-503.325 445.432,-507.745"/>
</g>
<!-- Node49 -->
<g id="node31" class="node"><title>Node49</title>
<g id="a_node31"><a xlink:href="class_t_m_c2208_stepper.html#a54eeb50855c3d7dd9e7078a5dc0ebdfc" target="_top" xlink:title=" ">
<polygon fill="white" stroke="black" points="213.5,-418.5 213.5,-437.5 338.5,-437.5 338.5,-418.5 213.5,-418.5"/>
<text text-anchor="middle" x="276" y="-425.5" font-family="Helvetica,sans-Serif" font-size="10.00">TMC2208Stepper::IFCNT</text>
</a>
</g>
</g>
<!-- Node3&#45;&gt;Node49 -->
<g id="edge32" class="edge"><title>Node3&#45;&gt;Node49</title>
<path fill="none" stroke="midnightblue" d="M428.804,-473.799C410.657,-465.107 386.365,-454.291 364,-447 352.829,-443.358 340.623,-440.204 328.981,-437.57"/>
<polygon fill="midnightblue" stroke="midnightblue" points="427.678,-477.144 438.202,-478.374 430.742,-470.85 427.678,-477.144"/>
</g>
<!-- Node50 -->
<g id="node32" class="node"><title>Node50</title>
<g id="a_node32"><a xlink:href="class_t_m_c2208_stepper.html#a5441dd87d0bcea4ffc309cb012166a57" target="_top" xlink:title=" ">
<polygon fill="white" stroke="black" points="218,-171.5 218,-190.5 334,-190.5 334,-171.5 218,-171.5"/>
<text text-anchor="middle" x="276" y="-178.5" font-family="Helvetica,sans-Serif" font-size="10.00">TMC2208Stepper::IOIN</text>
</a>
</g>
</g>
<!-- Node3&#45;&gt;Node50 -->
<g id="edge33" class="edge"><title>Node3&#45;&gt;Node50</title>
<path fill="none" stroke="midnightblue" d="M449.295,-468.823C434.716,-433.359 401.202,-355.617 364,-295 338.736,-253.835 301.8,-209.593 285.392,-190.577"/>
<polygon fill="midnightblue" stroke="midnightblue" points="446.183,-470.463 453.195,-478.406 452.667,-467.825 446.183,-470.463"/>
</g>
<!-- Node59 -->
<g id="node41" class="node"><title>Node59</title>
<g id="a_node41"><a xlink:href="class_t_m_c2209_stepper.html#aeab582b2f23d4e58f63aec80163b3838" target="_top" xlink:title=" ">
<polygon fill="white" stroke="red" points="218,-380.5 218,-399.5 334,-399.5 334,-380.5 218,-380.5"/>
<text text-anchor="middle" x="276" y="-387.5" font-family="Helvetica,sans-Serif" font-size="10.00">TMC2209Stepper::IOIN</text>
</a>
</g>
</g>
<!-- Node3&#45;&gt;Node59 -->
<g id="edge43" class="edge"><title>Node3&#45;&gt;Node59</title>
<path fill="none" stroke="midnightblue" d="M441.633,-470.662C424.511,-452.464 395.119,-424.402 364,-409 354.717,-404.405 344.333,-400.914 334.062,-398.264"/>
<polygon fill="midnightblue" stroke="midnightblue" points="439.256,-473.249 448.598,-478.248 444.413,-468.515 439.256,-473.249"/>
</g>
<!-- Node69 -->
<g id="node45" class="node"><title>Node69</title>
<g id="a_node45"><a xlink:href="class_t_m_c2224_stepper.html#aa5fa836e15992bc49e0297ef2126f725" target="_top" xlink:title=" ">
<polygon fill="white" stroke="red" points="218,-342.5 218,-361.5 334,-361.5 334,-342.5 218,-342.5"/>
<text text-anchor="middle" x="276" y="-349.5" font-family="Helvetica,sans-Serif" font-size="10.00">TMC2224Stepper::IOIN</text>
</a>
</g>
</g>
<!-- Node3&#45;&gt;Node69 -->
<g id="edge47" class="edge"><title>Node3&#45;&gt;Node69</title>
<path fill="none" stroke="midnightblue" d="M447.548,-469.33C433.223,-443.037 403.449,-395.574 364,-371 355.077,-365.442 344.756,-361.495 334.409,-358.697"/>
<polygon fill="midnightblue" stroke="midnightblue" points="444.508,-471.067 452.27,-478.278 450.699,-467.8 444.508,-471.067"/>
</g>
<!-- Node79 -->
<g id="node46" class="node"><title>Node79</title>
<g id="a_node46"><a xlink:href="class_t_m_c2208_stepper.html#a0727482b76d6cd679021f4d1677e5b3a" target="_top" xlink:title=" ">
<polygon fill="white" stroke="black" points="201.5,-304.5 201.5,-323.5 350.5,-323.5 350.5,-304.5 201.5,-304.5"/>
<text text-anchor="middle" x="276" y="-311.5" font-family="Helvetica,sans-Serif" font-size="10.00">TMC2208Stepper::OTP_READ</text>
</a>
</g>
</g>
<!-- Node3&#45;&gt;Node79 -->
<g id="edge48" class="edge"><title>Node3&#45;&gt;Node79</title>
<path fill="none" stroke="midnightblue" d="M451.051,-468.598C439.789,-435.296 412.075,-367.517 364,-333 358.6,-329.123 352.559,-326.012 346.246,-323.52"/>
<polygon fill="midnightblue" stroke="midnightblue" points="447.722,-469.679 454.134,-478.113 454.381,-467.521 447.722,-469.679"/>
</g>
<!-- Node80 -->
<g id="node47" class="node"><title>Node80</title>
<g id="a_node47"><a xlink:href="class_t_m_c2208_stepper.html#a3cad83843fc7cc00cbbff7d620690501" target="_top" xlink:title=" ">
<polygon fill="white" stroke="red" points="199,-1164.5 199,-1183.5 353,-1183.5 353,-1164.5 199,-1164.5"/>
<text text-anchor="middle" x="276" y="-1171.5" font-family="Helvetica,sans-Serif" font-size="10.00">TMC2208Stepper::PWM_AUTO</text>
</a>
</g>
</g>
<!-- Node3&#45;&gt;Node80 -->
<g id="edge49" class="edge"><title>Node3&#45;&gt;Node80</title>
<path fill="none" stroke="midnightblue" d="M457.162,-507.975C457.555,-608.455 454.184,-1057.64 364,-1155 360.533,-1158.74 356.514,-1161.84 352.143,-1164.39"/>
<polygon fill="midnightblue" stroke="midnightblue" points="460.66,-507.703 457.103,-497.724 453.66,-507.744 460.66,-507.703"/>
</g>
<!-- Node83 -->
<g id="node48" class="node"><title>Node83</title>
<g id="a_node48"><a xlink:href="class_t_m_c2208_stepper.html#adc81db53cf0291216352b13e5425e67b" target="_top" xlink:title=" ">
<polygon fill="white" stroke="red" points="215,-1115 215,-1145 337,-1145 337,-1115 215,-1115"/>
<text text-anchor="start" x="223" y="-1133" font-family="Helvetica,sans-Serif" font-size="10.00">TMC2208Stepper::PWM</text>
<text text-anchor="middle" x="276" y="-1122" font-family="Helvetica,sans-Serif" font-size="10.00">_SCALE</text>
</a>
</g>
</g>
<!-- Node3&#45;&gt;Node83 -->
<g id="edge50" class="edge"><title>Node3&#45;&gt;Node83</title>
<path fill="none" stroke="midnightblue" d="M456.816,-507.92C455.53,-603.512 445.284,-1014.34 364,-1106 356.931,-1113.97 347.479,-1119.4 337.408,-1123.08"/>
<polygon fill="midnightblue" stroke="midnightblue" points="460.317,-507.908 456.933,-497.868 453.317,-507.827 460.317,-507.908"/>
</g>
<!-- Node86 -->
<g id="node49" class="node"><title>Node86</title>
<g id="a_node49"><a xlink:href="class_t_m_c2208_stepper.html#a7c2e849de2f2933ba9bf8ede8dc53f53" target="_top" xlink:title=" ">
<polygon fill="white" stroke="red" points="201.5,-894.5 201.5,-913.5 350.5,-913.5 350.5,-894.5 201.5,-894.5"/>
<text text-anchor="middle" x="276" y="-901.5" font-family="Helvetica,sans-Serif" font-size="10.00">TMC2208Stepper::PWMCONF</text>
</a>
</g>
</g>
<!-- Node3&#45;&gt;Node86 -->
<g id="edge51" class="edge"><title>Node3&#45;&gt;Node86</title>
<path fill="none" stroke="midnightblue" d="M450.187,-507.3C435.543,-548.371 399.509,-647.272 364,-728 335.592,-792.584 296.242,-867.797 282.22,-894.223"/>
<polygon fill="midnightblue" stroke="midnightblue" points="453.537,-508.324 453.584,-497.729 446.94,-505.982 453.537,-508.324"/>
</g>
<!-- Node95 -->
<g id="node50" class="node"><title>Node95</title>
<g id="a_node50"><a xlink:href="class_t_m_c2209_stepper.html#ac1d2ec19eb65fd2f14d8d02cc1e7b02e" target="_top" xlink:title=" ">
<polygon fill="white" stroke="black" points="220,-1066 220,-1096 332,-1096 332,-1066 220,-1066"/>
<text text-anchor="start" x="228" y="-1084" font-family="Helvetica,sans-Serif" font-size="10.00">TMC2209Stepper::SG</text>
<text text-anchor="middle" x="276" y="-1073" font-family="Helvetica,sans-Serif" font-size="10.00">_RESULT</text>
</a>
</g>
</g>
<!-- Node3&#45;&gt;Node95 -->
<g id="edge54" class="edge"><title>Node3&#45;&gt;Node95</title>
<path fill="none" stroke="midnightblue" d="M456.504,-507.994C453.846,-598.875 438.485,-972.203 364,-1056 355.752,-1065.28 344.309,-1071.21 332.429,-1074.98"/>
<polygon fill="midnightblue" stroke="midnightblue" points="460.004,-508.019 456.778,-497.927 453.007,-507.828 460.004,-508.019"/>
</g>
<!-- Node5 -->
<g id="node5" class="node"><title>Node5</title>
<g id="a_node5"><a xlink:href="class_t_m_c2208_stepper.html#a5b614f72c27fa1b7ff1c08fe07b17582" target="_top" xlink:title=" ">
<polygon fill="white" stroke="red" points="14,-1236.5 14,-1255.5 138,-1255.5 138,-1236.5 14,-1236.5"/>
<text text-anchor="middle" x="76" y="-1243.5" font-family="Helvetica,sans-Serif" font-size="10.00">TMC2208Stepper::dedge</text>
</a>
</g>
</g>
<!-- Node4&#45;&gt;Node5 -->
<g id="edge4" class="edge"><title>Node4&#45;&gt;Node5</title>
<path fill="none" stroke="midnightblue" d="M193.354,-1052.27C191.468,-1053.72 189.677,-1055.29 188,-1057 133.863,-1112.08 205.523,-1171.32 152,-1227 147.997,-1231.16 143.223,-1234.46 138.05,-1237.08"/>
<polygon fill="midnightblue" stroke="midnightblue" points="195.601,-1054.99 202.163,-1046.67 191.846,-1049.08 195.601,-1054.99"/>
</g>
<!-- Node7 -->
<g id="node6" class="node"><title>Node7</title>
<g id="a_node6"><a xlink:href="class_t_m_c2208_stepper.html#a810f59828ccf8b0f55c7274b21ea0255" target="_top" xlink:title=" ">
<polygon fill="white" stroke="red" points="13,-1198.5 13,-1217.5 139,-1217.5 139,-1198.5 13,-1198.5"/>
<text text-anchor="middle" x="76" y="-1205.5" font-family="Helvetica,sans-Serif" font-size="10.00">TMC2208Stepper::diss2g</text>
</a>
</g>
</g>
<!-- Node4&#45;&gt;Node7 -->
<g id="edge5" class="edge"><title>Node4&#45;&gt;Node7</title>
<path fill="none" stroke="midnightblue" d="M194.257,-1051.84C192.051,-1053.41 189.956,-1055.12 188,-1057 144.144,-1099.12 195.387,-1146.39 152,-1189 148.071,-1192.86 143.476,-1195.97 138.53,-1198.47"/>
<polygon fill="midnightblue" stroke="midnightblue" points="196.432,-1054.62 203.257,-1046.52 192.868,-1048.6 196.432,-1054.62"/>
</g>
<!-- Node9 -->
<g id="node7" class="node"><title>Node9</title>
<g id="a_node7"><a xlink:href="class_t_m_c2208_stepper.html#afc70b23b3486ae3ea3a3dfa804441148" target="_top" xlink:title=" ">
<polygon fill="white" stroke="red" points="11,-1160.5 11,-1179.5 141,-1179.5 141,-1160.5 11,-1160.5"/>
<text text-anchor="middle" x="76" y="-1167.5" font-family="Helvetica,sans-Serif" font-size="10.00">TMC2208Stepper::diss2vs</text>
</a>
</g>
</g>
<!-- Node4&#45;&gt;Node9 -->
<g id="edge6" class="edge"><title>Node4&#45;&gt;Node9</title>
<path fill="none" stroke="midnightblue" d="M195.61,-1051.38C192.931,-1053.07 190.38,-1054.93 188,-1057 154.234,-1086.35 185.439,-1121.28 152,-1151 147.683,-1154.84 142.7,-1157.92 137.397,-1160.4"/>
<polygon fill="midnightblue" stroke="midnightblue" points="197.381,-1054.41 204.556,-1046.61 194.086,-1048.23 197.381,-1054.41"/>
</g>
<!-- Node11 -->
<g id="node8" class="node"><title>Node11</title>
<g id="a_node8"><a xlink:href="class_t_m_c2208_stepper.html#a2f36996a01d99a96f40d179931eb606a" target="_top" xlink:title=" ">
<polygon fill="white" stroke="red" points="16.5,-1122.5 16.5,-1141.5 135.5,-1141.5 135.5,-1122.5 16.5,-1122.5"/>
<text text-anchor="middle" x="76" y="-1129.5" font-family="Helvetica,sans-Serif" font-size="10.00">TMC2208Stepper::hend</text>
</a>
</g>
</g>
<!-- Node4&#45;&gt;Node11 -->
<g id="edge7" class="edge"><title>Node4&#45;&gt;Node11</title>
<path fill="none" stroke="midnightblue" d="M199.156,-1050.49C195.245,-1052.38 191.495,-1054.54 188,-1057 163.794,-1074.02 176.016,-1095.72 152,-1113 146.658,-1116.84 140.613,-1119.91 134.33,-1122.36"/>
<polygon fill="midnightblue" stroke="midnightblue" points="200.685,-1053.64 208.528,-1046.52 197.955,-1047.19 200.685,-1053.64"/>
</g>
<!-- Node13 -->
<g id="node9" class="node"><title>Node13</title>
<g id="a_node9"><a xlink:href="class_t_m_c2208_stepper.html#ae86e87a3b5882ac40c6f21348c6793ed" target="_top" xlink:title=" ">
<polygon fill="white" stroke="red" points="17.5,-1084.5 17.5,-1103.5 134.5,-1103.5 134.5,-1084.5 17.5,-1084.5"/>
<text text-anchor="middle" x="76" y="-1091.5" font-family="Helvetica,sans-Serif" font-size="10.00">TMC2208Stepper::hstrt</text>
</a>
</g>
</g>
<!-- Node4&#45;&gt;Node13 -->
<g id="edge8" class="edge"><title>Node4&#45;&gt;Node13</title>
<path fill="none" stroke="midnightblue" d="M214.276,-1049.01C205.364,-1051.33 196.372,-1053.99 188,-1057 171.164,-1063.05 168.768,-1068.77 152,-1075 142.305,-1078.6 131.657,-1081.76 121.507,-1084.41"/>
<polygon fill="midnightblue" stroke="midnightblue" points="215.404,-1052.33 224.267,-1046.53 213.718,-1045.54 215.404,-1052.33"/>
</g>
<!-- Node15 -->
<g id="node10" class="node"><title>Node15</title>
<g id="a_node10"><a xlink:href="class_t_m_c2208_stepper.html#a787cbae9adfab6f79a873310c472e7cd" target="_top" xlink:title=" ">
<polygon fill="white" stroke="red" points="15.5,-1046.5 15.5,-1065.5 136.5,-1065.5 136.5,-1046.5 15.5,-1046.5"/>
<text text-anchor="middle" x="76" y="-1053.5" font-family="Helvetica,sans-Serif" font-size="10.00">TMC2208Stepper::intpol</text>
</a>
</g>
</g>
<!-- Node4&#45;&gt;Node15 -->
<g id="edge9" class="edge"><title>Node4&#45;&gt;Node15</title>
<path fill="none" stroke="midnightblue" d="M189.474,-1045.21C171.684,-1046.91 153.302,-1048.68 136.685,-1050.27"/>
<polygon fill="midnightblue" stroke="midnightblue" points="190.242,-1048.65 199.862,-1044.21 189.574,-1041.68 190.242,-1048.65"/>
</g>
<!-- Node17 -->
<g id="node11" class="node"><title>Node17</title>
<g id="a_node11"><a xlink:href="class_t_m_c2208_stepper.html#a445b61c23afadb9bd48c3f4d9ef9125e" target="_top" xlink:title=" ">
<polygon fill="white" stroke="red" points="16.5,-1008.5 16.5,-1027.5 135.5,-1027.5 135.5,-1008.5 16.5,-1008.5"/>
<text text-anchor="middle" x="76" y="-1015.5" font-family="Helvetica,sans-Serif" font-size="10.00">TMC2208Stepper::mres</text>
</a>
</g>
</g>
<!-- Node4&#45;&gt;Node17 -->
<g id="edge10" class="edge"><title>Node4&#45;&gt;Node17</title>
<path fill="none" stroke="midnightblue" d="M189.816,-1028.83C171.585,-1027.08 152.717,-1025.27 135.75,-1023.64"/>
<polygon fill="midnightblue" stroke="midnightblue" points="189.574,-1032.32 199.862,-1029.79 190.242,-1025.35 189.574,-1032.32"/>
</g>
<!-- Node19 -->
<g id="node12" class="node"><title>Node19</title>
<g id="a_node12"><a xlink:href="class_t_m_c2208_stepper.html#a8eb0d71fbfeeb24c9092328c44fab7e5" target="_top" xlink:title=" ">
<polygon fill="white" stroke="black" points="16.5,-932.5 16.5,-951.5 135.5,-951.5 135.5,-932.5 16.5,-932.5"/>
<text text-anchor="middle" x="76" y="-939.5" font-family="Helvetica,sans-Serif" font-size="10.00">TMC2208Stepper::push</text>
</a>
</g>
</g>
<!-- Node4&#45;&gt;Node19 -->
<g id="edge11" class="edge"><title>Node4&#45;&gt;Node19</title>
<path fill="none" stroke="midnightblue" d="M254.23,-1021.4C230.605,-1004.33 190.324,-977.239 152,-961 143.219,-957.279 133.54,-954.161 124.136,-951.597"/>
<polygon fill="midnightblue" stroke="midnightblue" points="252.294,-1024.32 262.43,-1027.4 256.432,-1018.67 252.294,-1024.32"/>
</g>
<!-- Node20 -->
<g id="node13" class="node"><title>Node20</title>
<g id="a_node13"><a xlink:href="class_t_m_c2209_stepper.html#a180f4b9a78e526592d946ec12f71982e" target="_top" xlink:title=" ">
<polygon fill="white" stroke="black" points="16.5,-894.5 16.5,-913.5 135.5,-913.5 135.5,-894.5 16.5,-894.5"/>
<text text-anchor="middle" x="76" y="-901.5" font-family="Helvetica,sans-Serif" font-size="10.00">TMC2209Stepper::push</text>
</a>
</g>
</g>
<!-- Node4&#45;&gt;Node20 -->
<g id="edge12" class="edge"><title>Node4&#45;&gt;Node20</title>
<path fill="none" stroke="midnightblue" d="M261.021,-1019.36C240.057,-994.115 197.997,-947.996 152,-923 144.919,-919.152 137.037,-916.064 129.119,-913.591"/>
<polygon fill="midnightblue" stroke="midnightblue" points="258.498,-1021.8 267.528,-1027.34 263.926,-1017.38 258.498,-1021.8"/>
</g>
<!-- Node21 -->
<g id="node14" class="node"><title>Node21</title>
<g id="a_node14"><a xlink:href="class_t_m_c2208_stepper.html#a84a5b9684c546c5f4549f375048512be" target="_top" xlink:title=" ">
<polygon fill="white" stroke="red" points="22,-970.5 22,-989.5 130,-989.5 130,-970.5 22,-970.5"/>
<text text-anchor="middle" x="76" y="-977.5" font-family="Helvetica,sans-Serif" font-size="10.00">TMC2208Stepper::tbl</text>
</a>
</g>
</g>
<!-- Node4&#45;&gt;Node21 -->
<g id="edge13" class="edge"><title>Node4&#45;&gt;Node21</title>
<path fill="none" stroke="midnightblue" d="M235.478,-1024.22C211.434,-1016.59 180.053,-1006.88 152,-999 140.491,-995.767 127.919,-992.485 116.415,-989.58"/>
<polygon fill="midnightblue" stroke="midnightblue" points="234.711,-1027.65 245.302,-1027.35 236.837,-1020.98 234.711,-1027.65"/>
</g>
<!-- Node23 -->
<g id="node15" class="node"><title>Node23</title>
<g id="a_node15"><a xlink:href="class_t_m_c2208_stepper.html#aad3790e8c9040b5b4770ee65ed06b1ed" target="_top" xlink:title=" ">
<polygon fill="white" stroke="red" points="21,-1312.5 21,-1331.5 131,-1331.5 131,-1312.5 21,-1312.5"/>
<text text-anchor="middle" x="76" y="-1319.5" font-family="Helvetica,sans-Serif" font-size="10.00">TMC2208Stepper::toff</text>
</a>
</g>
</g>
<!-- Node4&#45;&gt;Node23 -->
<g id="edge14" class="edge"><title>Node4&#45;&gt;Node23</title>
<path fill="none" stroke="midnightblue" d="M193.063,-1052.25C191.273,-1053.71 189.58,-1055.29 188,-1057 113.08,-1138.22 226.016,-1220.95 152,-1303 146.422,-1309.18 139.146,-1313.49 131.323,-1316.46"/>
<polygon fill="midnightblue" stroke="midnightblue" points="195.109,-1055.09 201.463,-1046.61 191.209,-1049.28 195.109,-1055.09"/>
</g>
<!-- Node26 -->
<g id="node16" class="node"><title>Node26</title>
<g id="a_node16"><a xlink:href="class_t_m_c2208_stepper.html#aca88bb5ae86daeca56094bf2f8bdea5d" target="_top" xlink:title=" ">
<polygon fill="white" stroke="red" points="12,-1274.5 12,-1293.5 140,-1293.5 140,-1274.5 12,-1274.5"/>
<text text-anchor="middle" x="76" y="-1281.5" font-family="Helvetica,sans-Serif" font-size="10.00">TMC2208Stepper::vsense</text>
</a>
</g>
</g>
<!-- Node4&#45;&gt;Node26 -->
<g id="edge15" class="edge"><title>Node4&#45;&gt;Node26</title>
<path fill="none" stroke="midnightblue" d="M193.269,-1052.19C191.408,-1053.66 189.645,-1055.26 188,-1057 123.495,-1125.13 215.746,-1196.16 152,-1265 148.441,-1268.84 144.225,-1271.96 139.636,-1274.47"/>
<polygon fill="midnightblue" stroke="midnightblue" points="195.523,-1054.9 201.991,-1046.51 191.701,-1049.03 195.523,-1054.9"/>
</g>
<!-- Node30 -->
<g id="node19" class="node"><title>Node30</title>
<g id="a_node19"><a xlink:href="class_t_m_c2208_stepper.html#a2576f25049dff1a3102da1ea5b4eb7fc" target="_top" xlink:title=" ">
<polygon fill="white" stroke="black" points="11.5,-456.5 11.5,-475.5 140.5,-475.5 140.5,-456.5 11.5,-456.5"/>
<text text-anchor="middle" x="76" y="-463.5" font-family="Helvetica,sans-Serif" font-size="10.00">TMC2208Stepper::fclktrim</text>
</a>
</g>
</g>
<!-- Node29&#45;&gt;Node30 -->
<g id="edge18" class="edge"><title>Node29&#45;&gt;Node30</title>
<path fill="none" stroke="midnightblue" d="M177.781,-466C165.177,-466 152.534,-466 140.67,-466"/>
<polygon fill="midnightblue" stroke="midnightblue" points="177.866,-469.5 187.866,-466 177.866,-462.5 177.866,-469.5"/>
</g>
<!-- Node31 -->
<g id="node20" class="node"><title>Node31</title>
<g id="a_node20"><a xlink:href="class_t_m_c2208_stepper.html#a1d354657666fa70cd13004cb70bc9fcf" target="_top" xlink:title=" ">
<polygon fill="white" stroke="black" points="15,-418.5 15,-437.5 137,-437.5 137,-418.5 15,-418.5"/>
<text text-anchor="middle" x="76" y="-425.5" font-family="Helvetica,sans-Serif" font-size="10.00">TMC2208Stepper::ottrim</text>
</a>
</g>
</g>
<!-- Node29&#45;&gt;Node31 -->
<g id="edge19" class="edge"><title>Node29&#45;&gt;Node31</title>
<path fill="none" stroke="midnightblue" d="M215.134,-454.511C186.883,-449.089 153.564,-442.694 126.729,-437.544"/>
<polygon fill="midnightblue" stroke="midnightblue" points="214.811,-458.012 225.292,-456.46 216.131,-451.138 214.811,-458.012"/>
</g>
<!-- Node32&#45;&gt;Node19 -->
<g id="edge29" class="edge"><title>Node32&#45;&gt;Node19</title>
<path fill="none" stroke="midnightblue" d="M266.467,-727.939C244.818,-775.205 187.003,-896.467 152,-923 146.862,-926.895 141.014,-929.997 134.903,-932.467"/>
<polygon fill="midnightblue" stroke="midnightblue" points="269.779,-729.11 270.732,-718.558 263.407,-726.212 269.779,-729.11"/>
</g>
<!-- Node32&#45;&gt;Node20 -->
<g id="edge30" class="edge"><title>Node32&#45;&gt;Node20</title>
<path fill="none" stroke="midnightblue" d="M267.063,-728.328C251.027,-764.879 211.183,-844.121 152,-885 146.363,-888.893 139.996,-891.989 133.413,-894.451"/>
<polygon fill="midnightblue" stroke="midnightblue" points="270.41,-729.402 271.111,-718.83 263.97,-726.657 270.41,-729.402"/>
</g>
<!-- Node33 -->
<g id="node22" class="node"><title>Node33</title>
<g id="a_node22"><a xlink:href="class_t_m_c2208_stepper.html#a3e5b6f25ec1fa94a6d8f0bd004a535ce" target="_top" xlink:title=" ">
<polygon fill="white" stroke="black" points="22,-719 22,-749 130,-749 130,-719 22,-719"/>
<text text-anchor="start" x="30" y="-737" font-family="Helvetica,sans-Serif" font-size="10.00">TMC2208Stepper::en</text>
<text text-anchor="middle" x="76" y="-726" font-family="Helvetica,sans-Serif" font-size="10.00">_spreadCycle</text>
</a>
</g>
</g>
<!-- Node32&#45;&gt;Node33 -->
<g id="edge21" class="edge"><title>Node32&#45;&gt;Node33</title>
<path fill="none" stroke="midnightblue" d="M199.755,-718.501C176.606,-721.424 151.615,-724.579 130.262,-727.275"/>
<polygon fill="midnightblue" stroke="midnightblue" points="200.41,-721.946 209.893,-717.221 199.533,-715.001 200.41,-721.946"/>
</g>
<!-- Node34 -->
<g id="node23" class="node"><title>Node34</title>
<g id="a_node23"><a xlink:href="class_t_m_c2208_stepper.html#a3b1c4e92ce6d46b6073974d8758275ff" target="_top" xlink:title=" ">
<polygon fill="white" stroke="black" points="12,-670 12,-700 140,-700 140,-670 12,-670"/>
<text text-anchor="start" x="20" y="-688" font-family="Helvetica,sans-Serif" font-size="10.00">TMC2208Stepper::I_scale</text>
<text text-anchor="middle" x="76" y="-677" font-family="Helvetica,sans-Serif" font-size="10.00">_analog</text>
</a>
</g>
</g>
<!-- Node32&#45;&gt;Node34 -->
<g id="edge22" class="edge"><title>Node32&#45;&gt;Node34</title>
<path fill="none" stroke="midnightblue" d="M199.748,-699.879C180.082,-697.495 159.088,-694.95 140.124,-692.651"/>
<polygon fill="midnightblue" stroke="midnightblue" points="199.545,-703.379 209.893,-701.108 200.387,-696.43 199.545,-703.379"/>
</g>
<!-- Node35 -->
<g id="node24" class="node"><title>Node35</title>
<g id="a_node24"><a xlink:href="class_t_m_c2208_stepper.html#a8a8172fcb19ea2439d4898f4102fa039" target="_top" xlink:title=" ">
<polygon fill="white" stroke="red" points="3,-631.5 3,-650.5 149,-650.5 149,-631.5 3,-631.5"/>
<text text-anchor="middle" x="76" y="-638.5" font-family="Helvetica,sans-Serif" font-size="10.00">TMC2208Stepper::index_otpw</text>
</a>
</g>
</g>
<!-- Node32&#45;&gt;Node35 -->
<g id="edge23" class="edge"><title>Node32&#45;&gt;Node35</title>
<path fill="none" stroke="midnightblue" d="M243.057,-695.403C218.436,-685.2 183.401,-671.279 152,-661 140.474,-657.227 127.782,-653.635 116.169,-650.563"/>
<polygon fill="midnightblue" stroke="midnightblue" points="242.027,-698.766 252.604,-699.389 244.725,-692.306 242.027,-698.766"/>
</g>
<!-- Node37 -->
<g id="node25" class="node"><title>Node37</title>
<g id="a_node25"><a xlink:href="class_t_m_c2208_stepper.html#aa0f677d760ac3c9a297a6f6d2778ec81" target="_top" xlink:title=" ">
<polygon fill="white" stroke="red" points="3.5,-593.5 3.5,-612.5 148.5,-612.5 148.5,-593.5 3.5,-593.5"/>
<text text-anchor="middle" x="76" y="-600.5" font-family="Helvetica,sans-Serif" font-size="10.00">TMC2208Stepper::index_step</text>
</a>
</g>
</g>
<!-- Node32&#45;&gt;Node37 -->
<g id="edge24" class="edge"><title>Node32&#45;&gt;Node37</title>
<path fill="none" stroke="midnightblue" d="M256.759,-692.787C233.855,-673.25 192.62,-640.721 152,-622 143.705,-618.177 134.525,-615.044 125.515,-612.505"/>
<polygon fill="midnightblue" stroke="midnightblue" points="254.483,-695.446 264.333,-699.348 259.066,-690.155 254.483,-695.446"/>
</g>
<!-- Node39 -->
<g id="node26" class="node"><title>Node39</title>
<g id="a_node26"><a xlink:href="class_t_m_c2208_stepper.html#a8159b7bd97a76b6020bf285c052809b6" target="_top" xlink:title=" ">
<polygon fill="white" stroke="black" points="11.5,-544 11.5,-574 140.5,-574 140.5,-544 11.5,-544"/>
<text text-anchor="start" x="19.5" y="-562" font-family="Helvetica,sans-Serif" font-size="10.00">TMC2208Stepper::internal</text>
<text text-anchor="middle" x="76" y="-551" font-family="Helvetica,sans-Serif" font-size="10.00">_Rsense</text>
</a>
</g>
</g>
<!-- Node32&#45;&gt;Node39 -->
<g id="edge25" class="edge"><title>Node32&#45;&gt;Node39</title>
<path fill="none" stroke="midnightblue" d="M262.025,-691.224C241.528,-664.344 199.117,-613.383 152,-584 145.944,-580.223 139.254,-576.949 132.437,-574.13"/>
<polygon fill="midnightblue" stroke="midnightblue" points="259.315,-693.444 268.11,-699.351 264.918,-689.248 259.315,-693.444"/>
</g>
<!-- Node40 -->
<g id="node27" class="node"><title>Node40</title>
<g id="a_node27"><a xlink:href="class_t_m_c2208_stepper.html#a02994cba6b9ac73b61799cf7af0fd588" target="_top" xlink:title=" ">
<polygon fill="white" stroke="red" points="13.5,-495 13.5,-525 138.5,-525 138.5,-495 13.5,-495"/>
<text text-anchor="start" x="21.5" y="-513" font-family="Helvetica,sans-Serif" font-size="10.00">TMC2208Stepper::mstep</text>
<text text-anchor="middle" x="76" y="-502" font-family="Helvetica,sans-Serif" font-size="10.00">_reg_select</text>
</a>
</g>
</g>
<!-- Node32&#45;&gt;Node40 -->
<g id="edge26" class="edge"><title>Node32&#45;&gt;Node40</title>
<path fill="none" stroke="midnightblue" d="M266.799,-690.108C250.313,-654.322 209.733,-576.442 152,-534 147.374,-530.599 142.247,-527.668 136.908,-525.144"/>
<polygon fill="midnightblue" stroke="midnightblue" points="263.682,-691.711 270.97,-699.401 270.068,-688.844 263.682,-691.711"/>
</g>
<!-- Node43 -->
<g id="node28" class="node"><title>Node43</title>
<g id="a_node28"><a xlink:href="class_t_m_c2208_stepper.html#ac7e75314309e988c55e28da4798fa637" target="_top" xlink:title=" ">
<polygon fill="white" stroke="red" points="0,-856.5 0,-875.5 152,-875.5 152,-856.5 0,-856.5"/>
<text text-anchor="middle" x="76" y="-863.5" font-family="Helvetica,sans-Serif" font-size="10.00">TMC2208Stepper::multistep_filt</text>
</a>
</g>
</g>
<!-- Node32&#45;&gt;Node43 -->
<g id="edge27" class="edge"><title>Node32&#45;&gt;Node43</title>
<path fill="none" stroke="midnightblue" d="M263.851,-727.421C244.786,-757.288 203,-816.049 152,-847 145.57,-850.903 138.364,-854.007 131.029,-856.475"/>
<polygon fill="midnightblue" stroke="midnightblue" points="266.899,-729.148 269.225,-718.811 260.961,-725.441 266.899,-729.148"/>
</g>
<!-- Node45 -->
<g id="node29" class="node"><title>Node45</title>
<g id="a_node29"><a xlink:href="class_t_m_c2208_stepper.html#a9de4a150926f2875903be27063f00973" target="_top" xlink:title=" ">
<polygon fill="white" stroke="red" points="19.5,-807 19.5,-837 132.5,-837 132.5,-807 19.5,-807"/>
<text text-anchor="start" x="27.5" y="-825" font-family="Helvetica,sans-Serif" font-size="10.00">TMC2208Stepper::pdn</text>
<text text-anchor="middle" x="76" y="-814" font-family="Helvetica,sans-Serif" font-size="10.00">_disable</text>
</a>
</g>
</g>
<!-- Node32&#45;&gt;Node45 -->
<g id="edge28" class="edge"><title>Node32&#45;&gt;Node45</title>
<path fill="none" stroke="midnightblue" d="M256.192,-725.221C233.013,-744.533 191.794,-776.717 152,-797 144.785,-800.677 136.912,-803.988 129.068,-806.905"/>
<polygon fill="midnightblue" stroke="midnightblue" points="258.494,-727.858 263.879,-718.734 253.98,-722.508 258.494,-727.858"/>
</g>
<!-- Node47 -->
<g id="node30" class="node"><title>Node47</title>
<g id="a_node30"><a xlink:href="class_t_m_c2208_stepper.html#ab4500aa2baca79572a8145b64f809a37" target="_top" xlink:title=" ">
<polygon fill="white" stroke="red" points="16.5,-768.5 16.5,-787.5 135.5,-787.5 135.5,-768.5 16.5,-768.5"/>
<text text-anchor="middle" x="76" y="-775.5" font-family="Helvetica,sans-Serif" font-size="10.00">TMC2208Stepper::shaft</text>
</a>
</g>
</g>
<!-- Node32&#45;&gt;Node47 -->
<g id="edge31" class="edge"><title>Node32&#45;&gt;Node47</title>
<path fill="none" stroke="midnightblue" d="M244.819,-722.633C220.182,-733.429 184.29,-748.403 152,-759 141.407,-762.476 129.799,-765.696 118.948,-768.459"/>
<polygon fill="midnightblue" stroke="midnightblue" points="246.268,-725.819 254,-718.575 243.439,-719.417 246.268,-725.819"/>
</g>
<!-- Node50&#45;&gt;Node1 -->
<g id="edge38" class="edge"><title>Node50&#45;&gt;Node1</title>
<path fill="none" stroke="midnightblue" d="M325.145,-193.081C430.166,-219.435 678.018,-281.63 773.024,-305.47"/>
<polygon fill="midnightblue" stroke="midnightblue" points="325.691,-189.61 315.14,-190.571 323.987,-196.399 325.691,-189.61"/>
</g>
<!-- Node51 -->
<g id="node33" class="node"><title>Node51</title>
<g id="a_node33"><a xlink:href="class_t_m_c2208_stepper.html#a3e89d66eba91684da6dce09b366aa716" target="_top" xlink:title=" ">
<polygon fill="white" stroke="black" points="18,-152.5 18,-171.5 134,-171.5 134,-152.5 18,-152.5"/>
<text text-anchor="middle" x="76" y="-159.5" font-family="Helvetica,sans-Serif" font-size="10.00">TMC2208Stepper::diag</text>
</a>
</g>
</g>
<!-- Node50&#45;&gt;Node51 -->
<g id="edge34" class="edge"><title>Node50&#45;&gt;Node51</title>
<path fill="none" stroke="midnightblue" d="M207.934,-174.564C184.014,-172.269 157.309,-169.706 134.287,-167.497"/>
<polygon fill="midnightblue" stroke="midnightblue" points="207.707,-178.059 217.996,-175.53 208.376,-171.091 207.707,-178.059"/>
</g>
<!-- Node52 -->
<g id="node34" class="node"><title>Node52</title>
<g id="a_node34"><a xlink:href="class_t_m_c2208_stepper.html#af4a3a3c37720a10e59331f74c8a84a4e" target="_top" xlink:title=" ">
<polygon fill="white" stroke="black" points="22,-114.5 22,-133.5 130,-133.5 130,-114.5 22,-114.5"/>
<text text-anchor="middle" x="76" y="-121.5" font-family="Helvetica,sans-Serif" font-size="10.00">TMC2208Stepper::dir</text>
</a>
</g>
</g>
<!-- Node50&#45;&gt;Node52 -->
<g id="edge35" class="edge"><title>Node50&#45;&gt;Node52</title>
<path fill="none" stroke="midnightblue" d="M235.478,-168.222C211.434,-160.591 180.053,-150.881 152,-143 140.491,-139.767 127.919,-136.485 116.415,-133.58"/>
<polygon fill="midnightblue" stroke="midnightblue" points="234.711,-171.651 245.302,-171.354 236.837,-164.982 234.711,-171.651"/>
</g>
<!-- Node53 -->
<g id="node35" class="node"><title>Node53</title>
<g id="a_node35"><a xlink:href="class_t_m_c2208_stepper.html#acc1f92ce007231215fc4266fb4b99a62" target="_top" xlink:title=" ">
<polygon fill="white" stroke="red" points="19.5,-76.5 19.5,-95.5 132.5,-95.5 132.5,-76.5 19.5,-76.5"/>
<text text-anchor="middle" x="76" y="-83.5" font-family="Helvetica,sans-Serif" font-size="10.00">TMC2208Stepper::enn</text>
</a>
</g>
</g>
<!-- Node50&#45;&gt;Node53 -->
<g id="edge36" class="edge"><title>Node50&#45;&gt;Node53</title>
<path fill="none" stroke="midnightblue" d="M254.23,-165.396C230.605,-148.326 190.324,-121.239 152,-105 143.219,-101.279 133.54,-98.1609 124.136,-95.5969"/>
<polygon fill="midnightblue" stroke="midnightblue" points="252.294,-168.317 262.43,-171.404 256.432,-162.67 252.294,-168.317"/>
</g>
<!-- Node54 -->
<g id="node36" class="node"><title>Node54</title>
<g id="a_node36"><a xlink:href="class_t_m_c2208_stepper.html#adbace6f10c292506035b9d162ed239b4" target="_top" xlink:title=" ">
<polygon fill="white" stroke="black" points="18,-38.5 18,-57.5 134,-57.5 134,-38.5 18,-38.5"/>
<text text-anchor="middle" x="76" y="-45.5" font-family="Helvetica,sans-Serif" font-size="10.00">TMC2208Stepper::ms1</text>
</a>
</g>
</g>
<!-- Node50&#45;&gt;Node54 -->
<g id="edge37" class="edge"><title>Node50&#45;&gt;Node54</title>
<path fill="none" stroke="midnightblue" d="M261.021,-163.356C240.057,-138.115 197.997,-91.9957 152,-67 144.919,-63.1519 137.037,-60.0639 129.119,-57.5911"/>
<polygon fill="midnightblue" stroke="midnightblue" points="258.498,-165.802 267.528,-171.344 263.926,-161.381 258.498,-165.802"/>
</g>
<!-- Node55 -->
<g id="node37" class="node"><title>Node55</title>
<g id="a_node37"><a xlink:href="class_t_m_c2208_stepper.html#ab1a4fdff9c56ed07ba453f961864e769" target="_top" xlink:title=" ">
<polygon fill="white" stroke="black" points="8.5,-0.5 8.5,-19.5 143.5,-19.5 143.5,-0.5 8.5,-0.5"/>
<text text-anchor="middle" x="76" y="-7.5" font-family="Helvetica,sans-Serif" font-size="10.00">TMC2208Stepper::pdn_uart</text>
</a>
</g>
</g>
<!-- Node50&#45;&gt;Node55 -->
<g id="edge39" class="edge"><title>Node50&#45;&gt;Node55</title>
<path fill="none" stroke="midnightblue" d="M265.355,-162.53C247.506,-130.237 206.156,-63.6582 152,-29 145.891,-25.0902 139.022,-21.9844 131.985,-19.5175"/>
<polygon fill="midnightblue" stroke="midnightblue" points="262.299,-164.239 270.127,-171.378 268.46,-160.915 262.299,-164.239"/>
</g>
<!-- Node56 -->
<g id="node38" class="node"><title>Node56</title>
<g id="a_node38"><a xlink:href="class_t_m_c2208_stepper.html#a462e14ef67b55c14c361c741767eee5e" target="_top" xlink:title=" ">
<polygon fill="white" stroke="black" points="15.5,-266.5 15.5,-285.5 136.5,-285.5 136.5,-266.5 15.5,-266.5"/>
<text text-anchor="middle" x="76" y="-273.5" font-family="Helvetica,sans-Serif" font-size="10.00">TMC2208Stepper::sel_a</text>
</a>
</g>
</g>
<!-- Node50&#45;&gt;Node56 -->
<g id="edge40" class="edge"><title>Node50&#45;&gt;Node56</title>
<path fill="none" stroke="midnightblue" d="M254.23,-196.604C230.605,-213.674 190.324,-240.761 152,-257 143.219,-260.721 133.54,-263.839 124.136,-266.403"/>
<polygon fill="midnightblue" stroke="midnightblue" points="256.432,-199.33 262.43,-190.596 252.294,-193.683 256.432,-199.33"/>
</g>
<!-- Node57 -->
<g id="node39" class="node"><title>Node57</title>
<g id="a_node39"><a xlink:href="class_t_m_c2208_stepper.html#ac5cbf509e5e74a27507ce976bd973a4d" target="_top" xlink:title=" ">
<polygon fill="white" stroke="black" points="18,-228.5 18,-247.5 134,-247.5 134,-228.5 18,-228.5"/>
<text text-anchor="middle" x="76" y="-235.5" font-family="Helvetica,sans-Serif" font-size="10.00">TMC2208Stepper::step</text>
</a>
</g>
</g>
<!-- Node50&#45;&gt;Node57 -->
<g id="edge41" class="edge"><title>Node50&#45;&gt;Node57</title>
<path fill="none" stroke="midnightblue" d="M235.478,-193.778C211.434,-201.409 180.053,-211.119 152,-219 140.491,-222.233 127.919,-225.515 116.415,-228.42"/>
<polygon fill="midnightblue" stroke="midnightblue" points="236.837,-197.018 245.302,-190.646 234.711,-190.349 236.837,-197.018"/>
</g>
<!-- Node58 -->
<g id="node40" class="node"><title>Node58</title>
<g id="a_node40"><a xlink:href="class_t_m_c2208_stepper.html#afd696df315a1b1296bd77f6438c4cbe8" target="_top" xlink:title=" ">
<polygon fill="white" stroke="black" points="12,-190.5 12,-209.5 140,-209.5 140,-190.5 12,-190.5"/>
<text text-anchor="middle" x="76" y="-197.5" font-family="Helvetica,sans-Serif" font-size="10.00">TMC2208Stepper::version</text>
</a>
</g>
</g>
<!-- Node50&#45;&gt;Node58 -->
<g id="edge42" class="edge"><title>Node50&#45;&gt;Node58</title>
<path fill="none" stroke="midnightblue" d="M207.802,-187.448C185.937,-189.546 161.758,-191.867 140.197,-193.936"/>
<polygon fill="midnightblue" stroke="midnightblue" points="208.376,-190.909 217.996,-186.47 207.707,-183.941 208.376,-190.909"/>
</g>
<!-- Node60 -->
<g id="node42" class="node"><title>Node60</title>
<g id="a_node42"><a xlink:href="class_t_m_c2209_stepper.html#a57eb34f291e73aef7d3de9f21239e3ac" target="_top" xlink:title=" ">
<polygon fill="white" stroke="black" points="18,-380.5 18,-399.5 134,-399.5 134,-380.5 18,-380.5"/>
<text text-anchor="middle" x="76" y="-387.5" font-family="Helvetica,sans-Serif" font-size="10.00">TMC2209Stepper::diag</text>
</a>
</g>
</g>
<!-- Node59&#45;&gt;Node60 -->
<g id="edge44" class="edge"><title>Node59&#45;&gt;Node60</title>
<path fill="none" stroke="midnightblue" d="M207.934,-390C184.014,-390 157.309,-390 134.287,-390"/>
<polygon fill="midnightblue" stroke="midnightblue" points="207.996,-393.5 217.996,-390 207.996,-386.5 207.996,-393.5"/>
</g>
<!-- Node61 -->
<g id="node43" class="node"><title>Node61</title>
<g id="a_node43"><a xlink:href="class_t_m_c2209_stepper.html#abfe7546eae0d8d3496de34589c43e166" target="_top" xlink:title=" ">
<polygon fill="white" stroke="black" points="22,-342.5 22,-361.5 130,-361.5 130,-342.5 22,-342.5"/>
<text text-anchor="middle" x="76" y="-349.5" font-family="Helvetica,sans-Serif" font-size="10.00">TMC2209Stepper::dir</text>
</a>
</g>
</g>
<!-- Node59&#45;&gt;Node61 -->
<g id="edge45" class="edge"><title>Node59&#45;&gt;Node61</title>
<path fill="none" stroke="midnightblue" d="M215.134,-378.511C186.883,-373.089 153.564,-366.694 126.729,-361.544"/>
<polygon fill="midnightblue" stroke="midnightblue" points="214.811,-382.012 225.292,-380.46 216.131,-375.138 214.811,-382.012"/>
</g>
<!-- Node62 -->
<g id="node44" class="node"><title>Node62</title>
<g id="a_node44"><a xlink:href="class_t_m_c2209_stepper.html#a15552d02544cc0df6b82317c937e4ea5" target="_top" xlink:title=" ">
<polygon fill="white" stroke="black" points="19.5,-304.5 19.5,-323.5 132.5,-323.5 132.5,-304.5 19.5,-304.5"/>
<text text-anchor="middle" x="76" y="-311.5" font-family="Helvetica,sans-Serif" font-size="10.00">TMC2209Stepper::enn</text>
</a>
</g>
</g>
<!-- Node59&#45;&gt;Node62 -->
<g id="edge46" class="edge"><title>Node59&#45;&gt;Node62</title>
<path fill="none" stroke="midnightblue" d="M208.261,-379.788C201.192,-377.44 194.295,-374.552 188,-371 167.738,-359.567 172.07,-344.766 152,-333 145.395,-329.128 138.013,-326.038 130.528,-323.574"/>
<polygon fill="midnightblue" stroke="midnightblue" points="207.385,-383.179 217.968,-382.668 209.376,-376.468 207.385,-383.179"/>
</g>
<!-- Node86&#45;&gt;Node19 -->
<g id="edge52" class="edge"><title>Node86&#45;&gt;Node19</title>
<path fill="none" stroke="midnightblue" d="M215.134,-915.489C186.883,-920.911 153.564,-927.306 126.729,-932.456"/>
<polygon fill="midnightblue" stroke="midnightblue" points="216.131,-918.862 225.292,-913.54 214.811,-911.988 216.131,-918.862"/>
</g>
<!-- Node86&#45;&gt;Node20 -->
<g id="edge53" class="edge"><title>Node86&#45;&gt;Node20</title>
<path fill="none" stroke="midnightblue" d="M191.268,-904C172.551,-904 153.087,-904 135.64,-904"/>
<polygon fill="midnightblue" stroke="midnightblue" points="191.272,-907.5 201.272,-904 191.272,-900.5 191.272,-907.5"/>
</g>
</g>
</svg>
