<?xml version="1.0" encoding="UTF-8" standalone="no"?>
<!DOCTYPE svg PUBLIC "-//W3C//DTD SVG 1.1//EN"
 "http://www.w3.org/Graphics/SVG/1.1/DTD/svg11.dtd">
<!-- Generated by graphviz version 2.38.0 (20140413.2041)
 -->
<!-- Title: TMC2660Stepper::hstrt Pages: 1 -->
<svg width="304pt" height="78pt"
 viewBox="0.00 0.00 304.00 77.50" xmlns="http://www.w3.org/2000/svg" xmlns:xlink="http://www.w3.org/1999/xlink">
<g id="graph0" class="graph" transform="scale(1 1) rotate(0) translate(4 73.5)">
<title>TMC2660Stepper::hstrt</title>
<polygon fill="white" stroke="none" points="-4,4 -4,-73.5 300,-73.5 300,4 -4,4"/>
<!-- Node1 -->
<g id="node1" class="node"><title>Node1</title>
<g id="a_node1"><a xlink:title=" ">
<polygon fill="#bfbfbf" stroke="black" points="179,-28 179,-47 296,-47 296,-28 179,-28"/>
<text text-anchor="middle" x="237.5" y="-35" font-family="Helvetica,sans-Serif" font-size="10.00">TMC2660Stepper::hstrt</text>
</a>
</g>
</g>
<!-- Node2 -->
<g id="node2" class="node"><title>Node2</title>
<g id="a_node2"><a xlink:href="class_t_m_c2660_stepper.html#abea2d3f2d90c7f11a2975ac62bf5ed42" target="_top" xlink:title=" ">
<polygon fill="white" stroke="black" points="13,-50 13,-69 130,-69 130,-50 13,-50"/>
<text text-anchor="middle" x="71.5" y="-57" font-family="Helvetica,sans-Serif" font-size="10.00">TMC2660Stepper::hstrt</text>
</a>
</g>
</g>
<!-- Node1&#45;&gt;Node2 -->
<g id="edge1" class="edge"><title>Node1&#45;&gt;Node2</title>
<path fill="none" stroke="midnightblue" d="M168.55,-46.6152C155.763,-48.3305 142.507,-50.1089 130.074,-51.7766"/>
<polygon fill="midnightblue" stroke="midnightblue" points="169.234,-50.0549 178.68,-45.2564 168.303,-43.1171 169.234,-50.0549"/>
</g>
<!-- Node3 -->
<g id="node3" class="node"><title>Node3</title>
<g id="a_node3"><a xlink:href="class_t_m_c2660_stepper.html#a6e08c12edd0a4524d0b63eb662a36d5d" target="_top" xlink:title=" ">
<polygon fill="white" stroke="black" points="0,-0.5 0,-30.5 143,-30.5 143,-0.5 0,-0.5"/>
<text text-anchor="start" x="8" y="-18.5" font-family="Helvetica,sans-Serif" font-size="10.00">TMC2660Stepper::hysteresis</text>
<text text-anchor="middle" x="71.5" y="-7.5" font-family="Helvetica,sans-Serif" font-size="10.00">_start</text>
</a>
</g>
</g>
<!-- Node1&#45;&gt;Node3 -->
<g id="edge2" class="edge"><title>Node1&#45;&gt;Node3</title>
<path fill="none" stroke="midnightblue" d="M168.533,-28.3824C160.111,-27.2526 151.485,-26.0956 143.026,-24.9608"/>
<polygon fill="midnightblue" stroke="midnightblue" points="168.303,-31.8829 178.68,-29.7436 169.234,-24.9451 168.303,-31.8829"/>
</g>
</g>
</svg>
