<?xml version="1.0" encoding="UTF-8" standalone="no"?>
<!DOCTYPE svg PUBLIC "-//W3C//DTD SVG 1.1//EN"
 "http://www.w3.org/Graphics/SVG/1.1/DTD/svg11.dtd">
<!-- Generated by graphviz version 2.38.0 (20140413.2041)
 -->
<!-- Title: TMC2208Stepper::step Pages: 1 -->
<svg width="811pt" height="140pt"
 viewBox="0.00 0.00 811.00 139.53" xmlns="http://www.w3.org/2000/svg" xmlns:xlink="http://www.w3.org/1999/xlink">
<g id="graph0" class="graph" transform="scale(1 1) rotate(0) translate(4 135.532)">
<title>TMC2208Stepper::step</title>
<polygon fill="white" stroke="none" points="-4,4 -4,-135.532 807,-135.532 807,4 -4,4"/>
<!-- Node1 -->
<g id="node1" class="node"><title>Node1</title>
<g id="a_node1"><a xlink:title=" ">
<polygon fill="#bfbfbf" stroke="black" points="0,-4.03223 0,-23.0322 116,-23.0322 116,-4.03223 0,-4.03223"/>
<text text-anchor="middle" x="58" y="-11.0322" font-family="Helvetica,sans-Serif" font-size="10.00">TMC2208Stepper::step</text>
</a>
</g>
</g>
<!-- Node2 -->
<g id="node2" class="node"><title>Node2</title>
<g id="a_node2"><a xlink:href="class_t_m_c2208_stepper.html#a5441dd87d0bcea4ffc309cb012166a57" target="_top" xlink:title=" ">
<polygon fill="white" stroke="black" points="152,-4.03223 152,-23.0322 268,-23.0322 268,-4.03223 152,-4.03223"/>
<text text-anchor="middle" x="210" y="-11.0322" font-family="Helvetica,sans-Serif" font-size="10.00">TMC2208Stepper::IOIN</text>
</a>
</g>
</g>
<!-- Node1&#45;&gt;Node2 -->
<g id="edge1" class="edge"><title>Node1&#45;&gt;Node2</title>
<path fill="none" stroke="midnightblue" d="M116.136,-13.5322C124.377,-13.5322 132.923,-13.5322 141.344,-13.5322"/>
<polygon fill="midnightblue" stroke="midnightblue" points="141.526,-17.0323 151.525,-13.5322 141.525,-10.0323 141.526,-17.0323"/>
</g>
<!-- Node3 -->
<g id="node3" class="node"><title>Node3</title>
<g id="a_node3"><a xlink:href="class_t_m_c2208_stepper.html#a2fae2050849c3ab7968012def8ea1cc5" target="_top" xlink:title=" ">
<polygon fill="white" stroke="black" points="304,-33.0322 304,-52.0322 420,-52.0322 420,-33.0322 304,-33.0322"/>
<text text-anchor="middle" x="362" y="-40.0322" font-family="Helvetica,sans-Serif" font-size="10.00">TMC2208Stepper::read</text>
</a>
</g>
</g>
<!-- Node2&#45;&gt;Node3 -->
<g id="edge2" class="edge"><title>Node2&#45;&gt;Node3</title>
<path fill="none" stroke="midnightblue" d="M260.531,-23.1083C273.784,-25.6705 288.241,-28.4655 301.952,-31.1163"/>
<polygon fill="midnightblue" stroke="midnightblue" points="301.294,-34.5538 311.776,-33.0157 302.623,-27.681 301.294,-34.5538"/>
</g>
<!-- Node4 -->
<g id="node4" class="node"><title>Node4</title>
<g id="a_node4"><a xlink:href="class_t_m_c2208_stepper.html#a3e1f6a10aa1e3e41dc2594dbe1ea8a1d" target="_top" xlink:title=" ">
<polygon fill="white" stroke="black" points="456,-90.0322 456,-109.032 622,-109.032 622,-90.0322 456,-90.0322"/>
<text text-anchor="middle" x="539" y="-97.0322" font-family="Helvetica,sans-Serif" font-size="10.00">TMC2208Stepper::_sendDatagram</text>
</a>
</g>
</g>
<!-- Node3&#45;&gt;Node4 -->
<g id="edge3" class="edge"><title>Node3&#45;&gt;Node4</title>
<path fill="none" stroke="midnightblue" d="M383.7,-52.1104C402.317,-60.4533 430.568,-72.4476 456,-80.5322 464.008,-83.0779 472.555,-85.4385 480.996,-87.5688"/>
<polygon fill="midnightblue" stroke="midnightblue" points="480.272,-90.9948 490.816,-89.9611 481.929,-84.1937 480.272,-90.9948"/>
</g>
<!-- Node8 -->
<g id="node8" class="node"><title>Node8</title>
<g id="a_node8"><a xlink:href="class_s_switch.html#a6ff09d0850d551571dc333fb74ff8628" target="_top" xlink:title=" ">
<polygon fill="white" stroke="black" points="497.5,-52.0322 497.5,-71.0322 580.5,-71.0322 580.5,-52.0322 497.5,-52.0322"/>
<text text-anchor="middle" x="539" y="-59.0322" font-family="Helvetica,sans-Serif" font-size="10.00">SSwitch::active</text>
</a>
</g>
</g>
<!-- Node3&#45;&gt;Node8 -->
<g id="edge8" class="edge"><title>Node3&#45;&gt;Node8</title>
<path fill="none" stroke="midnightblue" d="M420.302,-48.7535C441.975,-51.1066 466.465,-53.7656 487.472,-56.0463"/>
<polygon fill="midnightblue" stroke="midnightblue" points="487.158,-59.5327 497.477,-57.1326 487.913,-52.5736 487.158,-59.5327"/>
</g>
<!-- Node9 -->
<g id="node9" class="node"><title>Node9</title>
<g id="a_node9"><a xlink:href="class_t_m_c2208_stepper.html#a409c19fa6b052a370a317d061bf9af4e" target="_top" xlink:title=" ">
<polygon fill="white" stroke="black" points="471,-14.0322 471,-33.0322 607,-33.0322 607,-14.0322 471,-14.0322"/>
<text text-anchor="middle" x="539" y="-21.0322" font-family="Helvetica,sans-Serif" font-size="10.00">TMC2208Stepper::calcCRC</text>
</a>
</g>
</g>
<!-- Node3&#45;&gt;Node9 -->
<g id="edge9" class="edge"><title>Node3&#45;&gt;Node9</title>
<path fill="none" stroke="midnightblue" d="M420.302,-36.3109C433.17,-34.9138 447.032,-33.4088 460.567,-31.9392"/>
<polygon fill="midnightblue" stroke="midnightblue" points="461.269,-35.3836 470.833,-30.8246 460.514,-28.4245 461.269,-35.3836"/>
</g>
<!-- Node5 -->
<g id="node5" class="node"><title>Node5</title>
<g id="a_node5"><a xlink:href="class_t_m_c2208_stepper.html#a4ec5d2b2f5a31259c7aba1f3208d63b8" target="_top" xlink:title=" ">
<polygon fill="white" stroke="black" points="672.5,-11.0322 672.5,-30.0322 788.5,-30.0322 788.5,-11.0322 672.5,-11.0322"/>
<text text-anchor="middle" x="730.5" y="-18.0322" font-family="Helvetica,sans-Serif" font-size="10.00">TMC2208Stepper::ms2</text>
</a>
</g>
</g>
<!-- Node4&#45;&gt;Node5 -->
<g id="edge4" class="edge"><title>Node4&#45;&gt;Node5</title>
<path fill="none" stroke="midnightblue" d="M596.242,-89.9247C605.083,-87.4489 613.952,-84.3643 622,-80.5322 640.301,-71.8185 640.624,-62.9698 658,-52.5322 669.591,-45.5698 682.963,-39.1888 694.984,-33.9877"/>
<polygon fill="midnightblue" stroke="midnightblue" points="696.414,-37.1834 704.276,-30.081 693.701,-30.7305 696.414,-37.1834"/>
</g>
<!-- Node6 -->
<g id="node6" class="node"><title>Node6</title>
<g id="a_node6"><a xlink:href="class_t_m_c2208_stepper.html#ae561da4ec7c40830e97bf4dc8cf700fb" target="_top" xlink:title=" ">
<polygon fill="white" stroke="black" points="658,-112.032 658,-131.032 803,-131.032 803,-112.032 658,-112.032"/>
<text text-anchor="middle" x="730.5" y="-119.032" font-family="Helvetica,sans-Serif" font-size="10.00">TMC2208Stepper::serial_read</text>
</a>
</g>
</g>
<!-- Node4&#45;&gt;Node6 -->
<g id="edge6" class="edge"><title>Node4&#45;&gt;Node6</title>
<path fill="none" stroke="midnightblue" d="M622.015,-109.054C630.571,-110.047 639.268,-111.057 647.819,-112.05"/>
<polygon fill="midnightblue" stroke="midnightblue" points="647.438,-115.529 657.775,-113.205 648.245,-108.575 647.438,-115.529"/>
</g>
<!-- Node7 -->
<g id="node7" class="node"><title>Node7</title>
<g id="a_node7"><a xlink:href="class_t_m_c2208_stepper.html#a7dd83313385079099b0622957786a979" target="_top" xlink:title=" ">
<polygon fill="white" stroke="black" points="670,-62.5322 670,-92.5322 791,-92.5322 791,-62.5322 670,-62.5322"/>
<text text-anchor="start" x="678" y="-80.5322" font-family="Helvetica,sans-Serif" font-size="10.00">TMC2208Stepper::serial</text>
<text text-anchor="middle" x="730.5" y="-69.5322" font-family="Helvetica,sans-Serif" font-size="10.00">_write</text>
</a>
</g>
</g>
<!-- Node4&#45;&gt;Node7 -->
<g id="edge7" class="edge"><title>Node4&#45;&gt;Node7</title>
<path fill="none" stroke="midnightblue" d="M622.015,-90.0107C634.597,-88.55 647.484,-87.0539 659.767,-85.6279"/>
<polygon fill="midnightblue" stroke="midnightblue" points="660.392,-89.0789 669.922,-84.4489 659.585,-82.1256 660.392,-89.0789"/>
</g>
<!-- Node5&#45;&gt;Node2 -->
<g id="edge5" class="edge"><title>Node5&#45;&gt;Node2</title>
<path fill="none" stroke="midnightblue" d="M676.088,-10.9924C658.881,-8.34632 639.688,-5.84135 622,-4.53223 501.185,4.40943 359.893,-2.4631 278.393,-8.10973"/>
<polygon fill="midnightblue" stroke="midnightblue" points="277.998,-4.62883 268.27,-8.82619 278.492,-11.6114 277.998,-4.62883"/>
</g>
</g>
</svg>
