<?xml version="1.0" encoding="UTF-8" standalone="no"?>
<!DOCTYPE svg PUBLIC "-//W3C//DTD SVG 1.1//EN"
 "http://www.w3.org/Graphics/SVG/1.1/DTD/svg11.dtd">
<!-- Generated by graphviz version 2.38.0 (20140413.2041)
 -->
<!-- Title: TMC2130Stepper::en_pwm_mode Pages: 1 -->
<svg width="921pt" height="104pt"
 viewBox="0.00 0.00 921.00 104.00" xmlns="http://www.w3.org/2000/svg" xmlns:xlink="http://www.w3.org/1999/xlink">
<g id="graph0" class="graph" transform="scale(1 1) rotate(0) translate(4 100)">
<title>TMC2130Stepper::en_pwm_mode</title>
<polygon fill="white" stroke="none" points="-4,4 -4,-100 917,-100 917,4 -4,4"/>
<!-- Node1 -->
<g id="node1" class="node"><title>Node1</title>
<g id="a_node1"><a xlink:title=" ">
<polygon fill="#bfbfbf" stroke="black" points="0,-33 0,-63 108,-63 108,-33 0,-33"/>
<text text-anchor="start" x="8" y="-51" font-family="Helvetica,sans-Serif" font-size="10.00">TMC2130Stepper::en</text>
<text text-anchor="middle" x="54" y="-40" font-family="Helvetica,sans-Serif" font-size="10.00">_pwm_mode</text>
</a>
</g>
</g>
<!-- Node2 -->
<g id="node2" class="node"><title>Node2</title>
<g id="a_node2"><a xlink:href="class_t_m_c2130_stepper.html#abf1aaf21b2ed62c07626fa3fd69577a5" target="_top" xlink:title=" ">
<polygon fill="white" stroke="black" points="144,-33 144,-63 252,-63 252,-33 144,-33"/>
<text text-anchor="start" x="152" y="-51" font-family="Helvetica,sans-Serif" font-size="10.00">TMC2130Stepper::en</text>
<text text-anchor="middle" x="198" y="-40" font-family="Helvetica,sans-Serif" font-size="10.00">_pwm_mode</text>
</a>
</g>
</g>
<!-- Node1&#45;&gt;Node2 -->
<g id="edge1" class="edge"><title>Node1&#45;&gt;Node2</title>
<path fill="none" stroke="midnightblue" d="M108.28,-48C116.56,-48 125.184,-48 133.661,-48"/>
<polygon fill="midnightblue" stroke="midnightblue" points="133.894,-51.5001 143.894,-48 133.894,-44.5001 133.894,-51.5001"/>
</g>
<!-- Node3 -->
<g id="node3" class="node"><title>Node3</title>
<g id="a_node3"><a xlink:href="class_t_m_c2130_stepper.html#aee84a9abfc84b387c6ae5658f90bf684" target="_top" xlink:title=" ">
<polygon fill="white" stroke="black" points="288,-38.5 288,-57.5 420,-57.5 420,-38.5 288,-38.5"/>
<text text-anchor="middle" x="354" y="-45.5" font-family="Helvetica,sans-Serif" font-size="10.00">TMC2130Stepper::GCONF</text>
</a>
</g>
</g>
<!-- Node2&#45;&gt;Node3 -->
<g id="edge2" class="edge"><title>Node2&#45;&gt;Node3</title>
<path fill="none" stroke="midnightblue" d="M252.43,-48C260.672,-48 269.312,-48 277.921,-48"/>
<polygon fill="midnightblue" stroke="midnightblue" points="277.987,-51.5001 287.987,-48 277.987,-44.5001 277.987,-51.5001"/>
</g>
<!-- Node4 -->
<g id="node4" class="node"><title>Node4</title>
<g id="a_node4"><a xlink:href="class_t_m_c2130_stepper.html#aed0175bff6e80ebc14e0d2606283cbe0" target="_top" xlink:title=" ">
<polygon fill="white" stroke="black" points="456,-38.5 456,-57.5 572,-57.5 572,-38.5 456,-38.5"/>
<text text-anchor="middle" x="514" y="-45.5" font-family="Helvetica,sans-Serif" font-size="10.00">TMC2130Stepper::read</text>
</a>
</g>
</g>
<!-- Node3&#45;&gt;Node4 -->
<g id="edge3" class="edge"><title>Node3&#45;&gt;Node4</title>
<path fill="none" stroke="midnightblue" d="M420.177,-48C428.517,-48 437.069,-48 445.445,-48"/>
<polygon fill="midnightblue" stroke="midnightblue" points="445.55,-51.5001 455.55,-48 445.55,-44.5001 445.55,-51.5001"/>
</g>
<!-- Node5 -->
<g id="node5" class="node"><title>Node5</title>
<g id="a_node5"><a xlink:href="class_t_m_c2130_stepper.html#aed8aa4583943e649dbf3bb1c1da90d63" target="_top" xlink:title=" ">
<polygon fill="white" stroke="black" points="608,-76.5 608,-95.5 760,-95.5 760,-76.5 608,-76.5"/>
<text text-anchor="middle" x="684" y="-83.5" font-family="Helvetica,sans-Serif" font-size="10.00">TMC2130Stepper::switchCSpin</text>
</a>
</g>
</g>
<!-- Node4&#45;&gt;Node5 -->
<g id="edge4" class="edge"><title>Node4&#45;&gt;Node5</title>
<path fill="none" stroke="midnightblue" d="M557.393,-57.589C579.763,-62.6487 607.398,-68.8996 631.047,-74.2488"/>
<polygon fill="midnightblue" stroke="midnightblue" points="630.386,-77.6875 640.911,-76.4799 631.93,-70.8599 630.386,-77.6875"/>
</g>
<!-- Node6 -->
<g id="node6" class="node"><title>Node6</title>
<g id="a_node6"><a xlink:href="class_s_w___s_p_i_class.html#af260fdc0af3f1312b106483161e559c3" target="_top" xlink:title=" ">
<polygon fill="white" stroke="black" points="796,-19.5 796,-38.5 913,-38.5 913,-19.5 796,-19.5"/>
<text text-anchor="middle" x="854.5" y="-26.5" font-family="Helvetica,sans-Serif" font-size="10.00">SW_SPIClass::transfer</text>
</a>
</g>
</g>
<!-- Node4&#45;&gt;Node6 -->
<g id="edge5" class="edge"><title>Node4&#45;&gt;Node6</title>
<path fill="none" stroke="midnightblue" d="M572.039,-44.7984C631.027,-41.4874 723.113,-36.3186 785.765,-32.802"/>
<polygon fill="midnightblue" stroke="midnightblue" points="786.156,-36.2856 795.944,-32.2306 785.763,-29.2966 786.156,-36.2856"/>
</g>
<!-- Node7 -->
<g id="node7" class="node"><title>Node7</title>
<g id="a_node7"><a xlink:href="class_s_w___s_p_i_class.html#a1b7600aa1d9571c103718c5d3e376675" target="_top" xlink:title=" ">
<polygon fill="white" stroke="black" points="620,-0.5 620,-19.5 748,-19.5 748,-0.5 620,-0.5"/>
<text text-anchor="middle" x="684" y="-7.5" font-family="Helvetica,sans-Serif" font-size="10.00">SW_SPIClass::transfer16</text>
</a>
</g>
</g>
<!-- Node4&#45;&gt;Node7 -->
<g id="edge6" class="edge"><title>Node4&#45;&gt;Node7</title>
<path fill="none" stroke="midnightblue" d="M557.393,-38.411C579.763,-33.3513 607.398,-27.1004 631.047,-21.7512"/>
<polygon fill="midnightblue" stroke="midnightblue" points="631.93,-25.1401 640.911,-19.5201 630.386,-18.3125 631.93,-25.1401"/>
</g>
<!-- Node7&#45;&gt;Node6 -->
<g id="edge7" class="edge"><title>Node7&#45;&gt;Node6</title>
<path fill="none" stroke="midnightblue" d="M748.223,-17.129C760.406,-18.5028 773.217,-19.9473 785.543,-21.3372"/>
<polygon fill="midnightblue" stroke="midnightblue" points="785.43,-24.8466 795.76,-22.4892 786.215,-17.8907 785.43,-24.8466"/>
</g>
</g>
</svg>
