<?xml version="1.0" encoding="UTF-8" standalone="no"?>
<!DOCTYPE svg PUBLIC "-//W3C//DTD SVG 1.1//EN"
 "http://www.w3.org/Graphics/SVG/1.1/DTD/svg11.dtd">
<!-- Generated by graphviz version 2.38.0 (20140413.2041)
 -->
<!-- Title: TMC2130Stepper::diag0_otpw Pages: 1 -->
<svg width="997pt" height="104pt"
 viewBox="0.00 0.00 997.00 104.00" xmlns="http://www.w3.org/2000/svg" xmlns:xlink="http://www.w3.org/1999/xlink">
<g id="graph0" class="graph" transform="scale(1 1) rotate(0) translate(4 100)">
<title>TMC2130Stepper::diag0_otpw</title>
<polygon fill="white" stroke="none" points="-4,4 -4,-100 993,-100 993,4 -4,4"/>
<!-- Node1 -->
<g id="node1" class="node"><title>Node1</title>
<g id="a_node1"><a xlink:title=" ">
<polygon fill="#bfbfbf" stroke="black" points="0,-38.5 0,-57.5 146,-57.5 146,-38.5 0,-38.5"/>
<text text-anchor="middle" x="73" y="-45.5" font-family="Helvetica,sans-Serif" font-size="10.00">TMC2130Stepper::diag0_otpw</text>
</a>
</g>
</g>
<!-- Node2 -->
<g id="node2" class="node"><title>Node2</title>
<g id="a_node2"><a xlink:href="class_t_m_c2130_stepper.html#a774e7d003b2e993fdaef68e2869df70d" target="_top" xlink:title=" ">
<polygon fill="white" stroke="black" points="182,-38.5 182,-57.5 328,-57.5 328,-38.5 182,-38.5"/>
<text text-anchor="middle" x="255" y="-45.5" font-family="Helvetica,sans-Serif" font-size="10.00">TMC2130Stepper::diag0_otpw</text>
</a>
</g>
</g>
<!-- Node1&#45;&gt;Node2 -->
<g id="edge1" class="edge"><title>Node1&#45;&gt;Node2</title>
<path fill="none" stroke="midnightblue" d="M146.176,-48C154.52,-48 163.077,-48 171.544,-48"/>
<polygon fill="midnightblue" stroke="midnightblue" points="171.808,-51.5001 181.808,-48 171.808,-44.5001 171.808,-51.5001"/>
</g>
<!-- Node3 -->
<g id="node3" class="node"><title>Node3</title>
<g id="a_node3"><a xlink:href="class_t_m_c2130_stepper.html#aee84a9abfc84b387c6ae5658f90bf684" target="_top" xlink:title=" ">
<polygon fill="white" stroke="black" points="364,-38.5 364,-57.5 496,-57.5 496,-38.5 364,-38.5"/>
<text text-anchor="middle" x="430" y="-45.5" font-family="Helvetica,sans-Serif" font-size="10.00">TMC2130Stepper::GCONF</text>
</a>
</g>
</g>
<!-- Node2&#45;&gt;Node3 -->
<g id="edge2" class="edge"><title>Node2&#45;&gt;Node3</title>
<path fill="none" stroke="midnightblue" d="M328.115,-48C336.552,-48 345.177,-48 353.656,-48"/>
<polygon fill="midnightblue" stroke="midnightblue" points="353.904,-51.5001 363.904,-48 353.904,-44.5001 353.904,-51.5001"/>
</g>
<!-- Node4 -->
<g id="node4" class="node"><title>Node4</title>
<g id="a_node4"><a xlink:href="class_t_m_c2130_stepper.html#aed0175bff6e80ebc14e0d2606283cbe0" target="_top" xlink:title=" ">
<polygon fill="white" stroke="black" points="532,-38.5 532,-57.5 648,-57.5 648,-38.5 532,-38.5"/>
<text text-anchor="middle" x="590" y="-45.5" font-family="Helvetica,sans-Serif" font-size="10.00">TMC2130Stepper::read</text>
</a>
</g>
</g>
<!-- Node3&#45;&gt;Node4 -->
<g id="edge3" class="edge"><title>Node3&#45;&gt;Node4</title>
<path fill="none" stroke="midnightblue" d="M496.177,-48C504.517,-48 513.069,-48 521.445,-48"/>
<polygon fill="midnightblue" stroke="midnightblue" points="521.55,-51.5001 531.55,-48 521.55,-44.5001 521.55,-51.5001"/>
</g>
<!-- Node5 -->
<g id="node5" class="node"><title>Node5</title>
<g id="a_node5"><a xlink:href="class_t_m_c2130_stepper.html#aed8aa4583943e649dbf3bb1c1da90d63" target="_top" xlink:title=" ">
<polygon fill="white" stroke="black" points="684,-76.5 684,-95.5 836,-95.5 836,-76.5 684,-76.5"/>
<text text-anchor="middle" x="760" y="-83.5" font-family="Helvetica,sans-Serif" font-size="10.00">TMC2130Stepper::switchCSpin</text>
</a>
</g>
</g>
<!-- Node4&#45;&gt;Node5 -->
<g id="edge4" class="edge"><title>Node4&#45;&gt;Node5</title>
<path fill="none" stroke="midnightblue" d="M633.393,-57.589C655.763,-62.6487 683.398,-68.8996 707.047,-74.2488"/>
<polygon fill="midnightblue" stroke="midnightblue" points="706.386,-77.6875 716.911,-76.4799 707.93,-70.8599 706.386,-77.6875"/>
</g>
<!-- Node6 -->
<g id="node6" class="node"><title>Node6</title>
<g id="a_node6"><a xlink:href="class_s_w___s_p_i_class.html#af260fdc0af3f1312b106483161e559c3" target="_top" xlink:title=" ">
<polygon fill="white" stroke="black" points="872,-19.5 872,-38.5 989,-38.5 989,-19.5 872,-19.5"/>
<text text-anchor="middle" x="930.5" y="-26.5" font-family="Helvetica,sans-Serif" font-size="10.00">SW_SPIClass::transfer</text>
</a>
</g>
</g>
<!-- Node4&#45;&gt;Node6 -->
<g id="edge5" class="edge"><title>Node4&#45;&gt;Node6</title>
<path fill="none" stroke="midnightblue" d="M648.039,-44.7984C707.027,-41.4874 799.113,-36.3186 861.765,-32.802"/>
<polygon fill="midnightblue" stroke="midnightblue" points="862.156,-36.2856 871.944,-32.2306 861.763,-29.2966 862.156,-36.2856"/>
</g>
<!-- Node7 -->
<g id="node7" class="node"><title>Node7</title>
<g id="a_node7"><a xlink:href="class_s_w___s_p_i_class.html#a1b7600aa1d9571c103718c5d3e376675" target="_top" xlink:title=" ">
<polygon fill="white" stroke="black" points="696,-0.5 696,-19.5 824,-19.5 824,-0.5 696,-0.5"/>
<text text-anchor="middle" x="760" y="-7.5" font-family="Helvetica,sans-Serif" font-size="10.00">SW_SPIClass::transfer16</text>
</a>
</g>
</g>
<!-- Node4&#45;&gt;Node7 -->
<g id="edge6" class="edge"><title>Node4&#45;&gt;Node7</title>
<path fill="none" stroke="midnightblue" d="M633.393,-38.411C655.763,-33.3513 683.398,-27.1004 707.047,-21.7512"/>
<polygon fill="midnightblue" stroke="midnightblue" points="707.93,-25.1401 716.911,-19.5201 706.386,-18.3125 707.93,-25.1401"/>
</g>
<!-- Node7&#45;&gt;Node6 -->
<g id="edge7" class="edge"><title>Node7&#45;&gt;Node6</title>
<path fill="none" stroke="midnightblue" d="M824.223,-17.129C836.406,-18.5028 849.217,-19.9473 861.543,-21.3372"/>
<polygon fill="midnightblue" stroke="midnightblue" points="861.43,-24.8466 871.76,-22.4892 862.215,-17.8907 861.43,-24.8466"/>
</g>
</g>
</svg>
