<?xml version="1.0" encoding="UTF-8" standalone="no"?>
<!DOCTYPE svg PUBLIC "-//W3C//DTD SVG 1.1//EN"
 "http://www.w3.org/Graphics/SVG/1.1/DTD/svg11.dtd">
<!-- Generated by graphviz version 2.38.0 (20140413.2041)
 -->
<!-- Title: TMC2660Stepper::rdsel Pages: 1 -->
<svg width="472pt" height="243pt"
 viewBox="0.00 0.00 472.00 242.50" xmlns="http://www.w3.org/2000/svg" xmlns:xlink="http://www.w3.org/1999/xlink">
<g id="graph0" class="graph" transform="scale(1 1) rotate(0) translate(4 238.5)">
<title>TMC2660Stepper::rdsel</title>
<polygon fill="white" stroke="none" points="-4,4 -4,-238.5 468,-238.5 468,4 -4,4"/>
<!-- Node1 -->
<g id="node1" class="node"><title>Node1</title>
<g id="a_node1"><a xlink:title=" ">
<polygon fill="#bfbfbf" stroke="black" points="345,-76.5 345,-95.5 464,-95.5 464,-76.5 345,-76.5"/>
<text text-anchor="middle" x="404.5" y="-83.5" font-family="Helvetica,sans-Serif" font-size="10.00">TMC2660Stepper::rdsel</text>
</a>
</g>
</g>
<!-- Node2 -->
<g id="node2" class="node"><title>Node2</title>
<g id="a_node2"><a xlink:href="class_t_m_c2660_stepper.html#a124bab76346c3c6c17f812e8c4ad7a5c" target="_top" xlink:title=" ">
<polygon fill="white" stroke="black" points="154,-157.5 154,-176.5 309,-176.5 309,-157.5 154,-157.5"/>
<text text-anchor="middle" x="231.5" y="-164.5" font-family="Helvetica,sans-Serif" font-size="10.00">TMC2660Stepper::DRVSTATUS</text>
</a>
</g>
</g>
<!-- Node1&#45;&gt;Node2 -->
<g id="edge1" class="edge"><title>Node1&#45;&gt;Node2</title>
<path fill="none" stroke="midnightblue" d="M379.01,-100.722C360.216,-111.712 333.433,-126.715 309,-138 293.269,-145.266 275.157,-152.193 260.507,-157.454"/>
<polygon fill="midnightblue" stroke="midnightblue" points="380.969,-103.63 387.802,-95.5329 377.411,-97.6017 380.969,-103.63"/>
</g>
<!-- Node4 -->
<g id="node4" class="node"><title>Node4</title>
<g id="a_node4"><a xlink:href="class_t_m_c2660_stepper.html#a51f799cf592f8d9d50d110aaedfe141a" target="_top" xlink:title=" ">
<polygon fill="white" stroke="black" points="5,-106 5,-136 113,-136 113,-106 5,-106"/>
<text text-anchor="start" x="13" y="-124" font-family="Helvetica,sans-Serif" font-size="10.00">TMC2660Stepper::sg</text>
<text text-anchor="middle" x="59" y="-113" font-family="Helvetica,sans-Serif" font-size="10.00">_result</text>
</a>
</g>
</g>
<!-- Node1&#45;&gt;Node4 -->
<g id="edge8" class="edge"><title>Node1&#45;&gt;Node4</title>
<path fill="none" stroke="midnightblue" d="M352.358,-97.5851C338.363,-100.399 323.151,-103.131 309,-105 241.79,-113.875 163.698,-117.879 113.147,-119.65"/>
<polygon fill="midnightblue" stroke="midnightblue" points="353.215,-100.982 362.301,-95.5333 351.8,-94.1266 353.215,-100.982"/>
</g>
<!-- Node6 -->
<g id="node6" class="node"><title>Node6</title>
<g id="a_node6"><a xlink:href="class_t_m_c2660_stepper.html#a9be7b8e7d95c08ff349182ff09510124" target="_top" xlink:title=" ">
<polygon fill="white" stroke="black" points="169,-76.5 169,-95.5 294,-95.5 294,-76.5 169,-76.5"/>
<text text-anchor="middle" x="231.5" y="-83.5" font-family="Helvetica,sans-Serif" font-size="10.00">TMC2660Stepper::mstep</text>
</a>
</g>
</g>
<!-- Node1&#45;&gt;Node6 -->
<g id="edge5" class="edge"><title>Node1&#45;&gt;Node6</title>
<path fill="none" stroke="midnightblue" d="M334.547,-86C321.16,-86 307.21,-86 294.078,-86"/>
<polygon fill="midnightblue" stroke="midnightblue" points="334.652,-89.5001 344.652,-86 334.651,-82.5001 334.652,-89.5001"/>
</g>
<!-- Node7 -->
<g id="node7" class="node"><title>Node7</title>
<g id="a_node7"><a xlink:href="class_t_m_c2660_stepper.html#a0f6ee76b23deb7f6d5af711d9b9e2452" target="_top" xlink:title=" ">
<polygon fill="white" stroke="black" points="172,-38.5 172,-57.5 291,-57.5 291,-38.5 172,-38.5"/>
<text text-anchor="middle" x="231.5" y="-45.5" font-family="Helvetica,sans-Serif" font-size="10.00">TMC2660Stepper::rdsel</text>
</a>
</g>
</g>
<!-- Node1&#45;&gt;Node7 -->
<g id="edge6" class="edge"><title>Node1&#45;&gt;Node7</title>
<path fill="none" stroke="midnightblue" d="M350.291,-74.1757C326.183,-68.8184 298.06,-62.5689 275.34,-57.5201"/>
<polygon fill="midnightblue" stroke="midnightblue" points="349.828,-77.6583 360.349,-76.411 351.347,-70.825 349.828,-77.6583"/>
</g>
<!-- Node8 -->
<g id="node8" class="node"><title>Node8</title>
<g id="a_node8"><a xlink:href="class_t_m_c2660_stepper.html#a9c6e8257f10b5e17c9f0fd4db36f022a" target="_top" xlink:title=" ">
<polygon fill="white" stroke="black" points="177.5,-0.5 177.5,-19.5 285.5,-19.5 285.5,-0.5 177.5,-0.5"/>
<text text-anchor="middle" x="231.5" y="-7.5" font-family="Helvetica,sans-Serif" font-size="10.00">TMC2660Stepper::se</text>
</a>
</g>
</g>
<!-- Node1&#45;&gt;Node8 -->
<g id="edge7" class="edge"><title>Node1&#45;&gt;Node8</title>
<path fill="none" stroke="midnightblue" d="M382.111,-70.537C363.574,-57.778 335.617,-40.0373 309,-29 300.025,-25.2782 290.144,-22.1594 280.55,-19.5954"/>
<polygon fill="midnightblue" stroke="midnightblue" points="380.209,-73.4778 390.407,-76.3492 384.225,-67.7448 380.209,-73.4778"/>
</g>
<!-- Node3 -->
<g id="node3" class="node"><title>Node3</title>
<g id="a_node3"><a xlink:href="class_t_m_c2660_stepper.html#a560c825469ada7c23ec66a4106360e48" target="_top" xlink:title=" ">
<polygon fill="white" stroke="black" points="0,-204 0,-234 118,-234 118,-204 0,-204"/>
<text text-anchor="start" x="8" y="-222" font-family="Helvetica,sans-Serif" font-size="10.00">TMC2660Stepper::DRV</text>
<text text-anchor="middle" x="59" y="-211" font-family="Helvetica,sans-Serif" font-size="10.00">_STATUS</text>
</a>
</g>
</g>
<!-- Node2&#45;&gt;Node3 -->
<g id="edge2" class="edge"><title>Node2&#45;&gt;Node3</title>
<path fill="none" stroke="midnightblue" d="M189.355,-179.549C165.319,-186.879 134.826,-196.179 109.484,-203.908"/>
<polygon fill="midnightblue" stroke="midnightblue" points="190.684,-182.803 199.228,-176.538 188.642,-176.107 190.684,-182.803"/>
</g>
<!-- Node2&#45;&gt;Node4 -->
<g id="edge3" class="edge"><title>Node2&#45;&gt;Node4</title>
<path fill="none" stroke="midnightblue" d="M185.338,-154.816C163.15,-148.829 136.27,-141.577 113.102,-135.327"/>
<polygon fill="midnightblue" stroke="midnightblue" points="184.606,-158.243 195.172,-157.469 186.429,-151.485 184.606,-158.243"/>
</g>
<!-- Node5 -->
<g id="node5" class="node"><title>Node5</title>
<g id="a_node5"><a xlink:href="class_t_m_c2660_stepper.html#a72a9a2ecf2d0707dba76de414cec209e" target="_top" xlink:title=" ">
<polygon fill="white" stroke="black" points="2,-155 2,-185 116,-185 116,-155 2,-155"/>
<text text-anchor="start" x="10" y="-173" font-family="Helvetica,sans-Serif" font-size="10.00">TMC2660Stepper::test</text>
<text text-anchor="middle" x="59" y="-162" font-family="Helvetica,sans-Serif" font-size="10.00">_connection</text>
</a>
</g>
</g>
<!-- Node2&#45;&gt;Node5 -->
<g id="edge4" class="edge"><title>Node2&#45;&gt;Node5</title>
<path fill="none" stroke="midnightblue" d="M143.625,-168.529C134.303,-168.693 125.007,-168.856 116.183,-169.011"/>
<polygon fill="midnightblue" stroke="midnightblue" points="143.792,-172.026 153.729,-168.351 143.669,-165.027 143.792,-172.026"/>
</g>
</g>
</svg>
