<?xml version="1.0" encoding="UTF-8" standalone="no"?>
<!DOCTYPE svg PUBLIC "-//W3C//DTD SVG 1.1//EN"
 "http://www.w3.org/Graphics/SVG/1.1/DTD/svg11.dtd">
<!-- Generated by graphviz version 2.38.0 (20140413.2041)
 -->
<!-- Title: TMC2224Stepper::version Pages: 1 -->
<svg width="975pt" height="156pt"
 viewBox="0.00 0.00 975.00 156.41" xmlns="http://www.w3.org/2000/svg" xmlns:xlink="http://www.w3.org/1999/xlink">
<g id="graph0" class="graph" transform="scale(1 1) rotate(0) translate(4 152.405)">
<title>TMC2224Stepper::version</title>
<polygon fill="white" stroke="none" points="-4,4 -4,-152.405 971,-152.405 971,4 -4,4"/>
<!-- Node1 -->
<g id="node1" class="node"><title>Node1</title>
<g id="a_node1"><a xlink:title=" ">
<polygon fill="#bfbfbf" stroke="black" points="0,-46.9052 0,-65.9052 128,-65.9052 128,-46.9052 0,-46.9052"/>
<text text-anchor="middle" x="64" y="-53.9052" font-family="Helvetica,sans-Serif" font-size="10.00">TMC2224Stepper::version</text>
</a>
</g>
</g>
<!-- Node2 -->
<g id="node2" class="node"><title>Node2</title>
<g id="a_node2"><a xlink:href="class_t_m_c2224_stepper.html#aa5fa836e15992bc49e0297ef2126f725" target="_top" xlink:title=" ">
<polygon fill="white" stroke="black" points="164,-46.9052 164,-65.9052 280,-65.9052 280,-46.9052 164,-46.9052"/>
<text text-anchor="middle" x="222" y="-53.9052" font-family="Helvetica,sans-Serif" font-size="10.00">TMC2224Stepper::IOIN</text>
</a>
</g>
</g>
<!-- Node1&#45;&gt;Node2 -->
<g id="edge1" class="edge"><title>Node1&#45;&gt;Node2</title>
<path fill="none" stroke="midnightblue" d="M128.002,-56.4052C136.418,-56.4052 145.077,-56.4052 153.565,-56.4052"/>
<polygon fill="midnightblue" stroke="midnightblue" points="153.808,-59.9053 163.808,-56.4052 153.808,-52.9053 153.808,-59.9053"/>
</g>
<!-- Node3 -->
<g id="node3" class="node"><title>Node3</title>
<g id="a_node3"><a xlink:href="class_t_m_c2208_stepper.html#a2fae2050849c3ab7968012def8ea1cc5" target="_top" xlink:title=" ">
<polygon fill="white" stroke="black" points="316,-46.9052 316,-65.9052 432,-65.9052 432,-46.9052 316,-46.9052"/>
<text text-anchor="middle" x="374" y="-53.9052" font-family="Helvetica,sans-Serif" font-size="10.00">TMC2208Stepper::read</text>
</a>
</g>
</g>
<!-- Node2&#45;&gt;Node3 -->
<g id="edge2" class="edge"><title>Node2&#45;&gt;Node3</title>
<path fill="none" stroke="midnightblue" d="M280.136,-56.4052C288.377,-56.4052 296.923,-56.4052 305.344,-56.4052"/>
<polygon fill="midnightblue" stroke="midnightblue" points="305.526,-59.9053 315.525,-56.4052 305.525,-52.9053 305.526,-59.9053"/>
</g>
<!-- Node4 -->
<g id="node4" class="node"><title>Node4</title>
<g id="a_node4"><a xlink:href="class_t_m_c2208_stepper.html#a3e1f6a10aa1e3e41dc2594dbe1ea8a1d" target="_top" xlink:title=" ">
<polygon fill="white" stroke="black" points="468,-103.905 468,-122.905 634,-122.905 634,-103.905 468,-103.905"/>
<text text-anchor="middle" x="551" y="-110.905" font-family="Helvetica,sans-Serif" font-size="10.00">TMC2208Stepper::_sendDatagram</text>
</a>
</g>
</g>
<!-- Node3&#45;&gt;Node4 -->
<g id="edge3" class="edge"><title>Node3&#45;&gt;Node4</title>
<path fill="none" stroke="midnightblue" d="M395.7,-65.9833C414.317,-74.3262 442.568,-86.3205 468,-94.4052 476.008,-96.9508 484.555,-99.3114 492.996,-101.442"/>
<polygon fill="midnightblue" stroke="midnightblue" points="492.272,-104.868 502.816,-103.834 493.929,-98.0666 492.272,-104.868"/>
</g>
<!-- Node9 -->
<g id="node9" class="node"><title>Node9</title>
<g id="a_node9"><a xlink:href="class_s_switch.html#a6ff09d0850d551571dc333fb74ff8628" target="_top" xlink:title=" ">
<polygon fill="white" stroke="black" points="509.5,-65.9052 509.5,-84.9052 592.5,-84.9052 592.5,-65.9052 509.5,-65.9052"/>
<text text-anchor="middle" x="551" y="-72.9052" font-family="Helvetica,sans-Serif" font-size="10.00">SSwitch::active</text>
</a>
</g>
</g>
<!-- Node3&#45;&gt;Node9 -->
<g id="edge9" class="edge"><title>Node3&#45;&gt;Node9</title>
<path fill="none" stroke="midnightblue" d="M432.302,-62.6265C453.975,-64.9796 478.465,-67.6385 499.472,-69.9193"/>
<polygon fill="midnightblue" stroke="midnightblue" points="499.158,-73.4056 509.477,-71.0055 499.913,-66.4465 499.158,-73.4056"/>
</g>
<!-- Node10 -->
<g id="node10" class="node"><title>Node10</title>
<g id="a_node10"><a xlink:href="class_t_m_c2208_stepper.html#a409c19fa6b052a370a317d061bf9af4e" target="_top" xlink:title=" ">
<polygon fill="white" stroke="black" points="483,-27.9052 483,-46.9052 619,-46.9052 619,-27.9052 483,-27.9052"/>
<text text-anchor="middle" x="551" y="-34.9052" font-family="Helvetica,sans-Serif" font-size="10.00">TMC2208Stepper::calcCRC</text>
</a>
</g>
</g>
<!-- Node3&#45;&gt;Node10 -->
<g id="edge10" class="edge"><title>Node3&#45;&gt;Node10</title>
<path fill="none" stroke="midnightblue" d="M432.302,-50.1839C445.17,-48.7867 459.032,-47.2817 472.567,-45.8121"/>
<polygon fill="midnightblue" stroke="midnightblue" points="473.269,-49.2566 482.833,-44.6976 472.514,-42.2975 473.269,-49.2566"/>
</g>
<!-- Node5 -->
<g id="node5" class="node"><title>Node5</title>
<g id="a_node5"><a xlink:href="class_t_m_c2208_stepper.html#a4ec5d2b2f5a31259c7aba1f3208d63b8" target="_top" xlink:title=" ">
<polygon fill="white" stroke="black" points="684.5,-128.905 684.5,-147.905 800.5,-147.905 800.5,-128.905 684.5,-128.905"/>
<text text-anchor="middle" x="742.5" y="-135.905" font-family="Helvetica,sans-Serif" font-size="10.00">TMC2208Stepper::ms2</text>
</a>
</g>
</g>
<!-- Node4&#45;&gt;Node5 -->
<g id="edge4" class="edge"><title>Node4&#45;&gt;Node5</title>
<path fill="none" stroke="midnightblue" d="M624.182,-122.928C640.64,-125.099 658.062,-127.397 674.301,-129.54"/>
<polygon fill="midnightblue" stroke="midnightblue" points="673.868,-133.013 684.24,-130.851 674.784,-126.073 673.868,-133.013"/>
</g>
<!-- Node7 -->
<g id="node7" class="node"><title>Node7</title>
<g id="a_node7"><a xlink:href="class_t_m_c2208_stepper.html#ae561da4ec7c40830e97bf4dc8cf700fb" target="_top" xlink:title=" ">
<polygon fill="white" stroke="black" points="670,-90.9052 670,-109.905 815,-109.905 815,-90.9052 670,-90.9052"/>
<text text-anchor="middle" x="742.5" y="-97.9052" font-family="Helvetica,sans-Serif" font-size="10.00">TMC2208Stepper::serial_read</text>
</a>
</g>
</g>
<!-- Node4&#45;&gt;Node7 -->
<g id="edge7" class="edge"><title>Node4&#45;&gt;Node7</title>
<path fill="none" stroke="midnightblue" d="M634.015,-107.779C642.478,-107.198 651.078,-106.608 659.54,-106.028"/>
<polygon fill="midnightblue" stroke="midnightblue" points="660.038,-109.502 669.775,-105.326 659.559,-102.518 660.038,-109.502"/>
</g>
<!-- Node8 -->
<g id="node8" class="node"><title>Node8</title>
<g id="a_node8"><a xlink:href="class_t_m_c2208_stepper.html#a7dd83313385079099b0622957786a979" target="_top" xlink:title=" ">
<polygon fill="white" stroke="black" points="682,-41.4052 682,-71.4052 803,-71.4052 803,-41.4052 682,-41.4052"/>
<text text-anchor="start" x="690" y="-59.4052" font-family="Helvetica,sans-Serif" font-size="10.00">TMC2208Stepper::serial</text>
<text text-anchor="middle" x="742.5" y="-48.4052" font-family="Helvetica,sans-Serif" font-size="10.00">_write</text>
</a>
</g>
</g>
<!-- Node4&#45;&gt;Node8 -->
<g id="edge8" class="edge"><title>Node4&#45;&gt;Node8</title>
<path fill="none" stroke="midnightblue" d="M597.793,-103.808C609.658,-101.045 622.367,-97.8399 634,-94.4052 650.315,-89.5878 653.971,-87.1015 670,-81.4052 676.017,-79.2668 682.325,-77.0401 688.595,-74.8355"/>
<polygon fill="midnightblue" stroke="midnightblue" points="690.095,-78.0185 698.372,-71.4052 687.778,-71.4133 690.095,-78.0185"/>
</g>
<!-- Node6 -->
<g id="node6" class="node"><title>Node6</title>
<g id="a_node6"><a xlink:href="class_t_m_c2208_stepper.html#a5441dd87d0bcea4ffc309cb012166a57" target="_top" xlink:title=" ">
<polygon fill="white" stroke="black" points="851,-58.9052 851,-77.9052 967,-77.9052 967,-58.9052 851,-58.9052"/>
<text text-anchor="middle" x="909" y="-65.9052" font-family="Helvetica,sans-Serif" font-size="10.00">TMC2208Stepper::IOIN</text>
</a>
</g>
</g>
<!-- Node5&#45;&gt;Node6 -->
<g id="edge5" class="edge"><title>Node5&#45;&gt;Node6</title>
<path fill="none" stroke="midnightblue" d="M786.395,-128.814C795.954,-126.18 805.937,-123.032 815,-119.405 839.717,-109.514 866.177,-94.529 884.529,-83.3584"/>
<polygon fill="midnightblue" stroke="midnightblue" points="886.423,-86.3019 893.088,-78.0661 882.742,-80.348 886.423,-86.3019"/>
</g>
<!-- Node6&#45;&gt;Node3 -->
<g id="edge6" class="edge"><title>Node6&#45;&gt;Node3</title>
<path fill="none" stroke="midnightblue" d="M888.963,-58.8176C870.546,-50.0326 841.593,-37.4965 815,-31.4052 664.566,3.05335 619.437,11.3399 468,-18.4052 444.751,-22.9717 419.989,-33.3919 401.866,-42.1675"/>
<polygon fill="midnightblue" stroke="midnightblue" points="399.917,-39.2285 392.532,-46.826 403.043,-45.4917 399.917,-39.2285"/>
</g>
</g>
</svg>
