<?xml version="1.0" encoding="UTF-8" standalone="no"?>
<!DOCTYPE svg PUBLIC "-//W3C//DTD SVG 1.1//EN"
 "http://www.w3.org/Graphics/SVG/1.1/DTD/svg11.dtd">
<!-- Generated by graphviz version 2.38.0 (20140413.2041)
 -->
<!-- Title: TMC2660Stepper::sdoff Pages: 1 -->
<svg width="459pt" height="370pt"
 viewBox="0.00 0.00 459.00 370.00" xmlns="http://www.w3.org/2000/svg" xmlns:xlink="http://www.w3.org/1999/xlink">
<g id="graph0" class="graph" transform="scale(1 1) rotate(0) translate(4 366)">
<title>TMC2660Stepper::sdoff</title>
<polygon fill="white" stroke="none" points="-4,4 -4,-366 455,-366 455,4 -4,4"/>
<!-- Node1 -->
<g id="node1" class="node"><title>Node1</title>
<g id="a_node1"><a xlink:title=" ">
<polygon fill="#bfbfbf" stroke="black" points="333,-171.5 333,-190.5 451,-190.5 451,-171.5 333,-171.5"/>
<text text-anchor="middle" x="392" y="-178.5" font-family="Helvetica,sans-Serif" font-size="10.00">TMC2660Stepper::sdoff</text>
</a>
</g>
</g>
<!-- Node2 -->
<g id="node2" class="node"><title>Node2</title>
<g id="a_node2"><a xlink:href="class_t_m_c2660_stepper.html#a1a86dcdb6d9427c26ebe61f521f9b77b" target="_top" xlink:title=" ">
<polygon fill="white" stroke="black" points="172,-342.5 172,-361.5 280,-361.5 280,-342.5 172,-342.5"/>
<text text-anchor="middle" x="226" y="-349.5" font-family="Helvetica,sans-Serif" font-size="10.00">TMC2660Stepper::ca</text>
</a>
</g>
</g>
<!-- Node1&#45;&gt;Node2 -->
<g id="edge1" class="edge"><title>Node1&#45;&gt;Node2</title>
<path fill="none" stroke="midnightblue" d="M384.479,-200.21C372.463,-232.653 343.696,-298.16 297,-333 291.752,-336.916 285.747,-340.025 279.511,-342.493"/>
<polygon fill="midnightblue" stroke="midnightblue" points="387.855,-201.162 387.914,-190.568 381.261,-198.814 387.855,-201.162"/>
</g>
<!-- Node3 -->
<g id="node3" class="node"><title>Node3</title>
<g id="a_node3"><a xlink:href="class_t_m_c2660_stepper.html#a92d48c320fd7644e605aa660aa6f1b7d" target="_top" xlink:title=" ">
<polygon fill="white" stroke="black" points="172,-304.5 172,-323.5 280,-323.5 280,-304.5 172,-304.5"/>
<text text-anchor="middle" x="226" y="-311.5" font-family="Helvetica,sans-Serif" font-size="10.00">TMC2660Stepper::cb</text>
</a>
</g>
</g>
<!-- Node1&#45;&gt;Node3 -->
<g id="edge2" class="edge"><title>Node1&#45;&gt;Node3</title>
<path fill="none" stroke="midnightblue" d="M380.682,-199.642C365.633,-225.08 335.245,-270.316 297,-295 290.969,-298.892 284.154,-301.993 277.202,-304.462"/>
<polygon fill="midnightblue" stroke="midnightblue" points="383.9,-201.068 385.847,-190.653 377.83,-197.58 383.9,-201.068"/>
</g>
<!-- Node4 -->
<g id="node4" class="node"><title>Node4</title>
<g id="a_node4"><a xlink:href="class_t_m_c2660_stepper.html#a996a24f7f183a9589d01a5ebde701b03" target="_top" xlink:title=" ">
<polygon fill="white" stroke="black" points="164,-266.5 164,-285.5 288,-285.5 288,-266.5 164,-266.5"/>
<text text-anchor="middle" x="226" y="-273.5" font-family="Helvetica,sans-Serif" font-size="10.00">TMC2660Stepper::dedge</text>
</a>
</g>
</g>
<!-- Node1&#45;&gt;Node4 -->
<g id="edge3" class="edge"><title>Node1&#45;&gt;Node4</title>
<path fill="none" stroke="midnightblue" d="M374.585,-197.905C356.934,-215.15 327.304,-241.512 297,-257 289.599,-260.782 281.362,-263.877 273.211,-266.388"/>
<polygon fill="midnightblue" stroke="midnightblue" points="377.204,-200.236 381.811,-190.695 372.26,-195.281 377.204,-200.236"/>
</g>
<!-- Node5 -->
<g id="node5" class="node"><title>Node5</title>
<g id="a_node5"><a xlink:href="class_t_m_c2660_stepper.html#a45ae40bd2b9b997b9cfedb13403e2387" target="_top" xlink:title=" ">
<polygon fill="white" stroke="black" points="155,-228.5 155,-247.5 297,-247.5 297,-228.5 155,-228.5"/>
<text text-anchor="middle" x="226" y="-235.5" font-family="Helvetica,sans-Serif" font-size="10.00">TMC2660Stepper::DRVCTRL</text>
</a>
</g>
</g>
<!-- Node1&#45;&gt;Node5 -->
<g id="edge4" class="edge"><title>Node1&#45;&gt;Node5</title>
<path fill="none" stroke="midnightblue" d="M354.128,-194.014C336.799,-200.113 315.85,-207.46 297,-214 283.163,-218.801 267.769,-224.085 254.948,-228.47"/>
<polygon fill="midnightblue" stroke="midnightblue" points="355.6,-197.207 363.87,-190.584 353.275,-190.604 355.6,-197.207"/>
</g>
<!-- Node6 -->
<g id="node6" class="node"><title>Node6</title>
<g id="a_node6"><a xlink:href="class_t_m_c2660_stepper.html#a7b71f3e77039b9ec330b6123574f4fdc" target="_top" xlink:title=" ">
<polygon fill="white" stroke="black" points="0,-209.5 0,-228.5 119,-228.5 119,-209.5 0,-209.5"/>
<text text-anchor="middle" x="59.5" y="-216.5" font-family="Helvetica,sans-Serif" font-size="10.00">TMC2660Stepper::push</text>
</a>
</g>
</g>
<!-- Node1&#45;&gt;Node6 -->
<g id="edge10" class="edge"><title>Node1&#45;&gt;Node6</title>
<path fill="none" stroke="midnightblue" d="M322.522,-188.873C262.441,-195.781 176.008,-205.719 119.076,-212.265"/>
<polygon fill="midnightblue" stroke="midnightblue" points="323.139,-192.326 332.674,-187.706 322.34,-185.371 323.139,-192.326"/>
</g>
<!-- Node7 -->
<g id="node7" class="node"><title>Node7</title>
<g id="a_node7"><a xlink:href="class_t_m_c2660_stepper.html#a01d9df97977bb8c12e3f562782adbe90" target="_top" xlink:title=" ">
<polygon fill="white" stroke="black" points="165.5,-152.5 165.5,-171.5 286.5,-171.5 286.5,-152.5 165.5,-152.5"/>
<text text-anchor="middle" x="226" y="-159.5" font-family="Helvetica,sans-Serif" font-size="10.00">TMC2660Stepper::intpol</text>
</a>
</g>
</g>
<!-- Node1&#45;&gt;Node7 -->
<g id="edge6" class="edge"><title>Node1&#45;&gt;Node7</title>
<path fill="none" stroke="midnightblue" d="M322.43,-173.056C310.581,-171.683 298.347,-170.266 286.755,-168.923"/>
<polygon fill="midnightblue" stroke="midnightblue" points="322.382,-176.574 332.718,-174.248 323.187,-169.62 322.382,-176.574"/>
</g>
<!-- Node8 -->
<g id="node8" class="node"><title>Node8</title>
<g id="a_node8"><a xlink:href="class_t_m_c2660_stepper.html#a5d9b27273ae12ef452caf6552d5c6d7c" target="_top" xlink:title=" ">
<polygon fill="white" stroke="black" points="166.5,-114.5 166.5,-133.5 285.5,-133.5 285.5,-114.5 166.5,-114.5"/>
<text text-anchor="middle" x="226" y="-121.5" font-family="Helvetica,sans-Serif" font-size="10.00">TMC2660Stepper::mres</text>
</a>
</g>
</g>
<!-- Node1&#45;&gt;Node8 -->
<g id="edge7" class="edge"><title>Node1&#45;&gt;Node8</title>
<path fill="none" stroke="midnightblue" d="M359.763,-167.282C341.637,-159.598 318.255,-150.153 297,-143 286.855,-139.586 275.73,-136.345 265.394,-133.538"/>
<polygon fill="midnightblue" stroke="midnightblue" points="358.675,-170.624 369.245,-171.344 361.432,-164.189 358.675,-170.624"/>
</g>
<!-- Node9 -->
<g id="node9" class="node"><title>Node9</title>
<g id="a_node9"><a xlink:href="class_t_m_c2660_stepper.html#a34056dfd3ea3f75882fbbc854842e152" target="_top" xlink:title=" ">
<polygon fill="white" stroke="black" points="169.5,-76.5 169.5,-95.5 282.5,-95.5 282.5,-76.5 169.5,-76.5"/>
<text text-anchor="middle" x="226" y="-83.5" font-family="Helvetica,sans-Serif" font-size="10.00">TMC2660Stepper::pha</text>
</a>
</g>
</g>
<!-- Node1&#45;&gt;Node9 -->
<g id="edge8" class="edge"><title>Node1&#45;&gt;Node9</title>
<path fill="none" stroke="midnightblue" d="M374.585,-164.095C356.934,-146.85 327.304,-120.488 297,-105 289.599,-101.218 281.362,-98.1228 273.211,-95.6122"/>
<polygon fill="midnightblue" stroke="midnightblue" points="372.26,-166.719 381.811,-171.305 377.204,-161.764 372.26,-166.719"/>
</g>
<!-- Node10 -->
<g id="node10" class="node"><title>Node10</title>
<g id="a_node10"><a xlink:href="class_t_m_c2660_stepper.html#a92ae81a43023855f5d4ded8f372b2710" target="_top" xlink:title=" ">
<polygon fill="white" stroke="black" points="169.5,-38.5 169.5,-57.5 282.5,-57.5 282.5,-38.5 169.5,-38.5"/>
<text text-anchor="middle" x="226" y="-45.5" font-family="Helvetica,sans-Serif" font-size="10.00">TMC2660Stepper::phb</text>
</a>
</g>
</g>
<!-- Node1&#45;&gt;Node10 -->
<g id="edge9" class="edge"><title>Node1&#45;&gt;Node10</title>
<path fill="none" stroke="midnightblue" d="M380.682,-162.358C365.633,-136.92 335.245,-91.6839 297,-67 290.969,-63.1077 284.154,-60.0067 277.202,-57.5376"/>
<polygon fill="midnightblue" stroke="midnightblue" points="377.83,-164.42 385.847,-171.347 383.9,-160.932 377.83,-164.42"/>
</g>
<!-- Node11 -->
<g id="node11" class="node"><title>Node11</title>
<g id="a_node11"><a xlink:href="class_t_m_c2660_stepper.html#af6b9772d151924e000c051ecff34d313" target="_top" xlink:title=" ">
<polygon fill="white" stroke="black" points="167,-0.5 167,-19.5 285,-19.5 285,-0.5 167,-0.5"/>
<text text-anchor="middle" x="226" y="-7.5" font-family="Helvetica,sans-Serif" font-size="10.00">TMC2660Stepper::sdoff</text>
</a>
</g>
</g>
<!-- Node1&#45;&gt;Node11 -->
<g id="edge11" class="edge"><title>Node1&#45;&gt;Node11</title>
<path fill="none" stroke="midnightblue" d="M384.479,-161.79C372.463,-129.347 343.696,-63.8397 297,-29 291.752,-25.0843 285.747,-21.9754 279.511,-19.5071"/>
<polygon fill="midnightblue" stroke="midnightblue" points="381.261,-163.186 387.914,-171.432 387.855,-160.838 381.261,-163.186"/>
</g>
<!-- Node5&#45;&gt;Node6 -->
<g id="edge5" class="edge"><title>Node5&#45;&gt;Node6</title>
<path fill="none" stroke="midnightblue" d="M144.681,-228.723C136.065,-227.728 127.421,-226.729 119.126,-225.771"/>
<polygon fill="midnightblue" stroke="midnightblue" points="144.424,-232.217 154.76,-229.887 145.228,-225.263 144.424,-232.217"/>
</g>
</g>
</svg>
