<?xml version="1.0" encoding="UTF-8" standalone="no"?>
<!DOCTYPE svg PUBLIC "-//W3C//DTD SVG 1.1//EN"
 "http://www.w3.org/Graphics/SVG/1.1/DTD/svg11.dtd">
<!-- Generated by graphviz version 2.38.0 (20140413.2041)
 -->
<!-- Title: TMC2208Stepper::pwm_grad_auto Pages: 1 -->
<svg width="1003pt" height="156pt"
 viewBox="0.00 0.00 1003.00 156.41" xmlns="http://www.w3.org/2000/svg" xmlns:xlink="http://www.w3.org/1999/xlink">
<g id="graph0" class="graph" transform="scale(1 1) rotate(0) translate(4 152.405)">
<title>TMC2208Stepper::pwm_grad_auto</title>
<polygon fill="white" stroke="none" points="-4,4 -4,-152.405 999,-152.405 999,4 -4,4"/>
<!-- Node1 -->
<g id="node1" class="node"><title>Node1</title>
<g id="a_node1"><a xlink:title=" ">
<polygon fill="#bfbfbf" stroke="black" points="0,-41.4052 0,-71.4052 118,-71.4052 118,-41.4052 0,-41.4052"/>
<text text-anchor="start" x="8" y="-59.4052" font-family="Helvetica,sans-Serif" font-size="10.00">TMC2208Stepper::pwm</text>
<text text-anchor="middle" x="59" y="-48.4052" font-family="Helvetica,sans-Serif" font-size="10.00">_grad_auto</text>
</a>
</g>
</g>
<!-- Node2 -->
<g id="node2" class="node"><title>Node2</title>
<g id="a_node2"><a xlink:href="class_t_m_c2208_stepper.html#a3cad83843fc7cc00cbbff7d620690501" target="_top" xlink:title=" ">
<polygon fill="white" stroke="black" points="154,-46.9052 154,-65.9052 308,-65.9052 308,-46.9052 154,-46.9052"/>
<text text-anchor="middle" x="231" y="-53.9052" font-family="Helvetica,sans-Serif" font-size="10.00">TMC2208Stepper::PWM_AUTO</text>
</a>
</g>
</g>
<!-- Node1&#45;&gt;Node2 -->
<g id="edge1" class="edge"><title>Node1&#45;&gt;Node2</title>
<path fill="none" stroke="midnightblue" d="M118.029,-56.4052C126.325,-56.4052 135.004,-56.4052 143.7,-56.4052"/>
<polygon fill="midnightblue" stroke="midnightblue" points="143.896,-59.9053 153.896,-56.4052 143.896,-52.9053 143.896,-59.9053"/>
</g>
<!-- Node3 -->
<g id="node3" class="node"><title>Node3</title>
<g id="a_node3"><a xlink:href="class_t_m_c2208_stepper.html#a2fae2050849c3ab7968012def8ea1cc5" target="_top" xlink:title=" ">
<polygon fill="white" stroke="black" points="344,-46.9052 344,-65.9052 460,-65.9052 460,-46.9052 344,-46.9052"/>
<text text-anchor="middle" x="402" y="-53.9052" font-family="Helvetica,sans-Serif" font-size="10.00">TMC2208Stepper::read</text>
</a>
</g>
</g>
<!-- Node2&#45;&gt;Node3 -->
<g id="edge2" class="edge"><title>Node2&#45;&gt;Node3</title>
<path fill="none" stroke="midnightblue" d="M308.095,-56.4052C316.629,-56.4052 325.277,-56.4052 333.689,-56.4052"/>
<polygon fill="midnightblue" stroke="midnightblue" points="333.807,-59.9053 343.807,-56.4052 333.807,-52.9053 333.807,-59.9053"/>
</g>
<!-- Node4 -->
<g id="node4" class="node"><title>Node4</title>
<g id="a_node4"><a xlink:href="class_t_m_c2208_stepper.html#a3e1f6a10aa1e3e41dc2594dbe1ea8a1d" target="_top" xlink:title=" ">
<polygon fill="white" stroke="black" points="496,-103.905 496,-122.905 662,-122.905 662,-103.905 496,-103.905"/>
<text text-anchor="middle" x="579" y="-110.905" font-family="Helvetica,sans-Serif" font-size="10.00">TMC2208Stepper::_sendDatagram</text>
</a>
</g>
</g>
<!-- Node3&#45;&gt;Node4 -->
<g id="edge3" class="edge"><title>Node3&#45;&gt;Node4</title>
<path fill="none" stroke="midnightblue" d="M423.7,-65.9833C442.317,-74.3262 470.568,-86.3205 496,-94.4052 504.008,-96.9508 512.555,-99.3114 520.996,-101.442"/>
<polygon fill="midnightblue" stroke="midnightblue" points="520.272,-104.868 530.816,-103.834 521.929,-98.0666 520.272,-104.868"/>
</g>
<!-- Node9 -->
<g id="node9" class="node"><title>Node9</title>
<g id="a_node9"><a xlink:href="class_s_switch.html#a6ff09d0850d551571dc333fb74ff8628" target="_top" xlink:title=" ">
<polygon fill="white" stroke="black" points="537.5,-65.9052 537.5,-84.9052 620.5,-84.9052 620.5,-65.9052 537.5,-65.9052"/>
<text text-anchor="middle" x="579" y="-72.9052" font-family="Helvetica,sans-Serif" font-size="10.00">SSwitch::active</text>
</a>
</g>
</g>
<!-- Node3&#45;&gt;Node9 -->
<g id="edge9" class="edge"><title>Node3&#45;&gt;Node9</title>
<path fill="none" stroke="midnightblue" d="M460.302,-62.6265C481.975,-64.9796 506.465,-67.6385 527.472,-69.9193"/>
<polygon fill="midnightblue" stroke="midnightblue" points="527.158,-73.4056 537.477,-71.0055 527.913,-66.4465 527.158,-73.4056"/>
</g>
<!-- Node10 -->
<g id="node10" class="node"><title>Node10</title>
<g id="a_node10"><a xlink:href="class_t_m_c2208_stepper.html#a409c19fa6b052a370a317d061bf9af4e" target="_top" xlink:title=" ">
<polygon fill="white" stroke="black" points="511,-27.9052 511,-46.9052 647,-46.9052 647,-27.9052 511,-27.9052"/>
<text text-anchor="middle" x="579" y="-34.9052" font-family="Helvetica,sans-Serif" font-size="10.00">TMC2208Stepper::calcCRC</text>
</a>
</g>
</g>
<!-- Node3&#45;&gt;Node10 -->
<g id="edge10" class="edge"><title>Node3&#45;&gt;Node10</title>
<path fill="none" stroke="midnightblue" d="M460.302,-50.1839C473.17,-48.7867 487.032,-47.2817 500.567,-45.8121"/>
<polygon fill="midnightblue" stroke="midnightblue" points="501.269,-49.2566 510.833,-44.6976 500.514,-42.2975 501.269,-49.2566"/>
</g>
<!-- Node5 -->
<g id="node5" class="node"><title>Node5</title>
<g id="a_node5"><a xlink:href="class_t_m_c2208_stepper.html#a4ec5d2b2f5a31259c7aba1f3208d63b8" target="_top" xlink:title=" ">
<polygon fill="white" stroke="black" points="712.5,-128.905 712.5,-147.905 828.5,-147.905 828.5,-128.905 712.5,-128.905"/>
<text text-anchor="middle" x="770.5" y="-135.905" font-family="Helvetica,sans-Serif" font-size="10.00">TMC2208Stepper::ms2</text>
</a>
</g>
</g>
<!-- Node4&#45;&gt;Node5 -->
<g id="edge4" class="edge"><title>Node4&#45;&gt;Node5</title>
<path fill="none" stroke="midnightblue" d="M652.182,-122.928C668.64,-125.099 686.062,-127.397 702.301,-129.54"/>
<polygon fill="midnightblue" stroke="midnightblue" points="701.868,-133.013 712.24,-130.851 702.784,-126.073 701.868,-133.013"/>
</g>
<!-- Node7 -->
<g id="node7" class="node"><title>Node7</title>
<g id="a_node7"><a xlink:href="class_t_m_c2208_stepper.html#ae561da4ec7c40830e97bf4dc8cf700fb" target="_top" xlink:title=" ">
<polygon fill="white" stroke="black" points="698,-90.9052 698,-109.905 843,-109.905 843,-90.9052 698,-90.9052"/>
<text text-anchor="middle" x="770.5" y="-97.9052" font-family="Helvetica,sans-Serif" font-size="10.00">TMC2208Stepper::serial_read</text>
</a>
</g>
</g>
<!-- Node4&#45;&gt;Node7 -->
<g id="edge7" class="edge"><title>Node4&#45;&gt;Node7</title>
<path fill="none" stroke="midnightblue" d="M662.015,-107.779C670.478,-107.198 679.078,-106.608 687.54,-106.028"/>
<polygon fill="midnightblue" stroke="midnightblue" points="688.038,-109.502 697.775,-105.326 687.559,-102.518 688.038,-109.502"/>
</g>
<!-- Node8 -->
<g id="node8" class="node"><title>Node8</title>
<g id="a_node8"><a xlink:href="class_t_m_c2208_stepper.html#a7dd83313385079099b0622957786a979" target="_top" xlink:title=" ">
<polygon fill="white" stroke="black" points="710,-41.4052 710,-71.4052 831,-71.4052 831,-41.4052 710,-41.4052"/>
<text text-anchor="start" x="718" y="-59.4052" font-family="Helvetica,sans-Serif" font-size="10.00">TMC2208Stepper::serial</text>
<text text-anchor="middle" x="770.5" y="-48.4052" font-family="Helvetica,sans-Serif" font-size="10.00">_write</text>
</a>
</g>
</g>
<!-- Node4&#45;&gt;Node8 -->
<g id="edge8" class="edge"><title>Node4&#45;&gt;Node8</title>
<path fill="none" stroke="midnightblue" d="M625.793,-103.808C637.658,-101.045 650.367,-97.8399 662,-94.4052 678.315,-89.5878 681.971,-87.1015 698,-81.4052 704.017,-79.2668 710.325,-77.0401 716.595,-74.8355"/>
<polygon fill="midnightblue" stroke="midnightblue" points="718.095,-78.0185 726.372,-71.4052 715.778,-71.4133 718.095,-78.0185"/>
</g>
<!-- Node6 -->
<g id="node6" class="node"><title>Node6</title>
<g id="a_node6"><a xlink:href="class_t_m_c2208_stepper.html#a5441dd87d0bcea4ffc309cb012166a57" target="_top" xlink:title=" ">
<polygon fill="white" stroke="black" points="879,-58.9052 879,-77.9052 995,-77.9052 995,-58.9052 879,-58.9052"/>
<text text-anchor="middle" x="937" y="-65.9052" font-family="Helvetica,sans-Serif" font-size="10.00">TMC2208Stepper::IOIN</text>
</a>
</g>
</g>
<!-- Node5&#45;&gt;Node6 -->
<g id="edge5" class="edge"><title>Node5&#45;&gt;Node6</title>
<path fill="none" stroke="midnightblue" d="M814.395,-128.814C823.954,-126.18 833.937,-123.032 843,-119.405 867.717,-109.514 894.177,-94.529 912.529,-83.3584"/>
<polygon fill="midnightblue" stroke="midnightblue" points="914.423,-86.3019 921.088,-78.0661 910.742,-80.348 914.423,-86.3019"/>
</g>
<!-- Node6&#45;&gt;Node3 -->
<g id="edge6" class="edge"><title>Node6&#45;&gt;Node3</title>
<path fill="none" stroke="midnightblue" d="M916.963,-58.8176C898.546,-50.0326 869.593,-37.4965 843,-31.4052 692.566,3.05335 647.437,11.3399 496,-18.4052 472.751,-22.9717 447.989,-33.3919 429.866,-42.1675"/>
<polygon fill="midnightblue" stroke="midnightblue" points="427.917,-39.2285 420.532,-46.826 431.043,-45.4917 427.917,-39.2285"/>
</g>
</g>
</svg>
