<?xml version="1.0" encoding="UTF-8" standalone="no"?>
<!DOCTYPE svg PUBLIC "-//W3C//DTD SVG 1.1//EN"
 "http://www.w3.org/Graphics/SVG/1.1/DTD/svg11.dtd">
<!-- Generated by graphviz version 2.38.0 (20140413.2041)
 -->
<!-- Title: TMC2208Stepper::dedge Pages: 1 -->
<svg width="1007pt" height="156pt"
 viewBox="0.00 0.00 1007.00 156.41" xmlns="http://www.w3.org/2000/svg" xmlns:xlink="http://www.w3.org/1999/xlink">
<g id="graph0" class="graph" transform="scale(1 1) rotate(0) translate(4 152.405)">
<title>TMC2208Stepper::dedge</title>
<polygon fill="white" stroke="none" points="-4,4 -4,-152.405 1003,-152.405 1003,4 -4,4"/>
<!-- Node1 -->
<g id="node1" class="node"><title>Node1</title>
<g id="a_node1"><a xlink:title=" ">
<polygon fill="#bfbfbf" stroke="black" points="0,-46.9052 0,-65.9052 124,-65.9052 124,-46.9052 0,-46.9052"/>
<text text-anchor="middle" x="62" y="-53.9052" font-family="Helvetica,sans-Serif" font-size="10.00">TMC2208Stepper::dedge</text>
</a>
</g>
</g>
<!-- Node2 -->
<g id="node2" class="node"><title>Node2</title>
<g id="a_node2"><a xlink:href="class_t_m_c2208_stepper.html#aa11281f54c293f3ff2539b1a583682a9" target="_top" xlink:title=" ">
<polygon fill="white" stroke="black" points="160,-46.9052 160,-65.9052 312,-65.9052 312,-46.9052 160,-46.9052"/>
<text text-anchor="middle" x="236" y="-53.9052" font-family="Helvetica,sans-Serif" font-size="10.00">TMC2208Stepper::CHOPCONF</text>
</a>
</g>
</g>
<!-- Node1&#45;&gt;Node2 -->
<g id="edge1" class="edge"><title>Node1&#45;&gt;Node2</title>
<path fill="none" stroke="midnightblue" d="M124.125,-56.4052C132.453,-56.4052 141.122,-56.4052 149.78,-56.4052"/>
<polygon fill="midnightblue" stroke="midnightblue" points="149.918,-59.9053 159.918,-56.4052 149.918,-52.9053 149.918,-59.9053"/>
</g>
<!-- Node3 -->
<g id="node3" class="node"><title>Node3</title>
<g id="a_node3"><a xlink:href="class_t_m_c2208_stepper.html#a2fae2050849c3ab7968012def8ea1cc5" target="_top" xlink:title=" ">
<polygon fill="white" stroke="black" points="348,-46.9052 348,-65.9052 464,-65.9052 464,-46.9052 348,-46.9052"/>
<text text-anchor="middle" x="406" y="-53.9052" font-family="Helvetica,sans-Serif" font-size="10.00">TMC2208Stepper::read</text>
</a>
</g>
</g>
<!-- Node2&#45;&gt;Node3 -->
<g id="edge2" class="edge"><title>Node2&#45;&gt;Node3</title>
<path fill="none" stroke="midnightblue" d="M312.155,-56.4052C320.664,-56.4052 329.296,-56.4052 337.696,-56.4052"/>
<polygon fill="midnightblue" stroke="midnightblue" points="337.802,-59.9053 347.802,-56.4052 337.802,-52.9053 337.802,-59.9053"/>
</g>
<!-- Node4 -->
<g id="node4" class="node"><title>Node4</title>
<g id="a_node4"><a xlink:href="class_t_m_c2208_stepper.html#a3e1f6a10aa1e3e41dc2594dbe1ea8a1d" target="_top" xlink:title=" ">
<polygon fill="white" stroke="black" points="500,-103.905 500,-122.905 666,-122.905 666,-103.905 500,-103.905"/>
<text text-anchor="middle" x="583" y="-110.905" font-family="Helvetica,sans-Serif" font-size="10.00">TMC2208Stepper::_sendDatagram</text>
</a>
</g>
</g>
<!-- Node3&#45;&gt;Node4 -->
<g id="edge3" class="edge"><title>Node3&#45;&gt;Node4</title>
<path fill="none" stroke="midnightblue" d="M427.7,-65.9833C446.317,-74.3262 474.568,-86.3205 500,-94.4052 508.008,-96.9508 516.555,-99.3114 524.996,-101.442"/>
<polygon fill="midnightblue" stroke="midnightblue" points="524.272,-104.868 534.816,-103.834 525.929,-98.0666 524.272,-104.868"/>
</g>
<!-- Node9 -->
<g id="node9" class="node"><title>Node9</title>
<g id="a_node9"><a xlink:href="class_s_switch.html#a6ff09d0850d551571dc333fb74ff8628" target="_top" xlink:title=" ">
<polygon fill="white" stroke="black" points="541.5,-65.9052 541.5,-84.9052 624.5,-84.9052 624.5,-65.9052 541.5,-65.9052"/>
<text text-anchor="middle" x="583" y="-72.9052" font-family="Helvetica,sans-Serif" font-size="10.00">SSwitch::active</text>
</a>
</g>
</g>
<!-- Node3&#45;&gt;Node9 -->
<g id="edge9" class="edge"><title>Node3&#45;&gt;Node9</title>
<path fill="none" stroke="midnightblue" d="M464.302,-62.6265C485.975,-64.9796 510.465,-67.6385 531.472,-69.9193"/>
<polygon fill="midnightblue" stroke="midnightblue" points="531.158,-73.4056 541.477,-71.0055 531.913,-66.4465 531.158,-73.4056"/>
</g>
<!-- Node10 -->
<g id="node10" class="node"><title>Node10</title>
<g id="a_node10"><a xlink:href="class_t_m_c2208_stepper.html#a409c19fa6b052a370a317d061bf9af4e" target="_top" xlink:title=" ">
<polygon fill="white" stroke="black" points="515,-27.9052 515,-46.9052 651,-46.9052 651,-27.9052 515,-27.9052"/>
<text text-anchor="middle" x="583" y="-34.9052" font-family="Helvetica,sans-Serif" font-size="10.00">TMC2208Stepper::calcCRC</text>
</a>
</g>
</g>
<!-- Node3&#45;&gt;Node10 -->
<g id="edge10" class="edge"><title>Node3&#45;&gt;Node10</title>
<path fill="none" stroke="midnightblue" d="M464.302,-50.1839C477.17,-48.7867 491.032,-47.2817 504.567,-45.8121"/>
<polygon fill="midnightblue" stroke="midnightblue" points="505.269,-49.2566 514.833,-44.6976 504.514,-42.2975 505.269,-49.2566"/>
</g>
<!-- Node5 -->
<g id="node5" class="node"><title>Node5</title>
<g id="a_node5"><a xlink:href="class_t_m_c2208_stepper.html#a4ec5d2b2f5a31259c7aba1f3208d63b8" target="_top" xlink:title=" ">
<polygon fill="white" stroke="black" points="716.5,-128.905 716.5,-147.905 832.5,-147.905 832.5,-128.905 716.5,-128.905"/>
<text text-anchor="middle" x="774.5" y="-135.905" font-family="Helvetica,sans-Serif" font-size="10.00">TMC2208Stepper::ms2</text>
</a>
</g>
</g>
<!-- Node4&#45;&gt;Node5 -->
<g id="edge4" class="edge"><title>Node4&#45;&gt;Node5</title>
<path fill="none" stroke="midnightblue" d="M656.182,-122.928C672.64,-125.099 690.062,-127.397 706.301,-129.54"/>
<polygon fill="midnightblue" stroke="midnightblue" points="705.868,-133.013 716.24,-130.851 706.784,-126.073 705.868,-133.013"/>
</g>
<!-- Node7 -->
<g id="node7" class="node"><title>Node7</title>
<g id="a_node7"><a xlink:href="class_t_m_c2208_stepper.html#ae561da4ec7c40830e97bf4dc8cf700fb" target="_top" xlink:title=" ">
<polygon fill="white" stroke="black" points="702,-90.9052 702,-109.905 847,-109.905 847,-90.9052 702,-90.9052"/>
<text text-anchor="middle" x="774.5" y="-97.9052" font-family="Helvetica,sans-Serif" font-size="10.00">TMC2208Stepper::serial_read</text>
</a>
</g>
</g>
<!-- Node4&#45;&gt;Node7 -->
<g id="edge7" class="edge"><title>Node4&#45;&gt;Node7</title>
<path fill="none" stroke="midnightblue" d="M666.015,-107.779C674.478,-107.198 683.078,-106.608 691.54,-106.028"/>
<polygon fill="midnightblue" stroke="midnightblue" points="692.038,-109.502 701.775,-105.326 691.559,-102.518 692.038,-109.502"/>
</g>
<!-- Node8 -->
<g id="node8" class="node"><title>Node8</title>
<g id="a_node8"><a xlink:href="class_t_m_c2208_stepper.html#a7dd83313385079099b0622957786a979" target="_top" xlink:title=" ">
<polygon fill="white" stroke="black" points="714,-41.4052 714,-71.4052 835,-71.4052 835,-41.4052 714,-41.4052"/>
<text text-anchor="start" x="722" y="-59.4052" font-family="Helvetica,sans-Serif" font-size="10.00">TMC2208Stepper::serial</text>
<text text-anchor="middle" x="774.5" y="-48.4052" font-family="Helvetica,sans-Serif" font-size="10.00">_write</text>
</a>
</g>
</g>
<!-- Node4&#45;&gt;Node8 -->
<g id="edge8" class="edge"><title>Node4&#45;&gt;Node8</title>
<path fill="none" stroke="midnightblue" d="M629.793,-103.808C641.658,-101.045 654.367,-97.8399 666,-94.4052 682.315,-89.5878 685.971,-87.1015 702,-81.4052 708.017,-79.2668 714.325,-77.0401 720.595,-74.8355"/>
<polygon fill="midnightblue" stroke="midnightblue" points="722.095,-78.0185 730.372,-71.4052 719.778,-71.4133 722.095,-78.0185"/>
</g>
<!-- Node6 -->
<g id="node6" class="node"><title>Node6</title>
<g id="a_node6"><a xlink:href="class_t_m_c2208_stepper.html#a5441dd87d0bcea4ffc309cb012166a57" target="_top" xlink:title=" ">
<polygon fill="white" stroke="black" points="883,-58.9052 883,-77.9052 999,-77.9052 999,-58.9052 883,-58.9052"/>
<text text-anchor="middle" x="941" y="-65.9052" font-family="Helvetica,sans-Serif" font-size="10.00">TMC2208Stepper::IOIN</text>
</a>
</g>
</g>
<!-- Node5&#45;&gt;Node6 -->
<g id="edge5" class="edge"><title>Node5&#45;&gt;Node6</title>
<path fill="none" stroke="midnightblue" d="M818.395,-128.814C827.954,-126.18 837.937,-123.032 847,-119.405 871.717,-109.514 898.177,-94.529 916.529,-83.3584"/>
<polygon fill="midnightblue" stroke="midnightblue" points="918.423,-86.3019 925.088,-78.0661 914.742,-80.348 918.423,-86.3019"/>
</g>
<!-- Node6&#45;&gt;Node3 -->
<g id="edge6" class="edge"><title>Node6&#45;&gt;Node3</title>
<path fill="none" stroke="midnightblue" d="M920.963,-58.8176C902.546,-50.0326 873.593,-37.4965 847,-31.4052 696.566,3.05335 651.437,11.3399 500,-18.4052 476.751,-22.9717 451.989,-33.3919 433.866,-42.1675"/>
<polygon fill="midnightblue" stroke="midnightblue" points="431.917,-39.2285 424.532,-46.826 435.043,-45.4917 431.917,-39.2285"/>
</g>
</g>
</svg>
