<?xml version="1.0" encoding="UTF-8" standalone="no"?>
<!DOCTYPE svg PUBLIC "-//W3C//DTD SVG 1.1//EN"
 "http://www.w3.org/Graphics/SVG/1.1/DTD/svg11.dtd">
<!-- Generated by graphviz version 2.38.0 (20140413.2041)
 -->
<!-- Title: TMC2130Stepper::hstrt Pages: 1 -->
<svg width="959pt" height="104pt"
 viewBox="0.00 0.00 959.00 104.00" xmlns="http://www.w3.org/2000/svg" xmlns:xlink="http://www.w3.org/1999/xlink">
<g id="graph0" class="graph" transform="scale(1 1) rotate(0) translate(4 100)">
<title>TMC2130Stepper::hstrt</title>
<polygon fill="white" stroke="none" points="-4,4 -4,-100 955,-100 955,4 -4,4"/>
<!-- Node1 -->
<g id="node1" class="node"><title>Node1</title>
<g id="a_node1"><a xlink:title=" ">
<polygon fill="#bfbfbf" stroke="black" points="0,-38.5 0,-57.5 117,-57.5 117,-38.5 0,-38.5"/>
<text text-anchor="middle" x="58.5" y="-45.5" font-family="Helvetica,sans-Serif" font-size="10.00">TMC2130Stepper::hstrt</text>
</a>
</g>
</g>
<!-- Node2 -->
<g id="node2" class="node"><title>Node2</title>
<g id="a_node2"><a xlink:href="class_t_m_c2130_stepper.html#a60ffa69ee70b01e21871a3e1b79d6d18" target="_top" xlink:title=" ">
<polygon fill="white" stroke="black" points="153,-38.5 153,-57.5 270,-57.5 270,-38.5 153,-38.5"/>
<text text-anchor="middle" x="211.5" y="-45.5" font-family="Helvetica,sans-Serif" font-size="10.00">TMC2130Stepper::hstrt</text>
</a>
</g>
</g>
<!-- Node1&#45;&gt;Node2 -->
<g id="edge1" class="edge"><title>Node1&#45;&gt;Node2</title>
<path fill="none" stroke="midnightblue" d="M117.017,-48C125.464,-48 134.229,-48 142.856,-48"/>
<polygon fill="midnightblue" stroke="midnightblue" points="142.893,-51.5001 152.893,-48 142.892,-44.5001 142.893,-51.5001"/>
</g>
<!-- Node3 -->
<g id="node3" class="node"><title>Node3</title>
<g id="a_node3"><a xlink:href="class_t_m_c2130_stepper.html#a67541b27d97ce45f175e9f6e4a2d0bff" target="_top" xlink:title=" ">
<polygon fill="white" stroke="black" points="306,-38.5 306,-57.5 458,-57.5 458,-38.5 306,-38.5"/>
<text text-anchor="middle" x="382" y="-45.5" font-family="Helvetica,sans-Serif" font-size="10.00">TMC2130Stepper::CHOPCONF</text>
</a>
</g>
</g>
<!-- Node2&#45;&gt;Node3 -->
<g id="edge2" class="edge"><title>Node2&#45;&gt;Node3</title>
<path fill="none" stroke="midnightblue" d="M270.017,-48C278.308,-48 286.985,-48 295.677,-48"/>
<polygon fill="midnightblue" stroke="midnightblue" points="295.866,-51.5001 305.866,-48 295.866,-44.5001 295.866,-51.5001"/>
</g>
<!-- Node4 -->
<g id="node4" class="node"><title>Node4</title>
<g id="a_node4"><a xlink:href="class_t_m_c2130_stepper.html#aed0175bff6e80ebc14e0d2606283cbe0" target="_top" xlink:title=" ">
<polygon fill="white" stroke="black" points="494,-38.5 494,-57.5 610,-57.5 610,-38.5 494,-38.5"/>
<text text-anchor="middle" x="552" y="-45.5" font-family="Helvetica,sans-Serif" font-size="10.00">TMC2130Stepper::read</text>
</a>
</g>
</g>
<!-- Node3&#45;&gt;Node4 -->
<g id="edge3" class="edge"><title>Node3&#45;&gt;Node4</title>
<path fill="none" stroke="midnightblue" d="M458.155,-48C466.664,-48 475.296,-48 483.696,-48"/>
<polygon fill="midnightblue" stroke="midnightblue" points="483.802,-51.5001 493.802,-48 483.802,-44.5001 483.802,-51.5001"/>
</g>
<!-- Node5 -->
<g id="node5" class="node"><title>Node5</title>
<g id="a_node5"><a xlink:href="class_t_m_c2130_stepper.html#aed8aa4583943e649dbf3bb1c1da90d63" target="_top" xlink:title=" ">
<polygon fill="white" stroke="black" points="646,-76.5 646,-95.5 798,-95.5 798,-76.5 646,-76.5"/>
<text text-anchor="middle" x="722" y="-83.5" font-family="Helvetica,sans-Serif" font-size="10.00">TMC2130Stepper::switchCSpin</text>
</a>
</g>
</g>
<!-- Node4&#45;&gt;Node5 -->
<g id="edge4" class="edge"><title>Node4&#45;&gt;Node5</title>
<path fill="none" stroke="midnightblue" d="M595.393,-57.589C617.763,-62.6487 645.398,-68.8996 669.047,-74.2488"/>
<polygon fill="midnightblue" stroke="midnightblue" points="668.386,-77.6875 678.911,-76.4799 669.93,-70.8599 668.386,-77.6875"/>
</g>
<!-- Node6 -->
<g id="node6" class="node"><title>Node6</title>
<g id="a_node6"><a xlink:href="class_s_w___s_p_i_class.html#af260fdc0af3f1312b106483161e559c3" target="_top" xlink:title=" ">
<polygon fill="white" stroke="black" points="834,-19.5 834,-38.5 951,-38.5 951,-19.5 834,-19.5"/>
<text text-anchor="middle" x="892.5" y="-26.5" font-family="Helvetica,sans-Serif" font-size="10.00">SW_SPIClass::transfer</text>
</a>
</g>
</g>
<!-- Node4&#45;&gt;Node6 -->
<g id="edge5" class="edge"><title>Node4&#45;&gt;Node6</title>
<path fill="none" stroke="midnightblue" d="M610.039,-44.7984C669.027,-41.4874 761.113,-36.3186 823.765,-32.802"/>
<polygon fill="midnightblue" stroke="midnightblue" points="824.156,-36.2856 833.944,-32.2306 823.763,-29.2966 824.156,-36.2856"/>
</g>
<!-- Node7 -->
<g id="node7" class="node"><title>Node7</title>
<g id="a_node7"><a xlink:href="class_s_w___s_p_i_class.html#a1b7600aa1d9571c103718c5d3e376675" target="_top" xlink:title=" ">
<polygon fill="white" stroke="black" points="658,-0.5 658,-19.5 786,-19.5 786,-0.5 658,-0.5"/>
<text text-anchor="middle" x="722" y="-7.5" font-family="Helvetica,sans-Serif" font-size="10.00">SW_SPIClass::transfer16</text>
</a>
</g>
</g>
<!-- Node4&#45;&gt;Node7 -->
<g id="edge6" class="edge"><title>Node4&#45;&gt;Node7</title>
<path fill="none" stroke="midnightblue" d="M595.393,-38.411C617.763,-33.3513 645.398,-27.1004 669.047,-21.7512"/>
<polygon fill="midnightblue" stroke="midnightblue" points="669.93,-25.1401 678.911,-19.5201 668.386,-18.3125 669.93,-25.1401"/>
</g>
<!-- Node7&#45;&gt;Node6 -->
<g id="edge7" class="edge"><title>Node7&#45;&gt;Node6</title>
<path fill="none" stroke="midnightblue" d="M786.223,-17.129C798.406,-18.5028 811.217,-19.9473 823.543,-21.3372"/>
<polygon fill="midnightblue" stroke="midnightblue" points="823.43,-24.8466 833.76,-22.4892 824.215,-17.8907 823.43,-24.8466"/>
</g>
</g>
</svg>
