<?xml version="1.0" encoding="UTF-8" standalone="no"?>
<!DOCTYPE svg PUBLIC "-//W3C//DTD SVG 1.1//EN"
 "http://www.w3.org/Graphics/SVG/1.1/DTD/svg11.dtd">
<!-- Generated by graphviz version 2.38.0 (20140413.2041)
 -->
<!-- Title: TMC2160Stepper::IOIN Pages: 1 -->
<svg width="617pt" height="104pt"
 viewBox="0.00 0.00 617.00 104.00" xmlns="http://www.w3.org/2000/svg" xmlns:xlink="http://www.w3.org/1999/xlink">
<g id="graph0" class="graph" transform="scale(1 1) rotate(0) translate(4 100)">
<title>TMC2160Stepper::IOIN</title>
<polygon fill="white" stroke="none" points="-4,4 -4,-100 613,-100 613,4 -4,4"/>
<!-- Node1 -->
<g id="node1" class="node"><title>Node1</title>
<g id="a_node1"><a xlink:title=" ">
<polygon fill="#bfbfbf" stroke="black" points="0,-38.5 0,-57.5 116,-57.5 116,-38.5 0,-38.5"/>
<text text-anchor="middle" x="58" y="-45.5" font-family="Helvetica,sans-Serif" font-size="10.00">TMC2160Stepper::IOIN</text>
</a>
</g>
</g>
<!-- Node2 -->
<g id="node2" class="node"><title>Node2</title>
<g id="a_node2"><a xlink:href="class_t_m_c2130_stepper.html#aed0175bff6e80ebc14e0d2606283cbe0" target="_top" xlink:title=" ">
<polygon fill="white" stroke="black" points="152,-38.5 152,-57.5 268,-57.5 268,-38.5 152,-38.5"/>
<text text-anchor="middle" x="210" y="-45.5" font-family="Helvetica,sans-Serif" font-size="10.00">TMC2130Stepper::read</text>
</a>
</g>
</g>
<!-- Node1&#45;&gt;Node2 -->
<g id="edge1" class="edge"><title>Node1&#45;&gt;Node2</title>
<path fill="none" stroke="midnightblue" d="M116.136,-48C124.377,-48 132.923,-48 141.344,-48"/>
<polygon fill="midnightblue" stroke="midnightblue" points="141.526,-51.5001 151.525,-48 141.525,-44.5001 141.526,-51.5001"/>
</g>
<!-- Node3 -->
<g id="node3" class="node"><title>Node3</title>
<g id="a_node3"><a xlink:href="class_t_m_c2130_stepper.html#aed8aa4583943e649dbf3bb1c1da90d63" target="_top" xlink:title=" ">
<polygon fill="white" stroke="black" points="304,-76.5 304,-95.5 456,-95.5 456,-76.5 304,-76.5"/>
<text text-anchor="middle" x="380" y="-83.5" font-family="Helvetica,sans-Serif" font-size="10.00">TMC2130Stepper::switchCSpin</text>
</a>
</g>
</g>
<!-- Node2&#45;&gt;Node3 -->
<g id="edge2" class="edge"><title>Node2&#45;&gt;Node3</title>
<path fill="none" stroke="midnightblue" d="M253.393,-57.589C275.763,-62.6487 303.398,-68.8996 327.047,-74.2488"/>
<polygon fill="midnightblue" stroke="midnightblue" points="326.386,-77.6875 336.911,-76.4799 327.93,-70.8599 326.386,-77.6875"/>
</g>
<!-- Node4 -->
<g id="node4" class="node"><title>Node4</title>
<g id="a_node4"><a xlink:href="class_s_w___s_p_i_class.html#af260fdc0af3f1312b106483161e559c3" target="_top" xlink:title=" ">
<polygon fill="white" stroke="black" points="492,-19.5 492,-38.5 609,-38.5 609,-19.5 492,-19.5"/>
<text text-anchor="middle" x="550.5" y="-26.5" font-family="Helvetica,sans-Serif" font-size="10.00">SW_SPIClass::transfer</text>
</a>
</g>
</g>
<!-- Node2&#45;&gt;Node4 -->
<g id="edge3" class="edge"><title>Node2&#45;&gt;Node4</title>
<path fill="none" stroke="midnightblue" d="M268.039,-44.7984C327.027,-41.4874 419.113,-36.3186 481.765,-32.802"/>
<polygon fill="midnightblue" stroke="midnightblue" points="482.156,-36.2856 491.944,-32.2306 481.763,-29.2966 482.156,-36.2856"/>
</g>
<!-- Node5 -->
<g id="node5" class="node"><title>Node5</title>
<g id="a_node5"><a xlink:href="class_s_w___s_p_i_class.html#a1b7600aa1d9571c103718c5d3e376675" target="_top" xlink:title=" ">
<polygon fill="white" stroke="black" points="316,-0.5 316,-19.5 444,-19.5 444,-0.5 316,-0.5"/>
<text text-anchor="middle" x="380" y="-7.5" font-family="Helvetica,sans-Serif" font-size="10.00">SW_SPIClass::transfer16</text>
</a>
</g>
</g>
<!-- Node2&#45;&gt;Node5 -->
<g id="edge4" class="edge"><title>Node2&#45;&gt;Node5</title>
<path fill="none" stroke="midnightblue" d="M253.393,-38.411C275.763,-33.3513 303.398,-27.1004 327.047,-21.7512"/>
<polygon fill="midnightblue" stroke="midnightblue" points="327.93,-25.1401 336.911,-19.5201 326.386,-18.3125 327.93,-25.1401"/>
</g>
<!-- Node5&#45;&gt;Node4 -->
<g id="edge5" class="edge"><title>Node5&#45;&gt;Node4</title>
<path fill="none" stroke="midnightblue" d="M444.223,-17.129C456.406,-18.5028 469.217,-19.9473 481.543,-21.3372"/>
<polygon fill="midnightblue" stroke="midnightblue" points="481.43,-24.8466 491.76,-22.4892 482.215,-17.8907 481.43,-24.8466"/>
</g>
</g>
</svg>
