<?xml version="1.0" encoding="UTF-8" standalone="no"?>
<!DOCTYPE svg PUBLIC "-//W3C//DTD SVG 1.1//EN"
 "http://www.w3.org/Graphics/SVG/1.1/DTD/svg11.dtd">
<!-- Generated by graphviz version 2.38.0 (20140413.2041)
 -->
<!-- Title: TMC2130Stepper::write Pages: 1 -->
<svg width="325pt" height="1933pt"
 viewBox="0.00 0.00 325.00 1933.00" xmlns="http://www.w3.org/2000/svg" xmlns:xlink="http://www.w3.org/1999/xlink">
<g id="graph0" class="graph" transform="scale(1 1) rotate(0) translate(4 1929)">
<title>TMC2130Stepper::write</title>
<polygon fill="white" stroke="none" points="-4,4 -4,-1929 321,-1929 321,4 -4,4"/>
<!-- Node1 -->
<g id="node1" class="node"><title>Node1</title>
<g id="a_node1"><a xlink:title=" ">
<polygon fill="#bfbfbf" stroke="black" points="199,-924.5 199,-943.5 317,-943.5 317,-924.5 199,-924.5"/>
<text text-anchor="middle" x="258" y="-931.5" font-family="Helvetica,sans-Serif" font-size="10.00">TMC2130Stepper::write</text>
</a>
</g>
</g>
<!-- Node2 -->
<g id="node2" class="node"><title>Node2</title>
<g id="a_node2"><a xlink:href="class_t_m_c5130_stepper.html#a76052c6b0797d7f5707167f9dc38c070" target="_top" xlink:title=" ">
<polygon fill="white" stroke="black" points="26.5,-1905.5 26.5,-1924.5 136.5,-1924.5 136.5,-1905.5 26.5,-1905.5"/>
<text text-anchor="middle" x="81.5" y="-1912.5" font-family="Helvetica,sans-Serif" font-size="10.00">TMC5130Stepper::A1</text>
</a>
</g>
</g>
<!-- Node1&#45;&gt;Node2 -->
<g id="edge1" class="edge"><title>Node1&#45;&gt;Node2</title>
<path fill="none" stroke="midnightblue" d="M256.428,-953.761C252.472,-1084.53 227.381,-1822.33 163,-1896 156.102,-1903.89 146.592,-1908.83 136.521,-1911.85"/>
<polygon fill="midnightblue" stroke="midnightblue" points="259.931,-953.713 256.73,-943.614 252.934,-953.506 259.931,-953.713"/>
</g>
<!-- Node3 -->
<g id="node3" class="node"><title>Node3</title>
<g id="a_node3"><a xlink:href="class_t_m_c5130_stepper.html#a967f67e12de5fc725f34d1f07e751146" target="_top" xlink:title=" ">
<polygon fill="white" stroke="black" points="19,-1867.5 19,-1886.5 144,-1886.5 144,-1867.5 19,-1867.5"/>
<text text-anchor="middle" x="81.5" y="-1874.5" font-family="Helvetica,sans-Serif" font-size="10.00">TMC5130Stepper::AMAX</text>
</a>
</g>
</g>
<!-- Node1&#45;&gt;Node3 -->
<g id="edge2" class="edge"><title>Node1&#45;&gt;Node3</title>
<path fill="none" stroke="midnightblue" d="M256.345,-953.761C251.937,-1081.5 224.876,-1787.48 163,-1858 157.886,-1863.83 151.347,-1868.04 144.213,-1871.07"/>
<polygon fill="midnightblue" stroke="midnightblue" points="259.851,-953.638 256.692,-943.525 252.855,-953.4 259.851,-953.638"/>
</g>
<!-- Node4 -->
<g id="node4" class="node"><title>Node4</title>
<g id="a_node4"><a xlink:href="class_t_m_c2130_stepper.html#a8f881532eca7813597a1292ed060d18c" target="_top" xlink:title=" ">
<polygon fill="white" stroke="black" points="5.5,-1829.5 5.5,-1848.5 157.5,-1848.5 157.5,-1829.5 5.5,-1829.5"/>
<text text-anchor="middle" x="81.5" y="-1836.5" font-family="Helvetica,sans-Serif" font-size="10.00">TMC2130Stepper::CHOPCONF</text>
</a>
</g>
</g>
<!-- Node1&#45;&gt;Node4 -->
<g id="edge3" class="edge"><title>Node1&#45;&gt;Node4</title>
<path fill="none" stroke="midnightblue" d="M256.256,-953.723C251.385,-1078.27 222.38,-1752.62 163,-1820 159.677,-1823.77 155.758,-1826.87 151.468,-1829.4"/>
<polygon fill="midnightblue" stroke="midnightblue" points="259.755,-953.829 256.642,-943.701 252.76,-953.559 259.755,-953.829"/>
</g>
<!-- Node5 -->
<g id="node5" class="node"><title>Node5</title>
<g id="a_node5"><a xlink:href="class_t_m_c2130_stepper.html#a11e7ca8148bc856a18af9fa0394a647d" target="_top" xlink:title=" ">
<polygon fill="white" stroke="black" points="19,-1791.5 19,-1810.5 144,-1810.5 144,-1791.5 19,-1791.5"/>
<text text-anchor="middle" x="81.5" y="-1798.5" font-family="Helvetica,sans-Serif" font-size="10.00">TMC2130Stepper::coil_A</text>
</a>
</g>
</g>
<!-- Node1&#45;&gt;Node5 -->
<g id="edge4" class="edge"><title>Node1&#45;&gt;Node5</title>
<path fill="none" stroke="midnightblue" d="M256.162,-953.62C250.819,-1074.74 219.897,-1717.74 163,-1782 157.86,-1787.81 151.306,-1792.01 144.164,-1795.02"/>
<polygon fill="midnightblue" stroke="midnightblue" points="259.662,-953.707 256.6,-943.564 252.669,-953.402 259.662,-953.707"/>
</g>
<!-- Node6 -->
<g id="node6" class="node"><title>Node6</title>
<g id="a_node6"><a xlink:href="class_t_m_c2130_stepper.html#a40464704d8da6ad1998cb0c1ea564cce" target="_top" xlink:title=" ">
<polygon fill="white" stroke="black" points="19,-1753.5 19,-1772.5 144,-1772.5 144,-1753.5 19,-1753.5"/>
<text text-anchor="middle" x="81.5" y="-1760.5" font-family="Helvetica,sans-Serif" font-size="10.00">TMC2130Stepper::coil_B</text>
</a>
</g>
</g>
<!-- Node1&#45;&gt;Node6 -->
<g id="edge5" class="edge"><title>Node1&#45;&gt;Node6</title>
<path fill="none" stroke="midnightblue" d="M256.045,-953.832C250.169,-1072.25 217.367,-1682.91 163,-1744 157.845,-1749.79 151.282,-1753.99 144.136,-1757"/>
<polygon fill="midnightblue" stroke="midnightblue" points="259.549,-953.837 256.542,-943.678 252.557,-953.495 259.549,-953.837"/>
</g>
<!-- Node7 -->
<g id="node7" class="node"><title>Node7</title>
<g id="a_node7"><a xlink:href="class_t_m_c2130_stepper.html#afc1072e86397d2646fd4fb7b30e41ab8" target="_top" xlink:title=" ">
<polygon fill="white" stroke="black" points="5.5,-1715.5 5.5,-1734.5 157.5,-1734.5 157.5,-1715.5 5.5,-1715.5"/>
<text text-anchor="middle" x="81.5" y="-1722.5" font-family="Helvetica,sans-Serif" font-size="10.00">TMC2130Stepper::COOLCONF</text>
</a>
</g>
</g>
<!-- Node1&#45;&gt;Node7 -->
<g id="edge6" class="edge"><title>Node1&#45;&gt;Node7</title>
<path fill="none" stroke="midnightblue" d="M255.919,-953.969C249.495,-1069.4 214.854,-1648.07 163,-1706 159.648,-1709.74 155.708,-1712.82 151.403,-1715.34"/>
<polygon fill="midnightblue" stroke="midnightblue" points="259.426,-953.932 256.481,-943.755 252.437,-953.548 259.426,-953.932"/>
</g>
<!-- Node8 -->
<g id="node8" class="node"><title>Node8</title>
<g id="a_node8"><a xlink:href="class_t_m_c5130_stepper.html#abc7865021874083213e60aa77b7201d6" target="_top" xlink:title=" ">
<polygon fill="white" stroke="black" points="26.5,-1677.5 26.5,-1696.5 136.5,-1696.5 136.5,-1677.5 26.5,-1677.5"/>
<text text-anchor="middle" x="81.5" y="-1684.5" font-family="Helvetica,sans-Serif" font-size="10.00">TMC5130Stepper::D1</text>
</a>
</g>
</g>
<!-- Node1&#45;&gt;Node8 -->
<g id="edge7" class="edge"><title>Node1&#45;&gt;Node8</title>
<path fill="none" stroke="midnightblue" d="M257.381,-953.903C258.995,-1060.07 261.204,-1558.97 163,-1668 156.081,-1675.68 146.686,-1680.55 136.755,-1683.57"/>
<polygon fill="midnightblue" stroke="midnightblue" points="260.876,-953.599 257.207,-943.66 253.877,-953.718 260.876,-953.599"/>
</g>
<!-- Node9 -->
<g id="node9" class="node"><title>Node9</title>
<g id="a_node9"><a xlink:href="class_t_m_c2130_stepper.html#a55ea165bcc2fc0da6395340f17e47611" target="_top" xlink:title=" ">
<polygon fill="white" stroke="black" points="19.5,-1639.5 19.5,-1658.5 143.5,-1658.5 143.5,-1639.5 19.5,-1639.5"/>
<text text-anchor="middle" x="81.5" y="-1646.5" font-family="Helvetica,sans-Serif" font-size="10.00">TMC2130Stepper::dc_sg</text>
</a>
</g>
</g>
<!-- Node1&#45;&gt;Node9 -->
<g id="edge8" class="edge"><title>Node1&#45;&gt;Node9</title>
<path fill="none" stroke="midnightblue" d="M257.227,-953.834C257.985,-1056.54 256.267,-1527.16 163,-1630 157.694,-1635.85 150.953,-1640.06 143.637,-1643.07"/>
<polygon fill="midnightblue" stroke="midnightblue" points="260.725,-953.608 257.133,-943.641 253.725,-953.672 260.725,-953.608"/>
</g>
<!-- Node10 -->
<g id="node10" class="node"><title>Node10</title>
<g id="a_node10"><a xlink:href="class_t_m_c2130_stepper.html#a5b90d46cecffc6511b6bb95943b30bdb" target="_top" xlink:title=" ">
<polygon fill="white" stroke="black" points="15.5,-1601.5 15.5,-1620.5 147.5,-1620.5 147.5,-1601.5 15.5,-1601.5"/>
<text text-anchor="middle" x="81.5" y="-1608.5" font-family="Helvetica,sans-Serif" font-size="10.00">TMC2130Stepper::dc_time</text>
</a>
</g>
</g>
<!-- Node1&#45;&gt;Node10 -->
<g id="edge9" class="edge"><title>Node1&#45;&gt;Node10</title>
<path fill="none" stroke="midnightblue" d="M257.056,-953.681C256.929,-1052.68 251.363,-1495.31 163,-1592 158.641,-1596.77 153.327,-1600.45 147.528,-1603.28"/>
<polygon fill="midnightblue" stroke="midnightblue" points="260.556,-953.578 257.05,-943.58 253.556,-953.582 260.556,-953.578"/>
</g>
<!-- Node11 -->
<g id="node11" class="node"><title>Node11</title>
<g id="a_node11"><a xlink:href="class_t_m_c2130_stepper.html#ae9a34eefa766c1c5f8bda09acb1e61c1" target="_top" xlink:title=" ">
<polygon fill="white" stroke="black" points="14,-1563.5 14,-1582.5 149,-1582.5 149,-1563.5 14,-1563.5"/>
<text text-anchor="middle" x="81.5" y="-1570.5" font-family="Helvetica,sans-Serif" font-size="10.00">TMC2130Stepper::DCCTRL</text>
</a>
</g>
</g>
<!-- Node1&#45;&gt;Node11 -->
<g id="edge10" class="edge"><title>Node1&#45;&gt;Node11</title>
<path fill="none" stroke="midnightblue" d="M256.863,-954.05C255.787,-1050.26 246.316,-1463.62 163,-1554 159.01,-1558.33 154.233,-1561.76 149.023,-1564.47"/>
<polygon fill="midnightblue" stroke="midnightblue" points="260.363,-953.965 256.956,-943.933 253.364,-953.9 260.363,-953.965"/>
</g>
<!-- Node12 -->
<g id="node12" class="node"><title>Node12</title>
<g id="a_node12"><a xlink:href="class_t_m_c5130_stepper.html#a6fc018f81c10dd3307d55b31d070b816" target="_top" xlink:title=" ">
<polygon fill="white" stroke="black" points="19,-1525.5 19,-1544.5 144,-1544.5 144,-1525.5 19,-1525.5"/>
<text text-anchor="middle" x="81.5" y="-1532.5" font-family="Helvetica,sans-Serif" font-size="10.00">TMC5130Stepper::DMAX</text>
</a>
</g>
</g>
<!-- Node1&#45;&gt;Node12 -->
<g id="edge11" class="edge"><title>Node1&#45;&gt;Node12</title>
<path fill="none" stroke="midnightblue" d="M256.647,-953.974C254.599,-1046.41 241.41,-1431.76 163,-1516 157.815,-1521.57 151.326,-1525.65 144.296,-1528.61"/>
<polygon fill="midnightblue" stroke="midnightblue" points="260.15,-953.835 256.852,-943.767 253.151,-953.694 260.15,-953.835"/>
</g>
<!-- Node13 -->
<g id="node13" class="node"><title>Node13</title>
<g id="a_node13"><a xlink:href="class_t_m_c2160_stepper.html#a6aec416cc563c9a195929bfd36e1707a" target="_top" xlink:title=" ">
<polygon fill="white" stroke="black" points="6.5,-1487.5 6.5,-1506.5 156.5,-1506.5 156.5,-1487.5 6.5,-1487.5"/>
<text text-anchor="middle" x="81.5" y="-1494.5" font-family="Helvetica,sans-Serif" font-size="10.00">TMC2160Stepper::DRV_CONF</text>
</a>
</g>
</g>
<!-- Node1&#45;&gt;Node13 -->
<g id="edge12" class="edge"><title>Node1&#45;&gt;Node13</title>
<path fill="none" stroke="midnightblue" d="M256.407,-953.775C253.352,-1042.13 236.549,-1399.85 163,-1478 159.457,-1481.76 155.319,-1484.85 150.823,-1487.36"/>
<polygon fill="midnightblue" stroke="midnightblue" points="259.913,-953.661 256.739,-943.553 252.916,-953.434 259.913,-953.661"/>
</g>
<!-- Node14 -->
<g id="node14" class="node"><title>Node14</title>
<g id="a_node14"><a xlink:href="class_t_m_c5130_stepper.html#a4e170413a630ba0037569cb2cb96351c" target="_top" xlink:title=" ">
<polygon fill="white" stroke="black" points="22.5,-1438 22.5,-1468 140.5,-1468 140.5,-1438 22.5,-1438"/>
<text text-anchor="start" x="30.5" y="-1456" font-family="Helvetica,sans-Serif" font-size="10.00">TMC5130Stepper::ENC</text>
<text text-anchor="middle" x="81.5" y="-1445" font-family="Helvetica,sans-Serif" font-size="10.00">_CONST</text>
</a>
</g>
</g>
<!-- Node1&#45;&gt;Node14 -->
<g id="edge13" class="edge"><title>Node1&#45;&gt;Node14</title>
<path fill="none" stroke="midnightblue" d="M255.913,-953.998C250.984,-1037.45 228.081,-1356.91 163,-1429 156.941,-1435.71 149.095,-1440.58 140.683,-1444.1"/>
<polygon fill="midnightblue" stroke="midnightblue" points="259.417,-954.023 256.492,-943.84 252.428,-953.624 259.417,-954.023"/>
</g>
<!-- Node15 -->
<g id="node15" class="node"><title>Node15</title>
<g id="a_node15"><a xlink:href="class_t_m_c5160_stepper.html#a42b5bd196fdbb78044b669342384ec28" target="_top" xlink:title=" ">
<polygon fill="white" stroke="black" points="22.5,-1389 22.5,-1419 140.5,-1419 140.5,-1389 22.5,-1389"/>
<text text-anchor="start" x="30.5" y="-1407" font-family="Helvetica,sans-Serif" font-size="10.00">TMC5160Stepper::ENC</text>
<text text-anchor="middle" x="81.5" y="-1396" font-family="Helvetica,sans-Serif" font-size="10.00">_DEVIATION</text>
</a>
</g>
</g>
<!-- Node1&#45;&gt;Node15 -->
<g id="edge14" class="edge"><title>Node1&#45;&gt;Node15</title>
<path fill="none" stroke="midnightblue" d="M255.462,-953.971C249.056,-1032.11 222.027,-1315.92 163,-1380 156.874,-1386.65 148.994,-1391.49 140.568,-1395"/>
<polygon fill="midnightblue" stroke="midnightblue" points="258.981,-953.868 256.287,-943.622 252.003,-953.312 258.981,-953.868"/>
</g>
<!-- Node16 -->
<g id="node16" class="node"><title>Node16</title>
<g id="a_node16"><a xlink:href="class_t_m_c5160_stepper.html#a5b60cb0c1913fc270311011223782363" target="_top" xlink:title=" ">
<polygon fill="white" stroke="black" points="22.5,-1340 22.5,-1370 140.5,-1370 140.5,-1340 22.5,-1340"/>
<text text-anchor="start" x="30.5" y="-1358" font-family="Helvetica,sans-Serif" font-size="10.00">TMC5160Stepper::ENC</text>
<text text-anchor="middle" x="81.5" y="-1347" font-family="Helvetica,sans-Serif" font-size="10.00">_STATUS</text>
</a>
</g>
</g>
<!-- Node1&#45;&gt;Node16 -->
<g id="edge15" class="edge"><title>Node1&#45;&gt;Node16</title>
<path fill="none" stroke="midnightblue" d="M254.912,-953.548C246.865,-1025.4 215.654,-1273.63 163,-1330 156.906,-1336.52 149.146,-1341.36 140.859,-1344.94"/>
<polygon fill="midnightblue" stroke="midnightblue" points="258.394,-953.909 256.005,-943.587 251.435,-953.146 258.394,-953.909"/>
</g>
<!-- Node17 -->
<g id="node17" class="node"><title>Node17</title>
<g id="a_node17"><a xlink:href="class_t_m_c2130_stepper.html#af193f7a3cecbeff29d0db36a2c8b3094" target="_top" xlink:title=" ">
<polygon fill="white" stroke="black" points="4,-1301.5 4,-1320.5 159,-1320.5 159,-1301.5 4,-1301.5"/>
<text text-anchor="middle" x="81.5" y="-1308.5" font-family="Helvetica,sans-Serif" font-size="10.00">TMC2130Stepper::ENCM_CTRL</text>
</a>
</g>
</g>
<!-- Node1&#45;&gt;Node17 -->
<g id="edge16" class="edge"><title>Node1&#45;&gt;Node17</title>
<path fill="none" stroke="midnightblue" d="M254.472,-953.937C245.447,-1021.98 212.684,-1243.54 163,-1292 159.094,-1295.81 154.573,-1298.91 149.707,-1301.42"/>
<polygon fill="midnightblue" stroke="midnightblue" points="257.98,-954.099 255.798,-943.731 251.038,-953.197 257.98,-954.099"/>
</g>
<!-- Node18 -->
<g id="node18" class="node"><title>Node18</title>
<g id="a_node18"><a xlink:href="class_t_m_c5130_stepper.html#aef59e4f446323c23418fe05051993e6f" target="_top" xlink:title=" ">
<polygon fill="white" stroke="black" points="8,-1263.5 8,-1282.5 155,-1282.5 155,-1263.5 8,-1263.5"/>
<text text-anchor="middle" x="81.5" y="-1270.5" font-family="Helvetica,sans-Serif" font-size="10.00">TMC5130Stepper::ENCMODE</text>
</a>
</g>
</g>
<!-- Node1&#45;&gt;Node18 -->
<g id="edge17" class="edge"><title>Node1&#45;&gt;Node18</title>
<path fill="none" stroke="midnightblue" d="M257.541,-953.881C257.918,-1009.96 250.901,-1170.72 163,-1254 158.935,-1257.85 154.24,-1260.97 149.201,-1263.49"/>
<polygon fill="midnightblue" stroke="midnightblue" points="261.035,-953.511 257.374,-943.568 254.036,-953.624 261.035,-953.511"/>
</g>
<!-- Node19 -->
<g id="node19" class="node"><title>Node19</title>
<g id="a_node19"><a xlink:href="class_t_m_c2160_stepper.html#a905cd46baa5574ef977964787379c30e" target="_top" xlink:title=" ">
<polygon fill="white" stroke="black" points="12.5,-1225.5 12.5,-1244.5 150.5,-1244.5 150.5,-1225.5 12.5,-1225.5"/>
<text text-anchor="middle" x="81.5" y="-1232.5" font-family="Helvetica,sans-Serif" font-size="10.00">TMC2160Stepper::freewheel</text>
</a>
</g>
</g>
<!-- Node1&#45;&gt;Node19 -->
<g id="edge18" class="edge"><title>Node1&#45;&gt;Node19</title>
<path fill="none" stroke="midnightblue" d="M256.636,-953.571C254.571,-1004.86 241.625,-1144.15 163,-1216 158.866,-1219.78 154.123,-1222.85 149.053,-1225.33"/>
<polygon fill="midnightblue" stroke="midnightblue" points="260.136,-953.613 256.942,-943.512 253.139,-953.401 260.136,-953.613"/>
</g>
<!-- Node20 -->
<g id="node20" class="node"><title>Node20</title>
<g id="a_node20"><a xlink:href="class_t_m_c2130_stepper.html#ad7e2c224a86768c38c5167b2bee7de05" target="_top" xlink:title=" ">
<polygon fill="white" stroke="black" points="15.5,-1187.5 15.5,-1206.5 147.5,-1206.5 147.5,-1187.5 15.5,-1187.5"/>
<text text-anchor="middle" x="81.5" y="-1194.5" font-family="Helvetica,sans-Serif" font-size="10.00">TMC2130Stepper::GCONF</text>
</a>
</g>
</g>
<!-- Node1&#45;&gt;Node20 -->
<g id="edge19" class="edge"><title>Node1&#45;&gt;Node20</title>
<path fill="none" stroke="midnightblue" d="M255.463,-953.722C250.734,-1000.28 232.205,-1117.62 163,-1178 158.456,-1181.97 153.236,-1185.14 147.684,-1187.68"/>
<polygon fill="midnightblue" stroke="midnightblue" points="258.952,-953.997 256.371,-943.722 251.981,-953.364 258.952,-953.997"/>
</g>
<!-- Node21 -->
<g id="node21" class="node"><title>Node21</title>
<g id="a_node21"><a xlink:href="class_t_m_c2160_stepper.html#a182c03c51d92c565b15b6e7e459e55ae" target="_top" xlink:title=" ">
<polygon fill="white" stroke="black" points="13,-1138 13,-1168 150,-1168 150,-1138 13,-1138"/>
<text text-anchor="start" x="21" y="-1156" font-family="Helvetica,sans-Serif" font-size="10.00">TMC2160Stepper::GLOBAL</text>
<text text-anchor="middle" x="81.5" y="-1145" font-family="Helvetica,sans-Serif" font-size="10.00">_SCALER</text>
</a>
</g>
</g>
<!-- Node1&#45;&gt;Node21 -->
<g id="edge20" class="edge"><title>Node1&#45;&gt;Node21</title>
<path fill="none" stroke="midnightblue" d="M252.983,-953.574C243.958,-992.586 218.383,-1080.36 163,-1128 158.451,-1131.91 153.295,-1135.21 147.842,-1138"/>
<polygon fill="midnightblue" stroke="midnightblue" points="256.417,-954.252 255.143,-943.735 249.58,-952.752 256.417,-954.252"/>
</g>
<!-- Node22 -->
<g id="node22" class="node"><title>Node22</title>
<g id="a_node22"><a xlink:href="class_t_m_c2130_stepper.html#a2b9ce2adcc443caffeefa9b51bcb5ee8" target="_top" xlink:title=" ">
<polygon fill="white" stroke="black" points="27,-1099.5 27,-1118.5 136,-1118.5 136,-1099.5 27,-1099.5"/>
<text text-anchor="middle" x="81.5" y="-1106.5" font-family="Helvetica,sans-Serif" font-size="10.00">TMC2130Stepper::inv</text>
</a>
</g>
</g>
<!-- Node1&#45;&gt;Node22 -->
<g id="edge21" class="edge"><title>Node1&#45;&gt;Node22</title>
<path fill="none" stroke="midnightblue" d="M250.916,-953.401C239.411,-986.775 211.201,-1054.85 163,-1090 155.111,-1095.75 145.733,-1099.79 136.214,-1102.62"/>
<polygon fill="midnightblue" stroke="midnightblue" points="254.37,-954.104 254.182,-943.51 247.723,-951.909 254.37,-954.104"/>
</g>
<!-- Node23 -->
<g id="node23" class="node"><title>Node23</title>
<g id="a_node23"><a xlink:href="class_t_m_c2130_stepper.html#ad6192783349219e1a0e47d0274de7559" target="_top" xlink:title=" ">
<polygon fill="white" stroke="black" points="10,-1061.5 10,-1080.5 153,-1080.5 153,-1061.5 10,-1061.5"/>
<text text-anchor="middle" x="81.5" y="-1068.5" font-family="Helvetica,sans-Serif" font-size="10.00">TMC2130Stepper::maxspeed</text>
</a>
</g>
</g>
<!-- Node1&#45;&gt;Node23 -->
<g id="edge22" class="edge"><title>Node1&#45;&gt;Node23</title>
<path fill="none" stroke="midnightblue" d="M247.379,-952.74C232.817,-979.147 202.624,-1026.88 163,-1052 156.936,-1055.84 150.17,-1058.91 143.207,-1061.36"/>
<polygon fill="midnightblue" stroke="midnightblue" points="250.554,-954.224 252.182,-943.755 244.381,-950.924 250.554,-954.224"/>
</g>
<!-- Node24 -->
<g id="node24" class="node"><title>Node24</title>
<g id="a_node24"><a xlink:href="class_t_m_c2160_stepper.html#a0d405ef2d7508f5d9b2963ba9e5948f0" target="_top" xlink:title=" ">
<polygon fill="white" stroke="black" points="22.5,-1012 22.5,-1042 140.5,-1042 140.5,-1012 22.5,-1012"/>
<text text-anchor="start" x="30.5" y="-1030" font-family="Helvetica,sans-Serif" font-size="10.00">TMC2160Stepper::pwm</text>
<text text-anchor="middle" x="81.5" y="-1019" font-family="Helvetica,sans-Serif" font-size="10.00">_autograd</text>
</a>
</g>
</g>
<!-- Node1&#45;&gt;Node24 -->
<g id="edge23" class="edge"><title>Node1&#45;&gt;Node24</title>
<path fill="none" stroke="midnightblue" d="M238.559,-950.548C220.463,-966.025 191.507,-988.824 163,-1003 155.949,-1006.51 148.29,-1009.6 140.595,-1012.3"/>
<polygon fill="midnightblue" stroke="midnightblue" points="241.282,-952.817 246.521,-943.608 236.683,-947.541 241.282,-952.817"/>
</g>
<!-- Node25 -->
<g id="node25" class="node"><title>Node25</title>
<g id="a_node25"><a xlink:href="class_t_m_c2160_stepper.html#ac98ee54631ff1e18803ce991d173a5c3" target="_top" xlink:title=" ">
<polygon fill="white" stroke="black" points="22.5,-963 22.5,-993 140.5,-993 140.5,-963 22.5,-963"/>
<text text-anchor="start" x="30.5" y="-981" font-family="Helvetica,sans-Serif" font-size="10.00">TMC2160Stepper::pwm</text>
<text text-anchor="middle" x="81.5" y="-970" font-family="Helvetica,sans-Serif" font-size="10.00">_autoscale</text>
</a>
</g>
</g>
<!-- Node1&#45;&gt;Node25 -->
<g id="edge24" class="edge"><title>Node1&#45;&gt;Node25</title>
<path fill="none" stroke="midnightblue" d="M209.367,-946.011C188.118,-951.369 162.889,-957.73 140.547,-963.363"/>
<polygon fill="midnightblue" stroke="midnightblue" points="210.295,-949.386 219.136,-943.547 208.584,-942.599 210.295,-949.386"/>
</g>
<!-- Node26 -->
<g id="node26" class="node"><title>Node26</title>
<g id="a_node26"><a xlink:href="class_t_m_c2160_stepper.html#a36456a05499e52dc6a34b57ed5c485d3" target="_top" xlink:title=" ">
<polygon fill="white" stroke="black" points="12,-924.5 12,-943.5 151,-943.5 151,-924.5 12,-924.5"/>
<text text-anchor="middle" x="81.5" y="-931.5" font-family="Helvetica,sans-Serif" font-size="10.00">TMC2160Stepper::pwm_freq</text>
</a>
</g>
</g>
<!-- Node1&#45;&gt;Node26 -->
<g id="edge25" class="edge"><title>Node1&#45;&gt;Node26</title>
<path fill="none" stroke="midnightblue" d="M188.704,-934C176.398,-934 163.563,-934 151.244,-934"/>
<polygon fill="midnightblue" stroke="midnightblue" points="188.894,-937.5 198.894,-934 188.894,-930.5 188.894,-937.5"/>
</g>
<!-- Node27 -->
<g id="node27" class="node"><title>Node27</title>
<g id="a_node27"><a xlink:href="class_t_m_c2160_stepper.html#a3ba35a360848e443ea4321ab208b3871" target="_top" xlink:title=" ">
<polygon fill="white" stroke="black" points="10.5,-886.5 10.5,-905.5 152.5,-905.5 152.5,-886.5 10.5,-886.5"/>
<text text-anchor="middle" x="81.5" y="-893.5" font-family="Helvetica,sans-Serif" font-size="10.00">TMC2160Stepper::pwm_grad</text>
</a>
</g>
</g>
<!-- Node1&#45;&gt;Node27 -->
<g id="edge26" class="edge"><title>Node1&#45;&gt;Node27</title>
<path fill="none" stroke="midnightblue" d="M203.031,-922.247C178.357,-916.874 149.505,-910.591 126.217,-905.52"/>
<polygon fill="midnightblue" stroke="midnightblue" points="202.451,-925.703 212.966,-924.411 203.94,-918.863 202.451,-925.703"/>
</g>
<!-- Node28 -->
<g id="node28" class="node"><title>Node28</title>
<g id="a_node28"><a xlink:href="class_t_m_c2160_stepper.html#a9ec61d07cf568f2d697e0a056fb12dbe" target="_top" xlink:title=" ">
<polygon fill="white" stroke="black" points="13.5,-848.5 13.5,-867.5 149.5,-867.5 149.5,-848.5 13.5,-848.5"/>
<text text-anchor="middle" x="81.5" y="-855.5" font-family="Helvetica,sans-Serif" font-size="10.00">TMC2160Stepper::pwm_lim</text>
</a>
</g>
</g>
<!-- Node1&#45;&gt;Node28 -->
<g id="edge27" class="edge"><title>Node1&#45;&gt;Node28</title>
<path fill="none" stroke="midnightblue" d="M235.769,-918.452C217.358,-905.641 189.564,-887.871 163,-877 153.83,-873.247 143.755,-870.137 133.929,-867.596"/>
<polygon fill="midnightblue" stroke="midnightblue" points="233.825,-921.364 244.007,-924.291 237.873,-915.653 233.825,-921.364"/>
</g>
<!-- Node29 -->
<g id="node29" class="node"><title>Node29</title>
<g id="a_node29"><a xlink:href="class_t_m_c2160_stepper.html#ab12d872c91ce24642e68fca4d41c1046" target="_top" xlink:title=" ">
<polygon fill="white" stroke="black" points="13.5,-810.5 13.5,-829.5 149.5,-829.5 149.5,-810.5 13.5,-810.5"/>
<text text-anchor="middle" x="81.5" y="-817.5" font-family="Helvetica,sans-Serif" font-size="10.00">TMC2160Stepper::pwm_ofs</text>
</a>
</g>
</g>
<!-- Node1&#45;&gt;Node29 -->
<g id="edge28" class="edge"><title>Node1&#45;&gt;Node29</title>
<path fill="none" stroke="midnightblue" d="M244.38,-916.145C228.097,-894.488 197.704,-858.468 163,-839 156.112,-835.136 148.468,-832.055 140.711,-829.6"/>
<polygon fill="midnightblue" stroke="midnightblue" points="241.734,-918.456 250.466,-924.457 247.382,-914.321 241.734,-918.456"/>
</g>
<!-- Node30 -->
<g id="node30" class="node"><title>Node30</title>
<g id="a_node30"><a xlink:href="class_t_m_c2160_stepper.html#a683e5b1afa78178468abd8e58778b765" target="_top" xlink:title=" ">
<polygon fill="white" stroke="black" points="13,-772.5 13,-791.5 150,-791.5 150,-772.5 13,-772.5"/>
<text text-anchor="middle" x="81.5" y="-779.5" font-family="Helvetica,sans-Serif" font-size="10.00">TMC2160Stepper::pwm_reg</text>
</a>
</g>
</g>
<!-- Node1&#45;&gt;Node30 -->
<g id="edge29" class="edge"><title>Node1&#45;&gt;Node30</title>
<path fill="none" stroke="midnightblue" d="M248.994,-915.009C235.646,-885.756 206,-830.02 163,-801 157.287,-797.144 150.886,-794.066 144.256,-791.61"/>
<polygon fill="midnightblue" stroke="midnightblue" points="245.935,-916.748 253.169,-924.49 252.342,-913.928 245.935,-916.748"/>
</g>
<!-- Node31 -->
<g id="node31" class="node"><title>Node31</title>
<g id="a_node31"><a xlink:href="class_t_m_c2130_stepper.html#ac9dcf998b2bba062b5fcd871c25e4117" target="_top" xlink:title=" ">
<polygon fill="white" stroke="black" points="7,-734.5 7,-753.5 156,-753.5 156,-734.5 7,-734.5"/>
<text text-anchor="middle" x="81.5" y="-741.5" font-family="Helvetica,sans-Serif" font-size="10.00">TMC2130Stepper::PWMCONF</text>
</a>
</g>
</g>
<!-- Node1&#45;&gt;Node31 -->
<g id="edge30" class="edge"><title>Node1&#45;&gt;Node31</title>
<path fill="none" stroke="midnightblue" d="M252.042,-914.732C241.801,-878.969 214.815,-802.389 163,-763 157.97,-759.176 152.291,-756.106 146.335,-753.642"/>
<polygon fill="midnightblue" stroke="midnightblue" points="248.68,-915.709 254.691,-924.434 255.433,-913.865 248.68,-915.709"/>
</g>
<!-- Node32 -->
<g id="node32" class="node"><title>Node32</title>
<g id="a_node32"><a xlink:href="class_t_m_c2160_stepper.html#a919a91e07e52e70d6ace4913683c9309" target="_top" xlink:title=" ">
<polygon fill="white" stroke="black" points="7,-696.5 7,-715.5 156,-715.5 156,-696.5 7,-696.5"/>
<text text-anchor="middle" x="81.5" y="-703.5" font-family="Helvetica,sans-Serif" font-size="10.00">TMC2160Stepper::PWMCONF</text>
</a>
</g>
</g>
<!-- Node1&#45;&gt;Node32 -->
<g id="edge31" class="edge"><title>Node1&#45;&gt;Node32</title>
<path fill="none" stroke="midnightblue" d="M254.052,-914.309C246.729,-872.607 223.714,-775.106 163,-725 158.348,-721.161 153.056,-718.071 147.459,-715.586"/>
<polygon fill="midnightblue" stroke="midnightblue" points="250.617,-914.991 255.687,-924.293 257.524,-913.859 250.617,-914.991"/>
</g>
<!-- Node33 -->
<g id="node33" class="node"><title>Node33</title>
<g id="a_node33"><a xlink:href="class_t_m_c5130_stepper.html#a2aa27be074f0db127f559430dd4aa0a5" target="_top" xlink:title=" ">
<polygon fill="white" stroke="black" points="4,-658.5 4,-677.5 159,-677.5 159,-658.5 4,-658.5"/>
<text text-anchor="middle" x="81.5" y="-665.5" font-family="Helvetica,sans-Serif" font-size="10.00">TMC5130Stepper::RAMPMODE</text>
</a>
</g>
</g>
<!-- Node1&#45;&gt;Node33 -->
<g id="edge32" class="edge"><title>Node1&#45;&gt;Node33</title>
<path fill="none" stroke="midnightblue" d="M255.575,-914.363C251.076,-867.47 232.981,-748.312 163,-687 158.68,-683.215 153.744,-680.149 148.491,-677.669"/>
<polygon fill="midnightblue" stroke="midnightblue" points="252.095,-914.749 256.432,-924.416 259.07,-914.155 252.095,-914.749"/>
</g>
<!-- Node34 -->
<g id="node34" class="node"><title>Node34</title>
<g id="a_node34"><a xlink:href="class_t_m_c2160_stepper.html#a2c1c3d971ddcb20408441c08538b3103" target="_top" xlink:title=" ">
<polygon fill="white" stroke="black" points="0,-620.5 0,-639.5 163,-639.5 163,-620.5 0,-620.5"/>
<text text-anchor="middle" x="81.5" y="-627.5" font-family="Helvetica,sans-Serif" font-size="10.00">TMC2160Stepper::SHORT_CONF</text>
</a>
</g>
</g>
<!-- Node1&#45;&gt;Node34 -->
<g id="edge33" class="edge"><title>Node1&#45;&gt;Node34</title>
<path fill="none" stroke="midnightblue" d="M256.708,-914.227C254.819,-862.408 242.264,-721.665 163,-649 158.872,-645.216 154.133,-642.143 149.066,-639.654"/>
<polygon fill="midnightblue" stroke="midnightblue" points="253.214,-914.486 256.978,-924.39 260.211,-914.301 253.214,-914.486"/>
</g>
<!-- Node35 -->
<g id="node35" class="node"><title>Node35</title>
<g id="a_node35"><a xlink:href="class_t_m_c5130_stepper.html#a38d528af6d7b58454a72e92a56cda141" target="_top" xlink:title=" ">
<polygon fill="white" stroke="black" points="3,-582.5 3,-601.5 160,-601.5 160,-582.5 3,-582.5"/>
<text text-anchor="middle" x="81.5" y="-589.5" font-family="Helvetica,sans-Serif" font-size="10.00">TMC5130Stepper::SLAVECONF</text>
</a>
</g>
</g>
<!-- Node1&#45;&gt;Node35 -->
<g id="edge34" class="edge"><title>Node1&#45;&gt;Node35</title>
<path fill="none" stroke="midnightblue" d="M257.603,-914.292C258.184,-858.026 251.739,-695.29 163,-611 159.044,-607.242 154.488,-604.181 149.598,-601.693"/>
<polygon fill="midnightblue" stroke="midnightblue" points="254.103,-914.278 257.407,-924.344 261.101,-914.414 254.103,-914.278"/>
</g>
<!-- Node36 -->
<g id="node36" class="node"><title>Node36</title>
<g id="a_node36"><a xlink:href="class_t_m_c5130_stepper.html#a1c045a7bfa9df7c52456d934057f4609" target="_top" xlink:title=" ">
<polygon fill="white" stroke="black" points="7,-544.5 7,-563.5 156,-563.5 156,-544.5 7,-544.5"/>
<text text-anchor="middle" x="81.5" y="-551.5" font-family="Helvetica,sans-Serif" font-size="10.00">TMC5130Stepper::SW_MODE</text>
</a>
</g>
</g>
<!-- Node1&#45;&gt;Node36 -->
<g id="edge35" class="edge"><title>Node1&#45;&gt;Node36</title>
<path fill="none" stroke="midnightblue" d="M254.497,-913.898C245.553,-845.286 213.023,-621.888 163,-573 159.098,-569.186 154.58,-566.086 149.716,-563.571"/>
<polygon fill="midnightblue" stroke="midnightblue" points="251.072,-914.712 255.811,-924.188 258.016,-913.825 251.072,-914.712"/>
</g>
<!-- Node37 -->
<g id="node37" class="node"><title>Node37</title>
<g id="a_node37"><a xlink:href="class_t_m_c2130_stepper.html#afb052ee9867eb46c7b58455845fa0a94" target="_top" xlink:title=" ">
<polygon fill="white" stroke="black" points="4,-506.5 4,-525.5 159,-525.5 159,-506.5 4,-506.5"/>
<text text-anchor="middle" x="81.5" y="-513.5" font-family="Helvetica,sans-Serif" font-size="10.00">TMC2130Stepper::TCOOLTHRS</text>
</a>
</g>
</g>
<!-- Node1&#45;&gt;Node37 -->
<g id="edge36" class="edge"><title>Node1&#45;&gt;Node37</title>
<path fill="none" stroke="midnightblue" d="M255.06,-914.184C247.533,-841.363 217.921,-589.944 163,-535 159.244,-531.242 154.892,-528.174 150.195,-525.674"/>
<polygon fill="midnightblue" stroke="midnightblue" points="251.592,-914.682 256.079,-924.28 258.557,-913.979 251.592,-914.682"/>
</g>
<!-- Node38 -->
<g id="node38" class="node"><title>Node38</title>
<g id="a_node38"><a xlink:href="class_t_m_c2130_stepper.html#a99721a32fb8c378a67de175a90a87ce5" target="_top" xlink:title=" ">
<polygon fill="white" stroke="black" points="18.5,-468.5 18.5,-487.5 144.5,-487.5 144.5,-468.5 18.5,-468.5"/>
<text text-anchor="middle" x="81.5" y="-475.5" font-family="Helvetica,sans-Serif" font-size="10.00">TMC2130Stepper::THIGH</text>
</a>
</g>
</g>
<!-- Node1&#45;&gt;Node38 -->
<g id="edge37" class="edge"><title>Node1&#45;&gt;Node38</title>
<path fill="none" stroke="midnightblue" d="M255.467,-913.826C249.161,-836.173 222.682,-557.882 163,-497 157.873,-491.77 151.594,-487.87 144.826,-484.977"/>
<polygon fill="midnightblue" stroke="midnightblue" points="252.006,-914.449 256.281,-924.143 258.984,-913.898 252.006,-914.449"/>
</g>
<!-- Node39 -->
<g id="node39" class="node"><title>Node39</title>
<g id="a_node39"><a xlink:href="class_t_m_c5130_stepper.html#a1972058b4840e283b0db82607a177b8a" target="_top" xlink:title=" ">
<polygon fill="white" stroke="black" points="22.5,-419 22.5,-449 140.5,-449 140.5,-419 22.5,-419"/>
<text text-anchor="start" x="30.5" y="-437" font-family="Helvetica,sans-Serif" font-size="10.00">TMC5130Stepper::TMC</text>
<text text-anchor="middle" x="81.5" y="-426" font-family="Helvetica,sans-Serif" font-size="10.00">_OUTPUT</text>
</a>
</g>
</g>
<!-- Node1&#45;&gt;Node39 -->
<g id="edge38" class="edge"><title>Node1&#45;&gt;Node39</title>
<path fill="none" stroke="midnightblue" d="M255.702,-913.803C250.068,-832.224 225.156,-528.103 163,-459 156.932,-452.254 149.082,-447.31 140.668,-443.689"/>
<polygon fill="midnightblue" stroke="midnightblue" points="252.236,-914.426 256.396,-924.17 259.221,-913.959 252.236,-914.426"/>
</g>
<!-- Node40 -->
<g id="node40" class="node"><title>Node40</title>
<g id="a_node40"><a xlink:href="class_t_m_c5130_stepper.html#a9918c9f49ed95343377f84523a43f857" target="_top" xlink:title=" ">
<polygon fill="white" stroke="black" points="5,-380.5 5,-399.5 158,-399.5 158,-380.5 5,-380.5"/>
<text text-anchor="middle" x="81.5" y="-387.5" font-family="Helvetica,sans-Serif" font-size="10.00">TMC5130Stepper::TZEROWAIT</text>
</a>
</g>
</g>
<!-- Node1&#45;&gt;Node40 -->
<g id="edge39" class="edge"><title>Node1&#45;&gt;Node40</title>
<path fill="none" stroke="midnightblue" d="M256.239,-914.152C252.525,-827.742 233.501,-485.315 163,-410 158.965,-405.69 154.158,-402.247 148.929,-399.504"/>
<polygon fill="midnightblue" stroke="midnightblue" points="252.753,-914.545 256.658,-924.394 259.747,-914.259 252.753,-914.545"/>
</g>
<!-- Node41 -->
<g id="node41" class="node"><title>Node41</title>
<g id="a_node41"><a xlink:href="class_t_m_c5130_stepper.html#a6ceb1527d739c48d14e0267411260fa1" target="_top" xlink:title=" ">
<polygon fill="white" stroke="black" points="26.5,-342.5 26.5,-361.5 136.5,-361.5 136.5,-342.5 26.5,-342.5"/>
<text text-anchor="middle" x="81.5" y="-349.5" font-family="Helvetica,sans-Serif" font-size="10.00">TMC5130Stepper::V1</text>
</a>
</g>
</g>
<!-- Node1&#45;&gt;Node41 -->
<g id="edge40" class="edge"><title>Node1&#45;&gt;Node41</title>
<path fill="none" stroke="midnightblue" d="M256.529,-914.097C253.981,-823.638 238.97,-452.185 163,-371 155.936,-363.451 146.477,-358.645 136.531,-355.637"/>
<polygon fill="midnightblue" stroke="midnightblue" points="253.031,-914.212 256.792,-924.117 260.029,-914.028 253.031,-914.212"/>
</g>
<!-- Node42 -->
<g id="node42" class="node"><title>Node42</title>
<g id="a_node42"><a xlink:href="class_t_m_c2130_stepper.html#a29941b78911da3748a9be6f616e2456d" target="_top" xlink:title=" ">
<polygon fill="white" stroke="black" points="14,-304.5 14,-323.5 149,-323.5 149,-304.5 14,-304.5"/>
<text text-anchor="middle" x="81.5" y="-311.5" font-family="Helvetica,sans-Serif" font-size="10.00">TMC2130Stepper::VDCMIN</text>
</a>
</g>
</g>
<!-- Node1&#45;&gt;Node42 -->
<g id="edge41" class="edge"><title>Node1&#45;&gt;Node42</title>
<path fill="none" stroke="midnightblue" d="M256.762,-914.274C255.224,-820.463 243.943,-420.397 163,-333 158.999,-328.681 154.216,-325.257 149.002,-322.554"/>
<polygon fill="midnightblue" stroke="midnightblue" points="253.264,-914.42 256.908,-924.369 260.263,-914.319 253.264,-914.42"/>
</g>
<!-- Node43 -->
<g id="node43" class="node"><title>Node43</title>
<g id="a_node43"><a xlink:href="class_t_m_c5130_stepper.html#a79b391d7358f5dc7402dac2ae7bf7ee6" target="_top" xlink:title=" ">
<polygon fill="white" stroke="black" points="19,-266.5 19,-285.5 144,-285.5 144,-266.5 19,-266.5"/>
<text text-anchor="middle" x="81.5" y="-273.5" font-family="Helvetica,sans-Serif" font-size="10.00">TMC5130Stepper::VMAX</text>
</a>
</g>
</g>
<!-- Node1&#45;&gt;Node43 -->
<g id="edge42" class="edge"><title>Node1&#45;&gt;Node43</title>
<path fill="none" stroke="midnightblue" d="M256.962,-913.969C256.36,-816.025 248.789,-388.478 163,-295 157.854,-289.393 151.388,-285.293 144.37,-282.317"/>
<polygon fill="midnightblue" stroke="midnightblue" points="253.463,-914.25 257.006,-924.235 260.463,-914.22 253.463,-914.25"/>
</g>
<!-- Node44 -->
<g id="node44" class="node"><title>Node44</title>
<g id="a_node44"><a xlink:href="class_t_m_c5130_stepper.html#aa2928a4fa71e3f39a475c02fc8354f04" target="_top" xlink:title=" ">
<polygon fill="white" stroke="black" points="14,-228.5 14,-247.5 149,-247.5 149,-228.5 14,-228.5"/>
<text text-anchor="middle" x="81.5" y="-235.5" font-family="Helvetica,sans-Serif" font-size="10.00">TMC5130Stepper::VSTART</text>
</a>
</g>
</g>
<!-- Node1&#45;&gt;Node44 -->
<g id="edge43" class="edge"><title>Node1&#45;&gt;Node44</title>
<path fill="none" stroke="midnightblue" d="M257.144,-914.064C257.458,-812.841 253.761,-356.701 163,-257 159.037,-252.646 154.278,-249.2 149.081,-246.482"/>
<polygon fill="midnightblue" stroke="midnightblue" points="253.644,-914.128 257.094,-924.145 260.644,-914.163 253.644,-914.128"/>
</g>
<!-- Node45 -->
<g id="node45" class="node"><title>Node45</title>
<g id="a_node45"><a xlink:href="class_t_m_c5130_stepper.html#a6907df333d262328b7a6e2832c3590a0" target="_top" xlink:title=" ">
<polygon fill="white" stroke="black" points="16,-190.5 16,-209.5 147,-209.5 147,-190.5 16,-190.5"/>
<text text-anchor="middle" x="81.5" y="-197.5" font-family="Helvetica,sans-Serif" font-size="10.00">TMC5130Stepper::VSTOP</text>
</a>
</g>
</g>
<!-- Node1&#45;&gt;Node45 -->
<g id="edge44" class="edge"><title>Node1&#45;&gt;Node45</title>
<path fill="none" stroke="midnightblue" d="M257.308,-913.948C258.496,-809.118 258.678,-324.872 163,-219 158.571,-214.099 153.135,-210.346 147.196,-207.487"/>
<polygon fill="midnightblue" stroke="midnightblue" points="253.806,-914.053 257.175,-924.098 260.805,-914.145 253.806,-914.053"/>
</g>
<!-- Node46 -->
<g id="node46" class="node"><title>Node46</title>
<g id="a_node46"><a xlink:href="class_t_m_c5130_stepper.html#a9f07f02f86043e2f6838d981c8640a85" target="_top" xlink:title=" ">
<polygon fill="white" stroke="black" points="2.5,-152.5 2.5,-171.5 160.5,-171.5 160.5,-152.5 2.5,-152.5"/>
<text text-anchor="middle" x="81.5" y="-159.5" font-family="Helvetica,sans-Serif" font-size="10.00">TMC5130Stepper::X_COMPARE</text>
</a>
</g>
</g>
<!-- Node1&#45;&gt;Node46 -->
<g id="edge45" class="edge"><title>Node1&#45;&gt;Node46</title>
<path fill="none" stroke="midnightblue" d="M255.863,-914.179C249.188,-800.786 213.631,-237.394 163,-181 159.642,-177.26 155.698,-174.188 151.39,-171.67"/>
<polygon fill="midnightblue" stroke="midnightblue" points="252.388,-914.704 256.463,-924.484 259.376,-914.298 252.388,-914.704"/>
</g>
<!-- Node47 -->
<g id="node47" class="node"><title>Node47</title>
<g id="a_node47"><a xlink:href="class_t_m_c5130_stepper.html#a96df3216ae2849d3ad7252ea9f27edbb" target="_top" xlink:title=" ">
<polygon fill="white" stroke="black" points="17.5,-114.5 17.5,-133.5 145.5,-133.5 145.5,-114.5 17.5,-114.5"/>
<text text-anchor="middle" x="81.5" y="-121.5" font-family="Helvetica,sans-Serif" font-size="10.00">TMC5130Stepper::X_ENC</text>
</a>
</g>
</g>
<!-- Node1&#45;&gt;Node47 -->
<g id="edge46" class="edge"><title>Node1&#45;&gt;Node47</title>
<path fill="none" stroke="midnightblue" d="M255.992,-914.267C249.869,-797.729 216.136,-202.537 163,-143 158.219,-137.643 152.235,-133.654 145.7,-130.703"/>
<polygon fill="midnightblue" stroke="midnightblue" points="252.498,-914.474 256.512,-924.279 259.489,-914.111 252.498,-914.474"/>
</g>
<!-- Node48 -->
<g id="node48" class="node"><title>Node48</title>
<g id="a_node48"><a xlink:href="class_t_m_c5130_stepper.html#a94b69d8b20ac649d53eba036afdbbe41" target="_top" xlink:title=" ">
<polygon fill="white" stroke="black" points="11.5,-76.5 11.5,-95.5 151.5,-95.5 151.5,-76.5 11.5,-76.5"/>
<text text-anchor="middle" x="81.5" y="-83.5" font-family="Helvetica,sans-Serif" font-size="10.00">TMC5130Stepper::XACTUAL</text>
</a>
</g>
</g>
<!-- Node1&#45;&gt;Node48 -->
<g id="edge47" class="edge"><title>Node1&#45;&gt;Node48</title>
<path fill="none" stroke="midnightblue" d="M256.096,-914.083C250.465,-793.822 218.602,-167.638 163,-105 159.664,-101.241 155.735,-98.1553 151.438,-95.6282"/>
<polygon fill="midnightblue" stroke="midnightblue" points="252.614,-914.547 256.572,-924.375 259.606,-914.224 252.614,-914.547"/>
</g>
<!-- Node49 -->
<g id="node49" class="node"><title>Node49</title>
<g id="a_node49"><a xlink:href="class_t_m_c2130_stepper.html#a879bf37d4369f73fe5e238c8181d1dd1" target="_top" xlink:title=" ">
<polygon fill="white" stroke="black" points="13,-38.5 13,-57.5 150,-57.5 150,-38.5 13,-38.5"/>
<text text-anchor="middle" x="81.5" y="-45.5" font-family="Helvetica,sans-Serif" font-size="10.00">TMC2130Stepper::XDIRECT</text>
</a>
</g>
</g>
<!-- Node1&#45;&gt;Node49 -->
<g id="edge48" class="edge"><title>Node1&#45;&gt;Node49</title>
<path fill="none" stroke="midnightblue" d="M256.194,-913.942C251.043,-790.112 221.077,-132.751 163,-67 159.388,-62.9103 155.074,-59.616 150.347,-56.9713"/>
<polygon fill="midnightblue" stroke="midnightblue" points="252.709,-914.374 256.615,-924.222 259.703,-914.087 252.709,-914.374"/>
</g>
<!-- Node50 -->
<g id="node50" class="node"><title>Node50</title>
<g id="a_node50"><a xlink:href="class_t_m_c5130_stepper.html#ac6db9621fa769994b3b6481ba3043b4b" target="_top" xlink:title=" ">
<polygon fill="white" stroke="black" points="11,-0.5 11,-19.5 152,-19.5 152,-0.5 11,-0.5"/>
<text text-anchor="middle" x="81.5" y="-7.5" font-family="Helvetica,sans-Serif" font-size="10.00">TMC5130Stepper::XTARGET</text>
</a>
</g>
</g>
<!-- Node1&#45;&gt;Node50 -->
<g id="edge49" class="edge"><title>Node1&#45;&gt;Node50</title>
<path fill="none" stroke="midnightblue" d="M256.301,-914.252C251.663,-788.085 223.627,-97.9495 163,-29 159.681,-25.2257 155.765,-22.1282 151.477,-19.5931"/>
<polygon fill="midnightblue" stroke="midnightblue" points="252.808,-914.516 256.668,-924.383 259.804,-914.263 252.808,-914.516"/>
</g>
</g>
</svg>
