<?xml version="1.0" encoding="UTF-8" standalone="no"?>
<!DOCTYPE svg PUBLIC "-//W3C//DTD SVG 1.1//EN"
 "http://www.w3.org/Graphics/SVG/1.1/DTD/svg11.dtd">
<!-- Generated by graphviz version 2.38.0 (20140413.2041)
 -->
<!-- Title: TMC2208Stepper::IOIN Pages: 1 -->
<svg width="659pt" height="140pt"
 viewBox="0.00 0.00 659.00 139.53" xmlns="http://www.w3.org/2000/svg" xmlns:xlink="http://www.w3.org/1999/xlink">
<g id="graph0" class="graph" transform="scale(1 1) rotate(0) translate(4 135.532)">
<title>TMC2208Stepper::IOIN</title>
<polygon fill="white" stroke="none" points="-4,4 -4,-135.532 655,-135.532 655,4 -4,4"/>
<!-- Node1 -->
<g id="node1" class="node"><title>Node1</title>
<g id="a_node1"><a xlink:title=" ">
<polygon fill="#bfbfbf" stroke="black" points="0,-4.03223 0,-23.0322 116,-23.0322 116,-4.03223 0,-4.03223"/>
<text text-anchor="middle" x="58" y="-11.0322" font-family="Helvetica,sans-Serif" font-size="10.00">TMC2208Stepper::IOIN</text>
</a>
</g>
</g>
<!-- Node2 -->
<g id="node2" class="node"><title>Node2</title>
<g id="a_node2"><a xlink:href="class_t_m_c2208_stepper.html#a2fae2050849c3ab7968012def8ea1cc5" target="_top" xlink:title=" ">
<polygon fill="white" stroke="black" points="152,-33.0322 152,-52.0322 268,-52.0322 268,-33.0322 152,-33.0322"/>
<text text-anchor="middle" x="210" y="-40.0322" font-family="Helvetica,sans-Serif" font-size="10.00">TMC2208Stepper::read</text>
</a>
</g>
</g>
<!-- Node1&#45;&gt;Node2 -->
<g id="edge1" class="edge"><title>Node1&#45;&gt;Node2</title>
<path fill="none" stroke="midnightblue" d="M108.531,-23.1083C121.784,-25.6705 136.241,-28.4655 149.952,-31.1163"/>
<polygon fill="midnightblue" stroke="midnightblue" points="149.294,-34.5538 159.776,-33.0157 150.623,-27.681 149.294,-34.5538"/>
</g>
<!-- Node3 -->
<g id="node3" class="node"><title>Node3</title>
<g id="a_node3"><a xlink:href="class_t_m_c2208_stepper.html#a3e1f6a10aa1e3e41dc2594dbe1ea8a1d" target="_top" xlink:title=" ">
<polygon fill="white" stroke="black" points="304,-90.0322 304,-109.032 470,-109.032 470,-90.0322 304,-90.0322"/>
<text text-anchor="middle" x="387" y="-97.0322" font-family="Helvetica,sans-Serif" font-size="10.00">TMC2208Stepper::_sendDatagram</text>
</a>
</g>
</g>
<!-- Node2&#45;&gt;Node3 -->
<g id="edge2" class="edge"><title>Node2&#45;&gt;Node3</title>
<path fill="none" stroke="midnightblue" d="M231.7,-52.1104C250.317,-60.4533 278.568,-72.4476 304,-80.5322 312.008,-83.0779 320.555,-85.4385 328.996,-87.5688"/>
<polygon fill="midnightblue" stroke="midnightblue" points="328.272,-90.9948 338.816,-89.9611 329.929,-84.1937 328.272,-90.9948"/>
</g>
<!-- Node7 -->
<g id="node7" class="node"><title>Node7</title>
<g id="a_node7"><a xlink:href="class_s_switch.html#a6ff09d0850d551571dc333fb74ff8628" target="_top" xlink:title=" ">
<polygon fill="white" stroke="black" points="345.5,-52.0322 345.5,-71.0322 428.5,-71.0322 428.5,-52.0322 345.5,-52.0322"/>
<text text-anchor="middle" x="387" y="-59.0322" font-family="Helvetica,sans-Serif" font-size="10.00">SSwitch::active</text>
</a>
</g>
</g>
<!-- Node2&#45;&gt;Node7 -->
<g id="edge7" class="edge"><title>Node2&#45;&gt;Node7</title>
<path fill="none" stroke="midnightblue" d="M268.302,-48.7535C289.975,-51.1066 314.465,-53.7656 335.472,-56.0463"/>
<polygon fill="midnightblue" stroke="midnightblue" points="335.158,-59.5327 345.477,-57.1326 335.913,-52.5736 335.158,-59.5327"/>
</g>
<!-- Node8 -->
<g id="node8" class="node"><title>Node8</title>
<g id="a_node8"><a xlink:href="class_t_m_c2208_stepper.html#a409c19fa6b052a370a317d061bf9af4e" target="_top" xlink:title=" ">
<polygon fill="white" stroke="black" points="319,-14.0322 319,-33.0322 455,-33.0322 455,-14.0322 319,-14.0322"/>
<text text-anchor="middle" x="387" y="-21.0322" font-family="Helvetica,sans-Serif" font-size="10.00">TMC2208Stepper::calcCRC</text>
</a>
</g>
</g>
<!-- Node2&#45;&gt;Node8 -->
<g id="edge8" class="edge"><title>Node2&#45;&gt;Node8</title>
<path fill="none" stroke="midnightblue" d="M268.302,-36.3109C281.17,-34.9138 295.032,-33.4088 308.567,-31.9392"/>
<polygon fill="midnightblue" stroke="midnightblue" points="309.269,-35.3836 318.833,-30.8246 308.514,-28.4245 309.269,-35.3836"/>
</g>
<!-- Node4 -->
<g id="node4" class="node"><title>Node4</title>
<g id="a_node4"><a xlink:href="class_t_m_c2208_stepper.html#a4ec5d2b2f5a31259c7aba1f3208d63b8" target="_top" xlink:title=" ">
<polygon fill="white" stroke="black" points="520.5,-11.0322 520.5,-30.0322 636.5,-30.0322 636.5,-11.0322 520.5,-11.0322"/>
<text text-anchor="middle" x="578.5" y="-18.0322" font-family="Helvetica,sans-Serif" font-size="10.00">TMC2208Stepper::ms2</text>
</a>
</g>
</g>
<!-- Node3&#45;&gt;Node4 -->
<g id="edge3" class="edge"><title>Node3&#45;&gt;Node4</title>
<path fill="none" stroke="midnightblue" d="M444.242,-89.9247C453.083,-87.4489 461.952,-84.3643 470,-80.5322 488.301,-71.8185 488.624,-62.9698 506,-52.5322 517.591,-45.5698 530.963,-39.1888 542.984,-33.9877"/>
<polygon fill="midnightblue" stroke="midnightblue" points="544.414,-37.1834 552.276,-30.081 541.701,-30.7305 544.414,-37.1834"/>
</g>
<!-- Node5 -->
<g id="node5" class="node"><title>Node5</title>
<g id="a_node5"><a xlink:href="class_t_m_c2208_stepper.html#ae561da4ec7c40830e97bf4dc8cf700fb" target="_top" xlink:title=" ">
<polygon fill="white" stroke="black" points="506,-112.032 506,-131.032 651,-131.032 651,-112.032 506,-112.032"/>
<text text-anchor="middle" x="578.5" y="-119.032" font-family="Helvetica,sans-Serif" font-size="10.00">TMC2208Stepper::serial_read</text>
</a>
</g>
</g>
<!-- Node3&#45;&gt;Node5 -->
<g id="edge5" class="edge"><title>Node3&#45;&gt;Node5</title>
<path fill="none" stroke="midnightblue" d="M470.015,-109.054C478.571,-110.047 487.268,-111.057 495.819,-112.05"/>
<polygon fill="midnightblue" stroke="midnightblue" points="495.438,-115.529 505.775,-113.205 496.245,-108.575 495.438,-115.529"/>
</g>
<!-- Node6 -->
<g id="node6" class="node"><title>Node6</title>
<g id="a_node6"><a xlink:href="class_t_m_c2208_stepper.html#a7dd83313385079099b0622957786a979" target="_top" xlink:title=" ">
<polygon fill="white" stroke="black" points="518,-62.5322 518,-92.5322 639,-92.5322 639,-62.5322 518,-62.5322"/>
<text text-anchor="start" x="526" y="-80.5322" font-family="Helvetica,sans-Serif" font-size="10.00">TMC2208Stepper::serial</text>
<text text-anchor="middle" x="578.5" y="-69.5322" font-family="Helvetica,sans-Serif" font-size="10.00">_write</text>
</a>
</g>
</g>
<!-- Node3&#45;&gt;Node6 -->
<g id="edge6" class="edge"><title>Node3&#45;&gt;Node6</title>
<path fill="none" stroke="midnightblue" d="M470.015,-90.0107C482.597,-88.55 495.484,-87.0539 507.767,-85.6279"/>
<polygon fill="midnightblue" stroke="midnightblue" points="508.392,-89.0789 517.922,-84.4489 507.585,-82.1256 508.392,-89.0789"/>
</g>
<!-- Node4&#45;&gt;Node1 -->
<g id="edge4" class="edge"><title>Node4&#45;&gt;Node1</title>
<path fill="none" stroke="midnightblue" d="M524.088,-10.9924C506.881,-8.34632 487.688,-5.84135 470,-4.53223 349.185,4.40943 207.893,-2.4631 126.393,-8.10973"/>
<polygon fill="midnightblue" stroke="midnightblue" points="125.998,-4.62883 116.27,-8.82619 126.492,-11.6114 125.998,-4.62883"/>
</g>
</g>
</svg>
