<?xml version="1.0" encoding="UTF-8" standalone="no"?>
<!DOCTYPE svg PUBLIC "-//W3C//DTD SVG 1.1//EN"
 "http://www.w3.org/Graphics/SVG/1.1/DTD/svg11.dtd">
<!-- Generated by graphviz version 2.38.0 (20140413.2041)
 -->
<!-- Title: TMC2160Stepper::IOIN Pages: 1 -->
<svg width="297pt" height="279pt"
 viewBox="0.00 0.00 297.00 279.00" xmlns="http://www.w3.org/2000/svg" xmlns:xlink="http://www.w3.org/1999/xlink">
<g id="graph0" class="graph" transform="scale(1 1) rotate(0) translate(4 275)">
<title>TMC2160Stepper::IOIN</title>
<polygon fill="white" stroke="none" points="-4,4 -4,-275 293,-275 293,4 -4,4"/>
<!-- Node1 -->
<g id="node1" class="node"><title>Node1</title>
<g id="a_node1"><a xlink:title=" ">
<polygon fill="#bfbfbf" stroke="black" points="173,-120.5 173,-139.5 289,-139.5 289,-120.5 173,-120.5"/>
<text text-anchor="middle" x="231" y="-127.5" font-family="Helvetica,sans-Serif" font-size="10.00">TMC2160Stepper::IOIN</text>
</a>
</g>
</g>
<!-- Node2 -->
<g id="node2" class="node"><title>Node2</title>
<g id="a_node2"><a xlink:href="class_t_m_c2160_stepper.html#a30f5e4b356b5a6ce5afa680e7a44b969" target="_top" xlink:title=" ">
<polygon fill="white" stroke="black" points="0,-251.5 0,-270.5 137,-270.5 137,-251.5 0,-251.5"/>
<text text-anchor="middle" x="68.5" y="-258.5" font-family="Helvetica,sans-Serif" font-size="10.00">TMC2160Stepper::dco_cfg6</text>
</a>
</g>
</g>
<!-- Node1&#45;&gt;Node2 -->
<g id="edge1" class="edge"><title>Node1&#45;&gt;Node2</title>
<path fill="none" stroke="midnightblue" d="M219.503,-148.638C204.463,-173.637 174.422,-217.691 137,-242 131.079,-245.847 124.376,-248.925 117.549,-251.387"/>
<polygon fill="midnightblue" stroke="midnightblue" points="222.656,-150.18 224.682,-139.78 216.613,-146.647 222.656,-150.18"/>
</g>
<!-- Node3 -->
<g id="node3" class="node"><title>Node3</title>
<g id="a_node3"><a xlink:href="class_t_m_c2160_stepper.html#a857218511bf02eaada068d1bfd6b4c8d" target="_top" xlink:title=" ">
<polygon fill="white" stroke="black" points="3,-213.5 3,-232.5 134,-232.5 134,-213.5 3,-213.5"/>
<text text-anchor="middle" x="68.5" y="-220.5" font-family="Helvetica,sans-Serif" font-size="10.00">TMC2160Stepper::drv_enn</text>
</a>
</g>
</g>
<!-- Node1&#45;&gt;Node3 -->
<g id="edge2" class="edge"><title>Node1&#45;&gt;Node3</title>
<path fill="none" stroke="midnightblue" d="M213.397,-146.661C195.837,-163.4 166.623,-188.831 137,-204 129.631,-207.773 121.415,-210.882 113.321,-213.414"/>
<polygon fill="midnightblue" stroke="midnightblue" points="215.877,-149.131 220.605,-139.649 210.996,-144.113 215.877,-149.131"/>
</g>
<!-- Node4 -->
<g id="node4" class="node"><title>Node4</title>
<g id="a_node4"><a xlink:href="class_t_m_c2160_stepper.html#a8dbbafbbb879608efd8e37e1ab8d3d7e" target="_top" xlink:title=" ">
<polygon fill="white" stroke="black" points="9,-164 9,-194 128,-194 128,-164 9,-164"/>
<text text-anchor="start" x="17" y="-182" font-family="Helvetica,sans-Serif" font-size="10.00">TMC2160Stepper::enca</text>
<text text-anchor="middle" x="68.5" y="-171" font-family="Helvetica,sans-Serif" font-size="10.00">_dcin_cfg5</text>
</a>
</g>
</g>
<!-- Node1&#45;&gt;Node4 -->
<g id="edge3" class="edge"><title>Node1&#45;&gt;Node4</title>
<path fill="none" stroke="midnightblue" d="M188.917,-142.543C167.53,-149.072 141.226,-157.102 118.754,-163.963"/>
<polygon fill="midnightblue" stroke="midnightblue" points="190.131,-145.831 198.673,-139.564 188.087,-139.137 190.131,-145.831"/>
</g>
<!-- Node5 -->
<g id="node5" class="node"><title>Node5</title>
<g id="a_node5"><a xlink:href="class_t_m_c2160_stepper.html#ac0dd7325f5a470ae0221d158b5303fbf" target="_top" xlink:title=" ">
<polygon fill="white" stroke="black" points="9,-115 9,-145 128,-145 128,-115 9,-115"/>
<text text-anchor="start" x="17" y="-133" font-family="Helvetica,sans-Serif" font-size="10.00">TMC2160Stepper::encb</text>
<text text-anchor="middle" x="68.5" y="-122" font-family="Helvetica,sans-Serif" font-size="10.00">_dcen_cfg4</text>
</a>
</g>
</g>
<!-- Node1&#45;&gt;Node5 -->
<g id="edge4" class="edge"><title>Node1&#45;&gt;Node5</title>
<path fill="none" stroke="midnightblue" d="M162.956,-130C151.433,-130 139.536,-130 128.252,-130"/>
<polygon fill="midnightblue" stroke="midnightblue" points="162.962,-133.5 172.962,-130 162.962,-126.5 162.962,-133.5"/>
</g>
<!-- Node6 -->
<g id="node6" class="node"><title>Node6</title>
<g id="a_node6"><a xlink:href="class_t_m_c2160_stepper.html#a81bb5dde2cee3025f797fc14365b3c92" target="_top" xlink:title=" ">
<polygon fill="white" stroke="black" points="1.5,-76.5 1.5,-95.5 135.5,-95.5 135.5,-76.5 1.5,-76.5"/>
<text text-anchor="middle" x="68.5" y="-83.5" font-family="Helvetica,sans-Serif" font-size="10.00">TMC2160Stepper::refl_step</text>
</a>
</g>
</g>
<!-- Node1&#45;&gt;Node6 -->
<g id="edge5" class="edge"><title>Node1&#45;&gt;Node6</title>
<path fill="none" stroke="midnightblue" d="M185.323,-117.752C159.699,-110.728 128.009,-102.04 104.258,-95.5287"/>
<polygon fill="midnightblue" stroke="midnightblue" points="184.604,-121.184 195.174,-120.453 186.455,-114.433 184.604,-121.184"/>
</g>
<!-- Node7 -->
<g id="node7" class="node"><title>Node7</title>
<g id="a_node7"><a xlink:href="class_t_m_c2160_stepper.html#a0afa417597993d7cb67ee0e56fcb3912" target="_top" xlink:title=" ">
<polygon fill="white" stroke="black" points="5,-38.5 5,-57.5 132,-57.5 132,-38.5 5,-38.5"/>
<text text-anchor="middle" x="68.5" y="-45.5" font-family="Helvetica,sans-Serif" font-size="10.00">TMC2160Stepper::refr_dir</text>
</a>
</g>
</g>
<!-- Node1&#45;&gt;Node7 -->
<g id="edge6" class="edge"><title>Node1&#45;&gt;Node7</title>
<path fill="none" stroke="midnightblue" d="M210.384,-113.945C192.296,-99.8362 164.207,-79.6391 137,-67 128.94,-63.2557 119.988,-60.1019 111.308,-57.5062"/>
<polygon fill="midnightblue" stroke="midnightblue" points="208.405,-116.843 218.413,-120.322 212.759,-111.361 208.405,-116.843"/>
</g>
<!-- Node8 -->
<g id="node8" class="node"><title>Node8</title>
<g id="a_node8"><a xlink:href="class_t_m_c2160_stepper.html#a5cf278ded4a10e6ff92b2011877b4f9d" target="_top" xlink:title=" ">
<polygon fill="white" stroke="black" points="4.5,-0.5 4.5,-19.5 132.5,-19.5 132.5,-0.5 4.5,-0.5"/>
<text text-anchor="middle" x="68.5" y="-7.5" font-family="Helvetica,sans-Serif" font-size="10.00">TMC2160Stepper::version</text>
</a>
</g>
</g>
<!-- Node1&#45;&gt;Node8 -->
<g id="edge7" class="edge"><title>Node1&#45;&gt;Node8</title>
<path fill="none" stroke="midnightblue" d="M218.134,-111.893C202.31,-89.1767 172.174,-50.5892 137,-29 130.671,-25.1153 123.525,-22.0031 116.312,-19.5158"/>
<polygon fill="midnightblue" stroke="midnightblue" points="215.323,-113.984 223.835,-120.293 221.115,-110.053 215.323,-113.984"/>
</g>
</g>
</svg>
