<?xml version="1.0" encoding="UTF-8" standalone="no"?>
<!DOCTYPE svg PUBLIC "-//W3C//DTD SVG 1.1//EN"
 "http://www.w3.org/Graphics/SVG/1.1/DTD/svg11.dtd">
<!-- Generated by graphviz version 2.38.0 (20140413.2041)
 -->
<!-- Title: TMC2130Stepper::CHOPCONF Pages: 1 -->
<!--zoomable 902 -->
<svg id="main" version="1.1" xmlns="http://www.w3.org/2000/svg" xmlns:xlink="http://www.w3.org/1999/xlink" xml:space="preserve" onload="init(evt)">
<style type="text/css"><![CDATA[
.edge:hover path { stroke: red; }
.edge:hover polygon { stroke: red; fill: red; }
]]></style>
<script type="text/javascript"><![CDATA[
var edges = document.getElementsByTagName('g');
if (edges && edges.length) {
  for (var i=0;i<edges.length;i++) {
    if (edges[i].id.substr(0,4)=='edge') {
      edges[i].setAttribute('class','edge');
    }
  }
}
]]></script>
        <defs>
                <circle id="rim" cx="0" cy="0" r="7"/>
                <circle id="rim2" cx="0" cy="0" r="3.5"/>
                <g id="zoomPlus">
                        <use xlink:href="#rim" fill="#404040">
                                <set attributeName="fill" to="#808080" begin="zoomplus.mouseover" end="zoomplus.mouseout"/>
                        </use>
                        <path d="M-4,0h8M0,-4v8" fill="none" stroke="white" stroke-width="1.5" pointer-events="none"/>
                </g>
                <g id="zoomMin">
                        <use xlink:href="#rim" fill="#404040">
                                <set attributeName="fill" to="#808080" begin="zoomminus.mouseover" end="zoomminus.mouseout"/>
                        </use>
                        <path d="M-4,0h8" fill="none" stroke="white" stroke-width="1.5" pointer-events="none"/>
                </g>
                <g id="dirArrow">
                        <path fill="none" stroke="white" stroke-width="1.5" d="M0,-3.0v7 M-2.5,-0.5L0,-3.0L2.5,-0.5"/>
                </g>
               <g id="resetDef">
                       <use xlink:href="#rim2" fill="#404040">
                               <set attributeName="fill" to="#808080" begin="reset.mouseover" end="reset.mouseout"/>
                       </use>
               </g>
        </defs>

<script type="text/javascript">
var viewWidth = 667;
var viewHeight = 902;
var sectionId = 'dynsection-10';
</script>
<script xlink:href="svgpan.js"/>
<svg id="graph" class="graph">
<g id="viewport">
<title>TMC2130Stepper::CHOPCONF</title>
<polygon fill="white" stroke="none" points="-4,4 -4,-898 663,-898 663,4 -4,4"/>
<!-- Node1 -->
<g id="node1" class="node"><title>Node1</title>
<g id="a_node1"><a xlink:title=" ">
<polygon fill="#bfbfbf" stroke="black" points="507,-418.5 507,-437.5 659,-437.5 659,-418.5 507,-418.5"/>
<text text-anchor="middle" x="583" y="-425.5" font-family="Helvetica,sans-Serif" font-size="10.00">TMC2130Stepper::CHOPCONF</text>
</a>
</g>
</g>
<!-- Node2 -->
<g id="node2" class="node"><title>Node2</title>
<g id="a_node2"><a xlink:href="class_t_m_c2130_stepper.html#a2d19f2ad93b00b75ffdcdd73275d2f03" target="_top" xlink:title=" ">
<polygon fill="white" stroke="black" points="166.5,-836.5 166.5,-855.5 287.5,-855.5 287.5,-836.5 166.5,-836.5"/>
<text text-anchor="middle" x="227" y="-843.5" font-family="Helvetica,sans-Serif" font-size="10.00">TMC2130Stepper::begin</text>
</a>
</g>
</g>
<!-- Node1&#45;&gt;Node2 -->
<g id="edge1" class="edge"><title>Node1&#45;&gt;Node2</title>
<path fill="none" stroke="midnightblue" d="M582.183,-447.835C581.607,-508.217 571.289,-691.42 471,-786 456.892,-799.304 344.317,-823.226 277.449,-836.491"/>
<polygon fill="midnightblue" stroke="midnightblue" points="585.683,-447.751 582.195,-437.747 578.683,-447.743 585.683,-447.751"/>
</g>
<!-- Node3 -->
<g id="node3" class="node"><title>Node3</title>
<g id="a_node3"><a xlink:href="class_t_m_c2160_stepper.html#a7ee48b042245ef5b3968b82029d1404c" target="_top" xlink:title=" ">
<polygon fill="white" stroke="black" points="166.5,-798.5 166.5,-817.5 287.5,-817.5 287.5,-798.5 166.5,-798.5"/>
<text text-anchor="middle" x="227" y="-805.5" font-family="Helvetica,sans-Serif" font-size="10.00">TMC2160Stepper::begin</text>
</a>
</g>
</g>
<!-- Node1&#45;&gt;Node3 -->
<g id="edge2" class="edge"><title>Node1&#45;&gt;Node3</title>
<path fill="none" stroke="midnightblue" d="M581.467,-447.802C578.822,-504.32 563.172,-667.664 471,-751 444.402,-775.048 350.634,-791.826 287.662,-800.682"/>
<polygon fill="midnightblue" stroke="midnightblue" points="584.968,-447.829 581.849,-437.703 577.973,-447.564 584.968,-447.829"/>
</g>
<!-- Node5 -->
<g id="node5" class="node"><title>Node5</title>
<g id="a_node5"><a xlink:href="class_t_m_c2130_stepper.html#a141275c7de1c4bbbe7fe27bd785716bc" target="_top" xlink:title=" ">
<polygon fill="white" stroke="black" points="344,-684.5 344,-703.5 460,-703.5 460,-684.5 344,-684.5"/>
<text text-anchor="middle" x="402" y="-691.5" font-family="Helvetica,sans-Serif" font-size="10.00">TMC2130Stepper::chm</text>
</a>
</g>
</g>
<!-- Node1&#45;&gt;Node5 -->
<g id="edge4" class="edge"><title>Node1&#45;&gt;Node5</title>
<path fill="none" stroke="midnightblue" d="M578.973,-447.525C570.694,-494.172 543.269,-612.826 471,-675 466.54,-678.837 461.361,-681.903 455.891,-684.353"/>
<polygon fill="midnightblue" stroke="midnightblue" points="582.447,-447.968 580.645,-437.527 575.543,-446.813 582.447,-447.968"/>
</g>
<!-- Node7 -->
<g id="node7" class="node"><title>Node7</title>
<g id="a_node7"><a xlink:href="class_t_m_c2130_stepper.html#a4eeb04668c41d5f4b7548b521bb82c8c" target="_top" xlink:title=" ">
<polygon fill="white" stroke="black" points="340,-646.5 340,-665.5 464,-665.5 464,-646.5 340,-646.5"/>
<text text-anchor="middle" x="402" y="-653.5" font-family="Helvetica,sans-Serif" font-size="10.00">TMC2130Stepper::dedge</text>
</a>
</g>
</g>
<!-- Node1&#45;&gt;Node7 -->
<g id="edge6" class="edge"><title>Node1&#45;&gt;Node7</title>
<path fill="none" stroke="midnightblue" d="M577.225,-447.559C566.075,-489.006 534.335,-586.042 471,-637 466.225,-640.842 460.721,-643.908 454.955,-646.355"/>
<polygon fill="midnightblue" stroke="midnightblue" points="580.675,-448.196 579.781,-437.639 573.897,-446.449 580.675,-448.196"/>
</g>
<!-- Node9 -->
<g id="node9" class="node"><title>Node9</title>
<g id="a_node9"><a xlink:href="class_t_m_c2130_stepper.html#a90753acc1c350c0d130e67a4bd72ab00" target="_top" xlink:title=" ">
<polygon fill="white" stroke="black" points="338,-608.5 338,-627.5 466,-627.5 466,-608.5 338,-608.5"/>
<text text-anchor="middle" x="402" y="-615.5" font-family="Helvetica,sans-Serif" font-size="10.00">TMC2130Stepper::disfdcc</text>
</a>
</g>
</g>
<!-- Node1&#45;&gt;Node9 -->
<g id="edge8" class="edge"><title>Node1&#45;&gt;Node9</title>
<path fill="none" stroke="midnightblue" d="M574.75,-447.609C560.532,-483.31 525.537,-558.922 471,-599 465.765,-602.847 459.783,-605.916 453.588,-608.363"/>
<polygon fill="midnightblue" stroke="midnightblue" points="578.164,-448.484 578.495,-437.894 571.633,-445.966 578.164,-448.484"/>
</g>
<!-- Node11 -->
<g id="node11" class="node"><title>Node11</title>
<g id="a_node11"><a xlink:href="class_t_m_c2130_stepper.html#a5929db451598d6a16f8e82b37fbf738f" target="_top" xlink:title=" ">
<polygon fill="white" stroke="black" points="339,-570.5 339,-589.5 465,-589.5 465,-570.5 339,-570.5"/>
<text text-anchor="middle" x="402" y="-577.5" font-family="Helvetica,sans-Serif" font-size="10.00">TMC2130Stepper::diss2g</text>
</a>
</g>
</g>
<!-- Node1&#45;&gt;Node11 -->
<g id="edge10" class="edge"><title>Node1&#45;&gt;Node11</title>
<path fill="none" stroke="midnightblue" d="M571.677,-446.43C554.556,-475.284 517.518,-530.927 471,-561 465.029,-564.86 458.274,-567.946 451.395,-570.411"/>
<polygon fill="midnightblue" stroke="midnightblue" points="574.722,-448.155 576.704,-437.747 568.664,-444.647 574.722,-448.155"/>
</g>
<!-- Node13 -->
<g id="node13" class="node"><title>Node13</title>
<g id="a_node13"><a xlink:href="class_t_m_c5160_stepper.html#aa3acb02febd68ad411114089307f198c" target="_top" xlink:title=" ">
<polygon fill="white" stroke="black" points="337,-532.5 337,-551.5 467,-551.5 467,-532.5 337,-532.5"/>
<text text-anchor="middle" x="402" y="-539.5" font-family="Helvetica,sans-Serif" font-size="10.00">TMC5160Stepper::diss2vs</text>
</a>
</g>
</g>
<!-- Node1&#45;&gt;Node13 -->
<g id="edge12" class="edge"><title>Node1&#45;&gt;Node13</title>
<path fill="none" stroke="midnightblue" d="M566.739,-445.002C546.757,-466.257 509.694,-502.352 471,-523 463.862,-526.809 455.885,-529.916 447.976,-532.431"/>
<polygon fill="midnightblue" stroke="midnightblue" points="569.319,-447.367 573.529,-437.645 564.175,-442.619 569.319,-447.367"/>
</g>
<!-- Node15 -->
<g id="node15" class="node"><title>Node15</title>
<g id="a_node15"><a xlink:href="class_t_m_c2130_stepper.html#af9e25628b6e663120fddac28dee776e1" target="_top" xlink:title=" ">
<polygon fill="white" stroke="black" points="342.5,-494.5 342.5,-513.5 461.5,-513.5 461.5,-494.5 342.5,-494.5"/>
<text text-anchor="middle" x="402" y="-501.5" font-family="Helvetica,sans-Serif" font-size="10.00">TMC2130Stepper::hend</text>
</a>
</g>
</g>
<!-- Node1&#45;&gt;Node15 -->
<g id="edge14" class="edge"><title>Node1&#45;&gt;Node15</title>
<path fill="none" stroke="midnightblue" d="M557.215,-442.569C535.152,-455.086 501.709,-472.968 471,-485 461.87,-488.577 451.805,-491.774 442.282,-494.479"/>
<polygon fill="midnightblue" stroke="midnightblue" points="559.002,-445.579 565.933,-437.565 555.517,-439.508 559.002,-445.579"/>
</g>
<!-- Node17 -->
<g id="node17" class="node"><title>Node17</title>
<g id="a_node17"><a xlink:href="class_t_m_c2130_stepper.html#a60ffa69ee70b01e21871a3e1b79d6d18" target="_top" xlink:title=" ">
<polygon fill="white" stroke="black" points="343.5,-456.5 343.5,-475.5 460.5,-475.5 460.5,-456.5 343.5,-456.5"/>
<text text-anchor="middle" x="402" y="-463.5" font-family="Helvetica,sans-Serif" font-size="10.00">TMC2130Stepper::hstrt</text>
</a>
</g>
</g>
<!-- Node1&#45;&gt;Node17 -->
<g id="edge16" class="edge"><title>Node1&#45;&gt;Node17</title>
<path fill="none" stroke="midnightblue" d="M526.976,-439.681C501.592,-445.07 471.839,-451.386 447.844,-456.48"/>
<polygon fill="midnightblue" stroke="midnightblue" points="527.776,-443.089 536.831,-437.589 526.322,-436.242 527.776,-443.089"/>
</g>
<!-- Node19 -->
<g id="node19" class="node"><title>Node19</title>
<g id="a_node19"><a xlink:href="class_t_m_c2130_stepper.html#a546ad69c482d0d33621fac89078966e1" target="_top" xlink:title=" ">
<polygon fill="white" stroke="black" points="341.5,-418.5 341.5,-437.5 462.5,-437.5 462.5,-418.5 341.5,-418.5"/>
<text text-anchor="middle" x="402" y="-425.5" font-family="Helvetica,sans-Serif" font-size="10.00">TMC2130Stepper::intpol</text>
</a>
</g>
</g>
<!-- Node1&#45;&gt;Node19 -->
<g id="edge18" class="edge"><title>Node1&#45;&gt;Node19</title>
<path fill="none" stroke="midnightblue" d="M496.789,-428C485.272,-428 473.66,-428 462.718,-428"/>
<polygon fill="midnightblue" stroke="midnightblue" points="496.866,-431.5 506.866,-428 496.866,-424.5 496.866,-431.5"/>
</g>
<!-- Node21 -->
<g id="node21" class="node"><title>Node21</title>
<g id="a_node21"><a xlink:href="class_t_m_c2130_stepper.html#afb12526e87dba10d1f43fc484d962ec1" target="_top" xlink:title=" ">
<polygon fill="white" stroke="black" points="342.5,-380.5 342.5,-399.5 461.5,-399.5 461.5,-380.5 342.5,-380.5"/>
<text text-anchor="middle" x="402" y="-387.5" font-family="Helvetica,sans-Serif" font-size="10.00">TMC2130Stepper::mres</text>
</a>
</g>
</g>
<!-- Node1&#45;&gt;Node21 -->
<g id="edge20" class="edge"><title>Node1&#45;&gt;Node21</title>
<path fill="none" stroke="midnightblue" d="M526.976,-416.319C501.592,-410.93 471.839,-404.614 447.844,-399.52"/>
<polygon fill="midnightblue" stroke="midnightblue" points="526.322,-419.758 536.831,-418.411 527.776,-412.911 526.322,-419.758"/>
</g>
<!-- Node23 -->
<g id="node23" class="node"><title>Node23</title>
<g id="a_node23"><a xlink:href="class_t_m_c2130_stepper.html#ac62d32ad08be0a34b411bdd5a8489246" target="_top" xlink:title=" ">
<polygon fill="white" stroke="black" points="342.5,-342.5 342.5,-361.5 461.5,-361.5 461.5,-342.5 342.5,-342.5"/>
<text text-anchor="middle" x="402" y="-349.5" font-family="Helvetica,sans-Serif" font-size="10.00">TMC2130Stepper::push</text>
</a>
</g>
</g>
<!-- Node1&#45;&gt;Node23 -->
<g id="edge22" class="edge"><title>Node1&#45;&gt;Node23</title>
<path fill="none" stroke="midnightblue" d="M557.215,-413.431C535.152,-400.914 501.709,-383.032 471,-371 461.87,-367.423 451.805,-364.226 442.282,-361.521"/>
<polygon fill="midnightblue" stroke="midnightblue" points="555.517,-416.492 565.933,-418.435 559.002,-410.421 555.517,-416.492"/>
</g>
<!-- Node24 -->
<g id="node24" class="node"><title>Node24</title>
<g id="a_node24"><a xlink:href="class_t_m_c2160_stepper.html#ae8035a0cb8151d5227d8528e540e637d" target="_top" xlink:title=" ">
<polygon fill="white" stroke="black" points="342.5,-304.5 342.5,-323.5 461.5,-323.5 461.5,-304.5 342.5,-304.5"/>
<text text-anchor="middle" x="402" y="-311.5" font-family="Helvetica,sans-Serif" font-size="10.00">TMC2160Stepper::push</text>
</a>
</g>
</g>
<!-- Node1&#45;&gt;Node24 -->
<g id="edge23" class="edge"><title>Node1&#45;&gt;Node24</title>
<path fill="none" stroke="midnightblue" d="M566.739,-410.998C546.757,-389.743 509.694,-353.648 471,-333 463.862,-329.191 455.885,-326.084 447.976,-323.569"/>
<polygon fill="midnightblue" stroke="midnightblue" points="564.175,-413.381 573.529,-418.355 569.319,-408.633 564.175,-413.381"/>
</g>
<!-- Node25 -->
<g id="node25" class="node"><title>Node25</title>
<g id="a_node25"><a xlink:href="class_t_m_c5130_stepper.html#a55e61f5181d74f26c9d35c54e4436d7a" target="_top" xlink:title=" ">
<polygon fill="white" stroke="black" points="342.5,-266.5 342.5,-285.5 461.5,-285.5 461.5,-266.5 342.5,-266.5"/>
<text text-anchor="middle" x="402" y="-273.5" font-family="Helvetica,sans-Serif" font-size="10.00">TMC5130Stepper::push</text>
</a>
</g>
</g>
<!-- Node1&#45;&gt;Node25 -->
<g id="edge24" class="edge"><title>Node1&#45;&gt;Node25</title>
<path fill="none" stroke="midnightblue" d="M571.677,-409.57C554.556,-380.716 517.518,-325.073 471,-295 465.029,-291.14 458.274,-288.054 451.395,-285.589"/>
<polygon fill="midnightblue" stroke="midnightblue" points="568.664,-411.353 576.704,-418.253 574.722,-407.845 568.664,-411.353"/>
</g>
<!-- Node26 -->
<g id="node26" class="node"><title>Node26</title>
<g id="a_node26"><a xlink:href="class_t_m_c5160_stepper.html#a5a12974304588f9d01898d91ba854b87" target="_top" xlink:title=" ">
<polygon fill="white" stroke="black" points="342.5,-228.5 342.5,-247.5 461.5,-247.5 461.5,-228.5 342.5,-228.5"/>
<text text-anchor="middle" x="402" y="-235.5" font-family="Helvetica,sans-Serif" font-size="10.00">TMC5160Stepper::push</text>
</a>
</g>
</g>
<!-- Node1&#45;&gt;Node26 -->
<g id="edge25" class="edge"><title>Node1&#45;&gt;Node26</title>
<path fill="none" stroke="midnightblue" d="M574.75,-408.391C560.532,-372.69 525.537,-297.078 471,-257 465.765,-253.153 459.783,-250.084 453.588,-247.637"/>
<polygon fill="midnightblue" stroke="midnightblue" points="571.633,-410.034 578.495,-418.106 578.164,-407.516 571.633,-410.034"/>
</g>
<!-- Node27 -->
<g id="node27" class="node"><title>Node27</title>
<g id="a_node27"><a xlink:href="class_t_m_c2130_stepper.html#a63df142506643ae8794abbedf3a30c1d" target="_top" xlink:title=" ">
<polygon fill="white" stroke="black" points="344,-190.5 344,-209.5 460,-209.5 460,-190.5 344,-190.5"/>
<text text-anchor="middle" x="402" y="-197.5" font-family="Helvetica,sans-Serif" font-size="10.00">TMC2130Stepper::rndtf</text>
</a>
</g>
</g>
<!-- Node1&#45;&gt;Node27 -->
<g id="edge26" class="edge"><title>Node1&#45;&gt;Node27</title>
<path fill="none" stroke="midnightblue" d="M577.225,-408.441C566.075,-366.994 534.335,-269.958 471,-219 466.225,-215.158 460.721,-212.092 454.955,-209.645"/>
<polygon fill="midnightblue" stroke="midnightblue" points="573.897,-409.551 579.781,-418.361 580.675,-407.804 573.897,-409.551"/>
</g>
<!-- Node29 -->
<g id="node29" class="node"><title>Node29</title>
<g id="a_node29"><a xlink:href="class_t_m_c2130_stepper.html#acbef562065541bf9c49efd7757220775" target="_top" xlink:title=" ">
<polygon fill="white" stroke="black" points="342.5,-152.5 342.5,-171.5 461.5,-171.5 461.5,-152.5 342.5,-152.5"/>
<text text-anchor="middle" x="402" y="-159.5" font-family="Helvetica,sans-Serif" font-size="10.00">TMC2130Stepper::sync</text>
</a>
</g>
</g>
<!-- Node1&#45;&gt;Node29 -->
<g id="edge28" class="edge"><title>Node1&#45;&gt;Node29</title>
<path fill="none" stroke="midnightblue" d="M578.973,-408.475C570.694,-361.828 543.269,-243.174 471,-181 466.54,-177.163 461.361,-174.097 455.891,-171.647"/>
<polygon fill="midnightblue" stroke="midnightblue" points="575.543,-409.187 580.645,-418.473 582.447,-408.032 575.543,-409.187"/>
</g>
<!-- Node31 -->
<g id="node31" class="node"><title>Node31</title>
<g id="a_node31"><a xlink:href="class_t_m_c2130_stepper.html#ae54d816846ca2103976f490c5ab8e887" target="_top" xlink:title=" ">
<polygon fill="white" stroke="black" points="348,-836.5 348,-855.5 456,-855.5 456,-836.5 348,-836.5"/>
<text text-anchor="middle" x="402" y="-843.5" font-family="Helvetica,sans-Serif" font-size="10.00">TMC2130Stepper::tbl</text>
</a>
</g>
</g>
<!-- Node1&#45;&gt;Node31 -->
<g id="edge30" class="edge"><title>Node1&#45;&gt;Node31</title>
<path fill="none" stroke="midnightblue" d="M582.418,-448.061C582.635,-511.714 574.628,-711.442 471,-822 465.093,-828.303 457.43,-832.951 449.387,-836.38"/>
<polygon fill="midnightblue" stroke="midnightblue" points="585.915,-447.772 582.303,-437.812 578.916,-447.85 585.915,-447.772"/>
</g>
<!-- Node33 -->
<g id="node33" class="node"><title>Node33</title>
<g id="a_node33"><a xlink:href="class_t_m_c2130_stepper.html#ac34bf4add4f669e935f2a91e1b42817c" target="_top" xlink:title=" ">
<polygon fill="white" stroke="black" points="347,-722.5 347,-741.5 457,-741.5 457,-722.5 347,-722.5"/>
<text text-anchor="middle" x="402" y="-729.5" font-family="Helvetica,sans-Serif" font-size="10.00">TMC2130Stepper::toff</text>
</a>
</g>
</g>
<!-- Node1&#45;&gt;Node33 -->
<g id="edge34" class="edge"><title>Node1&#45;&gt;Node33</title>
<path fill="none" stroke="midnightblue" d="M580.262,-447.672C574.631,-499.243 552.231,-639.433 471,-713 466.73,-716.867 461.736,-719.955 456.427,-722.419"/>
<polygon fill="midnightblue" stroke="midnightblue" points="583.761,-447.857 581.27,-437.559 576.795,-447.162 583.761,-447.857"/>
</g>
<!-- Node36 -->
<g id="node36" class="node"><title>Node36</title>
<g id="a_node36"><a xlink:href="class_t_m_c5160_stepper.html#a365f4343bff99bedff934f0647cbaa34" target="_top" xlink:title=" ">
<polygon fill="white" stroke="black" points="345.5,-114.5 345.5,-133.5 458.5,-133.5 458.5,-114.5 345.5,-114.5"/>
<text text-anchor="middle" x="402" y="-121.5" font-family="Helvetica,sans-Serif" font-size="10.00">TMC5160Stepper::tpfd</text>
</a>
</g>
</g>
<!-- Node1&#45;&gt;Node36 -->
<g id="edge39" class="edge"><title>Node1&#45;&gt;Node36</title>
<path fill="none" stroke="midnightblue" d="M580.262,-408.328C574.631,-356.757 552.231,-216.567 471,-143 466.73,-139.133 461.736,-136.045 456.427,-133.581"/>
<polygon fill="midnightblue" stroke="midnightblue" points="576.795,-408.838 581.27,-418.441 583.761,-408.143 576.795,-408.838"/>
</g>
<!-- Node38 -->
<g id="node38" class="node"><title>Node38</title>
<g id="a_node38"><a xlink:href="class_t_m_c2130_stepper.html#a3d1cc1fd7e97ad59f981a70ba1d9f37f" target="_top" xlink:title=" ">
<polygon fill="white" stroke="black" points="333,-76.5 333,-95.5 471,-95.5 471,-76.5 333,-76.5"/>
<text text-anchor="middle" x="402" y="-83.5" font-family="Helvetica,sans-Serif" font-size="10.00">TMC2130Stepper::vhighchm</text>
</a>
</g>
</g>
<!-- Node1&#45;&gt;Node38 -->
<g id="edge41" class="edge"><title>Node1&#45;&gt;Node38</title>
<path fill="none" stroke="midnightblue" d="M581.292,-408.387C578.179,-352.376 561.4,-190.256 471,-105 466.898,-101.131 462.075,-98.0395 456.921,-95.5703"/>
<polygon fill="midnightblue" stroke="midnightblue" points="577.796,-408.567 581.76,-418.393 584.788,-408.24 577.796,-408.567"/>
</g>
<!-- Node40 -->
<g id="node40" class="node"><title>Node40</title>
<g id="a_node40"><a xlink:href="class_t_m_c2130_stepper.html#ae7e437dd00948f511047ea6ee9386718" target="_top" xlink:title=" ">
<polygon fill="white" stroke="black" points="338.5,-38.5 338.5,-57.5 465.5,-57.5 465.5,-38.5 338.5,-38.5"/>
<text text-anchor="middle" x="402" y="-45.5" font-family="Helvetica,sans-Serif" font-size="10.00">TMC2130Stepper::vhighfs</text>
</a>
</g>
</g>
<!-- Node1&#45;&gt;Node40 -->
<g id="edge43" class="edge"><title>Node1&#45;&gt;Node40</title>
<path fill="none" stroke="midnightblue" d="M582.111,-408.14C581.329,-347.653 570.483,-163.945 471,-67 467.05,-63.1503 462.387,-60.067 457.384,-57.5995"/>
<polygon fill="midnightblue" stroke="midnightblue" points="578.612,-408.259 582.158,-418.243 585.612,-408.227 578.612,-408.259"/>
</g>
<!-- Node42 -->
<g id="node42" class="node"><title>Node42</title>
<g id="a_node42"><a xlink:href="class_t_m_c2130_stepper.html#ac3ea3d6f69e5ec03572752e4e25e0392" target="_top" xlink:title=" ">
<polygon fill="white" stroke="black" points="338,-0.5 338,-19.5 466,-19.5 466,-0.5 338,-0.5"/>
<text text-anchor="middle" x="402" y="-7.5" font-family="Helvetica,sans-Serif" font-size="10.00">TMC2130Stepper::vsense</text>
</a>
</g>
</g>
<!-- Node1&#45;&gt;Node42 -->
<g id="edge45" class="edge"><title>Node1&#45;&gt;Node42</title>
<path fill="none" stroke="midnightblue" d="M582.795,-408.224C584.252,-343.813 579.813,-137.936 471,-29 467.188,-25.1841 462.678,-22.1187 457.822,-19.6584"/>
<polygon fill="midnightblue" stroke="midnightblue" points="579.296,-408.143 582.49,-418.245 586.293,-408.356 579.296,-408.143"/>
</g>
<!-- Node4 -->
<g id="node4" class="node"><title>Node4</title>
<g id="a_node4"><a xlink:href="class_t_m_c5130_stepper.html#a897212f81817cdaee4536d642badc149" target="_top" xlink:title=" ">
<polygon fill="white" stroke="black" points="0,-798.5 0,-817.5 121,-817.5 121,-798.5 0,-798.5"/>
<text text-anchor="middle" x="60.5" y="-805.5" font-family="Helvetica,sans-Serif" font-size="10.00">TMC5130Stepper::begin</text>
</a>
</g>
</g>
<!-- Node3&#45;&gt;Node4 -->
<g id="edge3" class="edge"><title>Node3&#45;&gt;Node4</title>
<path fill="none" stroke="midnightblue" d="M156.021,-808C144.374,-808 132.39,-808 121.034,-808"/>
<polygon fill="midnightblue" stroke="midnightblue" points="156.146,-811.5 166.146,-808 156.146,-804.5 156.146,-811.5"/>
</g>
<!-- Node6 -->
<g id="node6" class="node"><title>Node6</title>
<g id="a_node6"><a xlink:href="class_t_m_c2130_stepper.html#a91665a3aa42dd5937a5209a17a788418" target="_top" xlink:title=" ">
<polygon fill="white" stroke="black" points="169,-684.5 169,-703.5 285,-703.5 285,-684.5 169,-684.5"/>
<text text-anchor="middle" x="227" y="-691.5" font-family="Helvetica,sans-Serif" font-size="10.00">TMC2130Stepper::chm</text>
</a>
</g>
</g>
<!-- Node5&#45;&gt;Node6 -->
<g id="edge5" class="edge"><title>Node5&#45;&gt;Node6</title>
<path fill="none" stroke="midnightblue" d="M333.506,-694C317.492,-694 300.564,-694 285.066,-694"/>
<polygon fill="midnightblue" stroke="midnightblue" points="333.874,-697.5 343.874,-694 333.874,-690.5 333.874,-697.5"/>
</g>
<!-- Node8 -->
<g id="node8" class="node"><title>Node8</title>
<g id="a_node8"><a xlink:href="class_t_m_c2130_stepper.html#a529ae6827da49fcf4628a992acbcfe02" target="_top" xlink:title=" ">
<polygon fill="white" stroke="black" points="165,-646.5 165,-665.5 289,-665.5 289,-646.5 165,-646.5"/>
<text text-anchor="middle" x="227" y="-653.5" font-family="Helvetica,sans-Serif" font-size="10.00">TMC2130Stepper::dedge</text>
</a>
</g>
</g>
<!-- Node7&#45;&gt;Node8 -->
<g id="edge7" class="edge"><title>Node7&#45;&gt;Node8</title>
<path fill="none" stroke="midnightblue" d="M329.438,-656C316.101,-656 302.276,-656 289.282,-656"/>
<polygon fill="midnightblue" stroke="midnightblue" points="329.52,-659.5 339.52,-656 329.52,-652.5 329.52,-659.5"/>
</g>
<!-- Node10 -->
<g id="node10" class="node"><title>Node10</title>
<g id="a_node10"><a xlink:href="class_t_m_c2130_stepper.html#aa64ad499ba22a1eb7fcf4d12623f32e4" target="_top" xlink:title=" ">
<polygon fill="white" stroke="black" points="163,-608.5 163,-627.5 291,-627.5 291,-608.5 163,-608.5"/>
<text text-anchor="middle" x="227" y="-615.5" font-family="Helvetica,sans-Serif" font-size="10.00">TMC2130Stepper::disfdcc</text>
</a>
</g>
</g>
<!-- Node9&#45;&gt;Node10 -->
<g id="edge9" class="edge"><title>Node9&#45;&gt;Node10</title>
<path fill="none" stroke="midnightblue" d="M327.503,-618C315.404,-618 302.957,-618 291.14,-618"/>
<polygon fill="midnightblue" stroke="midnightblue" points="327.564,-621.5 337.564,-618 327.563,-614.5 327.564,-621.5"/>
</g>
<!-- Node12 -->
<g id="node12" class="node"><title>Node12</title>
<g id="a_node12"><a xlink:href="class_t_m_c2130_stepper.html#afe6b507d32de6e1613ac3939271417c4" target="_top" xlink:title=" ">
<polygon fill="white" stroke="black" points="164,-570.5 164,-589.5 290,-589.5 290,-570.5 164,-570.5"/>
<text text-anchor="middle" x="227" y="-577.5" font-family="Helvetica,sans-Serif" font-size="10.00">TMC2130Stepper::diss2g</text>
</a>
</g>
</g>
<!-- Node11&#45;&gt;Node12 -->
<g id="edge11" class="edge"><title>Node11&#45;&gt;Node12</title>
<path fill="none" stroke="midnightblue" d="M328.427,-580C315.675,-580 302.508,-580 290.075,-580"/>
<polygon fill="midnightblue" stroke="midnightblue" points="328.543,-583.5 338.543,-580 328.543,-576.5 328.543,-583.5"/>
</g>
<!-- Node14 -->
<g id="node14" class="node"><title>Node14</title>
<g id="a_node14"><a xlink:href="class_t_m_c5160_stepper.html#ac255d90aee670ce1f40ed3106f4b37b8" target="_top" xlink:title=" ">
<polygon fill="white" stroke="black" points="162,-532.5 162,-551.5 292,-551.5 292,-532.5 162,-532.5"/>
<text text-anchor="middle" x="227" y="-539.5" font-family="Helvetica,sans-Serif" font-size="10.00">TMC5160Stepper::diss2vs</text>
</a>
</g>
</g>
<!-- Node13&#45;&gt;Node14 -->
<g id="edge13" class="edge"><title>Node13&#45;&gt;Node14</title>
<path fill="none" stroke="midnightblue" d="M326.258,-542C314.908,-542 303.283,-542 292.184,-542"/>
<polygon fill="midnightblue" stroke="midnightblue" points="326.581,-545.5 336.581,-542 326.581,-538.5 326.581,-545.5"/>
</g>
<!-- Node16 -->
<g id="node16" class="node"><title>Node16</title>
<g id="a_node16"><a xlink:href="class_t_m_c2130_stepper.html#aeaa2be2894fe02a7d7ff9f8eb3fa85a9" target="_top" xlink:title=" ">
<polygon fill="white" stroke="black" points="167.5,-494.5 167.5,-513.5 286.5,-513.5 286.5,-494.5 167.5,-494.5"/>
<text text-anchor="middle" x="227" y="-501.5" font-family="Helvetica,sans-Serif" font-size="10.00">TMC2130Stepper::hend</text>
</a>
</g>
</g>
<!-- Node15&#45;&gt;Node16 -->
<g id="edge15" class="edge"><title>Node15&#45;&gt;Node16</title>
<path fill="none" stroke="midnightblue" d="M332.117,-504C317.013,-504 301.161,-504 286.51,-504"/>
<polygon fill="midnightblue" stroke="midnightblue" points="332.43,-507.5 342.43,-504 332.43,-500.5 332.43,-507.5"/>
</g>
<!-- Node18 -->
<g id="node18" class="node"><title>Node18</title>
<g id="a_node18"><a xlink:href="class_t_m_c2130_stepper.html#a9a596f4925dee519f6c3ee8235830e73" target="_top" xlink:title=" ">
<polygon fill="white" stroke="black" points="168.5,-456.5 168.5,-475.5 285.5,-475.5 285.5,-456.5 168.5,-456.5"/>
<text text-anchor="middle" x="227" y="-463.5" font-family="Helvetica,sans-Serif" font-size="10.00">TMC2130Stepper::hstrt</text>
</a>
</g>
</g>
<!-- Node17&#45;&gt;Node18 -->
<g id="edge17" class="edge"><title>Node17&#45;&gt;Node18</title>
<path fill="none" stroke="midnightblue" d="M333.208,-466C317.483,-466 300.891,-466 285.65,-466"/>
<polygon fill="midnightblue" stroke="midnightblue" points="333.394,-469.5 343.394,-466 333.393,-462.5 333.394,-469.5"/>
</g>
<!-- Node20 -->
<g id="node20" class="node"><title>Node20</title>
<g id="a_node20"><a xlink:href="class_t_m_c2130_stepper.html#aa14fc2a23f001550d8a0d83083e2cc7c" target="_top" xlink:title=" ">
<polygon fill="white" stroke="black" points="166.5,-418.5 166.5,-437.5 287.5,-437.5 287.5,-418.5 166.5,-418.5"/>
<text text-anchor="middle" x="227" y="-425.5" font-family="Helvetica,sans-Serif" font-size="10.00">TMC2130Stepper::intpol</text>
</a>
</g>
</g>
<!-- Node19&#45;&gt;Node20 -->
<g id="edge19" class="edge"><title>Node19&#45;&gt;Node20</title>
<path fill="none" stroke="midnightblue" d="M331.108,-428C316.699,-428 301.652,-428 287.647,-428"/>
<polygon fill="midnightblue" stroke="midnightblue" points="331.463,-431.5 341.463,-428 331.463,-424.5 331.463,-431.5"/>
</g>
<!-- Node22 -->
<g id="node22" class="node"><title>Node22</title>
<g id="a_node22"><a xlink:href="class_t_m_c2130_stepper.html#a8d812cad146d2b0bf1845a20f18b94f8" target="_top" xlink:title=" ">
<polygon fill="white" stroke="black" points="167.5,-380.5 167.5,-399.5 286.5,-399.5 286.5,-380.5 167.5,-380.5"/>
<text text-anchor="middle" x="227" y="-387.5" font-family="Helvetica,sans-Serif" font-size="10.00">TMC2130Stepper::mres</text>
</a>
</g>
</g>
<!-- Node21&#45;&gt;Node22 -->
<g id="edge21" class="edge"><title>Node21&#45;&gt;Node22</title>
<path fill="none" stroke="midnightblue" d="M332.117,-390C317.013,-390 301.161,-390 286.51,-390"/>
<polygon fill="midnightblue" stroke="midnightblue" points="332.43,-393.5 342.43,-390 332.43,-386.5 332.43,-393.5"/>
</g>
<!-- Node28 -->
<g id="node28" class="node"><title>Node28</title>
<g id="a_node28"><a xlink:href="class_t_m_c2130_stepper.html#a21e2a3e8384b97f0730e824064cdb35c" target="_top" xlink:title=" ">
<polygon fill="white" stroke="black" points="169,-190.5 169,-209.5 285,-209.5 285,-190.5 169,-190.5"/>
<text text-anchor="middle" x="227" y="-197.5" font-family="Helvetica,sans-Serif" font-size="10.00">TMC2130Stepper::rndtf</text>
</a>
</g>
</g>
<!-- Node27&#45;&gt;Node28 -->
<g id="edge27" class="edge"><title>Node27&#45;&gt;Node28</title>
<path fill="none" stroke="midnightblue" d="M333.506,-200C317.492,-200 300.564,-200 285.066,-200"/>
<polygon fill="midnightblue" stroke="midnightblue" points="333.874,-203.5 343.874,-200 333.874,-196.5 333.874,-203.5"/>
</g>
<!-- Node30 -->
<g id="node30" class="node"><title>Node30</title>
<g id="a_node30"><a xlink:href="class_t_m_c2130_stepper.html#ad1b2c7c9d932e95079dc23fb5f827590" target="_top" xlink:title=" ">
<polygon fill="white" stroke="black" points="167.5,-152.5 167.5,-171.5 286.5,-171.5 286.5,-152.5 167.5,-152.5"/>
<text text-anchor="middle" x="227" y="-159.5" font-family="Helvetica,sans-Serif" font-size="10.00">TMC2130Stepper::sync</text>
</a>
</g>
</g>
<!-- Node29&#45;&gt;Node30 -->
<g id="edge29" class="edge"><title>Node29&#45;&gt;Node30</title>
<path fill="none" stroke="midnightblue" d="M332.117,-162C317.013,-162 301.161,-162 286.51,-162"/>
<polygon fill="midnightblue" stroke="midnightblue" points="332.43,-165.5 342.43,-162 332.43,-158.5 332.43,-165.5"/>
</g>
<!-- Node31&#45;&gt;Node2 -->
<g id="edge31" class="edge"><title>Node31&#45;&gt;Node2</title>
<path fill="none" stroke="midnightblue" d="M337.244,-846C321.069,-846 303.752,-846 287.782,-846"/>
<polygon fill="midnightblue" stroke="midnightblue" points="337.683,-849.5 347.683,-846 337.683,-842.5 337.683,-849.5"/>
</g>
<!-- Node31&#45;&gt;Node3 -->
<g id="edge32" class="edge"><title>Node31&#45;&gt;Node3</title>
<path fill="none" stroke="midnightblue" d="M347.495,-834.247C323.033,-828.874 294.429,-822.591 271.341,-817.52"/>
<polygon fill="midnightblue" stroke="midnightblue" points="346.827,-837.684 357.345,-836.411 348.329,-830.847 346.827,-837.684"/>
</g>
<!-- Node32 -->
<g id="node32" class="node"><title>Node32</title>
<g id="a_node32"><a xlink:href="class_t_m_c2130_stepper.html#ac197c45a9104c0099f523f500080a592" target="_top" xlink:title=" ">
<polygon fill="white" stroke="black" points="173,-874.5 173,-893.5 281,-893.5 281,-874.5 173,-874.5"/>
<text text-anchor="middle" x="227" y="-881.5" font-family="Helvetica,sans-Serif" font-size="10.00">TMC2130Stepper::tbl</text>
</a>
</g>
</g>
<!-- Node31&#45;&gt;Node32 -->
<g id="edge33" class="edge"><title>Node31&#45;&gt;Node32</title>
<path fill="none" stroke="midnightblue" d="M347.495,-857.753C323.033,-863.126 294.429,-869.409 271.341,-874.48"/>
<polygon fill="midnightblue" stroke="midnightblue" points="348.329,-861.153 357.345,-855.589 346.827,-854.316 348.329,-861.153"/>
</g>
<!-- Node33&#45;&gt;Node2 -->
<g id="edge35" class="edge"><title>Node33&#45;&gt;Node2</title>
<path fill="none" stroke="midnightblue" d="M382.643,-748.713C368.952,-761.184 349.795,-778.646 333,-794 316.98,-808.645 315.992,-816.493 297,-827 290.042,-830.85 282.25,-833.962 274.477,-836.465"/>
<polygon fill="midnightblue" stroke="midnightblue" points="385.355,-750.978 390.391,-741.657 380.641,-745.802 385.355,-750.978"/>
</g>
<!-- Node33&#45;&gt;Node3 -->
<g id="edge36" class="edge"><title>Node33&#45;&gt;Node3</title>
<path fill="none" stroke="midnightblue" d="M355.978,-744.993C348.064,-748.079 340.097,-751.74 333,-756 314.39,-767.171 315.992,-778.493 297,-789 290.042,-792.85 282.25,-795.962 274.477,-798.465"/>
<polygon fill="midnightblue" stroke="midnightblue" points="357.344,-748.221 365.543,-741.511 354.949,-741.643 357.344,-748.221"/>
</g>
<!-- Node34 -->
<g id="node34" class="node"><title>Node34</title>
<g id="a_node34"><a xlink:href="class_t_m_c2130_stepper.html#aca7a615bce307a631a6118fd95cc9195" target="_top" xlink:title=" ">
<polygon fill="white" stroke="black" points="157,-760.5 157,-779.5 297,-779.5 297,-760.5 157,-760.5"/>
<text text-anchor="middle" x="227" y="-767.5" font-family="Helvetica,sans-Serif" font-size="10.00">TMC2130Stepper::isEnabled</text>
</a>
</g>
</g>
<!-- Node33&#45;&gt;Node34 -->
<g id="edge37" class="edge"><title>Node33&#45;&gt;Node34</title>
<path fill="none" stroke="midnightblue" d="M347.495,-743.753C323.033,-749.126 294.429,-755.409 271.341,-760.48"/>
<polygon fill="midnightblue" stroke="midnightblue" points="348.329,-747.153 357.345,-741.589 346.827,-740.316 348.329,-747.153"/>
</g>
<!-- Node35 -->
<g id="node35" class="node"><title>Node35</title>
<g id="a_node35"><a xlink:href="class_t_m_c2130_stepper.html#a5c38cecab1bea081e85481f6ea107d42" target="_top" xlink:title=" ">
<polygon fill="white" stroke="black" points="172,-722.5 172,-741.5 282,-741.5 282,-722.5 172,-722.5"/>
<text text-anchor="middle" x="227" y="-729.5" font-family="Helvetica,sans-Serif" font-size="10.00">TMC2130Stepper::toff</text>
</a>
</g>
</g>
<!-- Node33&#45;&gt;Node35 -->
<g id="edge38" class="edge"><title>Node33&#45;&gt;Node35</title>
<path fill="none" stroke="midnightblue" d="M336.638,-732C318.684,-732 299.366,-732 282.071,-732"/>
<polygon fill="midnightblue" stroke="midnightblue" points="336.736,-735.5 346.736,-732 336.736,-728.5 336.736,-735.5"/>
</g>
<!-- Node37 -->
<g id="node37" class="node"><title>Node37</title>
<g id="a_node37"><a xlink:href="class_t_m_c5160_stepper.html#a19fc280a63f1b02a10cbb856ad234042" target="_top" xlink:title=" ">
<polygon fill="white" stroke="black" points="170.5,-114.5 170.5,-133.5 283.5,-133.5 283.5,-114.5 170.5,-114.5"/>
<text text-anchor="middle" x="227" y="-121.5" font-family="Helvetica,sans-Serif" font-size="10.00">TMC5160Stepper::tpfd</text>
</a>
</g>
</g>
<!-- Node36&#45;&gt;Node37 -->
<g id="edge40" class="edge"><title>Node36&#45;&gt;Node37</title>
<path fill="none" stroke="midnightblue" d="M334.93,-124C317.989,-124 299.939,-124 283.586,-124"/>
<polygon fill="midnightblue" stroke="midnightblue" points="335.309,-127.5 345.309,-124 335.309,-120.5 335.309,-127.5"/>
</g>
<!-- Node39 -->
<g id="node39" class="node"><title>Node39</title>
<g id="a_node39"><a xlink:href="class_t_m_c2130_stepper.html#af74b9a8b6aefa620712c37eb3047d016" target="_top" xlink:title=" ">
<polygon fill="white" stroke="black" points="158,-76.5 158,-95.5 296,-95.5 296,-76.5 158,-76.5"/>
<text text-anchor="middle" x="227" y="-83.5" font-family="Helvetica,sans-Serif" font-size="10.00">TMC2130Stepper::vhighchm</text>
</a>
</g>
</g>
<!-- Node38&#45;&gt;Node39 -->
<g id="edge42" class="edge"><title>Node38&#45;&gt;Node39</title>
<path fill="none" stroke="midnightblue" d="M322.412,-86C313.649,-86 304.778,-86 296.161,-86"/>
<polygon fill="midnightblue" stroke="midnightblue" points="322.626,-89.5001 332.626,-86 322.626,-82.5001 322.626,-89.5001"/>
</g>
<!-- Node41 -->
<g id="node41" class="node"><title>Node41</title>
<g id="a_node41"><a xlink:href="class_t_m_c2130_stepper.html#a5ccd627d68726c34f0e9b270d1311bf9" target="_top" xlink:title=" ">
<polygon fill="white" stroke="black" points="163.5,-38.5 163.5,-57.5 290.5,-57.5 290.5,-38.5 163.5,-38.5"/>
<text text-anchor="middle" x="227" y="-45.5" font-family="Helvetica,sans-Serif" font-size="10.00">TMC2130Stepper::vhighfs</text>
</a>
</g>
</g>
<!-- Node40&#45;&gt;Node41 -->
<g id="edge44" class="edge"><title>Node40&#45;&gt;Node41</title>
<path fill="none" stroke="midnightblue" d="M327.776,-48C315.411,-48 302.674,-48 290.61,-48"/>
<polygon fill="midnightblue" stroke="midnightblue" points="328.054,-51.5001 338.054,-48 328.054,-44.5001 328.054,-51.5001"/>
</g>
<!-- Node43 -->
<g id="node43" class="node"><title>Node43</title>
<g id="a_node43"><a xlink:href="class_t_m_c2130_stepper.html#a772d9c8a49b16d52735ce63df554f56d" target="_top" xlink:title=" ">
<polygon fill="white" stroke="black" points="163,-0.5 163,-19.5 291,-19.5 291,-0.5 163,-0.5"/>
<text text-anchor="middle" x="227" y="-7.5" font-family="Helvetica,sans-Serif" font-size="10.00">TMC2130Stepper::vsense</text>
</a>
</g>
</g>
<!-- Node42&#45;&gt;Node43 -->
<g id="edge46" class="edge"><title>Node42&#45;&gt;Node43</title>
<path fill="none" stroke="midnightblue" d="M327.503,-10C315.404,-10 302.957,-10 291.14,-10"/>
<polygon fill="midnightblue" stroke="midnightblue" points="327.564,-13.5001 337.564,-10 327.563,-6.5001 327.564,-13.5001"/>
</g>
</g>
</svg>
        <g id="navigator" transform="translate(0 0)" fill="#404254">
                <rect fill="#f2f5e9" fill-opacity="0.5" stroke="#606060" stroke-width=".5" x="0" y="0" width="60" height="60"/>
                <use id="zoomplus" xlink:href="#zoomPlus" x="17" y="9" onmousedown="handleZoom(evt,'in')"/>
                <use id="zoomminus" xlink:href="#zoomMin" x="42" y="9" onmousedown="handleZoom(evt,'out')"/>
                <use id="reset" xlink:href="#resetDef" x="30" y="36" onmousedown="handleReset()"/>
                <g id="arrowUp" xlink:href="#dirArrow" transform="translate(30 24)" onmousedown="handlePan(0,-1)">
                  <use xlink:href="#rim" fill="#404040">
                        <set attributeName="fill" to="#808080" begin="arrowUp.mouseover" end="arrowUp.mouseout"/>
                  </use>
                  <path fill="none" stroke="white" stroke-width="1.5" d="M0,-3.0v7 M-2.5,-0.5L0,-3.0L2.5,-0.5"/>
                </g>
                <g id="arrowRight" xlink:href="#dirArrow" transform="rotate(90) translate(36 -43)" onmousedown="handlePan(1,0)">
                  <use xlink:href="#rim" fill="#404040">
                        <set attributeName="fill" to="#808080" begin="arrowRight.mouseover" end="arrowRight.mouseout"/>
                  </use>
                  <path fill="none" stroke="white" stroke-width="1.5" d="M0,-3.0v7 M-2.5,-0.5L0,-3.0L2.5,-0.5"/>
                </g>
                <g id="arrowDown" xlink:href="#dirArrow" transform="rotate(180) translate(-30 -48)" onmousedown="handlePan(0,1)">
                  <use xlink:href="#rim" fill="#404040">
                        <set attributeName="fill" to="#808080" begin="arrowDown.mouseover" end="arrowDown.mouseout"/>
                  </use>
                  <path fill="none" stroke="white" stroke-width="1.5" d="M0,-3.0v7 M-2.5,-0.5L0,-3.0L2.5,-0.5"/>
                </g>
                <g id="arrowLeft" xlink:href="#dirArrow" transform="rotate(270) translate(-36 17)" onmousedown="handlePan(-1,0)">
                  <use xlink:href="#rim" fill="#404040">
                        <set attributeName="fill" to="#808080" begin="arrowLeft.mouseover" end="arrowLeft.mouseout"/>
                  </use>
                  <path fill="none" stroke="white" stroke-width="1.5" d="M0,-3.0v7 M-2.5,-0.5L0,-3.0L2.5,-0.5"/>
                </g>
        </g>
        <svg viewBox="0 0 15 15" width="100%" height="30px" preserveAspectRatio="xMaxYMin meet">
         <g id="arrow_out" transform="scale(0.3 0.3)">
          <a xlink:href="class_t_m_c2130_stepper_a67541b27d97ce45f175e9f6e4a2d0bff_icgraph_org.svg" target="_base">
           <rect id="button" ry="5" rx="5" y="6" x="6" height="38" width="38"
                fill="#f2f5e9" fill-opacity="0.5" stroke="#606060" stroke-width="1.0"/>
           <path id="arrow"
             d="M 11.500037,31.436501 C 11.940474,20.09759 22.043105,11.32322 32.158766,21.979434 L 37.068811,17.246167 C 37.068811,17.246167 37.088388,32 37.088388,32 L 22.160133,31.978069 C 22.160133,31.978069 26.997745,27.140456 26.997745,27.140456 C 18.528582,18.264221 13.291696,25.230495 11.500037,31.436501 z"
             style="fill:#404040;"/>
          </a>
         </g>
        </svg>
</svg>
