<?xml version="1.0" encoding="UTF-8" standalone="no"?>
<!DOCTYPE svg PUBLIC "-//W3C//DTD SVG 1.1//EN"
 "http://www.w3.org/Graphics/SVG/1.1/DTD/svg11.dtd">
<!-- Generated by graphviz version 2.38.0 (20140413.2041)
 -->
<!-- Title: TMC2660Stepper::DRVSTATUS Pages: 1 -->
<svg width="506pt" height="85pt"
 viewBox="0.00 0.00 506.00 85.00" xmlns="http://www.w3.org/2000/svg" xmlns:xlink="http://www.w3.org/1999/xlink">
<g id="graph0" class="graph" transform="scale(1 1) rotate(0) translate(4 81)">
<title>TMC2660Stepper::DRVSTATUS</title>
<polygon fill="white" stroke="none" points="-4,4 -4,-81 502,-81 502,4 -4,4"/>
<!-- Node1 -->
<g id="node1" class="node"><title>Node1</title>
<g id="a_node1"><a xlink:title=" ">
<polygon fill="#bfbfbf" stroke="black" points="0,-38.5 0,-57.5 155,-57.5 155,-38.5 0,-38.5"/>
<text text-anchor="middle" x="77.5" y="-45.5" font-family="Helvetica,sans-Serif" font-size="10.00">TMC2660Stepper::DRVSTATUS</text>
</a>
</g>
</g>
<!-- Node2 -->
<g id="node2" class="node"><title>Node2</title>
<g id="a_node2"><a xlink:href="class_t_m_c2660_stepper.html#a4fa131ecb1e0e0436abff079c44eee5b" target="_top" xlink:title=" ">
<polygon fill="white" stroke="black" points="191,-57.5 191,-76.5 310,-76.5 310,-57.5 191,-57.5"/>
<text text-anchor="middle" x="250.5" y="-64.5" font-family="Helvetica,sans-Serif" font-size="10.00">TMC2660Stepper::rdsel</text>
</a>
</g>
</g>
<!-- Node1&#45;&gt;Node2 -->
<g id="edge1" class="edge"><title>Node1&#45;&gt;Node2</title>
<path fill="none" stroke="midnightblue" d="M155.496,-56.5551C163.941,-57.4934 172.498,-58.4442 180.833,-59.3703"/>
<polygon fill="midnightblue" stroke="midnightblue" points="180.541,-62.8594 190.866,-60.4852 181.314,-55.9022 180.541,-62.8594"/>
</g>
<!-- Node3 -->
<g id="node3" class="node"><title>Node3</title>
<g id="a_node3"><a xlink:href="class_t_m_c2660_stepper.html#aba43e2af829abee9e029bdd43bde5f61" target="_top" xlink:title=" ">
<polygon fill="white" stroke="black" points="192.5,-19.5 192.5,-38.5 308.5,-38.5 308.5,-19.5 192.5,-19.5"/>
<text text-anchor="middle" x="250.5" y="-26.5" font-family="Helvetica,sans-Serif" font-size="10.00">TMC2660Stepper::read</text>
</a>
</g>
</g>
<!-- Node1&#45;&gt;Node3 -->
<g id="edge2" class="edge"><title>Node1&#45;&gt;Node3</title>
<path fill="none" stroke="midnightblue" d="M155.496,-39.4449C164.416,-38.4538 173.461,-37.4488 182.237,-36.4737"/>
<polygon fill="midnightblue" stroke="midnightblue" points="182.84,-39.9283 192.392,-35.3453 182.067,-32.9711 182.84,-39.9283"/>
</g>
<!-- Node4 -->
<g id="node4" class="node"><title>Node4</title>
<g id="a_node4"><a xlink:href="class_t_m_c2660_stepper.html#a63505ee4078e1f060a2ccecc30f228bd" target="_top" xlink:title=" ">
<polygon fill="white" stroke="black" points="346,-38.5 346,-57.5 498,-57.5 498,-38.5 346,-38.5"/>
<text text-anchor="middle" x="422" y="-45.5" font-family="Helvetica,sans-Serif" font-size="10.00">TMC2660Stepper::switchCSpin</text>
</a>
</g>
</g>
<!-- Node3&#45;&gt;Node4 -->
<g id="edge3" class="edge"><title>Node3&#45;&gt;Node4</title>
<path fill="none" stroke="midnightblue" d="M308.885,-35.4325C317.631,-36.4129 326.812,-37.4421 335.997,-38.4717"/>
<polygon fill="midnightblue" stroke="midnightblue" points="335.618,-41.951 345.945,-39.5868 336.398,-34.9945 335.618,-41.951"/>
</g>
<!-- Node5 -->
<g id="node5" class="node"><title>Node5</title>
<g id="a_node5"><a xlink:href="class_s_w___s_p_i_class.html#af260fdc0af3f1312b106483161e559c3" target="_top" xlink:title=" ">
<polygon fill="white" stroke="black" points="363.5,-0.5 363.5,-19.5 480.5,-19.5 480.5,-0.5 363.5,-0.5"/>
<text text-anchor="middle" x="422" y="-7.5" font-family="Helvetica,sans-Serif" font-size="10.00">SW_SPIClass::transfer</text>
</a>
</g>
</g>
<!-- Node3&#45;&gt;Node5 -->
<g id="edge4" class="edge"><title>Node3&#45;&gt;Node5</title>
<path fill="none" stroke="midnightblue" d="M308.885,-22.5675C323.165,-20.9667 338.606,-19.2359 353.33,-17.5854"/>
<polygon fill="midnightblue" stroke="midnightblue" points="353.838,-21.0505 363.386,-16.4582 353.058,-14.0941 353.838,-21.0505"/>
</g>
</g>
</svg>
