<?xml version="1.0" encoding="UTF-8" standalone="no"?>
<!DOCTYPE svg PUBLIC "-//W3C//DTD SVG 1.1//EN"
 "http://www.w3.org/Graphics/SVG/1.1/DTD/svg11.dtd">
<!-- Generated by graphviz version 2.38.0 (20140413.2041)
 -->
<!-- Title: TMC2208Stepper::index_otpw Pages: 1 -->
<svg width="1009pt" height="156pt"
 viewBox="0.00 0.00 1009.00 156.41" xmlns="http://www.w3.org/2000/svg" xmlns:xlink="http://www.w3.org/1999/xlink">
<g id="graph0" class="graph" transform="scale(1 1) rotate(0) translate(4 152.405)">
<title>TMC2208Stepper::index_otpw</title>
<polygon fill="white" stroke="none" points="-4,4 -4,-152.405 1005,-152.405 1005,4 -4,4"/>
<!-- Node1 -->
<g id="node1" class="node"><title>Node1</title>
<g id="a_node1"><a xlink:title=" ">
<polygon fill="#bfbfbf" stroke="black" points="0,-46.9052 0,-65.9052 146,-65.9052 146,-46.9052 0,-46.9052"/>
<text text-anchor="middle" x="73" y="-53.9052" font-family="Helvetica,sans-Serif" font-size="10.00">TMC2208Stepper::index_otpw</text>
</a>
</g>
</g>
<!-- Node2 -->
<g id="node2" class="node"><title>Node2</title>
<g id="a_node2"><a xlink:href="class_t_m_c2208_stepper.html#a549db4f962d4ae698dda33ef9a708e33" target="_top" xlink:title=" ">
<polygon fill="white" stroke="black" points="182,-46.9052 182,-65.9052 314,-65.9052 314,-46.9052 182,-46.9052"/>
<text text-anchor="middle" x="248" y="-53.9052" font-family="Helvetica,sans-Serif" font-size="10.00">TMC2208Stepper::GCONF</text>
</a>
</g>
</g>
<!-- Node1&#45;&gt;Node2 -->
<g id="edge1" class="edge"><title>Node1&#45;&gt;Node2</title>
<path fill="none" stroke="midnightblue" d="M146.115,-56.4052C154.552,-56.4052 163.177,-56.4052 171.656,-56.4052"/>
<polygon fill="midnightblue" stroke="midnightblue" points="171.904,-59.9053 181.904,-56.4052 171.904,-52.9053 171.904,-59.9053"/>
</g>
<!-- Node3 -->
<g id="node3" class="node"><title>Node3</title>
<g id="a_node3"><a xlink:href="class_t_m_c2208_stepper.html#a2fae2050849c3ab7968012def8ea1cc5" target="_top" xlink:title=" ">
<polygon fill="white" stroke="black" points="350,-46.9052 350,-65.9052 466,-65.9052 466,-46.9052 350,-46.9052"/>
<text text-anchor="middle" x="408" y="-53.9052" font-family="Helvetica,sans-Serif" font-size="10.00">TMC2208Stepper::read</text>
</a>
</g>
</g>
<!-- Node2&#45;&gt;Node3 -->
<g id="edge2" class="edge"><title>Node2&#45;&gt;Node3</title>
<path fill="none" stroke="midnightblue" d="M314.177,-56.4052C322.517,-56.4052 331.069,-56.4052 339.445,-56.4052"/>
<polygon fill="midnightblue" stroke="midnightblue" points="339.55,-59.9053 349.55,-56.4052 339.55,-52.9053 339.55,-59.9053"/>
</g>
<!-- Node4 -->
<g id="node4" class="node"><title>Node4</title>
<g id="a_node4"><a xlink:href="class_t_m_c2208_stepper.html#a3e1f6a10aa1e3e41dc2594dbe1ea8a1d" target="_top" xlink:title=" ">
<polygon fill="white" stroke="black" points="502,-103.905 502,-122.905 668,-122.905 668,-103.905 502,-103.905"/>
<text text-anchor="middle" x="585" y="-110.905" font-family="Helvetica,sans-Serif" font-size="10.00">TMC2208Stepper::_sendDatagram</text>
</a>
</g>
</g>
<!-- Node3&#45;&gt;Node4 -->
<g id="edge3" class="edge"><title>Node3&#45;&gt;Node4</title>
<path fill="none" stroke="midnightblue" d="M429.7,-65.9833C448.317,-74.3262 476.568,-86.3205 502,-94.4052 510.008,-96.9508 518.555,-99.3114 526.996,-101.442"/>
<polygon fill="midnightblue" stroke="midnightblue" points="526.272,-104.868 536.816,-103.834 527.929,-98.0666 526.272,-104.868"/>
</g>
<!-- Node9 -->
<g id="node9" class="node"><title>Node9</title>
<g id="a_node9"><a xlink:href="class_s_switch.html#a6ff09d0850d551571dc333fb74ff8628" target="_top" xlink:title=" ">
<polygon fill="white" stroke="black" points="543.5,-65.9052 543.5,-84.9052 626.5,-84.9052 626.5,-65.9052 543.5,-65.9052"/>
<text text-anchor="middle" x="585" y="-72.9052" font-family="Helvetica,sans-Serif" font-size="10.00">SSwitch::active</text>
</a>
</g>
</g>
<!-- Node3&#45;&gt;Node9 -->
<g id="edge9" class="edge"><title>Node3&#45;&gt;Node9</title>
<path fill="none" stroke="midnightblue" d="M466.302,-62.6265C487.975,-64.9796 512.465,-67.6385 533.472,-69.9193"/>
<polygon fill="midnightblue" stroke="midnightblue" points="533.158,-73.4056 543.477,-71.0055 533.913,-66.4465 533.158,-73.4056"/>
</g>
<!-- Node10 -->
<g id="node10" class="node"><title>Node10</title>
<g id="a_node10"><a xlink:href="class_t_m_c2208_stepper.html#a409c19fa6b052a370a317d061bf9af4e" target="_top" xlink:title=" ">
<polygon fill="white" stroke="black" points="517,-27.9052 517,-46.9052 653,-46.9052 653,-27.9052 517,-27.9052"/>
<text text-anchor="middle" x="585" y="-34.9052" font-family="Helvetica,sans-Serif" font-size="10.00">TMC2208Stepper::calcCRC</text>
</a>
</g>
</g>
<!-- Node3&#45;&gt;Node10 -->
<g id="edge10" class="edge"><title>Node3&#45;&gt;Node10</title>
<path fill="none" stroke="midnightblue" d="M466.302,-50.1839C479.17,-48.7867 493.032,-47.2817 506.567,-45.8121"/>
<polygon fill="midnightblue" stroke="midnightblue" points="507.269,-49.2566 516.833,-44.6976 506.514,-42.2975 507.269,-49.2566"/>
</g>
<!-- Node5 -->
<g id="node5" class="node"><title>Node5</title>
<g id="a_node5"><a xlink:href="class_t_m_c2208_stepper.html#a4ec5d2b2f5a31259c7aba1f3208d63b8" target="_top" xlink:title=" ">
<polygon fill="white" stroke="black" points="718.5,-128.905 718.5,-147.905 834.5,-147.905 834.5,-128.905 718.5,-128.905"/>
<text text-anchor="middle" x="776.5" y="-135.905" font-family="Helvetica,sans-Serif" font-size="10.00">TMC2208Stepper::ms2</text>
</a>
</g>
</g>
<!-- Node4&#45;&gt;Node5 -->
<g id="edge4" class="edge"><title>Node4&#45;&gt;Node5</title>
<path fill="none" stroke="midnightblue" d="M658.182,-122.928C674.64,-125.099 692.062,-127.397 708.301,-129.54"/>
<polygon fill="midnightblue" stroke="midnightblue" points="707.868,-133.013 718.24,-130.851 708.784,-126.073 707.868,-133.013"/>
</g>
<!-- Node7 -->
<g id="node7" class="node"><title>Node7</title>
<g id="a_node7"><a xlink:href="class_t_m_c2208_stepper.html#ae561da4ec7c40830e97bf4dc8cf700fb" target="_top" xlink:title=" ">
<polygon fill="white" stroke="black" points="704,-90.9052 704,-109.905 849,-109.905 849,-90.9052 704,-90.9052"/>
<text text-anchor="middle" x="776.5" y="-97.9052" font-family="Helvetica,sans-Serif" font-size="10.00">TMC2208Stepper::serial_read</text>
</a>
</g>
</g>
<!-- Node4&#45;&gt;Node7 -->
<g id="edge7" class="edge"><title>Node4&#45;&gt;Node7</title>
<path fill="none" stroke="midnightblue" d="M668.015,-107.779C676.478,-107.198 685.078,-106.608 693.54,-106.028"/>
<polygon fill="midnightblue" stroke="midnightblue" points="694.038,-109.502 703.775,-105.326 693.559,-102.518 694.038,-109.502"/>
</g>
<!-- Node8 -->
<g id="node8" class="node"><title>Node8</title>
<g id="a_node8"><a xlink:href="class_t_m_c2208_stepper.html#a7dd83313385079099b0622957786a979" target="_top" xlink:title=" ">
<polygon fill="white" stroke="black" points="716,-41.4052 716,-71.4052 837,-71.4052 837,-41.4052 716,-41.4052"/>
<text text-anchor="start" x="724" y="-59.4052" font-family="Helvetica,sans-Serif" font-size="10.00">TMC2208Stepper::serial</text>
<text text-anchor="middle" x="776.5" y="-48.4052" font-family="Helvetica,sans-Serif" font-size="10.00">_write</text>
</a>
</g>
</g>
<!-- Node4&#45;&gt;Node8 -->
<g id="edge8" class="edge"><title>Node4&#45;&gt;Node8</title>
<path fill="none" stroke="midnightblue" d="M631.793,-103.808C643.658,-101.045 656.367,-97.8399 668,-94.4052 684.315,-89.5878 687.971,-87.1015 704,-81.4052 710.017,-79.2668 716.325,-77.0401 722.595,-74.8355"/>
<polygon fill="midnightblue" stroke="midnightblue" points="724.095,-78.0185 732.372,-71.4052 721.778,-71.4133 724.095,-78.0185"/>
</g>
<!-- Node6 -->
<g id="node6" class="node"><title>Node6</title>
<g id="a_node6"><a xlink:href="class_t_m_c2208_stepper.html#a5441dd87d0bcea4ffc309cb012166a57" target="_top" xlink:title=" ">
<polygon fill="white" stroke="black" points="885,-58.9052 885,-77.9052 1001,-77.9052 1001,-58.9052 885,-58.9052"/>
<text text-anchor="middle" x="943" y="-65.9052" font-family="Helvetica,sans-Serif" font-size="10.00">TMC2208Stepper::IOIN</text>
</a>
</g>
</g>
<!-- Node5&#45;&gt;Node6 -->
<g id="edge5" class="edge"><title>Node5&#45;&gt;Node6</title>
<path fill="none" stroke="midnightblue" d="M820.395,-128.814C829.954,-126.18 839.937,-123.032 849,-119.405 873.717,-109.514 900.177,-94.529 918.529,-83.3584"/>
<polygon fill="midnightblue" stroke="midnightblue" points="920.423,-86.3019 927.088,-78.0661 916.742,-80.348 920.423,-86.3019"/>
</g>
<!-- Node6&#45;&gt;Node3 -->
<g id="edge6" class="edge"><title>Node6&#45;&gt;Node3</title>
<path fill="none" stroke="midnightblue" d="M922.963,-58.8176C904.546,-50.0326 875.593,-37.4965 849,-31.4052 698.566,3.05335 653.437,11.3399 502,-18.4052 478.751,-22.9717 453.989,-33.3919 435.866,-42.1675"/>
<polygon fill="midnightblue" stroke="midnightblue" points="433.917,-39.2285 426.532,-46.826 437.043,-45.4917 433.917,-39.2285"/>
</g>
</g>
</svg>
