<?xml version="1.0" encoding="UTF-8" standalone="no"?>
<!DOCTYPE svg PUBLIC "-//W3C//DTD SVG 1.1//EN"
 "http://www.w3.org/Graphics/SVG/1.1/DTD/svg11.dtd">
<!-- Generated by graphviz version 2.38.0 (20140413.2041)
 -->
<!-- Title: TMC2208Stepper::serial_read Pages: 1 -->
<svg width="907pt" height="1341pt"
 viewBox="0.00 0.00 907.00 1341.00" xmlns="http://www.w3.org/2000/svg" xmlns:xlink="http://www.w3.org/1999/xlink">
<g id="graph0" class="graph" transform="scale(1 1) rotate(0) translate(4 1337)">
<title>TMC2208Stepper::serial_read</title>
<polygon fill="white" stroke="none" points="-4,4 -4,-1337 903,-1337 903,4 -4,4"/>
<!-- Node1 -->
<g id="node1" class="node"><title>Node1</title>
<g id="a_node1"><a xlink:title=" ">
<polygon fill="#bfbfbf" stroke="black" points="754,-323.5 754,-342.5 899,-342.5 899,-323.5 754,-323.5"/>
<text text-anchor="middle" x="826.5" y="-330.5" font-family="Helvetica,sans-Serif" font-size="10.00">TMC2208Stepper::serial_read</text>
</a>
</g>
</g>
<!-- Node2 -->
<g id="node2" class="node"><title>Node2</title>
<g id="a_node2"><a xlink:href="class_t_m_c2208_stepper.html#a3e1f6a10aa1e3e41dc2594dbe1ea8a1d" target="_top" xlink:title=" ">
<polygon fill="white" stroke="black" points="552,-323.5 552,-342.5 718,-342.5 718,-323.5 552,-323.5"/>
<text text-anchor="middle" x="635" y="-330.5" font-family="Helvetica,sans-Serif" font-size="10.00">TMC2208Stepper::_sendDatagram</text>
</a>
</g>
</g>
<!-- Node1&#45;&gt;Node2 -->
<g id="edge1" class="edge"><title>Node1&#45;&gt;Node2</title>
<path fill="none" stroke="midnightblue" d="M743.664,-333C735.234,-333 726.666,-333 718.233,-333"/>
<polygon fill="midnightblue" stroke="midnightblue" points="743.858,-336.5 753.858,-333 743.858,-329.5 743.858,-336.5"/>
</g>
<!-- Node3 -->
<g id="node3" class="node"><title>Node3</title>
<g id="a_node3"><a xlink:href="class_t_m_c2208_stepper.html#a2fae2050849c3ab7968012def8ea1cc5" target="_top" xlink:title=" ">
<polygon fill="white" stroke="black" points="400,-627.5 400,-646.5 516,-646.5 516,-627.5 400,-627.5"/>
<text text-anchor="middle" x="458" y="-634.5" font-family="Helvetica,sans-Serif" font-size="10.00">TMC2208Stepper::read</text>
</a>
</g>
</g>
<!-- Node2&#45;&gt;Node3 -->
<g id="edge2" class="edge"><title>Node2&#45;&gt;Node3</title>
<path fill="none" stroke="midnightblue" d="M623.313,-351.566C590.069,-409.314 489.238,-584.473 464.516,-627.418"/>
<polygon fill="midnightblue" stroke="midnightblue" points="626.42,-353.183 628.376,-342.77 620.353,-349.691 626.42,-353.183"/>
</g>
<!-- Node4 -->
<g id="node4" class="node"><title>Node4</title>
<g id="a_node4"><a xlink:href="class_t_m_c2208_stepper.html#aa11281f54c293f3ff2539b1a583682a9" target="_top" xlink:title=" ">
<polygon fill="white" stroke="black" points="200,-971.5 200,-990.5 352,-990.5 352,-971.5 200,-971.5"/>
<text text-anchor="middle" x="276" y="-978.5" font-family="Helvetica,sans-Serif" font-size="10.00">TMC2208Stepper::CHOPCONF</text>
</a>
</g>
</g>
<!-- Node3&#45;&gt;Node4 -->
<g id="edge3" class="edge"><title>Node3&#45;&gt;Node4</title>
<path fill="none" stroke="midnightblue" d="M449.765,-656.202C435.302,-693.885 401.017,-779.789 364,-848 337.811,-896.259 299.767,-949.857 284.124,-971.333"/>
<polygon fill="midnightblue" stroke="midnightblue" points="453.166,-657.107 453.452,-646.516 446.624,-654.617 453.166,-657.107"/>
</g>
<!-- Node28 -->
<g id="node17" class="node"><title>Node28</title>
<g id="a_node17"><a xlink:href="class_t_m_c2208_stepper.html#a2b4643106d473dd0081ec60a3f9b8fdf" target="_top" xlink:title=" ">
<polygon fill="white" stroke="black" points="217,-600 217,-630 335,-630 335,-600 217,-600"/>
<text text-anchor="start" x="225" y="-618" font-family="Helvetica,sans-Serif" font-size="10.00">TMC2208Stepper::DRV</text>
<text text-anchor="middle" x="276" y="-607" font-family="Helvetica,sans-Serif" font-size="10.00">_STATUS</text>
</a>
</g>
</g>
<!-- Node3&#45;&gt;Node28 -->
<g id="edge16" class="edge"><title>Node3&#45;&gt;Node28</title>
<path fill="none" stroke="midnightblue" d="M389.235,-628.718C371.431,-626.542 352.388,-624.214 335.138,-622.106"/>
<polygon fill="midnightblue" stroke="midnightblue" points="389.201,-632.239 399.552,-629.979 390.05,-625.291 389.201,-632.239"/>
</g>
<!-- Node29 -->
<g id="node18" class="node"><title>Node29</title>
<g id="a_node18"><a xlink:href="class_t_m_c2208_stepper.html#a64c51922eb2029e4bbcd4f8a51b6a6ae" target="_top" xlink:title=" ">
<polygon fill="white" stroke="black" points="188,-470.5 188,-489.5 364,-489.5 364,-470.5 188,-470.5"/>
<text text-anchor="middle" x="276" y="-477.5" font-family="Helvetica,sans-Serif" font-size="10.00">TMC2208Stepper::FACTORY_CONF</text>
</a>
</g>
</g>
<!-- Node3&#45;&gt;Node29 -->
<g id="edge17" class="edge"><title>Node3&#45;&gt;Node29</title>
<path fill="none" stroke="midnightblue" d="M438.384,-620.763C401.148,-588.285 318.478,-516.178 288.305,-489.86"/>
<polygon fill="midnightblue" stroke="midnightblue" points="436.174,-623.48 446.011,-627.415 440.776,-618.204 436.174,-623.48"/>
</g>
<!-- Node32 -->
<g id="node21" class="node"><title>Node32</title>
<g id="a_node21"><a xlink:href="class_t_m_c2208_stepper.html#a549db4f962d4ae698dda33ef9a708e33" target="_top" xlink:title=" ">
<polygon fill="white" stroke="black" points="210,-649.5 210,-668.5 342,-668.5 342,-649.5 210,-649.5"/>
<text text-anchor="middle" x="276" y="-656.5" font-family="Helvetica,sans-Serif" font-size="10.00">TMC2208Stepper::GCONF</text>
</a>
</g>
</g>
<!-- Node3&#45;&gt;Node32 -->
<g id="edge20" class="edge"><title>Node3&#45;&gt;Node32</title>
<path fill="none" stroke="midnightblue" d="M389.5,-645.25C373.961,-647.149 357.466,-649.165 342.034,-651.051"/>
<polygon fill="midnightblue" stroke="midnightblue" points="390.05,-648.709 399.552,-644.021 389.201,-641.761 390.05,-648.709"/>
</g>
<!-- Node49 -->
<g id="node31" class="node"><title>Node49</title>
<g id="a_node31"><a xlink:href="class_t_m_c2208_stepper.html#a54eeb50855c3d7dd9e7078a5dc0ebdfc" target="_top" xlink:title=" ">
<polygon fill="white" stroke="black" points="213.5,-432.5 213.5,-451.5 338.5,-451.5 338.5,-432.5 213.5,-432.5"/>
<text text-anchor="middle" x="276" y="-439.5" font-family="Helvetica,sans-Serif" font-size="10.00">TMC2208Stepper::IFCNT</text>
</a>
</g>
</g>
<!-- Node3&#45;&gt;Node49 -->
<g id="edge32" class="edge"><title>Node3&#45;&gt;Node49</title>
<path fill="none" stroke="midnightblue" d="M452.393,-617.1C442.761,-580.177 416.863,-501.174 364,-461 356.615,-455.387 347.912,-451.362 338.915,-448.488"/>
<polygon fill="midnightblue" stroke="midnightblue" points="449.072,-618.252 454.872,-627.118 455.867,-616.57 449.072,-618.252"/>
</g>
<!-- Node50 -->
<g id="node32" class="node"><title>Node50</title>
<g id="a_node32"><a xlink:href="class_t_m_c2208_stepper.html#a5441dd87d0bcea4ffc309cb012166a57" target="_top" xlink:title=" ">
<polygon fill="white" stroke="black" points="218,-209.5 218,-228.5 334,-228.5 334,-209.5 218,-209.5"/>
<text text-anchor="middle" x="276" y="-216.5" font-family="Helvetica,sans-Serif" font-size="10.00">TMC2208Stepper::IOIN</text>
</a>
</g>
</g>
<!-- Node3&#45;&gt;Node50 -->
<g id="edge33" class="edge"><title>Node3&#45;&gt;Node50</title>
<path fill="none" stroke="midnightblue" d="M448.877,-618.136C417.437,-545.127 304.352,-282.517 281.17,-228.684"/>
<polygon fill="midnightblue" stroke="midnightblue" points="445.732,-619.684 452.902,-627.484 452.162,-616.915 445.732,-619.684"/>
</g>
<!-- Node60 -->
<g id="node42" class="node"><title>Node60</title>
<g id="a_node42"><a xlink:href="class_t_m_c2209_stepper.html#aeab582b2f23d4e58f63aec80163b3838" target="_top" xlink:title=" ">
<polygon fill="white" stroke="red" points="218,-1059.5 218,-1078.5 334,-1078.5 334,-1059.5 218,-1059.5"/>
<text text-anchor="middle" x="276" y="-1066.5" font-family="Helvetica,sans-Serif" font-size="10.00">TMC2209Stepper::IOIN</text>
</a>
</g>
</g>
<!-- Node3&#45;&gt;Node60 -->
<g id="edge44" class="edge"><title>Node3&#45;&gt;Node60</title>
<path fill="none" stroke="midnightblue" d="M455.265,-656.975C448.387,-731.532 420.611,-992.165 364,-1049 355.907,-1057.13 345.223,-1062.22 334.122,-1065.37"/>
<polygon fill="midnightblue" stroke="midnightblue" points="458.782,-656.94 456.191,-646.667 451.81,-656.314 458.782,-656.94"/>
</g>
<!-- Node70 -->
<g id="node45" class="node"><title>Node70</title>
<g id="a_node45"><a xlink:href="class_t_m_c2224_stepper.html#aa5fa836e15992bc49e0297ef2126f725" target="_top" xlink:title=" ">
<polygon fill="white" stroke="red" points="218,-171.5 218,-190.5 334,-190.5 334,-171.5 218,-171.5"/>
<text text-anchor="middle" x="276" y="-178.5" font-family="Helvetica,sans-Serif" font-size="10.00">TMC2224Stepper::IOIN</text>
</a>
</g>
</g>
<!-- Node3&#45;&gt;Node70 -->
<g id="edge47" class="edge"><title>Node3&#45;&gt;Node70</title>
<path fill="none" stroke="midnightblue" d="M455.547,-616.798C449.542,-539.041 424.096,-260.417 364,-200 355.932,-191.889 345.259,-186.879 334.161,-183.856"/>
<polygon fill="midnightblue" stroke="midnightblue" points="452.083,-617.418 456.32,-627.129 459.064,-616.895 452.083,-617.418"/>
</g>
<!-- Node80 -->
<g id="node46" class="node"><title>Node80</title>
<g id="a_node46"><a xlink:href="class_t_m_c2208_stepper.html#a0727482b76d6cd679021f4d1677e5b3a" target="_top" xlink:title=" ">
<polygon fill="white" stroke="black" points="201.5,-133.5 201.5,-152.5 350.5,-152.5 350.5,-133.5 201.5,-133.5"/>
<text text-anchor="middle" x="276" y="-140.5" font-family="Helvetica,sans-Serif" font-size="10.00">TMC2208Stepper::OTP_READ</text>
</a>
</g>
</g>
<!-- Node3&#45;&gt;Node80 -->
<g id="edge48" class="edge"><title>Node3&#45;&gt;Node80</title>
<path fill="none" stroke="midnightblue" d="M455.941,-617.181C451.187,-535.809 429.119,-228.546 364,-162 360.107,-158.022 355.589,-154.787 350.698,-152.165"/>
<polygon fill="midnightblue" stroke="midnightblue" points="452.465,-617.704 456.52,-627.492 459.454,-617.311 452.465,-617.704"/>
</g>
<!-- Node81 -->
<g id="node47" class="node"><title>Node81</title>
<g id="a_node47"><a xlink:href="class_t_m_c2208_stepper.html#a3cad83843fc7cc00cbbff7d620690501" target="_top" xlink:title=" ">
<polygon fill="white" stroke="red" points="199,-1147.5 199,-1166.5 353,-1166.5 353,-1147.5 199,-1147.5"/>
<text text-anchor="middle" x="276" y="-1154.5" font-family="Helvetica,sans-Serif" font-size="10.00">TMC2208Stepper::PWM_AUTO</text>
</a>
</g>
</g>
<!-- Node3&#45;&gt;Node81 -->
<g id="edge49" class="edge"><title>Node3&#45;&gt;Node81</title>
<path fill="none" stroke="midnightblue" d="M456.159,-656.824C452.183,-740.947 432.498,-1067.31 364,-1138 360.342,-1141.77 356.121,-1144.88 351.551,-1147.43"/>
<polygon fill="midnightblue" stroke="midnightblue" points="459.666,-656.761 456.62,-646.613 452.673,-656.445 459.666,-656.761"/>
</g>
<!-- Node84 -->
<g id="node48" class="node"><title>Node84</title>
<g id="a_node48"><a xlink:href="class_t_m_c2208_stepper.html#adc81db53cf0291216352b13e5425e67b" target="_top" xlink:title=" ">
<polygon fill="white" stroke="red" points="215,-1098 215,-1128 337,-1128 337,-1098 215,-1098"/>
<text text-anchor="start" x="223" y="-1116" font-family="Helvetica,sans-Serif" font-size="10.00">TMC2208Stepper::PWM</text>
<text text-anchor="middle" x="276" y="-1105" font-family="Helvetica,sans-Serif" font-size="10.00">_SCALE</text>
</a>
</g>
</g>
<!-- Node3&#45;&gt;Node84 -->
<g id="edge50" class="edge"><title>Node3&#45;&gt;Node84</title>
<path fill="none" stroke="midnightblue" d="M455.598,-656.724C449.642,-735.088 423.937,-1023.3 364,-1088 356.738,-1095.84 347.195,-1101.28 337.096,-1105.04"/>
<polygon fill="midnightblue" stroke="midnightblue" points="459.09,-656.967 456.336,-646.736 452.109,-656.451 459.09,-656.967"/>
</g>
<!-- Node87 -->
<g id="node49" class="node"><title>Node87</title>
<g id="a_node49"><a xlink:href="class_t_m_c2208_stepper.html#a7c2e849de2f2933ba9bf8ede8dc53f53" target="_top" xlink:title=" ">
<polygon fill="white" stroke="red" points="201.5,-819.5 201.5,-838.5 350.5,-838.5 350.5,-819.5 201.5,-819.5"/>
<text text-anchor="middle" x="276" y="-826.5" font-family="Helvetica,sans-Serif" font-size="10.00">TMC2208Stepper::PWMCONF</text>
</a>
</g>
</g>
<!-- Node3&#45;&gt;Node87 -->
<g id="edge51" class="edge"><title>Node3&#45;&gt;Node87</title>
<path fill="none" stroke="midnightblue" d="M441.083,-653.979C404.36,-693.149 314.667,-788.822 285.98,-819.421"/>
<polygon fill="midnightblue" stroke="midnightblue" points="443.788,-656.211 448.074,-646.521 438.681,-651.423 443.788,-656.211"/>
</g>
<!-- Node96 -->
<g id="node50" class="node"><title>Node96</title>
<g id="a_node50"><a xlink:href="class_t_m_c2209_stepper.html#ac1d2ec19eb65fd2f14d8d02cc1e7b02e" target="_top" xlink:title=" ">
<polygon fill="white" stroke="black" points="220,-1010 220,-1040 332,-1040 332,-1010 220,-1010"/>
<text text-anchor="start" x="228" y="-1028" font-family="Helvetica,sans-Serif" font-size="10.00">TMC2209Stepper::SG</text>
<text text-anchor="middle" x="276" y="-1017" font-family="Helvetica,sans-Serif" font-size="10.00">_RESULT</text>
</a>
</g>
</g>
<!-- Node3&#45;&gt;Node96 -->
<g id="edge54" class="edge"><title>Node3&#45;&gt;Node96</title>
<path fill="none" stroke="midnightblue" d="M454.484,-657.123C445.508,-725.818 412.957,-949.602 364,-1000 355.459,-1008.79 344.046,-1014.55 332.304,-1018.3"/>
<polygon fill="midnightblue" stroke="midnightblue" points="458.005,-657.185 455.804,-646.821 451.061,-656.295 458.005,-657.185"/>
</g>
<!-- Node5 -->
<g id="node5" class="node"><title>Node5</title>
<g id="a_node5"><a xlink:href="class_t_m_c2208_stepper.html#a5b614f72c27fa1b7ff1c08fe07b17582" target="_top" xlink:title=" ">
<polygon fill="white" stroke="red" points="14,-1085.5 14,-1104.5 138,-1104.5 138,-1085.5 14,-1085.5"/>
<text text-anchor="middle" x="76" y="-1092.5" font-family="Helvetica,sans-Serif" font-size="10.00">TMC2208Stepper::dedge</text>
</a>
</g>
</g>
<!-- Node4&#45;&gt;Node5 -->
<g id="edge4" class="edge"><title>Node4&#45;&gt;Node5</title>
<path fill="none" stroke="midnightblue" d="M194.678,-995.362C192.353,-996.774 190.118,-998.316 188,-1000 158.744,-1023.26 180.867,-1052.26 152,-1076 147.332,-1079.84 141.987,-1082.92 136.348,-1085.38"/>
<polygon fill="midnightblue" stroke="midnightblue" points="196.761,-998.226 204.047,-990.534 193.554,-992.004 196.761,-998.226"/>
</g>
<!-- Node7 -->
<g id="node6" class="node"><title>Node7</title>
<g id="a_node6"><a xlink:href="class_t_m_c2208_stepper.html#a810f59828ccf8b0f55c7274b21ea0255" target="_top" xlink:title=" ">
<polygon fill="white" stroke="red" points="13,-1047.5 13,-1066.5 139,-1066.5 139,-1047.5 13,-1047.5"/>
<text text-anchor="middle" x="76" y="-1054.5" font-family="Helvetica,sans-Serif" font-size="10.00">TMC2208Stepper::diss2g</text>
</a>
</g>
</g>
<!-- Node4&#45;&gt;Node7 -->
<g id="edge5" class="edge"><title>Node4&#45;&gt;Node7</title>
<path fill="none" stroke="midnightblue" d="M200.521,-994.041C196.18,-995.784 191.97,-997.76 188,-1000 167.738,-1011.43 172.07,-1026.23 152,-1038 145.395,-1041.87 138.013,-1044.96 130.528,-1047.43"/>
<polygon fill="midnightblue" stroke="midnightblue" points="201.954,-997.245 210.193,-990.584 199.599,-990.653 201.954,-997.245"/>
</g>
<!-- Node9 -->
<g id="node7" class="node"><title>Node9</title>
<g id="a_node7"><a xlink:href="class_t_m_c2208_stepper.html#afc70b23b3486ae3ea3a3dfa804441148" target="_top" xlink:title=" ">
<polygon fill="white" stroke="red" points="11,-1009.5 11,-1028.5 141,-1028.5 141,-1009.5 11,-1009.5"/>
<text text-anchor="middle" x="76" y="-1016.5" font-family="Helvetica,sans-Serif" font-size="10.00">TMC2208Stepper::diss2vs</text>
</a>
</g>
</g>
<!-- Node4&#45;&gt;Node9 -->
<g id="edge6" class="edge"><title>Node4&#45;&gt;Node9</title>
<path fill="none" stroke="midnightblue" d="M215.134,-992.489C186.883,-997.911 153.564,-1004.31 126.729,-1009.46"/>
<polygon fill="midnightblue" stroke="midnightblue" points="216.131,-995.862 225.292,-990.54 214.811,-988.988 216.131,-995.862"/>
</g>
<!-- Node11 -->
<g id="node8" class="node"><title>Node11</title>
<g id="a_node8"><a xlink:href="class_t_m_c2208_stepper.html#a2f36996a01d99a96f40d179931eb606a" target="_top" xlink:title=" ">
<polygon fill="white" stroke="red" points="16.5,-971.5 16.5,-990.5 135.5,-990.5 135.5,-971.5 16.5,-971.5"/>
<text text-anchor="middle" x="76" y="-978.5" font-family="Helvetica,sans-Serif" font-size="10.00">TMC2208Stepper::hend</text>
</a>
</g>
</g>
<!-- Node4&#45;&gt;Node11 -->
<g id="edge7" class="edge"><title>Node4&#45;&gt;Node11</title>
<path fill="none" stroke="midnightblue" d="M189.816,-981C171.585,-981 152.717,-981 135.75,-981"/>
<polygon fill="midnightblue" stroke="midnightblue" points="189.862,-984.5 199.862,-981 189.862,-977.5 189.862,-984.5"/>
</g>
<!-- Node13 -->
<g id="node9" class="node"><title>Node13</title>
<g id="a_node9"><a xlink:href="class_t_m_c2208_stepper.html#ae86e87a3b5882ac40c6f21348c6793ed" target="_top" xlink:title=" ">
<polygon fill="white" stroke="red" points="17.5,-933.5 17.5,-952.5 134.5,-952.5 134.5,-933.5 17.5,-933.5"/>
<text text-anchor="middle" x="76" y="-940.5" font-family="Helvetica,sans-Serif" font-size="10.00">TMC2208Stepper::hstrt</text>
</a>
</g>
</g>
<!-- Node4&#45;&gt;Node13 -->
<g id="edge8" class="edge"><title>Node4&#45;&gt;Node13</title>
<path fill="none" stroke="midnightblue" d="M215.134,-969.511C186.883,-964.089 153.564,-957.694 126.729,-952.544"/>
<polygon fill="midnightblue" stroke="midnightblue" points="214.811,-973.012 225.292,-971.46 216.131,-966.138 214.811,-973.012"/>
</g>
<!-- Node15 -->
<g id="node10" class="node"><title>Node15</title>
<g id="a_node10"><a xlink:href="class_t_m_c2208_stepper.html#a787cbae9adfab6f79a873310c472e7cd" target="_top" xlink:title=" ">
<polygon fill="white" stroke="red" points="15.5,-895.5 15.5,-914.5 136.5,-914.5 136.5,-895.5 15.5,-895.5"/>
<text text-anchor="middle" x="76" y="-902.5" font-family="Helvetica,sans-Serif" font-size="10.00">TMC2208Stepper::intpol</text>
</a>
</g>
</g>
<!-- Node4&#45;&gt;Node15 -->
<g id="edge9" class="edge"><title>Node4&#45;&gt;Node15</title>
<path fill="none" stroke="midnightblue" d="M248.062,-966.742C223.54,-954.195 186.071,-936.092 152,-924 142,-920.451 131.029,-917.283 120.64,-914.599"/>
<polygon fill="midnightblue" stroke="midnightblue" points="246.614,-969.934 257.104,-971.418 249.829,-963.716 246.614,-969.934"/>
</g>
<!-- Node17 -->
<g id="node11" class="node"><title>Node17</title>
<g id="a_node11"><a xlink:href="class_t_m_c2208_stepper.html#a445b61c23afadb9bd48c3f4d9ef9125e" target="_top" xlink:title=" ">
<polygon fill="white" stroke="red" points="16.5,-1237.5 16.5,-1256.5 135.5,-1256.5 135.5,-1237.5 16.5,-1237.5"/>
<text text-anchor="middle" x="76" y="-1244.5" font-family="Helvetica,sans-Serif" font-size="10.00">TMC2208Stepper::mres</text>
</a>
</g>
</g>
<!-- Node4&#45;&gt;Node17 -->
<g id="edge10" class="edge"><title>Node4&#45;&gt;Node17</title>
<path fill="none" stroke="midnightblue" d="M191.435,-996.705C190.241,-997.743 189.094,-998.84 188,-1000 117.608,-1074.63 221.147,-1152.22 152,-1228 147.473,-1232.96 141.854,-1236.71 135.741,-1239.53"/>
<polygon fill="midnightblue" stroke="midnightblue" points="193.796,-999.322 199.933,-990.686 189.75,-993.61 193.796,-999.322"/>
</g>
<!-- Node19 -->
<g id="node12" class="node"><title>Node19</title>
<g id="a_node12"><a xlink:href="class_t_m_c2208_stepper.html#a8eb0d71fbfeeb24c9092328c44fab7e5" target="_top" xlink:title=" ">
<polygon fill="white" stroke="black" points="16.5,-857.5 16.5,-876.5 135.5,-876.5 135.5,-857.5 16.5,-857.5"/>
<text text-anchor="middle" x="76" y="-864.5" font-family="Helvetica,sans-Serif" font-size="10.00">TMC2208Stepper::push</text>
</a>
</g>
</g>
<!-- Node4&#45;&gt;Node19 -->
<g id="edge11" class="edge"><title>Node4&#45;&gt;Node19</title>
<path fill="none" stroke="midnightblue" d="M258.092,-964.206C235.71,-942.91 194.136,-906.504 152,-886 144.149,-882.18 135.45,-879.074 126.839,-876.568"/>
<polygon fill="midnightblue" stroke="midnightblue" points="255.815,-966.872 265.436,-971.31 260.682,-961.842 255.815,-966.872"/>
</g>
<!-- Node20 -->
<g id="node13" class="node"><title>Node20</title>
<g id="a_node13"><a xlink:href="class_t_m_c2209_stepper.html#a180f4b9a78e526592d946ec12f71982e" target="_top" xlink:title=" ">
<polygon fill="white" stroke="black" points="16.5,-819.5 16.5,-838.5 135.5,-838.5 135.5,-819.5 16.5,-819.5"/>
<text text-anchor="middle" x="76" y="-826.5" font-family="Helvetica,sans-Serif" font-size="10.00">TMC2209Stepper::push</text>
</a>
</g>
</g>
<!-- Node4&#45;&gt;Node20 -->
<g id="edge12" class="edge"><title>Node4&#45;&gt;Node20</title>
<path fill="none" stroke="midnightblue" d="M263.4,-962.835C243.969,-933.935 202.011,-877.725 152,-848 145.418,-844.088 138.05,-840.976 130.57,-838.502"/>
<polygon fill="midnightblue" stroke="midnightblue" points="260.478,-964.761 268.899,-971.19 266.325,-960.912 260.478,-964.761"/>
</g>
<!-- Node21 -->
<g id="node14" class="node"><title>Node21</title>
<g id="a_node14"><a xlink:href="class_t_m_c2208_stepper.html#a84a5b9684c546c5f4549f375048512be" target="_top" xlink:title=" ">
<polygon fill="white" stroke="red" points="22,-1199.5 22,-1218.5 130,-1218.5 130,-1199.5 22,-1199.5"/>
<text text-anchor="middle" x="76" y="-1206.5" font-family="Helvetica,sans-Serif" font-size="10.00">TMC2208Stepper::tbl</text>
</a>
</g>
</g>
<!-- Node4&#45;&gt;Node21 -->
<g id="edge13" class="edge"><title>Node4&#45;&gt;Node21</title>
<path fill="none" stroke="midnightblue" d="M191.97,-996.346C190.586,-997.488 189.26,-998.705 188,-1000 128.076,-1061.61 210.896,-1127.41 152,-1190 146.109,-1196.26 138.476,-1200.58 130.34,-1203.53"/>
<polygon fill="midnightblue" stroke="midnightblue" points="194.154,-999.093 200.464,-990.583 190.224,-993.3 194.154,-999.093"/>
</g>
<!-- Node23 -->
<g id="node15" class="node"><title>Node23</title>
<g id="a_node15"><a xlink:href="class_t_m_c2208_stepper.html#aad3790e8c9040b5b4770ee65ed06b1ed" target="_top" xlink:title=" ">
<polygon fill="white" stroke="red" points="21,-1161.5 21,-1180.5 131,-1180.5 131,-1161.5 21,-1161.5"/>
<text text-anchor="middle" x="76" y="-1168.5" font-family="Helvetica,sans-Serif" font-size="10.00">TMC2208Stepper::toff</text>
</a>
</g>
</g>
<!-- Node4&#45;&gt;Node23 -->
<g id="edge14" class="edge"><title>Node4&#45;&gt;Node23</title>
<path fill="none" stroke="midnightblue" d="M192.571,-996.015C190.975,-997.252 189.447,-998.578 188,-1000 138.481,-1048.66 200.707,-1102.53 152,-1152 146.251,-1157.84 138.984,-1161.97 131.248,-1164.89"/>
<polygon fill="midnightblue" stroke="midnightblue" points="194.546,-998.906 201.063,-990.553 190.759,-993.019 194.546,-998.906"/>
</g>
<!-- Node26 -->
<g id="node16" class="node"><title>Node26</title>
<g id="a_node16"><a xlink:href="class_t_m_c2208_stepper.html#aca88bb5ae86daeca56094bf2f8bdea5d" target="_top" xlink:title=" ">
<polygon fill="white" stroke="red" points="12,-1123.5 12,-1142.5 140,-1142.5 140,-1123.5 12,-1123.5"/>
<text text-anchor="middle" x="76" y="-1130.5" font-family="Helvetica,sans-Serif" font-size="10.00">TMC2208Stepper::vsense</text>
</a>
</g>
</g>
<!-- Node4&#45;&gt;Node26 -->
<g id="edge15" class="edge"><title>Node4&#45;&gt;Node26</title>
<path fill="none" stroke="midnightblue" d="M192.849,-996.059C191.162,-997.281 189.541,-998.593 188,-1000 148.762,-1035.83 190.64,-1077.53 152,-1114 147.897,-1117.87 143.122,-1120.99 138.005,-1123.48"/>
<polygon fill="midnightblue" stroke="midnightblue" points="195.033,-998.829 201.784,-990.664 191.414,-992.837 195.033,-998.829"/>
</g>
<!-- Node30 -->
<g id="node19" class="node"><title>Node30</title>
<g id="a_node19"><a xlink:href="class_t_m_c2208_stepper.html#a2576f25049dff1a3102da1ea5b4eb7fc" target="_top" xlink:title=" ">
<polygon fill="white" stroke="black" points="11.5,-380.5 11.5,-399.5 140.5,-399.5 140.5,-380.5 11.5,-380.5"/>
<text text-anchor="middle" x="76" y="-387.5" font-family="Helvetica,sans-Serif" font-size="10.00">TMC2208Stepper::fclktrim</text>
</a>
</g>
</g>
<!-- Node29&#45;&gt;Node30 -->
<g id="edge18" class="edge"><title>Node29&#45;&gt;Node30</title>
<path fill="none" stroke="midnightblue" d="M197.409,-466.392C194.135,-464.787 190.981,-462.996 188,-461 164.645,-445.358 175.093,-425.026 152,-409 146.372,-405.094 140.01,-401.991 133.429,-399.525"/>
<polygon fill="midnightblue" stroke="midnightblue" points="196.329,-469.737 206.9,-470.445 199.078,-463.299 196.329,-469.737"/>
</g>
<!-- Node31 -->
<g id="node20" class="node"><title>Node31</title>
<g id="a_node20"><a xlink:href="class_t_m_c2208_stepper.html#a1d354657666fa70cd13004cb70bc9fcf" target="_top" xlink:title=" ">
<polygon fill="white" stroke="black" points="15,-342.5 15,-361.5 137,-361.5 137,-342.5 15,-342.5"/>
<text text-anchor="middle" x="76" y="-349.5" font-family="Helvetica,sans-Serif" font-size="10.00">TMC2208Stepper::ottrim</text>
</a>
</g>
</g>
<!-- Node29&#45;&gt;Node31 -->
<g id="edge19" class="edge"><title>Node29&#45;&gt;Node31</title>
<path fill="none" stroke="midnightblue" d="M193.736,-465.285C191.739,-463.968 189.821,-462.542 188,-461 155.123,-433.159 184.411,-399.381 152,-371 147.655,-367.195 142.653,-364.132 137.338,-361.67"/>
<polygon fill="midnightblue" stroke="midnightblue" points="192.493,-468.598 202.935,-470.391 195.89,-462.478 192.493,-468.598"/>
</g>
<!-- Node32&#45;&gt;Node19 -->
<g id="edge29" class="edge"><title>Node32&#45;&gt;Node19</title>
<path fill="none" stroke="midnightblue" d="M265.267,-677.453C242.29,-720.365 184.198,-824.966 152,-848 146.538,-851.908 140.348,-855.014 133.924,-857.482"/>
<polygon fill="midnightblue" stroke="midnightblue" points="268.362,-679.088 269.968,-668.616 262.182,-675.8 268.362,-679.088"/>
</g>
<!-- Node32&#45;&gt;Node20 -->
<g id="edge30" class="edge"><title>Node32&#45;&gt;Node20</title>
<path fill="none" stroke="midnightblue" d="M264.986,-677.615C246.831,-709.543 205.367,-774.621 152,-809 145.203,-813.379 137.472,-816.804 129.618,-819.481"/>
<polygon fill="midnightblue" stroke="midnightblue" points="268.064,-679.283 269.86,-668.842 261.944,-675.884 268.064,-679.283"/>
</g>
<!-- Node33 -->
<g id="node22" class="node"><title>Node33</title>
<g id="a_node22"><a xlink:href="class_t_m_c2208_stepper.html#a3e5b6f25ec1fa94a6d8f0bd004a535ce" target="_top" xlink:title=" ">
<polygon fill="white" stroke="black" points="22,-419 22,-449 130,-449 130,-419 22,-419"/>
<text text-anchor="start" x="30" y="-437" font-family="Helvetica,sans-Serif" font-size="10.00">TMC2208Stepper::en</text>
<text text-anchor="middle" x="76" y="-426" font-family="Helvetica,sans-Serif" font-size="10.00">_spreadCycle</text>
</a>
</g>
</g>
<!-- Node32&#45;&gt;Node33 -->
<g id="edge21" class="edge"><title>Node32&#45;&gt;Node33</title>
<path fill="none" stroke="midnightblue" d="M200.532,-648.518C195.935,-645.93 191.686,-642.793 188,-639 131.141,-580.493 205.993,-520.162 152,-459 146.096,-452.312 138.355,-447.408 130.09,-443.814"/>
<polygon fill="midnightblue" stroke="midnightblue" points="199.204,-651.762 209.743,-652.849 202.183,-645.427 199.204,-651.762"/>
</g>
<!-- Node34 -->
<g id="node23" class="node"><title>Node34</title>
<g id="a_node23"><a xlink:href="class_t_m_c2208_stepper.html#a3b1c4e92ce6d46b6073974d8758275ff" target="_top" xlink:title=" ">
<polygon fill="white" stroke="black" points="12,-770 12,-800 140,-800 140,-770 12,-770"/>
<text text-anchor="start" x="20" y="-788" font-family="Helvetica,sans-Serif" font-size="10.00">TMC2208Stepper::I_scale</text>
<text text-anchor="middle" x="76" y="-777" font-family="Helvetica,sans-Serif" font-size="10.00">_analog</text>
</a>
</g>
</g>
<!-- Node32&#45;&gt;Node34 -->
<g id="edge22" class="edge"><title>Node32&#45;&gt;Node34</title>
<path fill="none" stroke="midnightblue" d="M258.396,-676.08C236.053,-698.202 194.221,-736.68 152,-760 145.272,-763.716 137.899,-767.003 130.484,-769.87"/>
<polygon fill="midnightblue" stroke="midnightblue" points="261.138,-678.286 265.71,-668.729 256.175,-673.349 261.138,-678.286"/>
</g>
<!-- Node35 -->
<g id="node24" class="node"><title>Node35</title>
<g id="a_node24"><a xlink:href="class_t_m_c2208_stepper.html#a8a8172fcb19ea2439d4898f4102fa039" target="_top" xlink:title=" ">
<polygon fill="white" stroke="red" points="3,-731.5 3,-750.5 149,-750.5 149,-731.5 3,-731.5"/>
<text text-anchor="middle" x="76" y="-738.5" font-family="Helvetica,sans-Serif" font-size="10.00">TMC2208Stepper::index_otpw</text>
</a>
</g>
</g>
<!-- Node32&#45;&gt;Node35 -->
<g id="edge23" class="edge"><title>Node32&#45;&gt;Node35</title>
<path fill="none" stroke="midnightblue" d="M250.329,-673.74C226.02,-687.752 187.473,-708.618 152,-722 142.323,-725.651 131.682,-728.824 121.533,-731.477"/>
<polygon fill="midnightblue" stroke="midnightblue" points="252.342,-676.618 259.217,-668.556 248.815,-670.571 252.342,-676.618"/>
</g>
<!-- Node37 -->
<g id="node25" class="node"><title>Node37</title>
<g id="a_node25"><a xlink:href="class_t_m_c2208_stepper.html#aa0f677d760ac3c9a297a6f6d2778ec81" target="_top" xlink:title=" ">
<polygon fill="white" stroke="red" points="3.5,-693.5 3.5,-712.5 148.5,-712.5 148.5,-693.5 3.5,-693.5"/>
<text text-anchor="middle" x="76" y="-700.5" font-family="Helvetica,sans-Serif" font-size="10.00">TMC2208Stepper::index_step</text>
</a>
</g>
</g>
<!-- Node32&#45;&gt;Node37 -->
<g id="edge24" class="edge"><title>Node32&#45;&gt;Node37</title>
<path fill="none" stroke="midnightblue" d="M221.972,-670.784C190.009,-677.887 149.828,-686.816 119.879,-693.471"/>
<polygon fill="midnightblue" stroke="midnightblue" points="223.034,-674.133 232.037,-668.547 221.516,-667.3 223.034,-674.133"/>
</g>
<!-- Node39 -->
<g id="node26" class="node"><title>Node39</title>
<g id="a_node26"><a xlink:href="class_t_m_c2208_stepper.html#a8159b7bd97a76b6020bf285c052809b6" target="_top" xlink:title=" ">
<polygon fill="white" stroke="black" points="11.5,-644 11.5,-674 140.5,-674 140.5,-644 11.5,-644"/>
<text text-anchor="start" x="19.5" y="-662" font-family="Helvetica,sans-Serif" font-size="10.00">TMC2208Stepper::internal</text>
<text text-anchor="middle" x="76" y="-651" font-family="Helvetica,sans-Serif" font-size="10.00">_Rsense</text>
</a>
</g>
</g>
<!-- Node32&#45;&gt;Node39 -->
<g id="edge25" class="edge"><title>Node32&#45;&gt;Node39</title>
<path fill="none" stroke="midnightblue" d="M199.851,-659C180.388,-659 159.616,-659 140.796,-659"/>
<polygon fill="midnightblue" stroke="midnightblue" points="199.893,-662.5 209.893,-659 199.893,-655.5 199.893,-662.5"/>
</g>
<!-- Node40 -->
<g id="node27" class="node"><title>Node40</title>
<g id="a_node27"><a xlink:href="class_t_m_c2208_stepper.html#a02994cba6b9ac73b61799cf7af0fd588" target="_top" xlink:title=" ">
<polygon fill="white" stroke="red" points="13.5,-595 13.5,-625 138.5,-625 138.5,-595 13.5,-595"/>
<text text-anchor="start" x="21.5" y="-613" font-family="Helvetica,sans-Serif" font-size="10.00">TMC2208Stepper::mstep</text>
<text text-anchor="middle" x="76" y="-602" font-family="Helvetica,sans-Serif" font-size="10.00">_reg_select</text>
</a>
</g>
</g>
<!-- Node32&#45;&gt;Node40 -->
<g id="edge26" class="edge"><title>Node32&#45;&gt;Node40</title>
<path fill="none" stroke="midnightblue" d="M222.609,-647.22C211.187,-644.578 199.175,-641.744 188,-639 170.108,-634.607 150.653,-629.603 133.102,-625.002"/>
<polygon fill="midnightblue" stroke="midnightblue" points="221.93,-650.655 232.46,-649.485 223.499,-643.833 221.93,-650.655"/>
</g>
<!-- Node43 -->
<g id="node28" class="node"><title>Node43</title>
<g id="a_node28"><a xlink:href="class_t_m_c2208_stepper.html#ac7e75314309e988c55e28da4798fa637" target="_top" xlink:title=" ">
<polygon fill="white" stroke="red" points="0,-556.5 0,-575.5 152,-575.5 152,-556.5 0,-556.5"/>
<text text-anchor="middle" x="76" y="-563.5" font-family="Helvetica,sans-Serif" font-size="10.00">TMC2208Stepper::multistep_filt</text>
</a>
</g>
</g>
<!-- Node32&#45;&gt;Node43 -->
<g id="edge27" class="edge"><title>Node32&#45;&gt;Node43</title>
<path fill="none" stroke="midnightblue" d="M200.626,-646.111C196.191,-644.073 191.937,-641.719 188,-639 164.265,-622.609 175.552,-601.653 152,-585 146.516,-581.123 140.314,-578.035 133.882,-575.577"/>
<polygon fill="midnightblue" stroke="midnightblue" points="199.36,-649.374 209.944,-649.865 201.976,-642.881 199.36,-649.374"/>
</g>
<!-- Node45 -->
<g id="node29" class="node"><title>Node45</title>
<g id="a_node29"><a xlink:href="class_t_m_c2208_stepper.html#a9de4a150926f2875903be27063f00973" target="_top" xlink:title=" ">
<polygon fill="white" stroke="red" points="19.5,-507 19.5,-537 132.5,-537 132.5,-507 19.5,-507"/>
<text text-anchor="start" x="27.5" y="-525" font-family="Helvetica,sans-Serif" font-size="10.00">TMC2208Stepper::pdn</text>
<text text-anchor="middle" x="76" y="-514" font-family="Helvetica,sans-Serif" font-size="10.00">_disable</text>
</a>
</g>
</g>
<!-- Node32&#45;&gt;Node45 -->
<g id="edge28" class="edge"><title>Node32&#45;&gt;Node45</title>
<path fill="none" stroke="midnightblue" d="M200.389,-647.314C195.947,-644.993 191.762,-642.246 188,-639 154.756,-610.317 183.833,-577.242 152,-547 146.428,-541.706 139.704,-537.532 132.6,-534.241"/>
<polygon fill="midnightblue" stroke="midnightblue" points="199.256,-650.641 209.816,-651.506 202.1,-644.245 199.256,-650.641"/>
</g>
<!-- Node47 -->
<g id="node30" class="node"><title>Node47</title>
<g id="a_node30"><a xlink:href="class_t_m_c2208_stepper.html#ab4500aa2baca79572a8145b64f809a37" target="_top" xlink:title=" ">
<polygon fill="white" stroke="red" points="16.5,-468.5 16.5,-487.5 135.5,-487.5 135.5,-468.5 16.5,-468.5"/>
<text text-anchor="middle" x="76" y="-475.5" font-family="Helvetica,sans-Serif" font-size="10.00">TMC2208Stepper::shaft</text>
</a>
</g>
</g>
<!-- Node32&#45;&gt;Node47 -->
<g id="edge31" class="edge"><title>Node32&#45;&gt;Node47</title>
<path fill="none" stroke="midnightblue" d="M200.498,-648.168C195.946,-645.655 191.714,-642.632 188,-639 141.451,-593.479 198.042,-543.034 152,-497 147.346,-492.346 141.725,-488.778 135.679,-486.05"/>
<polygon fill="midnightblue" stroke="midnightblue" points="199.049,-651.354 209.593,-652.395 201.999,-645.006 199.049,-651.354"/>
</g>
<!-- Node51 -->
<g id="node33" class="node"><title>Node51</title>
<g id="a_node33"><a xlink:href="class_t_m_c2208_stepper.html#a3e89d66eba91684da6dce09b366aa716" target="_top" xlink:title=" ">
<polygon fill="white" stroke="black" points="18,-76.5 18,-95.5 134,-95.5 134,-76.5 18,-76.5"/>
<text text-anchor="middle" x="76" y="-83.5" font-family="Helvetica,sans-Serif" font-size="10.00">TMC2208Stepper::diag</text>
</a>
</g>
</g>
<!-- Node50&#45;&gt;Node51 -->
<g id="edge34" class="edge"><title>Node50&#45;&gt;Node51</title>
<path fill="none" stroke="midnightblue" d="M208.304,-211.806C200.911,-208.946 193.926,-205.112 188,-200 153.811,-170.507 185.696,-135.055 152,-105 146.787,-100.351 140.598,-96.8063 134.044,-94.1097"/>
<polygon fill="midnightblue" stroke="midnightblue" points="207.244,-215.142 217.837,-214.932 209.425,-208.49 207.244,-215.142"/>
</g>
<!-- Node52 -->
<g id="node34" class="node"><title>Node52</title>
<g id="a_node34"><a xlink:href="class_t_m_c2208_stepper.html#af4a3a3c37720a10e59331f74c8a84a4e" target="_top" xlink:title=" ">
<polygon fill="white" stroke="black" points="22,-38.5 22,-57.5 130,-57.5 130,-38.5 22,-38.5"/>
<text text-anchor="middle" x="76" y="-45.5" font-family="Helvetica,sans-Serif" font-size="10.00">TMC2208Stepper::dir</text>
</a>
</g>
</g>
<!-- Node50&#45;&gt;Node52 -->
<g id="edge35" class="edge"><title>Node50&#45;&gt;Node52</title>
<path fill="none" stroke="midnightblue" d="M208.112,-212.477C200.688,-209.512 193.748,-205.471 188,-200 143.643,-157.779 195.652,-109.949 152,-67 145.968,-61.065 138.363,-56.9005 130.324,-53.9944"/>
<polygon fill="midnightblue" stroke="midnightblue" points="207.127,-215.837 217.72,-215.682 209.342,-209.197 207.127,-215.837"/>
</g>
<!-- Node53 -->
<g id="node35" class="node"><title>Node53</title>
<g id="a_node35"><a xlink:href="class_t_m_c2208_stepper.html#acc1f92ce007231215fc4266fb4b99a62" target="_top" xlink:title=" ">
<polygon fill="white" stroke="red" points="19.5,-304.5 19.5,-323.5 132.5,-323.5 132.5,-304.5 19.5,-304.5"/>
<text text-anchor="middle" x="76" y="-311.5" font-family="Helvetica,sans-Serif" font-size="10.00">TMC2208Stepper::enn</text>
</a>
</g>
</g>
<!-- Node50&#45;&gt;Node53 -->
<g id="edge36" class="edge"><title>Node50&#45;&gt;Node53</title>
<path fill="none" stroke="midnightblue" d="M254.23,-234.604C230.605,-251.674 190.324,-278.761 152,-295 143.219,-298.721 133.54,-301.839 124.136,-304.403"/>
<polygon fill="midnightblue" stroke="midnightblue" points="256.432,-237.33 262.43,-228.596 252.294,-231.683 256.432,-237.33"/>
</g>
<!-- Node54 -->
<g id="node36" class="node"><title>Node54</title>
<g id="a_node36"><a xlink:href="class_t_m_c2208_stepper.html#adbace6f10c292506035b9d162ed239b4" target="_top" xlink:title=" ">
<polygon fill="white" stroke="black" points="18,-266.5 18,-285.5 134,-285.5 134,-266.5 18,-266.5"/>
<text text-anchor="middle" x="76" y="-273.5" font-family="Helvetica,sans-Serif" font-size="10.00">TMC2208Stepper::ms1</text>
</a>
</g>
</g>
<!-- Node50&#45;&gt;Node54 -->
<g id="edge37" class="edge"><title>Node50&#45;&gt;Node54</title>
<path fill="none" stroke="midnightblue" d="M235.478,-231.778C211.434,-239.409 180.053,-249.119 152,-257 140.491,-260.233 127.919,-263.515 116.415,-266.42"/>
<polygon fill="midnightblue" stroke="midnightblue" points="236.837,-235.018 245.302,-228.646 234.711,-228.349 236.837,-235.018"/>
</g>
<!-- Node55 -->
<g id="node37" class="node"><title>Node55</title>
<g id="a_node37"><a xlink:href="class_t_m_c2208_stepper.html#a4ec5d2b2f5a31259c7aba1f3208d63b8" target="_top" xlink:title=" ">
<polygon fill="white" stroke="black" points="18,-0.5 18,-19.5 134,-19.5 134,-0.5 18,-0.5"/>
<text text-anchor="middle" x="76" y="-7.5" font-family="Helvetica,sans-Serif" font-size="10.00">TMC2208Stepper::ms2</text>
</a>
</g>
</g>
<!-- Node50&#45;&gt;Node55 -->
<g id="edge38" class="edge"><title>Node50&#45;&gt;Node55</title>
<path fill="none" stroke="midnightblue" d="M208.113,-212.909C200.624,-209.883 193.667,-205.709 188,-200 133.289,-144.876 205.792,-85.022 152,-29 146.976,-23.768 140.735,-19.8979 134.013,-17.0478"/>
<polygon fill="midnightblue" stroke="midnightblue" points="207.232,-216.305 217.826,-216.157 209.452,-209.666 207.232,-216.305"/>
</g>
<!-- Node56 -->
<g id="node38" class="node"><title>Node56</title>
<g id="a_node38"><a xlink:href="class_t_m_c2208_stepper.html#ab1a4fdff9c56ed07ba453f961864e769" target="_top" xlink:title=" ">
<polygon fill="white" stroke="black" points="8.5,-228.5 8.5,-247.5 143.5,-247.5 143.5,-228.5 8.5,-228.5"/>
<text text-anchor="middle" x="76" y="-235.5" font-family="Helvetica,sans-Serif" font-size="10.00">TMC2208Stepper::pdn_uart</text>
</a>
</g>
</g>
<!-- Node50&#45;&gt;Node56 -->
<g id="edge40" class="edge"><title>Node50&#45;&gt;Node56</title>
<path fill="none" stroke="midnightblue" d="M208.006,-225.429C187.277,-227.418 164.449,-229.608 143.737,-231.596"/>
<polygon fill="midnightblue" stroke="midnightblue" points="208.376,-228.909 217.996,-224.47 207.707,-221.941 208.376,-228.909"/>
</g>
<!-- Node57 -->
<g id="node39" class="node"><title>Node57</title>
<g id="a_node39"><a xlink:href="class_t_m_c2208_stepper.html#a462e14ef67b55c14c361c741767eee5e" target="_top" xlink:title=" ">
<polygon fill="white" stroke="black" points="15.5,-190.5 15.5,-209.5 136.5,-209.5 136.5,-190.5 15.5,-190.5"/>
<text text-anchor="middle" x="76" y="-197.5" font-family="Helvetica,sans-Serif" font-size="10.00">TMC2208Stepper::sel_a</text>
</a>
</g>
</g>
<!-- Node50&#45;&gt;Node57 -->
<g id="edge41" class="edge"><title>Node50&#45;&gt;Node57</title>
<path fill="none" stroke="midnightblue" d="M207.935,-212.565C184.847,-210.349 159.164,-207.884 136.703,-205.729"/>
<polygon fill="midnightblue" stroke="midnightblue" points="207.707,-216.059 217.996,-213.53 208.376,-209.091 207.707,-216.059"/>
</g>
<!-- Node58 -->
<g id="node40" class="node"><title>Node58</title>
<g id="a_node40"><a xlink:href="class_t_m_c2208_stepper.html#ac5cbf509e5e74a27507ce976bd973a4d" target="_top" xlink:title=" ">
<polygon fill="white" stroke="black" points="18,-152.5 18,-171.5 134,-171.5 134,-152.5 18,-152.5"/>
<text text-anchor="middle" x="76" y="-159.5" font-family="Helvetica,sans-Serif" font-size="10.00">TMC2208Stepper::step</text>
</a>
</g>
</g>
<!-- Node50&#45;&gt;Node58 -->
<g id="edge42" class="edge"><title>Node50&#45;&gt;Node58</title>
<path fill="none" stroke="midnightblue" d="M210.728,-207.035C202.98,-204.987 195.249,-202.649 188,-200 171.007,-193.791 168.888,-187.489 152,-181 142.471,-177.338 131.99,-174.176 121.961,-171.54"/>
<polygon fill="midnightblue" stroke="midnightblue" points="209.967,-210.453 220.517,-209.476 211.66,-203.66 209.967,-210.453"/>
</g>
<!-- Node59 -->
<g id="node41" class="node"><title>Node59</title>
<g id="a_node41"><a xlink:href="class_t_m_c2208_stepper.html#afd696df315a1b1296bd77f6438c4cbe8" target="_top" xlink:title=" ">
<polygon fill="white" stroke="black" points="12,-114.5 12,-133.5 140,-133.5 140,-114.5 12,-114.5"/>
<text text-anchor="middle" x="76" y="-121.5" font-family="Helvetica,sans-Serif" font-size="10.00">TMC2208Stepper::version</text>
</a>
</g>
</g>
<!-- Node50&#45;&gt;Node59 -->
<g id="edge43" class="edge"><title>Node50&#45;&gt;Node59</title>
<path fill="none" stroke="midnightblue" d="M208.12,-210.208C200.97,-207.606 194.093,-204.27 188,-200 163.462,-182.805 176.25,-160.599 152,-143 146.673,-139.134 140.638,-136.052 134.36,-133.595"/>
<polygon fill="midnightblue" stroke="midnightblue" points="207.403,-213.652 217.993,-213.321 209.508,-206.976 207.403,-213.652"/>
</g>
<!-- Node55&#45;&gt;Node2 -->
<g id="edge39" class="edge"><title>Node55&#45;&gt;Node2</title>
<path fill="none" stroke="midnightblue" d="M129.946,-22.1878C137.412,-24.2609 144.943,-26.5457 152,-29 249.521,-62.916 275.442,-70.9148 364,-124 472.804,-189.221 588.375,-291.448 623.368,-323.236"/>
<polygon fill="midnightblue" stroke="midnightblue" points="130.778,-18.7875 120.213,-19.5881 128.971,-25.5504 130.778,-18.7875"/>
</g>
<!-- Node61 -->
<g id="node43" class="node"><title>Node61</title>
<g id="a_node43"><a xlink:href="class_t_m_c2209_stepper.html#a57eb34f291e73aef7d3de9f21239e3ac" target="_top" xlink:title=" ">
<polygon fill="white" stroke="black" points="18,-1313.5 18,-1332.5 134,-1332.5 134,-1313.5 18,-1313.5"/>
<text text-anchor="middle" x="76" y="-1320.5" font-family="Helvetica,sans-Serif" font-size="10.00">TMC2209Stepper::diag</text>
</a>
</g>
</g>
<!-- Node60&#45;&gt;Node61 -->
<g id="edge45" class="edge"><title>Node60&#45;&gt;Node61</title>
<path fill="none" stroke="midnightblue" d="M208.404,-1075.45C200.745,-1078.61 193.665,-1082.98 188,-1089 121.579,-1159.53 217.635,-1232.73 152,-1304 147.086,-1309.34 140.908,-1313.27 134.218,-1316.15"/>
<polygon fill="midnightblue" stroke="midnightblue" points="209.651,-1078.72 217.977,-1072.17 207.382,-1072.1 209.651,-1078.72"/>
</g>
<!-- Node62 -->
<g id="node44" class="node"><title>Node62</title>
<g id="a_node44"><a xlink:href="class_t_m_c2209_stepper.html#abfe7546eae0d8d3496de34589c43e166" target="_top" xlink:title=" ">
<polygon fill="white" stroke="black" points="22,-1275.5 22,-1294.5 130,-1294.5 130,-1275.5 22,-1275.5"/>
<text text-anchor="middle" x="76" y="-1282.5" font-family="Helvetica,sans-Serif" font-size="10.00">TMC2209Stepper::dir</text>
</a>
</g>
</g>
<!-- Node60&#45;&gt;Node62 -->
<g id="edge46" class="edge"><title>Node60&#45;&gt;Node62</title>
<path fill="none" stroke="midnightblue" d="M208.042,-1075.86C200.564,-1078.97 193.629,-1083.23 188,-1089 131.958,-1146.48 207.402,-1207.9 152,-1266 146.067,-1272.22 138.413,-1276.52 130.27,-1279.47"/>
<polygon fill="midnightblue" stroke="midnightblue" points="209.441,-1079.08 217.746,-1072.5 207.151,-1072.47 209.441,-1079.08"/>
</g>
<!-- Node87&#45;&gt;Node19 -->
<g id="edge52" class="edge"><title>Node87&#45;&gt;Node19</title>
<path fill="none" stroke="midnightblue" d="M215.134,-840.489C186.883,-845.911 153.564,-852.306 126.729,-857.456"/>
<polygon fill="midnightblue" stroke="midnightblue" points="216.131,-843.862 225.292,-838.54 214.811,-836.988 216.131,-843.862"/>
</g>
<!-- Node87&#45;&gt;Node20 -->
<g id="edge53" class="edge"><title>Node87&#45;&gt;Node20</title>
<path fill="none" stroke="midnightblue" d="M191.268,-829C172.551,-829 153.087,-829 135.64,-829"/>
<polygon fill="midnightblue" stroke="midnightblue" points="191.272,-832.5 201.272,-829 191.272,-825.5 191.272,-832.5"/>
</g>
</g>
</svg>
