<?xml version="1.0" encoding="UTF-8" standalone="no"?>
<!DOCTYPE svg PUBLIC "-//W3C//DTD SVG 1.1//EN"
 "http://www.w3.org/Graphics/SVG/1.1/DTD/svg11.dtd">
<!-- Generated by graphviz version 2.38.0 (20140413.2041)
 -->
<!-- Title: TMC5130Stepper::rms_current Pages: 1 -->
<svg width="574pt" height="66pt"
 viewBox="0.00 0.00 574.00 66.00" xmlns="http://www.w3.org/2000/svg" xmlns:xlink="http://www.w3.org/1999/xlink">
<g id="graph0" class="graph" transform="scale(1 1) rotate(0) translate(4 62)">
<title>TMC5130Stepper::rms_current</title>
<polygon fill="white" stroke="none" points="-4,4 -4,-62 570,-62 570,4 -4,4"/>
<!-- Node1 -->
<g id="node1" class="node"><title>Node1</title>
<g id="a_node1"><a xlink:title=" ">
<polygon fill="#bfbfbf" stroke="black" points="0,-14 0,-44 114,-44 114,-14 0,-14"/>
<text text-anchor="start" x="8" y="-32" font-family="Helvetica,sans-Serif" font-size="10.00">TMC5130Stepper::rms</text>
<text text-anchor="middle" x="57" y="-21" font-family="Helvetica,sans-Serif" font-size="10.00">_current</text>
</a>
</g>
</g>
<!-- Node2 -->
<g id="node2" class="node"><title>Node2</title>
<g id="a_node2"><a xlink:href="class_t_m_c_stepper.html#aaa5cfefaf915e98eb9700bda48f99337" target="_top" xlink:title=" ">
<polygon fill="white" stroke="black" points="150,-19.5 150,-38.5 278,-38.5 278,-19.5 150,-19.5"/>
<text text-anchor="middle" x="214" y="-26.5" font-family="Helvetica,sans-Serif" font-size="10.00">TMCStepper::rms_current</text>
</a>
</g>
</g>
<!-- Node1&#45;&gt;Node2 -->
<g id="edge1" class="edge"><title>Node1&#45;&gt;Node2</title>
<path fill="none" stroke="midnightblue" d="M114.397,-29C122.582,-29 131.106,-29 139.566,-29"/>
<polygon fill="midnightblue" stroke="midnightblue" points="139.825,-32.5001 149.825,-29 139.825,-25.5001 139.825,-32.5001"/>
</g>
<!-- Node3 -->
<g id="node3" class="node"><title>Node3</title>
<g id="a_node3"><a xlink:href="class_t_m_c_stepper.html#ae6829e76ae67523a4cb60553dd70fece" target="_top" xlink:title=" ">
<polygon fill="white" stroke="black" points="314,-38.5 314,-57.5 423,-57.5 423,-38.5 314,-38.5"/>
<text text-anchor="middle" x="368.5" y="-45.5" font-family="Helvetica,sans-Serif" font-size="10.00">TMCStepper::cs2rms</text>
</a>
</g>
</g>
<!-- Node2&#45;&gt;Node3 -->
<g id="edge2" class="edge"><title>Node2&#45;&gt;Node3</title>
<path fill="none" stroke="midnightblue" d="M278.349,-36.8926C286.727,-37.9364 295.318,-39.0069 303.704,-40.0516"/>
<polygon fill="midnightblue" stroke="midnightblue" points="303.445,-43.5464 313.801,-41.3097 304.311,-36.6001 303.445,-43.5464"/>
</g>
<!-- Node5 -->
<g id="node5" class="node"><title>Node5</title>
<g id="a_node5"><a xlink:href="class_t_m_c_stepper.html#a89f965f7d005e189ef27951f37e699f2" target="_top" xlink:title=" ">
<polygon fill="white" stroke="black" points="322.5,-0.5 322.5,-19.5 414.5,-19.5 414.5,-0.5 322.5,-0.5"/>
<text text-anchor="middle" x="368.5" y="-7.5" font-family="Helvetica,sans-Serif" font-size="10.00">TMCStepper::irun</text>
</a>
</g>
</g>
<!-- Node2&#45;&gt;Node5 -->
<g id="edge4" class="edge"><title>Node2&#45;&gt;Node5</title>
<path fill="none" stroke="midnightblue" d="M278.349,-21.1074C289.512,-19.7166 301.054,-18.2785 311.982,-16.917"/>
<polygon fill="midnightblue" stroke="midnightblue" points="312.748,-20.3487 322.238,-15.6392 311.882,-13.4024 312.748,-20.3487"/>
</g>
<!-- Node4 -->
<g id="node4" class="node"><title>Node4</title>
<g id="a_node4"><a xlink:href="class_t_m_c_stepper.html#ab4366bc26a0f6a4bb1c6c33da5919238" target="_top" xlink:title=" ">
<polygon fill="white" stroke="black" points="459,-38.5 459,-57.5 566,-57.5 566,-38.5 459,-38.5"/>
<text text-anchor="middle" x="512.5" y="-45.5" font-family="Helvetica,sans-Serif" font-size="10.00">TMCStepper::vsense</text>
</a>
</g>
</g>
<!-- Node3&#45;&gt;Node4 -->
<g id="edge3" class="edge"><title>Node3&#45;&gt;Node4</title>
<path fill="none" stroke="midnightblue" d="M423.184,-48C431.448,-48 440.045,-48 448.489,-48"/>
<polygon fill="midnightblue" stroke="midnightblue" points="448.681,-51.5001 458.681,-48 448.681,-44.5001 448.681,-51.5001"/>
</g>
</g>
</svg>
