<?xml version="1.0" encoding="UTF-8" standalone="no"?>
<!DOCTYPE svg PUBLIC "-//W3C//DTD SVG 1.1//EN"
 "http://www.w3.org/Graphics/SVG/1.1/DTD/svg11.dtd">
<!-- Generated by graphviz version 2.38.0 (20140413.2041)
 -->
<!-- Title: TMC5130Stepper::refr_dir Pages: 1 -->
<svg width="780pt" height="104pt"
 viewBox="0.00 0.00 780.00 104.00" xmlns="http://www.w3.org/2000/svg" xmlns:xlink="http://www.w3.org/1999/xlink">
<g id="graph0" class="graph" transform="scale(1 1) rotate(0) translate(4 100)">
<title>TMC5130Stepper::refr_dir</title>
<polygon fill="white" stroke="none" points="-4,4 -4,-100 776,-100 776,4 -4,4"/>
<!-- Node1 -->
<g id="node1" class="node"><title>Node1</title>
<g id="a_node1"><a xlink:title=" ">
<polygon fill="#bfbfbf" stroke="black" points="0,-38.5 0,-57.5 127,-57.5 127,-38.5 0,-38.5"/>
<text text-anchor="middle" x="63.5" y="-45.5" font-family="Helvetica,sans-Serif" font-size="10.00">TMC5130Stepper::refr_dir</text>
</a>
</g>
</g>
<!-- Node2 -->
<g id="node2" class="node"><title>Node2</title>
<g id="a_node2"><a xlink:href="class_t_m_c5130_stepper.html#a74e9e262a8da77925d246916b431161d" target="_top" xlink:title=" ">
<polygon fill="white" stroke="black" points="163,-38.5 163,-57.5 279,-57.5 279,-38.5 163,-38.5"/>
<text text-anchor="middle" x="221" y="-45.5" font-family="Helvetica,sans-Serif" font-size="10.00">TMC5130Stepper::IOIN</text>
</a>
</g>
</g>
<!-- Node1&#45;&gt;Node2 -->
<g id="edge1" class="edge"><title>Node1&#45;&gt;Node2</title>
<path fill="none" stroke="midnightblue" d="M127.3,-48C135.689,-48 144.32,-48 152.781,-48"/>
<polygon fill="midnightblue" stroke="midnightblue" points="152.991,-51.5001 162.991,-48 152.991,-44.5001 152.991,-51.5001"/>
</g>
<!-- Node3 -->
<g id="node3" class="node"><title>Node3</title>
<g id="a_node3"><a xlink:href="class_t_m_c2130_stepper.html#aed0175bff6e80ebc14e0d2606283cbe0" target="_top" xlink:title=" ">
<polygon fill="white" stroke="black" points="315,-38.5 315,-57.5 431,-57.5 431,-38.5 315,-38.5"/>
<text text-anchor="middle" x="373" y="-45.5" font-family="Helvetica,sans-Serif" font-size="10.00">TMC2130Stepper::read</text>
</a>
</g>
</g>
<!-- Node2&#45;&gt;Node3 -->
<g id="edge2" class="edge"><title>Node2&#45;&gt;Node3</title>
<path fill="none" stroke="midnightblue" d="M279.136,-48C287.377,-48 295.923,-48 304.344,-48"/>
<polygon fill="midnightblue" stroke="midnightblue" points="304.526,-51.5001 314.525,-48 304.525,-44.5001 304.526,-51.5001"/>
</g>
<!-- Node4 -->
<g id="node4" class="node"><title>Node4</title>
<g id="a_node4"><a xlink:href="class_t_m_c2130_stepper.html#aed8aa4583943e649dbf3bb1c1da90d63" target="_top" xlink:title=" ">
<polygon fill="white" stroke="black" points="467,-76.5 467,-95.5 619,-95.5 619,-76.5 467,-76.5"/>
<text text-anchor="middle" x="543" y="-83.5" font-family="Helvetica,sans-Serif" font-size="10.00">TMC2130Stepper::switchCSpin</text>
</a>
</g>
</g>
<!-- Node3&#45;&gt;Node4 -->
<g id="edge3" class="edge"><title>Node3&#45;&gt;Node4</title>
<path fill="none" stroke="midnightblue" d="M416.393,-57.589C438.763,-62.6487 466.398,-68.8996 490.047,-74.2488"/>
<polygon fill="midnightblue" stroke="midnightblue" points="489.386,-77.6875 499.911,-76.4799 490.93,-70.8599 489.386,-77.6875"/>
</g>
<!-- Node5 -->
<g id="node5" class="node"><title>Node5</title>
<g id="a_node5"><a xlink:href="class_s_w___s_p_i_class.html#af260fdc0af3f1312b106483161e559c3" target="_top" xlink:title=" ">
<polygon fill="white" stroke="black" points="655,-19.5 655,-38.5 772,-38.5 772,-19.5 655,-19.5"/>
<text text-anchor="middle" x="713.5" y="-26.5" font-family="Helvetica,sans-Serif" font-size="10.00">SW_SPIClass::transfer</text>
</a>
</g>
</g>
<!-- Node3&#45;&gt;Node5 -->
<g id="edge4" class="edge"><title>Node3&#45;&gt;Node5</title>
<path fill="none" stroke="midnightblue" d="M431.039,-44.7984C490.027,-41.4874 582.113,-36.3186 644.765,-32.802"/>
<polygon fill="midnightblue" stroke="midnightblue" points="645.156,-36.2856 654.944,-32.2306 644.763,-29.2966 645.156,-36.2856"/>
</g>
<!-- Node6 -->
<g id="node6" class="node"><title>Node6</title>
<g id="a_node6"><a xlink:href="class_s_w___s_p_i_class.html#a1b7600aa1d9571c103718c5d3e376675" target="_top" xlink:title=" ">
<polygon fill="white" stroke="black" points="479,-0.5 479,-19.5 607,-19.5 607,-0.5 479,-0.5"/>
<text text-anchor="middle" x="543" y="-7.5" font-family="Helvetica,sans-Serif" font-size="10.00">SW_SPIClass::transfer16</text>
</a>
</g>
</g>
<!-- Node3&#45;&gt;Node6 -->
<g id="edge5" class="edge"><title>Node3&#45;&gt;Node6</title>
<path fill="none" stroke="midnightblue" d="M416.393,-38.411C438.763,-33.3513 466.398,-27.1004 490.047,-21.7512"/>
<polygon fill="midnightblue" stroke="midnightblue" points="490.93,-25.1401 499.911,-19.5201 489.386,-18.3125 490.93,-25.1401"/>
</g>
<!-- Node6&#45;&gt;Node5 -->
<g id="edge6" class="edge"><title>Node6&#45;&gt;Node5</title>
<path fill="none" stroke="midnightblue" d="M607.223,-17.129C619.406,-18.5028 632.217,-19.9473 644.543,-21.3372"/>
<polygon fill="midnightblue" stroke="midnightblue" points="644.43,-24.8466 654.76,-22.4892 645.215,-17.8907 644.43,-24.8466"/>
</g>
</g>
</svg>
