<?xml version="1.0" encoding="UTF-8" standalone="no"?>
<!DOCTYPE svg PUBLIC "-//W3C//DTD SVG 1.1//EN"
 "http://www.w3.org/Graphics/SVG/1.1/DTD/svg11.dtd">
<!-- Generated by graphviz version 2.38.0 (20140413.2041)
 -->
<!-- Title: TMC5160Stepper::push Pages: 1 -->
<svg width="819pt" height="1291pt"
 viewBox="0.00 0.00 819.00 1291.00" xmlns="http://www.w3.org/2000/svg" xmlns:xlink="http://www.w3.org/1999/xlink">
<g id="graph0" class="graph" transform="scale(1 1) rotate(0) translate(4 1287)">
<title>TMC5160Stepper::push</title>
<polygon fill="white" stroke="none" points="-4,4 -4,-1287 815,-1287 815,4 -4,4"/>
<!-- Node1 -->
<g id="node1" class="node"><title>Node1</title>
<g id="a_node1"><a xlink:title=" ">
<polygon fill="#bfbfbf" stroke="black" points="0,-620.5 0,-639.5 119,-639.5 119,-620.5 0,-620.5"/>
<text text-anchor="middle" x="59.5" y="-627.5" font-family="Helvetica,sans-Serif" font-size="10.00">TMC5160Stepper::push</text>
</a>
</g>
</g>
<!-- Node2 -->
<g id="node2" class="node"><title>Node2</title>
<g id="a_node2"><a xlink:href="class_t_m_c5130_stepper.html#a6476b50719166c3d820991d266025dee" target="_top" xlink:title=" ">
<polygon fill="white" stroke="black" points="181.5,-1263.5 181.5,-1282.5 291.5,-1282.5 291.5,-1263.5 181.5,-1263.5"/>
<text text-anchor="middle" x="236.5" y="-1270.5" font-family="Helvetica,sans-Serif" font-size="10.00">TMC5130Stepper::A1</text>
</a>
</g>
</g>
<!-- Node1&#45;&gt;Node2 -->
<g id="edge1" class="edge"><title>Node1&#45;&gt;Node2</title>
<path fill="none" stroke="midnightblue" d="M60.5388,-639.538C61.0251,-710.742 67.5627,-1159.13 155,-1254 159.708,-1259.11 165.511,-1262.96 171.827,-1265.86"/>
<polygon fill="midnightblue" stroke="midnightblue" points="170.788,-1269.21 181.381,-1269.45 173.249,-1262.65 170.788,-1269.21"/>
</g>
<!-- Node3 -->
<g id="node3" class="node"><title>Node3</title>
<g id="a_node3"><a xlink:href="class_t_m_c5130_stepper.html#a1d199eabd1b7da86c2518603c10bf8d9" target="_top" xlink:title=" ">
<polygon fill="white" stroke="black" points="174,-1225.5 174,-1244.5 299,-1244.5 299,-1225.5 174,-1225.5"/>
<text text-anchor="middle" x="236.5" y="-1232.5" font-family="Helvetica,sans-Serif" font-size="10.00">TMC5130Stepper::AMAX</text>
</a>
</g>
</g>
<!-- Node1&#45;&gt;Node3 -->
<g id="edge2" class="edge"><title>Node1&#45;&gt;Node3</title>
<path fill="none" stroke="midnightblue" d="M60.646,-639.834C61.8807,-709.439 72.6885,-1127.55 155,-1216 157.835,-1219.05 161.061,-1221.65 164.551,-1223.86"/>
<polygon fill="midnightblue" stroke="midnightblue" points="163.215,-1227.11 173.703,-1228.62 166.441,-1220.9 163.215,-1227.11"/>
</g>
<!-- Node4 -->
<g id="node4" class="node"><title>Node4</title>
<g id="a_node4"><a xlink:href="class_t_m_c2130_stepper.html#a67541b27d97ce45f175e9f6e4a2d0bff" target="_top" xlink:title=" ">
<polygon fill="white" stroke="black" points="160.5,-1187.5 160.5,-1206.5 312.5,-1206.5 312.5,-1187.5 160.5,-1187.5"/>
<text text-anchor="middle" x="236.5" y="-1194.5" font-family="Helvetica,sans-Serif" font-size="10.00">TMC2130Stepper::CHOPCONF</text>
</a>
</g>
</g>
<!-- Node1&#45;&gt;Node4 -->
<g id="edge3" class="edge"><title>Node1&#45;&gt;Node4</title>
<path fill="none" stroke="midnightblue" d="M60.759,-639.623C62.7415,-706 77.602,-1095.73 155,-1178 156.218,-1179.29 157.506,-1180.51 158.854,-1181.65"/>
<polygon fill="midnightblue" stroke="midnightblue" points="156.952,-1184.58 167.176,-1187.36 160.916,-1178.82 156.952,-1184.58"/>
</g>
<!-- Node9 -->
<g id="node9" class="node"><title>Node9</title>
<g id="a_node9"><a xlink:href="class_t_m_c2130_stepper.html#abc48be984238d94bb3b72ed3aa26f028" target="_top" xlink:title=" ">
<polygon fill="white" stroke="black" points="160.5,-1149.5 160.5,-1168.5 312.5,-1168.5 312.5,-1149.5 160.5,-1149.5"/>
<text text-anchor="middle" x="236.5" y="-1156.5" font-family="Helvetica,sans-Serif" font-size="10.00">TMC2130Stepper::COOLCONF</text>
</a>
</g>
</g>
<!-- Node1&#45;&gt;Node9 -->
<g id="edge9" class="edge"><title>Node1&#45;&gt;Node9</title>
<path fill="none" stroke="midnightblue" d="M60.8991,-639.771C63.716,-703.875 82.6427,-1064.04 155,-1140 156.226,-1141.29 157.521,-1142.49 158.876,-1143.62"/>
<polygon fill="midnightblue" stroke="midnightblue" points="156.993,-1146.58 167.228,-1149.31 160.934,-1140.79 156.993,-1146.58"/>
</g>
<!-- Node10 -->
<g id="node10" class="node"><title>Node10</title>
<g id="a_node10"><a xlink:href="class_t_m_c5130_stepper.html#aaa7d6b05f9e6fc1bcb4d3b59de16f509" target="_top" xlink:title=" ">
<polygon fill="white" stroke="black" points="181.5,-1111.5 181.5,-1130.5 291.5,-1130.5 291.5,-1111.5 181.5,-1111.5"/>
<text text-anchor="middle" x="236.5" y="-1118.5" font-family="Helvetica,sans-Serif" font-size="10.00">TMC5130Stepper::D1</text>
</a>
</g>
</g>
<!-- Node1&#45;&gt;Node10 -->
<g id="edge10" class="edge"><title>Node1&#45;&gt;Node10</title>
<path fill="none" stroke="midnightblue" d="M61.0597,-639.829C64.7569,-701.281 87.6332,-1032.29 155,-1102 159.76,-1106.93 165.542,-1110.68 171.798,-1113.52"/>
<polygon fill="midnightblue" stroke="midnightblue" points="170.649,-1116.82 181.241,-1117.06 173.108,-1110.27 170.649,-1116.82"/>
</g>
<!-- Node11 -->
<g id="node11" class="node"><title>Node11</title>
<g id="a_node11"><a xlink:href="class_t_m_c2130_stepper.html#a1a90b2919efe61dd825552c2fbeca993" target="_top" xlink:title=" ">
<polygon fill="white" stroke="black" points="169,-1073.5 169,-1092.5 304,-1092.5 304,-1073.5 169,-1073.5"/>
<text text-anchor="middle" x="236.5" y="-1080.5" font-family="Helvetica,sans-Serif" font-size="10.00">TMC2130Stepper::DCCTRL</text>
</a>
</g>
</g>
<!-- Node1&#45;&gt;Node11 -->
<g id="edge11" class="edge"><title>Node1&#45;&gt;Node11</title>
<path fill="none" stroke="midnightblue" d="M61.2415,-639.791C65.8627,-698.22 92.5713,-1000.48 155,-1064 156.636,-1065.66 158.388,-1067.19 160.236,-1068.6"/>
<polygon fill="midnightblue" stroke="midnightblue" points="158.544,-1071.67 168.88,-1074 162.251,-1065.73 158.544,-1071.67"/>
</g>
<!-- Node12 -->
<g id="node12" class="node"><title>Node12</title>
<g id="a_node12"><a xlink:href="class_t_m_c5130_stepper.html#a4ba4cbc9e54f1f43255ebeca609a3d7c" target="_top" xlink:title=" ">
<polygon fill="white" stroke="black" points="174,-1035.5 174,-1054.5 299,-1054.5 299,-1035.5 174,-1035.5"/>
<text text-anchor="middle" x="236.5" y="-1042.5" font-family="Helvetica,sans-Serif" font-size="10.00">TMC5130Stepper::DMAX</text>
</a>
</g>
</g>
<!-- Node1&#45;&gt;Node12 -->
<g id="edge13" class="edge"><title>Node1&#45;&gt;Node12</title>
<path fill="none" stroke="midnightblue" d="M61.4455,-639.648C67.0314,-694.693 97.4536,-968.596 155,-1026 157.891,-1028.88 161.133,-1031.36 164.613,-1033.49"/>
<polygon fill="midnightblue" stroke="midnightblue" points="163.183,-1036.69 173.686,-1038.08 166.344,-1030.44 163.183,-1036.69"/>
</g>
<!-- Node13 -->
<g id="node13" class="node"><title>Node13</title>
<g id="a_node13"><a xlink:href="class_t_m_c2160_stepper.html#adce396d6676a252e87507a30ba44c693" target="_top" xlink:title=" ">
<polygon fill="white" stroke="black" points="161.5,-997.5 161.5,-1016.5 311.5,-1016.5 311.5,-997.5 161.5,-997.5"/>
<text text-anchor="middle" x="236.5" y="-1004.5" font-family="Helvetica,sans-Serif" font-size="10.00">TMC2160Stepper::DRV_CONF</text>
</a>
</g>
</g>
<!-- Node1&#45;&gt;Node13 -->
<g id="edge14" class="edge"><title>Node1&#45;&gt;Node13</title>
<path fill="none" stroke="midnightblue" d="M61.7159,-639.732C68.4094,-691.774 102.39,-936.756 155,-988 156.466,-989.428 158.018,-990.755 159.642,-991.99"/>
<polygon fill="midnightblue" stroke="midnightblue" points="157.966,-995.07 168.298,-997.415 161.683,-989.138 157.966,-995.07"/>
</g>
<!-- Node14 -->
<g id="node14" class="node"><title>Node14</title>
<g id="a_node14"><a xlink:href="class_t_m_c5130_stepper.html#a5cf838fb4ec111c06714f666e8e1807b" target="_top" xlink:title=" ">
<polygon fill="white" stroke="black" points="177.5,-948 177.5,-978 295.5,-978 295.5,-948 177.5,-948"/>
<text text-anchor="start" x="185.5" y="-966" font-family="Helvetica,sans-Serif" font-size="10.00">TMC5130Stepper::ENC</text>
<text text-anchor="middle" x="236.5" y="-955" font-family="Helvetica,sans-Serif" font-size="10.00">_CONST</text>
</a>
</g>
</g>
<!-- Node1&#45;&gt;Node14 -->
<g id="edge15" class="edge"><title>Node1&#45;&gt;Node14</title>
<path fill="none" stroke="midnightblue" d="M60.3808,-639.686C60.407,-681.804 66.2301,-850.853 155,-939 158.784,-942.757 163.129,-945.931 167.797,-948.61"/>
<polygon fill="midnightblue" stroke="midnightblue" points="166.593,-951.918 177.112,-953.179 169.675,-945.633 166.593,-951.918"/>
</g>
<!-- Node15 -->
<g id="node15" class="node"><title>Node15</title>
<g id="a_node15"><a xlink:href="class_t_m_c5160_stepper.html#a6da53737f78754d0c7c20bec80147e16" target="_top" xlink:title=" ">
<polygon fill="white" stroke="black" points="177.5,-899 177.5,-929 295.5,-929 295.5,-899 177.5,-899"/>
<text text-anchor="start" x="185.5" y="-917" font-family="Helvetica,sans-Serif" font-size="10.00">TMC5160Stepper::ENC</text>
<text text-anchor="middle" x="236.5" y="-906" font-family="Helvetica,sans-Serif" font-size="10.00">_DEVIATION</text>
</a>
</g>
</g>
<!-- Node1&#45;&gt;Node15 -->
<g id="edge16" class="edge"><title>Node1&#45;&gt;Node15</title>
<path fill="none" stroke="midnightblue" d="M61.057,-639.616C63.7633,-677.297 78.7475,-816.376 155,-889 158.974,-892.785 163.511,-895.997 168.361,-898.724"/>
<polygon fill="midnightblue" stroke="midnightblue" points="166.853,-901.882 177.374,-903.125 169.924,-895.592 166.853,-901.882"/>
</g>
<!-- Node16 -->
<g id="node16" class="node"><title>Node16</title>
<g id="a_node16"><a xlink:href="class_t_m_c5130_stepper.html#a3c7840e9435d4332fc6a7742deeefa9f" target="_top" xlink:title=" ">
<polygon fill="white" stroke="black" points="163,-860.5 163,-879.5 310,-879.5 310,-860.5 163,-860.5"/>
<text text-anchor="middle" x="236.5" y="-867.5" font-family="Helvetica,sans-Serif" font-size="10.00">TMC5130Stepper::ENCMODE</text>
</a>
</g>
</g>
<!-- Node1&#45;&gt;Node16 -->
<g id="edge17" class="edge"><title>Node1&#45;&gt;Node16</title>
<path fill="none" stroke="midnightblue" d="M61.5863,-639.767C65.9847,-674.449 85.6993,-792.717 155,-851 156.971,-852.658 159.062,-854.177 161.244,-855.568"/>
<polygon fill="midnightblue" stroke="midnightblue" points="159.604,-858.66 170.067,-860.324 162.926,-852.498 159.604,-858.66"/>
</g>
<!-- Node17 -->
<g id="node17" class="node"><title>Node17</title>
<g id="a_node17"><a xlink:href="class_t_m_c2130_stepper.html#aee84a9abfc84b387c6ae5658f90bf684" target="_top" xlink:title=" ">
<polygon fill="white" stroke="black" points="170.5,-822.5 170.5,-841.5 302.5,-841.5 302.5,-822.5 170.5,-822.5"/>
<text text-anchor="middle" x="236.5" y="-829.5" font-family="Helvetica,sans-Serif" font-size="10.00">TMC2130Stepper::GCONF</text>
</a>
</g>
</g>
<!-- Node1&#45;&gt;Node17 -->
<g id="edge19" class="edge"><title>Node1&#45;&gt;Node17</title>
<path fill="none" stroke="midnightblue" d="M62.5219,-639.787C69.4138,-670.567 94.9707,-766.126 155,-813 157.334,-814.823 159.815,-816.475 162.403,-817.973"/>
<polygon fill="midnightblue" stroke="midnightblue" points="161.046,-821.206 171.562,-822.491 164.143,-814.928 161.046,-821.206"/>
</g>
<!-- Node18 -->
<g id="node18" class="node"><title>Node18</title>
<g id="a_node18"><a xlink:href="class_t_m_c2160_stepper.html#a4dc485fd467892f35f98ad6ea30b6d21" target="_top" xlink:title=" ">
<polygon fill="white" stroke="black" points="168,-773 168,-803 305,-803 305,-773 168,-773"/>
<text text-anchor="start" x="176" y="-791" font-family="Helvetica,sans-Serif" font-size="10.00">TMC2160Stepper::GLOBAL</text>
<text text-anchor="middle" x="236.5" y="-780" font-family="Helvetica,sans-Serif" font-size="10.00">_SCALER</text>
</a>
</g>
</g>
<!-- Node1&#45;&gt;Node18 -->
<g id="edge21" class="edge"><title>Node1&#45;&gt;Node18</title>
<path fill="none" stroke="midnightblue" d="M64.6589,-639.676C75.6675,-664.138 107.981,-728.927 155,-763 157.666,-764.932 160.486,-766.718 163.411,-768.368"/>
<polygon fill="midnightblue" stroke="midnightblue" points="161.949,-771.55 172.455,-772.921 165.097,-765.298 161.949,-771.55"/>
</g>
<!-- Node19 -->
<g id="node19" class="node"><title>Node19</title>
<g id="a_node19"><a xlink:href="class_t_m_c_stepper.html#a597bc308bad0d1198b98c48a6ef34fc3" target="_top" xlink:title=" ">
<polygon fill="white" stroke="black" points="170,-734.5 170,-753.5 303,-753.5 303,-734.5 170,-734.5"/>
<text text-anchor="middle" x="236.5" y="-741.5" font-family="Helvetica,sans-Serif" font-size="10.00">TMCStepper::IHOLD_IRUN</text>
</a>
</g>
</g>
<!-- Node1&#45;&gt;Node19 -->
<g id="edge22" class="edge"><title>Node1&#45;&gt;Node19</title>
<path fill="none" stroke="midnightblue" d="M67.0817,-639.542C80.9515,-658.88 115.204,-702.745 155,-725 158.985,-727.229 163.222,-729.197 167.587,-730.935"/>
<polygon fill="midnightblue" stroke="midnightblue" points="166.704,-734.335 177.299,-734.383 169.047,-727.739 166.704,-734.335"/>
</g>
<!-- Node20 -->
<g id="node20" class="node"><title>Node20</title>
<g id="a_node20"><a xlink:href="class_t_m_c2160_stepper.html#ae59c6240979e95e7b05074e20f3600de" target="_top" xlink:title=" ">
<polygon fill="white" stroke="black" points="162,-696.5 162,-715.5 311,-715.5 311,-696.5 162,-696.5"/>
<text text-anchor="middle" x="236.5" y="-703.5" font-family="Helvetica,sans-Serif" font-size="10.00">TMC2160Stepper::PWMCONF</text>
</a>
</g>
</g>
<!-- Node1&#45;&gt;Node20 -->
<g id="edge23" class="edge"><title>Node1&#45;&gt;Node20</title>
<path fill="none" stroke="midnightblue" d="M73.5708,-639.705C91.1936,-652.351 123.954,-674.337 155,-687 161.253,-689.551 167.926,-691.805 174.653,-693.787"/>
<polygon fill="midnightblue" stroke="midnightblue" points="173.935,-697.219 184.505,-696.497 175.791,-690.47 173.935,-697.219"/>
</g>
<!-- Node21 -->
<g id="node21" class="node"><title>Node21</title>
<g id="a_node21"><a xlink:href="class_t_m_c5130_stepper.html#a020e6ae2a6abce1a92338345aab2ae7c" target="_top" xlink:title=" ">
<polygon fill="white" stroke="black" points="159,-658.5 159,-677.5 314,-677.5 314,-658.5 159,-658.5"/>
<text text-anchor="middle" x="236.5" y="-665.5" font-family="Helvetica,sans-Serif" font-size="10.00">TMC5130Stepper::RAMPMODE</text>
</a>
</g>
</g>
<!-- Node1&#45;&gt;Node21 -->
<g id="edge24" class="edge"><title>Node1&#45;&gt;Node21</title>
<path fill="none" stroke="midnightblue" d="M104.66,-639.589C128.065,-644.671 157.005,-650.955 181.712,-656.32"/>
<polygon fill="midnightblue" stroke="midnightblue" points="181.143,-659.778 191.658,-658.48 182.628,-652.938 181.143,-659.778"/>
</g>
<!-- Node22 -->
<g id="node22" class="node"><title>Node22</title>
<g id="a_node22"><a xlink:href="class_t_m_c2160_stepper.html#afff5a7b8d79d2575ae5b3061e463ba3d" target="_top" xlink:title=" ">
<polygon fill="white" stroke="black" points="155,-620.5 155,-639.5 318,-639.5 318,-620.5 155,-620.5"/>
<text text-anchor="middle" x="236.5" y="-627.5" font-family="Helvetica,sans-Serif" font-size="10.00">TMC2160Stepper::SHORT_CONF</text>
</a>
</g>
</g>
<!-- Node1&#45;&gt;Node22 -->
<g id="edge26" class="edge"><title>Node1&#45;&gt;Node22</title>
<path fill="none" stroke="midnightblue" d="M119.259,-630C127.467,-630 136.054,-630 144.684,-630"/>
<polygon fill="midnightblue" stroke="midnightblue" points="144.814,-633.5 154.814,-630 144.814,-626.5 144.814,-633.5"/>
</g>
<!-- Node23 -->
<g id="node23" class="node"><title>Node23</title>
<g id="a_node23"><a xlink:href="class_t_m_c5130_stepper.html#acebb43936d46f78195486c79dc2cf75e" target="_top" xlink:title=" ">
<polygon fill="white" stroke="black" points="158,-582.5 158,-601.5 315,-601.5 315,-582.5 158,-582.5"/>
<text text-anchor="middle" x="236.5" y="-589.5" font-family="Helvetica,sans-Serif" font-size="10.00">TMC5130Stepper::SLAVECONF</text>
</a>
</g>
</g>
<!-- Node1&#45;&gt;Node23 -->
<g id="edge27" class="edge"><title>Node1&#45;&gt;Node23</title>
<path fill="none" stroke="midnightblue" d="M104.66,-620.411C128.065,-615.329 157.005,-609.045 181.712,-603.68"/>
<polygon fill="midnightblue" stroke="midnightblue" points="182.628,-607.062 191.658,-601.52 181.143,-600.222 182.628,-607.062"/>
</g>
<!-- Node24 -->
<g id="node24" class="node"><title>Node24</title>
<g id="a_node24"><a xlink:href="class_t_m_c5130_stepper.html#af78bc5ec6076b4e7ac8006488b069413" target="_top" xlink:title=" ">
<polygon fill="white" stroke="black" points="162,-544.5 162,-563.5 311,-563.5 311,-544.5 162,-544.5"/>
<text text-anchor="middle" x="236.5" y="-551.5" font-family="Helvetica,sans-Serif" font-size="10.00">TMC5130Stepper::SW_MODE</text>
</a>
</g>
</g>
<!-- Node1&#45;&gt;Node24 -->
<g id="edge28" class="edge"><title>Node1&#45;&gt;Node24</title>
<path fill="none" stroke="midnightblue" d="M73.5708,-620.295C91.1936,-607.649 123.954,-585.663 155,-573 161.253,-570.449 167.926,-568.195 174.653,-566.213"/>
<polygon fill="midnightblue" stroke="midnightblue" points="175.791,-569.53 184.505,-563.503 173.935,-562.781 175.791,-569.53"/>
</g>
<!-- Node25 -->
<g id="node25" class="node"><title>Node25</title>
<g id="a_node25"><a xlink:href="class_t_m_c2130_stepper.html#a5db9c2e01d8c1994a5c58d0bf0b1d9b1" target="_top" xlink:title=" ">
<polygon fill="white" stroke="black" points="159,-506.5 159,-525.5 314,-525.5 314,-506.5 159,-506.5"/>
<text text-anchor="middle" x="236.5" y="-513.5" font-family="Helvetica,sans-Serif" font-size="10.00">TMC2130Stepper::TCOOLTHRS</text>
</a>
</g>
</g>
<!-- Node1&#45;&gt;Node25 -->
<g id="edge30" class="edge"><title>Node1&#45;&gt;Node25</title>
<path fill="none" stroke="midnightblue" d="M67.0817,-620.458C80.9515,-601.12 115.204,-557.255 155,-535 158.985,-532.771 163.222,-530.803 167.587,-529.065"/>
<polygon fill="midnightblue" stroke="midnightblue" points="169.047,-532.261 177.299,-525.617 166.704,-525.665 169.047,-532.261"/>
</g>
<!-- Node26 -->
<g id="node26" class="node"><title>Node26</title>
<g id="a_node26"><a xlink:href="class_t_m_c2130_stepper.html#a8e7d22e8bc39e89b4a02ad1460e4cf25" target="_top" xlink:title=" ">
<polygon fill="white" stroke="black" points="173.5,-468.5 173.5,-487.5 299.5,-487.5 299.5,-468.5 173.5,-468.5"/>
<text text-anchor="middle" x="236.5" y="-475.5" font-family="Helvetica,sans-Serif" font-size="10.00">TMC2130Stepper::THIGH</text>
</a>
</g>
</g>
<!-- Node1&#45;&gt;Node26 -->
<g id="edge31" class="edge"><title>Node1&#45;&gt;Node26</title>
<path fill="none" stroke="midnightblue" d="M64.3667,-620.49C74.9001,-595.847 106.593,-529.581 155,-497 157.948,-495.016 161.079,-493.237 164.329,-491.644"/>
<polygon fill="midnightblue" stroke="midnightblue" points="165.928,-494.767 173.754,-487.625 163.182,-488.328 165.928,-494.767"/>
</g>
<!-- Node27 -->
<g id="node27" class="node"><title>Node27</title>
<g id="a_node27"><a xlink:href="class_t_m_c5130_stepper.html#af8d19dd1bae46451e78573843d52cd36" target="_top" xlink:title=" ">
<polygon fill="white" stroke="black" points="177.5,-419 177.5,-449 295.5,-449 295.5,-419 177.5,-419"/>
<text text-anchor="start" x="185.5" y="-437" font-family="Helvetica,sans-Serif" font-size="10.00">TMC5130Stepper::TMC</text>
<text text-anchor="middle" x="236.5" y="-426" font-family="Helvetica,sans-Serif" font-size="10.00">_OUTPUT</text>
</a>
</g>
</g>
<!-- Node1&#45;&gt;Node27 -->
<g id="edge32" class="edge"><title>Node1&#45;&gt;Node27</title>
<path fill="none" stroke="midnightblue" d="M63.0894,-620.196C71.294,-591.057 99.5085,-504.198 155,-459 159.01,-455.734 163.448,-452.893 168.118,-450.422"/>
<polygon fill="midnightblue" stroke="midnightblue" points="169.758,-453.518 177.334,-446.112 166.793,-447.177 169.758,-453.518"/>
</g>
<!-- Node28 -->
<g id="node28" class="node"><title>Node28</title>
<g id="a_node28"><a xlink:href="class_t_m_c_stepper.html#a66812c883dfbb6dedc046a011b2564be" target="_top" xlink:title=" ">
<polygon fill="white" stroke="black" points="161.5,-380.5 161.5,-399.5 311.5,-399.5 311.5,-380.5 161.5,-380.5"/>
<text text-anchor="middle" x="236.5" y="-387.5" font-family="Helvetica,sans-Serif" font-size="10.00">TMCStepper::TPOWERDOWN</text>
</a>
</g>
</g>
<!-- Node1&#45;&gt;Node28 -->
<g id="edge33" class="edge"><title>Node1&#45;&gt;Node28</title>
<path fill="none" stroke="midnightblue" d="M61.6252,-620.305C66.155,-585.871 86.2581,-468.408 155,-410 157.524,-407.855 160.244,-405.935 163.105,-404.215"/>
<polygon fill="midnightblue" stroke="midnightblue" points="164.746,-407.307 172.054,-399.636 161.558,-401.075 164.746,-407.307"/>
</g>
<!-- Node29 -->
<g id="node29" class="node"><title>Node29</title>
<g id="a_node29"><a xlink:href="class_t_m_c_stepper.html#ac59a9305aafc64a63698a34cac404788" target="_top" xlink:title=" ">
<polygon fill="white" stroke="black" points="170.5,-342.5 170.5,-361.5 302.5,-361.5 302.5,-342.5 170.5,-342.5"/>
<text text-anchor="middle" x="236.5" y="-349.5" font-family="Helvetica,sans-Serif" font-size="10.00">TMCStepper::TPWMTHRS</text>
</a>
</g>
</g>
<!-- Node1&#45;&gt;Node29 -->
<g id="edge34" class="edge"><title>Node1&#45;&gt;Node29</title>
<path fill="none" stroke="midnightblue" d="M60.8958,-620.484C63.0086,-582.589 76.0973,-441.096 155,-371 156.973,-369.248 159.077,-367.649 161.283,-366.191"/>
<polygon fill="midnightblue" stroke="midnightblue" points="163.185,-369.139 170.242,-361.236 159.797,-363.013 163.185,-369.139"/>
</g>
<!-- Node30 -->
<g id="node30" class="node"><title>Node30</title>
<g id="a_node30"><a xlink:href="class_t_m_c5130_stepper.html#a3da5ddefeaea5e017d8e608e43269e1e" target="_top" xlink:title=" ">
<polygon fill="white" stroke="black" points="160,-304.5 160,-323.5 313,-323.5 313,-304.5 160,-304.5"/>
<text text-anchor="middle" x="236.5" y="-311.5" font-family="Helvetica,sans-Serif" font-size="10.00">TMC5130Stepper::TZEROWAIT</text>
</a>
</g>
</g>
<!-- Node1&#45;&gt;Node30 -->
<g id="edge35" class="edge"><title>Node1&#45;&gt;Node30</title>
<path fill="none" stroke="midnightblue" d="M60.3942,-620.277C60.5004,-578.77 66.6848,-414.824 155,-333 156.541,-331.573 158.168,-330.246 159.867,-329.014"/>
<polygon fill="midnightblue" stroke="midnightblue" points="162.112,-331.749 168.891,-323.607 158.514,-325.745 162.112,-331.749"/>
</g>
<!-- Node31 -->
<g id="node31" class="node"><title>Node31</title>
<g id="a_node31"><a xlink:href="class_t_m_c5130_stepper.html#ac24024aff92555221df26b8d30ccbe09" target="_top" xlink:title=" ">
<polygon fill="white" stroke="black" points="181.5,-266.5 181.5,-285.5 291.5,-285.5 291.5,-266.5 181.5,-266.5"/>
<text text-anchor="middle" x="236.5" y="-273.5" font-family="Helvetica,sans-Serif" font-size="10.00">TMC5130Stepper::V1</text>
</a>
</g>
</g>
<!-- Node1&#45;&gt;Node31 -->
<g id="edge36" class="edge"><title>Node1&#45;&gt;Node31</title>
<path fill="none" stroke="midnightblue" d="M59.99,-620.294C58.2136,-575.723 57.0232,-388.837 155,-295 159.764,-290.437 165.41,-286.9 171.469,-284.168"/>
<polygon fill="midnightblue" stroke="midnightblue" points="173.122,-287.286 181.262,-280.504 170.669,-280.73 173.122,-287.286"/>
</g>
<!-- Node32 -->
<g id="node32" class="node"><title>Node32</title>
<g id="a_node32"><a xlink:href="class_t_m_c2130_stepper.html#a4389f7f07c57d2267351b781c6031fb4" target="_top" xlink:title=" ">
<polygon fill="white" stroke="black" points="169,-228.5 169,-247.5 304,-247.5 304,-228.5 169,-228.5"/>
<text text-anchor="middle" x="236.5" y="-235.5" font-family="Helvetica,sans-Serif" font-size="10.00">TMC2130Stepper::VDCMIN</text>
</a>
</g>
</g>
<!-- Node1&#45;&gt;Node32 -->
<g id="edge37" class="edge"><title>Node1&#45;&gt;Node32</title>
<path fill="none" stroke="midnightblue" d="M61.6122,-620.218C67.8807,-566.785 100.474,-310.642 155,-257 156.497,-255.527 158.086,-254.161 159.751,-252.893"/>
<polygon fill="midnightblue" stroke="midnightblue" points="162.01,-255.609 168.641,-247.345 158.304,-249.67 162.01,-255.609"/>
</g>
<!-- Node33 -->
<g id="node33" class="node"><title>Node33</title>
<g id="a_node33"><a xlink:href="class_t_m_c5130_stepper.html#aaa76fdd1c6e8e7f6bb886e0b0031a500" target="_top" xlink:title=" ">
<polygon fill="white" stroke="black" points="174,-190.5 174,-209.5 299,-209.5 299,-190.5 174,-190.5"/>
<text text-anchor="middle" x="236.5" y="-197.5" font-family="Helvetica,sans-Serif" font-size="10.00">TMC5130Stepper::VMAX</text>
</a>
</g>
</g>
<!-- Node1&#45;&gt;Node33 -->
<g id="edge38" class="edge"><title>Node1&#45;&gt;Node33</title>
<path fill="none" stroke="midnightblue" d="M61.3552,-620.36C66.5362,-564.12 95.5061,-278.839 155,-219 157.879,-216.104 161.112,-213.617 164.584,-211.484"/>
<polygon fill="midnightblue" stroke="midnightblue" points="166.316,-214.53 173.644,-206.879 163.144,-208.29 166.316,-214.53"/>
</g>
<!-- Node34 -->
<g id="node34" class="node"><title>Node34</title>
<g id="a_node34"><a xlink:href="class_t_m_c5130_stepper.html#a93bf8f37da496535e8c7313096051de7" target="_top" xlink:title=" ">
<polygon fill="white" stroke="black" points="169,-152.5 169,-171.5 304,-171.5 304,-152.5 169,-152.5"/>
<text text-anchor="middle" x="236.5" y="-159.5" font-family="Helvetica,sans-Serif" font-size="10.00">TMC5130Stepper::VSTART</text>
</a>
</g>
</g>
<!-- Node1&#45;&gt;Node34 -->
<g id="edge39" class="edge"><title>Node1&#45;&gt;Node34</title>
<path fill="none" stroke="midnightblue" d="M61.1614,-620.263C65.3956,-560.802 90.5992,-246.988 155,-181 156.63,-179.33 158.377,-177.796 160.22,-176.386"/>
<polygon fill="midnightblue" stroke="midnightblue" points="162.238,-179.252 168.85,-170.974 158.519,-173.322 162.238,-179.252"/>
</g>
<!-- Node35 -->
<g id="node35" class="node"><title>Node35</title>
<g id="a_node35"><a xlink:href="class_t_m_c5130_stepper.html#a7afed936cd9b037d460dc30433d89911" target="_top" xlink:title=" ">
<polygon fill="white" stroke="black" points="171,-114.5 171,-133.5 302,-133.5 302,-114.5 171,-114.5"/>
<text text-anchor="middle" x="236.5" y="-121.5" font-family="Helvetica,sans-Serif" font-size="10.00">TMC5130Stepper::VSTOP</text>
</a>
</g>
</g>
<!-- Node1&#45;&gt;Node35 -->
<g id="edge40" class="edge"><title>Node1&#45;&gt;Node35</title>
<path fill="none" stroke="midnightblue" d="M60.9893,-620.267C64.3189,-557.949 85.638,-215.202 155,-143 157.098,-140.816 159.398,-138.862 161.85,-137.117"/>
<polygon fill="midnightblue" stroke="midnightblue" points="163.837,-140.01 170.711,-131.948 160.31,-133.963 163.837,-140.01"/>
</g>
<!-- Node36 -->
<g id="node36" class="node"><title>Node36</title>
<g id="a_node36"><a xlink:href="class_t_m_c5130_stepper.html#a694840324312e15515f3215c83565645" target="_top" xlink:title=" ">
<polygon fill="white" stroke="black" points="157.5,-76.5 157.5,-95.5 315.5,-95.5 315.5,-76.5 157.5,-76.5"/>
<text text-anchor="middle" x="236.5" y="-83.5" font-family="Helvetica,sans-Serif" font-size="10.00">TMC5130Stepper::X_COMPARE</text>
</a>
</g>
</g>
<!-- Node1&#45;&gt;Node36 -->
<g id="edge41" class="edge"><title>Node1&#45;&gt;Node36</title>
<path fill="none" stroke="midnightblue" d="M60.8381,-620.365C63.3077,-555.565 80.6253,-183.479 155,-105 156.222,-103.71 157.515,-102.501 158.867,-101.367"/>
<polygon fill="midnightblue" stroke="midnightblue" points="160.927,-104.198 167.207,-95.6652 156.976,-98.4199 160.927,-104.198"/>
</g>
<!-- Node37 -->
<g id="node37" class="node"><title>Node37</title>
<g id="a_node37"><a xlink:href="class_t_m_c5130_stepper.html#a7ddd27bea8034e6aec78ab2cf83cedd4" target="_top" xlink:title=" ">
<polygon fill="white" stroke="black" points="166.5,-38.5 166.5,-57.5 306.5,-57.5 306.5,-38.5 166.5,-38.5"/>
<text text-anchor="middle" x="236.5" y="-45.5" font-family="Helvetica,sans-Serif" font-size="10.00">TMC5130Stepper::XACTUAL</text>
</a>
</g>
</g>
<!-- Node1&#45;&gt;Node37 -->
<g id="edge42" class="edge"><title>Node1&#45;&gt;Node37</title>
<path fill="none" stroke="midnightblue" d="M60.7175,-620.116C62.4202,-551.939 75.7326,-151.636 155,-67 156.215,-65.703 157.5,-64.487 158.847,-63.3472"/>
<polygon fill="midnightblue" stroke="midnightblue" points="160.91,-66.1758 167.157,-57.6189 156.937,-60.4123 160.91,-66.1758"/>
</g>
<!-- Node38 -->
<g id="node38" class="node"><title>Node38</title>
<g id="a_node38"><a xlink:href="class_t_m_c2130_stepper.html#af486cd4712be021c735fc3bcb8eee9f5" target="_top" xlink:title=" ">
<polygon fill="white" stroke="black" points="168,-0.5 168,-19.5 305,-19.5 305,-0.5 168,-0.5"/>
<text text-anchor="middle" x="236.5" y="-7.5" font-family="Helvetica,sans-Serif" font-size="10.00">TMC2130Stepper::XDIRECT</text>
</a>
</g>
</g>
<!-- Node1&#45;&gt;Node38 -->
<g id="edge44" class="edge"><title>Node1&#45;&gt;Node38</title>
<path fill="none" stroke="midnightblue" d="M60.6002,-620.368C61.5265,-550.376 70.6329,-120.019 155,-29 156.391,-27.4993 157.877,-26.1068 159.442,-24.815"/>
<polygon fill="midnightblue" stroke="midnightblue" points="161.512,-27.6413 167.864,-19.1623 157.611,-21.829 161.512,-27.6413"/>
</g>
<!-- Node5 -->
<g id="node5" class="node"><title>Node5</title>
<g id="a_node5"><a xlink:href="class_t_m_c2130_stepper.html#aed0175bff6e80ebc14e0d2606283cbe0" target="_top" xlink:title=" ">
<polygon fill="white" stroke="black" points="354,-740.5 354,-759.5 470,-759.5 470,-740.5 354,-740.5"/>
<text text-anchor="middle" x="412" y="-747.5" font-family="Helvetica,sans-Serif" font-size="10.00">TMC2130Stepper::read</text>
</a>
</g>
</g>
<!-- Node4&#45;&gt;Node5 -->
<g id="edge4" class="edge"><title>Node4&#45;&gt;Node5</title>
<path fill="none" stroke="midnightblue" d="M305.267,-1187.4C309.948,-1184.88 314.277,-1181.79 318,-1178 376.541,-1118.41 403.101,-845.822 409.453,-769.76"/>
<polygon fill="midnightblue" stroke="midnightblue" points="412.953,-769.906 410.273,-759.655 405.976,-769.34 412.953,-769.906"/>
</g>
<!-- Node6 -->
<g id="node6" class="node"><title>Node6</title>
<g id="a_node6"><a xlink:href="class_t_m_c2130_stepper.html#aed8aa4583943e649dbf3bb1c1da90d63" target="_top" xlink:title=" ">
<polygon fill="white" stroke="black" points="506,-778.5 506,-797.5 658,-797.5 658,-778.5 506,-778.5"/>
<text text-anchor="middle" x="582" y="-785.5" font-family="Helvetica,sans-Serif" font-size="10.00">TMC2130Stepper::switchCSpin</text>
</a>
</g>
</g>
<!-- Node5&#45;&gt;Node6 -->
<g id="edge5" class="edge"><title>Node5&#45;&gt;Node6</title>
<path fill="none" stroke="midnightblue" d="M455.393,-759.589C477.763,-764.649 505.398,-770.9 529.047,-776.249"/>
<polygon fill="midnightblue" stroke="midnightblue" points="528.386,-779.687 538.911,-778.48 529.93,-772.86 528.386,-779.687"/>
</g>
<!-- Node7 -->
<g id="node7" class="node"><title>Node7</title>
<g id="a_node7"><a xlink:href="class_s_w___s_p_i_class.html#af260fdc0af3f1312b106483161e559c3" target="_top" xlink:title=" ">
<polygon fill="white" stroke="black" points="694,-721.5 694,-740.5 811,-740.5 811,-721.5 694,-721.5"/>
<text text-anchor="middle" x="752.5" y="-728.5" font-family="Helvetica,sans-Serif" font-size="10.00">SW_SPIClass::transfer</text>
</a>
</g>
</g>
<!-- Node5&#45;&gt;Node7 -->
<g id="edge6" class="edge"><title>Node5&#45;&gt;Node7</title>
<path fill="none" stroke="midnightblue" d="M470.039,-746.798C529.027,-743.487 621.113,-738.319 683.765,-734.802"/>
<polygon fill="midnightblue" stroke="midnightblue" points="684.156,-738.286 693.944,-734.231 683.763,-731.297 684.156,-738.286"/>
</g>
<!-- Node8 -->
<g id="node8" class="node"><title>Node8</title>
<g id="a_node8"><a xlink:href="class_s_w___s_p_i_class.html#a1b7600aa1d9571c103718c5d3e376675" target="_top" xlink:title=" ">
<polygon fill="white" stroke="black" points="518,-702.5 518,-721.5 646,-721.5 646,-702.5 518,-702.5"/>
<text text-anchor="middle" x="582" y="-709.5" font-family="Helvetica,sans-Serif" font-size="10.00">SW_SPIClass::transfer16</text>
</a>
</g>
</g>
<!-- Node5&#45;&gt;Node8 -->
<g id="edge7" class="edge"><title>Node5&#45;&gt;Node8</title>
<path fill="none" stroke="midnightblue" d="M455.393,-740.411C477.763,-735.351 505.398,-729.1 529.047,-723.751"/>
<polygon fill="midnightblue" stroke="midnightblue" points="529.93,-727.14 538.911,-721.52 528.386,-720.313 529.93,-727.14"/>
</g>
<!-- Node8&#45;&gt;Node7 -->
<g id="edge8" class="edge"><title>Node8&#45;&gt;Node7</title>
<path fill="none" stroke="midnightblue" d="M646.223,-719.129C658.406,-720.503 671.217,-721.947 683.543,-723.337"/>
<polygon fill="midnightblue" stroke="midnightblue" points="683.43,-726.847 693.76,-724.489 684.215,-719.891 683.43,-726.847"/>
</g>
<!-- Node11&#45;&gt;Node5 -->
<g id="edge12" class="edge"><title>Node11&#45;&gt;Node5</title>
<path fill="none" stroke="midnightblue" d="M304.192,-1073.48C309.232,-1070.96 313.93,-1067.85 318,-1064 404.208,-982.503 411.668,-825.255 411.479,-769.882"/>
<polygon fill="midnightblue" stroke="midnightblue" points="414.977,-769.631 411.349,-759.677 407.977,-769.721 414.977,-769.631"/>
</g>
<!-- Node16&#45;&gt;Node5 -->
<g id="edge18" class="edge"><title>Node16&#45;&gt;Node5</title>
<path fill="none" stroke="midnightblue" d="M296.263,-860.492C303.855,-858.023 311.306,-854.915 318,-851 353.806,-830.059 383.907,-790.917 399.513,-767.995"/>
<polygon fill="midnightblue" stroke="midnightblue" points="402.513,-769.805 405.115,-759.535 396.676,-765.94 402.513,-769.805"/>
</g>
<!-- Node17&#45;&gt;Node5 -->
<g id="edge20" class="edge"><title>Node17&#45;&gt;Node5</title>
<path fill="none" stroke="midnightblue" d="M290.366,-822.432C299.768,-819.917 309.322,-816.809 318,-813 345.623,-800.876 373.82,-780.401 391.811,-766.095"/>
<polygon fill="midnightblue" stroke="midnightblue" points="394.217,-768.65 399.776,-759.63 389.806,-763.214 394.217,-768.65"/>
</g>
<!-- Node21&#45;&gt;Node5 -->
<g id="edge25" class="edge"><title>Node21&#45;&gt;Node5</title>
<path fill="none" stroke="midnightblue" d="M290.366,-677.568C299.768,-680.083 309.322,-683.191 318,-687 345.623,-699.124 373.82,-719.599 391.811,-733.905"/>
<polygon fill="midnightblue" stroke="midnightblue" points="389.806,-736.786 399.776,-740.37 394.217,-731.35 389.806,-736.786"/>
</g>
<!-- Node24&#45;&gt;Node5 -->
<g id="edge29" class="edge"><title>Node24&#45;&gt;Node5</title>
<path fill="none" stroke="midnightblue" d="M301.409,-563.545C307.351,-566.028 313.006,-569.129 318,-573 370.71,-613.858 396.684,-693.081 406.364,-730.072"/>
<polygon fill="midnightblue" stroke="midnightblue" points="403.049,-731.245 408.857,-740.107 409.843,-729.558 403.049,-731.245"/>
</g>
<!-- Node37&#45;&gt;Node5 -->
<g id="edge43" class="edge"><title>Node37&#45;&gt;Node5</title>
<path fill="none" stroke="midnightblue" d="M306.344,-57.7123C310.662,-60.2203 314.622,-63.279 318,-67 409.399,-167.669 411.814,-627.786 411.203,-729.891"/>
<polygon fill="midnightblue" stroke="midnightblue" points="407.702,-730.033 411.124,-740.06 414.702,-730.087 407.702,-730.033"/>
</g>
<!-- Node38&#45;&gt;Node5 -->
<g id="edge45" class="edge"><title>Node38&#45;&gt;Node5</title>
<path fill="none" stroke="midnightblue" d="M305.257,-19.0514C310.004,-21.6788 314.346,-24.9471 318,-29 414.32,-135.844 412.844,-624.089 411.364,-729.783"/>
<polygon fill="midnightblue" stroke="midnightblue" points="407.861,-729.963 411.203,-740.017 414.86,-730.073 407.861,-729.963"/>
</g>
</g>
</svg>
