<?xml version="1.0" encoding="UTF-8" standalone="no"?>
<!DOCTYPE svg PUBLIC "-//W3C//DTD SVG 1.1//EN"
 "http://www.w3.org/Graphics/SVG/1.1/DTD/svg11.dtd">
<!-- Generated by graphviz version 2.38.0 (20140413.2041)
 -->
<!-- Title: TMCStepper::IHOLD_IRUN Pages: 1 -->
<svg width="455pt" height="294pt"
 viewBox="0.00 0.00 455.00 294.00" xmlns="http://www.w3.org/2000/svg" xmlns:xlink="http://www.w3.org/1999/xlink">
<g id="graph0" class="graph" transform="scale(1 1) rotate(0) translate(4 290)">
<title>TMCStepper::IHOLD_IRUN</title>
<polygon fill="white" stroke="none" points="-4,4 -4,-290 451,-290 451,4 -4,4"/>
<!-- Node1 -->
<g id="node1" class="node"><title>Node1</title>
<g id="a_node1"><a xlink:title=" ">
<polygon fill="#bfbfbf" stroke="black" points="314,-133.5 314,-152.5 447,-152.5 447,-133.5 314,-133.5"/>
<text text-anchor="middle" x="380.5" y="-140.5" font-family="Helvetica,sans-Serif" font-size="10.00">TMCStepper::IHOLD_IRUN</text>
</a>
</g>
</g>
<!-- Node2 -->
<g id="node2" class="node"><title>Node2</title>
<g id="a_node2"><a xlink:href="class_t_m_c2130_stepper.html#a2d19f2ad93b00b75ffdcdd73275d2f03" target="_top" xlink:title=" ">
<polygon fill="white" stroke="black" points="157,-266.5 157,-285.5 278,-285.5 278,-266.5 157,-266.5"/>
<text text-anchor="middle" x="217.5" y="-273.5" font-family="Helvetica,sans-Serif" font-size="10.00">TMC2130Stepper::begin</text>
</a>
</g>
</g>
<!-- Node1&#45;&gt;Node2 -->
<g id="edge1" class="edge"><title>Node1&#45;&gt;Node2</title>
<path fill="none" stroke="midnightblue" d="M368.055,-161.045C351.261,-186.108 317.604,-231.266 278,-257 272.09,-260.84 265.345,-263.955 258.57,-266.466"/>
<polygon fill="midnightblue" stroke="midnightblue" points="371.096,-162.79 373.643,-152.506 365.238,-158.957 371.096,-162.79"/>
</g>
<!-- Node3 -->
<g id="node3" class="node"><title>Node3</title>
<g id="a_node3"><a xlink:href="class_t_m_c2160_stepper.html#a7ee48b042245ef5b3968b82029d1404c" target="_top" xlink:title=" ">
<polygon fill="white" stroke="black" points="157,-228.5 157,-247.5 278,-247.5 278,-228.5 157,-228.5"/>
<text text-anchor="middle" x="217.5" y="-235.5" font-family="Helvetica,sans-Serif" font-size="10.00">TMC2160Stepper::begin</text>
</a>
</g>
</g>
<!-- Node1&#45;&gt;Node3 -->
<g id="edge2" class="edge"><title>Node1&#45;&gt;Node3</title>
<path fill="none" stroke="midnightblue" d="M361.325,-159.6C341.935,-176.56 309.704,-202.659 278,-219 270.867,-222.676 262.887,-225.815 255.144,-228.419"/>
<polygon fill="midnightblue" stroke="midnightblue" points="363.901,-161.993 369.047,-152.732 359.249,-156.762 363.901,-161.993"/>
</g>
<!-- Node5 -->
<g id="node5" class="node"><title>Node5</title>
<g id="a_node5"><a xlink:href="class_t_m_c2130_stepper.html#ac62d32ad08be0a34b411bdd5a8489246" target="_top" xlink:title=" ">
<polygon fill="white" stroke="black" points="158,-190.5 158,-209.5 277,-209.5 277,-190.5 158,-190.5"/>
<text text-anchor="middle" x="217.5" y="-197.5" font-family="Helvetica,sans-Serif" font-size="10.00">TMC2130Stepper::push</text>
</a>
</g>
</g>
<!-- Node1&#45;&gt;Node5 -->
<g id="edge4" class="edge"><title>Node1&#45;&gt;Node5</title>
<path fill="none" stroke="midnightblue" d="M345.57,-156.179C325.919,-163.692 300.661,-173.145 278,-181 268.779,-184.196 258.687,-187.493 249.477,-190.426"/>
<polygon fill="midnightblue" stroke="midnightblue" points="346.929,-159.406 355.01,-152.554 344.42,-152.871 346.929,-159.406"/>
</g>
<!-- Node6 -->
<g id="node6" class="node"><title>Node6</title>
<g id="a_node6"><a xlink:href="class_t_m_c2160_stepper.html#ae8035a0cb8151d5227d8528e540e637d" target="_top" xlink:title=" ">
<polygon fill="white" stroke="black" points="158,-152.5 158,-171.5 277,-171.5 277,-152.5 158,-152.5"/>
<text text-anchor="middle" x="217.5" y="-159.5" font-family="Helvetica,sans-Serif" font-size="10.00">TMC2160Stepper::push</text>
</a>
</g>
</g>
<!-- Node1&#45;&gt;Node6 -->
<g id="edge5" class="edge"><title>Node1&#45;&gt;Node6</title>
<path fill="none" stroke="midnightblue" d="M303.571,-151.961C294.683,-153.009 285.72,-154.067 277.118,-155.082"/>
<polygon fill="midnightblue" stroke="midnightblue" points="304.03,-155.431 313.551,-150.783 303.209,-148.479 304.03,-155.431"/>
</g>
<!-- Node7 -->
<g id="node7" class="node"><title>Node7</title>
<g id="a_node7"><a xlink:href="class_t_m_c5130_stepper.html#a55e61f5181d74f26c9d35c54e4436d7a" target="_top" xlink:title=" ">
<polygon fill="white" stroke="black" points="158,-114.5 158,-133.5 277,-133.5 277,-114.5 158,-114.5"/>
<text text-anchor="middle" x="217.5" y="-121.5" font-family="Helvetica,sans-Serif" font-size="10.00">TMC5130Stepper::push</text>
</a>
</g>
</g>
<!-- Node1&#45;&gt;Node7 -->
<g id="edge6" class="edge"><title>Node1&#45;&gt;Node7</title>
<path fill="none" stroke="midnightblue" d="M303.571,-134.039C294.683,-132.991 285.72,-131.933 277.118,-130.918"/>
<polygon fill="midnightblue" stroke="midnightblue" points="303.209,-137.521 313.551,-135.217 304.03,-130.569 303.209,-137.521"/>
</g>
<!-- Node8 -->
<g id="node8" class="node"><title>Node8</title>
<g id="a_node8"><a xlink:href="class_t_m_c5160_stepper.html#a5a12974304588f9d01898d91ba854b87" target="_top" xlink:title=" ">
<polygon fill="white" stroke="black" points="158,-76.5 158,-95.5 277,-95.5 277,-76.5 158,-76.5"/>
<text text-anchor="middle" x="217.5" y="-83.5" font-family="Helvetica,sans-Serif" font-size="10.00">TMC5160Stepper::push</text>
</a>
</g>
</g>
<!-- Node1&#45;&gt;Node8 -->
<g id="edge7" class="edge"><title>Node1&#45;&gt;Node8</title>
<path fill="none" stroke="midnightblue" d="M345.57,-129.821C325.919,-122.308 300.661,-112.855 278,-105 268.779,-101.804 258.687,-98.5065 249.477,-95.5744"/>
<polygon fill="midnightblue" stroke="midnightblue" points="344.42,-133.129 355.01,-133.446 346.929,-126.594 344.42,-133.129"/>
</g>
<!-- Node9 -->
<g id="node9" class="node"><title>Node9</title>
<g id="a_node9"><a xlink:href="class_t_m_c2208_stepper.html#a8eb0d71fbfeeb24c9092328c44fab7e5" target="_top" xlink:title=" ">
<polygon fill="white" stroke="black" points="158,-38.5 158,-57.5 277,-57.5 277,-38.5 158,-38.5"/>
<text text-anchor="middle" x="217.5" y="-45.5" font-family="Helvetica,sans-Serif" font-size="10.00">TMC2208Stepper::push</text>
</a>
</g>
</g>
<!-- Node1&#45;&gt;Node9 -->
<g id="edge8" class="edge"><title>Node1&#45;&gt;Node9</title>
<path fill="none" stroke="midnightblue" d="M361.325,-126.4C341.935,-109.44 309.704,-83.3408 278,-67 270.867,-63.3237 262.887,-60.1852 255.144,-57.5807"/>
<polygon fill="midnightblue" stroke="midnightblue" points="359.249,-129.238 369.047,-133.268 363.901,-124.007 359.249,-129.238"/>
</g>
<!-- Node10 -->
<g id="node10" class="node"><title>Node10</title>
<g id="a_node10"><a xlink:href="class_t_m_c2209_stepper.html#a180f4b9a78e526592d946ec12f71982e" target="_top" xlink:title=" ">
<polygon fill="white" stroke="black" points="158,-0.5 158,-19.5 277,-19.5 277,-0.5 158,-0.5"/>
<text text-anchor="middle" x="217.5" y="-7.5" font-family="Helvetica,sans-Serif" font-size="10.00">TMC2209Stepper::push</text>
</a>
</g>
</g>
<!-- Node1&#45;&gt;Node10 -->
<g id="edge9" class="edge"><title>Node1&#45;&gt;Node10</title>
<path fill="none" stroke="midnightblue" d="M368.055,-124.955C351.261,-99.8923 317.604,-54.7337 278,-29 272.09,-25.1596 265.345,-22.0445 258.57,-19.534"/>
<polygon fill="midnightblue" stroke="midnightblue" points="365.238,-127.043 373.643,-133.494 371.096,-123.21 365.238,-127.043"/>
</g>
<!-- Node4 -->
<g id="node4" class="node"><title>Node4</title>
<g id="a_node4"><a xlink:href="class_t_m_c5130_stepper.html#a897212f81817cdaee4536d642badc149" target="_top" xlink:title=" ">
<polygon fill="white" stroke="black" points="0,-228.5 0,-247.5 121,-247.5 121,-228.5 0,-228.5"/>
<text text-anchor="middle" x="60.5" y="-235.5" font-family="Helvetica,sans-Serif" font-size="10.00">TMC5130Stepper::begin</text>
</a>
</g>
</g>
<!-- Node3&#45;&gt;Node4 -->
<g id="edge3" class="edge"><title>Node3&#45;&gt;Node4</title>
<path fill="none" stroke="midnightblue" d="M146.339,-238C137.878,-238 129.3,-238 121.012,-238"/>
<polygon fill="midnightblue" stroke="midnightblue" points="146.573,-241.5 156.573,-238 146.573,-234.5 146.573,-241.5"/>
</g>
</g>
</svg>
