<?xml version="1.0" encoding="UTF-8" standalone="no"?>
<!DOCTYPE svg PUBLIC "-//W3C//DTD SVG 1.1//EN"
 "http://www.w3.org/Graphics/SVG/1.1/DTD/svg11.dtd">
<!-- Generated by graphviz version 2.38.0 (20140413.2041)
 -->
<!-- Title: TMC2130Stepper::tbl Pages: 1 -->
<svg width="430pt" height="104pt"
 viewBox="0.00 0.00 430.00 104.00" xmlns="http://www.w3.org/2000/svg" xmlns:xlink="http://www.w3.org/1999/xlink">
<g id="graph0" class="graph" transform="scale(1 1) rotate(0) translate(4 100)">
<title>TMC2130Stepper::tbl</title>
<polygon fill="white" stroke="none" points="-4,4 -4,-100 426,-100 426,4 -4,4"/>
<!-- Node1 -->
<g id="node1" class="node"><title>Node1</title>
<g id="a_node1"><a xlink:title=" ">
<polygon fill="#bfbfbf" stroke="black" points="314,-38.5 314,-57.5 422,-57.5 422,-38.5 314,-38.5"/>
<text text-anchor="middle" x="368" y="-45.5" font-family="Helvetica,sans-Serif" font-size="10.00">TMC2130Stepper::tbl</text>
</a>
</g>
</g>
<!-- Node2 -->
<g id="node2" class="node"><title>Node2</title>
<g id="a_node2"><a xlink:href="class_t_m_c2130_stepper.html#a2d19f2ad93b00b75ffdcdd73275d2f03" target="_top" xlink:title=" ">
<polygon fill="white" stroke="black" points="157,-76.5 157,-95.5 278,-95.5 278,-76.5 157,-76.5"/>
<text text-anchor="middle" x="217.5" y="-83.5" font-family="Helvetica,sans-Serif" font-size="10.00">TMC2130Stepper::begin</text>
</a>
</g>
</g>
<!-- Node1&#45;&gt;Node2 -->
<g id="edge1" class="edge"><title>Node1&#45;&gt;Node2</title>
<path fill="none" stroke="midnightblue" d="M319.667,-60.1121C298.985,-65.4044 275.081,-71.5213 255.703,-76.4799"/>
<polygon fill="midnightblue" stroke="midnightblue" points="320.707,-63.4589 329.527,-57.589 318.972,-56.6774 320.707,-63.4589"/>
</g>
<!-- Node3 -->
<g id="node3" class="node"><title>Node3</title>
<g id="a_node3"><a xlink:href="class_t_m_c2160_stepper.html#a7ee48b042245ef5b3968b82029d1404c" target="_top" xlink:title=" ">
<polygon fill="white" stroke="black" points="157,-38.5 157,-57.5 278,-57.5 278,-38.5 157,-38.5"/>
<text text-anchor="middle" x="217.5" y="-45.5" font-family="Helvetica,sans-Serif" font-size="10.00">TMC2160Stepper::begin</text>
</a>
</g>
</g>
<!-- Node1&#45;&gt;Node3 -->
<g id="edge2" class="edge"><title>Node1&#45;&gt;Node3</title>
<path fill="none" stroke="midnightblue" d="M303.62,-48C295.165,-48 286.517,-48 278.129,-48"/>
<polygon fill="midnightblue" stroke="midnightblue" points="303.808,-51.5001 313.808,-48 303.808,-44.5001 303.808,-51.5001"/>
</g>
<!-- Node5 -->
<g id="node5" class="node"><title>Node5</title>
<g id="a_node5"><a xlink:href="class_t_m_c2130_stepper.html#ac197c45a9104c0099f523f500080a592" target="_top" xlink:title=" ">
<polygon fill="white" stroke="black" points="163.5,-0.5 163.5,-19.5 271.5,-19.5 271.5,-0.5 163.5,-0.5"/>
<text text-anchor="middle" x="217.5" y="-7.5" font-family="Helvetica,sans-Serif" font-size="10.00">TMC2130Stepper::tbl</text>
</a>
</g>
</g>
<!-- Node1&#45;&gt;Node5 -->
<g id="edge4" class="edge"><title>Node1&#45;&gt;Node5</title>
<path fill="none" stroke="midnightblue" d="M319.667,-35.8879C298.985,-30.5956 275.081,-24.4787 255.703,-19.5201"/>
<polygon fill="midnightblue" stroke="midnightblue" points="318.972,-39.3226 329.527,-38.411 320.707,-32.5411 318.972,-39.3226"/>
</g>
<!-- Node4 -->
<g id="node4" class="node"><title>Node4</title>
<g id="a_node4"><a xlink:href="class_t_m_c5130_stepper.html#a897212f81817cdaee4536d642badc149" target="_top" xlink:title=" ">
<polygon fill="white" stroke="black" points="0,-38.5 0,-57.5 121,-57.5 121,-38.5 0,-38.5"/>
<text text-anchor="middle" x="60.5" y="-45.5" font-family="Helvetica,sans-Serif" font-size="10.00">TMC5130Stepper::begin</text>
</a>
</g>
</g>
<!-- Node3&#45;&gt;Node4 -->
<g id="edge3" class="edge"><title>Node3&#45;&gt;Node4</title>
<path fill="none" stroke="midnightblue" d="M146.339,-48C137.878,-48 129.3,-48 121.012,-48"/>
<polygon fill="midnightblue" stroke="midnightblue" points="146.573,-51.5001 156.573,-48 146.573,-44.5001 146.573,-51.5001"/>
</g>
</g>
</svg>
