<?xml version="1.0" encoding="UTF-8" standalone="no"?>
<!DOCTYPE svg PUBLIC "-//W3C//DTD SVG 1.1//EN"
 "http://www.w3.org/Graphics/SVG/1.1/DTD/svg11.dtd">
<!-- Generated by graphviz version 2.38.0 (20140413.2041)
 -->
<!-- Title: TMC2208Stepper::hstrt Pages: 1 -->
<svg width="1000pt" height="156pt"
 viewBox="0.00 0.00 1000.00 156.41" xmlns="http://www.w3.org/2000/svg" xmlns:xlink="http://www.w3.org/1999/xlink">
<g id="graph0" class="graph" transform="scale(1 1) rotate(0) translate(4 152.405)">
<title>TMC2208Stepper::hstrt</title>
<polygon fill="white" stroke="none" points="-4,4 -4,-152.405 996,-152.405 996,4 -4,4"/>
<!-- Node1 -->
<g id="node1" class="node"><title>Node1</title>
<g id="a_node1"><a xlink:title=" ">
<polygon fill="#bfbfbf" stroke="black" points="0,-46.9052 0,-65.9052 117,-65.9052 117,-46.9052 0,-46.9052"/>
<text text-anchor="middle" x="58.5" y="-53.9052" font-family="Helvetica,sans-Serif" font-size="10.00">TMC2208Stepper::hstrt</text>
</a>
</g>
</g>
<!-- Node2 -->
<g id="node2" class="node"><title>Node2</title>
<g id="a_node2"><a xlink:href="class_t_m_c2208_stepper.html#aa11281f54c293f3ff2539b1a583682a9" target="_top" xlink:title=" ">
<polygon fill="white" stroke="black" points="153,-46.9052 153,-65.9052 305,-65.9052 305,-46.9052 153,-46.9052"/>
<text text-anchor="middle" x="229" y="-53.9052" font-family="Helvetica,sans-Serif" font-size="10.00">TMC2208Stepper::CHOPCONF</text>
</a>
</g>
</g>
<!-- Node1&#45;&gt;Node2 -->
<g id="edge1" class="edge"><title>Node1&#45;&gt;Node2</title>
<path fill="none" stroke="midnightblue" d="M117.017,-56.4052C125.308,-56.4052 133.985,-56.4052 142.677,-56.4052"/>
<polygon fill="midnightblue" stroke="midnightblue" points="142.866,-59.9053 152.866,-56.4052 142.866,-52.9053 142.866,-59.9053"/>
</g>
<!-- Node3 -->
<g id="node3" class="node"><title>Node3</title>
<g id="a_node3"><a xlink:href="class_t_m_c2208_stepper.html#a2fae2050849c3ab7968012def8ea1cc5" target="_top" xlink:title=" ">
<polygon fill="white" stroke="black" points="341,-46.9052 341,-65.9052 457,-65.9052 457,-46.9052 341,-46.9052"/>
<text text-anchor="middle" x="399" y="-53.9052" font-family="Helvetica,sans-Serif" font-size="10.00">TMC2208Stepper::read</text>
</a>
</g>
</g>
<!-- Node2&#45;&gt;Node3 -->
<g id="edge2" class="edge"><title>Node2&#45;&gt;Node3</title>
<path fill="none" stroke="midnightblue" d="M305.155,-56.4052C313.664,-56.4052 322.296,-56.4052 330.696,-56.4052"/>
<polygon fill="midnightblue" stroke="midnightblue" points="330.802,-59.9053 340.802,-56.4052 330.802,-52.9053 330.802,-59.9053"/>
</g>
<!-- Node4 -->
<g id="node4" class="node"><title>Node4</title>
<g id="a_node4"><a xlink:href="class_t_m_c2208_stepper.html#a3e1f6a10aa1e3e41dc2594dbe1ea8a1d" target="_top" xlink:title=" ">
<polygon fill="white" stroke="black" points="493,-103.905 493,-122.905 659,-122.905 659,-103.905 493,-103.905"/>
<text text-anchor="middle" x="576" y="-110.905" font-family="Helvetica,sans-Serif" font-size="10.00">TMC2208Stepper::_sendDatagram</text>
</a>
</g>
</g>
<!-- Node3&#45;&gt;Node4 -->
<g id="edge3" class="edge"><title>Node3&#45;&gt;Node4</title>
<path fill="none" stroke="midnightblue" d="M420.7,-65.9833C439.317,-74.3262 467.568,-86.3205 493,-94.4052 501.008,-96.9508 509.555,-99.3114 517.996,-101.442"/>
<polygon fill="midnightblue" stroke="midnightblue" points="517.272,-104.868 527.816,-103.834 518.929,-98.0666 517.272,-104.868"/>
</g>
<!-- Node9 -->
<g id="node9" class="node"><title>Node9</title>
<g id="a_node9"><a xlink:href="class_s_switch.html#a6ff09d0850d551571dc333fb74ff8628" target="_top" xlink:title=" ">
<polygon fill="white" stroke="black" points="534.5,-65.9052 534.5,-84.9052 617.5,-84.9052 617.5,-65.9052 534.5,-65.9052"/>
<text text-anchor="middle" x="576" y="-72.9052" font-family="Helvetica,sans-Serif" font-size="10.00">SSwitch::active</text>
</a>
</g>
</g>
<!-- Node3&#45;&gt;Node9 -->
<g id="edge9" class="edge"><title>Node3&#45;&gt;Node9</title>
<path fill="none" stroke="midnightblue" d="M457.302,-62.6265C478.975,-64.9796 503.465,-67.6385 524.472,-69.9193"/>
<polygon fill="midnightblue" stroke="midnightblue" points="524.158,-73.4056 534.477,-71.0055 524.913,-66.4465 524.158,-73.4056"/>
</g>
<!-- Node10 -->
<g id="node10" class="node"><title>Node10</title>
<g id="a_node10"><a xlink:href="class_t_m_c2208_stepper.html#a409c19fa6b052a370a317d061bf9af4e" target="_top" xlink:title=" ">
<polygon fill="white" stroke="black" points="508,-27.9052 508,-46.9052 644,-46.9052 644,-27.9052 508,-27.9052"/>
<text text-anchor="middle" x="576" y="-34.9052" font-family="Helvetica,sans-Serif" font-size="10.00">TMC2208Stepper::calcCRC</text>
</a>
</g>
</g>
<!-- Node3&#45;&gt;Node10 -->
<g id="edge10" class="edge"><title>Node3&#45;&gt;Node10</title>
<path fill="none" stroke="midnightblue" d="M457.302,-50.1839C470.17,-48.7867 484.032,-47.2817 497.567,-45.8121"/>
<polygon fill="midnightblue" stroke="midnightblue" points="498.269,-49.2566 507.833,-44.6976 497.514,-42.2975 498.269,-49.2566"/>
</g>
<!-- Node5 -->
<g id="node5" class="node"><title>Node5</title>
<g id="a_node5"><a xlink:href="class_t_m_c2208_stepper.html#a4ec5d2b2f5a31259c7aba1f3208d63b8" target="_top" xlink:title=" ">
<polygon fill="white" stroke="black" points="709.5,-128.905 709.5,-147.905 825.5,-147.905 825.5,-128.905 709.5,-128.905"/>
<text text-anchor="middle" x="767.5" y="-135.905" font-family="Helvetica,sans-Serif" font-size="10.00">TMC2208Stepper::ms2</text>
</a>
</g>
</g>
<!-- Node4&#45;&gt;Node5 -->
<g id="edge4" class="edge"><title>Node4&#45;&gt;Node5</title>
<path fill="none" stroke="midnightblue" d="M649.182,-122.928C665.64,-125.099 683.062,-127.397 699.301,-129.54"/>
<polygon fill="midnightblue" stroke="midnightblue" points="698.868,-133.013 709.24,-130.851 699.784,-126.073 698.868,-133.013"/>
</g>
<!-- Node7 -->
<g id="node7" class="node"><title>Node7</title>
<g id="a_node7"><a xlink:href="class_t_m_c2208_stepper.html#ae561da4ec7c40830e97bf4dc8cf700fb" target="_top" xlink:title=" ">
<polygon fill="white" stroke="black" points="695,-90.9052 695,-109.905 840,-109.905 840,-90.9052 695,-90.9052"/>
<text text-anchor="middle" x="767.5" y="-97.9052" font-family="Helvetica,sans-Serif" font-size="10.00">TMC2208Stepper::serial_read</text>
</a>
</g>
</g>
<!-- Node4&#45;&gt;Node7 -->
<g id="edge7" class="edge"><title>Node4&#45;&gt;Node7</title>
<path fill="none" stroke="midnightblue" d="M659.015,-107.779C667.478,-107.198 676.078,-106.608 684.54,-106.028"/>
<polygon fill="midnightblue" stroke="midnightblue" points="685.038,-109.502 694.775,-105.326 684.559,-102.518 685.038,-109.502"/>
</g>
<!-- Node8 -->
<g id="node8" class="node"><title>Node8</title>
<g id="a_node8"><a xlink:href="class_t_m_c2208_stepper.html#a7dd83313385079099b0622957786a979" target="_top" xlink:title=" ">
<polygon fill="white" stroke="black" points="707,-41.4052 707,-71.4052 828,-71.4052 828,-41.4052 707,-41.4052"/>
<text text-anchor="start" x="715" y="-59.4052" font-family="Helvetica,sans-Serif" font-size="10.00">TMC2208Stepper::serial</text>
<text text-anchor="middle" x="767.5" y="-48.4052" font-family="Helvetica,sans-Serif" font-size="10.00">_write</text>
</a>
</g>
</g>
<!-- Node4&#45;&gt;Node8 -->
<g id="edge8" class="edge"><title>Node4&#45;&gt;Node8</title>
<path fill="none" stroke="midnightblue" d="M622.793,-103.808C634.658,-101.045 647.367,-97.8399 659,-94.4052 675.315,-89.5878 678.971,-87.1015 695,-81.4052 701.017,-79.2668 707.325,-77.0401 713.595,-74.8355"/>
<polygon fill="midnightblue" stroke="midnightblue" points="715.095,-78.0185 723.372,-71.4052 712.778,-71.4133 715.095,-78.0185"/>
</g>
<!-- Node6 -->
<g id="node6" class="node"><title>Node6</title>
<g id="a_node6"><a xlink:href="class_t_m_c2208_stepper.html#a5441dd87d0bcea4ffc309cb012166a57" target="_top" xlink:title=" ">
<polygon fill="white" stroke="black" points="876,-58.9052 876,-77.9052 992,-77.9052 992,-58.9052 876,-58.9052"/>
<text text-anchor="middle" x="934" y="-65.9052" font-family="Helvetica,sans-Serif" font-size="10.00">TMC2208Stepper::IOIN</text>
</a>
</g>
</g>
<!-- Node5&#45;&gt;Node6 -->
<g id="edge5" class="edge"><title>Node5&#45;&gt;Node6</title>
<path fill="none" stroke="midnightblue" d="M811.395,-128.814C820.954,-126.18 830.937,-123.032 840,-119.405 864.717,-109.514 891.177,-94.529 909.529,-83.3584"/>
<polygon fill="midnightblue" stroke="midnightblue" points="911.423,-86.3019 918.088,-78.0661 907.742,-80.348 911.423,-86.3019"/>
</g>
<!-- Node6&#45;&gt;Node3 -->
<g id="edge6" class="edge"><title>Node6&#45;&gt;Node3</title>
<path fill="none" stroke="midnightblue" d="M913.963,-58.8176C895.546,-50.0326 866.593,-37.4965 840,-31.4052 689.566,3.05335 644.437,11.3399 493,-18.4052 469.751,-22.9717 444.989,-33.3919 426.866,-42.1675"/>
<polygon fill="midnightblue" stroke="midnightblue" points="424.917,-39.2285 417.532,-46.826 428.043,-45.4917 424.917,-39.2285"/>
</g>
</g>
</svg>
