<?xml version="1.0" encoding="UTF-8" standalone="no"?>
<!DOCTYPE svg PUBLIC "-//W3C//DTD SVG 1.1//EN"
 "http://www.w3.org/Graphics/SVG/1.1/DTD/svg11.dtd">
<!-- Generated by graphviz version 2.38.0 (20140413.2041)
 -->
<!-- Title: TMC2208Stepper::pdn_disable Pages: 1 -->
<svg width="1125pt" height="156pt"
 viewBox="0.00 0.00 1125.00 156.41" xmlns="http://www.w3.org/2000/svg" xmlns:xlink="http://www.w3.org/1999/xlink">
<g id="graph0" class="graph" transform="scale(1 1) rotate(0) translate(4 152.405)">
<title>TMC2208Stepper::pdn_disable</title>
<polygon fill="white" stroke="none" points="-4,4 -4,-152.405 1121,-152.405 1121,4 -4,4"/>
<!-- Node1 -->
<g id="node1" class="node"><title>Node1</title>
<g id="a_node1"><a xlink:title=" ">
<polygon fill="#bfbfbf" stroke="black" points="0,-41.4052 0,-71.4052 113,-71.4052 113,-41.4052 0,-41.4052"/>
<text text-anchor="start" x="8" y="-59.4052" font-family="Helvetica,sans-Serif" font-size="10.00">TMC2208Stepper::pdn</text>
<text text-anchor="middle" x="56.5" y="-48.4052" font-family="Helvetica,sans-Serif" font-size="10.00">_disable</text>
</a>
</g>
</g>
<!-- Node2 -->
<g id="node2" class="node"><title>Node2</title>
<g id="a_node2"><a xlink:href="class_t_m_c2208_stepper.html#a9de4a150926f2875903be27063f00973" target="_top" xlink:title=" ">
<polygon fill="white" stroke="black" points="149,-41.4052 149,-71.4052 262,-71.4052 262,-41.4052 149,-41.4052"/>
<text text-anchor="start" x="157" y="-59.4052" font-family="Helvetica,sans-Serif" font-size="10.00">TMC2208Stepper::pdn</text>
<text text-anchor="middle" x="205.5" y="-48.4052" font-family="Helvetica,sans-Serif" font-size="10.00">_disable</text>
</a>
</g>
</g>
<!-- Node1&#45;&gt;Node2 -->
<g id="edge1" class="edge"><title>Node1&#45;&gt;Node2</title>
<path fill="none" stroke="midnightblue" d="M113.074,-56.4052C121.489,-56.4052 130.238,-56.4052 138.842,-56.4052"/>
<polygon fill="midnightblue" stroke="midnightblue" points="138.847,-59.9053 148.847,-56.4052 138.847,-52.9053 138.847,-59.9053"/>
</g>
<!-- Node3 -->
<g id="node3" class="node"><title>Node3</title>
<g id="a_node3"><a xlink:href="class_t_m_c2208_stepper.html#a549db4f962d4ae698dda33ef9a708e33" target="_top" xlink:title=" ">
<polygon fill="white" stroke="black" points="298,-46.9052 298,-65.9052 430,-65.9052 430,-46.9052 298,-46.9052"/>
<text text-anchor="middle" x="364" y="-53.9052" font-family="Helvetica,sans-Serif" font-size="10.00">TMC2208Stepper::GCONF</text>
</a>
</g>
</g>
<!-- Node2&#45;&gt;Node3 -->
<g id="edge2" class="edge"><title>Node2&#45;&gt;Node3</title>
<path fill="none" stroke="midnightblue" d="M262.117,-56.4052C270.452,-56.4052 279.162,-56.4052 287.822,-56.4052"/>
<polygon fill="midnightblue" stroke="midnightblue" points="287.94,-59.9053 297.94,-56.4052 287.94,-52.9053 287.94,-59.9053"/>
</g>
<!-- Node4 -->
<g id="node4" class="node"><title>Node4</title>
<g id="a_node4"><a xlink:href="class_t_m_c2208_stepper.html#a2fae2050849c3ab7968012def8ea1cc5" target="_top" xlink:title=" ">
<polygon fill="white" stroke="black" points="466,-46.9052 466,-65.9052 582,-65.9052 582,-46.9052 466,-46.9052"/>
<text text-anchor="middle" x="524" y="-53.9052" font-family="Helvetica,sans-Serif" font-size="10.00">TMC2208Stepper::read</text>
</a>
</g>
</g>
<!-- Node3&#45;&gt;Node4 -->
<g id="edge3" class="edge"><title>Node3&#45;&gt;Node4</title>
<path fill="none" stroke="midnightblue" d="M430.177,-56.4052C438.517,-56.4052 447.069,-56.4052 455.445,-56.4052"/>
<polygon fill="midnightblue" stroke="midnightblue" points="455.55,-59.9053 465.55,-56.4052 455.55,-52.9053 455.55,-59.9053"/>
</g>
<!-- Node5 -->
<g id="node5" class="node"><title>Node5</title>
<g id="a_node5"><a xlink:href="class_t_m_c2208_stepper.html#a3e1f6a10aa1e3e41dc2594dbe1ea8a1d" target="_top" xlink:title=" ">
<polygon fill="white" stroke="black" points="618,-103.905 618,-122.905 784,-122.905 784,-103.905 618,-103.905"/>
<text text-anchor="middle" x="701" y="-110.905" font-family="Helvetica,sans-Serif" font-size="10.00">TMC2208Stepper::_sendDatagram</text>
</a>
</g>
</g>
<!-- Node4&#45;&gt;Node5 -->
<g id="edge4" class="edge"><title>Node4&#45;&gt;Node5</title>
<path fill="none" stroke="midnightblue" d="M545.7,-65.9833C564.317,-74.3262 592.568,-86.3205 618,-94.4052 626.008,-96.9508 634.555,-99.3114 642.996,-101.442"/>
<polygon fill="midnightblue" stroke="midnightblue" points="642.272,-104.868 652.816,-103.834 643.929,-98.0666 642.272,-104.868"/>
</g>
<!-- Node10 -->
<g id="node10" class="node"><title>Node10</title>
<g id="a_node10"><a xlink:href="class_s_switch.html#a6ff09d0850d551571dc333fb74ff8628" target="_top" xlink:title=" ">
<polygon fill="white" stroke="black" points="659.5,-65.9052 659.5,-84.9052 742.5,-84.9052 742.5,-65.9052 659.5,-65.9052"/>
<text text-anchor="middle" x="701" y="-72.9052" font-family="Helvetica,sans-Serif" font-size="10.00">SSwitch::active</text>
</a>
</g>
</g>
<!-- Node4&#45;&gt;Node10 -->
<g id="edge10" class="edge"><title>Node4&#45;&gt;Node10</title>
<path fill="none" stroke="midnightblue" d="M582.302,-62.6265C603.975,-64.9796 628.465,-67.6385 649.472,-69.9193"/>
<polygon fill="midnightblue" stroke="midnightblue" points="649.158,-73.4056 659.477,-71.0055 649.913,-66.4465 649.158,-73.4056"/>
</g>
<!-- Node11 -->
<g id="node11" class="node"><title>Node11</title>
<g id="a_node11"><a xlink:href="class_t_m_c2208_stepper.html#a409c19fa6b052a370a317d061bf9af4e" target="_top" xlink:title=" ">
<polygon fill="white" stroke="black" points="633,-27.9052 633,-46.9052 769,-46.9052 769,-27.9052 633,-27.9052"/>
<text text-anchor="middle" x="701" y="-34.9052" font-family="Helvetica,sans-Serif" font-size="10.00">TMC2208Stepper::calcCRC</text>
</a>
</g>
</g>
<!-- Node4&#45;&gt;Node11 -->
<g id="edge11" class="edge"><title>Node4&#45;&gt;Node11</title>
<path fill="none" stroke="midnightblue" d="M582.302,-50.1839C595.17,-48.7867 609.032,-47.2817 622.567,-45.8121"/>
<polygon fill="midnightblue" stroke="midnightblue" points="623.269,-49.2566 632.833,-44.6976 622.514,-42.2975 623.269,-49.2566"/>
</g>
<!-- Node6 -->
<g id="node6" class="node"><title>Node6</title>
<g id="a_node6"><a xlink:href="class_t_m_c2208_stepper.html#a4ec5d2b2f5a31259c7aba1f3208d63b8" target="_top" xlink:title=" ">
<polygon fill="white" stroke="black" points="834.5,-128.905 834.5,-147.905 950.5,-147.905 950.5,-128.905 834.5,-128.905"/>
<text text-anchor="middle" x="892.5" y="-135.905" font-family="Helvetica,sans-Serif" font-size="10.00">TMC2208Stepper::ms2</text>
</a>
</g>
</g>
<!-- Node5&#45;&gt;Node6 -->
<g id="edge5" class="edge"><title>Node5&#45;&gt;Node6</title>
<path fill="none" stroke="midnightblue" d="M774.182,-122.928C790.64,-125.099 808.062,-127.397 824.301,-129.54"/>
<polygon fill="midnightblue" stroke="midnightblue" points="823.868,-133.013 834.24,-130.851 824.784,-126.073 823.868,-133.013"/>
</g>
<!-- Node8 -->
<g id="node8" class="node"><title>Node8</title>
<g id="a_node8"><a xlink:href="class_t_m_c2208_stepper.html#ae561da4ec7c40830e97bf4dc8cf700fb" target="_top" xlink:title=" ">
<polygon fill="white" stroke="black" points="820,-90.9052 820,-109.905 965,-109.905 965,-90.9052 820,-90.9052"/>
<text text-anchor="middle" x="892.5" y="-97.9052" font-family="Helvetica,sans-Serif" font-size="10.00">TMC2208Stepper::serial_read</text>
</a>
</g>
</g>
<!-- Node5&#45;&gt;Node8 -->
<g id="edge8" class="edge"><title>Node5&#45;&gt;Node8</title>
<path fill="none" stroke="midnightblue" d="M784.015,-107.779C792.478,-107.198 801.078,-106.608 809.54,-106.028"/>
<polygon fill="midnightblue" stroke="midnightblue" points="810.038,-109.502 819.775,-105.326 809.559,-102.518 810.038,-109.502"/>
</g>
<!-- Node9 -->
<g id="node9" class="node"><title>Node9</title>
<g id="a_node9"><a xlink:href="class_t_m_c2208_stepper.html#a7dd83313385079099b0622957786a979" target="_top" xlink:title=" ">
<polygon fill="white" stroke="black" points="832,-41.4052 832,-71.4052 953,-71.4052 953,-41.4052 832,-41.4052"/>
<text text-anchor="start" x="840" y="-59.4052" font-family="Helvetica,sans-Serif" font-size="10.00">TMC2208Stepper::serial</text>
<text text-anchor="middle" x="892.5" y="-48.4052" font-family="Helvetica,sans-Serif" font-size="10.00">_write</text>
</a>
</g>
</g>
<!-- Node5&#45;&gt;Node9 -->
<g id="edge9" class="edge"><title>Node5&#45;&gt;Node9</title>
<path fill="none" stroke="midnightblue" d="M747.793,-103.808C759.658,-101.045 772.367,-97.8399 784,-94.4052 800.315,-89.5878 803.971,-87.1015 820,-81.4052 826.017,-79.2668 832.325,-77.0401 838.595,-74.8355"/>
<polygon fill="midnightblue" stroke="midnightblue" points="840.095,-78.0185 848.372,-71.4052 837.778,-71.4133 840.095,-78.0185"/>
</g>
<!-- Node7 -->
<g id="node7" class="node"><title>Node7</title>
<g id="a_node7"><a xlink:href="class_t_m_c2208_stepper.html#a5441dd87d0bcea4ffc309cb012166a57" target="_top" xlink:title=" ">
<polygon fill="white" stroke="black" points="1001,-58.9052 1001,-77.9052 1117,-77.9052 1117,-58.9052 1001,-58.9052"/>
<text text-anchor="middle" x="1059" y="-65.9052" font-family="Helvetica,sans-Serif" font-size="10.00">TMC2208Stepper::IOIN</text>
</a>
</g>
</g>
<!-- Node6&#45;&gt;Node7 -->
<g id="edge6" class="edge"><title>Node6&#45;&gt;Node7</title>
<path fill="none" stroke="midnightblue" d="M936.395,-128.814C945.954,-126.18 955.937,-123.032 965,-119.405 989.717,-109.514 1016.18,-94.529 1034.53,-83.3584"/>
<polygon fill="midnightblue" stroke="midnightblue" points="1036.42,-86.3019 1043.09,-78.0661 1032.74,-80.348 1036.42,-86.3019"/>
</g>
<!-- Node7&#45;&gt;Node4 -->
<g id="edge7" class="edge"><title>Node7&#45;&gt;Node4</title>
<path fill="none" stroke="midnightblue" d="M1038.96,-58.8176C1020.55,-50.0326 991.593,-37.4965 965,-31.4052 814.566,3.05335 769.437,11.3399 618,-18.4052 594.751,-22.9717 569.989,-33.3919 551.866,-42.1675"/>
<polygon fill="midnightblue" stroke="midnightblue" points="549.917,-39.2285 542.532,-46.826 553.043,-45.4917 549.917,-39.2285"/>
</g>
</g>
</svg>
