<?xml version="1.0" encoding="UTF-8" standalone="no"?>
<!DOCTYPE svg PUBLIC "-//W3C//DTD SVG 1.1//EN"
 "http://www.w3.org/Graphics/SVG/1.1/DTD/svg11.dtd">
<!-- Generated by graphviz version 2.38.0 (20140413.2041)
 -->
<!-- Title: TMC2208Stepper::index_step Pages: 1 -->
<svg width="1189pt" height="156pt"
 viewBox="0.00 0.00 1189.00 156.41" xmlns="http://www.w3.org/2000/svg" xmlns:xlink="http://www.w3.org/1999/xlink">
<g id="graph0" class="graph" transform="scale(1 1) rotate(0) translate(4 152.405)">
<title>TMC2208Stepper::index_step</title>
<polygon fill="white" stroke="none" points="-4,4 -4,-152.405 1185,-152.405 1185,4 -4,4"/>
<!-- Node1 -->
<g id="node1" class="node"><title>Node1</title>
<g id="a_node1"><a xlink:title=" ">
<polygon fill="#bfbfbf" stroke="black" points="0,-46.9052 0,-65.9052 145,-65.9052 145,-46.9052 0,-46.9052"/>
<text text-anchor="middle" x="72.5" y="-53.9052" font-family="Helvetica,sans-Serif" font-size="10.00">TMC2208Stepper::index_step</text>
</a>
</g>
</g>
<!-- Node2 -->
<g id="node2" class="node"><title>Node2</title>
<g id="a_node2"><a xlink:href="class_t_m_c2208_stepper.html#aa0f677d760ac3c9a297a6f6d2778ec81" target="_top" xlink:title=" ">
<polygon fill="white" stroke="black" points="181,-46.9052 181,-65.9052 326,-65.9052 326,-46.9052 181,-46.9052"/>
<text text-anchor="middle" x="253.5" y="-53.9052" font-family="Helvetica,sans-Serif" font-size="10.00">TMC2208Stepper::index_step</text>
</a>
</g>
</g>
<!-- Node1&#45;&gt;Node2 -->
<g id="edge1" class="edge"><title>Node1&#45;&gt;Node2</title>
<path fill="none" stroke="midnightblue" d="M145.017,-56.4052C153.486,-56.4052 162.179,-56.4052 170.776,-56.4052"/>
<polygon fill="midnightblue" stroke="midnightblue" points="170.804,-59.9053 180.804,-56.4052 170.804,-52.9053 170.804,-59.9053"/>
</g>
<!-- Node3 -->
<g id="node3" class="node"><title>Node3</title>
<g id="a_node3"><a xlink:href="class_t_m_c2208_stepper.html#a549db4f962d4ae698dda33ef9a708e33" target="_top" xlink:title=" ">
<polygon fill="white" stroke="black" points="362,-46.9052 362,-65.9052 494,-65.9052 494,-46.9052 362,-46.9052"/>
<text text-anchor="middle" x="428" y="-53.9052" font-family="Helvetica,sans-Serif" font-size="10.00">TMC2208Stepper::GCONF</text>
</a>
</g>
</g>
<!-- Node2&#45;&gt;Node3 -->
<g id="edge2" class="edge"><title>Node2&#45;&gt;Node3</title>
<path fill="none" stroke="midnightblue" d="M326.157,-56.4052C334.58,-56.4052 343.195,-56.4052 351.667,-56.4052"/>
<polygon fill="midnightblue" stroke="midnightblue" points="351.908,-59.9053 361.908,-56.4052 351.908,-52.9053 351.908,-59.9053"/>
</g>
<!-- Node4 -->
<g id="node4" class="node"><title>Node4</title>
<g id="a_node4"><a xlink:href="class_t_m_c2208_stepper.html#a2fae2050849c3ab7968012def8ea1cc5" target="_top" xlink:title=" ">
<polygon fill="white" stroke="black" points="530,-46.9052 530,-65.9052 646,-65.9052 646,-46.9052 530,-46.9052"/>
<text text-anchor="middle" x="588" y="-53.9052" font-family="Helvetica,sans-Serif" font-size="10.00">TMC2208Stepper::read</text>
</a>
</g>
</g>
<!-- Node3&#45;&gt;Node4 -->
<g id="edge3" class="edge"><title>Node3&#45;&gt;Node4</title>
<path fill="none" stroke="midnightblue" d="M494.177,-56.4052C502.517,-56.4052 511.069,-56.4052 519.445,-56.4052"/>
<polygon fill="midnightblue" stroke="midnightblue" points="519.55,-59.9053 529.55,-56.4052 519.55,-52.9053 519.55,-59.9053"/>
</g>
<!-- Node5 -->
<g id="node5" class="node"><title>Node5</title>
<g id="a_node5"><a xlink:href="class_t_m_c2208_stepper.html#a3e1f6a10aa1e3e41dc2594dbe1ea8a1d" target="_top" xlink:title=" ">
<polygon fill="white" stroke="black" points="682,-103.905 682,-122.905 848,-122.905 848,-103.905 682,-103.905"/>
<text text-anchor="middle" x="765" y="-110.905" font-family="Helvetica,sans-Serif" font-size="10.00">TMC2208Stepper::_sendDatagram</text>
</a>
</g>
</g>
<!-- Node4&#45;&gt;Node5 -->
<g id="edge4" class="edge"><title>Node4&#45;&gt;Node5</title>
<path fill="none" stroke="midnightblue" d="M609.7,-65.9833C628.317,-74.3262 656.568,-86.3205 682,-94.4052 690.008,-96.9508 698.555,-99.3114 706.996,-101.442"/>
<polygon fill="midnightblue" stroke="midnightblue" points="706.272,-104.868 716.816,-103.834 707.929,-98.0666 706.272,-104.868"/>
</g>
<!-- Node10 -->
<g id="node10" class="node"><title>Node10</title>
<g id="a_node10"><a xlink:href="class_s_switch.html#a6ff09d0850d551571dc333fb74ff8628" target="_top" xlink:title=" ">
<polygon fill="white" stroke="black" points="723.5,-65.9052 723.5,-84.9052 806.5,-84.9052 806.5,-65.9052 723.5,-65.9052"/>
<text text-anchor="middle" x="765" y="-72.9052" font-family="Helvetica,sans-Serif" font-size="10.00">SSwitch::active</text>
</a>
</g>
</g>
<!-- Node4&#45;&gt;Node10 -->
<g id="edge10" class="edge"><title>Node4&#45;&gt;Node10</title>
<path fill="none" stroke="midnightblue" d="M646.302,-62.6265C667.975,-64.9796 692.465,-67.6385 713.472,-69.9193"/>
<polygon fill="midnightblue" stroke="midnightblue" points="713.158,-73.4056 723.477,-71.0055 713.913,-66.4465 713.158,-73.4056"/>
</g>
<!-- Node11 -->
<g id="node11" class="node"><title>Node11</title>
<g id="a_node11"><a xlink:href="class_t_m_c2208_stepper.html#a409c19fa6b052a370a317d061bf9af4e" target="_top" xlink:title=" ">
<polygon fill="white" stroke="black" points="697,-27.9052 697,-46.9052 833,-46.9052 833,-27.9052 697,-27.9052"/>
<text text-anchor="middle" x="765" y="-34.9052" font-family="Helvetica,sans-Serif" font-size="10.00">TMC2208Stepper::calcCRC</text>
</a>
</g>
</g>
<!-- Node4&#45;&gt;Node11 -->
<g id="edge11" class="edge"><title>Node4&#45;&gt;Node11</title>
<path fill="none" stroke="midnightblue" d="M646.302,-50.1839C659.17,-48.7867 673.032,-47.2817 686.567,-45.8121"/>
<polygon fill="midnightblue" stroke="midnightblue" points="687.269,-49.2566 696.833,-44.6976 686.514,-42.2975 687.269,-49.2566"/>
</g>
<!-- Node6 -->
<g id="node6" class="node"><title>Node6</title>
<g id="a_node6"><a xlink:href="class_t_m_c2208_stepper.html#a4ec5d2b2f5a31259c7aba1f3208d63b8" target="_top" xlink:title=" ">
<polygon fill="white" stroke="black" points="898.5,-128.905 898.5,-147.905 1014.5,-147.905 1014.5,-128.905 898.5,-128.905"/>
<text text-anchor="middle" x="956.5" y="-135.905" font-family="Helvetica,sans-Serif" font-size="10.00">TMC2208Stepper::ms2</text>
</a>
</g>
</g>
<!-- Node5&#45;&gt;Node6 -->
<g id="edge5" class="edge"><title>Node5&#45;&gt;Node6</title>
<path fill="none" stroke="midnightblue" d="M838.182,-122.928C854.64,-125.099 872.062,-127.397 888.301,-129.54"/>
<polygon fill="midnightblue" stroke="midnightblue" points="887.868,-133.013 898.24,-130.851 888.784,-126.073 887.868,-133.013"/>
</g>
<!-- Node8 -->
<g id="node8" class="node"><title>Node8</title>
<g id="a_node8"><a xlink:href="class_t_m_c2208_stepper.html#ae561da4ec7c40830e97bf4dc8cf700fb" target="_top" xlink:title=" ">
<polygon fill="white" stroke="black" points="884,-90.9052 884,-109.905 1029,-109.905 1029,-90.9052 884,-90.9052"/>
<text text-anchor="middle" x="956.5" y="-97.9052" font-family="Helvetica,sans-Serif" font-size="10.00">TMC2208Stepper::serial_read</text>
</a>
</g>
</g>
<!-- Node5&#45;&gt;Node8 -->
<g id="edge8" class="edge"><title>Node5&#45;&gt;Node8</title>
<path fill="none" stroke="midnightblue" d="M848.015,-107.779C856.478,-107.198 865.078,-106.608 873.54,-106.028"/>
<polygon fill="midnightblue" stroke="midnightblue" points="874.038,-109.502 883.775,-105.326 873.559,-102.518 874.038,-109.502"/>
</g>
<!-- Node9 -->
<g id="node9" class="node"><title>Node9</title>
<g id="a_node9"><a xlink:href="class_t_m_c2208_stepper.html#a7dd83313385079099b0622957786a979" target="_top" xlink:title=" ">
<polygon fill="white" stroke="black" points="896,-41.4052 896,-71.4052 1017,-71.4052 1017,-41.4052 896,-41.4052"/>
<text text-anchor="start" x="904" y="-59.4052" font-family="Helvetica,sans-Serif" font-size="10.00">TMC2208Stepper::serial</text>
<text text-anchor="middle" x="956.5" y="-48.4052" font-family="Helvetica,sans-Serif" font-size="10.00">_write</text>
</a>
</g>
</g>
<!-- Node5&#45;&gt;Node9 -->
<g id="edge9" class="edge"><title>Node5&#45;&gt;Node9</title>
<path fill="none" stroke="midnightblue" d="M811.793,-103.808C823.658,-101.045 836.367,-97.8399 848,-94.4052 864.315,-89.5878 867.971,-87.1015 884,-81.4052 890.017,-79.2668 896.325,-77.0401 902.595,-74.8355"/>
<polygon fill="midnightblue" stroke="midnightblue" points="904.095,-78.0185 912.372,-71.4052 901.778,-71.4133 904.095,-78.0185"/>
</g>
<!-- Node7 -->
<g id="node7" class="node"><title>Node7</title>
<g id="a_node7"><a xlink:href="class_t_m_c2208_stepper.html#a5441dd87d0bcea4ffc309cb012166a57" target="_top" xlink:title=" ">
<polygon fill="white" stroke="black" points="1065,-58.9052 1065,-77.9052 1181,-77.9052 1181,-58.9052 1065,-58.9052"/>
<text text-anchor="middle" x="1123" y="-65.9052" font-family="Helvetica,sans-Serif" font-size="10.00">TMC2208Stepper::IOIN</text>
</a>
</g>
</g>
<!-- Node6&#45;&gt;Node7 -->
<g id="edge6" class="edge"><title>Node6&#45;&gt;Node7</title>
<path fill="none" stroke="midnightblue" d="M1000.4,-128.814C1009.95,-126.18 1019.94,-123.032 1029,-119.405 1053.72,-109.514 1080.18,-94.529 1098.53,-83.3584"/>
<polygon fill="midnightblue" stroke="midnightblue" points="1100.42,-86.3019 1107.09,-78.0661 1096.74,-80.348 1100.42,-86.3019"/>
</g>
<!-- Node7&#45;&gt;Node4 -->
<g id="edge7" class="edge"><title>Node7&#45;&gt;Node4</title>
<path fill="none" stroke="midnightblue" d="M1102.96,-58.8176C1084.55,-50.0326 1055.59,-37.4965 1029,-31.4052 878.566,3.05335 833.437,11.3399 682,-18.4052 658.751,-22.9717 633.989,-33.3919 615.866,-42.1675"/>
<polygon fill="midnightblue" stroke="midnightblue" points="613.917,-39.2285 606.532,-46.826 617.043,-45.4917 613.917,-39.2285"/>
</g>
</g>
</svg>
