<?xml version="1.0" encoding="UTF-8" standalone="no"?>
<!DOCTYPE svg PUBLIC "-//W3C//DTD SVG 1.1//EN"
 "http://www.w3.org/Graphics/SVG/1.1/DTD/svg11.dtd">
<!-- Generated by graphviz version 2.38.0 (20140413.2041)
 -->
<!-- Title: TMC2160Stepper::SHORT_CONF Pages: 1 -->
<svg width="326pt" height="66pt"
 viewBox="0.00 0.00 326.00 66.00" xmlns="http://www.w3.org/2000/svg" xmlns:xlink="http://www.w3.org/1999/xlink">
<g id="graph0" class="graph" transform="scale(1 1) rotate(0) translate(4 62)">
<title>TMC2160Stepper::SHORT_CONF</title>
<polygon fill="white" stroke="none" points="-4,4 -4,-62 322,-62 322,4 -4,4"/>
<!-- Node1 -->
<g id="node1" class="node"><title>Node1</title>
<g id="a_node1"><a xlink:title=" ">
<polygon fill="#bfbfbf" stroke="black" points="155,-19.5 155,-38.5 318,-38.5 318,-19.5 155,-19.5"/>
<text text-anchor="middle" x="236.5" y="-26.5" font-family="Helvetica,sans-Serif" font-size="10.00">TMC2160Stepper::SHORT_CONF</text>
</a>
</g>
</g>
<!-- Node2 -->
<g id="node2" class="node"><title>Node2</title>
<g id="a_node2"><a xlink:href="class_t_m_c2160_stepper.html#ae8035a0cb8151d5227d8528e540e637d" target="_top" xlink:title=" ">
<polygon fill="white" stroke="black" points="0,-38.5 0,-57.5 119,-57.5 119,-38.5 0,-38.5"/>
<text text-anchor="middle" x="59.5" y="-45.5" font-family="Helvetica,sans-Serif" font-size="10.00">TMC2160Stepper::push</text>
</a>
</g>
</g>
<!-- Node1&#45;&gt;Node2 -->
<g id="edge1" class="edge"><title>Node1&#45;&gt;Node2</title>
<path fill="none" stroke="midnightblue" d="M144.751,-38.8527C136.093,-39.7928 127.477,-40.7282 119.243,-41.6222"/>
<polygon fill="midnightblue" stroke="midnightblue" points="145.351,-42.3082 154.915,-37.7492 144.596,-35.3491 145.351,-42.3082"/>
</g>
<!-- Node3 -->
<g id="node3" class="node"><title>Node3</title>
<g id="a_node3"><a xlink:href="class_t_m_c5160_stepper.html#a5a12974304588f9d01898d91ba854b87" target="_top" xlink:title=" ">
<polygon fill="white" stroke="black" points="0,-0.5 0,-19.5 119,-19.5 119,-0.5 0,-0.5"/>
<text text-anchor="middle" x="59.5" y="-7.5" font-family="Helvetica,sans-Serif" font-size="10.00">TMC5160Stepper::push</text>
</a>
</g>
</g>
<!-- Node1&#45;&gt;Node3 -->
<g id="edge2" class="edge"><title>Node1&#45;&gt;Node3</title>
<path fill="none" stroke="midnightblue" d="M144.751,-19.1473C136.093,-18.2072 127.477,-17.2718 119.243,-16.3778"/>
<polygon fill="midnightblue" stroke="midnightblue" points="144.596,-22.6509 154.915,-20.2508 145.351,-15.6918 144.596,-22.6509"/>
</g>
</g>
</svg>
