<?xml version="1.0" encoding="UTF-8" standalone="no"?>
<!DOCTYPE svg PUBLIC "-//W3C//DTD SVG 1.1//EN"
 "http://www.w3.org/Graphics/SVG/1.1/DTD/svg11.dtd">
<!-- Generated by graphviz version 2.38.0 (20140413.2041)
 -->
<!-- Title: TMC2208Stepper::PWM_SCALE Pages: 1 -->
<svg width="817pt" height="156pt"
 viewBox="0.00 0.00 817.00 156.41" xmlns="http://www.w3.org/2000/svg" xmlns:xlink="http://www.w3.org/1999/xlink">
<g id="graph0" class="graph" transform="scale(1 1) rotate(0) translate(4 152.405)">
<title>TMC2208Stepper::PWM_SCALE</title>
<polygon fill="white" stroke="none" points="-4,4 -4,-152.405 813,-152.405 813,4 -4,4"/>
<!-- Node1 -->
<g id="node1" class="node"><title>Node1</title>
<g id="a_node1"><a xlink:title=" ">
<polygon fill="#bfbfbf" stroke="black" points="0,-41.4052 0,-71.4052 122,-71.4052 122,-41.4052 0,-41.4052"/>
<text text-anchor="start" x="8" y="-59.4052" font-family="Helvetica,sans-Serif" font-size="10.00">TMC2208Stepper::PWM</text>
<text text-anchor="middle" x="61" y="-48.4052" font-family="Helvetica,sans-Serif" font-size="10.00">_SCALE</text>
</a>
</g>
</g>
<!-- Node2 -->
<g id="node2" class="node"><title>Node2</title>
<g id="a_node2"><a xlink:href="class_t_m_c2208_stepper.html#a2fae2050849c3ab7968012def8ea1cc5" target="_top" xlink:title=" ">
<polygon fill="white" stroke="black" points="158,-46.9052 158,-65.9052 274,-65.9052 274,-46.9052 158,-46.9052"/>
<text text-anchor="middle" x="216" y="-53.9052" font-family="Helvetica,sans-Serif" font-size="10.00">TMC2208Stepper::read</text>
</a>
</g>
</g>
<!-- Node1&#45;&gt;Node2 -->
<g id="edge1" class="edge"><title>Node1&#45;&gt;Node2</title>
<path fill="none" stroke="midnightblue" d="M122.031,-56.4052C130.363,-56.4052 138.969,-56.4052 147.428,-56.4052"/>
<polygon fill="midnightblue" stroke="midnightblue" points="147.644,-59.9053 157.644,-56.4052 147.644,-52.9053 147.644,-59.9053"/>
</g>
<!-- Node3 -->
<g id="node3" class="node"><title>Node3</title>
<g id="a_node3"><a xlink:href="class_t_m_c2208_stepper.html#a3e1f6a10aa1e3e41dc2594dbe1ea8a1d" target="_top" xlink:title=" ">
<polygon fill="white" stroke="black" points="310,-103.905 310,-122.905 476,-122.905 476,-103.905 310,-103.905"/>
<text text-anchor="middle" x="393" y="-110.905" font-family="Helvetica,sans-Serif" font-size="10.00">TMC2208Stepper::_sendDatagram</text>
</a>
</g>
</g>
<!-- Node2&#45;&gt;Node3 -->
<g id="edge2" class="edge"><title>Node2&#45;&gt;Node3</title>
<path fill="none" stroke="midnightblue" d="M237.7,-65.9833C256.317,-74.3262 284.568,-86.3205 310,-94.4052 318.008,-96.9508 326.555,-99.3114 334.996,-101.442"/>
<polygon fill="midnightblue" stroke="midnightblue" points="334.272,-104.868 344.816,-103.834 335.929,-98.0666 334.272,-104.868"/>
</g>
<!-- Node8 -->
<g id="node8" class="node"><title>Node8</title>
<g id="a_node8"><a xlink:href="class_s_switch.html#a6ff09d0850d551571dc333fb74ff8628" target="_top" xlink:title=" ">
<polygon fill="white" stroke="black" points="351.5,-65.9052 351.5,-84.9052 434.5,-84.9052 434.5,-65.9052 351.5,-65.9052"/>
<text text-anchor="middle" x="393" y="-72.9052" font-family="Helvetica,sans-Serif" font-size="10.00">SSwitch::active</text>
</a>
</g>
</g>
<!-- Node2&#45;&gt;Node8 -->
<g id="edge8" class="edge"><title>Node2&#45;&gt;Node8</title>
<path fill="none" stroke="midnightblue" d="M274.302,-62.6265C295.975,-64.9796 320.465,-67.6385 341.472,-69.9193"/>
<polygon fill="midnightblue" stroke="midnightblue" points="341.158,-73.4056 351.477,-71.0055 341.913,-66.4465 341.158,-73.4056"/>
</g>
<!-- Node9 -->
<g id="node9" class="node"><title>Node9</title>
<g id="a_node9"><a xlink:href="class_t_m_c2208_stepper.html#a409c19fa6b052a370a317d061bf9af4e" target="_top" xlink:title=" ">
<polygon fill="white" stroke="black" points="325,-27.9052 325,-46.9052 461,-46.9052 461,-27.9052 325,-27.9052"/>
<text text-anchor="middle" x="393" y="-34.9052" font-family="Helvetica,sans-Serif" font-size="10.00">TMC2208Stepper::calcCRC</text>
</a>
</g>
</g>
<!-- Node2&#45;&gt;Node9 -->
<g id="edge9" class="edge"><title>Node2&#45;&gt;Node9</title>
<path fill="none" stroke="midnightblue" d="M274.302,-50.1839C287.17,-48.7867 301.032,-47.2817 314.567,-45.8121"/>
<polygon fill="midnightblue" stroke="midnightblue" points="315.269,-49.2566 324.833,-44.6976 314.514,-42.2975 315.269,-49.2566"/>
</g>
<!-- Node4 -->
<g id="node4" class="node"><title>Node4</title>
<g id="a_node4"><a xlink:href="class_t_m_c2208_stepper.html#a4ec5d2b2f5a31259c7aba1f3208d63b8" target="_top" xlink:title=" ">
<polygon fill="white" stroke="black" points="526.5,-128.905 526.5,-147.905 642.5,-147.905 642.5,-128.905 526.5,-128.905"/>
<text text-anchor="middle" x="584.5" y="-135.905" font-family="Helvetica,sans-Serif" font-size="10.00">TMC2208Stepper::ms2</text>
</a>
</g>
</g>
<!-- Node3&#45;&gt;Node4 -->
<g id="edge3" class="edge"><title>Node3&#45;&gt;Node4</title>
<path fill="none" stroke="midnightblue" d="M466.182,-122.928C482.64,-125.099 500.062,-127.397 516.301,-129.54"/>
<polygon fill="midnightblue" stroke="midnightblue" points="515.868,-133.013 526.24,-130.851 516.784,-126.073 515.868,-133.013"/>
</g>
<!-- Node6 -->
<g id="node6" class="node"><title>Node6</title>
<g id="a_node6"><a xlink:href="class_t_m_c2208_stepper.html#ae561da4ec7c40830e97bf4dc8cf700fb" target="_top" xlink:title=" ">
<polygon fill="white" stroke="black" points="512,-90.9052 512,-109.905 657,-109.905 657,-90.9052 512,-90.9052"/>
<text text-anchor="middle" x="584.5" y="-97.9052" font-family="Helvetica,sans-Serif" font-size="10.00">TMC2208Stepper::serial_read</text>
</a>
</g>
</g>
<!-- Node3&#45;&gt;Node6 -->
<g id="edge6" class="edge"><title>Node3&#45;&gt;Node6</title>
<path fill="none" stroke="midnightblue" d="M476.015,-107.779C484.478,-107.198 493.078,-106.608 501.54,-106.028"/>
<polygon fill="midnightblue" stroke="midnightblue" points="502.038,-109.502 511.775,-105.326 501.559,-102.518 502.038,-109.502"/>
</g>
<!-- Node7 -->
<g id="node7" class="node"><title>Node7</title>
<g id="a_node7"><a xlink:href="class_t_m_c2208_stepper.html#a7dd83313385079099b0622957786a979" target="_top" xlink:title=" ">
<polygon fill="white" stroke="black" points="524,-41.4052 524,-71.4052 645,-71.4052 645,-41.4052 524,-41.4052"/>
<text text-anchor="start" x="532" y="-59.4052" font-family="Helvetica,sans-Serif" font-size="10.00">TMC2208Stepper::serial</text>
<text text-anchor="middle" x="584.5" y="-48.4052" font-family="Helvetica,sans-Serif" font-size="10.00">_write</text>
</a>
</g>
</g>
<!-- Node3&#45;&gt;Node7 -->
<g id="edge7" class="edge"><title>Node3&#45;&gt;Node7</title>
<path fill="none" stroke="midnightblue" d="M439.793,-103.808C451.658,-101.045 464.367,-97.8399 476,-94.4052 492.315,-89.5878 495.971,-87.1015 512,-81.4052 518.017,-79.2668 524.325,-77.0401 530.595,-74.8355"/>
<polygon fill="midnightblue" stroke="midnightblue" points="532.095,-78.0185 540.372,-71.4052 529.778,-71.4133 532.095,-78.0185"/>
</g>
<!-- Node5 -->
<g id="node5" class="node"><title>Node5</title>
<g id="a_node5"><a xlink:href="class_t_m_c2208_stepper.html#a5441dd87d0bcea4ffc309cb012166a57" target="_top" xlink:title=" ">
<polygon fill="white" stroke="black" points="693,-58.9052 693,-77.9052 809,-77.9052 809,-58.9052 693,-58.9052"/>
<text text-anchor="middle" x="751" y="-65.9052" font-family="Helvetica,sans-Serif" font-size="10.00">TMC2208Stepper::IOIN</text>
</a>
</g>
</g>
<!-- Node4&#45;&gt;Node5 -->
<g id="edge4" class="edge"><title>Node4&#45;&gt;Node5</title>
<path fill="none" stroke="midnightblue" d="M628.395,-128.814C637.954,-126.18 647.937,-123.032 657,-119.405 681.717,-109.514 708.177,-94.529 726.529,-83.3584"/>
<polygon fill="midnightblue" stroke="midnightblue" points="728.423,-86.3019 735.088,-78.0661 724.742,-80.348 728.423,-86.3019"/>
</g>
<!-- Node5&#45;&gt;Node2 -->
<g id="edge5" class="edge"><title>Node5&#45;&gt;Node2</title>
<path fill="none" stroke="midnightblue" d="M730.963,-58.8176C712.546,-50.0326 683.593,-37.4965 657,-31.4052 506.566,3.05335 461.437,11.3399 310,-18.4052 286.751,-22.9717 261.989,-33.3919 243.866,-42.1675"/>
<polygon fill="midnightblue" stroke="midnightblue" points="241.917,-39.2285 234.532,-46.826 245.043,-45.4917 241.917,-39.2285"/>
</g>
</g>
</svg>
