<?xml version="1.0" encoding="UTF-8" standalone="no"?>
<!DOCTYPE svg PUBLIC "-//W3C//DTD SVG 1.1//EN"
 "http://www.w3.org/Graphics/SVG/1.1/DTD/svg11.dtd">
<!-- Generated by graphviz version 2.38.0 (20140413.2041)
 -->
<!-- Title: TMC2660Stepper::cs Pages: 1 -->
<svg width="266pt" height="78pt"
 viewBox="0.00 0.00 266.00 77.50" xmlns="http://www.w3.org/2000/svg" xmlns:xlink="http://www.w3.org/1999/xlink">
<g id="graph0" class="graph" transform="scale(1 1) rotate(0) translate(4 73.5)">
<title>TMC2660Stepper::cs</title>
<polygon fill="white" stroke="none" points="-4,4 -4,-73.5 262,-73.5 262,4 -4,4"/>
<!-- Node1 -->
<g id="node1" class="node"><title>Node1</title>
<g id="a_node1"><a xlink:title=" ">
<polygon fill="#bfbfbf" stroke="black" points="150,-28 150,-47 258,-47 258,-28 150,-28"/>
<text text-anchor="middle" x="204" y="-35" font-family="Helvetica,sans-Serif" font-size="10.00">TMC2660Stepper::cs</text>
</a>
</g>
</g>
<!-- Node2 -->
<g id="node2" class="node"><title>Node2</title>
<g id="a_node2"><a xlink:href="class_t_m_c2660_stepper.html#a466d10a3492459cd19e0dc22404578ba" target="_top" xlink:title=" ">
<polygon fill="white" stroke="black" points="3,-50 3,-69 111,-69 111,-50 3,-50"/>
<text text-anchor="middle" x="57" y="-57" font-family="Helvetica,sans-Serif" font-size="10.00">TMC2660Stepper::cs</text>
</a>
</g>
</g>
<!-- Node1&#45;&gt;Node2 -->
<g id="edge1" class="edge"><title>Node1&#45;&gt;Node2</title>
<path fill="none" stroke="midnightblue" d="M139.94,-47.0678C130.342,-48.5239 120.521,-50.0141 111.163,-51.4339"/>
<polygon fill="midnightblue" stroke="midnightblue" points="140.469,-50.5276 149.831,-45.5671 139.419,-43.6068 140.469,-50.5276"/>
</g>
<!-- Node3 -->
<g id="node3" class="node"><title>Node3</title>
<g id="a_node3"><a xlink:href="class_t_m_c2660_stepper.html#a5a4a17c80ceb1bc88be8588b1c34fb77" target="_top" xlink:title=" ">
<polygon fill="white" stroke="black" points="0,-0.5 0,-30.5 114,-30.5 114,-0.5 0,-0.5"/>
<text text-anchor="start" x="8" y="-18.5" font-family="Helvetica,sans-Serif" font-size="10.00">TMC2660Stepper::rms</text>
<text text-anchor="middle" x="57" y="-7.5" font-family="Helvetica,sans-Serif" font-size="10.00">_current</text>
</a>
</g>
</g>
<!-- Node1&#45;&gt;Node3 -->
<g id="edge2" class="edge"><title>Node1&#45;&gt;Node3</title>
<path fill="none" stroke="midnightblue" d="M139.87,-27.9216C131.29,-26.6198 122.531,-25.291 114.087,-24.0097"/>
<polygon fill="midnightblue" stroke="midnightblue" points="139.419,-31.3932 149.831,-29.4329 140.469,-24.4724 139.419,-31.3932"/>
</g>
</g>
</svg>
