<?xml version="1.0" encoding="UTF-8" standalone="no"?>
<!DOCTYPE svg PUBLIC "-//W3C//DTD SVG 1.1//EN"
 "http://www.w3.org/Graphics/SVG/1.1/DTD/svg11.dtd">
<!-- Generated by graphviz version 2.38.0 (20140413.2041)
 -->
<!-- Title: TMC2130Stepper::dcen_cfg4 Pages: 1 -->
<svg width="795pt" height="104pt"
 viewBox="0.00 0.00 795.00 104.00" xmlns="http://www.w3.org/2000/svg" xmlns:xlink="http://www.w3.org/1999/xlink">
<g id="graph0" class="graph" transform="scale(1 1) rotate(0) translate(4 100)">
<title>TMC2130Stepper::dcen_cfg4</title>
<polygon fill="white" stroke="none" points="-4,4 -4,-100 791,-100 791,4 -4,4"/>
<!-- Node1 -->
<g id="node1" class="node"><title>Node1</title>
<g id="a_node1"><a xlink:title=" ">
<polygon fill="#bfbfbf" stroke="black" points="0,-38.5 0,-57.5 142,-57.5 142,-38.5 0,-38.5"/>
<text text-anchor="middle" x="71" y="-45.5" font-family="Helvetica,sans-Serif" font-size="10.00">TMC2130Stepper::dcen_cfg4</text>
</a>
</g>
</g>
<!-- Node2 -->
<g id="node2" class="node"><title>Node2</title>
<g id="a_node2"><a xlink:href="class_t_m_c2130_stepper.html#adde2041047c82600f5e01f52118f92a0" target="_top" xlink:title=" ">
<polygon fill="white" stroke="black" points="178,-38.5 178,-57.5 294,-57.5 294,-38.5 178,-38.5"/>
<text text-anchor="middle" x="236" y="-45.5" font-family="Helvetica,sans-Serif" font-size="10.00">TMC2130Stepper::IOIN</text>
</a>
</g>
</g>
<!-- Node1&#45;&gt;Node2 -->
<g id="edge1" class="edge"><title>Node1&#45;&gt;Node2</title>
<path fill="none" stroke="midnightblue" d="M142.073,-48C150.599,-48 159.297,-48 167.781,-48"/>
<polygon fill="midnightblue" stroke="midnightblue" points="167.998,-51.5001 177.998,-48 167.998,-44.5001 167.998,-51.5001"/>
</g>
<!-- Node3 -->
<g id="node3" class="node"><title>Node3</title>
<g id="a_node3"><a xlink:href="class_t_m_c2130_stepper.html#aed0175bff6e80ebc14e0d2606283cbe0" target="_top" xlink:title=" ">
<polygon fill="white" stroke="black" points="330,-38.5 330,-57.5 446,-57.5 446,-38.5 330,-38.5"/>
<text text-anchor="middle" x="388" y="-45.5" font-family="Helvetica,sans-Serif" font-size="10.00">TMC2130Stepper::read</text>
</a>
</g>
</g>
<!-- Node2&#45;&gt;Node3 -->
<g id="edge2" class="edge"><title>Node2&#45;&gt;Node3</title>
<path fill="none" stroke="midnightblue" d="M294.136,-48C302.377,-48 310.923,-48 319.344,-48"/>
<polygon fill="midnightblue" stroke="midnightblue" points="319.526,-51.5001 329.525,-48 319.525,-44.5001 319.526,-51.5001"/>
</g>
<!-- Node4 -->
<g id="node4" class="node"><title>Node4</title>
<g id="a_node4"><a xlink:href="class_t_m_c2130_stepper.html#aed8aa4583943e649dbf3bb1c1da90d63" target="_top" xlink:title=" ">
<polygon fill="white" stroke="black" points="482,-76.5 482,-95.5 634,-95.5 634,-76.5 482,-76.5"/>
<text text-anchor="middle" x="558" y="-83.5" font-family="Helvetica,sans-Serif" font-size="10.00">TMC2130Stepper::switchCSpin</text>
</a>
</g>
</g>
<!-- Node3&#45;&gt;Node4 -->
<g id="edge3" class="edge"><title>Node3&#45;&gt;Node4</title>
<path fill="none" stroke="midnightblue" d="M431.393,-57.589C453.763,-62.6487 481.398,-68.8996 505.047,-74.2488"/>
<polygon fill="midnightblue" stroke="midnightblue" points="504.386,-77.6875 514.911,-76.4799 505.93,-70.8599 504.386,-77.6875"/>
</g>
<!-- Node5 -->
<g id="node5" class="node"><title>Node5</title>
<g id="a_node5"><a xlink:href="class_s_w___s_p_i_class.html#af260fdc0af3f1312b106483161e559c3" target="_top" xlink:title=" ">
<polygon fill="white" stroke="black" points="670,-19.5 670,-38.5 787,-38.5 787,-19.5 670,-19.5"/>
<text text-anchor="middle" x="728.5" y="-26.5" font-family="Helvetica,sans-Serif" font-size="10.00">SW_SPIClass::transfer</text>
</a>
</g>
</g>
<!-- Node3&#45;&gt;Node5 -->
<g id="edge4" class="edge"><title>Node3&#45;&gt;Node5</title>
<path fill="none" stroke="midnightblue" d="M446.039,-44.7984C505.027,-41.4874 597.113,-36.3186 659.765,-32.802"/>
<polygon fill="midnightblue" stroke="midnightblue" points="660.156,-36.2856 669.944,-32.2306 659.763,-29.2966 660.156,-36.2856"/>
</g>
<!-- Node6 -->
<g id="node6" class="node"><title>Node6</title>
<g id="a_node6"><a xlink:href="class_s_w___s_p_i_class.html#a1b7600aa1d9571c103718c5d3e376675" target="_top" xlink:title=" ">
<polygon fill="white" stroke="black" points="494,-0.5 494,-19.5 622,-19.5 622,-0.5 494,-0.5"/>
<text text-anchor="middle" x="558" y="-7.5" font-family="Helvetica,sans-Serif" font-size="10.00">SW_SPIClass::transfer16</text>
</a>
</g>
</g>
<!-- Node3&#45;&gt;Node6 -->
<g id="edge5" class="edge"><title>Node3&#45;&gt;Node6</title>
<path fill="none" stroke="midnightblue" d="M431.393,-38.411C453.763,-33.3513 481.398,-27.1004 505.047,-21.7512"/>
<polygon fill="midnightblue" stroke="midnightblue" points="505.93,-25.1401 514.911,-19.5201 504.386,-18.3125 505.93,-25.1401"/>
</g>
<!-- Node6&#45;&gt;Node5 -->
<g id="edge6" class="edge"><title>Node6&#45;&gt;Node5</title>
<path fill="none" stroke="midnightblue" d="M622.223,-17.129C634.406,-18.5028 647.217,-19.9473 659.543,-21.3372"/>
<polygon fill="midnightblue" stroke="midnightblue" points="659.43,-24.8466 669.76,-22.4892 660.215,-17.8907 659.43,-24.8466"/>
</g>
</g>
</svg>
