<?xml version="1.0" encoding="UTF-8" standalone="no"?>
<!DOCTYPE svg PUBLIC "-//W3C//DTD SVG 1.1//EN"
 "http://www.w3.org/Graphics/SVG/1.1/DTD/svg11.dtd">
<!-- Generated by graphviz version 2.38.0 (20140413.2041)
 -->
<!-- Title: TMCStepper::rms_current Pages: 1 -->
<svg width="588pt" height="66pt"
 viewBox="0.00 0.00 588.00 66.00" xmlns="http://www.w3.org/2000/svg" xmlns:xlink="http://www.w3.org/1999/xlink">
<g id="graph0" class="graph" transform="scale(1 1) rotate(0) translate(4 62)">
<title>TMCStepper::rms_current</title>
<polygon fill="white" stroke="none" points="-4,4 -4,-62 584,-62 584,4 -4,4"/>
<!-- Node1 -->
<g id="node1" class="node"><title>Node1</title>
<g id="a_node1"><a xlink:title=" ">
<polygon fill="#bfbfbf" stroke="black" points="0,-19.5 0,-38.5 128,-38.5 128,-19.5 0,-19.5"/>
<text text-anchor="middle" x="64" y="-26.5" font-family="Helvetica,sans-Serif" font-size="10.00">TMCStepper::rms_current</text>
</a>
</g>
</g>
<!-- Node2 -->
<g id="node2" class="node"><title>Node2</title>
<g id="a_node2"><a xlink:href="class_t_m_c_stepper.html#aaa5cfefaf915e98eb9700bda48f99337" target="_top" xlink:title=" ">
<polygon fill="white" stroke="black" points="164,-19.5 164,-38.5 292,-38.5 292,-19.5 164,-19.5"/>
<text text-anchor="middle" x="228" y="-26.5" font-family="Helvetica,sans-Serif" font-size="10.00">TMCStepper::rms_current</text>
</a>
</g>
</g>
<!-- Node1&#45;&gt;Node2 -->
<g id="edge1" class="edge"><title>Node1&#45;&gt;Node2</title>
<path fill="none" stroke="midnightblue" d="M128.097,-29C136.435,-29 145.038,-29 153.53,-29"/>
<polygon fill="midnightblue" stroke="midnightblue" points="153.808,-32.5001 163.808,-29 153.808,-25.5001 153.808,-32.5001"/>
</g>
<!-- Node3 -->
<g id="node3" class="node"><title>Node3</title>
<g id="a_node3"><a xlink:href="class_t_m_c_stepper.html#ae6829e76ae67523a4cb60553dd70fece" target="_top" xlink:title=" ">
<polygon fill="white" stroke="black" points="328,-38.5 328,-57.5 437,-57.5 437,-38.5 328,-38.5"/>
<text text-anchor="middle" x="382.5" y="-45.5" font-family="Helvetica,sans-Serif" font-size="10.00">TMCStepper::cs2rms</text>
</a>
</g>
</g>
<!-- Node2&#45;&gt;Node3 -->
<g id="edge2" class="edge"><title>Node2&#45;&gt;Node3</title>
<path fill="none" stroke="midnightblue" d="M292.349,-36.8926C300.727,-37.9364 309.318,-39.0069 317.704,-40.0516"/>
<polygon fill="midnightblue" stroke="midnightblue" points="317.445,-43.5464 327.801,-41.3097 318.311,-36.6001 317.445,-43.5464"/>
</g>
<!-- Node5 -->
<g id="node5" class="node"><title>Node5</title>
<g id="a_node5"><a xlink:href="class_t_m_c_stepper.html#a89f965f7d005e189ef27951f37e699f2" target="_top" xlink:title=" ">
<polygon fill="white" stroke="black" points="336.5,-0.5 336.5,-19.5 428.5,-19.5 428.5,-0.5 336.5,-0.5"/>
<text text-anchor="middle" x="382.5" y="-7.5" font-family="Helvetica,sans-Serif" font-size="10.00">TMCStepper::irun</text>
</a>
</g>
</g>
<!-- Node2&#45;&gt;Node5 -->
<g id="edge4" class="edge"><title>Node2&#45;&gt;Node5</title>
<path fill="none" stroke="midnightblue" d="M292.349,-21.1074C303.512,-19.7166 315.054,-18.2785 325.982,-16.917"/>
<polygon fill="midnightblue" stroke="midnightblue" points="326.748,-20.3487 336.238,-15.6392 325.882,-13.4024 326.748,-20.3487"/>
</g>
<!-- Node4 -->
<g id="node4" class="node"><title>Node4</title>
<g id="a_node4"><a xlink:href="class_t_m_c_stepper.html#ab4366bc26a0f6a4bb1c6c33da5919238" target="_top" xlink:title=" ">
<polygon fill="white" stroke="black" points="473,-38.5 473,-57.5 580,-57.5 580,-38.5 473,-38.5"/>
<text text-anchor="middle" x="526.5" y="-45.5" font-family="Helvetica,sans-Serif" font-size="10.00">TMCStepper::vsense</text>
</a>
</g>
</g>
<!-- Node3&#45;&gt;Node4 -->
<g id="edge3" class="edge"><title>Node3&#45;&gt;Node4</title>
<path fill="none" stroke="midnightblue" d="M437.184,-48C445.448,-48 454.045,-48 462.489,-48"/>
<polygon fill="midnightblue" stroke="midnightblue" points="462.681,-51.5001 472.681,-48 462.681,-44.5001 462.681,-51.5001"/>
</g>
</g>
</svg>
