<?xml version="1.0" encoding="UTF-8" standalone="no"?>
<!DOCTYPE svg PUBLIC "-//W3C//DTD SVG 1.1//EN"
 "http://www.w3.org/Graphics/SVG/1.1/DTD/svg11.dtd">
<!-- Generated by graphviz version 2.38.0 (20140413.2041)
 -->
<!-- Title: TMC5130Stepper Pages: 1 -->
<svg width="183pt" height="209pt"
 viewBox="0.00 0.00 182.50 209.00" xmlns="http://www.w3.org/2000/svg" xmlns:xlink="http://www.w3.org/1999/xlink">
<g id="graph0" class="graph" transform="scale(1 1) rotate(0) translate(4 205)">
<title>TMC5130Stepper</title>
<polygon fill="white" stroke="none" points="-4,4 -4,-205 178.5,-205 178.5,4 -4,4"/>
<!-- Node1 -->
<g id="node1" class="node"><title>Node1</title>
<g id="a_node1"><a xlink:title=" ">
<polygon fill="#bfbfbf" stroke="black" points="35.5,-0.5 35.5,-19.5 127.5,-19.5 127.5,-0.5 35.5,-0.5"/>
<text text-anchor="middle" x="81.5" y="-7.5" font-family="Helvetica,sans-Serif" font-size="10.00">TMC5130Stepper</text>
</a>
</g>
</g>
<!-- Node2 -->
<g id="node2" class="node"><title>Node2</title>
<g id="a_node2"><a xlink:href="class_t_m_c2160_stepper.html" target="_top" xlink:title=" ">
<polygon fill="white" stroke="black" points="35.5,-57.5 35.5,-76.5 127.5,-76.5 127.5,-57.5 35.5,-57.5"/>
<text text-anchor="middle" x="81.5" y="-64.5" font-family="Helvetica,sans-Serif" font-size="10.00">TMC2160Stepper</text>
</a>
</g>
</g>
<!-- Node2&#45;&gt;Node1 -->
<g id="edge1" class="edge"><title>Node2&#45;&gt;Node1</title>
<path fill="none" stroke="midnightblue" d="M81.5,-47.1166C81.5,-37.8173 81.5,-27.0557 81.5,-19.7149"/>
<polygon fill="midnightblue" stroke="midnightblue" points="78.0001,-47.4062 81.5,-57.4063 85.0001,-47.4063 78.0001,-47.4062"/>
</g>
<!-- Node3 -->
<g id="node3" class="node"><title>Node3</title>
<g id="a_node3"><a xlink:href="class_t_m_c2130_stepper.html" target="_top" xlink:title=" ">
<polygon fill="white" stroke="black" points="35.5,-114.5 35.5,-133.5 127.5,-133.5 127.5,-114.5 35.5,-114.5"/>
<text text-anchor="middle" x="81.5" y="-121.5" font-family="Helvetica,sans-Serif" font-size="10.00">TMC2130Stepper</text>
</a>
</g>
</g>
<!-- Node3&#45;&gt;Node2 -->
<g id="edge2" class="edge"><title>Node3&#45;&gt;Node2</title>
<path fill="none" stroke="midnightblue" d="M81.5,-104.117C81.5,-94.8173 81.5,-84.0557 81.5,-76.7149"/>
<polygon fill="midnightblue" stroke="midnightblue" points="78.0001,-104.406 81.5,-114.406 85.0001,-104.406 78.0001,-104.406"/>
</g>
<!-- Node4 -->
<g id="node4" class="node"><title>Node4</title>
<g id="a_node4"><a xlink:href="class_t_m_c_stepper.html" target="_top" xlink:title=" ">
<polygon fill="white" stroke="black" points="0,-181.5 0,-200.5 71,-200.5 71,-181.5 0,-181.5"/>
<text text-anchor="middle" x="35.5" y="-188.5" font-family="Helvetica,sans-Serif" font-size="10.00">TMCStepper</text>
</a>
</g>
</g>
<!-- Node4&#45;&gt;Node3 -->
<g id="edge3" class="edge"><title>Node4&#45;&gt;Node3</title>
<path fill="none" stroke="midnightblue" d="M47.5989,-172.904C56.5376,-160.273 68.334,-143.604 75.3945,-133.627"/>
<polygon fill="midnightblue" stroke="midnightblue" points="44.6235,-171.049 41.7038,-181.234 50.3375,-175.093 44.6235,-171.049"/>
</g>
<!-- Node5 -->
<g id="node5" class="node"><title>Node5</title>
<g id="a_node5"><a xlink:href="class_s_w___s_p_i_class.html" target="_top" xlink:title=" ">
<polygon fill="white" stroke="black" points="89,-181.5 89,-200.5 168,-200.5 168,-181.5 89,-181.5"/>
<text text-anchor="middle" x="128.5" y="-188.5" font-family="Helvetica,sans-Serif" font-size="10.00">SW_SPIClass</text>
</a>
</g>
</g>
<!-- Node5&#45;&gt;Node3 -->
<g id="edge4" class="edge"><title>Node5&#45;&gt;Node3</title>
<path fill="none" stroke="#9a32cd" stroke-dasharray="5,2" d="M116.138,-172.904C107.005,-160.273 94.9522,-143.604 87.7382,-133.627"/>
<polygon fill="#9a32cd" stroke="#9a32cd" points="113.466,-175.181 122.161,-181.234 119.138,-171.079 113.466,-175.181"/>
<text text-anchor="middle" x="141" y="-155" font-family="Helvetica,sans-Serif" font-size="10.00"> TMC_SW_SPI</text>
</g>
</g>
</svg>
