<?xml version="1.0" encoding="UTF-8" standalone="no"?>
<!DOCTYPE svg PUBLIC "-//W3C//DTD SVG 1.1//EN"
 "http://www.w3.org/Graphics/SVG/1.1/DTD/svg11.dtd">
<!-- Generated by graphviz version 2.38.0 (20140413.2041)
 -->
<!-- Title: TMC2209Stepper Pages: 1 -->
<svg width="425pt" height="162pt"
 viewBox="0.00 0.00 425.00 162.00" xmlns="http://www.w3.org/2000/svg" xmlns:xlink="http://www.w3.org/1999/xlink">
<g id="graph0" class="graph" transform="scale(1 1) rotate(0) translate(4 158)">
<title>TMC2209Stepper</title>
<polygon fill="white" stroke="none" points="-4,4 -4,-158 421,-158 421,4 -4,4"/>
<!-- Node1 -->
<g id="node1" class="node"><title>Node1</title>
<g id="a_node1"><a xlink:title=" ">
<polygon fill="#bfbfbf" stroke="black" points="154.5,-0.5 154.5,-19.5 246.5,-19.5 246.5,-0.5 154.5,-0.5"/>
<text text-anchor="middle" x="200.5" y="-7.5" font-family="Helvetica,sans-Serif" font-size="10.00">TMC2209Stepper</text>
</a>
</g>
</g>
<!-- Node2 -->
<g id="node2" class="node"><title>Node2</title>
<g id="a_node2"><a xlink:href="class_t_m_c2208_stepper.html" target="_top" xlink:title=" ">
<polygon fill="white" stroke="black" points="29.5,-67.5 29.5,-86.5 121.5,-86.5 121.5,-67.5 29.5,-67.5"/>
<text text-anchor="middle" x="75.5" y="-74.5" font-family="Helvetica,sans-Serif" font-size="10.00">TMC2208Stepper</text>
</a>
</g>
</g>
<!-- Node2&#45;&gt;Node1 -->
<g id="edge1" class="edge"><title>Node2&#45;&gt;Node1</title>
<path fill="none" stroke="midnightblue" d="M101.263,-62.6034C126.017,-49.7309 162.692,-30.66 183.832,-19.6672"/>
<polygon fill="midnightblue" stroke="midnightblue" points="99.3565,-59.6497 92.099,-67.3685 102.586,-65.8602 99.3565,-59.6497"/>
</g>
<!-- Node3 -->
<g id="node3" class="node"><title>Node3</title>
<g id="a_node3"><a xlink:href="class_t_m_c_stepper.html" target="_top" xlink:title=" ">
<polygon fill="white" stroke="black" points="0,-134.5 0,-153.5 71,-153.5 71,-134.5 0,-134.5"/>
<text text-anchor="middle" x="35.5" y="-141.5" font-family="Helvetica,sans-Serif" font-size="10.00">TMCStepper</text>
</a>
</g>
</g>
<!-- Node3&#45;&gt;Node2 -->
<g id="edge2" class="edge"><title>Node3&#45;&gt;Node2</title>
<path fill="none" stroke="midnightblue" d="M46.2479,-125.535C53.9924,-112.95 64.1109,-96.5072 70.1909,-86.6273"/>
<polygon fill="midnightblue" stroke="midnightblue" points="43.1548,-123.883 40.8946,-134.234 49.1164,-127.552 43.1548,-123.883"/>
</g>
<!-- Node4 -->
<g id="node4" class="node"><title>Node4</title>
<g id="a_node4"><a xlink:href="class_s_switch.html" target="_top" xlink:title=" ">
<polygon fill="white" stroke="black" points="89,-134.5 89,-153.5 142,-153.5 142,-134.5 89,-134.5"/>
<text text-anchor="middle" x="115.5" y="-141.5" font-family="Helvetica,sans-Serif" font-size="10.00">SSwitch</text>
</a>
</g>
</g>
<!-- Node4&#45;&gt;Node2 -->
<g id="edge3" class="edge"><title>Node4&#45;&gt;Node2</title>
<path fill="none" stroke="#9a32cd" stroke-dasharray="5,2" d="M104.752,-125.535C97.0076,-112.95 86.8891,-96.5072 80.8091,-86.6273"/>
<polygon fill="#9a32cd" stroke="#9a32cd" points="101.884,-127.552 110.105,-134.234 107.845,-123.883 101.884,-127.552"/>
<text text-anchor="middle" x="117" y="-108" font-family="Helvetica,sans-Serif" font-size="10.00"> sswitch</text>
</g>
<!-- Node5 -->
<g id="node5" class="node"><title>Node5</title>
<g id="a_node5"><a xlink:href="struct_t_m_c2209__n_1_1_s_g_t_h_r_s__t.html" target="_top" xlink:title=" ">
<polygon fill="white" stroke="black" points="139.5,-67.5 139.5,-86.5 261.5,-86.5 261.5,-67.5 139.5,-67.5"/>
<text text-anchor="middle" x="200.5" y="-74.5" font-family="Helvetica,sans-Serif" font-size="10.00">TMC2209_n::SGTHRS_t</text>
</a>
</g>
</g>
<!-- Node5&#45;&gt;Node1 -->
<g id="edge4" class="edge"><title>Node5&#45;&gt;Node1</title>
<path fill="none" stroke="#9a32cd" stroke-dasharray="5,2" d="M200.5,-57.037C200.5,-44.6703 200.5,-29.1198 200.5,-19.6273"/>
<polygon fill="#9a32cd" stroke="#9a32cd" points="197,-57.2338 200.5,-67.2338 204,-57.2338 197,-57.2338"/>
<text text-anchor="middle" x="241" y="-41" font-family="Helvetica,sans-Serif" font-size="10.00"> SGTHRS_register</text>
</g>
<!-- Node6 -->
<g id="node6" class="node"><title>Node6</title>
<g id="a_node6"><a xlink:href="struct_t_m_c2209__n_1_1_c_o_o_l_c_o_n_f__t.html" target="_top" xlink:title=" ">
<polygon fill="white" stroke="black" points="280,-67.5 280,-86.5 417,-86.5 417,-67.5 280,-67.5"/>
<text text-anchor="middle" x="348.5" y="-74.5" font-family="Helvetica,sans-Serif" font-size="10.00">TMC2209_n::COOLCONF_t</text>
</a>
</g>
</g>
<!-- Node6&#45;&gt;Node1 -->
<g id="edge5" class="edge"><title>Node6&#45;&gt;Node1</title>
<path fill="none" stroke="#9a32cd" stroke-dasharray="5,2" d="M327.577,-61.6729C315.629,-53.9336 300.15,-44.6333 285.5,-38 268.856,-30.464 249.496,-24.1388 233.461,-19.5092"/>
<polygon fill="#9a32cd" stroke="#9a32cd" points="325.683,-64.6165 335.954,-67.217 329.547,-58.7792 325.683,-64.6165"/>
<text text-anchor="middle" x="353" y="-41" font-family="Helvetica,sans-Serif" font-size="10.00"> COOLCONF_register</text>
</g>
</g>
</svg>
