<?xml version="1.0" encoding="UTF-8" standalone="no"?>
<!DOCTYPE svg PUBLIC "-//W3C//DTD SVG 1.1//EN"
 "http://www.w3.org/Graphics/SVG/1.1/DTD/svg11.dtd">
<!-- Generated by graphviz version 2.38.0 (20140413.2041)
 -->
<!-- Title: TMC2208Stepper::diss2g Pages: 1 -->
<svg width="1171pt" height="156pt"
 viewBox="0.00 0.00 1171.00 156.41" xmlns="http://www.w3.org/2000/svg" xmlns:xlink="http://www.w3.org/1999/xlink">
<g id="graph0" class="graph" transform="scale(1 1) rotate(0) translate(4 152.405)">
<title>TMC2208Stepper::diss2g</title>
<polygon fill="white" stroke="none" points="-4,4 -4,-152.405 1167,-152.405 1167,4 -4,4"/>
<!-- Node1 -->
<g id="node1" class="node"><title>Node1</title>
<g id="a_node1"><a xlink:title=" ">
<polygon fill="#bfbfbf" stroke="black" points="0,-46.9052 0,-65.9052 126,-65.9052 126,-46.9052 0,-46.9052"/>
<text text-anchor="middle" x="63" y="-53.9052" font-family="Helvetica,sans-Serif" font-size="10.00">TMC2208Stepper::diss2g</text>
</a>
</g>
</g>
<!-- Node2 -->
<g id="node2" class="node"><title>Node2</title>
<g id="a_node2"><a xlink:href="class_t_m_c2208_stepper.html#a810f59828ccf8b0f55c7274b21ea0255" target="_top" xlink:title=" ">
<polygon fill="white" stroke="black" points="162,-46.9052 162,-65.9052 288,-65.9052 288,-46.9052 162,-46.9052"/>
<text text-anchor="middle" x="225" y="-53.9052" font-family="Helvetica,sans-Serif" font-size="10.00">TMC2208Stepper::diss2g</text>
</a>
</g>
</g>
<!-- Node1&#45;&gt;Node2 -->
<g id="edge1" class="edge"><title>Node1&#45;&gt;Node2</title>
<path fill="none" stroke="midnightblue" d="M126.318,-56.4052C134.615,-56.4052 143.179,-56.4052 151.628,-56.4052"/>
<polygon fill="midnightblue" stroke="midnightblue" points="151.852,-59.9053 161.852,-56.4052 151.852,-52.9053 151.852,-59.9053"/>
</g>
<!-- Node3 -->
<g id="node3" class="node"><title>Node3</title>
<g id="a_node3"><a xlink:href="class_t_m_c2208_stepper.html#aa11281f54c293f3ff2539b1a583682a9" target="_top" xlink:title=" ">
<polygon fill="white" stroke="black" points="324,-46.9052 324,-65.9052 476,-65.9052 476,-46.9052 324,-46.9052"/>
<text text-anchor="middle" x="400" y="-53.9052" font-family="Helvetica,sans-Serif" font-size="10.00">TMC2208Stepper::CHOPCONF</text>
</a>
</g>
</g>
<!-- Node2&#45;&gt;Node3 -->
<g id="edge2" class="edge"><title>Node2&#45;&gt;Node3</title>
<path fill="none" stroke="midnightblue" d="M288.457,-56.4052C296.735,-56.4052 305.332,-56.4052 313.911,-56.4052"/>
<polygon fill="midnightblue" stroke="midnightblue" points="313.953,-59.9053 323.953,-56.4052 313.953,-52.9053 313.953,-59.9053"/>
</g>
<!-- Node4 -->
<g id="node4" class="node"><title>Node4</title>
<g id="a_node4"><a xlink:href="class_t_m_c2208_stepper.html#a2fae2050849c3ab7968012def8ea1cc5" target="_top" xlink:title=" ">
<polygon fill="white" stroke="black" points="512,-46.9052 512,-65.9052 628,-65.9052 628,-46.9052 512,-46.9052"/>
<text text-anchor="middle" x="570" y="-53.9052" font-family="Helvetica,sans-Serif" font-size="10.00">TMC2208Stepper::read</text>
</a>
</g>
</g>
<!-- Node3&#45;&gt;Node4 -->
<g id="edge3" class="edge"><title>Node3&#45;&gt;Node4</title>
<path fill="none" stroke="midnightblue" d="M476.155,-56.4052C484.664,-56.4052 493.296,-56.4052 501.696,-56.4052"/>
<polygon fill="midnightblue" stroke="midnightblue" points="501.802,-59.9053 511.802,-56.4052 501.802,-52.9053 501.802,-59.9053"/>
</g>
<!-- Node5 -->
<g id="node5" class="node"><title>Node5</title>
<g id="a_node5"><a xlink:href="class_t_m_c2208_stepper.html#a3e1f6a10aa1e3e41dc2594dbe1ea8a1d" target="_top" xlink:title=" ">
<polygon fill="white" stroke="black" points="664,-103.905 664,-122.905 830,-122.905 830,-103.905 664,-103.905"/>
<text text-anchor="middle" x="747" y="-110.905" font-family="Helvetica,sans-Serif" font-size="10.00">TMC2208Stepper::_sendDatagram</text>
</a>
</g>
</g>
<!-- Node4&#45;&gt;Node5 -->
<g id="edge4" class="edge"><title>Node4&#45;&gt;Node5</title>
<path fill="none" stroke="midnightblue" d="M591.7,-65.9833C610.317,-74.3262 638.568,-86.3205 664,-94.4052 672.008,-96.9508 680.555,-99.3114 688.996,-101.442"/>
<polygon fill="midnightblue" stroke="midnightblue" points="688.272,-104.868 698.816,-103.834 689.929,-98.0666 688.272,-104.868"/>
</g>
<!-- Node10 -->
<g id="node10" class="node"><title>Node10</title>
<g id="a_node10"><a xlink:href="class_s_switch.html#a6ff09d0850d551571dc333fb74ff8628" target="_top" xlink:title=" ">
<polygon fill="white" stroke="black" points="705.5,-65.9052 705.5,-84.9052 788.5,-84.9052 788.5,-65.9052 705.5,-65.9052"/>
<text text-anchor="middle" x="747" y="-72.9052" font-family="Helvetica,sans-Serif" font-size="10.00">SSwitch::active</text>
</a>
</g>
</g>
<!-- Node4&#45;&gt;Node10 -->
<g id="edge10" class="edge"><title>Node4&#45;&gt;Node10</title>
<path fill="none" stroke="midnightblue" d="M628.302,-62.6265C649.975,-64.9796 674.465,-67.6385 695.472,-69.9193"/>
<polygon fill="midnightblue" stroke="midnightblue" points="695.158,-73.4056 705.477,-71.0055 695.913,-66.4465 695.158,-73.4056"/>
</g>
<!-- Node11 -->
<g id="node11" class="node"><title>Node11</title>
<g id="a_node11"><a xlink:href="class_t_m_c2208_stepper.html#a409c19fa6b052a370a317d061bf9af4e" target="_top" xlink:title=" ">
<polygon fill="white" stroke="black" points="679,-27.9052 679,-46.9052 815,-46.9052 815,-27.9052 679,-27.9052"/>
<text text-anchor="middle" x="747" y="-34.9052" font-family="Helvetica,sans-Serif" font-size="10.00">TMC2208Stepper::calcCRC</text>
</a>
</g>
</g>
<!-- Node4&#45;&gt;Node11 -->
<g id="edge11" class="edge"><title>Node4&#45;&gt;Node11</title>
<path fill="none" stroke="midnightblue" d="M628.302,-50.1839C641.17,-48.7867 655.032,-47.2817 668.567,-45.8121"/>
<polygon fill="midnightblue" stroke="midnightblue" points="669.269,-49.2566 678.833,-44.6976 668.514,-42.2975 669.269,-49.2566"/>
</g>
<!-- Node6 -->
<g id="node6" class="node"><title>Node6</title>
<g id="a_node6"><a xlink:href="class_t_m_c2208_stepper.html#a4ec5d2b2f5a31259c7aba1f3208d63b8" target="_top" xlink:title=" ">
<polygon fill="white" stroke="black" points="880.5,-128.905 880.5,-147.905 996.5,-147.905 996.5,-128.905 880.5,-128.905"/>
<text text-anchor="middle" x="938.5" y="-135.905" font-family="Helvetica,sans-Serif" font-size="10.00">TMC2208Stepper::ms2</text>
</a>
</g>
</g>
<!-- Node5&#45;&gt;Node6 -->
<g id="edge5" class="edge"><title>Node5&#45;&gt;Node6</title>
<path fill="none" stroke="midnightblue" d="M820.182,-122.928C836.64,-125.099 854.062,-127.397 870.301,-129.54"/>
<polygon fill="midnightblue" stroke="midnightblue" points="869.868,-133.013 880.24,-130.851 870.784,-126.073 869.868,-133.013"/>
</g>
<!-- Node8 -->
<g id="node8" class="node"><title>Node8</title>
<g id="a_node8"><a xlink:href="class_t_m_c2208_stepper.html#ae561da4ec7c40830e97bf4dc8cf700fb" target="_top" xlink:title=" ">
<polygon fill="white" stroke="black" points="866,-90.9052 866,-109.905 1011,-109.905 1011,-90.9052 866,-90.9052"/>
<text text-anchor="middle" x="938.5" y="-97.9052" font-family="Helvetica,sans-Serif" font-size="10.00">TMC2208Stepper::serial_read</text>
</a>
</g>
</g>
<!-- Node5&#45;&gt;Node8 -->
<g id="edge8" class="edge"><title>Node5&#45;&gt;Node8</title>
<path fill="none" stroke="midnightblue" d="M830.015,-107.779C838.478,-107.198 847.078,-106.608 855.54,-106.028"/>
<polygon fill="midnightblue" stroke="midnightblue" points="856.038,-109.502 865.775,-105.326 855.559,-102.518 856.038,-109.502"/>
</g>
<!-- Node9 -->
<g id="node9" class="node"><title>Node9</title>
<g id="a_node9"><a xlink:href="class_t_m_c2208_stepper.html#a7dd83313385079099b0622957786a979" target="_top" xlink:title=" ">
<polygon fill="white" stroke="black" points="878,-41.4052 878,-71.4052 999,-71.4052 999,-41.4052 878,-41.4052"/>
<text text-anchor="start" x="886" y="-59.4052" font-family="Helvetica,sans-Serif" font-size="10.00">TMC2208Stepper::serial</text>
<text text-anchor="middle" x="938.5" y="-48.4052" font-family="Helvetica,sans-Serif" font-size="10.00">_write</text>
</a>
</g>
</g>
<!-- Node5&#45;&gt;Node9 -->
<g id="edge9" class="edge"><title>Node5&#45;&gt;Node9</title>
<path fill="none" stroke="midnightblue" d="M793.793,-103.808C805.658,-101.045 818.367,-97.8399 830,-94.4052 846.315,-89.5878 849.971,-87.1015 866,-81.4052 872.017,-79.2668 878.325,-77.0401 884.595,-74.8355"/>
<polygon fill="midnightblue" stroke="midnightblue" points="886.095,-78.0185 894.372,-71.4052 883.778,-71.4133 886.095,-78.0185"/>
</g>
<!-- Node7 -->
<g id="node7" class="node"><title>Node7</title>
<g id="a_node7"><a xlink:href="class_t_m_c2208_stepper.html#a5441dd87d0bcea4ffc309cb012166a57" target="_top" xlink:title=" ">
<polygon fill="white" stroke="black" points="1047,-58.9052 1047,-77.9052 1163,-77.9052 1163,-58.9052 1047,-58.9052"/>
<text text-anchor="middle" x="1105" y="-65.9052" font-family="Helvetica,sans-Serif" font-size="10.00">TMC2208Stepper::IOIN</text>
</a>
</g>
</g>
<!-- Node6&#45;&gt;Node7 -->
<g id="edge6" class="edge"><title>Node6&#45;&gt;Node7</title>
<path fill="none" stroke="midnightblue" d="M982.395,-128.814C991.954,-126.18 1001.94,-123.032 1011,-119.405 1035.72,-109.514 1062.18,-94.529 1080.53,-83.3584"/>
<polygon fill="midnightblue" stroke="midnightblue" points="1082.42,-86.3019 1089.09,-78.0661 1078.74,-80.348 1082.42,-86.3019"/>
</g>
<!-- Node7&#45;&gt;Node4 -->
<g id="edge7" class="edge"><title>Node7&#45;&gt;Node4</title>
<path fill="none" stroke="midnightblue" d="M1084.96,-58.8176C1066.55,-50.0326 1037.59,-37.4965 1011,-31.4052 860.566,3.05335 815.437,11.3399 664,-18.4052 640.751,-22.9717 615.989,-33.3919 597.866,-42.1675"/>
<polygon fill="midnightblue" stroke="midnightblue" points="595.917,-39.2285 588.532,-46.826 599.043,-45.4917 595.917,-39.2285"/>
</g>
</g>
</svg>
