<?xml version="1.0" encoding="UTF-8" standalone="no"?>
<!DOCTYPE svg PUBLIC "-//W3C//DTD SVG 1.1//EN"
 "http://www.w3.org/Graphics/SVG/1.1/DTD/svg11.dtd">
<!-- Generated by graphviz version 2.38.0 (20140413.2041)
 -->
<!-- Title: Graphical Class Hierarchy Pages: 1 -->
<svg width="719pt" height="104pt"
 viewBox="0.00 0.00 719.00 104.00" xmlns="http://www.w3.org/2000/svg" xmlns:xlink="http://www.w3.org/1999/xlink">
<g id="graph0" class="graph" transform="scale(1 1) rotate(0) translate(4 100)">
<title>Graphical Class Hierarchy</title>
<polygon fill="white" stroke="none" points="-4,4 -4,-100 715,-100 715,4 -4,4"/>
<!-- Node0 -->
<g id="node1" class="node"><title>Node0</title>
<g id="a_node1"><a xlink:href="class_t_m_c_stepper.html" target="_top" xlink:title=" ">
<polygon fill="white" stroke="black" points="0,-57.5 0,-76.5 71,-76.5 71,-57.5 0,-57.5"/>
<text text-anchor="middle" x="35.5" y="-64.5" font-family="Helvetica,sans-Serif" font-size="10.00">TMCStepper</text>
</a>
</g>
</g>
<!-- Node1 -->
<g id="node2" class="node"><title>Node1</title>
<g id="a_node2"><a xlink:href="class_t_m_c2130_stepper.html" target="_top" xlink:title=" ">
<polygon fill="white" stroke="black" points="107,-76.5 107,-95.5 199,-95.5 199,-76.5 107,-76.5"/>
<text text-anchor="middle" x="153" y="-83.5" font-family="Helvetica,sans-Serif" font-size="10.00">TMC2130Stepper</text>
</a>
</g>
</g>
<!-- Node0&#45;&gt;Node1 -->
<g id="edge1" class="edge"><title>Node0&#45;&gt;Node1</title>
<path fill="none" stroke="midnightblue" d="M81.1291,-74.3416C89.5069,-75.7197 98.2737,-77.1619 106.672,-78.5435"/>
<polygon fill="midnightblue" stroke="midnightblue" points="81.5893,-70.8703 71.1538,-72.7006 80.453,-77.7775 81.5893,-70.8703"/>
</g>
<!-- Node6 -->
<g id="node7" class="node"><title>Node6</title>
<g id="a_node7"><a xlink:href="class_t_m_c2208_stepper.html" target="_top" xlink:title=" ">
<polygon fill="white" stroke="black" points="107,-38.5 107,-57.5 199,-57.5 199,-38.5 107,-38.5"/>
<text text-anchor="middle" x="153" y="-45.5" font-family="Helvetica,sans-Serif" font-size="10.00">TMC2208Stepper</text>
</a>
</g>
</g>
<!-- Node0&#45;&gt;Node6 -->
<g id="edge6" class="edge"><title>Node0&#45;&gt;Node6</title>
<path fill="none" stroke="midnightblue" d="M81.1291,-59.6584C89.5069,-58.2803 98.2737,-56.8381 106.672,-55.4565"/>
<polygon fill="midnightblue" stroke="midnightblue" points="80.453,-56.2225 71.1538,-61.2994 81.5893,-63.1297 80.453,-56.2225"/>
</g>
<!-- Node2 -->
<g id="node3" class="node"><title>Node2</title>
<g id="a_node3"><a xlink:href="class_t_m_c2160_stepper.html" target="_top" xlink:title=" ">
<polygon fill="white" stroke="black" points="235,-76.5 235,-95.5 327,-95.5 327,-76.5 235,-76.5"/>
<text text-anchor="middle" x="281" y="-83.5" font-family="Helvetica,sans-Serif" font-size="10.00">TMC2160Stepper</text>
</a>
</g>
</g>
<!-- Node1&#45;&gt;Node2 -->
<g id="edge2" class="edge"><title>Node1&#45;&gt;Node2</title>
<path fill="none" stroke="midnightblue" d="M209.353,-86C217.844,-86 226.522,-86 234.759,-86"/>
<polygon fill="midnightblue" stroke="midnightblue" points="209.133,-82.5001 199.133,-86 209.133,-89.5001 209.133,-82.5001"/>
</g>
<!-- Node3 -->
<g id="node4" class="node"><title>Node3</title>
<g id="a_node4"><a xlink:href="class_t_m_c5130_stepper.html" target="_top" xlink:title=" ">
<polygon fill="white" stroke="black" points="363,-76.5 363,-95.5 455,-95.5 455,-76.5 363,-76.5"/>
<text text-anchor="middle" x="409" y="-83.5" font-family="Helvetica,sans-Serif" font-size="10.00">TMC5130Stepper</text>
</a>
</g>
</g>
<!-- Node2&#45;&gt;Node3 -->
<g id="edge3" class="edge"><title>Node2&#45;&gt;Node3</title>
<path fill="none" stroke="midnightblue" d="M337.353,-86C345.844,-86 354.522,-86 362.759,-86"/>
<polygon fill="midnightblue" stroke="midnightblue" points="337.133,-82.5001 327.133,-86 337.133,-89.5001 337.133,-82.5001"/>
</g>
<!-- Node4 -->
<g id="node5" class="node"><title>Node4</title>
<g id="a_node5"><a xlink:href="class_t_m_c5160_stepper.html" target="_top" xlink:title=" ">
<polygon fill="white" stroke="black" points="491,-76.5 491,-95.5 583,-95.5 583,-76.5 491,-76.5"/>
<text text-anchor="middle" x="537" y="-83.5" font-family="Helvetica,sans-Serif" font-size="10.00">TMC5160Stepper</text>
</a>
</g>
</g>
<!-- Node3&#45;&gt;Node4 -->
<g id="edge4" class="edge"><title>Node3&#45;&gt;Node4</title>
<path fill="none" stroke="midnightblue" d="M465.353,-86C473.844,-86 482.522,-86 490.759,-86"/>
<polygon fill="midnightblue" stroke="midnightblue" points="465.133,-82.5001 455.133,-86 465.133,-89.5001 465.133,-82.5001"/>
</g>
<!-- Node5 -->
<g id="node6" class="node"><title>Node5</title>
<g id="a_node6"><a xlink:href="class_t_m_c5161_stepper.html" target="_top" xlink:title=" ">
<polygon fill="white" stroke="black" points="619,-76.5 619,-95.5 711,-95.5 711,-76.5 619,-76.5"/>
<text text-anchor="middle" x="665" y="-83.5" font-family="Helvetica,sans-Serif" font-size="10.00">TMC5161Stepper</text>
</a>
</g>
</g>
<!-- Node4&#45;&gt;Node5 -->
<g id="edge5" class="edge"><title>Node4&#45;&gt;Node5</title>
<path fill="none" stroke="midnightblue" d="M593.353,-86C601.844,-86 610.522,-86 618.759,-86"/>
<polygon fill="midnightblue" stroke="midnightblue" points="593.133,-82.5001 583.133,-86 593.133,-89.5001 593.133,-82.5001"/>
</g>
<!-- Node7 -->
<g id="node8" class="node"><title>Node7</title>
<g id="a_node8"><a xlink:href="class_t_m_c2209_stepper.html" target="_top" xlink:title=" ">
<polygon fill="white" stroke="black" points="235,-38.5 235,-57.5 327,-57.5 327,-38.5 235,-38.5"/>
<text text-anchor="middle" x="281" y="-45.5" font-family="Helvetica,sans-Serif" font-size="10.00">TMC2209Stepper</text>
</a>
</g>
</g>
<!-- Node6&#45;&gt;Node7 -->
<g id="edge7" class="edge"><title>Node6&#45;&gt;Node7</title>
<path fill="none" stroke="midnightblue" d="M209.353,-48C217.844,-48 226.522,-48 234.759,-48"/>
<polygon fill="midnightblue" stroke="midnightblue" points="209.133,-44.5001 199.133,-48 209.133,-51.5001 209.133,-44.5001"/>
</g>
<!-- Node8 -->
<g id="node9" class="node"><title>Node8</title>
<g id="a_node9"><a xlink:href="class_t_m_c2224_stepper.html" target="_top" xlink:title=" ">
<polygon fill="white" stroke="black" points="235,-0.5 235,-19.5 327,-19.5 327,-0.5 235,-0.5"/>
<text text-anchor="middle" x="281" y="-7.5" font-family="Helvetica,sans-Serif" font-size="10.00">TMC2224Stepper</text>
</a>
</g>
</g>
<!-- Node6&#45;&gt;Node8 -->
<g id="edge8" class="edge"><title>Node6&#45;&gt;Node8</title>
<path fill="none" stroke="midnightblue" d="M195.564,-35.4647C212.705,-30.2952 232.25,-24.4009 248.215,-19.5859"/>
<polygon fill="midnightblue" stroke="midnightblue" points="194.359,-32.1726 185.795,-38.411 196.38,-38.8744 194.359,-32.1726"/>
</g>
</g>
</svg>
